<?xml version="1.0" encoding="UTF-8"?>
<svg width="63px" height="66px" viewBox="0 0 63 66" version="1.1" xmlns="http://www.w3.org/2000/svg" xmlns:xlink="http://www.w3.org/1999/xlink">
    <!-- Generator: Sketch 44.1 (41455) - http://www.bohemiancoding.com/sketch -->
    <title>ico-3</title>
    <desc>Created with Sketch.</desc>
    <defs></defs>
    <g id="Page-1" stroke="none" stroke-width="1" fill="none" fill-rule="evenodd">
        <g id="ico-3" fill-rule="nonzero" fill="#FFFFFF">
            <path d="M62.83,26.55 C62.2359136,23.0948979 59.1420973,20.636776 55.6421319,20.8390418 C52.1421665,21.0413075 49.3521145,23.8394627 49.16,27.34 L36.38,29.4 C35.8192747,28.0366927 34.8384312,26.8877046 33.58,26.12 L38.28,14.12 C41.746723,14.6858651 45.0841493,12.5532088 46.0270655,9.1695302 C46.9699816,5.78585161 45.2164869,2.23452875 41.956732,0.925953307 C38.6969771,-0.382622134 34.9746624,0.970526345 33.316237,4.06697539 C31.6578115,7.16342444 32.594266,11.0117605 35.49,13 L30.74,25.15 C28.5476483,24.9082677 26.373262,25.7385557 24.9,27.38 L13.9,20.72 C15.0269372,17.3692217 13.4510277,13.707303 10.2429271,12.2221116 C7.03482656,10.7369202 3.22304919,11.904607 1.39727498,14.9318585 C-0.428499231,17.9591099 0.317071299,21.8753918 3.12745408,24.0200249 C5.93783686,26.1646581 9.91202569,25.850075 12.35,23.29 L23.41,30 C22.7632777,32.0953078 23.1572277,34.3735281 24.47,36.13 L16,45.9 C12.8839457,44.2418014 9.01924513,45.1946799 7.03116796,48.1113502 C5.04309079,51.0280205 5.56889234,54.9735776 8.25139854,57.2678263 C10.9339047,59.562075 14.913269,59.4696203 17.4863312,57.0532661 C20.0593934,54.636912 20.401388,50.6711929 18.28,47.85 L26.73,38.08 C27.1837351,38.3231278 27.6634301,38.5143349 28.16,38.65 L28.16,51.65 C24.7310384,52.414854 22.4266991,55.6371774 22.8114401,59.1292761 C23.1961812,62.6213748 26.1467708,65.2647379 29.66,65.2647379 C33.1732292,65.2647379 36.1238188,62.6213748 36.5085599,59.1292761 C36.8933009,55.6371774 34.5889616,52.414854 31.16,51.65 L31.16,38.79 C32.5933195,38.537793 33.9097443,37.837567 34.92,36.79 L46.11,43.34 C45.0293977,46.6942091 46.6459969,50.3242371 49.8619935,51.7649958 C53.0779902,53.2057545 56.8629701,51.9956209 58.6466199,48.9563754 C60.4302698,45.9171299 59.6411033,42.0225551 56.8150295,39.9173884 C53.9889558,37.8122216 50.0314565,38.170964 47.63,40.75 L36.5,34.27 C36.7135773,33.6541794 36.8381669,33.0110276 36.87,32.36 L49.63,30.3 C50.672066,32.9083497 53.1912359,34.6247072 56,34.64 C56.4057592,34.6384721 56.8106171,34.6016668 57.21,34.53 C59.0122747,34.2106656 60.6138242,33.1883274 61.6622,31.6879685 C62.7105758,30.1876096 63.1198662,28.3321804 62.8,26.53 L62.83,26.55 Z M35.67,6 C36.3106423,4.25512156 38.0936748,3.20485355 39.930365,3.4904971 C41.7670553,3.77614065 43.1469108,5.31830353 43.2273819,7.17533012 C43.3078531,9.0323567 42.0665736,10.6881021 40.2614776,11.1315564 C38.4563816,11.5750107 36.5891802,10.6829195 35.8,9 C35.3579968,8.05743234 35.3111898,6.97726957 35.67,6 L35.67,6 Z M8.33,22.28 C6.95955699,22.7151315 5.46085764,22.3609006 4.43024526,21.3582583 C3.39963287,20.355616 3.00431063,18.8672277 3.4015801,17.4853339 C3.79884957,16.1034402 4.92425906,15.0522348 6.33,14.75 C6.65632454,14.6636837 6.99245265,14.6199871 7.33,14.62 C9.27536443,14.6374577 10.9103508,16.0859148 11.1621881,18.0149885 C11.4140254,19.9440622 10.2056847,21.7637108 8.33,22.28 L8.33,22.28 Z M49.33,43.53 C49.8464912,42.6342943 50.6999302,41.9825117 51.7,41.72 C52.0263245,41.6336837 52.3624527,41.5899871 52.7,41.59 C54.4649293,41.5911316 56.0091174,42.7774057 56.4650951,44.4824163 C56.9210728,46.1874269 56.1751738,47.986148 54.6464171,48.868123 C53.1176605,49.750098 51.1871355,49.4954676 49.9393416,48.2472741 C48.6915477,46.9990805 48.4375355,45.0684741 49.32,43.54 L49.33,43.53 Z M15.8,54.53 C14.906836,55.6017968 13.5097217,56.1156806 12.1349364,55.8780763 C10.7601512,55.6404721 9.6165576,54.6874774 9.13493637,53.3780763 C8.65331513,52.0686752 8.90683595,50.6017968 9.8,49.53 L9.8,49.53 C10.4606145,48.7361702 11.4111172,48.2393166 12.44,48.15 L12.79,48.15 C14.309124,48.1389799 15.6956689,49.0133093 16.3404536,50.3888499 C16.9852383,51.7643905 16.7702717,53.3894284 15.79,54.55 L15.8,54.53 Z M33.59,58.41 C33.5899948,59.9883116 32.6387047,61.4110217 31.1801465,62.014077 C29.7215883,62.6171323 28.0433471,62.2816279 26.9287458,61.1641613 C25.8141445,60.0466947 25.4829499,58.3675976 26.0897478,56.9105925 C26.6965458,55.4535874 28.1216935,54.505953 29.7,54.51 C31.8266364,54.5317507 33.5437516,56.2533144 33.56,58.38 L33.59,58.41 Z M30,35.9 C28.4225972,35.9 27.0005157,34.9497955 26.3968698,33.4924654 C25.7932239,32.0351353 26.1268914,30.3576757 27.2422836,29.2422836 C28.3576757,28.1268914 30.0351353,27.7932239 31.4924654,28.3968698 C32.9497955,29.0005157 33.9,30.4225972 33.9,32 C33.9,34.1539105 32.1539105,35.9 30,35.9 L30,35.9 Z M59.23,30 C58.1662008,31.5271424 56.1715681,32.0898162 54.4665109,31.3437514 C52.7614537,30.5976865 51.8211478,28.750801 52.2209159,26.9331052 C52.6206841,25.1154094 54.2491165,23.8334698 56.1098626,23.8716366 C57.9706087,23.9098035 59.5451043,25.2574402 59.87,27.09 C60.0535868,28.1065407 59.8231542,29.154289 59.23,30 Z" id="Shape"></path>
        </g>
    </g>
</svg>