<?xml version="1.0" encoding="UTF-8"?>
<svg width="86px" height="70px" viewBox="0 0 86 70" version="1.1" xmlns="http://www.w3.org/2000/svg" xmlns:xlink="http://www.w3.org/1999/xlink">
    <!-- Generator: Sketch 44.1 (41455) - http://www.bohemiancoding.com/sketch -->
    <title>ico-2</title>
    <desc>Created with Sketch.</desc>
    <defs></defs>
    <g id="Page-1" stroke="none" stroke-width="1" fill="none" fill-rule="evenodd">
        <g id="ico-2" fill-rule="nonzero" fill="#FFFFFF">
            <path d="M17,-1e-05 C12.5817,-1e-05 9,3.58171 9,7.99999 C9,12.41826 12.5817,15.99999 17,15.99999 C18.205,15.99999 19.3501,15.72712 20.375,15.24999 C21.081,12.78385 22.7204,10.72595 24.875,9.43749 C24.959,8.97321 25,8.48843 25,7.99999 C25,3.58171 21.4183,-1e-05 17,-1e-05 Z M69,-1e-05 C64.5817,-1e-05 61,3.58171 61,7.99999 C61,8.48843 61.041,8.97321 61.125,9.43749 C63.2796,10.72595 64.919,12.78385 65.625,15.24999 C66.6499,15.72712 67.795,15.99999 69,15.99999 C73.4183,15.99999 77,12.41826 77,7.99999 C77,3.58171 73.4183,-1e-05 69,-1e-05 Z M43,4.99999 C38.5817,4.99999 35,8.58171 35,12.99999 C35,17.41827 38.5817,20.99999 43,20.99999 C47.4183,20.99999 51,17.41827 51,12.99999 C51,8.58171 47.4183,4.99999 43,4.99999 Z M30,9.99999 C25.58172,9.99999 22,13.58171 22,17.99999 C22,22.41827 25.58172,25.99999 30,25.99999 C33.27354,25.99999 36.07392,24.03457 37.3125,21.21874 C34.70477,19.41399 33,16.4114 33,12.99999 C33,12.2095 33.10787,11.45632 33.28125,10.71874 C32.27966,10.2675 31.16984,9.99999 30,9.99999 Z M56,9.99999 C54.8302,9.99999 53.7202,10.2675 52.7188,10.71874 C52.8921,11.45632 53,12.2095 53,12.99999 C53,16.4114 51.2952,19.41399 48.6875,21.21874 C49.9261,24.03457 52.7265,25.99999 56,25.99999 C60.4183,25.99999 64,22.41827 64,17.99999 C64,13.58171 60.4183,9.99999 56,9.99999 Z M17,17.99999 C7.582,17.99999 0,22.99679 0,28.90624 L0,42.00002 C1.9086,42.02702 6.521,42.03502 11,42.03102 L11,38.90602 C11,35.09592 13.4169,31.76815 16.875,29.53099 C19.0889,28.09871 21.7764,27.0644 24.75,26.49974 C21.9381,24.764 20.054,21.6902 20,18.15599 C18.7345,18.06409 17.6185,17.99974 17,17.99974 L17,17.99999 Z M69,17.99999 C68.3815,17.99999 67.2655,18.06429 66,18.15624 C65.946,21.69045 64.0619,24.76425 61.25,26.49999 C64.2236,27.06465 66.9111,28.09896 69.125,29.53124 C72.5831,31.7684 75,35.09622 75,38.90622 L75,42.03122 C79.479,42.03122 84.0914,42.03122 86,42.00022 L86,28.90649 C86,22.99704 78.418,18.00024 69,18.00024 L69,17.99999 Z M43,26.99999 C33.58201,26.99999 26,31.99694 26,37.90622 L26,70.00002 L60,70.00002 L60,37.90622 C60,31.99694 52.418,26.99999 43,26.99999 Z M30,27.99999 C20.582,27.99999 13,32.99682 13,38.90622 L13,52.00002 C17.2308,52.00002 19.8243,52.00002 24,52.00002 L24,37.90622 C23.9997,34.43082 26.4051,30.3393 30.75,28.03124 C30.4979,28.02624 30.2647,28.00004 30,28.00004 L30,27.99999 Z M56,27.99999 C55.7353,27.99999 55.5021,28.02599 55.25,28.03119 C59.5949,30.33925 62.0003,34.43082 62,37.90622 L62,51.99992 C66.1757,51.99992 68.7692,51.99992 73,51.99992 L73,38.90622 C73,32.99682 65.418,27.99994 56,27.99994 L56,27.99999 Z" id="Shape"></path>
        </g>
    </g>
</svg>