<?xml version="1.0" encoding="utf-8"?>
<!-- Generator: Adobe Illustrator 16.0.0, SVG Export Plug-In . SVG Version: 6.00 Build 0)  -->
<!DOCTYPE svg PUBLIC "-//W3C//DTD SVG 1.1//EN" "http://www.w3.org/Graphics/SVG/1.1/DTD/svg11.dtd">
<svg version="1.1" id="Layer_1" xmlns="http://www.w3.org/2000/svg" xmlns:xlink="http://www.w3.org/1999/xlink" x="0px" y="0px"
	 width="299.774px" height="56.451px" viewBox="0 0 299.774 56.451" enable-background="new 0 0 299.774 56.451"
	 xml:space="preserve">
<g>
	<path fill="#FFFFFF" d="M82.536,19.5v-6.797c0-1.203-0.241-2.045-0.842-2.767c-0.301-0.301-0.782-0.481-1.323-0.481
		c-1.143,0-1.684,0.842-1.925,1.624c-0.18,0.481-0.241,1.023-0.241,1.624v26.586c0,1.263,0.301,2.105,0.902,2.767
		c0.301,0.301,0.722,0.481,1.263,0.481c1.143,0,1.684-0.722,1.925-1.624c0.181-0.421,0.241-0.963,0.241-1.625v-8h-2.586v-5.474
		h9.083v22.015h-3.85L84.4,45.725c-1.203,1.504-2.947,2.587-5.053,2.587s-3.549-0.542-4.631-1.504
		c-1.083-0.902-1.805-2.045-2.286-3.248c-0.541-1.384-0.782-3.008-0.722-4.812V12.703c0.06-1.744,0.421-3.368,1.083-4.751
		c0.541-1.203,1.323-2.406,2.526-3.309c1.203-0.902,2.887-1.503,5.053-1.503s3.79,0.602,4.993,1.503
		c1.203,0.902,2.045,2.105,2.586,3.309c0.662,1.383,1.022,3.007,1.083,4.751V19.5H82.536z"/>
	<path fill="#FFFFFF" d="M109,36.041v3.79c-0.181,3.188-1.143,5.413-3.308,7.158c-1.083,0.902-2.586,1.323-4.572,1.323
		c-3.91,0-5.895-2.166-6.857-4.331c-0.542-1.263-0.902-2.707-0.962-4.331V23.109c0.181-3.188,1.203-5.534,3.368-7.338
		c1.023-0.902,2.526-1.323,4.512-1.323c3.91,0,5.895,2.166,6.857,4.271c0.542,1.263,0.902,2.647,0.962,4.21v9.564H98.955v7.158
		c0.06,1.264,0.421,2.166,0.962,2.827c0.301,0.301,0.722,0.481,1.263,0.481c1.143,0,1.684-0.722,1.925-1.624
		c0.18-0.481,0.24-1.022,0.24-1.685v-3.609H109z M98.955,27.74h4.391v-4.631c0-1.263-0.24-2.166-0.842-2.887
		c-0.301-0.301-0.782-0.481-1.323-0.481c-1.143,0-1.624,0.782-1.925,1.685c-0.181,0.481-0.241,1.022-0.301,1.684V27.74z"/>
	<path fill="#FFFFFF" d="M119.103,47.831h-6.075V14.928h6.075v2.767c0.121-0.06,0.361-0.301,0.722-0.662
		c0.662-0.662,1.564-1.564,2.646-2.166c0.542-0.301,1.022-0.421,1.564-0.421c1.624,0,2.767,0.962,3.489,2.166
		c0.722,1.263,1.083,2.887,1.083,4.271v26.947h-6.075V21.786c0-1.263-0.722-1.444-1.443-1.444c-0.662,0-1.023,0.361-1.444,0.782
		c-0.18,0.241-0.361,0.481-0.542,0.782V47.831z"/>
	<path fill="#FFFFFF" d="M148.514,36.041v3.79c-0.18,3.188-1.143,5.413-3.308,7.158c-1.083,0.902-2.587,1.323-4.571,1.323
		c-3.91,0-5.895-2.166-6.857-4.331c-0.542-1.263-0.902-2.707-0.962-4.331V23.109c0.181-3.188,1.203-5.534,3.369-7.338
		c1.022-0.902,2.526-1.323,4.511-1.323c3.91,0,5.895,2.166,6.857,4.271c0.541,1.263,0.902,2.647,0.962,4.21v9.564H138.47v7.158
		c0.06,1.264,0.421,2.166,0.962,2.827c0.301,0.301,0.722,0.481,1.263,0.481c1.144,0,1.685-0.722,1.925-1.624
		c0.181-0.481,0.241-1.022,0.241-1.685v-3.609H148.514z M138.47,27.74h4.391v-4.631c0-1.263-0.241-2.166-0.843-2.887
		c-0.301-0.301-0.781-0.481-1.323-0.481c-1.143,0-1.624,0.782-1.924,1.685c-0.181,0.481-0.241,1.022-0.301,1.684V27.74z"/>
	<path fill="#FFFFFF" d="M161.626,23.35c0-0.782,0-1.745-0.241-2.526c-0.301-0.722-0.781-1.323-1.744-1.323
		c-0.782,0-1.263,0.602-1.504,1.323c-0.301,0.722-0.36,1.744-0.36,2.526c0,1.022,0.541,2.105,1.323,3.067
		c0.722,0.962,1.684,1.925,2.646,2.827c1.263,1.263,2.767,2.707,3.789,4.331c1.022,1.684,1.805,3.549,1.805,5.714
		c0,2.105-0.481,4.331-1.685,6.015c-1.263,1.744-3.188,3.008-6.075,3.008c-3.669,0-5.834-1.685-7.037-3.729
		s-1.443-4.571-1.443-6.316h5.654c0,0.902,0.06,2.166,0.48,3.127c0.421,1.023,1.083,1.865,2.346,1.865
		c1.745,0,2.105-2.045,2.105-3.97c0-1.985-1.925-3.97-3.789-5.834c-1.443-1.383-2.827-2.646-3.91-4.271
		c-1.082-1.624-1.864-3.429-1.864-5.834c0-1.925,0.36-4.15,1.504-5.895c1.143-1.684,3.007-2.947,5.895-3.007
		c3.549-0.06,5.533,1.263,6.557,3.007c1.022,1.745,1.202,4.03,1.202,5.895H161.626z"/>
	<path fill="#FFFFFF" d="M170.948,3.62h6.075v6.075h-6.075V3.62z M170.948,47.831V14.928h6.075v32.902H170.948z"/>
	<path fill="#FFFFFF" d="M190.738,23.35c0-0.782,0-1.745-0.241-2.526c-0.301-0.722-0.781-1.323-1.744-1.323
		c-0.782,0-1.263,0.602-1.504,1.323c-0.301,0.722-0.36,1.744-0.36,2.526c0,1.022,0.541,2.105,1.323,3.067
		c0.722,0.962,1.684,1.925,2.646,2.827c1.263,1.263,2.767,2.707,3.789,4.331c1.022,1.684,1.805,3.549,1.805,5.714
		c0,2.105-0.481,4.331-1.685,6.015c-1.263,1.744-3.188,3.008-6.075,3.008c-3.669,0-5.834-1.685-7.037-3.729
		s-1.443-4.571-1.443-6.316h5.654c0,0.902,0.06,2.166,0.48,3.127c0.421,1.023,1.083,1.865,2.346,1.865
		c1.745,0,2.105-2.045,2.105-3.97c0-1.985-1.925-3.97-3.789-5.834c-1.443-1.383-2.827-2.646-3.91-4.271
		c-1.082-1.624-1.864-3.429-1.864-5.834c0-1.925,0.36-4.15,1.504-5.895c1.143-1.684,3.007-2.947,5.895-3.007
		c3.549-0.06,5.533,1.263,6.557,3.007c1.022,1.745,1.202,4.03,1.202,5.895H190.738z"/>
</g>
<g>
	<path fill="#F57E26" d="M201.488,47.831V3.62h5.714c3.85,0,6.857,0.722,8.842,2.586c1.985,1.865,3.008,4.752,3.008,9.143
		c0,2.105-0.181,3.669-0.842,5.113c-0.662,1.443-1.685,2.646-3.188,4.03c1.624,0.902,2.827,2.586,3.79,5.414
		c0.48,1.383,0.722,3.188,0.722,5.414c0,3.308-0.602,6.255-2.105,8.542c-1.504,2.285-4.09,3.789-7.939,3.97H201.488z
		 M207.984,21.846c0.541,0,1.805,0.06,2.887-0.662c1.083-0.722,1.925-2.166,1.925-5.233c0-3.068-0.842-4.511-1.925-5.233
		c-1.082-0.722-2.346-0.662-2.887-0.662V21.846z M207.984,41.394c0.541,0,1.805,0.121,2.887-0.661
		c1.083-0.782,1.925-2.526,1.925-6.135s-0.842-5.354-1.925-6.135c-1.082-0.782-2.346-0.662-2.887-0.662V41.394z"/>
	<path fill="#F57E26" d="M223.381,47.831V3.62h6.075v44.21H223.381z"/>
	<path fill="#F57E26" d="M249.184,39.831c-0.181,3.188-1.143,5.413-3.248,7.158c-1.083,0.902-2.586,1.323-4.571,1.323
		c-3.91,0-5.835-2.166-6.797-4.331c-0.541-1.263-0.902-2.707-0.963-4.331V23.109c0.181-3.188,1.144-5.534,3.248-7.338
		c1.023-0.902,2.526-1.323,4.512-1.323c3.91,0,5.895,2.166,6.857,4.271c0.541,1.263,0.902,2.647,0.962,4.21V39.831z M243.47,23.109
		c0.06-1.263-0.181-2.166-0.782-2.887c-0.301-0.301-0.782-0.481-1.323-0.481c-1.143,0-1.624,0.782-1.864,1.685
		c-0.181,0.481-0.241,1.022-0.181,1.684V39.65c-0.061,1.264,0.24,2.166,0.782,2.827c0.301,0.301,0.722,0.481,1.263,0.481
		c1.143,0,1.685-0.722,1.925-1.624c0.181-0.481,0.24-1.022,0.181-1.685V23.109z"/>
	<path fill="#F57E26" d="M259.048,40.251c0,1.203,0.061,2.646,1.685,2.646c1.383,0,1.744-0.661,1.744-2.646V35.68h6.075v3.188
		c0,3.669-0.662,6.015-1.985,7.458s-3.248,1.985-5.834,1.985c-2.166,0-4.15-0.602-5.534-2.105s-2.226-3.97-2.226-7.639V24.191
		c0-3.669,0.842-6.135,2.226-7.639c1.384-1.503,3.368-2.105,5.534-2.105c2.586,0,4.511,0.542,5.834,1.985
		c1.323,1.444,1.985,3.79,1.985,7.458v2.586h-6.075v-3.97c0-1.985-0.361-2.646-1.744-2.646c-1.624,0-1.685,1.443-1.685,2.646V40.251
		z"/>
	<path fill="#F57E26" d="M278.475,3.62v20.993h0.301l0.36-1.083l2.947-8.602h5.474l-4.391,10.707l5.534,22.195h-5.835l-3.008-13.293
		l-0.12-0.481h-0.301l-0.181,0.481l-0.781,1.925v11.368H272.4V3.62H278.475z"/>
</g>
<g>
	<polygon fill="#F57E26" points="32.654,28.227 32.654,28.229 32.654,28.229 32.79,28.467 48.888,56.444 65.309,28.225 
		65.309,28.225 65.309,28.225 65.309,28.225 65.309,28.225 49.08,0.004 32.657,28.225 	"/>
	<polygon fill="#E0E0E0" points="0.002,28.225 0.004,28.225 0.002,28.225 32.652,28.225 32.652,28.225 49.078,0.001 49.078,0.001 
		49.078,0 16.429,0 16.421,0.013 	"/>
	<polygon fill="#FFFFFF" points="48.883,56.448 32.79,28.467 32.654,28.227 32.652,28.225 0.002,28.225 0,28.231 0,28.231 0,28.231 
		16.228,56.451 16.228,56.451 16.232,56.451 48.883,56.451 48.882,56.448 	"/>
</g>
<g>
	<g>
		<path fill="#FFFFFF" d="M292.517,4.605V3.636h2.982v0.969h-0.969v5.376h-1.045V4.605H292.517z M297.609,9.981l-0.741-4.16v4.16
			h-0.95V3.636h1.273l0.627,2.964h0.057l0.627-2.964h1.272v6.345h-0.969v-4.16l-0.722,4.16H297.609z"/>
	</g>
</g>
</svg>
