<?xml version="1.0" encoding="utf-8"?>
<!-- Generator: Adobe Illustrator 22.0.1, SVG Export Plug-In . SVG Version: 6.00 Build 0)  -->
<svg version="1.1" id="Layer_1" xmlns="http://www.w3.org/2000/svg" xmlns:xlink="http://www.w3.org/1999/xlink" x="0px" y="0px"
	 viewBox="0 0 512 512" style="enable-background:new 0 0 512 512;" xml:space="preserve">
<style type="text/css">
	.st0{fill:#5C793B;}
	.st1{fill:#6C4C40;}
	.st2{fill:#4B342C;}
	.st3{fill:#5C4036;}
	.st4{fill:#61443B;}
	.st5{fill:#256529;}
	.st6{fill:#2D7231;}
	.st7{fill:#2C5E5E;}
	.st8{fill:#2C504D;}
	.st9{fill:#CFAD00;}
	.st10{fill:#FFFFFF;}
</style>
<path d="M256,0c141.4,0,256,114.6,256,256S397.4,512,256,512S0,397.4,0,256S114.6,0,256,0z"/>
<path class="st0" d="M263.8,381.4c73.9,0,143.3,7.1,203.2,19.6C420.9,468,343.6,512,256,512c-86.3,0-162.6-42.7-209-108.1
	C110,389.6,184.3,381.4,263.8,381.4z"/>
<path class="st1" d="M27.8,372.1c28.6-43.2,56.6-81.3,86-112.6c11.7-12.5,32.7-13.3,46.2-4.5c90,58.9,127.6,120,152.4,181.6
	L88.8,449.8C63.7,428.2,42.9,401.8,27.8,372.1z"/>
<path class="st2" d="M147.2,249.9c4.6,0.9,9,2.6,12.8,5.1c90,58.9,127.6,120,152.4,181.6l-149.5,8.9c0,0-10.3-19.7-35-49.7
	c-24.7-30,48.2-26.8,25.7-68.1C130.9,286.4,147.2,249.9,147.2,249.9z"/>
<path class="st1" d="M248,443.8c28-81.4,62.7-164.9,153.7-266.1c3.3-3.6,6.8-6.5,10.4-8.5c44.3,30.8,78.5,75,96.8,126.7
	c-8.7,55.5-35.2,105.2-73.6,142.8C372.5,440.5,309.2,442.4,248,443.8z"/>
<path class="st3" d="M434.7,439.3l-48.8,1.5c-30.8-43.9,0.4-74.2,7.9-75.3c8.6-1.3,62.4-70.5,25.4-90.4
	c-30.3-16.3-9.5-79.4-1.1-101.6c41.3,30.5,73.3,73,90.8,122.3C500.2,351.7,473.4,401.5,434.7,439.3z"/>
<path class="st4" d="M446.3,424.1c0,0.1-0.3,1.6-0.6,3.8c1-1.1,1.9-2.1,2.8-3.2L446.3,424.1z"/>
<path class="st5" d="M433.8,378.8c0,0,12-2.4,10.6,0.7s-16.8,11.1-16.8,11.1s12.3-1.8,10.4,2.4c-1.8,4.2-17.1,11.3-17.1,11.3
	s19.8-3,14.3,2.6c-5.4,5.6-25,15-25,15s24.9-5.3,24.1,1c-0.8,6.2-10.9,8-13.1,12c0,0,11.9-2.1,20-2.3c7.8-8.2,15.1-16.9,21.8-26.1
	c-0.3-0.8,0.2-1.3,1.2-1.6c1.3-1.8,2.5-3.5,3.7-5.3c-2.8-2-5.3-4.2-5.9-5.8c-1.5-4.3,10.6-1.8,10.6-1.8s-14.8-9-15.9-12.1
	c-1.1-3.2,10.7-0.1,10.7-0.1c-9.9-8.4-13.6-17.1-16-21.7C448.6,362.6,444.3,371.1,433.8,378.8z"/>
<path class="st6" d="M433.8,378.8c0,0,12-2.4,10.6,0.7s-16.8,11.1-16.8,11.1s12.3-1.8,10.4,2.4c-1.8,4.2-17.1,11.3-17.1,11.3
	s19.8-3,14.3,2.6c-5.4,5.6-25,15-25,15s24.9-5.3,24.1,1c-0.8,6.2-10.9,8-13.1,12c-3.8,1.3,9.5-1.1,19.3-1.5c2.9-3,5.7-6,8.4-9.1
	l2.7-65.8l-0.2-0.4C448.6,362.6,444.3,371.1,433.8,378.8z"/>
<path class="st4" d="M124.1,426.3c-0.2,0.6-3.6,25.8-3.6,25.8l7.3,0.6l-0.1-25.4L124.1,426.3z"/>
<path class="st5" d="M111.6,381c0,0,12-2.4,10.6,0.7c-1.4,3.1-16.8,11.1-16.8,11.1s12.3-1.8,10.4,2.4c-1.8,4.2-17.1,11.3-17.1,11.3
	s19.8-3,14.4,2.6c-5.4,5.6-25,15-25,15s24.9-5.3,24.1,1c-0.8,6.2-10.9,8-13.1,12c0,0,24.6-4.4,27.2-1c2.8,0,27.6,4.3,27.6,3.2
	c-1.8-4.1-12.3-7-12.6-13.3c-0.3-6.3,24.1,0.5,24.1,0.5s-18.8-10.6-23.8-16.5c-5-5.9,14.5-1.7,14.5-1.7s-14.7-8-16.2-12.3
	c-1.5-4.3,10.6-1.8,10.6-1.8s-14.8-9-15.9-12.1c-1.1-3.2,10.7-0.1,10.7-0.1c-9.9-8.4-13.6-17.1-16-21.7
	C126.5,364.8,122.2,373.3,111.6,381z"/>
<path class="st6" d="M111.6,381c0,0,12-2.4,10.6,0.7c-1.4,3.1-16.8,11.1-16.8,11.1s12.3-1.8,10.4,2.4c-1.8,4.2-17.1,11.3-17.1,11.3
	s19.8-3,14.4,2.6c-5.4,5.6-25,15-25,15s24.9-5.3,24.1,1c-0.8,6.2-10.9,8-13.1,12c-5,1.7,20.3-3.1,27.2-1l3.1-75.3l-0.2-0.4
	C126.5,364.8,122.2,373.3,111.6,381z"/>
<path class="st7" d="M248.8,302l75,151.1c1.3,2.6,1.2,5.5-0.4,8c-1.6,2.5-4.1,3.9-7,3.9H186.6c-2.9,0-5.4-1.4-7-3.8
	c-1.6-2.4-1.8-5.3-0.5-7.9L248.8,302z"/>
<g>
	<path class="st4" d="M90.6,443.5c0.4-7,10.4-6.2,10.8,0v16.6c-3.7-2.8-7.3-5.7-10.8-8.7V443.5z"/>
	<path class="st4" d="M409.4,441.2c-0.4-7-10.4-6.2-10.8,0v19.1h10.8V441.2z"/>
</g>
<path class="st8" d="M248.8,302l113.7,107.7l-46.9,27.1L248.8,302z M248.8,302L139,411.8l46.9,27.1L248.8,302z"/>
<g>
	<path class="st9" d="M409.3,443.8h-10.6L361.8,410l-2.1,1.2l38.8,35.3l3.2,0h7.5V443.8z M90.7,446.1h10.6l38-34.1l2.1,1.2
		L101.5,449l-3.2-0.1h-7.6C90.7,448.9,90.7,446.1,90.7,446.1z"/>
</g>
<g>
	<path class="st10" d="M163.1,71.1c3.8,0,6.8,3,6.8,6.8s-3,6.8-6.8,6.8c-3.8,0-6.8-3-6.8-6.8C156.3,74.1,159.4,71.1,163.1,71.1z"/>
	<path class="st10" d="M199.4,118.9c3.8,0,6.8,3,6.8,6.8c0,3.8-3,6.8-6.8,6.8c-3.8,0-6.8-3-6.8-6.8
		C192.6,121.9,195.6,118.9,199.4,118.9z"/>
	<path class="st10" d="M199.1,165.4c3.8,0,6.8,3,6.8,6.8s-3,6.8-6.8,6.8c-3.8,0-6.8-3-6.8-6.8C192.3,168.5,195.4,165.4,199.1,165.4z
		"/>
	<path class="st10" d="M193.8,202.4c3.8,0,6.8,3,6.8,6.8c0,3.8-3,6.8-6.8,6.8s-6.8-3-6.8-6.8C187,205.5,190.1,202.4,193.8,202.4z"/>
	<path class="st10" d="M162.6,224.8c3.8,0,6.8,3,6.8,6.8c0,3.8-3,6.8-6.8,6.8c-3.8,0-6.8-3-6.8-6.8
		C155.8,227.9,158.9,224.8,162.6,224.8z"/>
	<path class="st10" d="M217.9,270.5c3.8,0,6.8,3,6.8,6.8c0,3.8-3,6.8-6.8,6.8s-6.8-3-6.8-6.8C211.1,273.5,214.1,270.5,217.9,270.5z"
		/>
	<path class="st10" d="M254.1,236c3.8,0,6.8,3,6.8,6.8s-3,6.8-6.8,6.8c-3.8,0-6.8-3-6.8-6.8S250.3,236,254.1,236z"/>
	<path class="st10" d="M136.2,72.5c1.2,0,2.3,1,2.3,2.2s-1,2.2-2.3,2.2c-1.2,0-2.2-1-2.2-2.2S135,72.5,136.2,72.5z"/>
	<path class="st10" d="M208.1,139.5c1.5,0,2.7,1.2,2.7,2.7c0,1.5-1.2,2.7-2.7,2.7c-1.5,0-2.7-1.2-2.7-2.7
		C205.4,140.8,206.6,139.5,208.1,139.5z M422.6,149c1.5,0,2.7,1.2,2.7,2.7c0,1.5-1.2,2.7-2.7,2.7c-1.5,0-2.7-1.2-2.7-2.7
		C419.9,150.2,421.1,149,422.6,149z M72.7,153.1c1.5,0,2.7,1.2,2.7,2.7c0,1.5-1.2,2.7-2.7,2.7c-1.5,0-2.7-1.2-2.7-2.7
		C70,154.3,71.2,153.1,72.7,153.1z M39.6,184.2c1.5,0,2.7,1.2,2.7,2.7c0,1.5-1.2,2.7-2.7,2.7c-1.5,0-2.7-1.2-2.7-2.7
		C36.9,185.4,38.1,184.2,39.6,184.2z M118.8,187.6c1.5,0,2.7,1.2,2.7,2.7s-1.2,2.7-2.7,2.7c-1.5,0-2.7-1.2-2.7-2.7
		S117.3,187.6,118.8,187.6z M180.3,171.4c1.5,0,2.7,1.2,2.7,2.7c0,1.5-1.2,2.7-2.7,2.7c-1.5,0-2.7-1.2-2.7-2.7
		C177.6,172.6,178.8,171.4,180.3,171.4z M149.2,125.3c1.5,0,2.7,1.2,2.7,2.7c0,1.5-1.2,2.7-2.7,2.7c-1.5,0-2.7-1.2-2.7-2.7
		C146.5,126.5,147.7,125.3,149.2,125.3z M79.5,207.2c1.5,0,2.7,1.2,2.7,2.7c0,1.5-1.2,2.7-2.7,2.7c-1.5,0-2.7-1.2-2.7-2.7
		C76.8,208.4,78,207.2,79.5,207.2z M126.2,148.3c1.5,0,2.7,1.2,2.7,2.7c0,1.5-1.2,2.7-2.7,2.7s-2.7-1.2-2.7-2.7
		C123.5,149.6,124.7,148.3,126.2,148.3z M34.8,229.6c1.5,0,2.7,1.2,2.7,2.7c0,1.5-1.2,2.7-2.7,2.7c-1.5,0-2.7-1.2-2.7-2.7
		C32.1,230.8,33.3,229.6,34.8,229.6z M463.2,134.8c1.5,0,2.7,1.2,2.7,2.7s-1.2,2.7-2.7,2.7c-1.5,0-2.7-1.2-2.7-2.7
		S461.7,134.8,463.2,134.8z M371.9,141.6c1.5,0,2.7,1.2,2.7,2.7c0,1.5-1.2,2.7-2.7,2.7c-1.5,0-2.7-1.2-2.7-2.7
		C369.1,142.8,370.4,141.6,371.9,141.6z M248.7,92.2c1.5,0,2.7,1.2,2.7,2.7c0,1.5-1.2,2.7-2.7,2.7c-1.5,0-2.7-1.2-2.7-2.7
		C246,93.4,247.2,92.2,248.7,92.2z M354.9,96.2c1.5,0,2.7,1.2,2.7,2.7c0,1.5-1.2,2.7-2.7,2.7c-1.5,0-2.7-1.2-2.7-2.7
		C352.2,97.4,353.4,96.2,354.9,96.2z"/>
	<path class="st10" d="M120.9,95.4c1.2,0,2.2,1,2.2,2.2s-1,2.3-2.2,2.3s-2.3-1-2.3-2.3S119.7,95.4,120.9,95.4z"/>
	<path class="st10" d="M214.8,36.8c1.2,0,2.3,1,2.3,2.2s-1,2.3-2.3,2.3s-2.2-1-2.2-2.3S213.5,36.8,214.8,36.8z"/>
	<path class="st10" d="M364.9,55.6c1.2,0,2.2,1,2.2,2.2s-1,2.2-2.2,2.2c-1.2,0-2.3-1-2.3-2.2C362.7,56.6,363.7,55.6,364.9,55.6z"/>
	<path class="st10" d="M273.1,150.2c1.2,0,2.2,1,2.2,2.2c0,1.2-1,2.3-2.2,2.3s-2.3-1-2.3-2.3C270.9,151.2,271.9,150.2,273.1,150.2z"
		/>
	<path class="st10" d="M321.9,197.3c1.2,0,2.2,1,2.2,2.3c0,1.2-1,2.2-2.2,2.2c-1.2,0-2.2-1-2.2-2.2
		C319.7,198.3,320.7,197.3,321.9,197.3z"/>
	<path class="st10" d="M252.5,192.8c1.2,0,2.2,1,2.2,2.2c0,1.2-1,2.2-2.2,2.2c-1.2,0-2.2-1-2.2-2.2
		C250.3,193.8,251.3,192.8,252.5,192.8z"/>
	<path class="st10" d="M317.4,144.7c1.2,0,2.3,1,2.3,2.3s-1,2.2-2.3,2.2s-2.2-1-2.2-2.2C315.2,145.7,316.2,144.7,317.4,144.7z"/>
</g>
</svg>
