<?xml version="1.0" encoding="UTF-8"?>
<svg width="82px" height="91px" viewBox="0 0 82 91" version="1.1" xmlns="http://www.w3.org/2000/svg" xmlns:xlink="http://www.w3.org/1999/xlink">
    <!-- Generator: Sketch 44.1 (41455) - http://www.bohemiancoding.com/sketch -->
    <title>ico-1</title>
    <desc>Created with Sketch.</desc>
    <defs></defs>
    <g id="Page-1" stroke="none" stroke-width="1" fill="none" fill-rule="evenodd">
        <g id="ico-1" fill-rule="nonzero" fill="#FFFFFF">
            <path d="M66.51,65.217 C69.516,53.528 85.212,47.74 80.202,23.917 C75.193,0.095 47.08,-2.334 32.558,1.431 C17.506,5.333 5.55,21.324 9.519,34.701 C9.826,35.735 9.644,36.841 9.059,37.746 C7.223,40.584 2.295,46.777 0.964,50.41 C0.484,51.72 1.233,53.16 2.582,53.518 C3.005,53.63 5.602,54.655 5.939,54.762 C9.403,55.865 8.735,63.529 8.735,70.559 C8.735,77.906 16.527,76.904 19.088,76.348 C21.648,75.791 27.437,75.274 27.437,82.248 C27.437,83.179 27.465,83.93 27.507,84.533 C27.604,85.925 28.508,87.13 29.81,87.632 C34.957,89.614 49.864,92.707 67.872,86.268 C68.929,85.89 69.414,84.665 68.911,83.663 C67.212,80.284 64.275,73.911 66.51,65.217 Z M60.733,54.247 C56.705,56.344 53.583,53.913 52.012,52.166 C51.125,52.558 50.146,52.78 49.114,52.78 C47.43,52.78 45.885,52.196 44.66,51.225 C44.616,51.373 39.183,52.622 38.234,48.838 C38.321,48.84 38.405,48.849 38.493,48.849 C38.584,48.849 38.677,48.848 38.769,48.845 C42.133,48.749 45.369,46.926 48.388,43.426 C48.895,42.839 48.829,41.952 48.242,41.446 C47.655,40.939 46.768,41.005 46.262,41.592 C43.791,44.456 41.255,45.952 38.723,46.037 C37.973,46.062 37.278,45.955 36.651,45.781 C36.475,45.725 36.305,45.677 36.123,45.614 C35.937,45.55 35.77,45.475 35.598,45.404 C34.211,44.792 33.359,43.958 33.339,43.938 C33.304,43.902 33.264,43.875 33.226,43.843 C31.347,41.89 31.398,39.216 31.726,37.432 C25.01,38.178 21.844,35.702 20.35,33.293 C20.948,33.218 21.555,33.084 22.154,32.852 C23.972,32.145 25.336,30.767 26.207,28.758 C26.515,28.047 26.189,27.22 25.478,26.912 C24.765,26.604 23.94,26.93 23.632,27.641 C23.064,28.951 22.252,29.798 21.149,30.23 C20.155,30.621 19.068,30.618 18.148,30.487 C15.989,29.421 14.5,27.206 14.5,24.635 C14.5,21.218 17.123,18.418 20.464,18.128 C20.101,17.495 19.937,16.732 20.072,15.923 C20.305,14.527 21.455,13.408 22.856,13.21 C22.971,13.194 23.081,13.198 23.194,13.193 C23.631,14.519 24.523,16.338 26.248,17.06 C26.737,17.265 27.244,17.366 27.768,17.366 C28.861,17.366 30.03,16.924 31.26,16.041 C31.89,15.589 32.034,14.712 31.582,14.083 C31.13,13.452 30.254,13.307 29.623,13.761 C28.953,14.241 28.013,14.752 27.335,14.472 C26.572,14.155 26.037,12.941 25.766,12.002 C26.741,10.273 28.59,9.103 30.717,9.103 C31.877,9.103 32.955,9.452 33.854,10.048 C34.653,7.873 36.737,6.319 39.189,6.319 C40.533,6.319 41.766,6.788 42.739,7.567 C43.765,6.083 45.478,5.109 47.419,5.109 C49.326,5.109 51.01,6.051 52.042,7.491 C52.767,7.057 53.613,6.803 54.52,6.803 C56.6,6.803 58.369,8.117 59.054,9.959 C59.703,9.547 60.472,9.304 61.298,9.304 C63.615,9.304 65.494,11.182 65.494,13.5 C65.494,13.589 65.486,13.676 65.481,13.764 C66.044,13.511 66.696,13.421 67.382,13.576 C68.479,13.824 69.365,14.709 69.613,15.806 C69.768,16.491 69.68,17.142 69.428,17.704 C69.489,17.701 69.548,17.695 69.61,17.695 C71.66,17.695 73.322,19.357 73.322,21.407 C73.322,22.1 73.119,22.741 72.788,23.296 C70.434,22.944 67.53,23.541 65.252,26.784 C64.807,27.419 64.959,28.294 65.594,28.739 C65.839,28.911 66.121,28.994 66.399,28.994 C66.841,28.994 67.276,28.786 67.549,28.397 C70.337,24.427 74.028,26.552 74.445,26.811 C74.473,26.829 74.503,26.839 74.531,26.854 C75.556,28.593 76.146,30.619 76.146,32.783 C76.146,36.34 74.557,39.524 72.052,41.669 C72.317,42.574 72.364,43.573 72.08,44.616 C71.568,46.494 70.043,47.974 68.153,48.44 C67.049,48.712 66.001,48.615 65.063,48.283 C64.756,50.473 63.592,52.759 60.733,54.247 Z" id="Shape"></path>
            <path d="M39.064,23.273 C36.795,25.739 36.047,29.51 37.203,32.657 C37.411,33.225 37.949,33.577 38.52,33.577 C38.681,33.577 38.844,33.549 39.004,33.491 C39.732,33.223 40.105,32.417 39.837,31.689 C39.034,29.505 39.554,26.887 41.129,25.174 C41.654,24.603 41.617,23.716 41.047,23.191 C40.476,22.666 39.588,22.703 39.064,23.273 Z" id="Shape"></path>
            <path d="M65.513,18.491 C63.711,15.219 60.808,14.293 58.134,14.365 C57.925,13.396 57.515,11.987 56.744,10.748 C56.335,10.09 55.469,9.888 54.811,10.298 C54.153,10.708 53.952,11.573 54.361,12.231 C54.88,13.066 55.183,14.051 55.351,14.78 C54.576,14.991 53.879,15.257 53.314,15.533 C52.618,15.874 52.329,16.715 52.67,17.411 C53.01,18.107 53.85,18.396 54.548,18.055 C54.789,17.936 60.5,15.209 63.054,19.846 C63.31,20.31 63.789,20.573 64.285,20.573 C64.514,20.573 64.746,20.517 64.961,20.399 C65.64,20.024 65.887,19.17 65.513,18.491 Z" id="Shape"></path>
            <path d="M52.762,33.571 C53.463,36.252 55.35,37.906 57.94,38.11 C57.978,38.113 58.015,38.114 58.052,38.114 C58.777,38.114 59.392,37.556 59.45,36.821 C59.511,36.048 58.934,35.372 58.161,35.311 C57.322,35.245 56.687,34.941 56.217,34.383 C55.395,33.404 55.289,31.892 55.3,31.501 C55.352,31.271 55.347,31.027 55.277,30.79 C55.102,30.201 54.563,29.794 53.949,29.786 C49.11,29.728 48.227,25.141 48.19,24.938 C48.058,24.178 47.337,23.665 46.573,23.794 C45.809,23.923 45.293,24.647 45.423,25.412 C45.802,27.66 47.771,31.759 52.537,32.483 C52.584,32.816 52.659,33.179 52.762,33.571 Z" id="Shape"></path>
            <path d="M43.023,9.561 C42.288,9.806 41.89,10.601 42.135,11.336 C42.683,12.981 42.633,14.279 41.979,15.304 C40.675,17.351 37.365,17.764 37.299,17.772 C36.53,17.858 35.976,18.551 36.06,19.32 C36.139,20.039 36.747,20.571 37.453,20.571 C37.504,20.571 37.556,20.568 37.608,20.563 C37.799,20.542 42.295,20.015 44.338,16.827 C45.467,15.065 45.622,12.919 44.799,10.448 C44.553,9.714 43.761,9.316 43.023,9.561 Z" id="Shape"></path>
            <path d="M60.834,48.343 C58.875,49.186 57.252,49.317 56.01,48.729 C54.364,47.949 53.798,46.086 53.781,46.029 C53.575,45.285 52.806,44.85 52.061,45.05 C51.313,45.254 50.871,46.025 51.075,46.773 C51.109,46.899 51.95,49.888 54.769,51.248 C55.673,51.684 56.658,51.902 57.719,51.902 C59.018,51.902 60.43,51.575 61.945,50.923 C62.657,50.616 62.985,49.79 62.679,49.078 C62.371,48.365 61.545,48.036 60.834,48.343 Z" id="Shape"></path>
        </g>
    </g>
</svg>