<svg xmlns="http://www.w3.org/2000/svg" viewBox="0 0 492.67 492.67" style=""><defs><style>.cls-1{fill:none;stroke-width:3px;}.cls-1,.cls-3{stroke:#38777d;stroke-miterlimit:10;}.cls-2{fill:#38777d;}.cls-3{fill:#38767d;}</style></defs><title>Asset 34</title><g id="Layer_2" data-name="Layer 2"><g id="Layer_2-2" data-name="Layer 2"><path class="cls-1 fIdACdEy_0" d="M261.63,246.84c-5.7-7-7.85-16.11-19.32-21.24-19.28-8.61-37.33,2-48.52-14.34-10.48-15.29-7.54-27.36-19-30.48a18.08,18.08,0,0,1-8-5A52.89,52.89,0,0,0,154.61,184c-8.67,7.73-17.9,32.54-25.87,44.58-8.33,12.52-33.62,26.47-58.65,34.84-.09.12-.16.23-.24.35,12.71-3.81,26.79-.55,39.82.35,8.24.56,17.17.32,25.16-1.87,7.56-2.07,13.94-6.36,21-9.62,12.08-5.59,26.24-7.43,39.4-8,13.88-.63,28.18.43,41.61,4.1,7.47,2,14.36,5.52,21.59,8.27,8.61,3.27,17.38,6.08,26.16,8.89a5,5,0,0,1,1.31.65,9.44,9.44,0,0,1,.89.32,9.63,9.63,0,0,1,1.54.6c7.55,1.81,15.32,2.3,23,3.38l10.33,0C287.29,268.42,270.5,257.71,261.63,246.84Z"></path><path class="cls-1 fIdACdEy_1" d="M427.05,224.18c-15.12-7-25.87-19.9-36-33.28-11.15-14.73-21.53-30-36.15-38.59-25.56-15-64.18-59.9-84.17-59.9-7.33,0-20.31,9.88-34.46,22.9a.52.52,0,0,0,.51.88,99.06,99.06,0,0,1,30.94-4.81c20.55.5,17,17.48,42.59,33.74s42.09,42.14,46.1,59.11S375,229.7,395,237.24c2.76,1,11,5.41,22.05,12,6.45,3.89,11.59,7.33,15,9.66a79.1,79.1,0,0,0,13.91,8,87.83,87.83,0,0,0,39.15,7.22C466.45,257.29,450.79,235.11,427.05,224.18Z"></path><path class="cls-2 fIdACdEy_2" d="M200,150.68c-9.53,2.58-19.89,4.12-29.45.82-7.46-2.58-13.45-7.55-21.34-9.28-7-1.52-15.1-2.23-21.55,1.4-5.74,3.24-9.41,9.29-12.9,14.65-5.61,8.62-11.25,17.29-18.21,24.9-3.91,4.28-8.47,7.85-12.6,11.91-12.26,12.06-20.86,26.32-30.91,40-12.63,17.26-30.14,30.1-49.24,39.42-1.73.85-.21,3.44,1.52,2.59,16.6-8.1,32-18.8,44.15-32.79,10.68-12.26,18.37-26.71,29.06-39a177.82,177.82,0,0,1,15-14.93,111.9,111.9,0,0,0,15.25-17.83c5.18-7.22,9.33-15.57,15.34-22.15,6.31-6.93,15.07-7.22,23.84-5.38s15.27,7.61,23.63,9.95c9.59,2.68,19.76,1.15,29.19-1.4a1.5,1.5,0,0,0-.8-2.89Z"></path><path class="cls-1 fIdACdEy_3" d="M1.5,246.34A244.84,244.84 0,1,1 491.18,246.34A244.84,244.84 0,1,1 1.5,246.34"></path><path class="cls-1 fIdACdEy_4" d="M198.66,154.17l-8.32,8.14c-4.8,4.21-10.61,6.91-16.36,9.54-9.44,4.31-18.36,9.76-24.75,18.12-6.58,8.61-10.26,18.93-15.08,28.53"></path><path class="cls-1 fIdACdEy_5" d="M194.88,157.95L210,142.82L219.46,133.37"></path><path class="cls-1 fIdACdEy_6" d="M236.71,114.92L217.57,135.26"></path><path class="cls-1 fIdACdEy_7" d="M12.43,278.95L58.75,326.22L99.34,345.12L117.53,360.25L149.5,364.03L206.22,398.06L242.83,405.62L289.31,428.31L317.61,420.75L343.88,396.17L372.18,364.03L426.74,337.56L463.12,301.64L481.31,280.84L442.91,286.51L356.01,322.44L261.02,328.11L143.8,322.44L73.06,294.07L12.43,278.95Z"></path><path class="cls-3 fIdACdEy_8" d="M392.41,100.94A6.65,6.65 0,1,1 405.71,100.94A6.65,6.65 0,1,1 392.41,100.94"></path><path class="cls-1 fIdACdEy_9" d="M241.73,405.39L372.18,364.03L356.01,322.44L426.74,337.56"></path><path class="cls-1 fIdACdEy_10" d="M99.34,345.12L143.8,322.44L149.5,364.03L242.83,405.62L356.01,322.44"></path><path class="cls-1 fIdACdEy_11" d="M242.83,405.62L261.02,328.11"></path></g></g><style>.fIdACdEy_0{stroke-dasharray:591 593;stroke-dashoffset:592;animation:fIdACdEy_draw_0 5900ms linear 0ms infinite,fIdACdEy_fade 5900ms linear 0ms infinite;}.fIdACdEy_1{stroke-dasharray:644 646;stroke-dashoffset:645;animation:fIdACdEy_draw_1 5900ms linear 0ms infinite,fIdACdEy_fade 5900ms linear 0ms infinite;}.fIdACdEy_2{stroke-dasharray:524 526;stroke-dashoffset:525;animation:fIdACdEy_draw_2 5900ms linear 0ms infinite,fIdACdEy_fade 5900ms linear 0ms infinite;}.fIdACdEy_3{stroke-dasharray:1539 1541;stroke-dashoffset:1540;animation:fIdACdEy_draw_3 5900ms linear 0ms infinite,fIdACdEy_fade 5900ms linear 0ms infinite;}.fIdACdEy_4{stroke-dasharray:94 96;stroke-dashoffset:95;animation:fIdACdEy_draw_4 5900ms linear 0ms infinite,fIdACdEy_fade 5900ms linear 0ms infinite;}.fIdACdEy_5{stroke-dasharray:35 37;stroke-dashoffset:36;animation:fIdACdEy_draw_5 5900ms linear 0ms infinite,fIdACdEy_fade 5900ms linear 0ms infinite;}.fIdACdEy_6{stroke-dasharray:28 30;stroke-dashoffset:29;animation:fIdACdEy_draw_6 5900ms linear 0ms infinite,fIdACdEy_fade 5900ms linear 0ms infinite;}.fIdACdEy_7{stroke-dasharray:1054 1056;stroke-dashoffset:1055;animation:fIdACdEy_draw_7 5900ms linear 0ms infinite,fIdACdEy_fade 5900ms linear 0ms infinite;}.fIdACdEy_8{stroke-dasharray:42 44;stroke-dashoffset:43;animation:fIdACdEy_draw_8 5900ms linear 0ms infinite,fIdACdEy_fade 5900ms linear 0ms infinite;}.fIdACdEy_9{stroke-dasharray:254 256;stroke-dashoffset:255;animation:fIdACdEy_draw_9 5900ms linear 0ms infinite,fIdACdEy_fade 5900ms linear 0ms infinite;}.fIdACdEy_10{stroke-dasharray:335 337;stroke-dashoffset:336;animation:fIdACdEy_draw_10 5900ms linear 0ms infinite,fIdACdEy_fade 5900ms linear 0ms infinite;}.fIdACdEy_11{stroke-dasharray:80 82;stroke-dashoffset:81;animation:fIdACdEy_draw_11 5900ms linear 0ms infinite,fIdACdEy_fade 5900ms linear 0ms infinite;}@keyframes fIdACdEy_draw{100%{stroke-dashoffset:0;}}@keyframes fIdACdEy_fade{0%{stroke-opacity:1;}93.22033898305085%{stroke-opacity:1;}100%{stroke-opacity:0;}}@keyframes fIdACdEy_draw_0{0%{stroke-dashoffset: 592}33.89830508474576%{ stroke-dashoffset: 0;}100%{ stroke-dashoffset: 0;}}@keyframes fIdACdEy_draw_1{1.5408320493066257%{stroke-dashoffset: 645}35.43913713405239%{ stroke-dashoffset: 0;}100%{ stroke-dashoffset: 0;}}@keyframes fIdACdEy_draw_2{3.0816640986132513%{stroke-dashoffset: 525}36.97996918335902%{ stroke-dashoffset: 0;}100%{ stroke-dashoffset: 0;}}@keyframes fIdACdEy_draw_3{4.622496147919877%{stroke-dashoffset: 1540}38.52080123266564%{ stroke-dashoffset: 0;}100%{ stroke-dashoffset: 0;}}@keyframes fIdACdEy_draw_4{6.163328197226503%{stroke-dashoffset: 95}40.06163328197226%{ stroke-dashoffset: 0;}100%{ stroke-dashoffset: 0;}}@keyframes fIdACdEy_draw_5{7.704160246533127%{stroke-dashoffset: 36}41.602465331278886%{ stroke-dashoffset: 0;}100%{ stroke-dashoffset: 0;}}@keyframes fIdACdEy_draw_6{9.244992295839754%{stroke-dashoffset: 29}43.143297380585516%{ stroke-dashoffset: 0;}100%{ stroke-dashoffset: 0;}}@keyframes fIdACdEy_draw_7{10.785824345146379%{stroke-dashoffset: 1055}44.684129429892145%{ stroke-dashoffset: 0;}100%{ stroke-dashoffset: 0;}}@keyframes fIdACdEy_draw_8{12.326656394453005%{stroke-dashoffset: 43}46.22496147919876%{ stroke-dashoffset: 0;}100%{ stroke-dashoffset: 0;}}@keyframes fIdACdEy_draw_9{13.86748844375963%{stroke-dashoffset: 255}47.76579352850539%{ stroke-dashoffset: 0;}100%{ stroke-dashoffset: 0;}}@keyframes fIdACdEy_draw_10{15.408320493066254%{stroke-dashoffset: 336}49.30662557781202%{ stroke-dashoffset: 0;}100%{ stroke-dashoffset: 0;}}@keyframes fIdACdEy_draw_11{16.94915254237288%{stroke-dashoffset: 81}50.847457627118644%{ stroke-dashoffset: 0;}100%{ stroke-dashoffset: 0;}}</style></svg>