<svg xmlns="http://www.w3.org/2000/svg" viewBox="0 0 262 262" style=""><defs><style>.cls-1{fill:none;}.cls-1,.cls-2{stroke:#000;stroke-miterlimit:10;stroke-width:3px;}</style></defs><title>Native-logo-solo-black</title><g id="Layer_2" data-name="Layer 2"><g id="Layer_1-2" data-name="Layer 1"><path class="cls-1 SUlswBBW_0" d="M139.09,131.26c-3-3.7-4.15-8.52-10.22-11.23-10.2-4.55-19.75,1-25.67-7.58-5.54-8.09-4-14.48-10-16.13A9.45,9.45,0,0,1,89,93.69,28.55,28.55,0,0,0,82.48,98C77.9,102.09,73,115.22,68.8,121.58c-4.41,6.63-17.78,14-31,18.43l-.13.18c6.72-2,14.17-.29,21.07.19a40.75,40.75,0,0,0,13.3-1c4-1.09,7.38-3.36,11.1-5.09,6.39-3,13.88-3.93,20.84-4.24a71.58,71.58,0,0,1,22,2.16c3.95,1.08,7.59,2.92,11.41,4.38,4.56,1.73,9.2,3.21,13.84,4.7a2.34,2.34,0,0,1,.69.34l.48.17a4.71,4.71,0,0,1,.81.32c4,1,8.1,1.22,12.17,1.79h5.47C152.66,142.68,143.78,137,139.09,131.26Z"></path><path class="cls-1 SUlswBBW_1" d="M226.59,119.28c-8-3.69-13.69-10.52-19.05-17.6-5.89-7.79-11.38-15.88-19.11-20.42-13.52-7.91-34-31.68-44.52-31.68-3.88,0-10.74,5.23-18.23,12.12a.27.27,0,0,0,.27.46,52.44,52.44,0,0,1,16.37-2.54c10.86.26,9,9.24,22.52,17.85s22.26,22.28,24.38,31.26,9.81,13.47,20.41,17.46a106.91,106.91,0,0,1,11.66,6.37c3.42,2.06,6.14,3.88,7.93,5.11a41.41,41.41,0,0,0,7.35,4.22,46.44,46.44,0,0,0,20.71,3.82C247.42,136.79,239.14,125.06,226.59,119.28Z"></path><path d="M106.29,79.72c-6.76,1.77-12.71,2-18.88-1.39C83,75.89,78,74.21,72.88,74.64c-4.24.36-7.13,2.52-9.63,5.82-4.15,5.48-7.33,11.57-12,16.67-3,3.3-6.57,6-9.57,9.37a118.26,118.26,0,0,0-10.87,14.34C23.64,131.7,14,139.56,2.35,145.31c-1.73.86-.21,3.45,1.51,2.59,10.5-5.18,20-12.22,26.93-21.75,3.23-4.44,6-9.14,9.48-13.42a120.29,120.29,0,0,1,11.1-11.47c4.32-4.11,7.73-9.13,11-14.09,3.54-5.42,6.27-10,13.48-9.51,5.56.41,9.58,3.78,14.65,5.45,5.42,1.78,11.22.91,16.61-.49a1.51,1.51,0,0,0-.8-2.9Z" class="SUlswBBW_2"></path><path class="cls-1 SUlswBBW_3" d="M1.5,131A129.5,129.5 0,1,1 260.5,131A129.5,129.5 0,1,1 1.5,131"></path><path class="cls-1 SUlswBBW_4" d="M105.78,82.25l-4.4,4.31a34.66,34.66,0,0,1-8.65,5c-5,2.28-9.71,5.16-13.09,9.59s-5.43,10-8,15.09"></path><path class="cls-1 SUlswBBW_5" d="M103.78,84.25L111.78,76.25L116.78,71.25"></path><path class="cls-1 SUlswBBW_6" d="M125.91,61.49L115.78,72.25"></path><path class="cls-2 SUlswBBW_7" d="M7.28,148.25L31.78,173.25L53.25,183.25L62.87,191.25L79.78,193.25L109.78,211.25L129.15,215.25L153.73,227.25L168.7,223.25L182.59,210.25L197.56,193.25L226.42,179.25L245.66,160.25L255.28,149.25L234.97,152.25L189.01,171.25L138.77,174.25L76.77,171.25L39.35,156.25L7.28,148.25Z"></path><path class="cls-2 SUlswBBW_8" d="M196.61999999999998,46.5A3.08,3.08 0,1,1 202.78,46.5A3.08,3.08 0,1,1 196.61999999999998,46.5"></path></g></g><style>.SUlswBBW_0{stroke-dasharray:313 315;stroke-dashoffset:314;animation:SUlswBBW_draw_0 5900ms linear 0ms infinite,SUlswBBW_fade 5900ms linear 0ms infinite;}.SUlswBBW_1{stroke-dasharray:341 343;stroke-dashoffset:342;animation:SUlswBBW_draw_1 5900ms linear 0ms infinite,SUlswBBW_fade 5900ms linear 0ms infinite;}.SUlswBBW_2{stroke-dasharray:281 283;stroke-dashoffset:282;animation:SUlswBBW_draw_2 5900ms linear 0ms infinite,SUlswBBW_fade 5900ms linear 0ms infinite;}.SUlswBBW_3{stroke-dasharray:814 816;stroke-dashoffset:815;animation:SUlswBBW_draw_3 5900ms linear 0ms infinite,SUlswBBW_fade 5900ms linear 0ms infinite;}.SUlswBBW_4{stroke-dasharray:50 52;stroke-dashoffset:51;animation:SUlswBBW_draw_4 5900ms linear 0ms infinite,SUlswBBW_fade 5900ms linear 0ms infinite;}.SUlswBBW_5{stroke-dasharray:19 21;stroke-dashoffset:20;animation:SUlswBBW_draw_5 5900ms linear 0ms infinite,SUlswBBW_fade 5900ms linear 0ms infinite;}.SUlswBBW_6{stroke-dasharray:15 17;stroke-dashoffset:16;animation:SUlswBBW_draw_6 5900ms linear 0ms infinite,SUlswBBW_fade 5900ms linear 0ms infinite;}.SUlswBBW_7{stroke-dasharray:558 560;stroke-dashoffset:559;animation:SUlswBBW_draw_7 5900ms linear 0ms infinite,SUlswBBW_fade 5900ms linear 0ms infinite;}.SUlswBBW_8{stroke-dasharray:20 22;stroke-dashoffset:21;animation:SUlswBBW_draw_8 5900ms linear 0ms infinite,SUlswBBW_fade 5900ms linear 0ms infinite;}@keyframes SUlswBBW_draw{100%{stroke-dashoffset:0;}}@keyframes SUlswBBW_fade{0%{stroke-opacity:1;}93.22033898305085%{stroke-opacity:1;}100%{stroke-opacity:0;}}@keyframes SUlswBBW_draw_0{0%{stroke-dashoffset: 314}6.5975626838492785%{ stroke-dashoffset: 0;}100%{ stroke-dashoffset: 0;}}@keyframes SUlswBBW_draw_1{6.5975626838492785%{stroke-dashoffset: 342}13.783443059251995%{ stroke-dashoffset: 0;}100%{ stroke-dashoffset: 0;}}@keyframes SUlswBBW_draw_2{13.783443059251995%{stroke-dashoffset: 282}19.708642667040202%{ stroke-dashoffset: 0;}100%{ stroke-dashoffset: 0;}}@keyframes SUlswBBW_draw_3{19.708642667040202%{stroke-dashoffset: 815}36.83288976047066%{ stroke-dashoffset: 0;}100%{ stroke-dashoffset: 0;}}@keyframes SUlswBBW_draw_4{36.83288976047066%{stroke-dashoffset: 51}37.90446841294299%{ stroke-dashoffset: 0;}100%{ stroke-dashoffset: 0;}}@keyframes SUlswBBW_draw_5{37.90446841294299%{stroke-dashoffset: 20}38.32469533548116%{ stroke-dashoffset: 0;}100%{ stroke-dashoffset: 0;}}@keyframes SUlswBBW_draw_6{38.32469533548116%{stroke-dashoffset: 16}38.6608768735117%{ stroke-dashoffset: 0;}100%{ stroke-dashoffset: 0;}}@keyframes SUlswBBW_draw_7{38.6608768735117%{stroke-dashoffset: 559}50.40621935845356%{ stroke-dashoffset: 0;}100%{ stroke-dashoffset: 0;}}@keyframes SUlswBBW_draw_8{50.406219358453576%{stroke-dashoffset: 21}50.84745762711865%{ stroke-dashoffset: 0;}100%{ stroke-dashoffset: 0;}}</style></svg>