<?xml version="1.0" standalone="no"?><!-- Generator: Gravit.io --><svg xmlns="http://www.w3.org/2000/svg" xmlns:xlink="http://www.w3.org/1999/xlink" style="isolation:isolate" viewBox="0 0 1600 500" width="1600" height="500"><defs><clipPath id="_clipPath_NIEAU4wWub2m6KzkoDnZKEPqwRSfCAnk"><rect width="1600" height="500"/></clipPath></defs><g clip-path="url(#_clipPath_NIEAU4wWub2m6KzkoDnZKEPqwRSfCAnk)"><clipPath id="_clipPath_idF7fIwONFharAy5jH3Ut2QhHzr4LVAq"><rect x="0" y="0" width="1600" height="500" transform="matrix(1,0,0,1,0,0)" fill="rgb(255,255,255)"/></clipPath><g clip-path="url(#_clipPath_idF7fIwONFharAy5jH3Ut2QhHzr4LVAq)"><g id="Group"><rect x="0" y="0" width="1600" height="500" transform="matrix(1,0,0,1,0,0)" fill="rgb(54,119,126)"/><g id="wandering_FINAL"><g id="Group" style="opacity:0.1293;"><g id="Group" style="opacity:0.1293;"><g id="Group" style="opacity:0.1293;"><g id="Group" style="opacity:0.1293;"><g id="Group" style="opacity:0.1293;"><g id="Group" style="opacity:0.1293;"><g id="Group" style="opacity:0.1293;"><g id="Group" style="opacity:0.1293;"><g id="Group" style="opacity:0.1293;"><g id="Group" style="opacity:0.3;"><g opacity="0.3"><path d=" M 354.209 342.707 C 362.587 342.652 369.397 343.926 369.408 345.549 C 369.418 347.173 362.625 348.537 354.248 348.592 C 345.87 348.647 339.06 347.374 339.049 345.75 C 339.038 344.126 345.831 342.763 354.209 342.707 Z " fill="rgb(0,0,0)"/></g></g></g></g></g></g></g></g></g></g></g><g id="Group"/><path d=" M 226.936 392.967 C 226.936 391.569 228.071 390.435 229.469 390.435 C 230.867 390.435 232.002 391.569 232.002 392.967 C 232.002 394.365 230.867 395.5 229.469 395.5 C 228.071 395.5 226.936 394.365 226.936 392.967 Z " fill="rgb(255,255,255)"/><path d=" M 266.626 395.5 C 266.626 394.102 267.761 392.967 269.159 392.967 C 270.557 392.967 271.691 394.102 271.691 395.5 C 271.691 396.898 270.557 398.033 269.159 398.033 C 267.761 398.033 266.626 396.898 266.626 395.5 Z " fill="rgb(255,255,255)"/><path d=" M 247.528 404.539 C 247.528 403.142 248.663 402.007 250.061 402.007 C 251.459 402.007 252.594 403.142 252.594 404.539 C 252.594 405.937 251.459 407.072 250.061 407.072 C 248.663 407.072 247.528 405.937 247.528 404.539 Z " fill="rgb(255,255,255)"/><path d=" M 411.451 356.009 C 411.346 356.305 411.01 356.456 410.701 356.346 C 410.392 356.237 410.227 355.907 410.333 355.611 C 410.438 355.315 410.774 355.163 411.083 355.273 C 411.391 355.383 411.556 355.712 411.451 356.009 Z " fill="rgb(255,255,255)"/><path d=" M 433.763 374.357 C 433.657 374.653 433.322 374.804 433.013 374.694 C 432.704 374.584 432.539 374.255 432.644 373.959 C 432.749 373.664 433.085 373.513 433.394 373.623 C 433.702 373.733 433.868 374.062 433.763 374.357 Z " fill="rgb(255,255,255)"/><path d=" M 432.586 348.585 C 432.481 348.88 432.145 349.031 431.837 348.921 C 431.528 348.811 431.363 348.482 431.468 348.187 C 431.573 347.891 431.909 347.741 432.218 347.85 C 432.526 347.96 432.692 348.289 432.586 348.585 Z " fill="rgb(255,255,255)"/><path d=" M 427.072 362.2 C 426.967 362.496 426.631 362.648 426.322 362.538 C 426.013 362.428 425.848 362.099 425.954 361.802 C 426.059 361.506 426.395 361.355 426.704 361.464 C 427.012 361.574 427.177 361.904 427.072 362.2 Z " fill="rgb(255,255,255)"/><path d=" M 446.988 350.589 C 446.883 350.884 446.547 351.035 446.239 350.925 C 445.93 350.815 445.765 350.486 445.87 350.191 C 445.975 349.895 446.311 349.745 446.619 349.854 C 446.928 349.964 447.093 350.293 446.988 350.589 Z " fill="rgb(255,255,255)"/><g id="Group"/></g><path d=" M 1299.254 2.36 C 1299.254 1.487 1299.963 0.778 1300.836 0.778 C 1301.71 0.778 1302.419 1.487 1302.419 2.36 C 1302.419 3.233 1301.71 3.942 1300.836 3.942 C 1299.963 3.942 1299.254 3.233 1299.254 2.36 Z " fill="rgb(255,255,255)"/><path d=" M 1488.868 56.364 C 1488.868 55.879 1489.262 55.485 1489.747 55.485 C 1490.232 55.485 1490.626 55.879 1490.626 56.364 C 1490.626 56.849 1490.232 57.243 1489.747 57.243 C 1489.262 57.243 1488.868 56.849 1488.868 56.364 Z " fill="rgb(255,255,255)"/><path d=" M 1480.331 223.871 C 1480.331 222.998 1481.04 222.289 1481.913 222.289 C 1482.786 222.289 1483.495 222.998 1483.495 223.871 C 1483.495 224.744 1482.786 225.453 1481.913 225.453 C 1481.04 225.453 1480.331 224.744 1480.331 223.871 Z " fill="rgb(255,255,255)"/><path d=" M 712.074 34.771 C 712.074 33.898 712.783 33.189 713.656 33.189 C 714.529 33.189 715.238 33.898 715.238 34.771 C 715.238 35.644 714.529 36.353 713.656 36.353 C 712.783 36.353 712.074 35.644 712.074 34.771 Z " fill="rgb(255,255,255)"/><path d=" M 615.382 215.081 C 615.382 214.208 616.091 213.499 616.965 213.499 C 617.838 213.499 618.547 214.208 618.547 215.081 C 618.547 215.954 617.838 216.663 616.965 216.663 C 616.091 216.663 615.382 215.954 615.382 215.081 Z " fill="rgb(255,255,255)"/><path d=" M 634.972 347.509 C 634.972 347.024 635.366 346.63 635.851 346.63 C 636.336 346.63 636.73 347.024 636.73 347.509 C 636.73 347.994 636.336 348.388 635.851 348.388 C 635.366 348.388 634.972 347.994 634.972 347.509 Z " fill="rgb(255,255,255)"/><path d=" M 804.996 269.085 C 804.996 268.6 805.39 268.206 805.875 268.206 C 806.36 268.206 806.754 268.6 806.754 269.085 C 806.754 269.57 806.36 269.964 805.875 269.964 C 805.39 269.964 804.996 269.57 804.996 269.085 Z " fill="rgb(255,255,255)"/><path d=" M 603.327 312.244 C 603.327 310.846 604.462 309.712 605.86 309.712 C 607.258 309.712 608.393 310.846 608.393 312.244 C 608.393 313.642 607.258 314.777 605.86 314.777 C 604.462 314.777 603.327 313.642 603.327 312.244 Z " fill="rgb(255,255,255)"/><path d=" M 868.538 170.939 C 868.538 170.027 869.278 169.287 870.191 169.287 C 871.103 169.287 871.843 170.027 871.843 170.939 C 871.843 171.851 871.103 172.592 870.191 172.592 C 869.278 172.592 868.538 171.851 868.538 170.939 Z " fill="rgb(255,255,255)"/><path d=" M 569.674 45.554 C 569.674 45.069 570.068 44.675 570.553 44.675 C 571.038 44.675 571.432 45.069 571.432 45.554 C 571.432 46.039 571.038 46.433 570.553 46.433 C 570.068 46.433 569.674 46.039 569.674 45.554 Z " fill="rgb(255,255,255)"/><path d=" M 501.111 21.821 C 501.111 20.423 502.246 19.288 503.643 19.288 C 505.041 19.288 506.176 20.423 506.176 21.821 C 506.176 23.219 505.041 24.354 503.643 24.354 C 502.246 24.354 501.111 23.219 501.111 21.821 Z " fill="rgb(255,255,255)"/><path d=" M 1232.7 317.623 C 1232.7 317.137 1233.094 316.744 1233.579 316.744 C 1234.065 316.744 1234.458 317.137 1234.458 317.623 C 1234.458 318.108 1234.065 318.502 1233.579 318.502 C 1233.094 318.502 1232.7 318.108 1232.7 317.623 Z " fill="rgb(255,255,255)"/><path d=" M 1402.725 239.199 C 1402.725 238.713 1403.119 238.32 1403.604 238.32 C 1404.089 238.32 1404.483 238.713 1404.483 239.199 C 1404.483 239.684 1404.089 240.078 1403.604 240.078 C 1403.119 240.078 1402.725 239.684 1402.725 239.199 Z " fill="rgb(255,255,255)"/><path d=" M 1201.056 282.358 C 1201.056 280.96 1202.191 279.825 1203.589 279.825 C 1204.987 279.825 1206.122 280.96 1206.122 282.358 C 1206.122 283.756 1204.987 284.891 1203.589 284.891 C 1202.191 284.891 1201.056 283.756 1201.056 282.358 Z " fill="rgb(255,255,255)"/><path d=" M 1213.111 434.834 C 1213.111 433.961 1213.82 433.252 1214.693 433.252 C 1215.566 433.252 1216.275 433.961 1216.275 434.834 C 1216.275 435.707 1215.566 436.416 1214.693 436.416 C 1213.82 436.416 1213.111 435.707 1213.111 434.834 Z " fill="rgb(255,255,255)"/><path d=" M 1371.081 430.719 C 1371.081 429.321 1372.215 428.186 1373.613 428.186 C 1375.011 428.186 1376.146 429.321 1376.146 430.719 C 1376.146 432.117 1375.011 433.252 1373.613 433.252 C 1372.215 433.252 1371.081 432.117 1371.081 430.719 Z " fill="rgb(255,255,255)"/><path d=" M 850.958 388.265 C 850.958 386.867 852.093 385.732 853.491 385.732 C 854.888 385.732 856.023 386.867 856.023 388.265 C 856.023 389.663 854.888 390.798 853.491 390.798 C 852.093 390.798 850.958 389.663 850.958 388.265 Z " fill="rgb(255,255,255)"/><path d=" M 796.459 436.592 C 796.459 435.719 797.168 435.01 798.041 435.01 C 798.914 435.01 799.623 435.719 799.623 436.592 C 799.623 437.465 798.914 438.174 798.041 438.174 C 797.168 438.174 796.459 437.465 796.459 436.592 Z " fill="rgb(255,255,255)"/><path d=" M 782.395 309.154 C 782.395 307.756 783.53 306.621 784.928 306.621 C 786.325 306.621 787.46 307.756 787.46 309.154 C 787.46 310.552 786.325 311.687 784.928 311.687 C 783.53 311.687 782.395 310.552 782.395 309.154 Z " fill="rgb(255,255,255)"/><path d=" M 750.75 267.066 C 750.75 266.58 751.144 266.187 751.629 266.187 C 752.114 266.187 752.508 266.58 752.508 267.066 C 752.508 267.551 752.114 267.945 751.629 267.945 C 751.144 267.945 750.75 267.551 750.75 267.066 Z " fill="rgb(255,255,255)"/><path d=" M 499.353 408.464 C 499.353 407.591 500.062 406.882 500.935 406.882 C 501.808 406.882 502.517 407.591 502.517 408.464 C 502.517 409.337 501.808 410.046 500.935 410.046 C 500.062 410.046 499.353 409.337 499.353 408.464 Z " fill="rgb(255,255,255)"/><path d=" M 615.382 72.681 C 615.382 71.808 616.091 71.099 616.965 71.099 C 617.838 71.099 618.547 71.808 618.547 72.681 C 618.547 73.554 617.838 74.263 616.965 74.263 C 616.091 74.263 615.382 73.554 615.382 72.681 Z " fill="rgb(255,255,255)"/><path d=" M 634.972 205.109 C 634.972 204.624 635.366 204.23 635.851 204.23 C 636.336 204.23 636.73 204.624 636.73 205.109 C 636.73 205.594 636.336 205.988 635.851 205.988 C 635.366 205.988 634.972 205.594 634.972 205.109 Z " fill="rgb(255,255,255)"/><path d=" M 804.996 126.685 C 804.996 126.2 805.39 125.806 805.875 125.806 C 806.36 125.806 806.754 126.2 806.754 126.685 C 806.754 127.17 806.36 127.564 805.875 127.564 C 805.39 127.564 804.996 127.17 804.996 126.685 Z " fill="rgb(255,255,255)"/><path d=" M 796.459 294.192 C 796.459 293.319 797.168 292.61 798.041 292.61 C 798.914 292.61 799.623 293.319 799.623 294.192 C 799.623 295.065 798.914 295.774 798.041 295.774 C 797.168 295.774 796.459 295.065 796.459 294.192 Z " fill="rgb(255,255,255)"/><path d=" M 750.75 124.665 C 750.75 124.18 751.144 123.786 751.629 123.786 C 752.114 123.786 752.508 124.18 752.508 124.665 C 752.508 125.151 752.114 125.544 751.629 125.544 C 751.144 125.544 750.75 125.151 750.75 124.665 Z " fill="rgb(255,255,255)"/><g id="Group"><path d=" M 627.858 328.654 C 627.858 326.723 629.427 325.154 631.358 325.154 C 633.29 325.154 634.858 326.723 634.858 328.654 C 634.858 330.586 633.29 332.154 631.358 332.154 C 629.427 332.154 627.858 330.586 627.858 328.654 Z " fill="rgb(255,255,255)"/><path d=" M 83.527 206.575 C 83.527 204.911 84.878 203.56 86.542 203.56 C 88.206 203.56 89.556 204.911 89.556 206.575 C 89.556 208.239 88.206 209.589 86.542 209.589 C 84.878 209.589 83.527 208.239 83.527 206.575 Z " fill="rgb(255,255,255)"/><path d=" M 1175.623 482.446 C 1175.623 480.782 1176.974 479.431 1178.638 479.431 C 1180.302 479.431 1181.652 480.782 1181.652 482.446 C 1181.652 484.109 1180.302 485.46 1178.638 485.46 C 1176.974 485.46 1175.623 484.109 1175.623 482.446 Z " fill="rgb(255,255,255)"/><g id="Group"><g id="Group"><g id="Group"><path d=" M 865.656 1151.06 C 865.422 1151.686 864.676 1152.006 863.991 1151.774 C 863.306 1151.542 862.939 1150.845 863.173 1150.219 C 863.407 1149.593 864.153 1149.273 864.838 1149.505 C 865.524 1149.737 865.89 1150.434 865.656 1151.06 Z " fill="rgb(255,255,255)"/><path d=" M 969.707 1150.913 C 969.473 1151.539 968.727 1151.859 968.041 1151.627 C 967.356 1151.394 966.99 1150.698 967.224 1150.072 C 967.458 1149.446 968.204 1149.126 968.889 1149.358 C 969.575 1149.59 969.941 1150.286 969.707 1150.913 Z " fill="rgb(255,255,255)"/><g id="Group"><path d=" M 894.219 236.478 C 894.219 236.164 894.474 235.909 894.788 235.909 C 895.102 235.909 895.357 236.164 895.357 236.478 C 895.357 236.792 895.102 237.047 894.788 237.047 C 894.474 237.047 894.219 236.792 894.219 236.478 Z " fill="rgb(255,255,255)"/><path d=" M 1004.281 185.712 C 1004.281 185.398 1004.536 185.143 1004.85 185.143 C 1005.164 185.143 1005.419 185.398 1005.419 185.712 C 1005.419 186.026 1005.164 186.281 1004.85 186.281 C 1004.536 186.281 1004.281 186.026 1004.281 185.712 Z " fill="rgb(255,255,255)"/><path d=" M 624.51 237.616 C 624.51 237.302 624.765 237.047 625.079 237.047 C 625.393 237.047 625.648 237.302 625.648 237.616 C 625.648 237.93 625.393 238.185 625.079 238.185 C 624.765 238.185 624.51 237.93 624.51 237.616 Z " fill="rgb(255,255,255)"/><path d=" M 734.571 186.85 C 734.571 186.536 734.826 186.281 735.14 186.281 C 735.454 186.281 735.709 186.536 735.709 186.85 C 735.709 187.164 735.454 187.419 735.14 187.419 C 734.826 187.419 734.571 187.164 734.571 186.85 Z " fill="rgb(255,255,255)"/><path d=" M 346.067 247.591 C 346.067 247.591 362.451 209.601 369.098 197.491 C 375.747 185.382 377.408 173.747 379.308 162.826 C 381.208 151.904 382.869 144.067 386.907 135.282 C 390.943 126.497 396.069 115.047 396.069 115.047 C 398.958 108.504 404.503 119.106 406.403 130.978 C 408.303 142.849 411.453 149.39 416.501 158.275 C 420.771 165.79 431.069 183.721 434.868 197.255 C 438.668 210.789 444.365 232.237 451.727 241.419 C 459.088 250.601 485.76 290.793 487.988 305.753 C 490.216 320.712 372.418 305.602 372.418 305.602 L 351.291 287.006 L 346.067 247.591 L 346.067 247.591 Z " fill="none"/><path d=" M 186.287 183.96 C 186.287 183.96 185.921 177.634 177.416 177.816 C 168.651 178.004 165.906 183.543 166.264 188.98 C 166.623 194.416 168.23 199.037 173.49 200.747 C 178.751 202.456 183.374 195.571 183.374 195.571 L 184.899 188.188 L 186.287 183.96 L 186.287 183.96 Z " fill="rgb(0,0,0)"/><path d=" M 162.198 258.475 L 157.962 329.275 L 169.511 329.998 L 169.717 328.247 L 179.256 330.012 C 179.256 330.012 195.642 308.781 197.032 301.265 C 198.401 293.87 192.928 267.222 191.964 260.722 L 162.198 258.475 L 162.198 258.475 Z " fill="rgb(0,0,0)"/><path d=" M 172.21 205.496 C 171.974 205.322 173.124 203.863 173.49 200.749 C 173.49 200.749 178.763 201.268 179.939 197.504 C 181.115 193.739 180.554 193.062 179.368 192.583 C 178.182 192.104 178.406 190.607 179.853 190.621 C 181.302 190.635 180.446 188.196 181.029 186.908 C 181.612 185.619 184.919 186.533 186.285 183.96 C 186.285 183.96 187.852 197.584 185.726 198.131 C 183.6 198.677 181.206 198.037 180.807 199.725 C 180.492 201.051 180.51 201.6 180.849 205.127 C 180.849 205.129 179.512 210.9 172.21 205.496 Z " fill="rgb(255,255,255)"/><path d=" M 189.917 193.312 C 189.917 193.312 188.874 192.164 187.552 191.166 C 186.231 190.17 180.406 187.264 184.857 187.05 C 189.309 186.837 190.301 185.888 191.668 188.787 C 193.035 191.687 193.375 193.811 193.375 193.811 L 190.828 195.027 L 189.917 193.312 L 189.917 193.312 Z " fill="rgb(255,255,255)"/><path d=" M 172.192 205.305 C 172.192 205.305 166.862 205.907 157.91 212.137 C 148.333 218.802 142.879 222.295 141.939 226.513 C 140.648 232.312 149.983 244.867 153.249 250.107 L 160.87 243.975 C 160.87 243.975 155.702 235.182 153.972 231.735 C 153.341 230.481 155.76 229.036 160.563 225.673 C 162.814 224.098 162.409 224.507 162.325 230.447 C 162.275 234.068 160.375 261.118 160.375 261.118 L 193.906 262.022 C 193.906 262.022 191.848 226.95 192.536 226.028 C 192.536 226.028 206.096 229.497 209.437 227.827 C 211.575 226.757 212.611 222.198 209.27 212.131 C 206.591 204.057 195.77 189.419 195.77 189.419 L 187.508 195.462 C 187.508 195.462 201.128 215.686 200.525 216.373 C 199.704 217.309 192.233 210.596 188.674 208.267 C 184.54 205.562 180.849 205.129 180.849 205.129 C 180.849 205.129 175.749 207.824 172.192 205.305 Z " fill="rgb(197,240,255)"/><path d=" M 157.968 251.185 C 158.451 253.874 159.567 260.82 160.136 259.72 C 160.704 258.619 160.349 254.321 160.944 252.57 C 161.507 250.912 161.896 251.49 162.954 252.668 C 164.012 253.846 163.108 250.213 161.421 248.031 C 160.78 247.201 160.73 247.133 159.345 245.265 C 159.331 245.247 156.399 247.574 156.399 247.574 C 156.399 247.574 157.483 248.496 157.968 251.185 Z " fill="rgb(255,255,255)"/><path d=" M 716.08 227.825 C 716.08 226.748 716.954 225.874 718.031 225.874 C 719.108 225.874 719.982 226.748 719.982 227.825 C 719.982 228.902 719.108 229.776 718.031 229.776 C 716.954 229.776 716.08 228.902 716.08 227.825 Z " fill="rgb(255,255,255)"/><path d=" M 1027.273 254.936 C 1027.273 253.507 1028.433 252.347 1029.862 252.347 C 1031.291 252.347 1032.452 253.507 1032.452 254.936 C 1032.452 256.366 1031.291 257.526 1029.862 257.526 C 1028.433 257.526 1027.273 256.366 1027.273 254.936 Z " fill="rgb(255,255,255)"/><path d=" M 645.832 227.816 C 645.832 226.744 646.702 225.874 647.774 225.874 C 648.845 225.874 649.716 226.744 649.716 227.816 C 649.716 228.888 648.845 229.758 647.774 229.758 C 646.702 229.758 645.832 228.888 645.832 227.816 Z " fill="rgb(255,255,255)"/><path d=" M 1.702 410.02 C 1.702 410.02 59.877 312.406 178.007 329.926 C 256.86 341.622 276.686 387.692 313.242 432.13 C 361.975 491.369 465.315 580.495 488.44 586.22 C 489.489 586.48 410.088 583.032 410.088 583.032 L 246.121 583.557 L 123.169 559.656 L -39.332 482.141 L 1.702 410.02 L 1.702 410.02 Z " fill="rgb(251,194,77)"/><path d=" M 1087.502 610.062 C 1087.502 609.369 1088.067 608.807 1088.763 608.807 C 1089.459 608.807 1090.024 609.369 1090.024 610.062 C 1090.024 610.754 1089.459 611.316 1088.763 611.316 C 1088.067 611.316 1087.502 610.754 1087.502 610.062 Z " fill="rgb(255,255,255)"/><path d=" M 707.952 301.087 C 707.952 301.087 722.464 295.442 726.296 287.436 C 730.124 279.429 736.575 259.214 743.43 254.357 C 750.281 249.5 760.361 240.705 762.983 235.585 C 765.605 230.465 769.636 224.166 771.247 221.014 C 772.858 217.865 778.301 209.068 778.907 204.868 C 779.511 200.667 780.117 194.498 782.335 194.234 C 784.552 193.971 797.251 213.269 798.259 219.044 C 799.266 224.82 803.904 232.958 809.144 237.159 C 814.385 241.36 815.797 250.81 818.015 254.75 C 820.232 258.689 829.908 266.707 831.721 269.326 C 833.535 271.945 796.308 351.12 796.308 351.12 L 710.377 317.495 L 707.952 301.087 L 707.952 301.087 Z " fill="none"/><clipPath id="_clipPath_W7Czs7VoidcasOcljCjJuptUtbBKz1p9"><path d=" M 707.952 301.087 C 707.952 301.087 722.464 295.442 726.296 287.436 C 730.124 279.429 736.575 259.214 743.43 254.357 C 750.281 249.5 760.361 240.705 762.983 235.585 C 765.605 230.465 769.636 224.166 771.247 221.014 C 772.858 217.865 778.301 209.068 778.907 204.868 C 779.511 200.667 780.117 194.498 782.335 194.234 C 784.552 193.971 797.251 213.269 798.259 219.044 C 799.266 224.82 803.904 232.958 809.144 237.159 C 814.385 241.36 815.797 250.81 818.015 254.75 C 820.232 258.689 829.908 266.707 831.721 269.326 C 833.535 271.945 796.308 351.12 796.308 351.12 L 710.377 317.495 L 707.952 301.087 L 707.952 301.087 Z " fill="rgb(255,255,255)"/></clipPath><g clip-path="url(#_clipPath_W7Czs7VoidcasOcljCjJuptUtbBKz1p9)"><g id="Group"><path d=" M 396.924 -397.681 C 396.924 -397.681 401.09 -390.446 399.445 -384.855 C 397.8 -379.265 395.718 -376.853 397.472 -372.688 C 399.226 -368.522 400.322 -366.22 398.458 -361.836 C 396.595 -357.451 394.293 -353.066 399.335 -347.914 C 404.377 -342.762 414.353 -357.671 414.353 -357.671 L 412.544 -378.06 L 399.993 -401.185 L 396.924 -397.681 L 396.924 -397.681 Z " fill="rgb(237,113,41)"/></g></g><path d=" M 680.861 341.381 C 680.861 341.381 628.03 342.943 608.505 326.444 C 588.978 309.942 568.633 286.329 517.8 284.547 C 479.261 283.197 445.362 297.342 427.264 321.688 C 409.167 346.034 399.333 383.687 399.333 383.687 L 637.524 392.863 L 680.861 341.381 L 680.861 341.381 Z " fill="rgb(239,136,34)"/><path d=" M -58.781 442.692 C -58.781 442.692 55.745 348.573 145.921 388.712 C 217.998 420.797 254.319 335.316 327.92 315.555 C 366.626 305.162 399.582 320.658 416.426 354.79 C 432.543 387.451 502.344 387.516 523.568 385.334 C 544.791 383.151 551.989 424.014 551.989 424.014 L 466.281 565.472 L 46.922 565.472 L -58.781 442.692 L -58.781 442.692 Z " fill="rgb(237,113,41)"/><path d=" M 1030.999 392.949 C 1030.999 392.949 1072.045 320.667 1162.221 360.807 C 1234.298 392.892 1270.619 307.411 1344.22 287.649 C 1382.926 277.256 1415.882 292.752 1432.726 326.884 C 1448.843 359.546 1518.644 359.611 1539.868 357.428 C 1561.091 355.246 1568.289 396.108 1568.289 396.108 L 1482.581 537.566 L 1063.222 537.566 L 1030.999 392.949 L 1030.999 392.949 Z " fill="rgb(237,113,41)"/><path d=" M 46.922 565.472 C 46.922 565.472 48.765 544.934 47.854 495.332 C 46.922 444.683 166.989 416.543 203.706 473.381 C 239.634 528.997 224.531 560.14 404.922 558.333 C 511.581 557.265 435.613 565.472 435.613 565.472 L 46.922 565.993 L 46.922 565.472 L 46.922 565.472 L 46.922 565.472 Z " fill="rgb(239,136,34)"/><path d=" M 734.337 328.395 C 734.337 328.395 756.796 319.403 768.464 289.212 C 774.431 273.769 798.871 257.733 831.768 257.579 C 864.665 257.424 897.287 281.459 903.954 298.672 C 910.621 315.885 842.519 367.909 842.519 367.909 L 767.773 401.328 L 734.337 328.395 L 734.337 328.395 Z " fill="rgb(216,98,39)"/><path d=" M 756.424 378.088 C 756.424 378.088 812.244 370.996 831.768 354.496 C 851.292 337.997 873.113 300.664 910.721 295.024 C 955.277 288.344 992.295 305.805 1010.393 330.15 C 1028.491 354.496 1037.827 387.44 1037.827 387.44 L 800.134 401.328 L 756.424 378.088 L 756.424 378.088 Z " fill="rgb(239,136,34)"/><path d=" M 957.04 392.457 C 957.04 392.457 1015.215 294.843 1133.345 312.363 C 1212.198 324.059 1232.024 370.13 1268.58 414.567 C 1317.313 473.806 1420.653 562.933 1443.778 568.657 C 1444.826 568.917 1365.425 565.47 1365.425 565.47 L 1201.459 565.994 L 1078.507 542.093 L 916.005 464.579 L 957.04 392.457 L 957.04 392.457 Z " fill="rgb(251,194,77)"/><path d=" M 583.169 383.703 C 583.169 383.703 558.316 383.687 535.25 383.687 C 472.989 383.687 377.872 382.327 379.023 401.326 C 380.298 422.36 474.249 410.933 474.249 434.93 C 474.249 464.17 281.211 434.752 281.211 464.764 C 281.211 494.775 436.111 475.92 437.801 498.51 C 439.77 524.825 343.674 519.884 336.348 537.639 C 324.794 565.636 525.522 565.47 525.522 565.47 L 574.082 428.758 L 583.169 383.703 L 583.169 383.703 Z " fill="rgb(197,240,255)"/><path d=" M 574.035 384.206 C 574.035 384.206 835.72 384.216 866.376 384.206 C 936.959 384.185 1050.587 383.476 1050.587 407.194 C 1050.587 430.912 939.215 423.798 942.194 443.831 C 944.432 458.88 976.734 465.149 1015.651 465.099 C 1039.233 465.069 1131.043 461.465 1131.043 480.155 C 1131.043 499.041 1091.765 499.455 1098.184 518.654 C 1104.599 537.85 1185.447 565.991 1232.024 565.991 L 969.798 565.993 L 574.035 384.206 L 574.035 384.206 Z " fill="rgb(197,240,255)"/><path d=" M 267.672 565.993 C 267.672 565.993 481.686 569.329 535.25 476.975 C 588.747 384.74 545.131 291.612 693.152 295.024 C 805.79 297.623 800.09 370.717 831.721 434.93 C 888.091 549.361 1027.407 562.326 1180.895 565.474 L 730.608 565.472 L 267.672 565.993 L 267.672 565.993 Z " fill="rgb(237,113,41)"/><clipPath id="_clipPath_HaimHnbMuhBOMCY65uz88tdJbzeiQcWm"><path d=" M 267.672 565.993 C 267.672 565.993 445.86 568.276 499.424 475.922 C 552.92 383.687 551.989 287.934 700.01 291.346 C 812.648 293.945 828.007 370.204 859.638 434.416 C 916.008 548.848 1027.407 562.326 1180.895 565.474 L 730.608 565.472 L 267.672 565.993 L 267.672 565.993 Z " fill="rgb(255,255,255)"/></clipPath><g clip-path="url(#_clipPath_HaimHnbMuhBOMCY65uz88tdJbzeiQcWm)"><g id="Group"><g id="Group" style="opacity:0.2;"><g opacity="0.2"><path d=" M 337.262 -334.387 C 337.262 -334.387 364.56 -321.768 402.234 -331.774 C 402.234 -331.774 426.182 -325.52 407.694 -322.371 C 355.952 -313.556 334.273 -330.815 334.273 -330.815 C 331.304 -338.024 337.262 -334.387 337.262 -334.387 Z " fill="rgb(255,255,255)"/></g></g></g></g><clipPath id="_clipPath_CYm99aSPs1UI9Mqn8ATwJuyNZF3uspvn"><path d=" M 267.672 565.993 C 267.672 565.993 445.86 568.276 499.424 475.922 C 552.92 383.687 551.989 287.934 700.01 291.346 C 812.648 293.945 828.007 370.204 859.638 434.416 C 916.008 548.848 1027.407 562.326 1180.895 565.474 L 730.608 565.472 L 267.672 565.993 L 267.672 565.993 Z " fill="rgb(255,255,255)"/></clipPath><g clip-path="url(#_clipPath_CYm99aSPs1UI9Mqn8ATwJuyNZF3uspvn)"><g id="Group"><g id="Group" style="opacity:0.2;"><g opacity="0.2"><path d=" M 413.521 -310.494 C 413.521 -310.494 375.846 -283.947 325.255 -313.85 C 274.665 -343.754 316.354 -299.409 316.354 -299.409 C 316.354 -299.409 379.782 -272.64 415.368 -303.761 C 450.954 -334.881 413.521 -310.494 413.521 -310.494 Z " fill="rgb(255,255,255)"/></g></g></g></g><clipPath id="_clipPath_vE6A4cbc9tGBZu9fDOtamIphNwmQWjI0"><path d=" M 267.672 565.993 C 267.672 565.993 445.86 568.276 499.424 475.922 C 552.92 383.687 551.989 287.934 700.01 291.346 C 812.648 293.945 828.007 370.204 859.638 434.416 C 916.008 548.848 1027.407 562.326 1180.895 565.474 L 730.608 565.472 L 267.672 565.993 L 267.672 565.993 Z " fill="rgb(255,255,255)"/></clipPath><g clip-path="url(#_clipPath_vE6A4cbc9tGBZu9fDOtamIphNwmQWjI0)"><g id="Group"><g id="Group" style="opacity:0.2;"><g opacity="0.2"><path d=" M 316.47 -281.305 C 316.47 -281.305 370.278 -254.407 423.968 -283.22 L 428.467 -257.279 C 428.467 -257.279 411.153 -255.434 389.327 -250.196 C 351.037 -241.006 311.492 -268.418 311.492 -268.418 L 316.47 -281.305 L 316.47 -281.305 Z " fill="rgb(255,255,255)"/></g></g></g></g><path d=" M 941.64 546.076 C 941.64 546.076 1024.876 567.679 1067.516 531.074 C 1101.825 501.622 1090.222 438.655 1174.365 440.349 C 1226.098 441.391 1244.125 472.259 1256.947 502.786 C 1283.282 565.474 1362.683 565.464 1362.683 565.464 L 1021.352 565.464 L 941.64 546.076 L 941.64 546.076 Z " fill="rgb(237,113,41)"/><path d=" M 1210.898 583.943 C 1210.898 583.565 1211.653 583.259 1212.582 583.259 C 1213.512 583.259 1214.267 583.565 1214.267 583.943 C 1214.267 584.32 1213.512 584.627 1212.582 584.627 C 1211.653 584.627 1210.898 584.32 1210.898 583.943 Z " fill="rgb(0,0,0)"/><path d=" M 1060.501 558.583 C 1060.501 558.583 1066.33 548.535 1057.657 542.958 C 1048.984 537.381 1037.525 539.718 1029.989 538.929 C 1022.452 538.139 1002.648 537.497 1004.592 524.869 C 1006.03 515.533 1020.261 511.205 1033.387 517.163 C 1046.514 523.121 1058.196 523.54 1060.222 518.108 C 1062.246 512.675 1051.226 505.659 1040.901 503.34 C 1030.576 501.02 1011.028 496.93 1013.662 487.384 C 1016.567 476.856 1034.475 480.551 1043.543 488.305 C 1049.621 493.502 1058.559 497.472 1062.143 495.018 C 1066.881 491.778 1065.984 487.601 1065.322 480.26 C 1064.66 472.918 1065.851 454.898 1079.234 457.006 C 1089.7 458.655 1094.173 470.583 1085.725 481.464 C 1080.275 488.484 1077.789 495.172 1083.683 497.788 C 1089.577 500.403 1098.627 494.709 1106.468 490.934 C 1116.245 486.226 1128.028 487.684 1128.6 496.099 C 1129.074 503.091 1118.31 510.808 1096.722 511.899 C 1084.633 512.511 1079.724 519.863 1084.445 524.122 C 1089.166 528.381 1099.226 527.293 1107.716 525.801 C 1116.205 524.309 1132.271 526.273 1134.524 534.104 C 1137.48 544.377 1120.905 550.804 1103.852 548.691 C 1091.134 547.113 1069.903 544.002 1060.501 558.583 Z " fill="rgb(70,163,145)"/><clipPath id="_clipPath_JbVsSNa9HyA8BR0xM4XojqASZEc6Ixol"><path d=" M 253.367 578.118 C 253.367 578.118 242.013 514.84 305.053 463.831 C 305.053 463.831 326.306 518.228 298.641 559.257 L 253.367 578.118 L 253.367 578.118 Z " fill="rgb(255,255,255)"/></clipPath><g clip-path="url(#_clipPath_JbVsSNa9HyA8BR0xM4XojqASZEc6Ixol)"><g id="Group"><path d=" M 250.236 -267.557 C 250.236 -267.557 241.464 -223.852 241.358 -216.123 L 233.918 -212.24 L 230.692 -223.073 L 234.305 -245.062 L 243.279 -263.371 L 250.236 -267.557 L 250.236 -267.557 Z " fill="rgb(109,209,189)"/></g></g><clipPath id="_clipPath_RJ2u33gooJWaq8FGHzXcOaFIIUnfWoiW"><path d=" M 301.491 575.613 C 301.491 575.613 269.959 497.827 159.692 456.835 C 159.692 456.835 173.29 527.162 234.904 567.063 L 301.491 575.613 L 301.491 575.613 Z " fill="rgb(255,255,255)"/></clipPath><g clip-path="url(#_clipPath_RJ2u33gooJWaq8FGHzXcOaFIIUnfWoiW)"><g id="Group"><path d=" M 205.442 -270.868 C 205.442 -270.868 235.936 -223.553 239.631 -214.518 L 250.169 -213.39 L 248.958 -227.613 L 234.555 -251.787 L 215.552 -269.16 L 205.442 -270.868 L 205.442 -270.868 Z " fill="rgb(109,209,189)"/></g></g><clipPath id="_clipPath_MivkKlQ6CDnDfpGIpM7VzRZfVgDclq2R"><path d=" M 267.024 564.417 C 267.024 564.417 286.223 522.602 347.113 501.641 C 347.113 501.641 337.842 539.615 303.357 560.542 L 267.024 564.417 L 267.024 564.417 Z " fill="rgb(255,255,255)"/></clipPath><g clip-path="url(#_clipPath_MivkKlQ6CDnDfpGIpM7VzRZfVgDclq2R)"><g id="Group"><path d=" M 263.198 -249.666 C 263.198 -249.666 245.832 -224.548 243.67 -219.715 L 237.937 -219.289 L 238.844 -226.979 L 247.078 -239.833 L 257.687 -248.918 L 263.198 -249.666 L 263.198 -249.666 Z " fill="rgb(109,209,189)"/></g></g><path d=" M 831.78 554.539 C 831.78 554.539 715.855 560.699 673.921 531.195 C 622.387 494.937 613.295 442.762 519.994 434.779 C 425.117 426.66 377.292 469.548 342.368 516.532 C 307.444 563.516 239.072 565.998 239.072 565.998 L 766.232 565.998 L 831.78 554.539 L 831.78 554.539 Z " fill="rgb(251,194,77)"/><path d=" M -10.126 426.111 C -20.394 426.413 -26.079 418.692 -17.196 413.796 C -8.311 408.9 0.244 406.555 -5.519 401.265 C -9.944 397.202 -19.487 401.566 -27.12 403.391 C -37.763 405.934 -48.27 398.856 -44.041 392.228 C -40.622 386.867 -28.876 388.79 -19.716 387.243 C -10.559 385.696 -13.466 380.722 -19.375 376.958 C -25.287 373.194 -31.632 363.704 -18.376 360.34 C -5.121 356.977 -1.502 366.015 -0.309 370.588 C 0.881 375.161 7.722 379.639 14.453 374.159 C 21.184 368.681 28.133 363.585 35.972 367.477 C 43.879 371.402 33.529 378.452 27.51 382.641 C 19.977 387.884 28.688 395.764 36.799 392.259 C 44.912 388.755 54.445 386.797 60.128 392.645 C 70.761 403.587 36.042 407.387 23.488 410.672 C 10.593 414.047 0.179 425.81 -10.126 426.111 Z " fill="rgb(70,163,145)"/><path d=" M 1090.222 564.941 C 1090.222 564.941 997.741 567.25 967.932 508.482 C 947.212 467.631 928.265 427.77 856.952 427.104 C 779.903 426.385 749.227 473.27 732.277 509.495 C 717.762 540.515 713.916 544.586 697.948 564.934 C 697.942 564.941 722.452 565.466 791.715 565.466 C 891.237 565.466 954.978 564.934 954.978 564.934 L 1090.222 564.941 L 1090.222 564.941 Z " fill="rgb(239,136,34)"/><path d=" M 1335.64 501.076 C 1335.64 501.076 1418.876 522.679 1461.516 486.074 C 1495.825 456.622 1484.222 393.655 1568.365 395.349 C 1620.098 396.391 1638.125 427.259 1650.947 457.786 C 1677.282 520.474 1756.683 520.464 1756.683 520.464 L 1415.352 520.464 L 1335.64 501.076 L 1335.64 501.076 Z " fill="rgb(251,194,77)"/><path d=" M 1418.482 575.374 C 1418.482 574.682 1419.308 574.12 1420.325 574.12 C 1421.343 574.12 1422.169 574.682 1422.169 575.374 C 1422.169 576.066 1421.343 576.628 1420.325 576.628 C 1419.308 576.628 1418.482 576.066 1418.482 575.374 Z " fill="rgb(255,255,255)"/><path d=" M 1406.529 601.49 C 1406.529 600.797 1407.355 600.235 1408.372 600.235 C 1409.39 600.235 1410.216 600.797 1410.216 601.49 C 1410.216 602.182 1409.39 602.744 1408.372 602.744 C 1407.355 602.744 1406.529 602.182 1406.529 601.49 Z " fill="rgb(255,255,255)"/><path d=" M 1500.998 586.326 C 1500.657 586.95 1499.567 587.269 1498.565 587.037 C 1497.564 586.805 1497.027 586.11 1497.368 585.485 C 1497.709 584.861 1498.799 584.542 1499.801 584.774 C 1500.802 585.006 1501.339 585.702 1500.998 586.326 Z " fill="rgb(255,255,255)"/><clipPath id="_clipPath_74L4Usoeoxx05QI0vakOHxoj3RLXst9b"><path d=" M 1272.871 580.954 C 1272.871 580.954 1264.482 504.003 1171.828 452.568 C 1171.828 452.568 1165.366 520.407 1212.482 565.159 L 1272.871 580.954 L 1272.871 580.954 Z " fill="rgb(255,255,255)"/></clipPath><g clip-path="url(#_clipPath_74L4Usoeoxx05QI0vakOHxoj3RLXst9b)"><g id="Group"><path d=" M 517.334 -272.888 C 517.334 -272.888 537.62 -222.868 539.489 -213.696 L 549.216 -210.752 L 550.613 -224.369 L 541.358 -249.715 L 526.555 -269.475 L 517.334 -272.888 L 517.334 -272.888 Z " fill="rgb(216,98,39)"/></g></g><clipPath id="_clipPath_U3amnWA9n8VciIydwGC5Ilg3tfjOYt4V"><path d=" M 1214.753 585.035 C 1214.753 585.035 1225.348 487.862 1342.351 422.909 C 1342.351 422.909 1350.509 508.575 1291.013 565.09 L 1214.753 585.035 L 1214.753 585.035 Z " fill="rgb(255,255,255)"/></clipPath><g clip-path="url(#_clipPath_U3amnWA9n8VciIydwGC5Ilg3tfjOYt4V)"><g id="Group"><path d=" M 569.881 -286.921 C 569.881 -286.921 544.265 -223.756 541.905 -212.174 L 529.622 -208.457 L 527.858 -225.651 L 539.545 -257.657 L 558.238 -282.61 L 569.881 -286.921 L 569.881 -286.921 Z " fill="rgb(109,209,189)"/></g></g><clipPath id="_clipPath_zlzxXLSlTzGeFDcLmP1TcCdovJnKQETO"><path d=" M 1251.882 566.656 C 1251.882 566.656 1214.571 519.728 1134.871 503.724 C 1134.871 503.724 1159.044 547.543 1207.315 567.381 L 1251.882 566.656 L 1251.882 566.656 Z " fill="rgb(255,255,255)"/></clipPath><g clip-path="url(#_clipPath_zlzxXLSlTzGeFDcLmP1TcCdovJnKQETO)"><g id="Group"><path d=" M 505.946 -248.68 C 505.946 -248.68 532.268 -222.71 535.93 -217.448 L 542.847 -218.232 L 540.035 -227.177 L 527.343 -240.614 L 512.673 -249.032 L 505.946 -248.68 L 505.946 -248.68 Z " fill="rgb(109,209,189)"/></g></g><path d=" M 1141.542 573.689 C 1141.542 572.663 1142.82 571.831 1144.395 571.831 C 1145.969 571.831 1147.247 572.663 1147.247 573.689 C 1147.247 574.714 1145.969 575.546 1144.395 575.546 C 1142.82 575.546 1141.542 574.714 1141.542 573.689 Z " fill="rgb(255,255,255)"/><path d=" M 1517.261 403.686 C 1517.261 402.661 1518.539 401.829 1520.113 401.829 C 1521.688 401.829 1522.966 402.661 1522.966 403.686 C 1522.966 404.712 1521.688 405.544 1520.113 405.544 C 1518.539 405.544 1517.261 404.712 1517.261 403.686 Z " fill="rgb(255,255,255)"/></g></g></g></g><path d=" M 1592.486 318.768 C 1592.486 317.104 1593.836 315.753 1595.5 315.753 C 1597.164 315.753 1598.515 317.104 1598.515 318.768 C 1598.515 320.432 1597.164 321.782 1595.5 321.782 C 1593.836 321.782 1592.486 320.432 1592.486 318.768 Z " fill="rgb(255,255,255)"/></g><path d=" M 682.187 243.332 C 682.187 241.934 683.322 240.799 684.72 240.799 C 686.118 240.799 687.253 241.934 687.253 243.332 C 687.253 244.73 686.118 245.865 684.72 245.865 C 683.322 245.865 682.187 244.73 682.187 243.332 Z " fill="rgb(255,255,255)"/><path d=" M 374.029 -13.636 C 374.029 -15.034 375.164 -16.168 376.562 -16.168 C 377.96 -16.168 379.095 -15.034 379.095 -13.636 C 379.095 -12.238 377.96 -11.103 376.562 -11.103 C 375.164 -11.103 374.029 -12.238 374.029 -13.636 Z " fill="rgb(255,255,255)"/><g id="Native-logo-typeface-white"><g id="Layer_1-2"><path d=" M 537.367 250 L 541.211 250 L 562.211 250 L 566.126 250 L 537.367 250 L 537.367 250 Z " fill="rgb(255,255,255)"/><line x1="629.117" y1="250" x2="625.494" y2="250"/></g></g><path d=" M 198.015 215.081 C 198.015 214.208 198.724 213.499 199.598 213.499 C 200.471 213.499 201.18 214.208 201.18 215.081 C 201.18 215.954 200.471 216.663 199.598 216.663 C 198.724 216.663 198.015 215.954 198.015 215.081 Z " fill="rgb(255,255,255)"/><path d=" M 387.629 269.085 C 387.629 268.6 388.023 268.206 388.509 268.206 C 388.994 268.206 389.388 268.6 389.388 269.085 C 389.388 269.57 388.994 269.964 388.509 269.964 C 388.023 269.964 387.629 269.57 387.629 269.085 Z " fill="rgb(255,255,255)"/><path d=" M 451.171 170.939 C 451.171 170.027 451.912 169.287 452.824 169.287 C 453.736 169.287 454.476 170.027 454.476 170.939 C 454.476 171.851 453.736 172.592 452.824 172.592 C 451.912 172.592 451.171 171.851 451.171 170.939 Z " fill="rgb(255,255,255)"/><path d=" M 365.028 309.154 C 365.028 307.756 366.163 306.621 367.561 306.621 C 368.959 306.621 370.093 307.756 370.093 309.154 C 370.093 310.552 368.959 311.687 367.561 311.687 C 366.163 311.687 365.028 310.552 365.028 309.154 Z " fill="rgb(255,255,255)"/><path d=" M 335.111 267.297 C 335.009 267.67 334.668 267.945 334.262 267.945 C 333.777 267.945 333.383 267.551 333.383 267.066 L 334.262 267.066 L 335.111 267.297 L 335.111 267.297 Z " fill="rgb(255,255,255)"/><path d=" M 217.605 205.109 C 217.605 204.624 217.999 204.23 218.484 204.23 C 218.969 204.23 219.363 204.624 219.363 205.109 C 219.363 205.594 218.969 205.988 218.484 205.988 C 217.999 205.988 217.605 205.594 217.605 205.109 Z " fill="rgb(255,255,255)"/><path d=" M 387.629 126.685 C 387.629 126.2 388.023 125.806 388.509 125.806 C 388.994 125.806 389.388 126.2 389.388 126.685 C 389.388 127.17 388.994 127.564 388.509 127.564 C 388.023 127.564 387.629 127.17 387.629 126.685 Z " fill="rgb(255,255,255)"/><path d=" M 379.092 294.192 C 379.092 293.319 379.801 292.61 380.674 292.61 C 381.548 292.61 382.257 293.319 382.257 294.192 C 382.257 295.065 381.548 295.774 380.674 295.774 C 379.801 295.774 379.092 295.065 379.092 294.192 Z " fill="rgb(255,255,255)"/><path d=" M 333.383 124.665 C 333.383 124.18 333.777 123.786 334.262 123.786 C 334.748 123.786 335.141 124.18 335.141 124.665 C 335.141 125.151 334.748 125.544 334.262 125.544 C 333.777 125.544 333.383 125.151 333.383 124.665 Z " fill="rgb(255,255,255)"/><path d=" M 264.82 243.332 C 264.82 241.934 265.955 240.799 267.353 240.799 C 268.751 240.799 269.886 241.934 269.886 243.332 C 269.886 244.73 268.751 245.865 267.353 245.865 C 265.955 245.865 264.82 244.73 264.82 243.332 Z " fill="rgb(255,255,255)"/><path d=" M 120 250 L 123.844 250 L 144.844 250 L 148.76 250 L 120 250 L 120 250 Z " fill="rgb(255,255,255)"/><line x1="211.75" y1="250" x2="208.127" y2="250"/></g></g></g></svg>