<?xml version="1.0" encoding="utf-8"?>
<!-- Generator: Adobe Illustrator 16.0.0, SVG Export Plug-In . SVG Version: 6.00 Build 0)  -->
<!DOCTYPE svg PUBLIC "-//W3C//DTD SVG 1.1//EN" "http://www.w3.org/Graphics/SVG/1.1/DTD/svg11.dtd">
<svg version="1.1" id="Layer_1" xmlns="http://www.w3.org/2000/svg" xmlns:xlink="http://www.w3.org/1999/xlink" x="0px" y="0px"
	 width="279px" height="288px" viewBox="0 0 279 288" enable-background="new 0 0 279 288" xml:space="preserve">
<g>
	<defs>
		<path id="SVGID_1_" d="M2.528,118.521c-7.472-21.373,4.026-44.065,25.68-50.686L241.355,2.669
			c21.653-6.62,38.403,6.357,37.412,28.964l-9.189,209.576c-0.991,22.617-20.137,41.56-42.766,42.31l-123.723,4.103
			c-22.628,0.751-47.029-15.969-54.5-37.339L2.528,118.521z"/>
	</defs>
	<clipPath id="SVGID_2_">
		<use xlink:href="#SVGID_1_"  overflow="visible"/>
	</clipPath>
	
		<path opacity="0.2393" clip-path="url(#SVGID_2_)" fill="none" stroke="#111149" stroke-width="8" stroke-miterlimit="10" stroke-dasharray="7,7" d="
		M2.528,118.521c-7.472-21.373,4.026-44.065,25.68-50.686L241.355,2.669c21.653-6.62,38.403,6.357,37.412,28.964l-9.189,209.576
		c-0.991,22.617-20.137,41.56-42.766,42.31l-123.723,4.103c-22.628,0.751-47.029-15.969-54.5-37.339L2.528,118.521z"/>
</g>
</svg>
