<?xml version="1.0" encoding="utf-8"?>
<!-- Generator: Adobe Illustrator 16.0.0, SVG Export Plug-In . SVG Version: 6.00 Build 0)  -->
<!DOCTYPE svg PUBLIC "-//W3C//DTD SVG 1.1//EN" "http://www.w3.org/Graphics/SVG/1.1/DTD/svg11.dtd">
<svg version="1.1" id="Layer_1" xmlns="http://www.w3.org/2000/svg" xmlns:xlink="http://www.w3.org/1999/xlink" x="0px" y="0px"
	 width="308px" height="244px" viewBox="0 0 308 244" enable-background="new 0 0 308 244" xml:space="preserve">
<g opacity="0.3411" enable-background="new    ">
	<g>
		<defs>
			<rect id="SVGID_1_" x="-3" y="-3" width="316" height="250"/>
		</defs>
		<clipPath id="SVGID_2_">
			<use xlink:href="#SVGID_1_"  overflow="visible"/>
		</clipPath>
		<g clip-path="url(#SVGID_2_)">
			<defs>
				<path id="SVGID_3_" d="M305.279,163.907c7.471,21.373-4.634,41.301-27.053,44.513L35.58,243.186
					c-22.412,3.211-37.674-12.307-34.087-34.67L22.507,77.484c3.586-22.358,24.491-44.102,46.679-48.561L205.503,1.524
					c22.194-4.461,46.243,9.25,53.714,30.621L305.279,163.907z"/>
			</defs>
			<clipPath id="SVGID_4_">
				<use xlink:href="#SVGID_3_"  overflow="visible"/>
			</clipPath>
			<g clip-path="url(#SVGID_4_)">
				<defs>
					<rect id="SVGID_5_" width="308" height="244"/>
				</defs>
				<clipPath id="SVGID_6_">
					<use xlink:href="#SVGID_5_"  overflow="visible"/>
				</clipPath>
				
					<path opacity="0.6" clip-path="url(#SVGID_6_)" fill="none" stroke="#111149" stroke-width="8" stroke-miterlimit="10" stroke-dasharray="7,7" d="
					M305.279,163.907c7.471,21.373-4.634,41.301-27.053,44.513L35.58,243.186c-22.412,3.211-37.674-12.307-34.087-34.67
					L22.507,77.484c3.586-22.358,24.491-44.101,46.679-48.561L205.503,1.524c22.194-4.461,46.243,9.25,53.714,30.621
					L305.279,163.907z"/>
			</g>
		</g>
	</g>
</g>
</svg>
