<?xml version="1.0" encoding="utf-8"?>
<!-- Generator: Adobe Illustrator 21.0.0, SVG Export Plug-In . SVG Version: 6.00 Build 0)  -->
<svg version="1.1" id="Layer_1" xmlns="http://www.w3.org/2000/svg" xmlns:xlink="http://www.w3.org/1999/xlink" x="0px" y="0px"
	 viewBox="0 0 500 500" style="enable-background:new 0 0 500 500;" xml:space="preserve">
<style type="text/css">
	.st0{enable-background:new    ;}
	.st1{fill:#DADADA;}
	.st2{fill:#73C4E2;}
	.st3{clip-path:url(#SVGID_4_);fill:#46A391;}
	.st4{clip-path:url(#SVGID_6_);fill:#C5F0FF;}
	.st5{clip-path:url(#SVGID_8_);fill:#C5F0FF;}
	.st6{clip-path:url(#SVGID_10_);fill:#2C5E5E;}
	.st7{clip-path:url(#SVGID_12_);fill:#2C5E5E;}
	.st8{clip-path:url(#SVGID_14_);fill:#3B72AA;}
	.st9{clip-path:url(#SVGID_16_);fill:#FFFFFF;}
</style>
<g>
	<g>
		<g class="st0">
			<defs>
				<rect id="SVGID_1_" x="-1" class="st0" width="500" height="500"/>
			</defs>
			<clipPath id="SVGID_2_">
				<use xlink:href="#SVGID_1_"  style="overflow:visible;"/>
			</clipPath>
		</g>
		<circle class="st1" cx="253.4" cy="250" r="194.5"/>
		<circle class="st2" cx="253.4" cy="250" r="194.5"/>
		<g>
			<g>
				<defs>
					<circle id="SVGID_3_" cx="253.4" cy="250" r="194.5"/>
				</defs>
				<clipPath id="SVGID_4_">
					<use xlink:href="#SVGID_3_"  style="overflow:visible;"/>
				</clipPath>
				<rect x="43.4" y="161.7" class="st3" width="411.3" height="304.7"/>
			</g>
			<g>
				<defs>
					<circle id="SVGID_5_" cx="253.4" cy="250" r="194.5"/>
				</defs>
				<clipPath id="SVGID_6_">
					<use xlink:href="#SVGID_5_"  style="overflow:visible;"/>
				</clipPath>
				<path class="st4" d="M120.5,398.6c0,0,54.5-29.5,111.7-18.4c55.3,10.7,75.4,41.3,83.4,64.2l-70.6,5.8c0,0-6.6-21.8-35.2-24.5
					c-16.8-1.6-28.8,7.7-33,11.2L120.5,398.6z"/>
			</g>
			<g>
				<defs>
					<circle id="SVGID_7_" cx="253.4" cy="250" r="194.5"/>
				</defs>
				<clipPath id="SVGID_8_">
					<use xlink:href="#SVGID_7_"  style="overflow:visible;"/>
				</clipPath>
				<path class="st5" d="M319,164.7c0,0,16,4.3,15,17.1c-0.7,9.9-19.7,15.3-30.7,18.2c-11.2,2.9-27.5,5.2-26.7,17.2s28,14.1,37,22.4
					s2.7,21.1-13.3,22.9c-16,1.9-85.5-1.9-86.1,19.5c-0.5,21.3,50.9,29.3,80.5,37.6s36.3,18.4,33.5,26.5
					c-2.3,6.9-28.7,10.8-53.2,2.8S237,331.2,222,323c-12.5-6.9-37.6-16.4-57-11.5c-19.7,5.1-28.2,21.1-50.6,20.3
					c-22.4-0.8-38.1-4.3-50.6-12.3l21.9,49.8c0,0,22.7,3.7,43.2-4.8c20.5-8.5,35.4-17.4,53.8-18.1c20.3-0.8,52,20.3,90.2,28.6
					c33.8,7.4,83.5,1.5,85.1-26.5c1.6-28-33.8-38.4-61.6-45.6c-27.7-7.2-41.3-10.9-40-19.2c1.3-8.3,49.1-3.7,52.2-1.8
					c21.7,13.5,34.6,22.3,57.4,20.5c18.9-1.4,24.9-15.7,24.2-26.2c-0.7-10-1.3-11.7,11.5-12c12.8-0.3,28.5,2.4,34.1-13.3
					c3.9-10.9,7.2-13.9,11.1-18.4c0,0-10.6,7.2-15.2,16c-5.8,11.3-23.6,8.6-32.6,7.5c-8.7-1.1-18.8-5.1-22,10.7
					c-3.2,15.7-3.2,21.9-21.9,18.7c-18-3.1-20.1-11.6-19.7-12c3.1-3.6,13.3-6.1,10.4-22.9s-22.1-24.8-38.9-28.8s-14.4-10.4-1.3-13.6
					c13.1-3.2,34.8-12.5,34.8-26.7C340.5,172.1,330.8,164.8,319,164.7z"/>
			</g>
			<g>
				<defs>
					<circle id="SVGID_9_" cx="253.4" cy="250" r="194.5"/>
				</defs>
				<clipPath id="SVGID_10_">
					<use xlink:href="#SVGID_9_"  style="overflow:visible;"/>
				</clipPath>
				<path class="st6" d="M79.2,154.4c0,0,10.7-6.4,16.8-7c6.1-0.6,7.7-1.7,11.2-3.5s10-1.7,15.1,0c5.2,1.7,2-2.4,9.6-3.9
					s6.8,1.8,11.4,4.6c4.6,2.8,17.3,4.6,23.2,0.4c5.9-4.2,18.2-17.3,23.8-19.7c5.5-2.4,9-1.8,15.5,1.7c6.4,3.5,7.4-5.7,14-7.9
					c6.6-2.2,10.7,2.2,11.8,7.4c1.1,5.2,7,6.8,11.1,6.6c4.1-0.2,6.6,2.2,7.7,6.4c1.1,4.2,11.8,5.9,18.8,1.8
					c7-4.1,16.2-15.8,22.8-13.3s10,12,16.8,12.3s14.6-2.6,19.5-2.4c5,0.2,4.8,1.7,9.2,2c4.4,0.4,7.6-5.9,11.4-1.7s4.1,9.6,10.9,7.2
					c6.8-2.4,10.1-8.7,14.9-9.2c4.8-0.6,11.6,2.6,16.7,9.1c5.1,6.6,11.7,9.7,21.4,8c9.7-1.7,18-7.1,19.7-3.1
					c1.7,4,2.6,14.3,2.6,14.3H68.7L79.2,154.4z"/>
			</g>
			<g>
				<defs>
					<circle id="SVGID_11_" cx="253.4" cy="250" r="194.5"/>
				</defs>
				<clipPath id="SVGID_12_">
					<use xlink:href="#SVGID_11_"  style="overflow:visible;"/>
				</clipPath>
				<path class="st7" d="M348.6,222.5c0,0,2.8-3.8,8.6-4.8c5.8-1,10.8-0.8,14.1-6.8s6.6-23.7,15.6-23c9.1,0.8,9.3,8.8,15.4,6.8
					s6.1-10.6,12.9-7.6c6.8,3,13.7,5.5,23.2-3c9.5-8.6,17,41.9,17,41.9s-14.2,3.8-24,3.8s-16.6,1.5-21.7-1.8c-5-3.3-10.8-5.5-19.9-4
					s-10.3-2.5-17.4-1.5C365.2,223.5,357.9,227,348.6,222.5z"/>
			</g>
			<g>
				<defs>
					<circle id="SVGID_13_" cx="253.4" cy="250" r="194.5"/>
				</defs>
				<clipPath id="SVGID_14_">
					<use xlink:href="#SVGID_13_"  style="overflow:visible;"/>
				</clipPath>
				<path class="st8" d="M319,164.7c0,0-0.8,8.8-13.6,9.5c-12.9,0.7-26.4-6.8-36.2,4.7c-9.8,11.5-10.8,16.6-23.7,17.2
					c-12.9,0.7-20,1.7-11.2,14.5c8.8,12.9,15.9,28.4-9.5,39.9c-25.4,11.5-54.8,19.6-73,26.4c-18.3,6.8-6.8,11.8-45,17.6
					c-38.1,5.7-55.1,6.1-55.1,6.1l0.7-136L319,164.7L319,164.7z"/>
			</g>
			<g>
				<defs>
					<circle id="SVGID_15_" cx="253.4" cy="250" r="194.5"/>
				</defs>
				<clipPath id="SVGID_16_">
					<use xlink:href="#SVGID_15_"  style="overflow:visible;"/>
				</clipPath>
				<circle class="st9" cx="293.5" cy="96.4" r="18.7"/>
			</g>
		</g>
	</g>
</g>
</svg>
