<?xml version="1.0" encoding="utf-8"?>
<!-- Generator: Adobe Illustrator 17.0.0, SVG Export Plug-In . SVG Version: 6.00 Build 0)  -->
<!DOCTYPE svg PUBLIC "-//W3C//DTD SVG 1.1//EN" "http://www.w3.org/Graphics/SVG/1.1/DTD/svg11.dtd">
<svg version="1.1" id="Layer_1" xmlns="http://www.w3.org/2000/svg" xmlns:xlink="http://www.w3.org/1999/xlink" x="0px" y="0px"
	 width="450px" height="293px" viewBox="0 0 450 293" enable-background="new 0 0 450 293" xml:space="preserve">
<g enable-background="new    ">
	<g>
		<defs>
			<rect id="SVGID_1_" x="0" width="450" height="293"/>
		</defs>
		<clipPath id="SVGID_2_">
			<use xlink:href="#SVGID_1_"  overflow="visible"/>
		</clipPath>
		<g clip-path="url(#SVGID_2_)">
			<defs>
				<rect id="SVGID_3_" x="0" width="450" height="293"/>
			</defs>
			<clipPath id="SVGID_4_">
				<use xlink:href="#SVGID_3_"  overflow="visible"/>
			</clipPath>
			<rect x="0" clip-path="url(#SVGID_4_)" fill="#FFFFFF" width="450" height="293"/>
		</g>
	</g>
</g>
<rect x="0" fill="#FFFFFF" width="450" height="293"/>
<rect x="0" y="-0.001" fill="#36777E" width="450" height="293.001"/>
<path fill="#193534" d="M445.808,146.435c0,0-5.854-8.445-12.333-5.565c-6.479,2.88-7.401,5.739-7.401,12.419
	c0,6.68-1.741,24.044-9.486,24.044c-7.746,0-8.072-9.175-6.904-15.609c1.168-6.434,4.253-31.246-3.262-32.021
	c-7.515-0.775-7.563,22.268-7.515,30.266c0.034,5.649-0.952,10.088-3.958,10.088c-3.006,0-4.222-7.937-5.169-13.055
	c-1.206-6.518-2.86-11.915-7.181-11.201c-4.215,0.697-4.041,8.096-4.141,18.15c-0.109,10.99-7.873,6.924-9.536-2.227
	c-1.088-5.988-4.739-25.575-13.741-23.627c-9.002,1.948-4.623,14.605,1.5,27.085c3.83,7.807,4.217,12.834,0.327,12.834
	c-4.379,0-7.419-5.553-11.346-2.127c-2.438,2.127,1.157,8.357-0.934,12.538c-2.965,5.929-11.165-6.61-14.282-12.538
	c-3.618-6.879-10.911-8.851-15.331-3.703s-0.576,14.393,3.621,23.384c4.197,8.991,1.365,14.526-5.367,12.026
	c-5.137-1.908-10.089,4.206-3.736,12.976c4.817,6.65,3.736,13.257-3.102,12.479c-5.279-0.601-14.21-4.692-18.672,1.892
	c-4.461,6.584,1.333,16.318,10.876,23.101c9.543,6.783,5.268,13.151,0.701,13.504s-11.418-1.4-15.418,3.837
	c-3.26,4.268,1.717,9.702,5.222,12.41c3.505,2.708,159.259,4.591,159.259,4.591l6.963-124.42L445.808,146.435z"/>
<path fill="#2C5E5E" d="M339.459,241.297c0,0-13.542-4.8-20.296-20.925c0,0,10.85-0.579,25.776,16.863L339.459,241.297z"/>
<g>
	<defs>
		<path id="SVGID_5_" d="M339.459,241.297c0,0-13.542-4.8-20.296-20.925c0,0,10.85-0.579,25.776,16.863L339.459,241.297z"/>
	</defs>
	<clipPath id="SVGID_6_">
		<use xlink:href="#SVGID_5_"  overflow="visible"/>
	</clipPath>
	<path clip-path="url(#SVGID_6_)" fill="#122625" d="M319.163,220.372c0,0,22.066,17.601,24.883,20.244l-7.122,3.383l-14.652-12.688
		l-4.959-9.629"/>
</g>
<path fill="#505050" d="M308.693,268.126c0,0,7.125-9.39,21.459-8.534c0,0-2.234,9.31-19.627,14.756L308.693,268.126z"/>
<g>
	<defs>
		<path id="SVGID_7_" d="M308.693,268.126c0,0,7.125-9.39,21.459-8.534c0,0-2.234,9.31-19.627,14.756L308.693,268.126z"/>
	</defs>
	<use xlink:href="#SVGID_7_"  overflow="visible" fill="#2C5E5E"/>
	<clipPath id="SVGID_8_">
		<use xlink:href="#SVGID_7_"  overflow="visible"/>
	</clipPath>
	<path clip-path="url(#SVGID_8_)" fill="#122625" d="M330.152,259.592c0,0-19.288,11.355-22.061,12.645l-0.891-7.322l13.593-7.136
		l8.789-0.263"/>
</g>
<path fill="#505050" d="M287.746,239.87c0,0-9.374-0.346-15.371-10.073c0,0,7.085-2.802,18.585,6.035L287.746,239.87z"/>
<g>
	<defs>
		<path id="SVGID_9_" d="M287.746,239.87c0,0-9.374-0.346-15.371-10.073c0,0,7.085-2.802,18.585,6.035L287.746,239.87z"/>
	</defs>
	<clipPath id="SVGID_10_">
		<use xlink:href="#SVGID_9_"  overflow="visible"/>
	</clipPath>
	<path clip-path="url(#SVGID_10_)" fill="#1A1A1A" d="M272.375,229.797c0,0,16.215,7.369,18.324,8.586l-4.361,3.929l-10.864-5.59
		l-4.19-5.604"/>
</g>
<path fill="#505050" d="M287.513,227.702c0,0-1.671-6.753,4.036-13.018c0,0,3.447,4.477-0.5,14.484L287.513,227.702z"/>
<g>
	<defs>
		<path id="SVGID_11_" d="M287.513,227.702c0,0-1.671-6.753,4.036-13.018c0,0,3.447,4.477-0.5,14.484L287.513,227.702z"/>
	</defs>
	<clipPath id="SVGID_12_">
		<use xlink:href="#SVGID_11_"  overflow="visible"/>
	</clipPath>
	<path clip-path="url(#SVGID_12_)" fill="#1A1A1A" d="M291.55,214.683c0,0-1.936,13.067-2.372,14.819l-3.693-2.305l1.762-8.888
		l3.138-4.134"/>
</g>
<polygon fill="#FFFFFF" points="377.465,0 375.583,174.621 402.903,204.891 406.054,-0.001 "/>
<rect x="242.031" y="-0.001" fill="#46A391" width="19.822" height="16.953"/>
<polygon fill="#2C5E5E" points="420.076,-0.001 420.186,226.355 445.383,258.715 446.627,-0.001 "/>
<polygon fill="#2C5E5E" points="420.076,-0.001 420.186,226.355 445.383,258.715 446.627,-0.001 "/>
<rect x="273.816" y="-0.001" fill="#FFFFFF" width="18.364" height="51.267"/>
<polygon fill="#46A391" points="329.588,-3.476 328.877,64.696 355.38,71.574 355.781,62.094 372.78,55.951 371.71,51.266 
	355.915,56.352 357.12,-3.476 "/>
<rect x="298.497" fill="#2C5E5E" width="25.232" height="71.574"/>
<path fill="#77BB68" d="M123.443,19.63c0,0-16.487-2.168-16.487,4.215s9.938,3.21,9.732,6.59c-0.156,2.556-5.788,1.223-5.645,4.459
	c0.138,3.123,12.761,2.8,12.761,2.8L123.443,19.63z"/>
<path fill="#77BB68" d="M144.398,2.057c0,0,16.584-0.571,16.503,2.588c-0.072,2.834-8.981,2.043-6.989,6.555
	c2.084,4.72,21.388,0.234,21.388,4.697c0,6.921-23.571,0.684-23.571,6.921c0,4.827,7.121,0.817,7.362,5.363
	c0.241,4.546-13.698,4.546-13.698,4.546L144.398,2.057z"/>
<path fill="none" stroke="#000000" stroke-linecap="round" d="M337.323,2.812c0,0-3.166,8.419-0.891,14.949
	c2.276,6.53,1.979,8.014-0.495,15.227"/>
<path fill="#46A391" d="M21.625,81.935c0,0-0.496-5.893-5.148-6.699c-4.652-0.806-8.25,2.654-11.227,3.846
	c-2.977,1.192-10.425,4.99-13.026-1.303c-1.923-4.652,2.171-9.614,8.56-9.552c6.389,0.062,10.793-2.159,10.111-5.111
	c-0.682-2.952-6.575-3.945-10.979-2.89c-4.404,1.055-12.533,2.525-13.15-2.667c-0.59-4.962,5.272-7.691,10.173-4.891
	c3.734,2.134,7.926,1.168,8.599-0.717c0.89-2.492-0.536-4.254-2.707-7.541C0.659,41.121-3.635,32.47,1.838,30.684
	c4.28-1.397,9.056,3.241,8.808,10.064c-0.16,4.402,0.682,8.036,3.536,8.036c2.853,0,4.684-4.528,6.575-7.912
	c2.357-4.218,7.071-5.977,9.49-2.171c2.01,3.163,0.08,8.99-7.567,13.965c-4.283,2.786-4.156,7.232-1.303,8.241
	c2.853,1.009,6.265-1.579,8.994-4.032c2.729-2.453,9.149-4.861,12.034-1.675c3.784,4.18-0.62,10.607-7.443,13.15
	C29.872,70.248,21.253,73.189,21.625,81.935z"/>
<path fill="none" stroke="#000000" stroke-width="2" stroke-linecap="round" stroke-linejoin="round" d="M11.3,52.528
	c0,0,8.98,14.839,10.703,30.288"/>
<path fill="#2C5E5E" d="M14.248-11.609c0,0,13.661,12.168,13.876,34.427c0,0-13.073-4.531-22.29-32.271L14.248-11.609z"/>
<g>
	<defs>
		<path id="SVGID_13_" d="M14.248-11.609c0,0,13.661,12.168,13.876,34.427c0,0-13.073-4.531-22.29-32.271L14.248-11.609z"/>
	</defs>
	<clipPath id="SVGID_14_">
		<use xlink:href="#SVGID_13_"  overflow="visible"/>
	</clipPath>
	<path clip-path="url(#SVGID_14_)" fill="#193534" d="M28.124,22.818c0,0-17.56-31.359-19.612-35.83l10.024-0.566l11.18,22.003
		l1.22,13.737"/>
</g>
<path fill="#77BB68" d="M290.479,267.409c0,0-11.883-3.6-9.871-8.694c2.012-5.094,12.206,2.705,15.195-3.839
	c2.989-6.544-6.433-11.859-8.651-15.006c-2.218-3.147-6.766-13.511-1.664-15.958c5.102-2.447,8.643,14.921,14.419,12.811
	c5.753-2.101-2.088-13.763-3.751-18.711c-1.664-4.948-7.007-19.765-1.351-21.144s1.765,12.717,7.433,13.217
	c5.667,0.5,9.459-11.823,6.456-17.199c-3.002-5.376-15.363-23.503-8.011-25.132c5.008-1.109,3.128,13.403,9.425,13.292
	s3.252-9.4,2.237-12.604c-1.015-3.204-2.868-9.464,1.536-9.508c3.961-0.039,1.65,11.987,6.615,12.541
	c4.965,0.555,9.622-6.987,13.318-5.102c2.757,1.407-1.278,5.778-4.439,8.341c-3.161,2.564-11.35,5.735-8.025,9.284
	c3.432,3.662,16.008-7.156,19.512-4.006c2.242,2.015-0.595,7.187-8.1,8.967c-11.396,2.703-19.544,8.77-14.416,15.928
	c4.357,6.082,9.533,0.095,11.785,4.017c2.925,5.095-12.514,6.606-17.785,9.104c-4.972,2.357-5.662,6.738-2.771,8.2
	c3.263,1.65,13.638-4.302,15.176-0.227c1.619,4.291-17.962,4.255-16.056,10.738c1.486,5.057,16.555-1.797,16.691,2.738
	c0.213,7.096-21.958,1.962-21.958,10.756c0,5.043,6.55,3.482,8.015,6.987c1.734,4.15-6.564,5.62-1.258,12.967
	C315.489,277.518,290.479,267.409,290.479,267.409z"/>
<path fill="#2C5E5E" d="M36.251-10.614l1.796,71.522l3.429,95.689l25.31-9.308L65.48,45.232c0,0,7.008,0.163,9.872,0
	c2.864-0.163,13.261,11.92,13.261,11.92l3.646-2.776L81.319,42.782l8.654-7.185l16.982-0.163l-0.163-6.205L91.96,29.887l5.09-14.211
	l-5.28-0.816l-5.076,16.245l-8.663,6.914H64.92l-0.584-14.341c0,0,18.139-1.306,20.248-23.677h-4.673c0,0-1.941,16.866-15.26,17.87
	l0.174-21.346L36.251-10.614z"/>
<path fill="#2C5E5E" d="M83.573,81.345c1.196,1.521-12.942,3.94-28.244-12.763C55.33,68.581,68.816,62.575,83.573,81.345z"/>
<g>
	<defs>
		<path id="SVGID_15_" d="M83.573,81.345c1.196,1.521-12.942,3.94-28.244-12.763C55.33,68.581,68.816,62.575,83.573,81.345z"/>
	</defs>
	<clipPath id="SVGID_16_">
		<use xlink:href="#SVGID_15_"  overflow="visible"/>
	</clipPath>
	<path clip-path="url(#SVGID_16_)" fill="#193534" d="M55.33,68.581c0,0,25.524,11.586,29.541,13.944s0.09-7.961,0.09-7.961
		L64.561,62.348l-8.692,3.357L55.33,68.581z"/>
</g>
<path fill="#2C5E5E" d="M85.242,82.69c-1.442,1.708-8.293-14.225,6.934-35.5C92.176,47.19,103.044,61.616,85.242,82.69z"/>
<g>
	<defs>
		<path id="SVGID_17_" d="M85.242,82.69c-1.442,1.708-8.293-14.225,6.934-35.5C92.176,47.19,103.044,61.616,85.242,82.69z"/>
	</defs>
	<clipPath id="SVGID_18_">
		<use xlink:href="#SVGID_17_"  overflow="visible"/>
	</clipPath>
	<path clip-path="url(#SVGID_18_)" fill="#193534" d="M92.176,47.19c0,0-6.328,32.093-7.949,37.255
		c-1.622,5.162,9.354-1.557,9.354-1.557l8.52-26.266l-6.402-9.405L92.176,47.19z"/>
</g>
<path fill="#2C5E5E" d="M89.305,81c-1.911,0.761-1.221-16.218,20.273-27.035C109.578,53.964,112.891,71.607,89.305,81z"/>
<g>
	<defs>
		<path id="SVGID_19_" d="M89.305,81c-1.911,0.761-1.221-16.218,20.273-27.035C109.578,53.964,112.891,71.607,89.305,81z"/>
	</defs>
	<clipPath id="SVGID_20_">
		<use xlink:href="#SVGID_19_"  overflow="visible"/>
	</clipPath>
	<path clip-path="url(#SVGID_20_)" fill="#193534" d="M109.578,53.964c0,0-18.377,24.412-21.843,28.045
		c-3.466,3.633,8.528,3.216,8.528,3.216l17.861-18.354l-1.584-11.17L109.578,53.964z"/>
</g>
<path fill="#2C5E5E" d="M82.299,81.025c-0.146,1.929-12.205-5.837-12.205-28.489C70.094,52.535,84.095,57.216,82.299,81.025z"/>
<g>
	<defs>
		<path id="SVGID_21_" d="M82.299,81.025c-0.146,1.929-12.205-5.837-12.205-28.489C70.094,52.535,84.095,57.216,82.299,81.025z"/>
	</defs>
	<clipPath id="SVGID_22_">
		<use xlink:href="#SVGID_21_"  overflow="visible"/>
	</clipPath>
	<path clip-path="url(#SVGID_22_)" fill="#193534" d="M70.094,52.535c0,0,10.995,25.784,12.364,30.236
		c1.369,4.452,5.444-5.81,5.444-5.81l-6.791-22.787l-8.677-3.395L70.094,52.535z"/>
</g>
<path fill="#2C5E5E" d="M155.263,244.539c0,0-11.73-26.783,2.799-59.258c0,0,15.967,15.298,10.859,61.736L155.263,244.539z"/>
<g>
	<defs>
		<path id="SVGID_23_" d="M155.263,244.539c0,0-11.73-26.783,2.799-59.258c0,0,15.967,15.298,10.859,61.736L155.263,244.539z"/>
	</defs>
	<clipPath id="SVGID_24_">
		<use xlink:href="#SVGID_23_"  overflow="visible"/>
	</clipPath>
	<path clip-path="url(#SVGID_24_)" fill="#1A1A1A" d="M158.063,185.281c0,0,4.598,57.258,4.598,65.119l-14.937-5.861l-1.568-39.413
		l7.388-20.767"/>
</g>
<path fill="#2C5E5E" d="M145.392,268.656c0,0,5.468-43.808,37.472-75.328c0,0,17.209,23.799-10.327,83.611L145.392,268.656z"/>
<g>
	<defs>
		<path id="SVGID_25_" d="M145.392,268.656c0,0,5.468-43.808,37.472-75.328c0,0,17.209,23.799-10.327,83.611L145.392,268.656z"/>
	</defs>
	<clipPath id="SVGID_26_">
		<use xlink:href="#SVGID_25_"  overflow="visible"/>
	</clipPath>
	<path clip-path="url(#SVGID_26_)" fill="#1A1A1A" d="M182.864,193.327c0,0-16.01,61.724-23.926,80.915l-17.652-5.56l17.882-56.367
		L182.864,193.327z"/>
</g>
<path fill="#414141" d="M117.198,275.634c0,0-8.962-10.962-4.481-22.933c4.481-11.972,0.651-15.841-3.099-23.642
	c-3.75-7.801,1.168-18.33,7.58-9.82s10.161,13.388,8.719,27.779c-1.442,14.391-1.529,22.385,5.061,27.331
	C137.568,279.295,117.198,275.634,117.198,275.634z"/>
<g>
	<defs>
		<path id="SVGID_27_" d="M117.198,275.634c0,0-8.962-10.962-4.481-22.933c4.481-11.972,0.651-15.841-3.099-23.642
			c-3.75-7.801,1.168-18.33,7.58-9.82s10.161,13.388,8.719,27.779c-1.442,14.391-1.529,22.385,5.061,27.331
			C137.568,279.295,117.198,275.634,117.198,275.634z"/>
	</defs>
	<use xlink:href="#SVGID_27_"  overflow="visible" fill="#F36569"/>
	<clipPath id="SVGID_28_">
		<use xlink:href="#SVGID_27_"  overflow="visible"/>
	</clipPath>
	<path clip-path="url(#SVGID_28_)" fill="none" stroke="#FFFFFF" stroke-width="0.5" d="M109.578,218.013
		c0,0,12.275,12.785,10.726,25.839c-1.549,13.055-4.42,27.494,5.198,36.081"/>
</g>
<path fill="#46A391" d="M135.121,277.202c0,0-10.16-8.666-6.823-22.731c2.939-12.386,3.993-19.877,1.568-26.936
	c-2.037-5.93-8.677-17.947-9.509-24.907c-0.833-6.959,8.424-42.773,19.105-41.774c8.404,0.785,10.122,13.899,5.931,29.2
	c-1.422,5.191-2.866,11.677-0.213,20.479c2.653,8.802,11.817,16.329,12.782,31.351c0.965,15.022-2.773,26.287-6.27,33.642
	C148.194,282.882,135.121,277.202,135.121,277.202z"/>
<g>
	<defs>
		<path id="SVGID_29_" d="M135.121,277.202c0,0-10.16-8.666-6.823-22.731c2.939-12.386,3.993-19.877,1.568-26.936
			c-2.037-5.93-8.677-17.947-9.509-24.907c-0.833-6.959,8.424-42.773,19.105-41.774c8.404,0.785,10.122,13.899,5.931,29.2
			c-1.422,5.191-2.866,11.677-0.213,20.479c2.653,8.802,11.817,16.329,12.782,31.351c0.965,15.022-2.773,26.287-6.27,33.642
			C148.194,282.882,135.121,277.202,135.121,277.202z"/>
	</defs>
	<use xlink:href="#SVGID_29_"  overflow="visible" fill="#2C5E5E"/>
	<clipPath id="SVGID_30_">
		<use xlink:href="#SVGID_29_"  overflow="visible"/>
	</clipPath>
	<path clip-path="url(#SVGID_30_)" fill="none" stroke="#FFFFFF" d="M143.45,158.43c0,0-10.498,24.371-10.498,40.322
		c0,15.951,4.816,25.636,10.633,39.162c5.803,13.495,0.343,30.008-6.017,44.263c-6.36,14.255,18.837,34.277,18.837,34.277"/>
</g>
<path fill="#36777E" d="M311.583-16.117c0,0,20.115,18.941,19.509,52.555c0,0-19.547-7.388-32.301-49.651L311.583-16.117z"/>
<g>
	<defs>
		<path id="SVGID_31_" d="M311.583-16.117c0,0,20.115,18.941,19.509,52.555c0,0-19.547-7.388-32.301-49.651L311.583-16.117z"/>
	</defs>
	<use xlink:href="#SVGID_31_"  overflow="visible" fill="#2C5E5E"/>
	<clipPath id="SVGID_32_">
		<use xlink:href="#SVGID_31_"  overflow="visible"/>
	</clipPath>
	<path clip-path="url(#SVGID_32_)" fill="#193534" d="M331.092,36.437c0,0-25.199-48.077-28.11-54.911l15.157-0.436l15.958,33.685
		l1.267,20.79"/>
</g>
<path fill="#F36569" d="M286.114,283.803c0,0,10.16-8.666,6.823-22.731c-2.939-12.386-3.993-19.877-1.568-26.936
	c2.038-5.93,8.677-17.947,9.509-24.907c0.833-6.959-8.424-42.772-19.105-41.774c-8.404,0.785-10.122,13.899-5.931,29.2
	c1.422,5.191,2.866,11.677,0.213,20.479c-2.653,8.802-11.817,16.329-12.781,31.351c-0.965,15.022,2.773,26.287,6.27,33.642
	C273.041,289.483,286.114,283.803,286.114,283.803z"/>
<g>
	<defs>
		<path id="SVGID_33_" d="M286.114,283.803c0,0,10.16-8.666,6.823-22.731c-2.939-12.386-3.993-19.877-1.568-26.936
			c2.038-5.93,8.677-17.947,9.509-24.907c0.833-6.959-8.424-42.772-19.105-41.774c-8.404,0.785-10.122,13.899-5.931,29.2
			c1.422,5.191,2.866,11.677,0.213,20.479c-2.653,8.802-11.817,16.329-12.781,31.351c-0.965,15.022,2.773,26.287,6.27,33.642
			C273.041,289.483,286.114,283.803,286.114,283.803z"/>
	</defs>
	<clipPath id="SVGID_34_">
		<use xlink:href="#SVGID_33_"  overflow="visible"/>
	</clipPath>
	<path clip-path="url(#SVGID_34_)" fill="none" stroke="#FFFFFF" d="M277.785,165.031c0,0,10.498,24.371,10.498,40.322
		s-4.816,25.636-10.633,39.162c-5.803,13.495-0.343,30.008,6.017,44.263c6.36,14.255-18.837,34.277-18.837,34.277"/>
</g>
<polygon fill="#FFFFFF" points="120.304,-3.476 120.304,44.404 106.956,43.078 106.956,47.19 120.304,50.228 120.304,67.667 
	148.234,64.979 148.676,-5.744 "/>
<path fill="none" stroke="#000000" stroke-linecap="round" d="M346.652,30.435c0,0-3.166,8.419-0.891,14.949
	c2.276,6.53,1.979,8.014-0.495,15.227"/>
<path fill="none" stroke="#000000" stroke-linecap="round" d="M141.328,26.019c0,0,2.019,8.389,0,13.787
	c-2.019,5.397-2.917,10.473,0,15.667"/>
<path fill="none" stroke="#000000" stroke-linecap="round" d="M392.1,4.645c0,0-2.985,7.542-0.987,11.086"/>
<path fill="#EFEFEF" d="M185.715,209.601c0,0,4.184,33.283-1.632,51.807c0,0,47.017,29.115,81.835,0c0,0-3.465-35.871-0.693-52.5
	L185.715,209.601z"/>
<g>
	<path d="M221.987,265.734c-26.831,0-48.898-17.897-63.92-51.894c-11.452-25.92-14.874-52.462-14.907-52.727l4.465-0.56
		c0.032,0.259,3.39,26.231,14.596,51.553c14.789,33.417,35.522,49.959,61.583,49.099l0.145,4.498
		C223.294,265.724,222.636,265.734,221.987,265.734z"/>
</g>
<path fill="#254C4B" d="M225.264,132.455c-50.836-0.224-92.496-12.707-92.311-54.724C133.138,35.715,174.107-0.224,224.943,0
	c50.836,0.224,92.289,36.525,92.104,78.542c-0.185,42.017-41.172,54.137-92.008,53.913H225.264z"/>
<g>
	<defs>
		<path id="SVGID_35_" d="M225.264,132.455c-50.836-0.224-92.496-12.707-92.311-54.724C133.138,35.715,174.107-0.224,224.943,0
			c50.836,0.224,92.289,36.525,92.104,78.542c-0.185,42.017-41.172,54.137-92.008,53.913H225.264z"/>
	</defs>
	<clipPath id="SVGID_36_">
		<use xlink:href="#SVGID_35_"  overflow="visible"/>
	</clipPath>
	<ellipse clip-path="url(#SVGID_36_)" fill="#F36569" cx="225.371" cy="85.002" rx="168.112" ry="42.893"/>
</g>
<g>
	<path d="M226.832,265.734c-0.651,0-1.305-0.011-1.961-0.031l0.145-4.498c26.091,0.854,46.83-15.709,61.62-49.183
		c11.188-25.323,14.526-51.209,14.559-51.468l4.465,0.56c-0.033,0.265-3.455,26.807-14.907,52.727
		C275.731,247.835,253.661,265.734,226.832,265.734z"/>
</g>
<path fill="none" stroke="#000000" stroke-linecap="round" d="M388.64,62.094c0,0-2.474,7.857,0.198,14.486
	c1.834,4.55,1.682,9.423-0.198,13.27"/>
<ellipse fill="#254C4B" cx="225" cy="95.428" rx="168.112" ry="42.893"/>
<path fill="#FFFFFF" d="M145.571,83.666c0,0,1.219,67.831,25.362,113.025c10.595,19.832,27.731,42.226,53.121,42.226
	c32.204,0,47.422-19.088,63.879-75.733c16.921-58.242,18.929-73.206,18.929-73.206s-19.199-21.952-71.759-22.298
	C182.542,67.333,147.295,73.852,145.571,83.666z"/>
<path d="M137.655,91.341c0,0-0.087-7.681,13.135-14.007c9.851-4.713,110.32-32.131,157.903,12.53c0,0-1.211,6.357-3.912,8.741
	c-2.702,2.384-8.9-7.438-12.238-12.795c-3.338-5.356-5.722-5.96-10.331-7.072c-4.609-1.113-16.63,0.359-18.061-3.455
	c-1.43-3.814-4.508-2.584-6.733-0.836c-2.225,1.748-5.722,1.112-8.106-1.113c-2.384-2.225-2.904-0.281-5.175,3.419
	c-2.27,3.7-4.674,5.197-7.679,3.7c-3.005-1.497-5.475-8.441-9.882-5.036c-4.407,3.406-4.541,8.347-11.018,11.418
	c-6.477,3.072-9.482-0.734-11.218-1.736s-6.277-2.003-8.347,5.876c-2.07,7.879-12.754,5.075-14.223,0.334
	c-1.469-4.741-4.963-8.15-9.37-8.083C167.994,83.294,144.063,85.383,137.655,91.341z"/>
<path fill="#FFFFFF" d="M359.45,150.887c0,0-6.506-8.319-10.452-14.505c-3.946-6.186-10.879-21.865-16.745-29.224
	c-5.866-7.359-17.385-20.798-39.356-24.744c-21.971-3.946-30.823,1.067-31.037,8.106c-0.213,7.039,5.12,64.207,5.12,64.207
	s-2.56,9.172,17.918,8.639c20.478-0.533,28.371-7.039,41.062,11.092C338.652,192.589,359.45,150.887,359.45,150.887z"/>
<path fill="#FFFFFF" d="M86.694,150.887c0,0,6.506-8.319,10.452-14.505c3.946-6.186,10.879-21.865,16.745-29.224
	c5.866-7.359,17.385-20.798,39.356-24.744c21.971-3.946,30.824,1.067,31.037,8.106c0.213,7.039-5.12,64.207-5.12,64.207
	s2.56,9.172-17.918,8.639c-20.478-0.533-28.37-7.039-41.062,11.092C107.492,192.589,86.694,150.887,86.694,150.887z"/>
<rect x="201.016" y="108.548" width="47.968" height="5.066"/>
<path fill="#254C4B" d="M248.984,113.613v24.708l-12.695-0.079c0.016-0.993,0.008-0.914,0.018-1.647
	c0.087-6.244-5.119-11.693-11.364-11.693c-6.245,0-11.032,5.452-11.25,11.693c-0.021,0.6-0.037,0.717-0.037,1.725h-12.64v-24.708
	H248.984z"/>
<circle fill="#46A391" cx="167.974" cy="123.119" r="36.738"/>
<circle fill="#254C4B" cx="167.974" cy="123.119" r="30.319"/>
<circle fill="#46A391" cx="282.026" cy="123.119" r="36.738"/>
<circle fill="#254C4B" cx="282.026" cy="123.119" r="30.319"/>
<path fill="#36777E" d="M178.258-8.909c0,0,20.828,7.129,31.445,31.721c0,0-16.615,1.068-39.773-25.406L178.258-8.909z"/>
<g>
	<defs>
		<path id="SVGID_37_" d="M178.258-8.909c0,0,20.828,7.129,31.445,31.721c0,0-16.615,1.068-39.773-25.406L178.258-8.909z"/>
	</defs>
	<use xlink:href="#SVGID_37_"  overflow="visible" fill="#2C5E5E"/>
	<clipPath id="SVGID_38_">
		<use xlink:href="#SVGID_37_"  overflow="visible"/>
	</clipPath>
	<path clip-path="url(#SVGID_38_)" fill="#193534" d="M209.703,22.812c0,0-34.101-26.6-38.462-30.602l10.856-5.302l22.661,19.195
		l7.758,14.67"/>
</g>
<path fill="#2C5E5E" d="M152.914-8.617c0,0-6.619,30.076-30.878,49.909c0,0-10.42-17.639,12.556-57.41L152.914-8.617z"/>
<g>
	<defs>
		<path id="SVGID_39_" d="M152.914-8.617c0,0-6.619,30.076-30.878,49.909c0,0-10.42-17.639,12.556-57.41L152.914-8.617z"/>
	</defs>
	<clipPath id="SVGID_40_">
		<use xlink:href="#SVGID_39_"  overflow="visible"/>
	</clipPath>
	<path clip-path="url(#SVGID_40_)" fill="#193534" d="M122.036,41.292c0,0,15.095-41.842,21.828-54.662l11.903,4.999l-16.05,38
		L122.036,41.292z"/>
</g>
<path fill="#36777E" d="M303.426-1.6c0,0-11.033,18.415-31.458,26.155c0,0-2.983-13.966,21.008-35.168L303.426-1.6z"/>
<g>
	<defs>
		<path id="SVGID_41_" d="M303.426-1.6c0,0-11.033,18.415-31.458,26.155c0,0-2.983-13.966,21.008-35.168L303.426-1.6z"/>
	</defs>
	<use xlink:href="#SVGID_41_"  overflow="visible" fill="#193534"/>
	<clipPath id="SVGID_42_">
		<use xlink:href="#SVGID_41_"  overflow="visible"/>
	</clipPath>
	<path clip-path="url(#SVGID_42_)" fill="#254C4B" d="M271.968,24.554c0,0,19.24-24.316,26.529-31.3l6.761,5.939l-19.021,21.565
		L271.968,24.554z"/>
</g>
<g>
	<path fill="#46A391" d="M68.622,193.968c0,0-7.117-28.117-2.992-49.251c4.125-21.134,10.031-38.1,20.71-35.69
		c11.038,2.49,3.608,34.108,2.38,39.377c-1.228,5.269-0.548-0.342-1.228,5.269C86.813,159.285,68.622,193.968,68.622,193.968z"/>
	<g>
		<defs>
			<path id="SVGID_43_" d="M68.622,193.968c0,0-7.117-28.117-2.992-49.251c4.125-21.134,10.031-38.1,20.71-35.69
				c11.038,2.49,3.608,34.108,2.38,39.377c-1.228,5.269-0.548-0.342-1.228,5.269C86.813,159.285,68.622,193.968,68.622,193.968z"/>
		</defs>
		<clipPath id="SVGID_44_">
			<use xlink:href="#SVGID_43_"  overflow="visible"/>
		</clipPath>
		<path clip-path="url(#SVGID_44_)" fill="none" stroke="#000000" stroke-width="0.8602" d="M73.531,190.935
			c0,0-5.093-42.663,12.435-82.929"/>
		
			<line clip-path="url(#SVGID_44_)" fill="none" stroke="#000000" stroke-width="0.8602" stroke-linejoin="round" x1="83.712" y1="113.233" x2="80.77" y2="107.853"/>
		
			<line clip-path="url(#SVGID_44_)" fill="none" stroke="#000000" stroke-width="0.8602" stroke-linejoin="round" x1="83.712" y1="113.233" x2="91.202" y2="110.262"/>
		
			<line clip-path="url(#SVGID_44_)" fill="none" stroke="#000000" stroke-width="0.8602" stroke-linejoin="round" x1="80.509" y1="123.084" x2="74.74" y2="112.887"/>
		
			<line clip-path="url(#SVGID_44_)" fill="none" stroke="#000000" stroke-width="0.8602" stroke-linejoin="round" x1="80.509" y1="123.084" x2="94.791" y2="118.008"/>
		
			<line clip-path="url(#SVGID_44_)" fill="none" stroke="#000000" stroke-width="0.8602" stroke-linejoin="round" x1="77.429" y1="134.316" x2="70.692" y2="119.514"/>
		
			<line clip-path="url(#SVGID_44_)" fill="none" stroke="#000000" stroke-width="0.8602" stroke-linejoin="round" x1="77.429" y1="134.316" x2="94.194" y2="129.642"/>
		
			<line clip-path="url(#SVGID_44_)" fill="none" stroke="#000000" stroke-width="0.8602" stroke-linejoin="round" x1="75.518" y1="144.679" x2="67.889" y2="128.785"/>
		
			<line clip-path="url(#SVGID_44_)" fill="none" stroke="#000000" stroke-width="0.8602" stroke-linejoin="round" x1="75.518" y1="144.679" x2="92.992" y2="141.023"/>
		
			<line clip-path="url(#SVGID_44_)" fill="none" stroke="#000000" stroke-width="0.8602" stroke-linejoin="round" x1="74.02" y1="155.69" x2="64.085" y2="139.752"/>
		
			<line clip-path="url(#SVGID_44_)" fill="none" stroke="#000000" stroke-width="0.8602" stroke-linejoin="round" x1="73.772" y1="155.583" x2="87.699" y2="151.857"/>
		
			<line clip-path="url(#SVGID_44_)" fill="none" stroke="#000000" stroke-width="0.8602" stroke-linejoin="round" x1="73.25" y1="166.413" x2="63.591" y2="151.803"/>
		
			<line clip-path="url(#SVGID_44_)" fill="none" stroke="#000000" stroke-width="0.8602" stroke-linejoin="round" x1="73.25" y1="166.413" x2="82.922" y2="164.392"/>
	</g>
	<path fill="#F36569" d="M-1.16,164.309c0,0-12-20.718-11.957-29.467c0.043-8.749,0.207-23.966,9.84-26.794
		c9.633-2.828,30.672,18.243,38.291,60.069c7.702,42.281,9.731,48.575,8.163,54.762C41.609,229.066-1.16,164.309-1.16,164.309z"/>
	<g>
		<defs>
			<path id="SVGID_45_" d="M-1.16,164.309c0,0-12-20.718-11.957-29.467c0.043-8.749,0.207-23.966,9.84-26.794
				c9.633-2.828,30.672,18.243,38.291,60.069c7.702,42.281,9.731,48.575,8.163,54.762C41.609,229.066-1.16,164.309-1.16,164.309z"/>
		</defs>
		<clipPath id="SVGID_46_">
			<use xlink:href="#SVGID_45_"  overflow="visible"/>
		</clipPath>
		
			<line clip-path="url(#SVGID_46_)" fill="none" stroke="#000000" stroke-width="1.0753" x1="-5.541" y1="104.693" x2="36.627" y2="227.067"/>
		
			<line clip-path="url(#SVGID_46_)" fill="none" stroke="#000000" stroke-width="1.0753" stroke-linecap="round" stroke-linejoin="round" x1="31.756" y1="215.786" x2="41.496" y2="189.317"/>
		
			<line clip-path="url(#SVGID_46_)" fill="none" stroke="#000000" stroke-width="1.0753" stroke-linecap="round" stroke-linejoin="round" x1="25.369" y1="193.676" x2="35.636" y2="160.379"/>
		
			<line clip-path="url(#SVGID_46_)" fill="none" stroke="#000000" stroke-width="1.0753" stroke-linecap="round" stroke-linejoin="round" x1="17.221" y1="170.426" x2="-8.898" y2="155.87"/>
		
			<line clip-path="url(#SVGID_46_)" fill="none" stroke="#000000" stroke-width="1.0753" stroke-linecap="round" stroke-linejoin="round" x1="17.221" y1="170.426" x2="30.376" y2="137.054"/>
		
			<line clip-path="url(#SVGID_46_)" fill="none" stroke="#000000" stroke-width="1.0753" stroke-linecap="round" stroke-linejoin="round" x1="10.326" y1="149.875" x2="-15.549" y2="139.882"/>
		
			<line clip-path="url(#SVGID_46_)" fill="none" stroke="#000000" stroke-width="1.0753" stroke-linecap="round" stroke-linejoin="round" x1="10.327" y1="149.875" x2="29.59" y2="120.915"/>
		
			<line clip-path="url(#SVGID_46_)" fill="none" stroke="#000000" stroke-width="1.0753" stroke-linecap="round" stroke-linejoin="round" x1="2.105" y1="127.712" x2="-16.296" y2="118.01"/>
		
			<line clip-path="url(#SVGID_46_)" fill="none" stroke="#000000" stroke-width="1.0753" stroke-linecap="round" stroke-linejoin="round" x1="2.442" y1="127.496" x2="19.144" y2="106.904"/>
		
			<line clip-path="url(#SVGID_46_)" fill="none" stroke="#000000" stroke-width="1.0753" stroke-linecap="round" stroke-linejoin="round" x1="25.369" y1="193.676" x2="-7.87" y2="177.391"/>
	</g>
	<path fill="#77BB68" d="M36.047,201.478c0,0-12.497-17.959-11.065-27.303c1.431-9.344,6.036-17.302,3.482-25.253
		c-2.554-7.951-7.52-16.753-9.486-28.188c-2.21-12.858-2.985-12.977-1.766-25.341c1.409-14.295,5.288-27.86,16.015-29.272
		c10.831-1.426,7.925,25.902,18.893,39.028c6.663,7.974,14.263,17.281,12.981,30.566c-1.417,14.689,0.277,17.553,5.473,26.683
		c7.449,13.089-10.434,45.777-10.434,45.777l-10.943,3.479L36.047,201.478z"/>
	<g>
		<defs>
			<path id="SVGID_47_" d="M36.047,201.478c0,0-12.497-17.959-11.065-27.303c1.431-9.344,6.036-17.302,3.482-25.253
				c-2.554-7.951-7.52-16.753-9.486-28.188c-2.21-12.858-2.985-12.977-1.766-25.341c1.409-14.295,5.288-27.86,16.015-29.272
				c10.831-1.426,7.925,25.902,18.893,39.028c6.663,7.974,14.263,17.281,12.981,30.566c-1.417,14.689,0.277,17.553,5.473,26.683
				c7.449,13.089-10.434,45.777-10.434,45.777l-10.943,3.479L36.047,201.478z"/>
		</defs>
		<clipPath id="SVGID_48_">
			<use xlink:href="#SVGID_47_"  overflow="visible"/>
		</clipPath>
		<path clip-path="url(#SVGID_48_)" fill="none" stroke="#000000" stroke-width="1.0753" d="M51.565,209.079
			c0,0-2.9-31.8-6.804-46.178c-3.904-14.378-8.409-37.996-9.539-48.854c-1.249-11.998-4.909-41.701-4.801-49.594"/>
		
			<line clip-path="url(#SVGID_48_)" fill="none" stroke="#000000" stroke-width="1.0753" stroke-linejoin="round" x1="50.722" y1="200.443" x2="29.163" y2="192.97"/>
		
			<line clip-path="url(#SVGID_48_)" fill="none" stroke="#000000" stroke-width="1.0753" stroke-linejoin="round" x1="50.722" y1="200.443" x2="85.442" y2="174.835"/>
		
			<line clip-path="url(#SVGID_48_)" fill="none" stroke="#000000" stroke-width="1.0753" stroke-linejoin="round" x1="49.696" y1="192.1" x2="22.896" y2="177.809"/>
		
			<line clip-path="url(#SVGID_48_)" fill="none" stroke="#000000" stroke-width="1.0753" stroke-linejoin="round" x1="49.696" y1="192.1" x2="81.505" y2="165.361"/>
		
			<line clip-path="url(#SVGID_48_)" fill="none" stroke="#000000" stroke-width="1.0753" stroke-linejoin="round" x1="24.539" y1="167.294" x2="48.11" y2="181.24"/>
		
			<line clip-path="url(#SVGID_48_)" fill="none" stroke="#000000" stroke-width="1.0753" stroke-linejoin="round" x1="48.11" y1="181.239" x2="70.274" y2="160.901"/>
		
			<line clip-path="url(#SVGID_48_)" fill="none" stroke="#000000" stroke-width="1.0753" stroke-linejoin="round" x1="46.301" y1="167.938" x2="26.392" y2="154.872"/>
		
			<line clip-path="url(#SVGID_48_)" fill="none" stroke="#000000" stroke-width="1.0753" stroke-linejoin="round" x1="46.301" y1="167.938" x2="69.775" y2="138.861"/>
		
			<line clip-path="url(#SVGID_48_)" fill="none" stroke="#000000" stroke-width="1.0753" stroke-linejoin="round" x1="41.103" y1="147.865" x2="22.025" y2="138.315"/>
		
			<line clip-path="url(#SVGID_48_)" fill="none" stroke="#000000" stroke-width="1.0753" stroke-linejoin="round" x1="43.006" y1="155.918" x2="68.675" y2="124.284"/>
		
			<line clip-path="url(#SVGID_48_)" fill="none" stroke="#000000" stroke-width="1.0753" stroke-linejoin="round" x1="38.382" y1="135.612" x2="16.022" y2="123.952"/>
		
			<line clip-path="url(#SVGID_48_)" fill="none" stroke="#000000" stroke-width="1.0753" stroke-linejoin="round" x1="39.952" y1="142.056" x2="61.965" y2="111.954"/>
		
			<line clip-path="url(#SVGID_48_)" fill="none" stroke="#000000" stroke-width="1.0753" stroke-linejoin="round" x1="36.104" y1="122.074" x2="14.544" y2="109.706"/>
		
			<line clip-path="url(#SVGID_48_)" fill="none" stroke="#000000" stroke-width="1.0753" stroke-linejoin="round" x1="37.762" y1="129.719" x2="57.472" y2="101.238"/>
		
			<line clip-path="url(#SVGID_48_)" fill="none" stroke="#000000" stroke-width="1.0753" stroke-linejoin="round" x1="35.12" y1="111.707" x2="14.245" y2="97.715"/>
		
			<line clip-path="url(#SVGID_48_)" fill="none" stroke="#000000" stroke-width="1.0753" stroke-linejoin="round" x1="35.222" y1="114.047" x2="54.836" y2="93.535"/>
		
			<line clip-path="url(#SVGID_48_)" fill="none" stroke="#000000" stroke-width="1.0753" stroke-linejoin="round" x1="33.973" y1="102.049" x2="12.171" y2="85.943"/>
		
			<line clip-path="url(#SVGID_48_)" fill="none" stroke="#000000" stroke-width="1.0753" stroke-linejoin="round" x1="34.221" y1="106.2" x2="51.016" y2="87.918"/>
		
			<line clip-path="url(#SVGID_48_)" fill="none" stroke="#000000" stroke-width="1.0753" stroke-linejoin="round" x1="32.863" y1="91.386" x2="15.587" y2="80.603"/>
		
			<line clip-path="url(#SVGID_48_)" fill="none" stroke="#000000" stroke-width="1.0753" stroke-linejoin="round" x1="32.863" y1="91.386" x2="48.408" y2="77.504"/>
		
			<line clip-path="url(#SVGID_48_)" fill="none" stroke="#000000" stroke-width="1.0753" stroke-linejoin="round" x1="31.722" y1="81.686" x2="19.78" y2="71.116"/>
		
			<line clip-path="url(#SVGID_48_)" fill="none" stroke="#000000" stroke-width="1.0753" stroke-linejoin="round" x1="31.523" y1="81.904" x2="46.269" y2="68.627"/>
		
			<line clip-path="url(#SVGID_48_)" fill="none" stroke="#000000" stroke-width="1.0753" stroke-linejoin="round" x1="31.092" y1="71.723" x2="23.902" y2="65.118"/>
		
			<line clip-path="url(#SVGID_48_)" fill="none" stroke="#000000" stroke-width="1.0753" stroke-linejoin="round" x1="30.917" y1="71.562" x2="38.714" y2="65.775"/>
	</g>
</g>
<g>
	<path fill="#2C5E5E" d="M20.731,232.818c0,0-29.941-29.324-35.341-71.621c0,0,27.871,0.69,57.207,55.884L20.731,232.818z"/>
	<g>
		<defs>
			<path id="SVGID_49_" d="M20.731,232.818c0,0-29.941-29.324-35.341-71.621c0,0,27.871,0.69,57.207,55.884L20.731,232.818z"/>
		</defs>
		<clipPath id="SVGID_50_">
			<use xlink:href="#SVGID_49_"  overflow="visible"/>
		</clipPath>
		<path clip-path="url(#SVGID_50_)" fill="#193534" d="M-14.61,161.197c0,0,37.409,47.589,47.351,64.604l-14.351,10.134
			l-32.286-45.922L-14.61,161.197z"/>
	</g>
</g>
<g>
	<path fill="#2C5E5E" d="M26.73,252.985c0,0-23.592-11.355-35.261-35.303c0,0,16.631-5.175,45.048,21.61L26.73,252.985z"/>
	<g>
		<defs>
			<path id="SVGID_51_" d="M26.73,252.985c0,0-23.592-11.355-35.261-35.303c0,0,16.631-5.175,45.048,21.61L26.73,252.985z"/>
		</defs>
		<clipPath id="SVGID_52_">
			<use xlink:href="#SVGID_51_"  overflow="visible"/>
		</clipPath>
		<path clip-path="url(#SVGID_52_)" fill="#193534" d="M-8.531,217.682c0,0,31.671,20.667,40.963,28.745l-6.462,8.872
			l-28.305-20.707L-8.531,217.682z"/>
	</g>
</g>
<polygon fill="#254C4B" points="0,254.103 81.138,136.89 139.461,180.271 76.026,293 0,293 "/>
<polygon fill="#FFFFFF" points="77.493,251.74 55.795,256.907 70.481,250.855 49.153,245.467 70.703,247.976 58.525,225.245 
	73.212,246.058 69.301,218.013 77.271,245.762 84.652,219.489 81.773,244.803 97.862,238.604 "/>
<polygon fill="#FFFFFF" points="113.56,258.715 95.121,254.246 106.192,253.582 96.819,237.714 109.291,250.556 109.365,231.146 
	113.56,250.249 124.716,229.375 120.304,251.567 131.023,240.076 123.83,256.017 135.639,260.519 "/>
<path fill="none" stroke="#000000" stroke-width="1.5" stroke-linecap="round" d="M114.246,254.471c0,0-4.945,15.425,2.952,22.731"
	/>
<path fill="none" stroke="#000000" stroke-width="1.5" stroke-linecap="round" d="M75.352,247.017c0,0,3.912,12.473,15.794,15.72
	c11.882,3.247,17.417,7.306,21.403,17.196"/>
<path fill="#EFEFEF" d="M285.1,44.568c0,0,21.466-24.802,58.017-29.734c36.551-4.931,32.489-3.046,32.489-3.046l4.061,7.672
	l4.206-7.841c0,0,24.367-0.308,34.955,6.406c0,0-17.405,28.428-57.872,33.505C320.49,56.606,285.245,44.568,285.1,44.568z"/>
<g>
	<defs>
		<path id="SVGID_53_" d="M285.1,44.568c0,0,21.466-24.802,58.017-29.734c36.551-4.931,32.489-3.046,32.489-3.046l4.061,7.672
			l4.206-7.841c0,0,24.367-0.308,34.955,6.406c0,0-17.405,28.428-57.872,33.505C320.49,56.606,285.245,44.568,285.1,44.568z"/>
	</defs>
	<clipPath id="SVGID_54_">
		<use xlink:href="#SVGID_53_"  overflow="visible"/>
	</clipPath>
	<path clip-path="url(#SVGID_54_)" d="M393.05,8.095c0,0-12.602,20.71,8.714,33.383l25.069-20.915l-0.67-5.63L393.05,8.095z"/>
	<path clip-path="url(#SVGID_54_)" fill="none" stroke="#000000" stroke-width="0.5" d="M285.1,44.568
		c0,0,119.692-19.774,133.729-25.107"/>
</g>
<path fill="none" stroke="#000000" stroke-linecap="round" d="M57.489,19.276c0,0,5.122,5.279,2.748,12.291
	c-1.812,5.352-8.556,8.849-5.953,15.623c2.603,6.774,3.578,9.921,2.603,14.904"/>
<path fill="none" stroke="#000000" stroke-linecap="round" d="M44.049,41.292c0,0-2.252,5.079,1.533,8.528"/>
<path fill="none" stroke="#000000" stroke-linecap="round" d="M49.153,58.405c0,0,2.593,2.665,1.874,9.262
	s-1.629,9.161,0.671,12.155"/>
<polygon fill="#FFFFFF" points="101.525,204.891 77.219,203.408 93.828,201.505 78.955,190.57 94.88,198.654 88.523,176.049 
	97.972,197.433 101.034,170.236 102.166,198.302 114.953,177.949 107,198.625 119.679,197.328 "/>
<path fill="none" stroke="#000000" stroke-linecap="round" d="M56.153,81.978c0,0-1.677,6.509,0.096,9.363"/>
<path fill="none" stroke="#000000" stroke-linecap="round" d="M131.237,39.066c0,0-3.893,5.599-1.946,9.534"/>
<path fill="none" stroke="#000000" d="M409.626,202.312c0,0,6.566-16.87,4.827-27.594"/>
<polygon fill="#254C4B" points="365.006,136.89 306.683,180.271 358.387,276.095 358.387,276.095 367.509,293 370.134,293 450,293 
	450,293 450,255.944 "/>
<g>
	<path fill="#6DD1BD" d="M421.003,210.311c-0.12,0.488-5.317-3.413-2.85-9.807C418.154,200.504,422.558,203.99,421.003,210.311z"/>
	<path fill="#6DD1BD" d="M427.076,219.143c-0.022,0.502-5.884-2.303-4.719-9.057C422.357,210.086,427.36,212.64,427.076,219.143z"/>
	<path fill="#6DD1BD" d="M426.594,210.075c-0.392,0.313-2.129-5.949,3.729-9.508C430.323,200.567,431.684,206.017,426.594,210.075z"
		/>
	<path fill="#6DD1BD" d="M431.307,212.152c-0.498,0.061,1.298-6.184,8.151-6.153C439.458,205.999,437.767,211.356,431.307,212.152z"
		/>
	<path fill="#6DD1BD" d="M426.926,221.456c-0.408,0.292-1.82-6.051,4.213-9.303C431.138,212.152,432.217,217.664,426.926,221.456z"
		/>
	<path fill="#6DD1BD" d="M432.476,217.181c-0.407-0.294,5.162-3.643,10.159,1.048C442.634,218.229,437.748,220.999,432.476,217.181z
		"/>
	<path fill="#6DD1BD" d="M425.56,229.162c-0.455,0.213-0.679-6.282,5.848-8.373C431.408,220.789,431.458,226.406,425.56,229.162z"/>
	<path fill="#6DD1BD" d="M434.309,223.911c-0.491,0.103,0.777-6.271,7.61-6.811C441.918,217.1,440.68,222.579,434.309,223.911z"/>
	<path fill="#6DD1BD" d="M435.976,233.953c-0.168,0.473-4.953-3.923-1.865-10.041C434.112,223.912,438.149,227.817,435.976,233.953z
		"/>
	<path fill="#6DD1BD" d="M440.389,226.688c-0.491,0.103,0.777-6.271,7.61-6.811C447.999,219.877,446.761,225.356,440.389,226.688z"
		/>
	<path fill="#6DD1BD" d="M442.068,236.687c-0.157,0.477-5.038-3.813-2.084-9.998C439.984,226.69,444.106,230.505,442.068,236.687z"
		/>
	<path fill="#6DD1BD" d="M446.225,230.117c-0.5-0.042,2.533-5.788,9.236-4.358C455.461,225.759,452.712,230.657,446.225,230.117z"/>
	<path fill="#6DD1BD" d="M440.287,239.459c-0.483,0.137,0.336-6.31,7.114-7.327C447.401,232.132,446.549,237.684,440.287,239.459z"
		/>
	<path fill="#6DD1BD" d="M447.426,235.321c-0.433-0.255,4.794-4.116,10.212,0.081C457.638,235.401,453.036,238.622,447.426,235.321z
		"/>
</g>
<g>
	<path fill="#F36569" d="M364.738,265.362c0,0,17.589-0.694,23.666-11.143c6.077-10.449,6.94-15.523,8.463-22.184
		c3.259-14.256,10.499-22.354,19.643-23.81c9.144-1.457-2.182,4.451-2.182,15.118s4.113,25.347-2.111,37.249
		c-6.224,11.903-20.134,22.948-29.394,18.223c-9.26-4.725-18.607-7.536-27.358-2.589
		C346.713,281.172,364.738,265.362,364.738,265.362z"/>
	<g>
		<defs>
			<path id="SVGID_55_" d="M364.738,265.362c0,0,17.589-0.694,23.666-11.143c6.077-10.449,6.94-15.523,8.463-22.184
				c3.259-14.256,10.499-22.354,19.643-23.81c9.144-1.457-2.182,4.451-2.182,15.118s4.113,25.347-2.111,37.249
				c-6.224,11.903-20.134,22.948-29.394,18.223c-9.26-4.725-18.607-7.536-27.358-2.589
				C346.713,281.172,364.738,265.362,364.738,265.362z"/>
		</defs>
		<clipPath id="SVGID_56_">
			<use xlink:href="#SVGID_55_"  overflow="visible"/>
		</clipPath>
		<path clip-path="url(#SVGID_56_)" fill="none" stroke="#000000" d="M421.764,204.189c0,0-13.448,13.255-15.713,25.606
			c-2.018,10.999,1.555,22.988-10.131,33.437c-8.265,7.391-27.059,5.673-42.853,15.583"/>
	</g>
	<path fill="#46A391" d="M337.832,276.225c0,0-7.967-5.025-6.269-12.993c1.698-7.968,7.979-12.689,6.531-22.439
		s-9.922-18.133-9.008-32.787c0.914-14.655,6.23-29.486,11.228-32.415c2.743-1.607-1.023,7.3,6.269,21.367
		c7.293,14.067,14.89,18.731,8.751,40.282C349.195,258.79,337.832,276.225,337.832,276.225z"/>
	<g>
		<defs>
			<path id="SVGID_57_" d="M337.832,276.225c0,0-7.967-5.025-6.269-12.993c1.698-7.968,7.979-12.689,6.531-22.439
				s-9.922-18.133-9.008-32.787c0.914-14.655,6.23-29.486,11.228-32.415c2.743-1.607-1.023,7.3,6.269,21.367
				c7.293,14.067,14.89,18.731,8.751,40.282C349.195,258.79,337.832,276.225,337.832,276.225z"/>
		</defs>
		<clipPath id="SVGID_58_">
			<use xlink:href="#SVGID_57_"  overflow="visible"/>
		</clipPath>
		<path clip-path="url(#SVGID_58_)" fill="none" stroke="#000000" d="M343.056,171.672c0,0-6.412,6.024-6.412,26.906
			c0,12.324,11.636,19.377,11.114,33.457c-0.288,7.751-12.539,27.704-8.62,42.054"/>
	</g>
	<path fill="#36777E" d="M336.645,276.225c0,0,7.249-5.81,7.383-17.564c0.134-11.754,5.327-19.915,13.402-27.617
		c8.075-7.702,10.684-13.886,10.684-19.081s4.448-27.531,17.463-33.07c13.015-5.538,1.429,9.085,5.886,25.041
		c4.457,15.956,1.943,24.84-3.349,31.931c-5.292,7.091-12.846,11.386-14.551,22.796C371.857,270.07,360.276,279.573,336.645,276.225
		z"/>
	<g>
		<defs>
			<path id="SVGID_59_" d="M336.645,276.225c0,0,7.249-5.81,7.383-17.564c0.134-11.754,5.327-19.915,13.402-27.617
				c8.075-7.702,10.684-13.886,10.684-19.081s4.448-27.531,17.463-33.07c13.015-5.538,1.429,9.085,5.886,25.041
				c4.457,15.956,1.943,24.84-3.349,31.931c-5.292,7.091-12.846,11.386-14.551,22.796
				C371.857,270.07,360.276,279.573,336.645,276.225z"/>
		</defs>
		<clipPath id="SVGID_60_">
			<use xlink:href="#SVGID_59_"  overflow="visible"/>
		</clipPath>
		<path clip-path="url(#SVGID_60_)" fill="none" stroke="#000000" d="M393.762,176.402c0,0-13.308,8.777-13.308,24.226
			c0,15.449,3.15,19.265-2.723,27.938s-18.206,9.718-20.301,25.13c-2.095,15.412-7.842,20.214-16.985,25.118"/>
	</g>
</g>
<g>
	<path fill="#2C5E5E" d="M358.387,276.095c-26.996-4.104-91.336-15.618-92.469-14.686c-35.44,29.128-81.835,0-81.835,0
		c-31.981,4.036-90.546,18.471-102.331,21.416L76.026,293h291.483L358.387,276.095z"/>
</g>
<g>
	<defs>
		<path id="SVGID_61_" d="M265.918,261.409c1.225-1.007,76.339,12.534,98.256,15.529L370.134,293H74.046l5.599-9.646
			c0,0,68.764-17.444,104.438-21.946C184.083,261.409,230.477,290.537,265.918,261.409z"/>
	</defs>
	<clipPath id="SVGID_62_">
		<use xlink:href="#SVGID_61_"  overflow="visible"/>
	</clipPath>
	<polygon clip-path="url(#SVGID_62_)" fill="#46A391" points="184.975,259.537 139.614,267.03 206.698,311.676 224.943,274.348 	"/>
	<polygon clip-path="url(#SVGID_62_)" fill="#46A391" points="266.599,260.171 310.272,267.03 243.188,311.676 224.943,274.348 	"/>
</g>
<g>
	<polygon points="236.005,307.736 233.691,297.322 222.888,273.13 226.998,271.296 237.986,295.902 240.398,306.76 	"/>
</g>
<g>
	<rect x="218.076" y="271.452" transform="matrix(0.9472 0.3208 -0.3208 0.9472 103.3361 -55.5706)" width="4.5" height="28.778"/>
</g>
<path fill="#F36569" d="M224.943,277.861c-3.942,0-7.081-12.156-7.081-16.098s3.139-2.932,7.081-2.932
	c3.942,0,7.195-1.01,7.195,2.932S228.885,277.861,224.943,277.861z"/>
<ellipse fill="#FFFFFF" cx="78.258" cy="27.471" rx="1.57" ry="1.48"/>
<ellipse fill="#FFFFFF" cx="100.148" cy="42.015" rx="0.669" ry="0.723"/>
<ellipse fill="#FFFFFF" cx="15.241" cy="38.784" rx="0.741" ry="0.766"/>
<circle fill="#FFFFFF" cx="9.288" cy="84.777" r="0.9"/>
<ellipse fill="#FFFFFF" cx="13.277" cy="90.596" rx="0.716" ry="0.745"/>
<path fill="#36777E" d="M327.349-11.471c0,0,27.277-5.164,52.402,17.45c0,0-18.143,12.257-58.402-4.344L327.349-11.471z"/>
<g>
	<defs>
		<path id="SVGID_63_" d="M327.349-11.471c0,0,27.277-5.164,52.402,17.45c0,0-18.143,12.257-58.402-4.344L327.349-11.471z"/>
	</defs>
	<use xlink:href="#SVGID_63_"  overflow="visible" fill="#193534"/>
	<clipPath id="SVGID_64_">
		<use xlink:href="#SVGID_63_"  overflow="visible"/>
	</clipPath>
	<path clip-path="url(#SVGID_64_)" fill="#254C4B" d="M379.751,5.979c0,0-52.652-9.527-59.707-11.469l9.39-13.554l35.802,8.161
		l16.593,12.55"/>
</g>
<path fill="none" stroke="#000000" stroke-linecap="round" d="M384.188,118.522c0,0-3.166,8.419-0.891,14.949
	c2.276,6.53,1.979,8.014-0.495,15.227"/>
<path fill="none" stroke="#000000" stroke-linecap="round" d="M394.568,155.436c0,0-2.441,5.541,0,8.311"/>
<path fill="none" stroke="#000000" stroke-linecap="round" d="M397.062,22.818c0,0,5.642,12.174,2.7,18.474
	c-2.162,4.631-3.254,9.93-1.723,13.521"/>
<path fill="none" stroke="#000000" stroke-linecap="round" d="M398.336,98.972c0,0,1.472,6.651-0.396,11.717"/>
<g>
	<path fill="#6DD1BD" d="M429.625,35.675c-0.362,0.486-3.481-7.009,2.135-12.857C431.761,22.818,434.314,29.375,429.625,35.675z"/>
	<path fill="#6DD1BD" d="M429.582,36.102c-0.174-0.58,7.702,1.386,9.047,9.382C438.629,45.484,431.843,43.623,429.582,36.102z"/>
	<path fill="#6DD1BD" d="M442.843,34.832c0.036,0.605-7.177-3.119-6.647-11.211C436.196,23.621,442.372,26.992,442.843,34.832z"/>
	<path fill="#6DD1BD" d="M445.304,25.27c0.036,0.605-7.177-3.119-6.647-11.211C438.657,14.059,444.832,17.43,445.304,25.27z"/>
	<path fill="#6DD1BD" d="M447.354,16.609c-0.209,0.568-5.325-5.734-1.597-12.935C445.757,3.674,450.064,9.238,447.354,16.609z"/>
	<path fill="#6DD1BD" d="M442.859,35.004c-0.413-0.443,7.52-2.165,12.264,4.411C455.123,39.415,448.214,40.748,442.859,35.004z"/>
	<path fill="#6DD1BD" d="M445.344,25.465c-0.584-0.16,5.266-5.788,12.755-2.678C458.099,22.787,452.917,27.546,445.344,25.465z"/>
	<path fill="#6DD1BD" d="M447.584,16.747c-0.412-0.444,7.523-2.154,12.258,4.429C459.841,21.176,452.931,22.499,447.584,16.747z"/>
	<path fill="#6DD1BD" d="M423.784,37.236c0.033,0.605-7.161-3.156-6.589-11.245C417.195,25.992,423.353,29.395,423.784,37.236z"/>
	<path fill="#6DD1BD" d="M419.072,40.723c0.261,0.335-5.482,0.779-8.38-4.064C410.692,36.659,415.682,36.384,419.072,40.723z"/>
	<path fill="#6DD1BD" d="M423.786,37.356c0.008-0.606,6.927,3.64,5.803,11.67C429.589,49.026,423.678,45.209,423.786,37.356z"/>
	<path fill="#6DD1BD" d="M427.809,42.008c0.396,0.154-4.31,3.477-9.279,0.802C418.53,42.81,422.676,40.018,427.809,42.008z"/>
</g>
<g>
	<path fill="#6DD1BD" d="M408.091,79.161c-0.4-0.303,5.238-3.533,10.134,1.263C418.226,80.424,413.282,83.089,408.091,79.161z"/>
	<path fill="#6DD1BD" d="M418.578,80.249c-0.497-0.072,2.881-5.623,9.484-3.787C428.063,76.462,425.02,81.183,418.578,80.249z"/>
	<path fill="#6DD1BD" d="M412.369,90.923c-0.493,0.096,0.868-6.259,7.707-6.701C420.076,84.222,418.759,89.682,412.369,90.923z"/>
	<path fill="#6DD1BD" d="M422.941,85.184c-0.493,0.096,0.868-6.259,7.707-6.701C430.648,78.483,429.331,83.943,422.941,85.184z"/>
	<path fill="#6DD1BD" d="M422.651,95.394c-0.263,0.427-4.019-4.876,0.286-10.209C422.937,85.185,426.064,89.851,422.651,95.394z"/>
	<path fill="#6DD1BD" d="M431.481,94.431c-0.263,0.427-4.019-4.876,0.286-10.209C431.767,84.222,434.894,88.888,431.481,94.431z"/>
	<path fill="#6DD1BD" d="M431.839,84.202c-0.409,0.291-1.801-6.057,4.243-9.29C436.082,74.912,437.143,80.428,431.839,84.202z"/>
	<path fill="#6DD1BD" d="M437.886,85.558c-0.472,0.171-0.11-6.318,6.58-7.811C444.466,77.747,444.008,83.345,437.886,85.558z"/>
	<path fill="#6DD1BD" d="M434.273,95.362c-0.389,0.317-2.188-5.927,3.633-9.545C437.906,85.818,439.322,91.253,434.273,95.362z"/>
	<path fill="#6DD1BD" d="M440.025,92.201c-0.499-0.055,2.69-5.717,9.351-4.105C449.376,88.095,446.495,92.917,440.025,92.201z"/>
	<path fill="#6DD1BD" d="M430.623,99.812c-0.499-0.055,2.69-5.717,9.351-4.105C439.974,95.707,437.093,100.528,430.623,99.812z"/>
	<path fill="#6DD1BD" d="M439.877,97.208c-0.398-0.306,5.268-3.49,10.124,1.347C450,98.555,445.034,101.179,439.877,97.208z"/>
	<path fill="#6DD1BD" d="M433.835,109.795c-0.468,0.181-0.254-6.313,6.4-7.959C440.235,101.836,439.905,107.443,433.835,109.795z"/>
	<path fill="#6DD1BD" d="M441.944,103.755c-0.435-0.25,4.747-4.169,10.213-0.033C452.157,103.722,447.591,106.993,441.944,103.755z"
		/>
	<path fill="#6DD1BD" d="M437.438,113.057c-0.501,0.039,1.576-6.119,8.421-5.777C445.859,107.279,443.928,112.553,437.438,113.057z"
		/>
	<path fill="#6DD1BD" d="M447.594,110.064c-0.436-0.25,4.747-4.169,10.213-0.033C457.806,110.031,453.241,113.303,447.594,110.064z"
		/>
	<path fill="#6DD1BD" d="M439.651,120.012c-0.505,0.03,1.414-6.153,8.348-5.676C447.999,114.336,446.201,119.629,439.651,120.012z"
		/>
</g>
<g>
	<path fill="none" d="M446.219,120.483c1.976-5.107,1.456-8.919-0.115-11.74l-0.059,12.176
		C446.104,120.773,446.16,120.637,446.219,120.483z"/>
	<path fill="none" d="M418.851,80.059c-0.172,1.13,0.234,2.309,1.207,3.502c0.017,0.021,0.041,0.032,0.059,0.053l-0.003-5.903
		C419.606,78.234,419.007,79.037,418.851,80.059z"/>
	<path d="M446.112,106.957l-0.009,1.787c1.571,2.82,2.092,6.633,0.115,11.74c-0.059,0.153-0.116,0.289-0.174,0.437l-0.013,2.612
		c0.366-0.812,0.739-1.708,1.118-2.688C449.622,114.462,448.317,109.976,446.112,106.957z"/>
	<path d="M420.058,83.561c-0.973-1.193-1.379-2.372-1.207-3.502c0.156-1.022,0.754-1.824,1.263-2.348l-0.001-1.345
		c-0.538,0.41-1.957,1.646-2.249,3.533c-0.22,1.425,0.258,2.87,1.419,4.294c0.245,0.301,0.527,0.545,0.835,0.749l-0.001-1.328
		C420.099,83.594,420.075,83.582,420.058,83.561z"/>
	<path d="M428.306,85.24c3.652-0.57,7.429-1.16,9.592,0.807c2.101,1.911,1.793,5.46,1.495,8.893
		c-0.312,3.603-0.636,7.329,2.02,9.021c1.754,1.117,3.516,2.674,4.691,4.784l0.009-1.787c-1.271-1.741-2.841-2.998-4.163-3.84
		c-2.144-1.365-1.86-4.632-1.561-8.09c0.319-3.675,0.648-7.475-1.817-9.719c-2.519-2.289-6.533-1.663-10.421-1.055
		c-3.395,0.53-6.594,1.023-8.034-0.638l0.001,1.328C422.039,86.216,425.093,85.742,428.306,85.24z"/>
	<path d="M420.879,77.042l-0.55-0.835c-0.015,0.01-0.103,0.073-0.216,0.159l0.001,1.345
		C420.521,77.292,420.872,77.048,420.879,77.042z"/>
</g>
<g>
	<path fill="none" d="M420.098,45.873l-0.003-5.153c-0.301,0.424-0.519,0.873-0.641,1.349
		C419.099,43.451,419.556,44.836,420.098,45.873z"/>
	<path d="M452.178,15.303l-0.043-0.999c-2.836,0.123-4.539,1.268-5.592,2.944l-0.012,2.492
		C447.29,17.251,448.833,15.448,452.178,15.303z"/>
	<path d="M419.455,42.069c0.122-0.476,0.34-0.925,0.641-1.349l-0.001-1.492c-0.812,0.766-1.361,1.627-1.609,2.591
		c-0.647,2.517,0.848,4.911,1.613,5.926l-0.001-1.873C419.556,44.836,419.099,43.451,419.455,42.069z"/>
	<path d="M444.712,26.205c-0.152,2.952-0.296,5.741-1.438,7.256c-1.51,2.003-3.642,1.948-6.881,1.864
		c-3.12-0.083-7.005-0.182-11.994,1.513c-1.866,0.634-3.293,1.437-4.303,2.39l0.001,1.492c0.847-1.192,2.391-2.177,4.625-2.935
		c4.821-1.637,8.604-1.537,11.646-1.46c3.288,0.083,5.886,0.152,7.705-2.262c1.326-1.76,1.478-4.697,1.638-7.806
		c0.118-2.286,0.239-4.604,0.822-6.517l0.012-2.492C445.062,19.607,444.875,23.026,444.712,26.205z"/>
</g>
<g>
	<path fill="#6DD1BD" d="M408.104,161.126c-0.395-0.31,5.303-3.436,10.109,1.45C418.213,162.576,413.22,165.15,408.104,161.126z"/>
	<path fill="#6DD1BD" d="M410.821,173.075c-0.493,0.096,0.87-6.258,7.709-6.698C418.53,166.377,417.212,171.837,410.821,173.075z"/>
	<path fill="#6DD1BD" d="M421.439,167.741c-0.356,0.354-2.759-5.685,2.681-9.855C424.119,157.887,426.06,163.157,421.439,167.741z"
		/>
	<path fill="#6DD1BD" d="M425.258,176.97c-0.079,0.496-5.584-2.956-3.66-9.534C421.598,167.435,426.278,170.54,425.258,176.97z"/>
	<path fill="#6DD1BD" d="M433.681,172.986c0.093,0.493-6.254-0.904-6.656-7.746C427.025,165.241,432.477,166.589,433.681,172.986z"
		/>
	<path fill="#6DD1BD" d="M427.031,165.228c-0.381,0.327-2.342-5.869,3.384-9.636C430.415,155.592,431.972,160.989,427.031,165.228z"
		/>
	<path fill="#6DD1BD" d="M433.101,159.829c-0.237,0.443-4.305-4.625-0.329-10.207C432.771,149.622,436.174,154.091,433.101,159.829z
		"/>
	<path fill="#6DD1BD" d="M438.732,168.376c0.03,0.501-6.091-1.681-5.632-8.519C433.1,159.857,438.34,161.878,438.732,168.376z"/>
	<path fill="#6DD1BD" d="M439.459,156.583c-0.371,0.339-2.522-5.794,3.085-9.736C442.543,146.848,444.266,152.194,439.459,156.583z"
		/>
	<path fill="#6DD1BD" d="M437.394,166.63c-0.329,0.379-3.169-5.467,1.949-10.025C439.343,156.605,441.667,161.718,437.394,166.63z"
		/>
	<path fill="#6DD1BD" d="M443.86,160.378c-0.499-0.054,2.679-5.722,9.344-4.122C453.203,156.256,450.331,161.083,443.86,160.378z"/>
	<path fill="#6DD1BD" d="M441.697,165.373c-0.161-0.475,6.318,0.016,7.678,6.734C449.376,172.107,443.788,171.538,441.697,165.373z"
		/>
	<path fill="#6DD1BD" d="M431.088,176.626c-0.5-0.046,2.588-5.764,9.277-4.271C440.365,172.356,437.57,177.228,431.088,176.626z"/>
	<path fill="#6DD1BD" d="M440.378,172.779c-0.333-0.376,5.831-2.433,9.687,3.233C450.065,176.012,444.694,177.652,440.378,172.779z"
		/>
	<path fill="#6DD1BD" d="M431.757,185.281c-0.496,0.076,1.118-6.219,7.97-6.386C439.727,178.894,438.192,184.297,431.757,185.281z"
		/>
	<path fill="#6DD1BD" d="M439.587,179.205c-0.327-0.381,5.87-2.338,9.634,3.39C449.221,182.595,443.823,184.148,439.587,179.205z"/>
	<path fill="#6DD1BD" d="M441.161,187.645c-0.49-0.11,3.306-5.385,9.748-3.046C450.909,184.599,447.512,189.073,441.161,187.645z"/>
	<path fill="#6DD1BD" d="M434.738,195.486c-0.468,0.182-0.269-6.313,6.38-7.974C441.119,187.512,440.802,193.12,434.738,195.486z"/>
	<path fill="#6DD1BD" d="M446.669,192.607c-0.49-0.11,3.306-5.385,9.748-3.046C456.417,189.561,453.02,194.034,446.669,192.607z"/>
	<path fill="#6DD1BD" d="M439.674,200.298c-0.489,0.113,0.645-6.286,7.464-6.97C447.138,193.327,446.016,198.831,439.674,200.298z"
		/>
	<path fill="#6DD1BD" d="M447.739,199.129c-0.361-0.348,5.621-2.885,9.912,2.46C457.651,201.589,452.425,203.648,447.739,199.129z"
		/>
</g>
<g>
	<path fill="none" d="M447.728,197.441c0.171-2.435-0.7-3.578-2.028-4.712l-0.047,9.742
		C447.237,200.576,447.626,198.905,447.728,197.441z"/>
	<path fill="none" d="M418.402,164.128c-0.027,0.88,0.499,1.725,1.565,2.511c0.054,0.04,0.127,0.065,0.19,0.098l-0.003-5.488
		C419.437,161.868,418.438,162.935,418.402,164.128z"/>
	<path fill="#2C5E5E" d="M437.005,165.71c-0.214,0-0.415,0.026-0.597,0.065c-1.164,0.251-2.274,1.237-2.475,2.197
		c-0.106,0.513,0.068,0.938,0.521,1.264c1.061,0.763,2.978,0.029,4.973-1.863c-0.094-0.172-0.2-0.339-0.317-0.501
		C438.447,165.965,437.669,165.71,437.005,165.71z"/>
	<path d="M419.967,166.639c-1.066-0.786-1.593-1.63-1.565-2.511c0.036-1.193,1.035-2.261,1.753-2.879l-0.001-1.276
		c-0.629,0.447-2.686,2.062-2.752,4.121c-0.039,1.229,0.625,2.356,1.972,3.35c0.225,0.166,0.495,0.277,0.784,0.365l0-1.071
		C420.094,166.705,420.022,166.679,419.967,166.639z"/>
	<path d="M445.706,191.437l-0.006,1.292c1.328,1.134,2.199,2.278,2.028,4.712c-0.103,1.464-0.491,3.135-2.075,5.029l-0.007,1.483
		c1.936-1.963,2.909-4.011,3.08-6.442C448.956,194.216,447.423,192.807,445.706,191.437z"/>
	<path d="M422.251,167.874c3.681-0.629,8.923-4.242,10.633-6.758c1.716-2.524,3.928-3.948,6.228-4.009
		c1.605-0.026,3.098,0.633,3.989,1.807c1.154,1.519-0.56,5.13-2.945,7.723c-0.073-0.12-0.152-0.237-0.237-0.353
		c-0.918-1.256-2.277-1.798-3.72-1.485c-1.566,0.338-2.96,1.616-3.242,2.971c-0.189,0.909,0.136,1.718,0.916,2.279
		c1.452,1.045,3.641,0.412,5.961-1.685c0.521,1.79,0.189,4.014-0.18,6.499c-0.48,3.233-1.025,6.898,0.199,10.577
		c1.191,3.582,3.26,5.217,4.921,6.531c0.33,0.261,0.636,0.51,0.927,0.758l0.006-1.292c-0.104-0.083-0.207-0.167-0.313-0.251
		c-1.638-1.296-3.494-2.764-4.592-6.062c-1.149-3.452-0.623-6.992-0.159-10.114c0.403-2.713,0.788-5.304-0.016-7.416
		c2.812-2.914,4.903-7.137,3.271-9.286c-1.087-1.429-2.881-2.254-4.812-2.201c-2.631,0.07-5.126,1.648-7.027,4.446
		c-1.569,2.309-6.581,5.754-9.976,6.335c-0.828,0.14-1.478,0.081-1.924-0.15l0,1.071
		C420.736,167.982,421.429,168.014,422.251,167.874z M434.456,169.237c-0.453-0.326-0.628-0.751-0.521-1.264
		c0.2-0.96,1.311-1.946,2.475-2.197c0.182-0.039,0.383-0.065,0.597-0.065c0.663,0,1.441,0.254,2.105,1.163
		c0.117,0.162,0.224,0.329,0.317,0.501C437.433,169.266,435.516,170,434.456,169.237z"/>
</g>
<path fill="none" stroke="#000000" d="M414.453,174.718c0,0-19.585-13.723-21.307-45.034"/>
<path fill="none" stroke="#000000" d="M414.453,174.718c0,0-10.896-26.648-10.103-48.06"/>
<path fill="none" stroke="#000000" d="M416.426,117.357c0,0-3.361,39.736-1.754,56.357"/>
<path fill="none" stroke="#000000" d="M422.965,125.508c0,0-1.379,33.842-8.293,48.206"/>
<path fill="none" stroke="#000000" d="M429.643,118.252c0,0,1.667,31.447-15.19,56.274"/>
<path fill="none" stroke="#000000" d="M438.937,116.301c0,0-5.047,44.1-24.484,58.417"/>
<circle fill="#F36569" cx="393.318" cy="128.813" r="3.183"/>
<circle fill="#F36569" cx="404.383" cy="124.711" r="3.183"/>
<circle fill="#F36569" cx="416.389" cy="116.294" r="3.183"/>
<circle fill="#F36569" cx="422.866" cy="125.902" r="3.183"/>
<circle fill="#F36569" cx="430.271" cy="117.12" r="3.183"/>
<circle fill="#F36569" cx="439.66" cy="113.873" r="3.183"/>
<path fill="none" d="M445.52,230.19l-0.037,7.624C447.706,234.179,446.566,231.557,445.52,230.19z"/>
<path d="M445.483,237.814l-0.009,1.768c2.93-3.831,3.055-7.77,0.286-10.646c-0.071-0.073-0.158-0.139-0.233-0.211l-0.007,1.464
	C446.566,231.557,447.706,234.179,445.483,237.814z"/>
<path d="M430.766,212.191c1.85,1.807,1.293,4.059,0.755,6.236c-0.487,1.973-0.991,4.012,0.761,5.222
	c1.392,0.962,3.455,1.691,5.64,2.464c2.782,0.983,5.659,2.001,7.118,3.517c0.148,0.153,0.313,0.341,0.48,0.56l0.007-1.464
	c-1.664-1.562-4.507-2.577-7.272-3.556c-2.12-0.75-4.122-1.458-5.404-2.343c-1.126-0.778-0.87-2.088-0.358-4.16
	c0.549-2.221,1.231-4.984-1.026-7.191c-2.204-2.155-7.17-2.103-11.287-1.596l0,1.012
	C424.109,210.389,428.815,210.283,430.766,212.191z"/>
<path fill="#F36569" d="M392.098,48.6c0,0,13.216-0.507,13.167,2.666c-0.055,3.547-6.199,3.071-5.503,5.639
	c0.85,3.132,24.022-2.896,24.022,2.566c0,4.01-9.901,1.129-9.901,5.226c0,4.078,14.553,1.08,14.553,6.877
	c0,5.621-10.211,6.91-15.308,4.957c-3.625-1.389-5.736-1.47-8.726,2.56c-2.989,4.03-16.502,3.087-16.805-0.621
	c-0.312-3.802,7.557-2.202,7.557-5.921c0-3.719-9.644-3.345-13.752-3.515c-9.932-0.412-9.03-8.456-3.076-8.639
	c5.954-0.183,12.724-0.413,12.827-2.698c0.199-4.407-9.24-1.675-9.324-5.442C381.765,49.385,386.583,48.6,392.098,48.6z"/>
<path fill="none" stroke="#000000" stroke-linecap="round" d="M442.079,44.383c0,0-3.166,8.419-0.891,14.949
	c2.276,6.53,1.979,8.014-0.495,15.227"/>
<path fill="none" stroke="#000000" stroke-linecap="round" d="M430.276,52.535c0,0,1.472,6.651-0.396,11.717"/>
<path fill="none" stroke="#000000" stroke-linecap="round" d="M427.088,186.77c0,0-2.441,5.541,0,8.311"/>
<path fill="none" stroke="#000000" stroke-linecap="round" d="M429.388-15.909c0,0-3.166,8.419-0.891,14.949
	c2.276,6.53,1.979,8.014-0.495,15.227"/>
<circle fill="#FFFFFF" cx="98.299" cy="7.947" r="3.302"/>
<circle cx="98.299" cy="7.947" r="1.805"/>
<circle fill="#FFFFFF" cx="110.258" cy="7.947" r="3.302"/>
<circle cx="110.258" cy="7.947" r="1.805"/>
<circle fill="#FFFFFF" cx="320.349" cy="250.319" r="3.302"/>
<circle cx="320.349" cy="250.319" r="1.805"/>
<circle fill="#FFFFFF" cx="332.308" cy="250.319" r="3.302"/>
<circle cx="332.308" cy="250.319" r="1.805"/>
<path fill="#F36569" d="M44.192-0.664c0,0,14.278-3.409,14.565,0.663c0.287,4.072-10.448,2.003-10.173,5.907
	c0.276,3.904,18.412,1.15,17.892,5.528c-0.597,5.029-23.175,1.551-22.681,8.555c0.494,7.004,14.495,2.124,14.108,8.088
	c-0.415,6.393-47.06,6.817-46.84-0.347c0.166-5.42,16.608-2.674,15.845-8.841c-0.763-6.167-16.464-0.509-17.773-7.456
	c-1.309-6.947,25.155,0,27.115-4.229c2.197-4.74-12.789-1.97-13.397-6.364c-0.551-3.979,4.749-2.688,11.536-4.298
	C44.211-5.787,44.192-0.664,44.192-0.664z"/>
<path fill="none" stroke="#000000" stroke-linecap="round" d="M305.14,12.837c0,0,1.472,6.651-0.396,11.717"/>
<ellipse fill="#FFFFFF" cx="356.639" cy="133.215" rx="1.179" ry="1.219"/>
<ellipse fill="#FFFFFF" cx="369.254" cy="63.173" rx="0.879" ry="1.079"/>
<ellipse fill="#FFFFFF" cx="415.116" cy="49.933" rx="1.232" ry="1.333"/>
<ellipse fill="#FFFFFF" cx="408.08" cy="184.001" rx="0.514" ry="0.525"/>
<ellipse fill="#FFFFFF" cx="93.511" cy="275.107" rx="1.088" ry="0.866"/>
<ellipse fill="#FFFFFF" cx="293.526" cy="169.158" rx="0.582" ry="0.611"/>
<ellipse fill="#FFFFFF" cx="304.453" cy="198.096" rx="1.237" ry="1.088"/>
<ellipse fill="#FFFFFF" cx="268.345" cy="4.531" rx="0.922" ry="0.857"/>
<ellipse fill="#FFFFFF" cx="411.265" cy="7.454" rx="0.535" ry="0.521"/>
<g>
	<path d="M99.13,241.369c0.821-3.163,1.752-6.747,2.429-11.096c2.909-18.698-1.206-29.367-1.383-29.812
		c-0.153-0.385-0.588-0.572-0.974-0.42c-0.386,0.153-0.573,0.589-0.421,0.974c0.042,0.105,4.142,10.73,1.295,29.028
		c-0.665,4.274-1.586,7.82-2.397,10.949c-2.697,10.388-4.509,17.408,5.343,36.667c0.495-0.117,0.997-0.236,1.502-0.355
		C94.743,258.297,96.505,251.481,99.13,241.369z"/>
</g>
</svg>
