<svg xmlns="http://www.w3.org/2000/svg" xmlns:xlink="http://www.w3.org/1999/xlink" viewBox="0 0 476.68 342.49"><defs><style>.cls-1,.cls-17,.cls-18,.cls-29,.cls-31,.cls-41,.cls-42,.cls-44,.cls-45,.cls-47,.cls-50,.cls-52,.cls-53{fill:none;}.cls-2{isolation:isolate;}.cls-3{clip-path:url(#clip-path);}.cls-4{fill:#fff;}.cls-5{fill:#36777e;}.cls-6{fill:#193534;}.cls-7{fill:#2c5e5e;}.cls-8{clip-path:url(#clip-path-3);}.cls-9{fill:#122625;}.cls-10{fill:#505050;}.cls-11{clip-path:url(#clip-path-4);}.cls-12{clip-path:url(#clip-path-5);}.cls-13{fill:#1a1a1a;}.cls-14{clip-path:url(#clip-path-6);}.cls-15{fill:#46a391;}.cls-16{fill:#77bb68;}.cls-17,.cls-18,.cls-41,.cls-42,.cls-44,.cls-45,.cls-47,.cls-50,.cls-52,.cls-53{stroke:#000;}.cls-17,.cls-18,.cls-45,.cls-50{stroke-linecap:round;}.cls-18,.cls-42,.cls-45,.cls-47{stroke-linejoin:round;}.cls-18{stroke-width:2px;}.cls-19{clip-path:url(#clip-path-7);}.cls-20{clip-path:url(#clip-path-8);}.cls-21{clip-path:url(#clip-path-9);}.cls-22{clip-path:url(#clip-path-10);}.cls-23{clip-path:url(#clip-path-11);}.cls-24{clip-path:url(#clip-path-12);}.cls-25{clip-path:url(#clip-path-13);}.cls-26{fill:#414141;}.cls-27{fill:#f36569;}.cls-28{clip-path:url(#clip-path-14);}.cls-29,.cls-31{stroke:#fff;}.cls-29,.cls-52{stroke-width:0.5px;}.cls-30{clip-path:url(#clip-path-15);}.cls-32{clip-path:url(#clip-path-16);}.cls-33{clip-path:url(#clip-path-17);}.cls-34{fill:#efefef;}.cls-35{fill:#254c4b;}.cls-36{clip-path:url(#clip-path-18);}.cls-37{clip-path:url(#clip-path-19);}.cls-38{clip-path:url(#clip-path-20);}.cls-39{clip-path:url(#clip-path-21);}.cls-40{clip-path:url(#clip-path-22);}.cls-41,.cls-42{stroke-width:0.86px;}.cls-43{clip-path:url(#clip-path-35);}.cls-44,.cls-45,.cls-47{stroke-width:1.08px;}.cls-46{clip-path:url(#clip-path-45);}.cls-48{clip-path:url(#clip-path-70);}.cls-49{clip-path:url(#clip-path-71);}.cls-50{stroke-width:1.5px;}.cls-51{clip-path:url(#clip-path-72);}.cls-54{fill:#6dd1bd;}.cls-55{clip-path:url(#clip-path-74);}.cls-56{clip-path:url(#clip-path-75);}.cls-57{clip-path:url(#clip-path-76);}.cls-58{clip-path:url(#clip-path-77);}.cls-59{clip-path:url(#clip-path-79);}</style><clipPath id="clip-path"><rect class="cls-1" x="16.83" y="19.04" width="450" height="293"/></clipPath><clipPath id="clip-path-3"><path class="cls-1" d="M356.29,260.34s-13.54-4.8-20.3-20.93c0,0,10.85-.58,25.78,16.86Z"/></clipPath><clipPath id="clip-path-4"><path class="cls-1" d="M325.53,287.17s7.13-9.39,21.46-8.53c0,0-2.23,9.31-19.63,14.76Z"/></clipPath><clipPath id="clip-path-5"><path class="cls-1" d="M304.58,258.91s-9.37-.35-15.37-10.07c0,0,7.08-2.8,18.58,6Z"/></clipPath><clipPath id="clip-path-6"><path class="cls-1" d="M304.35,246.75a15.1,15.1,0,0,1,4-13s3.45,4.48-.5,14.48Z"/></clipPath><clipPath id="clip-path-7"><path class="cls-1" d="M31.08,7.43S44.74,19.6,45,41.86c0,0-13.07-4.53-22.29-32.27Z"/></clipPath><clipPath id="clip-path-8"><path class="cls-1" d="M100.41,100.39c1.2,1.52-12.94,3.94-28.24-12.76C72.16,87.63,85.65,81.62,100.41,100.39Z"/></clipPath><clipPath id="clip-path-9"><path class="cls-1" d="M102.08,101.73c-1.44,1.71-8.29-14.22,6.93-35.5C109,66.23,119.88,80.66,102.08,101.73Z"/></clipPath><clipPath id="clip-path-10"><path class="cls-1" d="M106.14,100c-1.91.76-1.22-16.22,20.27-27C126.41,73,129.72,90.65,106.14,100Z"/></clipPath><clipPath id="clip-path-11"><path class="cls-1" d="M99.13,100.07C99,102,86.93,94.23,86.93,71.58,86.93,71.58,100.93,76.26,99.13,100.07Z"/></clipPath><clipPath id="clip-path-12"><path class="cls-1" d="M172.1,263.58s-11.73-26.78,2.8-59.26c0,0,16,15.3,10.86,61.74Z"/></clipPath><clipPath id="clip-path-13"><path class="cls-1" d="M162.23,287.7s5.47-43.81,37.47-75.33c0,0,17.21,23.8-10.33,83.61Z"/></clipPath><clipPath id="clip-path-14"><path class="cls-1" d="M134,294.68s-9-11-4.48-22.93.65-15.84-3.1-23.64,1.17-18.33,7.58-9.82,10.16,13.39,8.72,27.78-1.53,22.39,5.06,27.33S134,294.68,134,294.68Z"/></clipPath><clipPath id="clip-path-15"><path class="cls-1" d="M152,296.25a23.71,23.71,0,0,1-6.82-22.73c2.94-12.39,4-19.88,1.57-26.94-2-5.93-8.68-17.95-9.51-24.91s8.42-42.77,19.1-41.77c8.4.79,10.12,13.9,5.93,29.2-1.42,5.19-2.87,11.68-.21,20.48s11.82,16.33,12.78,31.35a67.08,67.08,0,0,1-6.27,33.64C165,301.93,152,296.25,152,296.25Z"/></clipPath><clipPath id="clip-path-16"><path class="cls-1" d="M328.42,2.93s20.11,18.94,19.51,52.56c0,0-19.55-7.39-32.3-49.65Z"/></clipPath><clipPath id="clip-path-17"><path class="cls-1" d="M302.95,302.85a23.71,23.71,0,0,0,6.82-22.73c-2.94-12.39-4-19.88-1.57-26.94,2-5.93,8.68-17.95,9.51-24.91s-8.42-42.77-19.11-41.77c-8.4.79-10.12,13.9-5.93,29.2,1.42,5.19,2.87,11.68.21,20.48s-11.82,16.33-12.78,31.35a67.08,67.08,0,0,0,6.27,33.64C289.87,308.53,302.95,302.85,302.95,302.85Z"/></clipPath><clipPath id="clip-path-18"><path class="cls-1" d="M242.1,151.5c-50.84-.22-92.5-12.71-92.31-54.72s41.15-78,92-77.73,92.29,36.53,92.1,78.54-41.17,54.14-92,53.91Z"/></clipPath><clipPath id="clip-path-19"><path class="cls-1" d="M195.09,10.13s20.83,7.13,31.45,31.72c0,0-16.62,1.07-39.77-25.41Z"/></clipPath><clipPath id="clip-path-20"><path class="cls-1" d="M169.75,10.43s-6.62,30.08-30.88,49.91c0,0-10.42-17.64,12.56-57.41Z"/></clipPath><clipPath id="clip-path-21"><path class="cls-1" d="M320.26,17.44s-11,18.42-31.46,26.16c0,0-3-14,21-35.17Z"/></clipPath><clipPath id="clip-path-22"><path class="cls-1" d="M85.46,213s-7.12-28.12-3-49.25,10-38.1,20.71-35.69c11,2.49,3.61,34.11,2.38,39.38s-.55-.34-1.23,5.27S85.46,213,85.46,213Z"/></clipPath><clipPath id="clip-path-35"><path class="cls-1" d="M15.67,183.35s-12-20.72-12-29.47.21-24,9.84-26.79,30.67,18.24,38.29,60.07c7.7,42.28,9.73,48.57,8.16,54.76S15.67,183.35,15.67,183.35Z"/></clipPath><clipPath id="clip-path-45"><path class="cls-1" d="M52.88,220.52s-12.5-18-11.06-27.3,6-17.3,3.48-25.25-7.52-16.75-9.49-28.19c-2.21-12.86-3-13-1.77-25.34,1.41-14.29,5.29-27.86,16-29.27s7.92,25.9,18.89,39c6.66,8,14.26,17.28,13,30.57-1.42,14.69.28,17.55,5.47,26.68C94.86,194.53,77,227.22,77,227.22L66,230.7Z"/></clipPath><clipPath id="clip-path-70"><path class="cls-1" d="M37.56,251.86S7.62,222.54,2.22,180.24c0,0,27.87.69,57.21,55.88Z"/></clipPath><clipPath id="clip-path-71"><path class="cls-1" d="M43.56,272S20,260.67,8.3,236.73c0,0,16.63-5.18,45,21.61Z"/></clipPath><clipPath id="clip-path-72"><path class="cls-1" d="M301.93,63.61s21.47-24.8,58-29.73,32.49-3,32.49-3l4.06,7.67,4.21-7.84s24.37-.31,35,6.41c0,0-17.4,28.43-57.87,33.51S302.08,63.61,301.93,63.61Z"/></clipPath><clipPath id="clip-path-74"><path class="cls-1" d="M381.57,284.41s17.59-.69,23.67-11.14,6.94-15.52,8.46-22.18c3.26-14.26,10.5-22.35,19.64-23.81s-2.18,4.45-2.18,15.12,4.11,25.35-2.11,37.25-20.13,22.95-29.39,18.22-18.61-7.54-27.36-2.59S381.57,284.41,381.57,284.41Z"/></clipPath><clipPath id="clip-path-75"><path class="cls-1" d="M354.67,295.27s-8-5-6.27-13,8-12.69,6.53-22.44-9.92-18.13-9-32.79,6.23-29.49,11.23-32.41c2.74-1.61-1,7.3,6.27,21.37s14.89,18.73,8.75,40.28A161,161,0,0,1,354.67,295.27Z"/></clipPath><clipPath id="clip-path-76"><path class="cls-1" d="M353.48,295.27s7.25-5.81,7.38-17.56,5.33-19.92,13.4-27.62S384.95,236.2,384.95,231s4.45-27.53,17.46-33.07,1.43,9.09,5.89,25,1.94,24.84-3.35,31.93-12.85,11.39-14.55,22.8S377.11,298.62,353.48,295.27Z"/></clipPath><clipPath id="clip-path-77"><path class="cls-1" d="M282.75,280.45C284,279.45,359.09,293,381,296L387,312H90.88l5.6-9.65S165.24,285,200.92,280.45C200.92,280.45,247.31,309.58,282.75,280.45Z"/></clipPath><clipPath id="clip-path-79"><path class="cls-1" d="M344.18,7.57S371.46,2.41,396.58,25c0,0-18.14,12.26-58.4-4.34Z"/></clipPath></defs><title>explorer</title><g id="Layer_2" data-name="Layer 2"><g id="Layer_1-2" data-name="Layer 1"><g class="cls-2"><g class="cls-3"><g class="cls-3"><rect class="cls-4" x="16.83" y="19.04" width="450" height="293"/></g></g></g><rect class="cls-4" x="16.83" y="19.04" width="450" height="293"/><rect class="cls-5" x="16.83" y="19.04" width="450" height="293"/><path class="cls-6" d="M462.64,165.48s-5.85-8.45-12.33-5.57-7.4,5.74-7.4,12.42-1.74,24-9.49,24-8.07-9.18-6.9-15.61,4.25-31.25-3.26-32S415.69,171,415.74,179c0,5.65-1,10.09-4,10.09s-4.22-7.94-5.17-13.06c-1.21-6.52-2.86-11.91-7.18-11.2s-4,8.1-4.14,18.15c-.11,11-7.87,6.92-9.54-2.23-1.09-6-4.74-25.57-13.74-23.63s-4.62,14.6,1.5,27.09c3.83,7.81,4.22,12.83.33,12.83-4.38,0-7.42-5.55-11.35-2.13-2.44,2.13,1.16,8.36-.93,12.54-3,5.93-11.17-6.61-14.28-12.54-3.62-6.88-10.91-8.85-15.33-3.7s-.58,14.39,3.62,23.38,1.36,14.53-5.37,12c-5.14-1.91-10.09,4.21-3.74,13,4.82,6.65,3.74,13.26-3.1,12.48-5.28-.6-14.21-4.69-18.67,1.89s1.33,16.32,10.88,23.1,5.27,13.15.7,13.5-11.42-1.4-15.42,3.84c-3.26,4.27,1.72,9.7,5.22,12.41s159.26,4.59,159.26,4.59l7-124.42Z"/><path class="cls-7" d="M356.29,260.34s-13.54-4.8-20.3-20.93c0,0,10.85-.58,25.78,16.86Z"/><g class="cls-8"><path class="cls-9" d="M336,239.42s22.07,17.6,24.88,20.24L353.76,263l-14.65-12.69-5-9.63"/></g><path class="cls-10" d="M325.53,287.17s7.13-9.39,21.46-8.53c0,0-2.23,9.31-19.63,14.76Z"/><path id="SVGID" class="cls-7" d="M325.53,287.17s7.13-9.39,21.46-8.53c0,0-2.23,9.31-19.63,14.76Z"/><g class="cls-11"><path class="cls-9" d="M347,278.64S327.7,290,324.92,291.28L324,284l13.59-7.14,8.79-.26"/></g><path class="cls-10" d="M304.58,258.91s-9.37-.35-15.37-10.07c0,0,7.08-2.8,18.58,6Z"/><g class="cls-12"><path class="cls-13" d="M289.21,248.84s16.21,7.37,18.32,8.59l-4.36,3.93-10.86-5.59-4.19-5.6"/></g><path class="cls-10" d="M304.35,246.75a15.1,15.1,0,0,1,4-13s3.45,4.48-.5,14.48Z"/><g class="cls-14"><path class="cls-13" d="M308.38,233.73s-1.94,13.07-2.37,14.82l-3.69-2.3,1.76-8.89,3.14-4.13"/></g><polygon class="cls-4" points="394.3 19.04 392.42 193.66 419.74 223.94 422.89 19.04 394.3 19.04"/><rect class="cls-15" x="258.86" y="19.04" width="19.82" height="16.95"/><polygon class="cls-7" points="436.91 19.04 437.02 245.4 462.22 277.76 463.46 19.04 436.91 19.04"/><polygon class="cls-7" points="436.91 19.04 437.02 245.4 462.22 277.76 463.46 19.04 436.91 19.04"/><rect class="cls-4" x="290.65" y="19.04" width="18.36" height="51.27"/><polygon class="cls-15" points="346.42 15.57 345.71 83.74 372.21 90.62 372.62 81.14 389.61 75 388.54 70.31 372.75 75.4 373.95 15.57 346.42 15.57"/><rect class="cls-7" x="315.33" y="19.04" width="25.23" height="71.57"/><path class="cls-16" d="M140.28,38.67s-16.49-2.17-16.49,4.22,9.94,3.21,9.73,6.59c-.16,2.56-5.79,1.22-5.64,4.46s12.76,2.8,12.76,2.8Z"/><path class="cls-16" d="M161.23,21.1s16.58-.57,16.5,2.59c-.07,2.83-9,2-7,6.55,2.08,4.72,21.39.23,21.39,4.7,0,6.92-23.57.68-23.57,6.92,0,4.83,7.12.82,7.36,5.36s-13.7,4.55-13.7,4.55Z"/><path class="cls-17" d="M354.16,21.86s-3.17,8.42-.89,14.95,2,8-.49,15.23"/><path class="cls-15" d="M38.46,101s-.5-5.89-5.15-6.7-8.25,2.65-11.23,3.85-10.43,5-13-1.3c-1.92-4.65,2.17-9.61,8.56-9.55s10.79-2.16,10.11-5.11-6.57-3.94-11-2.89S4.22,81.79,3.6,76.6c-.59-5,5.27-7.69,10.17-4.89,3.73,2.13,7.93,1.17,8.6-.72.89-2.49-.54-4.25-2.71-7.54s-6.47-11.94-1-13.73C23,48.33,27.73,53,27.48,59.79c-.16,4.4.68,8,3.54,8s4.68-4.53,6.57-7.91c2.36-4.22,7.07-6,9.49-2.17,2,3.16.08,9-7.57,14-4.28,2.79-4.16,7.23-1.3,8.24s6.26-1.58,9-4,9.15-4.86,12-1.67c3.78,4.18-.62,10.61-7.44,13.15C46.71,89.29,38.09,92.23,38.46,101Z"/><path class="cls-18" d="M28.13,71.57s9,14.84,10.7,30.29"/><path class="cls-7" d="M31.08,7.43S44.74,19.6,45,41.86c0,0-13.07-4.53-22.29-32.27Z"/><g class="cls-19"><path class="cls-6" d="M45,41.86S27.4,10.5,25.35,6l10-.57,11.18,22,1.22,13.74"/></g><path class="cls-16" d="M307.31,286.45s-11.88-3.6-9.87-8.69,12.21,2.7,15.2-3.84-6.43-11.86-8.65-15-6.77-13.51-1.66-16,8.64,14.92,14.42,12.81S314.65,242,313,237.06s-7-19.76-1.35-21.14,1.77,12.72,7.43,13.22,9.46-11.82,6.46-17.2-15.36-23.5-8-25.13c5-1.11,3.13,13.4,9.42,13.29s3.25-9.4,2.24-12.6-2.87-9.46,1.54-9.51c4,0,1.65,12,6.61,12.54s9.62-7,13.32-5.1c2.76,1.41-1.28,5.78-4.44,8.34s-11.35,5.74-8,9.28,16-7.16,19.51-4c2.24,2-.6,7.19-8.1,9-11.4,2.7-19.54,8.77-14.42,15.93,4.36,6.08,9.53.1,11.79,4,2.92,5.1-12.51,6.61-17.79,9.1-5,2.36-5.66,6.74-2.77,8.2,3.26,1.65,13.64-4.3,15.18-.23,1.62,4.29-18,4.26-16.06,10.74,1.49,5.06,16.55-1.8,16.69,2.74.21,7.1-22,2-22,10.76,0,5,6.55,3.48,8,7,1.73,4.15-6.56,5.62-1.26,13S307.31,286.45,307.31,286.45Z"/><path class="cls-7" d="M53.08,8.43,54.88,80l3.43,95.69,25.31-9.31L82.31,64.28s7,.16,9.87,0S105.45,76.2,105.45,76.2l3.65-2.78L98.15,61.83l8.65-7.19,17-.16-.16-6.2-14.83.66,5.09-14.21-5.28-.82-5.08,16.25-8.66,6.91H81.75l-.58-14.34S99.31,41.42,101.42,19H96.74S94.8,35.91,81.48,36.92l.17-21.35Z"/><path class="cls-7" d="M100.41,100.39c1.2,1.52-12.94,3.94-28.24-12.76C72.16,87.63,85.65,81.62,100.41,100.39Z"/><g class="cls-20"><path class="cls-6" d="M72.16,87.63s25.52,11.59,29.54,13.94.09-8,.09-8L81.39,81.39,72.7,84.75Z"/></g><path class="cls-7" d="M102.08,101.73c-1.44,1.71-8.29-14.22,6.93-35.5C109,66.23,119.88,80.66,102.08,101.73Z"/><g class="cls-21"><path class="cls-6" d="M109,66.23s-6.33,32.09-7.95,37.26,9.35-1.56,9.35-1.56l8.52-26.27-6.4-9.4Z"/></g><path class="cls-7" d="M106.14,100c-1.91.76-1.22-16.22,20.27-27C126.41,73,129.72,90.65,106.14,100Z"/><g class="cls-22"><path class="cls-6" d="M126.41,73s-18.38,24.41-21.84,28,8.53,3.22,8.53,3.22L131,85.92l-1.58-11.17Z"/></g><path class="cls-7" d="M99.13,100.07C99,102,86.93,94.23,86.93,71.58,86.93,71.58,100.93,76.26,99.13,100.07Z"/><g class="cls-23"><path class="cls-6" d="M86.93,71.58s11,25.78,12.36,30.24S104.74,96,104.74,96L97.94,73.22l-8.68-3.4Z"/></g><path class="cls-7" d="M172.1,263.58s-11.73-26.78,2.8-59.26c0,0,16,15.3,10.86,61.74Z"/><g class="cls-24"><path class="cls-13" d="M174.9,204.33s4.6,57.26,4.6,65.12l-14.94-5.86L163,224.17l7.39-20.77"/></g><path class="cls-7" d="M162.23,287.7s5.47-43.81,37.47-75.33c0,0,17.21,23.8-10.33,83.61Z"/><g class="cls-25"><path class="cls-13" d="M199.7,212.37s-16,61.72-23.93,80.92l-17.65-5.56L176,231.36Z"/></g><path class="cls-26" d="M134,294.68s-9-11-4.48-22.93.65-15.84-3.1-23.64,1.17-18.33,7.58-9.82,10.16,13.39,8.72,27.78-1.53,22.39,5.06,27.33S134,294.68,134,294.68Z"/><path id="SVGID-2" data-name="SVGID" class="cls-27" d="M134,294.68s-9-11-4.48-22.93.65-15.84-3.1-23.64,1.17-18.33,7.58-9.82,10.16,13.39,8.72,27.78-1.53,22.39,5.06,27.33S134,294.68,134,294.68Z"/><g class="cls-28"><path class="cls-29" d="M126.41,237.06s12.28,12.79,10.73,25.84-4.42,27.49,5.2,36.08"/></g><path class="cls-15" d="M152,296.25a23.71,23.71,0,0,1-6.82-22.73c2.94-12.39,4-19.88,1.57-26.94-2-5.93-8.68-17.95-9.51-24.91s8.42-42.77,19.1-41.77c8.4.79,10.12,13.9,5.93,29.2-1.42,5.19-2.87,11.68-.21,20.48s11.82,16.33,12.78,31.35a67.08,67.08,0,0,1-6.27,33.64C165,301.93,152,296.25,152,296.25Z"/><path id="SVGID-3" data-name="SVGID" class="cls-7" d="M152,296.25a23.71,23.71,0,0,1-6.82-22.73c2.94-12.39,4-19.88,1.57-26.94-2-5.93-8.68-17.95-9.51-24.91s8.42-42.77,19.1-41.77c8.4.79,10.12,13.9,5.93,29.2-1.42,5.19-2.87,11.68-.21,20.48s11.82,16.33,12.78,31.35a67.08,67.08,0,0,1-6.27,33.64C165,301.93,152,296.25,152,296.25Z"/><g class="cls-30"><path class="cls-31" d="M160.28,177.47s-10.5,24.37-10.5,40.32,4.82,25.64,10.63,39.16.34,30-6,44.26,18.84,34.28,18.84,34.28"/></g><path class="cls-5" d="M328.42,2.93s20.11,18.94,19.51,52.56c0,0-19.55-7.39-32.3-49.65Z"/><path id="SVGID-4" data-name="SVGID" class="cls-7" d="M328.42,2.93s20.11,18.94,19.51,52.56c0,0-19.55-7.39-32.3-49.65Z"/><g class="cls-32"><path class="cls-6" d="M347.93,55.48S322.73,7.4,319.82.57L335,.13l16,33.69,1.27,20.79"/></g><path class="cls-27" d="M302.95,302.85a23.71,23.71,0,0,0,6.82-22.73c-2.94-12.39-4-19.88-1.57-26.94,2-5.93,8.68-17.95,9.51-24.91s-8.42-42.77-19.11-41.77c-8.4.79-10.12,13.9-5.93,29.2,1.42,5.19,2.87,11.68.21,20.48s-11.82,16.33-12.78,31.35a67.08,67.08,0,0,0,6.27,33.64C289.87,308.53,302.95,302.85,302.95,302.85Z"/><g class="cls-33"><path class="cls-31" d="M294.62,184.08s10.5,24.37,10.5,40.32S300.3,250,294.48,263.56s-.34,30,6,44.26-18.84,34.28-18.84,34.28"/></g><polygon class="cls-4" points="137.14 15.57 137.14 63.45 123.79 62.12 123.79 66.23 137.14 69.27 137.14 86.71 165.07 84.02 165.51 13.3 137.14 15.57"/><path class="cls-17" d="M363.49,49.48s-3.17,8.42-.89,14.95,2,8-.49,15.23"/><path class="cls-17" d="M158.16,45.06s2,8.39,0,13.79-2.92,10.47,0,15.67"/><path class="cls-17" d="M408.93,23.69s-3,7.54-1,11.09"/><path class="cls-34" d="M202.55,228.64s4.18,33.28-1.63,51.81c0,0,47,29.11,81.84,0,0,0-3.46-35.87-.69-52.5Z"/><path d="M238.82,284.78c-26.83,0-48.9-17.9-63.92-51.89C163.45,207,160,180.42,160,180.16l4.46-.56c0,.26,3.39,26.23,14.6,51.55,14.79,33.42,35.52,50,61.58,49.1l.15,4.5C240.13,284.77,239.47,284.78,238.82,284.78Z"/><path class="cls-35" d="M242.1,151.5c-50.84-.22-92.5-12.71-92.31-54.72s41.15-78,92-77.73,92.29,36.53,92.1,78.54-41.17,54.14-92,53.91Z"/><g class="cls-36"><ellipse class="cls-27" cx="242.2" cy="104.05" rx="168.11" ry="42.89"/></g><path d="M243.67,284.78q-1,0-2,0l.15-4.5c26.09.85,46.83-15.71,61.62-49.18C314.66,205.74,318,179.86,318,179.6l4.46.56c0,.26-3.45,26.81-14.91,52.73C292.56,266.88,270.49,284.78,243.67,284.78Z"/><path class="cls-17" d="M405.47,81.14s-2.47,7.86.2,14.49a16.44,16.44,0,0,1-.2,13.27"/><ellipse class="cls-35" cx="241.83" cy="114.47" rx="168.11" ry="42.89"/><path class="cls-4" d="M162.4,102.71s1.22,67.83,25.36,113C198.36,235.57,215.5,258,240.89,258c32.2,0,47.42-19.09,63.88-75.73C321.69,124,323.7,109,323.7,109s-19.2-22-71.76-22.3S164.13,92.9,162.4,102.71Z"/><path d="M154.49,110.39s-.09-7.68,13.13-14c9.85-4.71,110.32-32.13,157.9,12.53,0,0-1.21,6.36-3.91,8.74s-8.9-7.44-12.24-12.79-5.72-6-10.33-7.07-16.63.36-18.06-3.46-4.51-2.58-6.73-.84-5.72,1.11-8.11-1.11-2.9-.28-5.18,3.42-4.67,5.2-7.68,3.7-5.48-8.44-9.88-5-4.54,8.35-11,11.42-9.48-.73-11.22-1.74-6.28-2-8.35,5.88-12.75,5.07-14.22.33-5-8.15-9.37-8.08S160.9,104.43,154.49,110.39Z"/><path class="cls-4" d="M376.28,169.93s-6.51-8.32-10.45-14.51S355,133.56,349.09,126.2s-17.39-20.8-39.36-24.74-30.82,1.07-31,8.11,5.12,64.21,5.12,64.21-2.56,9.17,17.92,8.64,28.37-7,41.06,11.09S376.28,169.93,376.28,169.93Z"/><path class="cls-4" d="M103.53,169.93S110,161.61,114,155.43s10.88-21.86,16.75-29.22,17.39-20.8,39.36-24.74,30.82,1.07,31,8.11S196,173.77,196,173.77s2.56,9.17-17.92,8.64-28.37-7-41.06,11.09S103.53,169.93,103.53,169.93Z"/><rect x="217.85" y="127.59" width="47.97" height="5.07"/><path class="cls-35" d="M265.82,132.66v24.71l-12.69-.08c0-1,0-.91,0-1.65a11.63,11.63,0,0,0-11.36-11.69c-6.24,0-11,5.45-11.25,11.69,0,.6,0,.72,0,1.73H217.85V132.66h48Z"/><circle class="cls-15" cx="184.81" cy="142.16" r="36.74"/><circle class="cls-35" cx="184.81" cy="142.16" r="30.32"/><circle class="cls-15" cx="298.86" cy="142.16" r="36.74"/><circle class="cls-35" cx="298.86" cy="142.16" r="30.32"/><path class="cls-5" d="M195.09,10.13s20.83,7.13,31.45,31.72c0,0-16.62,1.07-39.77-25.41Z"/><path id="SVGID-5" data-name="SVGID" class="cls-7" d="M195.09,10.13s20.83,7.13,31.45,31.72c0,0-16.62,1.07-39.77-25.41Z"/><g class="cls-37"><path class="cls-6" d="M226.54,41.86s-34.1-26.6-38.46-30.6L198.93,6l22.66,19.19,7.76,14.67"/></g><path class="cls-7" d="M169.75,10.43s-6.62,30.08-30.88,49.91c0,0-10.42-17.64,12.56-57.41Z"/><g class="cls-38"><path class="cls-6" d="M138.87,60.34S154,18.49,160.7,5.67l11.9,5-16.05,38Z"/></g><path class="cls-5" d="M320.26,17.44s-11,18.42-31.46,26.16c0,0-3-14,21-35.17Z"/><path id="SVGID-6" data-name="SVGID" class="cls-6" d="M320.26,17.44s-11,18.42-31.46,26.16c0,0-3-14,21-35.17Z"/><g class="cls-39"><path class="cls-35" d="M288.8,43.6S308,19.28,315.33,12.3l6.76,5.94-19,21.57Z"/></g><path class="cls-15" d="M85.46,213s-7.12-28.12-3-49.25,10-38.1,20.71-35.69c11,2.49,3.61,34.11,2.38,39.38s-.55-.34-1.23,5.27S85.46,213,85.46,213Z"/><g class="cls-40"><path class="cls-41" d="M90.36,210S85.27,167.32,102.8,127"/></g><g class="cls-40"><line class="cls-42" x1="100.55" y1="132.28" x2="97.6" y2="126.9"/></g><g class="cls-40"><line class="cls-42" x1="100.55" y1="132.28" x2="108.04" y2="129.31"/></g><g class="cls-40"><line class="cls-42" x1="97.34" y1="142.13" x2="91.57" y2="131.93"/></g><g class="cls-40"><line class="cls-42" x1="97.34" y1="142.13" x2="111.62" y2="137.05"/></g><g class="cls-40"><line class="cls-42" x1="94.26" y1="153.36" x2="87.53" y2="138.56"/></g><g class="cls-40"><line class="cls-42" x1="94.26" y1="153.36" x2="111.03" y2="148.69"/></g><g class="cls-40"><line class="cls-42" x1="92.35" y1="163.72" x2="84.72" y2="147.83"/></g><g class="cls-40"><line class="cls-42" x1="92.35" y1="163.72" x2="109.83" y2="160.07"/></g><g class="cls-40"><line class="cls-42" x1="90.85" y1="174.73" x2="80.92" y2="158.8"/></g><g class="cls-40"><line class="cls-42" x1="90.61" y1="174.63" x2="104.53" y2="170.9"/></g><g class="cls-40"><line class="cls-42" x1="90.08" y1="185.46" x2="80.42" y2="170.85"/></g><g class="cls-40"><line class="cls-42" x1="90.08" y1="185.46" x2="99.76" y2="183.44"/></g><path class="cls-27" d="M15.67,183.35s-12-20.72-12-29.47.21-24,9.84-26.79,30.67,18.24,38.29,60.07c7.7,42.28,9.73,48.57,8.16,54.76S15.67,183.35,15.67,183.35Z"/><g class="cls-43"><line class="cls-44" x1="11.29" y1="123.74" x2="53.46" y2="246.11"/></g><g class="cls-43"><line class="cls-45" x1="48.59" y1="234.83" x2="58.33" y2="208.36"/></g><g class="cls-43"><line class="cls-45" x1="42.2" y1="212.72" x2="52.47" y2="179.42"/></g><g class="cls-43"><line class="cls-45" x1="34.05" y1="189.47" x2="7.94" y2="174.91"/></g><g class="cls-43"><line class="cls-45" x1="34.05" y1="189.47" x2="47.21" y2="156.1"/></g><g class="cls-43"><line class="cls-45" x1="27.16" y1="168.92" x2="1.28" y2="158.93"/></g><g class="cls-43"><line class="cls-45" x1="27.16" y1="168.92" x2="46.42" y2="139.96"/></g><g class="cls-43"><line class="cls-45" x1="18.94" y1="146.76" x2="0.54" y2="137.05"/></g><g class="cls-43"><line class="cls-45" x1="19.28" y1="146.54" x2="35.98" y2="125.95"/></g><g class="cls-43"><line class="cls-45" x1="42.2" y1="212.72" x2="8.96" y2="196.44"/></g><path class="cls-16" d="M52.88,220.52s-12.5-18-11.06-27.3,6-17.3,3.48-25.25-7.52-16.75-9.49-28.19c-2.21-12.86-3-13-1.77-25.34,1.41-14.29,5.29-27.86,16-29.27s7.92,25.9,18.89,39c6.66,8,14.26,17.28,13,30.57-1.42,14.69.28,17.55,5.47,26.68C94.86,194.53,77,227.22,77,227.22L66,230.7Z"/><g class="cls-46"><path class="cls-44" d="M68.4,228.12s-2.9-31.8-6.8-46.18-8.41-38-9.54-48.85c-1.25-12-4.91-41.7-4.8-49.59"/></g><g class="cls-46"><line class="cls-47" x1="67.56" y1="219.49" x2="46" y2="212.01"/></g><g class="cls-46"><line class="cls-47" x1="67.56" y1="219.49" x2="102.28" y2="193.88"/></g><g class="cls-46"><line class="cls-47" x1="66.53" y1="211.14" x2="39.73" y2="196.85"/></g><g class="cls-46"><line class="cls-47" x1="66.53" y1="211.14" x2="98.34" y2="184.4"/></g><g class="cls-46"><line class="cls-47" x1="41.37" y1="186.34" x2="64.94" y2="200.28"/></g><g class="cls-46"><line class="cls-47" x1="64.94" y1="200.28" x2="87.11" y2="179.94"/></g><g class="cls-46"><line class="cls-47" x1="63.13" y1="186.98" x2="43.23" y2="173.92"/></g><g class="cls-46"><line class="cls-47" x1="63.13" y1="186.98" x2="86.61" y2="157.9"/></g><g class="cls-46"><line class="cls-47" x1="57.94" y1="166.91" x2="38.86" y2="157.36"/></g><g class="cls-46"><line class="cls-47" x1="59.84" y1="174.96" x2="85.51" y2="143.33"/></g><g class="cls-46"><line class="cls-47" x1="55.22" y1="154.66" x2="32.86" y2="143"/></g><g class="cls-46"><line class="cls-47" x1="56.79" y1="161.1" x2="78.8" y2="131"/></g><g class="cls-46"><line class="cls-47" x1="52.94" y1="141.12" x2="31.38" y2="128.75"/></g><g class="cls-46"><line class="cls-47" x1="54.6" y1="148.76" x2="74.31" y2="120.28"/></g><g class="cls-46"><line class="cls-47" x1="51.95" y1="130.75" x2="31.08" y2="116.76"/></g><g class="cls-46"><line class="cls-47" x1="52.06" y1="133.09" x2="71.67" y2="112.58"/></g><g class="cls-46"><line class="cls-47" x1="50.81" y1="121.09" x2="29" y2="104.99"/></g><g class="cls-46"><line class="cls-47" x1="51.05" y1="125.24" x2="67.85" y2="106.96"/></g><g class="cls-46"><line class="cls-47" x1="49.7" y1="110.43" x2="32.42" y2="99.65"/></g><g class="cls-46"><line class="cls-47" x1="49.7" y1="110.43" x2="65.24" y2="96.55"/></g><g class="cls-46"><line class="cls-47" x1="48.56" y1="100.73" x2="36.61" y2="90.16"/></g><g class="cls-46"><line class="cls-47" x1="48.36" y1="100.95" x2="63.1" y2="87.67"/></g><g class="cls-46"><line class="cls-47" x1="47.93" y1="90.77" x2="40.74" y2="84.16"/></g><g class="cls-46"><line class="cls-47" x1="47.75" y1="90.61" x2="55.55" y2="84.82"/></g><path class="cls-7" d="M37.56,251.86S7.62,222.54,2.22,180.24c0,0,27.87.69,57.21,55.88Z"/><g class="cls-48"><path class="cls-6" d="M2.22,180.24s37.41,47.59,47.35,64.6L35.22,255,2.94,209.06Z"/></g><path class="cls-7" d="M43.56,272S20,260.67,8.3,236.73c0,0,16.63-5.18,45,21.61Z"/><g class="cls-49"><path class="cls-6" d="M8.3,236.73s31.67,20.67,41,28.74l-6.46,8.87L14.5,253.64Z"/></g><polygon class="cls-35" points="16.83 273.15 97.97 155.93 156.29 199.31 92.86 312.04 16.83 312.04 16.83 273.15"/><polygon class="cls-4" points="94.33 270.78 72.63 275.95 87.31 269.9 65.99 264.51 87.54 267.02 75.36 244.29 90.05 265.1 86.14 237.06 94.11 264.81 101.49 238.53 98.61 263.85 114.7 257.65 94.33 270.78"/><polygon class="cls-4" points="130.39 277.76 111.95 273.29 123.03 272.63 113.65 256.76 126.13 269.6 126.2 250.19 130.39 269.29 141.55 248.42 137.14 270.61 147.86 259.12 140.66 275.06 152.47 279.56 130.39 277.76"/><path class="cls-50" d="M131.08,273.51s-4.94,15.43,3,22.73"/><path class="cls-50" d="M92.19,266.06S96.1,278.53,108,281.78s17.42,7.31,21.4,17.2"/><path class="cls-34" d="M301.93,63.61s21.47-24.8,58-29.73,32.49-3,32.49-3l4.06,7.67,4.21-7.84s24.37-.31,35,6.41c0,0-17.4,28.43-57.87,33.51S302.08,63.61,301.93,63.61Z"/><g class="cls-51"><path d="M409.88,27.14s-12.6,20.71,8.71,33.38l25.07-20.92L443,34Z"/></g><g class="cls-51"><path class="cls-52" d="M301.93,63.61S421.63,43.84,435.66,38.5"/></g><path class="cls-17" d="M74.32,38.32s5.12,5.28,2.75,12.29c-1.81,5.35-8.56,8.85-6,15.62s3.58,9.92,2.6,14.9"/><path class="cls-17" d="M60.88,60.34s-2.25,5.08,1.53,8.53"/><path class="cls-17" d="M66,77.45s2.59,2.67,1.87,9.26-1.63,9.16.67,12.15"/><polygon class="cls-4" points="118.36 223.94 94.05 222.45 110.66 220.55 95.79 209.61 111.71 217.7 105.36 195.09 114.81 216.48 117.87 189.28 119 217.35 131.79 196.99 123.83 217.67 136.51 216.37 118.36 223.94"/><path class="cls-17" d="M73,101s-1.68,6.51.1,9.36"/><path class="cls-17" d="M148.07,58.11s-3.89,5.6-1.95,9.53"/><path class="cls-53" d="M426.46,221.36s6.57-16.87,4.83-27.59"/><polygon class="cls-35" points="381.84 155.93 323.52 199.31 375.22 295.14 375.22 295.14 384.34 312.04 386.97 312.04 466.83 312.04 466.83 312.04 466.83 274.99 381.84 155.93"/><path class="cls-54" d="M437.84,229.36c-.12.49-5.32-3.41-2.85-9.81A9.69,9.69,0,0,1,437.84,229.36Z"/><path class="cls-54" d="M443.91,238.19c0,.5-5.88-2.3-4.72-9.06A9.69,9.69,0,0,1,443.91,238.19Z"/><path class="cls-54" d="M443.43,229.12c-.39.31-2.13-5.95,3.73-9.51A9.69,9.69,0,0,1,443.43,229.12Z"/><path class="cls-54" d="M448.14,231.2c-.5.06,1.3-6.18,8.15-6.15A9.69,9.69,0,0,1,448.14,231.2Z"/><path class="cls-54" d="M443.76,240.5c-.41.29-1.82-6.05,4.21-9.3A9.7,9.7,0,0,1,443.76,240.5Z"/><path class="cls-54" d="M449.31,236.22c-.41-.29,5.16-3.64,10.16,1A9.69,9.69,0,0,1,449.31,236.22Z"/><path class="cls-54" d="M442.39,248.21c-.45.21-.68-6.28,5.85-8.37A9.69,9.69,0,0,1,442.39,248.21Z"/><path class="cls-54" d="M451.14,243c-.49.1.78-6.27,7.61-6.81A9.69,9.69,0,0,1,451.14,243Z"/><path class="cls-54" d="M452.81,253c-.17.47-5-3.92-1.86-10A9.69,9.69,0,0,1,452.81,253Z"/><path class="cls-54" d="M457.22,245.73c-.49.1.78-6.27,7.61-6.81A9.69,9.69,0,0,1,457.22,245.73Z"/><path class="cls-54" d="M458.9,255.73c-.16.48-5-3.81-2.08-10A9.69,9.69,0,0,1,458.9,255.73Z"/><path class="cls-54" d="M463.06,249.16c-.5,0,2.53-5.79,9.24-4.36A9.69,9.69,0,0,1,463.06,249.16Z"/><path class="cls-54" d="M457.12,258.5c-.48.14.34-6.31,7.11-7.33A9.69,9.69,0,0,1,457.12,258.5Z"/><path class="cls-54" d="M464.26,254.36c-.43-.26,4.79-4.12,10.21.08A9.69,9.69,0,0,1,464.26,254.36Z"/><path class="cls-27" d="M381.57,284.41s17.59-.69,23.67-11.14,6.94-15.52,8.46-22.18c3.26-14.26,10.5-22.35,19.64-23.81s-2.18,4.45-2.18,15.12,4.11,25.35-2.11,37.25-20.13,22.95-29.39,18.22-18.61-7.54-27.36-2.59S381.57,284.41,381.57,284.41Z"/><g class="cls-55"><path class="cls-53" d="M438.6,223.23s-13.45,13.26-15.71,25.61c-2,11,1.55,23-10.13,33.44-8.27,7.39-27.06,5.67-42.85,15.58"/></g><path class="cls-15" d="M354.67,295.27s-8-5-6.27-13,8-12.69,6.53-22.44-9.92-18.13-9-32.79,6.23-29.49,11.23-32.41c2.74-1.61-1,7.3,6.27,21.37s14.89,18.73,8.75,40.28A161,161,0,0,1,354.67,295.27Z"/><g class="cls-56"><path class="cls-53" d="M359.89,190.72s-6.41,6-6.41,26.91c0,12.32,11.64,19.38,11.11,33.46-.29,7.75-12.54,27.7-8.62,42.05"/></g><path class="cls-5" d="M353.48,295.27s7.25-5.81,7.38-17.56,5.33-19.92,13.4-27.62S384.95,236.2,384.95,231s4.45-27.53,17.46-33.07,1.43,9.09,5.89,25,1.94,24.84-3.35,31.93-12.85,11.39-14.55,22.8S377.11,298.62,353.48,295.27Z"/><g class="cls-57"><path class="cls-53" d="M410.6,195.45s-13.31,8.78-13.31,24.23,3.15,19.26-2.72,27.94-18.21,9.72-20.3,25.13-7.84,20.21-17,25.12"/></g><path class="cls-7" d="M375.22,295.14c-27-4.1-91.34-15.62-92.47-14.69-35.44,29.13-81.83,0-81.83,0-32,4-90.55,18.47-102.33,21.42L92.86,312H384.34Z"/><g class="cls-58"><polygon class="cls-15" points="201.81 278.58 156.45 286.07 223.53 330.72 241.78 293.39 201.81 278.58"/></g><g class="cls-58"><polygon class="cls-15" points="283.43 279.21 327.11 286.07 260.02 330.72 241.78 293.39 283.43 279.21"/></g><polygon points="252.84 326.78 250.53 316.37 239.72 292.17 243.83 290.34 254.82 314.95 257.23 325.8 252.84 326.78"/><rect x="222.78" y="302.65" width="28.78" height="4.5" transform="translate(-127.7 431.73) rotate(-71.29)"/><path class="cls-27" d="M241.78,296.9c-3.94,0-7.08-12.16-7.08-16.1s3.14-2.93,7.08-2.93,7.2-1,7.2,2.93S245.72,296.9,241.78,296.9Z"/><ellipse class="cls-4" cx="95.09" cy="46.51" rx="1.57" ry="1.48"/><ellipse class="cls-4" cx="116.98" cy="61.06" rx="0.67" ry="0.72"/><ellipse class="cls-4" cx="32.07" cy="57.83" rx="0.74" ry="0.77"/><circle class="cls-4" cx="26.12" cy="103.82" r="0.9"/><ellipse class="cls-4" cx="30.11" cy="109.64" rx="0.72" ry="0.75"/><path class="cls-5" d="M344.18,7.57S371.46,2.41,396.58,25c0,0-18.14,12.26-58.4-4.34Z"/><path id="SVGID-7" data-name="SVGID" class="cls-6" d="M344.18,7.57S371.46,2.41,396.58,25c0,0-18.14,12.26-58.4-4.34Z"/><g class="cls-59"><path class="cls-35" d="M396.58,25s-52.65-9.53-59.71-11.47L346.27,0l35.8,8.16,16.59,12.55"/></g><path class="cls-17" d="M401,137.57s-3.17,8.42-.89,14.95,2,8-.49,15.23"/><path class="cls-17" d="M411.4,174.48s-2.44,5.54,0,8.31"/><path class="cls-17" d="M413.9,41.86s5.64,12.17,2.7,18.47c-2.16,4.63-3.25,9.93-1.72,13.52"/><path class="cls-17" d="M415.17,118s1.47,6.65-.4,11.72"/><path class="cls-54" d="M446.46,54.72c-.36.49-3.48-7,2.14-12.86A14.13,14.13,0,0,1,446.46,54.72Z"/><path class="cls-54" d="M446.42,55.15c-.17-.58,7.7,1.39,9,9.38A14.13,14.13,0,0,1,446.42,55.15Z"/><path class="cls-54" d="M459.68,53.88c0,.6-7.18-3.12-6.65-11.21A14.13,14.13,0,0,1,459.68,53.88Z"/><path class="cls-54" d="M462.14,44.31c0,.6-7.18-3.12-6.65-11.21A14.13,14.13,0,0,1,462.14,44.31Z"/><path class="cls-54" d="M464.19,35.65c-.21.57-5.33-5.73-1.6-12.94A14.13,14.13,0,0,1,464.19,35.65Z"/><path class="cls-54" d="M459.69,54c-.41-.44,7.52-2.17,12.26,4.41A14.13,14.13,0,0,1,459.69,54Z"/><path class="cls-54" d="M462.18,44.51c-.58-.16,5.27-5.79,12.76-2.68A14.13,14.13,0,0,1,462.18,44.51Z"/><path class="cls-54" d="M464.42,35.79c-.41-.44,7.52-2.15,12.26,4.43A14.13,14.13,0,0,1,464.42,35.79Z"/><path class="cls-54" d="M440.62,56.28c0,.6-7.16-3.16-6.59-11.24A14.14,14.14,0,0,1,440.62,56.28Z"/><path class="cls-54" d="M435.91,59.77c.26.33-5.48.78-8.38-4.06A10.65,10.65,0,0,1,435.91,59.77Z"/><path class="cls-54" d="M440.62,56.4c0-.61,6.93,3.64,5.8,11.67A14.13,14.13,0,0,1,440.62,56.4Z"/><path class="cls-54" d="M444.64,61.05c.4.15-4.31,3.48-9.28.8A10.65,10.65,0,0,1,444.64,61.05Z"/><path class="cls-54" d="M424.92,98.21c-.4-.3,5.24-3.53,10.13,1.26A9.69,9.69,0,0,1,424.92,98.21Z"/><path class="cls-54" d="M435.41,99.29c-.5-.07,2.88-5.62,9.48-3.79A9.69,9.69,0,0,1,435.41,99.29Z"/><path class="cls-54" d="M429.2,110c-.49.1.87-6.26,7.71-6.7A9.69,9.69,0,0,1,429.2,110Z"/><path class="cls-54" d="M439.77,104.23c-.49.1.87-6.26,7.71-6.7A9.69,9.69,0,0,1,439.77,104.23Z"/><path class="cls-54" d="M439.48,114.44c-.26.43-4-4.88.29-10.21A9.69,9.69,0,0,1,439.48,114.44Z"/><path class="cls-54" d="M448.31,113.47c-.26.43-4-4.88.29-10.21A9.69,9.69,0,0,1,448.31,113.47Z"/><path class="cls-54" d="M448.67,103.25c-.41.29-1.8-6.06,4.24-9.29A9.69,9.69,0,0,1,448.67,103.25Z"/><path class="cls-54" d="M454.72,104.6c-.47.17-.11-6.32,6.58-7.81A9.69,9.69,0,0,1,454.72,104.6Z"/><path class="cls-54" d="M451.11,114.41c-.39.32-2.19-5.93,3.63-9.54A9.69,9.69,0,0,1,451.11,114.41Z"/><path class="cls-54" d="M456.86,111.24c-.5-.06,2.69-5.72,9.35-4.11A9.69,9.69,0,0,1,456.86,111.24Z"/><path class="cls-54" d="M447.46,118.86c-.5-.06,2.69-5.72,9.35-4.11A9.69,9.69,0,0,1,447.46,118.86Z"/><path class="cls-54" d="M456.71,116.25c-.4-.31,5.27-3.49,10.12,1.35A9.69,9.69,0,0,1,456.71,116.25Z"/><path class="cls-54" d="M450.67,128.84c-.47.18-.25-6.31,6.4-8A9.69,9.69,0,0,1,450.67,128.84Z"/><path class="cls-54" d="M458.78,122.8c-.43-.25,4.75-4.17,10.21,0A9.69,9.69,0,0,1,458.78,122.8Z"/><path class="cls-54" d="M454.27,132.1c-.5,0,1.58-6.12,8.42-5.78A9.69,9.69,0,0,1,454.27,132.1Z"/><path class="cls-54" d="M464.43,129.11c-.44-.25,4.75-4.17,10.21,0A9.69,9.69,0,0,1,464.43,129.11Z"/><path class="cls-54" d="M456.48,139.06c-.51,0,1.41-6.15,8.35-5.68A9.2,9.2,0,0,1,456.48,139.06Z"/><path class="cls-1" d="M463.05,139.53c2-5.11,1.46-8.92-.11-11.74L462.88,140Z"/><path class="cls-1" d="M435.68,99.1a4.48,4.48,0,0,0,1.21,3.5l.06.05v-5.9A4.41,4.41,0,0,0,435.68,99.1Z"/><path d="M462.95,126v1.79c1.57,2.82,2.09,6.63.11,11.74l-.17.44v2.61q.55-1.22,1.12-2.69C466.46,133.51,465.15,129,462.95,126Z"/><path d="M436.89,102.6a4.48,4.48,0,0,1-1.21-3.5,4.41,4.41,0,0,1,1.26-2.35V95.41a5.81,5.81,0,0,0-2.25,3.53,5.42,5.42,0,0,0,1.42,4.29,3.69,3.69,0,0,0,.83.75v-1.33Z"/><path d="M445.14,104.28c3.65-.57,7.43-1.16,9.59.81s1.79,5.46,1.49,8.89c-.31,3.6-.64,7.33,2,9a13.69,13.69,0,0,1,4.69,4.78V126a15.42,15.42,0,0,0-4.16-3.84c-2.14-1.36-1.86-4.63-1.56-8.09.32-3.68.65-7.47-1.82-9.72s-6.53-1.66-10.42-1.06c-3.39.53-6.59,1-8-.64V104C438.87,105.26,441.93,104.79,445.14,104.28Z"/><path d="M437.71,96.09l-.55-.83-.22.16v1.35A6,6,0,0,1,437.71,96.09Z"/><path class="cls-1" d="M436.93,64.92V59.76a4.07,4.07,0,0,0-.64,1.35A5.44,5.44,0,0,0,436.93,64.92Z"/><path d="M469,34.35l0-1a6.4,6.4,0,0,0-5.59,2.94v2.49A5.63,5.63,0,0,1,469,34.35Z"/><path d="M436.29,61.11a4.08,4.08,0,0,1,.64-1.35V58.27a5.42,5.42,0,0,0-1.61,2.59c-.65,2.52.85,4.91,1.61,5.93V64.92A5.43,5.43,0,0,1,436.29,61.11Z"/><path d="M461.55,45.25c-.15,3-.3,5.74-1.44,7.26-1.51,2-3.64,1.95-6.88,1.86a31.61,31.61,0,0,0-12,1.51,11.67,11.67,0,0,0-4.3,2.39v1.49a9.08,9.08,0,0,1,4.63-2.94,30.83,30.83,0,0,1,11.65-1.46c3.29.08,5.89.15,7.7-2.26,1.33-1.76,1.48-4.7,1.64-7.81a28.37,28.37,0,0,1,.82-6.52V36.29C461.9,38.65,461.71,42.07,461.55,45.25Z"/><path class="cls-54" d="M424.94,180.17c-.39-.31,5.3-3.44,10.11,1.45A9.69,9.69,0,0,1,424.94,180.17Z"/><path class="cls-54" d="M427.65,192.12c-.49.1.87-6.26,7.71-6.7A9.69,9.69,0,0,1,427.65,192.12Z"/><path class="cls-54" d="M438.27,186.78c-.36.35-2.76-5.68,2.68-9.85A9.7,9.7,0,0,1,438.27,186.78Z"/><path class="cls-54" d="M442.09,196c-.08.5-5.58-3-3.66-9.53A9.69,9.69,0,0,1,442.09,196Z"/><path class="cls-54" d="M450.51,192c.09.49-6.25-.9-6.66-7.75A9.69,9.69,0,0,1,450.51,192Z"/><path class="cls-54" d="M443.86,184.27c-.38.33-2.34-5.87,3.38-9.64A9.69,9.69,0,0,1,443.86,184.27Z"/><path class="cls-54" d="M449.93,178.87c-.24.44-4.3-4.62-.33-10.21A9.69,9.69,0,0,1,449.93,178.87Z"/><path class="cls-54" d="M455.57,187.42c0,.5-6.09-1.68-5.63-8.52A9.69,9.69,0,0,1,455.57,187.42Z"/><path class="cls-54" d="M456.29,175.63c-.37.34-2.52-5.79,3.08-9.74A9.69,9.69,0,0,1,456.29,175.63Z"/><path class="cls-54" d="M454.23,185.67c-.33.38-3.17-5.47,1.95-10A9.69,9.69,0,0,1,454.23,185.67Z"/><path class="cls-54" d="M460.69,179.42c-.5-.05,2.68-5.72,9.34-4.12A9.69,9.69,0,0,1,460.69,179.42Z"/><path class="cls-54" d="M458.53,184.42c-.16-.48,6.32,0,7.68,6.73A9.69,9.69,0,0,1,458.53,184.42Z"/><path class="cls-54" d="M447.92,195.67c-.5,0,2.59-5.76,9.28-4.27A9.69,9.69,0,0,1,447.92,195.67Z"/><path class="cls-54" d="M457.21,191.82c-.33-.38,5.83-2.43,9.69,3.23A9.69,9.69,0,0,1,457.21,191.82Z"/><path class="cls-54" d="M448.59,204.33c-.5.08,1.12-6.22,8-6.39A9.69,9.69,0,0,1,448.59,204.33Z"/><path class="cls-54" d="M456.42,198.25c-.33-.38,5.87-2.34,9.63,3.39A9.69,9.69,0,0,1,456.42,198.25Z"/><path class="cls-54" d="M458,206.69c-.49-.11,3.31-5.38,9.75-3A9.69,9.69,0,0,1,458,206.69Z"/><path class="cls-54" d="M451.57,214.53c-.47.18-.27-6.31,6.38-8A9.69,9.69,0,0,1,451.57,214.53Z"/><path class="cls-54" d="M463.5,211.65c-.49-.11,3.31-5.38,9.75-3A9.69,9.69,0,0,1,463.5,211.65Z"/><path class="cls-54" d="M456.51,219.34c-.49.11.64-6.29,7.46-7A9.69,9.69,0,0,1,456.51,219.34Z"/><path class="cls-54" d="M464.57,218.17c-.36-.35,5.62-2.88,9.91,2.46A9.69,9.69,0,0,1,464.57,218.17Z"/><path class="cls-1" d="M464.56,216.48a5,5,0,0,0-2-4.71l0,9.74A8.27,8.27,0,0,0,464.56,216.48Z"/><path class="cls-1" d="M435.24,183.17a3.13,3.13,0,0,0,1.57,2.51,1.48,1.48,0,0,0,.19.1v-5.49A4.46,4.46,0,0,0,435.24,183.17Z"/><path class="cls-7" d="M453.84,184.75a2.85,2.85,0,0,0-.6.07,3.33,3.33,0,0,0-2.48,2.2,1.17,1.17,0,0,0,.52,1.26c1.06.76,3,0,5-1.86a4.74,4.74,0,0,0-.32-.5A2.53,2.53,0,0,0,453.84,184.75Z"/><path d="M436.8,185.68a3.12,3.12,0,0,1-1.57-2.51,4.46,4.46,0,0,1,1.75-2.88V179c-.63.45-2.69,2.06-2.75,4.12a4,4,0,0,0,2,3.35,2.57,2.57,0,0,0,.78.37v-1.07A1.5,1.5,0,0,1,436.8,185.68Z"/><path d="M462.54,210.48v1.29a5,5,0,0,1,2,4.71,8.28,8.28,0,0,1-2.08,5V223a9.8,9.8,0,0,0,3.08-6.44C465.79,213.26,464.26,211.85,462.54,210.48Z"/><path d="M439.08,186.92c3.68-.63,8.92-4.24,10.63-6.76s3.93-3.95,6.23-4a4.86,4.86,0,0,1,4,1.81c1.15,1.52-.56,5.13-2.95,7.72-.07-.12-.15-.24-.24-.35a3.55,3.55,0,0,0-3.72-1.49,4.28,4.28,0,0,0-3.24,3,2.15,2.15,0,0,0,.92,2.28c1.45,1,3.64.41,6-1.68.52,1.79.19,4-.18,6.5-.48,3.23-1,6.9.2,10.58a12.9,12.9,0,0,0,4.92,6.53c.33.26.64.51.93.76v-1.29l-.31-.25a11.89,11.89,0,0,1-4.59-6.06c-1.15-3.45-.62-7-.16-10.11.4-2.71.79-5.3,0-7.42,2.81-2.91,4.9-7.14,3.27-9.29a5.81,5.81,0,0,0-4.81-2.2c-2.63.07-5.13,1.65-7,4.45-1.57,2.31-6.58,5.75-10,6.34a3.13,3.13,0,0,1-1.92-.15v1.07A4.59,4.59,0,0,0,439.08,186.92Zm12.2,1.36a1.17,1.17,0,0,1-.52-1.26,3.33,3.33,0,0,1,2.48-2.2,2.85,2.85,0,0,1,.6-.07,2.53,2.53,0,0,1,2.11,1.16,4.57,4.57,0,0,1,.32.5C454.27,188.31,452.35,189,451.29,188.28Z"/><path class="cls-53" d="M431.29,193.76S411.7,180,410,148.73"/><path class="cls-53" d="M431.29,193.76s-10.9-26.65-10.1-48.06"/><path class="cls-53" d="M433.26,136.4s-3.36,39.74-1.75,56.36"/><path class="cls-53" d="M439.8,144.55s-1.38,33.84-8.29,48.21"/><path class="cls-53" d="M446.48,137.3s1.67,31.45-15.19,56.27"/><path class="cls-53" d="M455.77,135.35s-5,44.1-24.48,58.42"/><circle class="cls-27" cx="410.15" cy="147.86" r="3.18"/><circle class="cls-27" cx="421.22" cy="143.75" r="3.18"/><circle class="cls-27" cx="433.22" cy="135.34" r="3.18"/><circle class="cls-27" cx="439.7" cy="144.95" r="3.18"/><circle class="cls-27" cx="447.1" cy="136.16" r="3.18"/><circle class="cls-27" cx="456.49" cy="132.92" r="3.18"/><path class="cls-1" d="M462.35,249.23l0,7.62C464.54,253.22,463.4,250.6,462.35,249.23Z"/><path d="M462.32,256.86v1.77c2.93-3.83,3.05-7.77.29-10.65l-.23-.21v1.46C463.4,250.6,464.54,253.22,462.32,256.86Z"/><path d="M447.6,231.23c1.85,1.81,1.29,4.06.76,6.24-.49,2-1,4,.76,5.22a25.67,25.67,0,0,0,5.64,2.46c2.78,1,5.66,2,7.12,3.52a6.34,6.34,0,0,1,.48.56v-1.46c-1.66-1.56-4.51-2.58-7.27-3.56a25.17,25.17,0,0,1-5.4-2.34c-1.13-.78-.87-2.09-.36-4.16s1.23-5-1-7.19-7.17-2.1-11.29-1.6v1C440.94,229.43,445.65,229.33,447.6,231.23Z"/><path class="cls-27" d="M408.93,67.64s13.22-.51,13.17,2.67c-.05,3.55-6.2,3.07-5.5,5.64.85,3.13,24-2.9,24,2.57,0,4-9.9,1.13-9.9,5.23s14.55,1.08,14.55,6.88c0,5.62-10.21,6.91-15.31,5-3.62-1.39-5.74-1.47-8.73,2.56s-16.5,3.09-16.8-.62,7.56-2.2,7.56-5.92-9.64-3.35-13.75-3.51c-9.93-.41-9-8.46-3.08-8.64S407.88,79,408,76.74c.2-4.41-9.24-1.67-9.32-5.44C398.6,68.43,403.42,67.64,408.93,67.64Z"/><path class="cls-17" d="M458.91,63.43s-3.17,8.42-.89,14.95,2,8-.49,15.23"/><path class="cls-17" d="M447.11,71.58s1.47,6.65-.4,11.72"/><path class="cls-17" d="M443.92,205.81s-2.44,5.54,0,8.31"/><path class="cls-17" d="M446.22,3.13s-3.17,8.42-.89,14.95,2,8-.49,15.23"/><circle class="cls-4" cx="115.13" cy="26.99" r="3.3"/><circle cx="115.13" cy="26.99" r="1.81"/><circle class="cls-4" cx="127.09" cy="26.99" r="3.3"/><circle cx="127.09" cy="26.99" r="1.81"/><circle class="cls-4" cx="337.18" cy="269.36" r="3.3"/><circle cx="337.18" cy="269.36" r="1.8"/><circle class="cls-4" cx="349.14" cy="269.36" r="3.3"/><circle cx="349.14" cy="269.36" r="1.8"/><path class="cls-27" d="M61,18.38S75.3,15,75.59,19s-10.45,2-10.17,5.91,18.41,1.15,17.89,5.53c-.6,5-23.17,1.55-22.68,8.56s14.49,2.12,14.11,8.09c-.42,6.39-47.06,6.82-46.84-.35.17-5.42,16.61-2.67,15.85-8.84S27.28,37.42,26,30.48s25.16,0,27.11-4.23c2.2-4.74-12.79-2-13.4-6.36-.55-4,4.75-2.69,11.54-4.3C61,13.26,61,18.38,61,18.38Z"/><path class="cls-17" d="M322,31.88s1.47,6.65-.4,11.72"/><ellipse class="cls-4" cx="373.47" cy="152.26" rx="1.18" ry="1.22"/><ellipse class="cls-4" cx="386.09" cy="82.22" rx="0.88" ry="1.08"/><ellipse class="cls-4" cx="431.95" cy="68.98" rx="1.23" ry="1.33"/><ellipse class="cls-4" cx="424.91" cy="203.05" rx="0.51" ry="0.52"/><ellipse class="cls-4" cx="110.34" cy="294.15" rx="1.09" ry="0.87"/><ellipse class="cls-4" cx="310.36" cy="188.2" rx="0.58" ry="0.61"/><ellipse class="cls-4" cx="321.29" cy="217.14" rx="1.24" ry="1.09"/><ellipse class="cls-4" cx="285.18" cy="23.57" rx="0.92" ry="0.86"/><ellipse class="cls-4" cx="428.1" cy="26.5" rx="0.54" ry="0.52"/><path d="M116,260.41a108.55,108.55,0,0,0,2.43-11.1c2.91-18.7-1.21-29.37-1.38-29.81a.75.75,0,0,0-1.39.55c0,.1,4.14,10.73,1.29,29a107.57,107.57,0,0,1-2.4,10.95c-2.7,10.39-4.51,17.41,5.34,36.67l1.5-.36C111.58,277.34,113.34,270.53,116,260.41Z"/></g></g></svg>