<?xml version="1.0" encoding="utf-8"?>
<!-- Generator: Adobe Illustrator 21.0.0, SVG Export Plug-In . SVG Version: 6.00 Build 0)  -->
<svg version="1.1" id="Layer_1" xmlns="http://www.w3.org/2000/svg" xmlns:xlink="http://www.w3.org/1999/xlink" x="0px" y="0px"
	 viewBox="0 0 396.6 634" style="enable-background:new 0 0 396.6 634;" xml:space="preserve">
<style type="text/css">
	.st0{fill:#F1F2F6;}
	.st1{fill:#515151;}
	.st2{fill:#858585;}
	.st3{fill:#73C4E2;}
	.st4{fill:#FBC24D;}
	.st5{fill:#3B72AA;}
	.st6{fill:#1D1D1D;}
	.st7{fill:#203760;}
	.st8{clip-path:url(#SVGID_2_);}
	.st9{clip-path:url(#SVGID_4_);}
	.st10{fill:#ED7129;}
	.st11{clip-path:url(#SVGID_6_);}
	.st12{clip-path:url(#SVGID_8_);}
	.st13{fill:#FFFFFF;}
	.st14{clip-path:url(#SVGID_10_);}
	.st15{clip-path:url(#SVGID_12_);}
	.st16{fill:#77BB68;}
	.st17{fill:#C5F0FF;}
	.st18{clip-path:url(#SVGID_14_);}
	.st19{clip-path:url(#SVGID_16_);}
	.st20{clip-path:url(#SVGID_18_);}
	.st21{clip-path:url(#SVGID_20_);}
	.st22{clip-path:url(#SVGID_22_);}
	.st23{clip-path:url(#SVGID_24_);}
	.st24{clip-path:url(#SVGID_26_);}
	.st25{clip-path:url(#SVGID_28_);}
	.st26{clip-path:url(#SVGID_30_);}
	.st27{clip-path:url(#SVGID_32_);}
	.st28{clip-path:url(#SVGID_34_);}
	.st29{clip-path:url(#SVGID_36_);}
	.st30{clip-path:url(#SVGID_38_);}
	.st31{clip-path:url(#SVGID_40_);}
	.st32{fill:none;stroke:#000000;stroke-width:0.75;}
	.st33{fill:#232323;}
	.st34{fill:none;stroke:#FFFFFF;stroke-width:0.28;stroke-miterlimit:10;}
	.st35{fill:#9CD8FA;}
	.st36{clip-path:url(#SVGID_42_);}
	.st37{fill:none;stroke:#FFFFFF;stroke-width:0.57;stroke-miterlimit:10;}
	.st38{clip-path:url(#SVGID_44_);}
	.st39{clip-path:url(#SVGID_46_);}
</style>
<title>island-1</title>
<g id="Layer_2">
	<g id="Layer_1-2">
		<path class="st0" d="M163.1,162.9c-2.6-0.1-13.1-1.1-12.6,3.9c0.3,3.1,5.2,2.1,5,4.9c-0.2,3-19.6-1.5-21.8,2.7
			c-2.8,5.4,14.4,1.5,15.4,4.4c0.9,2.7-4.5,1.2-4.4,3.8c0.1,3.6,20.1,2.2,22.1,1.4c0.9-0.4-0.2-1.3-0.2-2c0.1-5.1,0-11.2-1.9-16.1
			c-0.4-0.8-0.8-1.6-1-2.5L163.1,162.9z"/>
		<rect x="250.1" y="235.9" class="st1" width="10.6" height="59.9"/>
		<rect x="251.1" y="237.3" class="st2" width="8.6" height="1.6"/>
		<rect x="251.2" y="240.3" class="st2" width="8.6" height="1.6"/>
		<rect x="251.2" y="243.2" class="st2" width="8.6" height="1.6"/>
		<rect x="251.1" y="246.2" class="st2" width="8.6" height="1.6"/>
		<rect x="251.2" y="249.2" class="st2" width="8.6" height="1.6"/>
		<rect x="251.2" y="252.1" class="st2" width="8.6" height="1.6"/>
		<rect x="251.1" y="255.1" class="st2" width="8.6" height="1.6"/>
		<rect x="251.2" y="258.1" class="st2" width="8.6" height="1.6"/>
		<rect x="251.2" y="261" class="st2" width="8.6" height="1.6"/>
		<rect x="251.2" y="264" class="st2" width="8.6" height="1.6"/>
		<rect x="251.2" y="267" class="st2" width="8.6" height="1.6"/>
		<rect x="251.1" y="269.6" class="st2" width="8.6" height="1.6"/>
		<rect x="251.2" y="272.6" class="st2" width="8.6" height="1.6"/>
		<rect x="251.2" y="275.6" class="st2" width="8.6" height="1.6"/>
		<rect x="251.1" y="278.5" class="st2" width="8.6" height="1.6"/>
		<rect x="251.2" y="281.5" class="st2" width="8.6" height="1.6"/>
		<rect x="251.2" y="284.5" class="st2" width="8.6" height="1.6"/>
		<rect x="251.1" y="287.5" class="st2" width="8.6" height="1.6"/>
		<rect x="251.2" y="290.4" class="st2" width="8.6" height="1.6"/>
		<rect x="251.2" y="293.4" class="st2" width="8.6" height="1.6"/>
		<path class="st3" d="M229.9,225.8h3.4 M233.3,255.8h-23.6v-13.4h3.4v-3.4h3.4v-3.4h3.4v-3.3h3.4v-3.4h3.4v-3.3h3.4v-3.3h3.4
			L233.3,255.8L233.3,255.8z"/>
		<rect x="233.3" y="225.4" class="st4" width="16.9" height="47.7"/>
		<path d="M241.7,228.7c2.9,0,5.3,2.4,5.3,5.4l0,0l0,0v15h-10.5v-15l0,0l0,0C236.4,231.1,238.8,228.7,241.7,228.7L241.7,228.7z"/>
		<rect x="193.9" y="246.1" class="st5" width="53" height="76.1"/>
		<rect x="196.8" y="255.8" class="st6" width="13.2" height="63.9"/>
		<ellipse class="st6" cx="203.4" cy="255.8" rx="6.6" ry="6.6"/>
		<rect x="212.5" y="255.8" class="st6" width="13.2" height="63.9"/>
		<ellipse class="st6" cx="219.1" cy="255.8" rx="6.6" ry="6.6"/>
		<rect x="228.2" y="255.8" class="st6" width="13.2" height="63.9"/>
		<ellipse class="st6" cx="234.8" cy="255.8" rx="6.6" ry="6.6"/>
		<path class="st7" d="M203.5,321c0,0,6-17.8,8.8-26.6s7.5-20.5,10.1-20.9s12.9-0.2,21.8-0.3c12.3-0.1,12.2-0.9,15.5,13.3
			s3.6,16.9,4.1,21.2s1.8,28.5,1,41s1.4,15.6-1.9,16.8s-47.3-2-48.7-5.5S203.5,322.1,203.5,321z"/>
		<g>
			<defs>
				<path id="SVGID_1_" d="M203.5,321c0,0,6-17.8,8.8-26.6s7.5-20.5,10.1-20.9s12.9-0.2,21.8-0.3c12.3-0.1,12.2-0.9,15.5,13.3
					s3.6,16.9,4.1,21.2s1.8,28.5,1,41s3.5,39.6,0.3,40.8s-50.3,7.2-51.7,3.8S203.5,322.1,203.5,321z"/>
			</defs>
			<clipPath id="SVGID_2_">
				<use xlink:href="#SVGID_1_"  style="overflow:visible;"/>
			</clipPath>
			<g class="st8">
				<polygon class="st5" points="233.3,356.5 205.1,345.9 208.4,326.5 211.8,326.5 211.8,323.2 215.1,323.2 215.1,319.8 
					218.5,319.8 218.5,316.4 221.9,316.4 221.9,313.1 225.2,313.1 225.2,309.7 228.6,309.7 228.6,306.3 232,306.3 232,303 
					235.4,303 235.4,299.6 235.4,299.6 235.4,299.6 238.8,299.6 238.8,296.2 242.2,296.2 242.2,292.8 245.5,292.8 245.5,289.6 
					248.9,289.6 248.9,286.2 252.3,286.2 252.3,282.9 255.6,282.9 255.6,279.5 264.5,279.6 264.5,313.3 266.2,362.2 				"/>
			</g>
		</g>
		<g>
			<defs>
				<path id="SVGID_3_" d="M203.5,321c0,0,6-17.8,8.8-26.6s7.5-20.5,10.1-20.9s12.9-0.2,21.8-0.3c12.3-0.1,12.2-0.9,15.5,13.3
					s3.6,16.9,4.1,21.2s1.8,28.5,1,41s3.5,39.6,0.3,40.8s-50.3,7.2-51.7,3.8S203.5,322.1,203.5,321z"/>
			</defs>
			<clipPath id="SVGID_4_">
				<use xlink:href="#SVGID_3_"  style="overflow:visible;"/>
			</clipPath>
			<g class="st9">
				<polygon class="st7" points="235.5,393.2 265.9,382.8 265.9,363.5 262.5,363.5 262.5,360.1 259.1,360.1 259.1,356.7 
					255.8,356.7 255.8,353.3 252.4,353.3 252.4,350 249,350 249,346.6 245.6,346.6 245.6,343.2 242.3,343.2 242.3,339.9 
					238.9,339.9 238.9,336.5 235.5,336.5 235.5,336.5 232.2,336.5 232.2,333.1 228.8,333.1 228.8,329.8 225.4,329.8 225.4,326.5 
					221.5,326.5 221.5,323.1 218.7,323.1 218.7,319.8 215.3,319.8 215.3,316.5 204.9,316.5 204.9,350.5 204.9,394.3 				"/>
			</g>
		</g>
		<circle class="st3" cx="241.7" cy="176.7" r="8.4"/>
		<rect x="233.3" y="177.4" class="st10" width="16.9" height="45"/>
		<path class="st3" d="M142.2,375.8c0,0-3-13.6,2.5-31.1s9.9-31.1,12-32.9c1.9-1.6,18.2-0.8,30.4-0.8c12,0,15.6-0.5,16.4,0.7
			s1.5,4.1,4.7,12.7s8.8,28.8,10.9,37.9s-3.5,15.2-11.1,17.6s-24-2.1-24-2.1s-21.8-0.2-27.5-0.2
			C151.7,377.3,146.9,376.7,142.2,375.8z"/>
		<g>
			<defs>
				<path id="SVGID_5_" d="M142.2,375.8c0,0-3-13.6,2.5-31.1s9.9-31.1,12-32.9c1.9-1.6,18.2-0.8,30.4-0.8c12,0,15.6-0.5,16.4,0.7
					s1.5,4.1,4.7,12.7s8.8,28.8,10.9,37.9s-3.5,15.2-11.1,17.6s-24-2.1-24-2.1s-21.8-0.2-27.5-0.2
					C151.7,377.3,146.9,376.7,142.2,375.8z"/>
			</defs>
			<clipPath id="SVGID_6_">
				<use xlink:href="#SVGID_5_"  style="overflow:visible;"/>
			</clipPath>
			<g class="st11">
				<path class="st7" d="M157.7,309.2c0,0,7.9,15,13.8,23.7s23.4,35.9,30.7,50s-65.4-0.8-65.4-0.8l-5-35l16.6-34.4L157.7,309.2z"/>
			</g>
		</g>
		<rect x="160.3" y="278.3" class="st5" width="33.7" height="32.7"/>
		<rect x="160.3" y="274.1" width="33.7" height="4.1"/>
		<rect x="160.3" y="238.5" class="st3" width="33.7" height="35.6"/>
		<rect x="156.8" y="234.4" width="40.7" height="4.3"/>
		<rect x="160.3" y="193.5" class="st4" width="33.7" height="40.9"/>
		<rect x="156.8" y="189.3" width="40.7" height="4.1"/>
		<circle class="st3" cx="177.1" cy="152.4" r="14.6"/>
		<rect x="162.5" y="151.2" width="29.2" height="2.4"/>
		<g>
			<defs>
				<circle id="SVGID_7_" cx="177.1" cy="152.4" r="14.6"/>
			</defs>
			<clipPath id="SVGID_8_">
				<use xlink:href="#SVGID_7_"  style="overflow:visible;"/>
			</clipPath>
			<g class="st12">
				<rect x="177.1" y="135.1" class="st5" width="18.5" height="16.1"/>
			</g>
		</g>
		<rect x="162.5" y="153.1" class="st5" width="29.2" height="36.3"/>
		<circle class="st13" cx="171" cy="181.2" r="3.5"/>
		<circle cx="171" cy="181.2" r="1.9"/>
		<circle class="st13" cx="171" cy="170.7" r="3.5"/>
		<circle cx="171" cy="170.7" r="1.9"/>
		<circle class="st13" cx="171" cy="160.3" r="3.5"/>
		<circle cx="171" cy="160.3" r="1.9"/>
		<ellipse class="st6" cx="177.1" cy="207.7" rx="10.4" ry="10.5"/>
		<rect x="180.1" y="153.1" class="st10" width="11.7" height="36.3"/>
		<rect x="166.8" y="207.9" class="st6" width="20.7" height="26.5"/>
		<g>
			<defs>
				<rect id="SVGID_9_" x="166.8" y="207.9" width="20.7" height="26.5"/>
			</defs>
			<clipPath id="SVGID_10_">
				<use xlink:href="#SVGID_9_"  style="overflow:visible;"/>
			</clipPath>
			<g class="st14">
				<path class="st5" d="M184.8,209.7h3.4 M188.2,239.8h-23.6v-13.4h3.4V223h3.4v-3.4h3.4v-3.3h3.4V213h3.4v-3.3h3.4v-3.3h3.4
					L188.2,239.8L188.2,239.8z"/>
			</g>
		</g>
		<path class="st0" d="M198.9,198c1.4,0,12.6-0.7,12.5,2.7c-0.1,2.9-6,0.6-5.8,4.1c0.2,4.6,23.6-0.7,23.3,6.5s-20,1.7-20.1,5.7
			c0,2.9,5.1,1.2,5.2,4.3s-10.4,3.1-17.4,2.7c-6-0.3-9.1-1.2-9.1-3.9c0-4.5,9-3.5,9.1-8.1c0.1-5.6-13.8-0.5-13.8-6.3
			c0-4.4,9.8-1,11.2-3.4C195.1,200.4,193.3,198,198.9,198z"/>
		<path d="M177.1,246.1c2.9,0,5.3,2.4,5.3,5.4l0,0l0,0v15h-10.5v-15l0,0l0,0C171.8,248.6,174.2,246.2,177.1,246.1z"/>
		<ellipse class="st6" cx="177.1" cy="291.7" rx="10.4" ry="10.5"/>
		<rect x="166.8" y="291" class="st6" width="20.7" height="19.9"/>
		<g>
			<defs>
				<rect id="SVGID_11_" x="166.8" y="291" width="20.7" height="19.9"/>
			</defs>
			<clipPath id="SVGID_12_">
				<use xlink:href="#SVGID_11_"  style="overflow:visible;"/>
			</clipPath>
			<g class="st15">
				<path class="st16" d="M186.2,291h3.2 M189.4,320.2h-22.7v-13h3.2v-3.3h3.2v-3.3h3.2v-3.2h3.2v-3.3h3.2v-3.2h3.2v-3.2h3.2
					L189.4,320.2L189.4,320.2z"/>
			</g>
		</g>
		<path class="st5" d="M178.2,330.5c-0.3-1.1-1.1-7.4,7.6-6s10.3,6.1,9.2,8.5s-9.4,1.7-12.8,0.8S178.6,332,178.2,330.5z"/>
		<path class="st7" d="M190,327.6c-0.5-0.8,1.1-3.1,4.6-2.6s4.9,1.9,3.6,3.5S192.1,331.3,190,327.6z"/>
		<rect x="233.3" y="222.4" width="16.9" height="3"/>
		<path d="M241.7,182.2c2.9,0,5.3,2.4,5.3,5.4l0,0l0,0v35.3h-10.5v-35.3l0,0l0,0C236.4,184.7,238.8,182.3,241.7,182.2L241.7,182.2z"
			/>
		<rect x="181.2" y="154.4" class="st13" width="9.2" height="1.7"/>
		<rect x="181.3" y="157.6" class="st13" width="9.2" height="1.7"/>
		<rect x="181.3" y="160.8" class="st13" width="9.2" height="1.7"/>
		<rect x="181.3" y="164" class="st13" width="9.2" height="1.7"/>
		<rect x="181.3" y="167.2" class="st13" width="9.2" height="1.7"/>
		<rect x="181.3" y="170.4" class="st13" width="9.2" height="1.7"/>
		<rect x="181.3" y="173.6" class="st13" width="9.2" height="1.7"/>
		<rect x="181.3" y="176.8" class="st13" width="9.2" height="1.7"/>
		<rect x="181.3" y="180" class="st13" width="9.2" height="1.7"/>
		<rect x="181.3" y="183.1" class="st13" width="9.2" height="1.7"/>
		<rect x="181.3" y="186.3" class="st13" width="9.2" height="1.7"/>
		<path class="st0" d="M251.1,320.4c18.9,0,37.7-1.3,56.5-0.2c2.5,0.1,12.2,0.9,12.2,4.8c0,5-18,2.5-18.7,6.9
			c-0.6,3.5,8.7,3.6,10.6,3.6c13.7,0,30.2-0.3,43.5,1.9c2.2,0.4,8.3,1.9,7.8,5.3c-0.3,1.9-4.7,3.1-6.3,3c-9.6-0.1-20.3-0.4-29.3-0.4
			c-3.4,0-12.2-0.6-15.1,1.1c-1.7,1-1,2.9,0.7,3.4c2.3,0.6,13.4,0,13.2,4.8c-0.1,2.6-6.4,4.2-10.3,4.6c-13.2,1.6-72.4,3.2-72.9-5.4
			c-0.4-6.1,13.9-4.8,13.7-9.2c-0.1-3.5-27.4,0.3-27.4-7.1c0-4.8,12.1-3.1,15.3-3.4c2.3-0.2,10.9,0.4,10.9-3.1s-6.5-3.2-8.8-4.5
			c-4.6-2.6-0.4-6,3.1-6L251.1,320.4z"/>
		<path class="st17" d="M58.7,519c0,0-37.8-2.2-37.7,6.2s14.3,5.2,14,11.6s-35.9,1.5-35,21.1c1,20.6,41.1,6.8,41.5,20.3
			c0.3,12.5-37,8-34.3,23.8c3,17.8,76-8.9,79.3,4.4c2,8-14.9,8.4-13.1,18.7c2.1,12,41.3,11.9,63.1-1.1c13.8-8.2,20.6-21.2,35.8-25.6
			s26.1,1.7,40.3,16.3s28.6,17.6,40.4,9.6c10.5-7.1,17.6-27.2,30.9-27.2c13.9,0,17.5,10.9,30.6,20.2s36.5,11.3,42,1.1
			s-6.4-19.3-10.9-26s-3.3-12.4,6.2-15.5s24-2.4,29.6-2.5c4.4-0.1,13.9-0.1,15-5.8c1.4-7.3-7.8-9.2-26.9-11s-27.5-4.8-26.5-11.1
			c1.5-9.7,35.7-7.2,35.3-16.3c-0.4-9.6-43.9-11.1-57.5-11.1L58.7,519z"/>
		<polygon class="st3" points="205,394.3 287.4,394.3 287.4,506.7 204.9,513.3 		"/>
		<rect x="223.7" y="405.1" width="13.2" height="63.9"/>
		<ellipse cx="230.3" cy="405.1" rx="6.6" ry="6.6"/>
		<rect x="239.4" y="405.1" width="13.2" height="63.9"/>
		<ellipse cx="245.9" cy="405.1" rx="6.6" ry="6.6"/>
		<rect x="255" y="405.1" width="13.2" height="63.9"/>
		<ellipse cx="261.6" cy="405.1" rx="6.6" ry="6.6"/>
		<rect x="270.7" y="405.1" width="13.2" height="63.9"/>
		<ellipse cx="277.3" cy="405.1" rx="6.6" ry="6.6"/>
		<polygon points="208.1,405 221.2,405 221.2,506.7 208,510.3 		"/>
		<path class="st7" d="M259.2,425c0,0-28.7,11.2-30,12s-10.2,35.2-12.3,44.4s-4.4,19.6-4.9,24.3s32.2,1.6,32.2,1.6l11.4-57.2
			L259.2,425z"/>
		<g>
			<defs>
				<path id="SVGID_13_" d="M259.2,425c0,0-28.7,11.2-30,12s-10.2,35.2-12.3,44.4s-4.4,19.6-4.9,24.3s32.2,1.6,32.2,1.6l11.4-57.2
					L259.2,425z"/>
			</defs>
			<clipPath id="SVGID_14_">
				<use xlink:href="#SVGID_13_"  style="overflow:visible;"/>
			</clipPath>
			<g class="st18">
				<path class="st5" d="M212.4,479.4c0,0,20.7-5,22.1,1.4s-16.3,11.5-21.7,9.2S212.4,479.4,212.4,479.4z"/>
			</g>
		</g>
		<path class="st5" d="M236.5,498.7c0,0,8.4-33,12.3-46.2s14-42,15.3-44.3c0.7-1.2,11.6-0.7,18.6-0.7c2.6,0,14.7,46.6,16.8,56.5
			s6.4,24.1,8,44.1c1.6,20-5.8,13.2-6.8,14.5S235.1,532,236.5,498.7z"/>
		<g>
			<defs>
				<path id="SVGID_15_" d="M236.5,498.7c0,0,8.4-33,12.3-46.2s14-42,15.3-44.3c0.7-1.2,11.6-0.7,18.6-0.7
					c2.6,0,14.7,46.6,16.8,56.5s6.4,24.1,8,44.1c1.6,20-5.8,13.2-6.8,14.5S235.1,532,236.5,498.7z"/>
			</defs>
			<clipPath id="SVGID_16_">
				<use xlink:href="#SVGID_15_"  style="overflow:visible;"/>
			</clipPath>
			<g class="st19">
				<path class="st7" d="M292.8,425.5c0,0-13.7-2.5-13.7,5.1s12.2,3.8,15.6,3.8S292.8,425.5,292.8,425.5z"/>
			</g>
		</g>
		<g>
			<defs>
				<path id="SVGID_17_" d="M236.5,498.7c0,0,8.4-33,12.3-46.2s14-42,15.3-44.3c0.7-1.2,11.6-0.7,18.6-0.7
					c2.6,0,14.7,46.6,16.8,56.5s6.4,24.1,8,44.1c1.6,20-5.8,13.2-6.8,14.5S235.1,532,236.5,498.7z"/>
			</defs>
			<clipPath id="SVGID_18_">
				<use xlink:href="#SVGID_17_"  style="overflow:visible;"/>
			</clipPath>
			<g class="st20">
				<path class="st7" d="M252.7,466.5c0,0,6.2-4.2,7.3,1s-6.9,6.4-8.1,2.4S251.9,467.2,252.7,466.5z"/>
			</g>
		</g>
		<g>
			<defs>
				<path id="SVGID_19_" d="M236.5,498.7c0,0,8.4-33,12.3-46.2s14-42,15.3-44.3c0.7-1.2,11.6-0.7,18.6-0.7
					c2.6,0,14.7,46.6,16.8,56.5s6.4,24.1,8,44.1c1.6,20-5.8,13.2-6.8,14.5S235.1,532,236.5,498.7z"/>
			</defs>
			<clipPath id="SVGID_20_">
				<use xlink:href="#SVGID_19_"  style="overflow:visible;"/>
			</clipPath>
			<g class="st21">
				<path class="st3" d="M299.3,451c0,0-12.7-2.6-15.9,6s-1.3,9.5,4.8,9.4s10.4-0.4,14.5-0.8S299.3,451,299.3,451z"/>
			</g>
		</g>
		<g>
			<defs>
				<path id="SVGID_21_" d="M236.5,498.7c0,0,8.4-33,12.3-46.2s14-42,15.3-44.3c0.7-1.2,11.6-0.7,18.6-0.7
					c2.6,0,14.7,46.6,16.8,56.5s6.4,24.1,8,44.1c1.6,20-5.8,13.2-6.8,14.5S235.1,532,236.5,498.7z"/>
			</defs>
			<clipPath id="SVGID_22_">
				<use xlink:href="#SVGID_21_"  style="overflow:visible;"/>
			</clipPath>
			<g class="st22">
				<path class="st3" d="M244.6,455.2c0,0,14.8-2.2,15.4,6.2s-15.1,6.1-18,4.3S244.6,455.2,244.6,455.2z"/>
			</g>
		</g>
		<g>
			<defs>
				<path id="SVGID_23_" d="M236.5,498.7c0,0,8.4-33,12.3-46.2s14-42,15.3-44.3c0.7-1.2,11.6-0.7,18.6-0.7
					c2.6,0,14.7,46.6,16.8,56.5s6.4,24.1,8,44.1c1.6,20-5.8,13.2-6.8,14.5S235.1,532,236.5,498.7z"/>
			</defs>
			<clipPath id="SVGID_24_">
				<use xlink:href="#SVGID_23_"  style="overflow:visible;"/>
			</clipPath>
			<g class="st23">
				<path class="st7" d="M302.7,470.8c0,0-9.2-1-8.8,3.6s7.9,2.5,10.9,2.2S302.7,470.8,302.7,470.8z"/>
			</g>
		</g>
		<g>
			<defs>
				<path id="SVGID_25_" d="M236.5,498.7c0,0,8.4-33,12.3-46.2s14-42,15.3-44.3c0.7-1.2,11.6-0.7,18.6-0.7
					c2.6,0,14.7,46.6,16.8,56.5s6.4,24.1,8,44.1c1.6,20-5.8,13.2-6.8,14.5S235.1,532,236.5,498.7z"/>
			</defs>
			<clipPath id="SVGID_26_">
				<use xlink:href="#SVGID_25_"  style="overflow:visible;"/>
			</clipPath>
			<g class="st24">
				<path class="st3" d="M304,475.5c0,0-15.1-1.2-14.9,5s11.1,4.4,14.9,3.2S304,475.5,304,475.5z"/>
			</g>
		</g>
		<path class="st17" d="M268.3,407.4l-1.7,94.4l9.1,1l-0.9-95.4c0,0-0.7-0.6-3.1-0.6C269.1,406.6,268.3,407.4,268.3,407.4z"/>
		<path class="st5" d="M232.2,456c0,0,0.2-1.3,2.5-1.3s2.4,2.2,0.5,2.5S232.1,457.1,232.2,456z"/>
		<ellipse cx="214.6" cy="404.9" rx="6.6" ry="6.6"/>
		<rect x="265.5" y="313.4" class="st4" width="21.9" height="37.2"/>
		<rect x="265.5" y="350.6" class="st5" width="21.9" height="21.9"/>
		<path class="st3" d="M134.9,335.9h22.6c0,0,7,39.8,8.3,59.4s-3.9,77.3-6.9,93.2s-18.8,34-18.8,34s-8.3-16-8.3-18.1
			s-0.9-58.6-1.3-72s-3.7-73.2-2.2-77.8C130,350,134.9,335.9,134.9,335.9z"/>
		<g>
			<defs>
				<path id="SVGID_27_" d="M135.3,336l22.2-0.1c0,0,7,39.8,8.3,59.4s-3.9,77.3-6.9,93.2s-18.8,34-18.8,34s-8.3-16-8.3-18.1
					s-0.9-58.6-1.3-72s-3.7-73.2-2.2-77.8C130,350,135.3,336,135.3,336z"/>
			</defs>
			<clipPath id="SVGID_28_">
				<use xlink:href="#SVGID_27_"  style="overflow:visible;"/>
			</clipPath>
			<g class="st25">
				<path class="st5" d="M157.5,335.9c0,0-22.3,166.9-23,170.3s0,21,0,21l22.6-6.3l15.6-67.9l3.9-50.6l-1.6-38.7L157.5,335.9z"/>
			</g>
		</g>
		<ellipse class="st3" cx="182.1" cy="371.7" rx="22.8" ry="22.3"/>
		<g>
			<defs>
				<ellipse id="SVGID_29_" cx="182.1" cy="371.7" rx="22.8" ry="22.3"/>
			</defs>
			<clipPath id="SVGID_30_">
				<use xlink:href="#SVGID_29_"  style="overflow:visible;"/>
			</clipPath>
			<g class="st26">
				<rect x="182.4" y="348.1" class="st5" width="29" height="28.2"/>
			</g>
		</g>
		<path class="st3" d="M156.3,473.3c0,0-9.3-2.1-12.2,1.4s-2.9,6.8,3.1,7.5s5.8,0.2,8.8-0.2S156.3,473.3,156.3,473.3z"/>
		<path class="st10" d="M159.3,428.6c0,0-5.2,53.6-6.1,61.1s36,40,36,40l15.8-15.5v-85.7L159.3,428.6z"/>
		<path class="st3" d="M91.2,381.8c-0.1-3.7,0-7.3,0.4-10.9c1.3-12.8,4.9-33.3,9.9-34.9c7-2.3,33.4,0,33.4,0v41L91.2,381.8z"/>
		<circle class="st10" cx="129.5" cy="266.4" r="2.6"/>
		<ellipse class="st5" cx="129.5" cy="286.9" rx="28" ry="18.6"/>
		<rect x="101.6" y="287.9" class="st5" width="56" height="13.1"/>
		<rect x="101.6" y="301" class="st3" width="56" height="34.9"/>
		<polygon class="st5" points="91.2,376.3 94.7,376.3 94.7,372.9 98.2,372.9 98.2,369.6 101.7,369.6 101.7,366.2 105.1,366.2 
			105.1,362.8 108.6,362.8 108.6,362.8 108.6,359.5 112.1,359.5 112.1,356.1 115.5,356.1 115.5,352.7 119,352.7 119,352.7 
			119,349.4 122.5,349.4 122.5,346 125.9,346 125.9,342.6 129.4,342.6 129.4,339.2 132.9,339.2 132.9,335.9 134.9,335.9 
			134.9,339.2 134.9,395.2 91.2,395.2 91.2,384.7 		"/>
		<rect x="91.2" y="395.2" class="st3" width="21.7" height="85.3"/>
		<polygon class="st16" points="138.2,324.9 138.2,335.9 130.6,335.9 130.6,335.9 101.6,335.9 101.6,301 113.4,301 113.4,304.3 
			116.9,304.3 116.9,307.7 120.4,307.7 120.4,311 124,311 124,314.4 127.5,314.4 127.5,317.9 130.9,317.9 130.9,321.4 134.9,321.4 
			134.9,324.9 		"/>
		<g>
			<defs>
				<polygon id="SVGID_31_" points="138.2,324.9 138.2,335.9 130.6,335.9 130.6,335.9 101.6,335.9 101.6,301 113.4,301 113.4,304.3 
					116.9,304.3 116.9,307.7 120.4,307.7 120.4,311 124,311 124,314.4 127.5,314.4 127.5,317.9 130.9,317.9 130.9,321.4 
					134.9,321.4 134.9,324.9 				"/>
			</defs>
			<clipPath id="SVGID_32_">
				<use xlink:href="#SVGID_31_"  style="overflow:visible;"/>
			</clipPath>
			<g class="st27">
				<path d="M109.4,317.7c2.5,0,4.4,2,4.4,4.5l0,0l0,0v15.3H105v-15.3l0,0l0,0C105,319.8,107,317.7,109.4,317.7L109.4,317.7z"/>
			</g>
		</g>
		<g>
			<defs>
				<polygon id="SVGID_33_" points="138.2,324.9 138.2,335.9 130.6,335.9 130.6,335.9 101.6,335.9 101.6,301 113.4,301 113.4,304.3 
					116.9,304.3 116.9,307.7 120.4,307.7 120.4,311 124,311 124,314.4 127.5,314.4 127.5,317.9 130.9,317.9 130.9,321.4 
					134.9,321.4 134.9,324.9 				"/>
			</defs>
			<clipPath id="SVGID_34_">
				<use xlink:href="#SVGID_33_"  style="overflow:visible;"/>
			</clipPath>
			<g class="st28">
				<path d="M121.7,317.7c2.5,0,4.4,2,4.4,4.5l0,0l0,0v15.3h-8.8v-15.3l0,0l0,0C117.3,319.8,119.3,317.7,121.7,317.7L121.7,317.7z"
					/>
			</g>
		</g>
		<rect x="91.2" y="414.8" class="st5" width="21.7" height="85.3"/>
		<path class="st16" d="M108.6,539.8c0,0,17.7-0.9,23.7-20.3s10.2-33.7,25.2-32.9s18.1,19.4,20.4,32c2.4,12.7,1.8,26.7,2.4,37.4
			s-43.8,0-43.8,0l-27.2-5.4L108.6,539.8z"/>
		<rect x="134.9" y="316.1" class="st4" width="22.6" height="19.8"/>
		<polygon class="st5" points="91.2,417 91.2,398.6 91.2,398.6 91.2,395.2 94.8,395.2 94.8,398.6 98.3,398.6 98.3,401.9 
			101.8,401.9 101.8,405.3 105.3,405.3 105.3,408.6 108.8,408.6 108.8,412.1 112.3,412.1 112.3,417 		"/>
		<path class="st16" d="M174.6,523.8c0,0,12.3,3.7,20.9-2s17.9-23.5,26.4-23.8c18.4-0.6,72.7,1,78.5,3.2
			c7.4,2.7,14.2,23.3,14.1,39.9s-15,26.4-15,26.4L199.2,556l-24.7,4.2L174.6,523.8L174.6,523.8z"/>
		<rect x="91.2" y="503.3" class="st4" width="43.7" height="47.3"/>
		<path class="st5" d="M134.3,544.5c0.4-2,0.8-8.2,6.4-10.7s23.3,2.7,16.2,16S132.8,549.6,134.3,544.5z"/>
		<path class="st3" d="M54.8,558.2c0.6-2.4,1.2-11.7,13-14.8s24.3-6.2,31.1,4.7s0,16.7-12.9,17.7C53.2,568.3,54.2,561.1,54.8,558.2z
			"/>
		<path class="st3" d="M136.8,562.8c0.7-4.3,4.5-14.3,14.6-17.6s25.3,4.4,22.9,15.8s-21.1,12.2-29.9,7.7S136.3,565.9,136.8,562.8z"
			/>
		<path class="st3" d="M183.2,558.7c-1-2.5-2.1-12.5,4.1-15.1s10.1,1,7,12.5S183.6,559.7,183.2,558.7z"/>
		<path class="st7" d="M191.8,556c1.9-6.8,7.3-12.2,14.1-14c11.9-3.4,29-4,34.8,7.7s-8.7,18.1-27.7,16.8S190,561.7,191.8,556z"/>
		<path class="st5" d="M224.1,571.2c0.3-2.4,3.3-13.3,14.8-10.5s8.8,12.3,5.1,15.2S222.9,581.8,224.1,571.2z"/>
		<path class="st7" d="M293.8,542c0.7-1,11.1-3,15.3,5.5s5.6,9.4-1.1,13.6S285.8,553.8,293.8,542z"/>
		<path class="st3" d="M302.8,545.2c0-4.1,5.1-10,12.6-6.6s9,9.8,6,16.7S302.7,553,302.8,545.2z"/>
		<path class="st5" d="M294.9,559.1c1.7-5.4,6.5-10.8,19.4-8.8s16.2,13.6,14.4,21.9s-24.8,1.4-30.1-2.4
			C293,565.8,293.7,563.1,294.9,559.1z"/>
		<path class="st5" d="M180.9,557.7c0,0,8-9.2,17.9-2.5s9.2,17.6,0.3,17.5S177.6,567.9,180.9,557.7z"/>
		<rect x="112.3" y="409.9" class="st16" width="22.6" height="22.3"/>
		<rect x="112.3" y="432.3" class="st4" width="22.6" height="21.7"/>
		<rect x="112.3" y="395.2" class="st4" width="22.6" height="14.7"/>
		<path d="M118,397.7c1.5,0,2.7,1.3,2.7,2.8c0,0,0,0,0,0l0,0l0,0v7.7h-5.4v-7.7l0,0l0,0C115.3,398.9,116.5,397.7,118,397.7
			C118,397.7,118,397.7,118,397.7z"/>
		<path d="M100.6,377.5c2.3,0,4.1,1.9,4.1,4.2c0,0,0,0,0,0l0,0l0,0v11.7h-8.2v-11.7l0,0l0,0C96.5,379.4,98.3,377.5,100.6,377.5
			C100.6,377.5,100.6,377.5,100.6,377.5z"/>
		<path d="M128.8,397.7c1.5,0,2.7,1.3,2.7,2.8c0,0,0,0,0,0l0,0l0,0v7.7h-5.4v-7.7l0,0l0,0C126.1,398.9,127.3,397.7,128.8,397.7
			C128.8,397.7,128.8,397.7,128.8,397.7z"/>
		<rect x="117" y="420.3" class="st6" width="13.2" height="12"/>
		<ellipse class="st6" cx="123.6" cy="420.2" rx="6.6" ry="6.6"/>
		<rect x="117" y="442.1" class="st6" width="13.2" height="12"/>
		<ellipse class="st6" cx="123.6" cy="442.1" rx="6.6" ry="6.6"/>
		<circle class="st13" cx="130.1" cy="383" r="2.2"/>
		<circle cx="130.1" cy="383" r="1.2"/>
		<circle class="st13" cx="123.6" cy="383" r="2.2"/>
		<circle cx="123.6" cy="383" r="1.2"/>
		<circle class="st13" cx="117.1" cy="383" r="2.2"/>
		<circle cx="117.1" cy="383" r="1.2"/>
		<path d="M123.6,360.7c2.5,0,4.4,2,4.4,4.5l0,0l0,0v12.6h-8.8v-12.5l0,0l0,0C119.1,362.8,121.1,360.8,123.6,360.7
			C123.6,360.7,123.6,360.7,123.6,360.7z"/>
		<path d="M107.5,417.2c0,1.7-1.4,3.1-3.2,3.1c0,0,0,0,0,0h-8.9v-6.3h8.9C106.1,414.1,107.5,415.5,107.5,417.2z"/>
		<path d="M107.5,426.3c0,1.7-1.4,3.1-3.2,3.1c0,0,0,0,0,0h-8.9v-6.3h8.9C106.1,423.1,107.5,424.5,107.5,426.3z"/>
		<rect x="91.2" y="454.1" class="st5" width="43.7" height="49.2"/>
		<path d="M99.9,461.6c2,0,3.7,1.7,3.6,3.7c0,0,0,0,0,0l0,0l0,0v10.4h-7.3v-10.3l0,0l0,0C96.2,463.4,97.9,461.7,99.9,461.6
			C99.9,461.6,99.9,461.6,99.9,461.6z"/>
		<path d="M126.2,461.6c2,0,3.7,1.7,3.6,3.7c0,0,0,0,0,0l0,0l0,0v10.4h-7.3v-10.3l0,0l0,0C122.6,463.4,124.2,461.7,126.2,461.6
			C126.2,461.6,126.2,461.6,126.2,461.6z"/>
		<path d="M113.1,461.6c2,0,3.7,1.7,3.6,3.7c0,0,0,0,0,0l0,0l0,0v10.4h-7.3v-10.3l0,0l0,0C109.4,463.4,111.1,461.7,113.1,461.6
			C113.1,461.7,113.1,461.7,113.1,461.6L113.1,461.6z"/>
		<circle class="st13" cx="125.8" cy="487.6" r="4.2"/>
		<circle cx="125.8" cy="487.6" r="2.3"/>
		<circle class="st13" cx="113.1" cy="487.6" r="4.2"/>
		<circle cx="113.1" cy="487.6" r="2.3"/>
		<circle class="st13" cx="100.3" cy="487.6" r="4.2"/>
		<circle cx="100.3" cy="487.6" r="2.3"/>
		<polygon class="st10" points="112.3,435.6 112.3,432.3 108.8,432.3 108.8,435.6 105.3,435.6 105.3,439 101.9,439 101.9,442.4 
			98.4,442.4 98.4,445.7 94.9,445.7 94.9,449.1 91.2,449.1 91.2,452.5 94.9,452.5 94.9,454.1 112.3,454.1 		"/>
		<path d="M146.7,319.4c1.9,0,3.4,1.6,3.4,3.5l0,0l0,0v9.7h-6.8v-9.7l0,0l0,0C143.3,320.9,144.8,319.4,146.7,319.4L146.7,319.4z"/>
		<path d="M165,436.4c1.5,0,2.7,1.3,2.7,2.8c0,0,0,0,0,0l0,0l0,0v7.7h-5.4v-7.7l0,0l0,0C162.3,437.7,163.5,436.4,165,436.4
			C165,436.4,165,436.4,165,436.4z"/>
		<path d="M165,452.8c1.5,0,2.7,1.3,2.7,2.8c0,0,0,0,0,0l0,0l0,0v7.7h-5.4v-7.7l0,0l0,0C162.3,454,163.5,452.8,165,452.8
			C165,452.8,165,452.8,165,452.8z"/>
		<path d="M165,469.1c1.5,0,2.7,1.3,2.7,2.8c0,0,0,0,0,0l0,0l0,0v7.7h-5.4v-7.7l0,0l0,0C162.3,470.4,163.5,469.1,165,469.1
			C165,469.1,165,469.1,165,469.1z"/>
		<path d="M106.2,282.9c2.6,0,4.7,2.2,4.7,4.7c0,0,0,0,0,0l0,0l0,0V301h-9.3v-13.3l0,0l0,0C101.5,285.1,103.6,283,106.2,282.9
			C106.2,283,106.2,283,106.2,282.9L106.2,282.9z"/>
		<path d="M117.9,282.9c2.6,0,4.7,2.2,4.7,4.7c0,0,0,0,0,0l0,0l0,0V301h-9.3v-13.3l0,0l0,0C113.2,285.1,115.3,283,117.9,282.9
			C117.9,283,117.9,283,117.9,282.9L117.9,282.9z"/>
		<path d="M129.5,282.9c2.6,0,4.7,2.2,4.6,4.7c0,0,0,0,0,0l0,0l0,0V301h-9.3v-13.3l0,0l0,0C124.9,285.1,126.9,283,129.5,282.9
			C129.5,283,129.5,283,129.5,282.9L129.5,282.9z"/>
		<path d="M141.2,282.9c2.6,0,4.7,2.2,4.6,4.7c0,0,0,0,0,0l0,0l0,0V301h-9.3v-13.3l0,0l0,0C136.5,285.1,138.6,283,141.2,282.9
			C141.2,282.9,141.2,282.9,141.2,282.9z"/>
		<path d="M152.9,282.9c2.6,0,4.7,2.2,4.6,4.7c0,0,0,0,0,0l0,0l0,0V301h-9.3v-13.3l0,0l0,0C148.2,285.1,150.3,283,152.9,282.9
			C152.9,283,152.9,283,152.9,282.9L152.9,282.9z"/>
		<path class="st5" d="M143.3,361.9c-2.6-0.8-6.1-1.5-5.6-5.2s3.1-3.7,7.3-3s5.5,2.1,4.8,4.9c-0.8,2.7-3.7,4.2-6.4,3.4
			C143.4,361.9,143.4,361.9,143.3,361.9z"/>
		<path class="st7" d="M147.7,366.7c-2.7,0.5-6.2-2.5-3.5-4.8s4.5-2.8,5.7,0.2S150.4,366.1,147.7,366.7z"/>
		<path class="st5" d="M142.4,401.4c-2.7-0.3-3.9-1.2-2.5-3.7s4.9-1.5,5.4,1S144.3,401.4,142.4,401.4z"/>
		<path class="st3" d="M166.1,388.8c0,0-6.1,1.9-9.2-0.9s-1.6-9.8,8.1-7.7S166.1,388.8,166.1,388.8z"/>
		<path class="st3" d="M154,434.4c-1.9,0.1-4.7-0.8-4.7-3.8s1.2-3,4.6-3s3.3,3.3,3,4.7C156.5,433.6,155.3,434.5,154,434.4z"/>
		<path class="st3" d="M146.7,448.8c1.7-0.6,3.6,0,4.8,1.4c1.9,2.3,2.2,4.4,0.3,5.1c-2.5,0.9-6,1.5-7.1-0.5
			C143.4,453,142.4,449.4,146.7,448.8z"/>
		<path class="st7" d="M141.7,446.4c0,0,4.4-1.1,6,1.4s0.1,1.8-3.8,2.5S137.4,447.4,141.7,446.4z"/>
		<rect x="159.3" y="394.3" class="st4" width="45.6" height="34.3"/>
		<path d="M196.5,437.1c1.5,0,2.7,1.3,2.7,2.8c0,0,0,0,0,0l0,0l0,0v7.7h-5.4v-7.7l0,0l0,0C193.8,438.3,195,437.1,196.5,437.1
			C196.5,437.1,196.5,437.1,196.5,437.1z"/>
		<path d="M196.5,453.4c1.5,0,2.7,1.3,2.7,2.8c0,0,0,0,0,0l0,0l0,0v7.7h-5.4v-7.7l0,0l0,0C193.8,454.7,195,453.4,196.5,453.4
			C196.5,453.4,196.5,453.4,196.5,453.4z"/>
		<path d="M196.5,469.8c1.5,0,2.7,1.3,2.7,2.8c0,0,0,0,0,0l0,0l0,0v7.7h-5.4v-7.7l0,0l0,0C193.8,471,195,469.8,196.5,469.8
			C196.5,469.8,196.5,469.8,196.5,469.8z"/>
		<rect x="159.3" y="374.2" class="st5" width="45.7" height="20"/>
		<path d="M182.1,404.3c7.9,0.1,14.4,6.4,14.7,14.3h-29.4C167.6,410.4,174.3,404.7,182.1,404.3z"/>
		<path d="M198.1,379c1.5,0,2.7,1.3,2.7,2.8c0,0,0,0,0,0l0,0l0,0v7.7h-5.4v-7.7l0,0l0,0C195.4,380.3,196.6,379,198.1,379
			C198.1,379,198.1,379,198.1,379z"/>
		<path d="M172.2,376.6c3,0,5.5,2.5,5.4,5.5l0,0l0,0v12.1h-10.8v-12.1l0,0l0,0C166.7,379.1,169.2,376.7,172.2,376.6
			C172.2,376.6,172.2,376.6,172.2,376.6L172.2,376.6z"/>
		<path d="M186.6,376.6c3,0,5.5,2.5,5.4,5.5l0,0l0,0v12.1h-10.8v-12.1l0,0l0,0C181.2,379.1,183.6,376.7,186.6,376.6
			C186.6,376.6,186.6,376.6,186.6,376.6L186.6,376.6z"/>
		<rect x="159.3" y="394.3" class="st13" width="45.7" height="2.9"/>
		<path class="st17" d="M175.6,418.6c0,0-3.7,158.1-4.9,170.6s16.5,2.7,16.5,2.7l1-173.2c-2-0.8-4.1-1.1-6.2-1
			C179.8,417.4,177.7,417.8,175.6,418.6z"/>
		<rect x="204.9" y="334" class="st4" width="16.9" height="60.3"/>
		<path d="M213.4,338.2c2.9,0,5.3,2.4,5.3,5.4l0,0l0,0l-0.2,50.6H208l0.1-50.6l0,0l0,0C208.1,340.7,210.5,338.3,213.4,338.2
			L213.4,338.2z"/>
		<g>
			<defs>
				<path id="SVGID_35_" d="M213.4,338.2c2.9,0,5.3,2.4,5.3,5.4l0,0l0,0l-0.2,50.6H208l0.1-50.6l0,0l0,0
					C208.1,340.7,210.5,338.3,213.4,338.2L213.4,338.2z"/>
			</defs>
			<clipPath id="SVGID_36_">
				<use xlink:href="#SVGID_35_"  style="overflow:visible;"/>
			</clipPath>
			<g class="st29">
				<polygon class="st7" points="197.1,369.5 199.3,369.5 199.3,367.4 201.4,367.4 201.4,365.3 203.6,365.3 203.6,363.2 
					205.8,363.2 205.8,361.1 207.9,361.1 207.9,361.1 207.9,359 210.1,359 210.1,356.9 212.2,356.9 212.2,354.8 214.4,354.8 
					214.4,354.8 214.4,352.7 216.6,352.7 216.6,350.6 218.7,350.6 218.7,348.5 220.9,348.5 220.9,346.4 223,346.4 223,344.3 
					224.3,344.3 224.3,346.4 224.3,381.2 197.1,381.2 197.1,374.7 				"/>
			</g>
		</g>
		<g>
			<defs>
				<path id="SVGID_37_" d="M213.4,338.2c2.9,0,5.3,2.4,5.3,5.4l0,0l0,0l-0.2,50.6H208l0.1-50.6l0,0l0,0
					C208.1,340.7,210.5,338.3,213.4,338.2L213.4,338.2z"/>
			</defs>
			<clipPath id="SVGID_38_">
				<use xlink:href="#SVGID_37_"  style="overflow:visible;"/>
			</clipPath>
			<g class="st30">
				<polygon class="st5" points="229.7,388.5 227.5,388.5 227.5,386.4 225.4,386.4 225.4,384.3 223.2,384.3 223.2,382.2 221,382.2 
					221,380.1 218.9,380.1 218.9,378 216.7,378 216.7,375.9 214.6,375.9 214.6,373.8 212.4,373.8 212.4,371.7 210.2,371.7 
					210.2,369.6 208.1,369.6 208.1,367.5 205.9,367.5 205.9,365.4 203.8,365.4 203.8,363.4 202.5,363.4 202.5,365.4 202.5,400.2 
					229.7,400.2 229.7,393.7 				"/>
			</g>
		</g>
		<polygon class="st16" points="221.8,391 225.3,391 225.3,387.6 228.8,387.6 228.8,384.3 232.3,384.3 232.3,380.9 235.8,380.9 
			235.8,377.5 239.2,377.5 239.2,377.5 239.2,374.2 242.7,374.2 242.7,370.8 246.2,370.8 246.2,367.4 249.6,367.4 249.6,367.4 
			249.6,364.1 253.1,364.1 253.1,360.7 256.6,360.7 256.6,357.3 260,357.3 260,354 263.5,354 263.5,350.6 265.5,350.6 265.5,354 
			265.4,394.3 221.8,394.3 		"/>
		<path d="M260,384.6c0,2-1.7,3.7-3.7,3.6c0,0,0,0,0,0h-10.4V381h10.4C258.3,381,260,382.6,260,384.6C260,384.6,260,384.6,260,384.6
			z"/>
		<rect x="265.5" y="375.2" class="st5" width="22" height="19.1"/>
		<rect x="265.5" y="372.5" width="42.2" height="2.7"/>
		<path d="M276.8,376.9c2.5,0,4.5,2.1,4.5,4.6l0,0l0,0v12.8h-9v-12.7l0,0l0,0C272.3,379,274.3,377,276.8,376.9L276.8,376.9z"/>
		<path d="M281.5,354c2.1,0,3.8,1.8,3.8,3.9c0,0,0,0,0,0l0,0l0,0v14.6h-7.6v-14.6l0,0l0,0C277.6,355.8,279.3,354,281.5,354
			C281.4,354,281.4,354,281.5,354L281.5,354z"/>
		<path d="M276.5,317c1.5,0,2.7,1.3,2.7,2.8c0,0,0,0,0,0l0,0l0,0v7.7h-5.4v-7.7l0,0l0,0C273.8,318.3,275,317,276.5,317
			C276.5,317,276.5,317,276.5,317z"/>
		<path d="M276.5,331c3.2,0,5.7,2.6,5.7,5.8c0,0,0,0,0,0l0,0l0,0v13.8h-11.4v-13.8l0,0l0,0C270.8,333.6,273.3,331,276.5,331z"/>
		<g>
			<defs>
				<path id="SVGID_39_" d="M276.5,331c3.2,0,5.7,2.6,5.7,5.8c0,0,0,0,0,0l0,0l0,0v13.8h-11.4v-13.8l0,0l0,0
					C270.8,333.6,273.3,331,276.5,331z"/>
			</defs>
			<clipPath id="SVGID_40_">
				<use xlink:href="#SVGID_39_"  style="overflow:visible;"/>
			</clipPath>
			<g class="st31">
				<path class="st3" d="M280.5,338.8h1.7 M282.2,353.9h-11.8v-6.7h1.7v-1.7h1.7v-1.7h1.7v-1.6h1.7v-1.7h1.7v-1.7h1.7v-1.7h1.7
					L282.2,353.9L282.2,353.9z"/>
			</g>
		</g>
		<path d="M272,356.2c1.5,0,2.7,1.3,2.7,2.8c0,0,0,0,0,0l0,0l0,0v7.7h-5.4V359l0,0l0,0C269.3,357.5,270.5,356.2,272,356.2
			C272,356.2,272,356.2,272,356.2z"/>
		<path class="st32" d="M326.1,497.8c0,0,0.5-3,5.5-2.9s5.5,4.9,1.1,5.5S326,500.1,326.1,497.8z"/>
		<path class="st17" d="M223.7,498c-0.9,0.3-1.4,1.2-1.1,2.1c0.1,0.2,0.2,0.4,0.3,0.5c1.2,1.9,10.6,0.4,11,2.7s-5.3,2-5.1,4.3
			c0.3,3,6.4,1,9,4.4c3.5,4.7,1.5,30.5,1.4,37s0.7,33.8,0.3,39.9s57.3-0.9,57.3-0.9s-0.6-46.4-0.5-54.8s-0.8-17.3,0.6-19
			s4-1.2,4-2.9s-5.2-1.6-4.7-3.9c0.7-3.2,9.6-0.7,8.1-3c-2.4-3.6-6.6-5.9-35-6.5C236.9,497,225.1,497.7,223.7,498z"/>
		<path class="st17" d="M277.6,368c0,0,30-0.9,38.9,3.9c12.4,6.7,19.3,22.2,21.6,30.1s10.3,71.5,10.3,101.3
			c0,29.8-0.1,29.8-0.1,29.8l-27.7-3.4c0,0,0.7-44.6,0.4-67s-0.8-55.6-4.8-72.2c-3.6-14.9-6.3-17.2-8.6-18h-30V368z"/>
		<rect x="97.8" y="513.4" class="st6" width="13.2" height="63.9"/>
		<ellipse class="st6" cx="104.4" cy="513.3" rx="6.6" ry="6.6"/>
		<rect x="115.2" y="513.4" class="st6" width="13.2" height="63.9"/>
		<ellipse class="st6" cx="121.7" cy="513.3" rx="6.6" ry="6.6"/>
		<path class="st5" d="M63.5,568.4c-1-3.3-1.1-9.2,10.7-14.5s15.6,0.9,17.7,5.3s-4.1,10.6-12.8,12.3S64.5,571.8,63.5,568.4z"/>
		<path class="st7" d="M81.9,564.2c1.6-9,7.3-16.7,15.5-20.7c13.9-6.8,39.7-8.6,48.4,7.6s2.9,28.6-15.5,30S79.9,580.8,81.9,564.2z"
			/>
		<path class="st0" d="M55,219.6c6.2-0.2,16.1,1.6,16.5-1.7c0.3-1.9-4.1-3.6-2.2-5.9c2.3-2.8,15.2-2.2,17.8-0.1
			c3.2,2.6-6.3,4.1-5.4,7.6c0.2,0.8,0.6,1.6,1.3,2.1c3.2,2.3,21.7,1.4,21.8,6.6s-14.6,2.3-17.6,4.9c-4.3,3.9,7.4,4.2,7.6,8.3
			c0.2,5.6-35.6,4.5-42.1,2.9c-4.5-1.1-4.1-6.2,0.4-7.4c3.5-0.9,12-1,11.2-5.4c-0.8-4.5-21.3-0.8-21.3-6.7
			C43,219.9,48.8,219.9,55,219.6z"/>
		<rect x="79.3" y="393.2" width="55.7" height="2"/>
		<path class="st17" d="M104.7,391.4c0,0-23.8-0.6-28.9,0.5c-3.8,0.8-7.7,7.9-10.2,17.3S51.7,504.8,52.8,527
			c0.6,12.7,13.1,2.7,13.1,2.7s3.5-60,3.5-76s3.1-59.7,10.5-60s24.9-0.2,24.9-0.2V391.4L104.7,391.4z"/>
		<rect x="134.9" y="311.9" class="st13" width="22.6" height="4.1"/>
		<rect x="265.5" y="309.3" width="21.9" height="4.1"/>
		<rect x="91.2" y="450" class="st7" width="43.7" height="4.1"/>
		<rect x="91.2" y="499.2" class="st6" width="43.7" height="4.1"/>
		<rect x="250.1" y="222.4" class="st33" width="10.6" height="13.4"/>
		<rect x="250.1" y="222.4" class="st16" width="10.6" height="13.4"/>
		<rect x="251.2" y="223.5" class="st34" width="8.5" height="11.4"/>
		<rect x="252.2" y="224.5" class="st34" width="6.5" height="9.3"/>
		<rect x="253.3" y="225.6" class="st34" width="4.4" height="7.2"/>
		<rect x="254.3" y="226.6" class="st34" width="2.3" height="5.1"/>
		<rect x="255.4" y="227.6" class="st34" width="0.2" height="3"/>
		<circle class="st35" cx="213.4" cy="315.9" r="8.4"/>
		<g>
			<defs>
				<circle id="SVGID_41_" cx="213.4" cy="315.9" r="8.4"/>
			</defs>
			<clipPath id="SVGID_42_">
				<use xlink:href="#SVGID_41_"  style="overflow:visible;"/>
			</clipPath>
			<g class="st36">
				<rect x="213.4" y="307.5" class="st5" width="10.8" height="7.7"/>
			</g>
		</g>
		<rect x="205" y="315.2" width="16.8" height="1.4"/>
		<rect x="204.9" y="316.5" class="st10" width="16.9" height="17.5"/>
		<rect x="207" y="318.5" class="st37" width="12.7" height="13.4"/>
		<rect x="209.1" y="320.6" class="st37" width="8.5" height="9.2"/>
		<rect x="211.2" y="322.7" class="st37" width="4.4" height="5"/>
		<rect x="213.3" y="324.8" class="st37" width="0.2" height="0.9"/>
		<rect x="265.5" y="286.1" class="st33" width="21.9" height="23.2"/>
		<ellipse class="st3" cx="276.5" cy="285.3" rx="10.9" ry="11"/>
		<rect x="265.5" y="284.4" width="21.9" height="1.8"/>
		<g>
			<defs>
				<ellipse id="SVGID_43_" cx="276.5" cy="285.3" rx="10.9" ry="11"/>
			</defs>
			<clipPath id="SVGID_44_">
				<use xlink:href="#SVGID_43_"  style="overflow:visible;"/>
			</clipPath>
			<g class="st38">
				<rect x="276.5" y="273.3" class="st5" width="13.1" height="11.1"/>
			</g>
		</g>
		<rect x="265.5" y="286.1" class="st10" width="21.9" height="23.2"/>
		<rect x="267.6" y="288.1" class="st37" width="17.7" height="19.1"/>
		<rect x="269.7" y="290.2" class="st37" width="13.5" height="14.9"/>
		<rect x="271.8" y="292.3" class="st37" width="9.4" height="10.7"/>
		<rect x="273.9" y="294.4" class="st37" width="5.2" height="6.6"/>
		<rect x="276" y="296.5" class="st37" width="1" height="2.4"/>
		<rect x="134.9" y="301" class="st10" width="22.6" height="11"/>
		<rect x="136.5" y="302.5" class="st37" width="19.5" height="7.9"/>
		<rect x="138" y="304.1" class="st37" width="16.4" height="4.7"/>
		<rect x="139.6" y="305.6" class="st37" width="13.2" height="1.6"/>
		<rect x="233.3" y="176" width="16.9" height="1.4"/>
		<g>
			<defs>
				<circle id="SVGID_45_" cx="241.7" cy="176.7" r="8.4"/>
			</defs>
			<clipPath id="SVGID_46_">
				<use xlink:href="#SVGID_45_"  style="overflow:visible;"/>
			</clipPath>
			<g class="st39">
				<rect x="241.7" y="167.5" class="st5" width="10.1" height="8.5"/>
			</g>
		</g>
		<rect x="159.3" y="371.4" class="st16" width="45.7" height="2.9"/>
	</g>
</g>
</svg>
