<svg xmlns="http://www.w3.org/2000/svg" xmlns:xlink="http://www.w3.org/1999/xlink" viewBox="0 0 347.38 486.52"><defs><style>.cls-1,.cls-22,.cls-27,.cls-28,.cls-53,.cls-63{fill:none;}.cls-2{fill:#f1f2f6;}.cls-3{fill:#fbc24d;}.cls-4{fill:#46a391;}.cls-5{clip-path:url(#clip-path);}.cls-6{fill:#36777e;}.cls-7{clip-path:url(#clip-path-2);}.cls-8{clip-path:url(#clip-path-3);}.cls-9{clip-path:url(#clip-path-4);}.cls-10{clip-path:url(#clip-path-5);}.cls-11{fill:#ed7129;}.cls-12{fill:#c85629;}.cls-13{fill:#f79c43;}.cls-14{fill:#ffd99c;}.cls-15{fill:#fff;}.cls-16{clip-path:url(#clip-path-6);}.cls-17{fill:#d35a1e;}.cls-18{clip-path:url(#clip-path-7);}.cls-19{fill:#af4925;}.cls-20{fill:#2c5e5e;}.cls-21{fill:#6dd1bd;}.cls-22,.cls-27,.cls-53{stroke:#9b6534;}.cls-22{stroke-width:2.83px;}.cls-23{fill:#ef8822;}.cls-24{clip-path:url(#clip-path-8);}.cls-25{clip-path:url(#clip-path-9);}.cls-26{clip-path:url(#clip-path-10);}.cls-27{stroke-width:2.3px;}.cls-28{stroke:#000;stroke-linecap:round;stroke-linejoin:round;stroke-width:0.69px;}.cls-29{clip-path:url(#clip-path-11);}.cls-30{clip-path:url(#clip-path-12);}.cls-31{clip-path:url(#clip-path-13);}.cls-32{clip-path:url(#clip-path-14);}.cls-33{clip-path:url(#clip-path-15);}.cls-34{fill:#3c3c3c;}.cls-35{clip-path:url(#clip-path-16);}.cls-36{clip-path:url(#clip-path-17);}.cls-37{clip-path:url(#clip-path-18);}.cls-38{clip-path:url(#clip-path-19);}.cls-39{clip-path:url(#clip-path-20);}.cls-40{fill:#121212;}.cls-41{clip-path:url(#clip-path-21);}.cls-42{clip-path:url(#clip-path-22);}.cls-43{clip-path:url(#clip-path-23);}.cls-44{clip-path:url(#clip-path-24);}.cls-45{clip-path:url(#clip-path-25);}.cls-46{clip-path:url(#clip-path-26);}.cls-47{clip-path:url(#clip-path-27);}.cls-48{clip-path:url(#clip-path-28);}.cls-49{clip-path:url(#clip-path-29);}.cls-50{clip-path:url(#clip-path-30);}.cls-51{clip-path:url(#clip-path-31);}.cls-52{fill:#3d3d3d;}.cls-53{stroke-width:1.98px;}.cls-54{clip-path:url(#clip-path-32);}.cls-55{clip-path:url(#clip-path-33);}.cls-56{clip-path:url(#clip-path-34);}.cls-57{clip-path:url(#clip-path-35);}.cls-58{clip-path:url(#clip-path-36);}.cls-59{clip-path:url(#clip-path-37);}.cls-60{clip-path:url(#clip-path-38);}.cls-61{clip-path:url(#clip-path-39);}.cls-62{clip-path:url(#clip-path-40);}.cls-63{stroke:#fff;stroke-miterlimit:10;stroke-width:0.57px;}.cls-64{clip-path:url(#clip-path-41);}.cls-65{clip-path:url(#clip-path-42);}.cls-66{clip-path:url(#clip-path-43);}.cls-67{clip-path:url(#clip-path-44);}.cls-68{clip-path:url(#clip-path-45);}.cls-69{fill:#c2c2c2;}.cls-70{clip-path:url(#clip-path-46);}.cls-71{clip-path:url(#clip-path-47);}.cls-72{clip-path:url(#clip-path-48);}.cls-73{clip-path:url(#clip-path-49);}.cls-74{clip-path:url(#clip-path-50);}.cls-75{clip-path:url(#clip-path-51);}.cls-76{clip-path:url(#clip-path-52);}.cls-77{clip-path:url(#clip-path-53);}.cls-78{clip-path:url(#clip-path-54);}.cls-79{clip-path:url(#clip-path-55);}.cls-80{clip-path:url(#clip-path-56);}.cls-81{clip-path:url(#clip-path-57);}.cls-82{fill:#c5f0ff;}.cls-83{clip-path:url(#clip-path-58);}.cls-84{clip-path:url(#clip-path-59);}.cls-85{clip-path:url(#clip-path-60);}.cls-86{clip-path:url(#clip-path-61);}.cls-87{clip-path:url(#clip-path-62);}.cls-88{fill:#9b2f24;}.cls-89{fill:#f05328;}.cls-90{clip-path:url(#clip-path-63);}.cls-91{fill:#cc4729;}.cls-92{clip-path:url(#clip-path-64);}.cls-93{fill:#b73d29;}.cls-94{clip-path:url(#clip-path-65);}</style><clipPath id="clip-path"><path class="cls-1" d="M228.69,202.32c0,.32-21-13.16-19.91-38.12C208.78,164.2,227.15,174.08,228.69,202.32Z"/></clipPath><clipPath id="clip-path-2"><path class="cls-1" d="M228.69,202.33s-12-21.33,3-42A53.37,53.37,0,0,1,228.69,202.33Z"/></clipPath><clipPath id="clip-path-3"><path class="cls-1" d="M228.69,202.33s6.84-21.34,22-27.53C250.7,174.79,251.08,195.29,228.69,202.33Z"/></clipPath><clipPath id="clip-path-4"><path class="cls-1" d="M228.69,202.33s-10.49-19.77-26.51-23.16C202.19,179.16,205.42,199.4,228.69,202.33Z"/></clipPath><clipPath id="clip-path-5"><path class="cls-1" d="M199.73,134.81s-1.6-18.61,18.77-26.32c6.52-2.46,8-5.07,8.06-10.59.08,5.51,1.54,8.12,8.06,10.59,20.37,7.71,18.77,26.32,18.77,26.32Z"/></clipPath><clipPath id="clip-path-6"><path class="cls-1" d="M211.25,459.94s1,16.28,21.55,16.28,27.44-15.87,27.44-15.87l-5.68-13.26-28.41-1.27Z"/></clipPath><clipPath id="clip-path-7"><path class="cls-1" d="M38,452.49s7.44,28.45,38.41,27.89,35.41-18.32,35.41-18.32l-10.27-25.81-54.16-1.87Z"/></clipPath><clipPath id="clip-path-8"><rect class="cls-1" x="145.46" y="377.04" width="86.64" height="22.24"/></clipPath><clipPath id="clip-path-9"><path class="cls-1" d="M101.59,377.8s-1.3-15.58,15.34-22c5.33-2.06,6.52-4.25,6.59-8.86.07,4.61,1.26,6.8,6.59,8.86,16.65,6.45,15.34,22,15.34,22Z"/></clipPath><clipPath id="clip-path-10"><rect class="cls-1" x="45.54" y="235.52" width="55.7" height="46.33"/></clipPath><clipPath id="clip-path-11"><ellipse class="cls-1" cx="161.8" cy="25.89" rx="11.05" ry="11.37"/></clipPath><clipPath id="clip-path-12"><path class="cls-1" d="M161.9,33.77c4.38,0,7.92,4,7.92,8.86v.07h0l-.24,83.5H153.77L154,42.7h0v-.07c0-4.89,3.55-8.86,7.92-8.86Z"/></clipPath><clipPath id="clip-path-13"><path class="cls-1" d="M162.15,126.2a16,16,0,0,1-6-13.22S161.68,116.4,162.15,126.2Z"/></clipPath><clipPath id="clip-path-14"><path class="cls-1" d="M162.15,126.2s-3.61-7.4.9-14.59A21.18,21.18,0,0,1,162.15,126.2Z"/></clipPath><clipPath id="clip-path-15"><path class="cls-1" d="M162.15,126.2s1-7.69,5.22-10.65C167.37,115.55,168.45,122.55,162.15,126.2Z"/></clipPath><clipPath id="clip-path-16"><path class="cls-1" d="M121.78,57.23c0-.38-26.25,8.93-27.13,38.06C94.65,95.29,117.83,87.62,121.78,57.23Z"/></clipPath><clipPath id="clip-path-17"><path class="cls-1" d="M121.78,57.23c.56-.29-19.12-13.71-45-8.53C76.78,48.7,100.39,68.11,121.78,57.23Z"/></clipPath><clipPath id="clip-path-18"><path class="cls-1" d="M121.78,57.23c0,.37-26.19-17-22.83-45.71C99,11.52,121.94,24.48,121.78,57.23Z"/></clipPath><clipPath id="clip-path-19"><path class="cls-1" d="M121.78,57.23s-6.61-28.43,19.63-44.7C141.41,12.53,144.05,37.75,121.78,57.23Z"/></clipPath><clipPath id="clip-path-20"><path class="cls-1" d="M121.78,57.23S139.43,38.11,160,39.69C160,39.69,151.23,61.81,121.78,57.23Z"/></clipPath><clipPath id="clip-path-21"><ellipse class="cls-1" cx="34.35" cy="290.56" rx="11.05" ry="11.37"/></clipPath><clipPath id="clip-path-22"><path class="cls-1" d="M34.45,298.44c4.38,0,7.92,4,7.92,8.86v.07h0l-.24,83.5H26.32l.21-83.5h0v-.07c0-4.9,3.55-8.86,7.92-8.86Z"/></clipPath><clipPath id="clip-path-23"><path class="cls-1" d="M34.7,390.87a16,16,0,0,1-6-13.22S34.23,381.07,34.7,390.87Z"/></clipPath><clipPath id="clip-path-24"><path class="cls-1" d="M34.7,390.87s-3.61-7.4.9-14.59A21.17,21.17,0,0,1,34.7,390.87Z"/></clipPath><clipPath id="clip-path-25"><path class="cls-1" d="M34.7,390.87s1-7.69,5.22-10.65C39.92,380.22,41,387.22,34.7,390.87Z"/></clipPath><clipPath id="clip-path-26"><path class="cls-1" d="M174.71,345.43c0,.32-21-13.16-19.91-38.12C154.79,307.31,173.16,317.18,174.71,345.43Z"/></clipPath><clipPath id="clip-path-27"><path class="cls-1" d="M174.71,345.43s-12-21.33,3-42A53.36,53.36,0,0,1,174.71,345.43Z"/></clipPath><clipPath id="clip-path-28"><path class="cls-1" d="M174.71,345.43s6.84-21.33,22-27.53C196.71,317.9,197.09,338.39,174.71,345.43Z"/></clipPath><clipPath id="clip-path-29"><path class="cls-1" d="M174.71,345.43s-10.49-19.77-26.51-23.16C148.2,322.27,151.44,342.51,174.71,345.43Z"/></clipPath><clipPath id="clip-path-30"><path class="cls-1" d="M145.74,277.92s-1.6-18.61,18.77-26.32c6.52-2.46,8-5.07,8.06-10.59.08,5.51,1.54,8.12,8.06,10.59,20.37,7.7,18.77,26.32,18.77,26.32Z"/></clipPath><clipPath id="clip-path-31"><path class="cls-1" d="M145.48,136.34s-.69-7.52,8.08-10.64c2.81-1,3.43-2.05,3.47-4.28,0,2.23.66,3.28,3.47,4.28,8.77,3.12,8.08,10.64,8.08,10.64Z"/></clipPath><clipPath id="clip-path-32"><path class="cls-1" d="M124.66,163.24c.21-.14-15.86-9.17-30.73,3.06C93.93,166.3,107.83,174.49,124.66,163.24Z"/></clipPath><clipPath id="clip-path-33"><path class="cls-1" d="M124.66,163.24c.39.15-1.5-15.47-15.33-26.1C109.33,137.14,109.95,157.32,124.66,163.24Z"/></clipPath><clipPath id="clip-path-34"><path class="cls-1" d="M124.66,163.24c-.18.16-2.94-20.41,12.81-31.24C137.47,132,141,149.07,124.66,163.24Z"/></clipPath><clipPath id="clip-path-35"><path class="cls-1" d="M124.66,163.24s11.26-15.65,30.77-9.68A36.87,36.87,0,0,1,124.66,163.24Z"/></clipPath><clipPath id="clip-path-36"><path class="cls-1" d="M124.66,163.24s17.19.46,25.36,11.39C150,174.63,135.2,179.87,124.66,163.24Z"/></clipPath><clipPath id="clip-path-37"><path class="cls-1" d="M42.05,235.52s-3.18-38.81,37.38-54.87c13-5.14,15.88-10.58,16-22.07.16,11.49,3.07,16.93,16,22.07,40.55,16.06,37.38,54.87,37.38,54.87Z"/></clipPath><clipPath id="clip-path-38"><path class="cls-1" d="M113.12,242.54a6.91,6.91,0,0,1,6.84,7v.05h0V269H106.29V249.57h0v-.05a6.91,6.91,0,0,1,6.83-7Z"/></clipPath><clipPath id="clip-path-39"><path class="cls-1" d="M113.12,278.86a6.91,6.91,0,0,1,6.84,7v.05h0v19.46H106.29V285.89h0v-.05a6.91,6.91,0,0,1,6.83-7Z"/></clipPath><clipPath id="clip-path-40"><path class="cls-1" d="M128.24,249.57h0v-.05a6.91,6.91,0,0,1,6.84-7h0a6.91,6.91,0,0,1,6.84,7v.05h0v17.7h0v38H128.24V249.57Z"/></clipPath><clipPath id="clip-path-41"><path class="cls-1" d="M79.28,290.85c.29-.12-16.89-14.93-37.81-3.81C41.47,287,56.23,300.31,79.28,290.85Z"/></clipPath><clipPath id="clip-path-42"><path class="cls-1" d="M79.28,290.85c.43.28,2-19-12.12-35.22C67.16,255.63,63,280.13,79.28,290.85Z"/></clipPath><clipPath id="clip-path-43"><path class="cls-1" d="M79.28,290.85c-.26.15,1.43-25.34,23.07-34.55C102.35,256.29,102.46,277.75,79.28,290.85Z"/></clipPath><clipPath id="clip-path-44"><path class="cls-1" d="M79.28,290.85s17.4-16.13,39.47-4.16A45.37,45.37,0,0,1,79.28,290.85Z"/></clipPath><clipPath id="clip-path-45"><path class="cls-1" d="M79.28,290.85s20.61,4.75,27.81,19.93C107.09,310.77,87.92,313.48,79.28,290.85Z"/></clipPath><clipPath id="clip-path-46"><path class="cls-1" d="M199.47,235.52a17.37,17.37,0,0,1,11.41-16.91c4-1.58,4.85-3.26,4.9-6.8,0,3.54.94,5.22,4.9,6.8a17.37,17.37,0,0,1,11.41,16.91Z"/></clipPath><clipPath id="clip-path-47"><path class="cls-1" d="M280.25,201.34s-.69-7.52,8.08-10.64c2.81-1,3.43-2.05,3.47-4.28,0,2.23.66,3.28,3.47,4.28,8.77,3.12,8.08,10.64,8.08,10.64Z"/></clipPath><clipPath id="clip-path-48"><path class="cls-1" d="M282.91,288.94c.45,0-11.92-30.11-46-29.47C237,259.47,247.23,286.07,282.91,288.94Z"/></clipPath><clipPath id="clip-path-49"><path class="cls-1" d="M282.91,288.94c.37.64,14.89-23.08,7.37-53C290.29,236,269,264.6,282.91,288.94Z"/></clipPath><clipPath id="clip-path-50"><path class="cls-1" d="M282.91,288.94c-.43,0,18.31-31.52,52-29.25C334.93,259.69,321.12,287.24,282.91,288.94Z"/></clipPath><clipPath id="clip-path-51"><path class="cls-1" d="M282.91,288.94s32.78-9.34,53.26,20.34C336.17,309.27,306.9,313.8,282.91,288.94Z"/></clipPath><clipPath id="clip-path-52"><path class="cls-1" d="M282.91,288.94s23.31,19.49,22.65,43.6C305.56,332.54,279.26,323.54,282.91,288.94Z"/></clipPath><clipPath id="clip-path-53"><path class="cls-1" d="M252.77,318.75c.1-.26-19.85,1.92-25.27,22.17C227.5,340.91,245,339.37,252.77,318.75Z"/></clipPath><clipPath id="clip-path-54"><path class="cls-1" d="M252.77,318.75c.44-.11-11.12-12.75-30.1-13.4C222.68,305.35,236,322.83,252.77,318.75Z"/></clipPath><clipPath id="clip-path-55"><path class="cls-1" d="M252.77,318.75c-.06.26-15.53-16.21-8.44-35.76C244.33,283,258.28,295.85,252.77,318.75Z"/></clipPath><clipPath id="clip-path-56"><path class="cls-1" d="M252.77,318.75s.06-21,21.11-28A40.12,40.12,0,0,1,252.77,318.75Z"/></clipPath><clipPath id="clip-path-57"><path class="cls-1" d="M252.77,318.75s15.5-10.47,29.66-6C282.43,312.78,272.62,326.81,252.77,318.75Z"/></clipPath><clipPath id="clip-path-58"><path class="cls-1" d="M287.19,323.23c.18-.2-19.17-5.47-31.62,11.39C255.56,334.62,272.41,339.58,287.19,323.23Z"/></clipPath><clipPath id="clip-path-59"><path class="cls-1" d="M287.19,323.23c.45.06-5.69-15.93-23.11-23.47C264.08,299.75,270.09,320.9,287.19,323.23Z"/></clipPath><clipPath id="clip-path-60"><path class="cls-1" d="M287.19,323.23c4.87-7-8.83-20.42,5.23-36.37C292.41,286.86,300.69,303.93,287.19,323.23Z"/></clipPath><clipPath id="clip-path-61"><path class="cls-1" d="M287.19,323.23s7.73-19.51,29.91-18.38A40.12,40.12,0,0,1,287.19,323.23Z"/></clipPath><clipPath id="clip-path-62"><path class="cls-1" d="M287.19,323.23s18.26-4.08,29.79,5.29C317,328.52,302.72,338,287.19,323.23Z"/></clipPath><clipPath id="clip-path-63"><path class="cls-1" d="M84,436.71S91.29,477.32,133,476.2s39.62-40,39.62-40Z"/></clipPath><clipPath id="clip-path-64"><path class="cls-1" d="M16.95,438.38S16,468,48.51,467.87C71,467.78,81.13,444.94,81.2,436.5Z"/></clipPath><clipPath id="clip-path-65"><path class="cls-1" d="M250.1,447.77s2.35,28.45,33.29,28.45c35.33,0,33.7-40,33.7-40l-67.41-.7Z"/></clipPath></defs><title>island-2</title><g id="Layer_2" data-name="Layer 2"><g id="Layer_1-2" data-name="Layer 1"><path class="cls-2" d="M225.76,39.06c.08,5.41-8.86,3.17-10.64,6-.83,1.32-.63,2.47,1.38,3.58,1.62.89,17.77,0,21.09.06,4.67.05,24.22-1.35,24.15,4.06-.08,5.75-15.53.48-16.31,5.8s10.26,2,10.19,7.53c-.05,4.43-17.66,4.46-23.17,4.48C217.82,70.66,206,71,192,70.4a6,6,0,0,1-5.78-6.74c.17-2.13,1.59-4.33-1.28-5.47-4.79-1.91-15.86,4-19-2-.3-.56-2.57-3.29-2.34-4,2.16-6.5,21.39-4.54,28.44-4.53,1.7,0,6.23-.12,6.09-2.71-.18-3.34-8.42-.45-8.85-6.23C188.61,30.54,225.67,32.93,225.76,39.06Z"/><rect class="cls-3" x="199.45" y="139.99" width="53.99" height="62.34"/><path d="M226.25,146c10.8,0,19.56,9,19.56,20.12l0,.15h0v36H206.69v-36h0l0-.15c0-11.11,8.76-20.12,19.56-20.12Z"/><path class="cls-4" d="M228.69,202.32c0,.32-21-13.16-19.91-38.12C208.78,164.2,227.15,174.08,228.69,202.32Z"/><path id="SVGID" class="cls-4" d="M228.69,202.32c0,.32-21-13.16-19.91-38.12C208.78,164.2,227.15,174.08,228.69,202.32Z"/><g class="cls-5"><polygon class="cls-6" points="208.78 164.2 228.69 202.32 216.06 201.78 203.13 177.35 208.78 164.2"/></g><path id="SVGID-2" data-name="SVGID" class="cls-4" d="M228.69,202.33s-12-21.33,3-42A53.37,53.37,0,0,1,228.69,202.33Z"/><g class="cls-7"><polygon class="cls-6" points="231.69 160.28 228.69 202.33 221.5 196.23 220.6 169.61 231.69 160.28"/></g><path class="cls-4" d="M228.69,202.33s6.84-21.34,22-27.53C250.7,174.79,251.08,195.29,228.69,202.33Z"/><g class="cls-8"><polygon class="cls-6" points="250.7 174.79 228.69 202.33 231.42 180.28 240.47 169.62 249.24 171.79 250.7 174.79"/></g><path class="cls-4" d="M228.69,202.33s-10.49-19.77-26.51-23.16C202.19,179.16,205.42,199.4,228.69,202.33Z"/><g class="cls-9"><polygon class="cls-6" points="202.19 179.16 228.69 202.33 222.13 181.12 211.34 172.24 203.1 175.95 202.19 179.16"/></g><path class="cls-3" d="M199.54,134.81s-1.6-18.61,18.77-26.32c6.52-2.46,8-5.07,8.06-10.59.08,5.51,1.54,8.12,8.06,10.59,20.37,7.71,18.77,26.32,18.77,26.32Z"/><g class="cls-10"><rect class="cls-11" x="226.56" y="96.62" width="28.36" height="37.28"/></g><ellipse class="cls-11" cx="226.38" cy="98.09" rx="1.8" ry="1.85"/><rect class="cls-12" x="199.45" y="133.9" width="10.8" height="6.09"/><rect class="cls-13" x="210.25" y="133.9" width="10.8" height="6.09"/><rect class="cls-14" x="221.05" y="133.9" width="10.8" height="6.09"/><rect class="cls-12" x="231.84" y="133.9" width="10.8" height="6.09"/><rect class="cls-13" x="242.64" y="133.9" width="10.8" height="6.09"/><ellipse class="cls-15" cx="201.38" cy="131.96" rx="1.93" ry="1.94"/><ellipse class="cls-15" cx="209.76" cy="131.96" rx="1.93" ry="1.94"/><ellipse class="cls-15" cx="218.14" cy="131.96" rx="1.93" ry="1.94"/><ellipse class="cls-15" cx="226.52" cy="131.96" rx="1.93" ry="1.94"/><ellipse class="cls-15" cx="234.9" cy="131.96" rx="1.93" ry="1.94"/><ellipse class="cls-15" cx="243.28" cy="131.96" rx="1.93" ry="1.94"/><ellipse class="cls-15" cx="251.66" cy="131.96" rx="1.93" ry="1.94"/><path class="cls-11" d="M211.25,459.94s1,16.28,21.55,16.28,27.44-15.87,27.44-15.87l-5.68-13.26-28.41-1.27Z"/><g class="cls-16"><polygon class="cls-17" points="232.12 480.39 236.24 466.84 234.41 461.81 259.07 450.59 263.71 461.49 241.53 480.39 232.12 480.39"/></g><path class="cls-12" d="M38,452.49s7.44,28.45,38.41,27.89,35.41-18.32,35.41-18.32l-10.27-25.81-54.16-1.87Z"/><g class="cls-18"><polygon class="cls-19" points="40.41 444.87 60.95 458.63 62.71 466.99 82.14 483.43 49.42 486.52 32.85 459.19 40.41 444.87"/></g><path class="cls-15" d="M263.32,263c-.15-9.92,13.29-5.5,20.61-7,6.22-1.24,7-8.93,13.51-10.23,3.71-.74,7.74,4.34,12,5,8.12,1.35,16.66.82,25,.82,4.88,0,13,.5,13,6.82,0,7.36-25.45,5.46-30.7,5.46-1.33,0-4.24,0-4.78,1.64-.45,1.35,1.38,2.53,2.32,3,5.77,2.89,12.75,1.55,18.7,4.09a17.49,17.49,0,0,1,4.64,2.73,5.15,5.15,0,0,1,2,4.23c0,6.64-17.67,4.23-21.7,4.23a7.74,7.74,0,0,0-3.82,1c-3.78,2.27,6.55,3.29,5.18,8.05-1,3.59-11.34,4.13-14.33,4.5s-16.68.42-17.19-3.68c-.4-3.23,4.44-6.56-.27-10.1-2.68-2-9-2.53-12.28-3-5.43-.77-10-4.89-12.55-9.42-2.75-4.81-.77-13.92,5.87-13.92Z"/><path class="cls-20" d="M240.7,365.3a7.71,7.71,0,0,0,1.2-8.43c-2.18-5.05-5.44-12.35-1.51-14.26,3.46-1.67,5.52,3,7.73,9.13s6.65,4.82,9.22,2.33,1.51,12,1.51,12L257,372.6l-15.67,2.94Z"/><path class="cls-21" d="M288.86,359.92s-1.1-13.48,7.08-12.68c5.41.53,6,7,5.23,10.48s-1,6,2.19,8,4.3,7.45,4.3,11.27-14.76,2.62-14.76,2.62l-4.57-15.82Z"/><path class="cls-22" d="M281.25,290s-17.6,26.14-19.89,65.26"/><path class="cls-22" d="M286.8,323.57s-3,20.71-2.15,38.49"/><path class="cls-22" d="M252.77,318.75a195.81,195.81,0,0,1,6.3,35.29"/><polygon class="cls-4" points="280.24 200.96 280.24 235.02 248.22 235.02 248.14 234.96 248.22 229.35 253.44 229.35 253.44 223.67 258.89 223.67 258.89 217.99 264.23 217.99 264.23 212.31 269.56 212.31 269.56 206.63 274.9 206.63 274.9 200.96 280.24 200.96"/><rect class="cls-23" x="199.45" y="237.83" width="32.66" height="139.21"/><polygon class="cls-14" points="199.45 348.91 203.57 348.91 203.57 343.97 208.34 343.97 208.34 338.94 213.09 338.94 213.09 333.99 217.85 333.99 217.85 329.04 222.6 329.04 222.6 324.09 227.35 324.09 227.35 319.13 232.11 319.13 232.11 324.09 232.11 350.07 232.11 350.07 232.11 378.51 199.45 378.51 199.45 348.91"/><path class="cls-6" d="M217.69,282.36s-.37-4.19,1.26-4.94c1.83-.85,3.18,1.4,4-.52s.31-7,2.82-7c1.68,0,2.19,2.39,2,4.66-.15,2.11.29,2.73,1.65,3.61a5,5,0,0,1,2.64,4.17c0,2-7,1.76-7,1.76l-6.54-.25Z"/><path class="cls-20" d="M207.63,299.71s2.33.5,3.46-6.52c.38-2.39,0-5,2.07-4.69,2.22.39-.09,4.44,2.27,6.83,1.95,2,2.27,4.84,2.27,7.54,0,1.72-8.36.55-8.36.55Z"/><rect class="cls-11" x="145.46" y="377.04" width="86.64" height="22.24"/><g class="cls-24"><polygon class="cls-3" points="199.45 399.29 199.45 396.9 203.57 396.9 203.57 391.96 208.34 391.96 208.34 386.94 213.09 386.94 213.09 381.99 217.85 381.99 217.85 377.03 222.6 377.03 222.6 372.08 227.35 372.08 227.35 367.13 232.11 367.13 232.11 372.08 232.11 372.08 232.11 399.29 199.45 399.29"/></g><rect class="cls-23" x="145.46" y="345.47" width="53.99" height="31.57"/><rect class="cls-12" x="101.56" y="345.08" width="43.9" height="31.96"/><path class="cls-3" d="M101.59,377.8s-1.3-15.58,15.34-22c5.33-2.06,6.52-4.25,6.59-8.86.07,4.61,1.26,6.8,6.59,8.86,16.65,6.45,15.34,22,15.34,22Z"/><g class="cls-25"><rect class="cls-11" x="123.51" y="345.84" width="23.18" height="31.2"/></g><ellipse class="cls-15" cx="123.51" cy="347.08" rx="1.47" ry="1.55"/><rect class="cls-23" x="45.38" y="345.47" width="56.18" height="45.4"/><rect class="cls-13" x="50.32" y="350.84" width="47.93" height="40.03"/><rect class="cls-3" x="55.76" y="356.87" width="36.72" height="34"/><polygon class="cls-4" points="50.33 390.87 55.7 390.87 55.7 390.88 55.72 390.87 55.7 390.87 55.7 385.3 61.04 385.3 61.09 385.24 61.09 379.56 66.43 379.56 66.43 373.89 71.76 373.89 71.76 368.21 77.1 368.21 77.1 362.53 82.43 362.53 82.43 356.86 87.77 356.86 87.77 351.18 93.1 351.18 93.1 345.5 98.44 345.5 98.44 339.82 101.56 339.86 101.56 345.5 101.56 406.98 61.08 406.98 50.33 396.51 50.33 390.87"/><rect class="cls-23" x="45.38" y="285.11" width="56.18" height="60.36"/><rect class="cls-14" x="45.54" y="235.52" width="55.7" height="46.33"/><g class="cls-26"><polygon class="cls-11" points="82.85 302.69 82.84 280.94 82.84 275.27 77.5 275.27 77.5 269.59 72.17 269.59 72.17 263.91 66.83 263.91 66.83 263.91 66.83 258.23 61.49 258.23 61.49 252.56 56.16 252.56 56.16 246.88 50.82 246.88 50.82 241.2 45.49 241.2 45.49 235.52 42.37 235.56 42.37 241.2 42.36 302.69 82.85 302.69 82.85 302.69"/></g><polygon class="cls-3" points="50.33 329.41 55.7 329.41 55.7 329.43 55.72 329.41 55.7 329.41 55.7 323.84 61.04 323.84 61.09 323.79 61.09 318.11 66.43 318.11 66.43 312.43 71.76 312.43 71.76 306.75 77.1 306.75 77.1 301.08 82.43 301.08 82.43 295.4 87.77 295.4 87.77 289.72 93.1 289.72 93.1 284.04 98.44 284.04 98.44 278.37 101.56 278.41 101.56 284.04 101.56 345.53 61.08 345.53 50.33 335.05 50.33 329.41"/><path class="cls-27" d="M78.72,291s-12,34.42,7.24,52.56"/><path class="cls-11" d="M161.34,6.64s.2-3.24-2.3-3.24-2.72,2.45-4.59,2.25c-2.44-.26-1.7-3-4.57-3.12s-3.06,2.51-6,2.69c-2.72.17-2.33-3.4-5.3-3.34-2.8.05-3.54,4.1-6.84,3.38a6.37,6.37,0,0,1-4.31-3s1.17,6.17,5,6.39c3.43.19,3.84-1.81,6.36-1.66,2.26.14,2.44,2.89,4.81,3.24,2.77.41,3.12-3.33,5.78-2.61,2.09.57,2,3.25,4.16,3.45s2.79-2.64,4.84-2.44,2.94,2.74,2.94,2.74Z"/><line class="cls-28" x1="161.52" y1="15.29" x2="161.52" y2="2.56"/><circle cx="161.52" cy="1.43" r="1.43"/><path class="cls-2" d="M68.44,127.8c12.41,1.06,17,4,16.82,8.16-.26,7.75-27.08,3.14-26.95,11.65s16.08,2.57,16.4,12.28c.34,10.32-69.6,10.07-70.09,0-.38-8,18.44-4.53,18.17-8.75-.39-6-20.29,0-20.09-7.39.15-5.35,21.72-3.85,26.22-3.85,1.14,0,4.91-.18,5.06-1.67.33-3.5-7-1.5-7.11-6.06C26.69,125.4,58.16,126.92,68.44,127.8Z"/><polygon class="cls-14" points="199.45 126.2 199.44 104.46 199.44 98.78 194.1 98.78 194.1 93.1 188.77 93.1 188.77 87.42 183.43 87.42 183.43 87.42 183.43 81.75 178.1 81.75 178.1 76.07 172.76 76.07 172.76 70.39 167.43 70.39 167.43 64.71 162.09 64.71 162.09 59.03 158.97 59.08 158.97 64.71 158.97 126.2 199.45 126.2 199.45 126.2"/><ellipse class="cls-3" cx="161.8" cy="25.89" rx="11.05" ry="11.37"/><g class="cls-29"><rect class="cls-11" x="161.54" y="11.52" width="16.52" height="14.49"/></g><rect class="cls-3" x="150.75" y="29.45" width="22.09" height="96.75"/><path d="M161.9,33.77c4.38,0,7.92,4,7.92,8.86v.07h0l-.24,83.5H153.77L154,42.7h0v-.07c0-4.89,3.55-8.86,7.92-8.86Z"/><g class="cls-30"><polygon class="cls-11" points="198.83 99.42 193.5 99.42 193.5 93.74 188.16 93.74 188.16 88.06 182.83 88.06 182.83 82.39 177.49 82.39 177.49 76.71 172.16 76.71 172.16 76.71 172.16 71.03 166.82 71.03 166.82 65.36 161.49 65.36 161.49 59.68 156.15 59.68 156.15 59.68 156.15 54 150.82 54 150.82 48.32 145.48 48.32 145.48 42.64 140.15 42.64 140.15 36.97 134.81 36.97 134.81 31.29 131.69 31.33 131.69 36.97 131.69 131.27 198.83 131.27 198.83 113.58 198.83 99.42"/></g><rect x="153.77" y="108.08" width="15.87" height="1.9"/><rect class="cls-23" x="153.77" y="109.98" width="15.87" height="16.22"/><path class="cls-4" d="M162.15,126.2a16,16,0,0,1-6-13.22S161.68,116.4,162.15,126.2Z"/><g class="cls-31"><polygon class="cls-6" points="156.17 112.97 162.15 126.2 158.36 126.01 154.47 117.53 156.17 112.97"/></g><path class="cls-4" d="M162.15,126.2s-3.61-7.4.9-14.59A21.18,21.18,0,0,1,162.15,126.2Z"/><g class="cls-32"><polygon class="cls-6" points="163.04 111.61 162.15 126.2 159.99 124.08 159.72 114.85 163.04 111.61"/></g><path class="cls-4" d="M162.15,126.2s1-7.69,5.22-10.65C167.37,115.55,168.45,122.55,162.15,126.2Z"/><g class="cls-33"><polygon class="cls-6" points="167.37 115.55 162.15 126.2 161.91 118.5 164.09 114.34 166.79 114.6 167.37 115.55"/></g><circle class="cls-15" cx="161.8" cy="88.8" r="3.27"/><circle cx="161.8" cy="88.8" r="1.75"/><circle class="cls-15" cx="161.8" cy="98.66" r="3.27"/><circle cx="161.8" cy="98.66" r="1.75"/><path class="cls-6" d="M125.28,119.52a85.27,85.27,0,0,0-8.9-3.21c-2.88-.69-7.43-4.17-9.29-8s-2.17-9.84-.25-6.55,3.85,5.44,6.87,5.25,8,.65,10.77,7.15S125.28,119.52,125.28,119.52Z"/><path class="cls-21" d="M134.48,117.23s-.79-14.9,2.63-20.18,5.91-6.77,5.39-11.4,2.59-1.63,3.18,4-.84,10.91-2.81,16.23a17.85,17.85,0,0,0-.68,11.1C142.67,119.64,134.48,117.23,134.48,117.23Z"/><path class="cls-4" d="M122.89,120.83s-1.83-5.35-1.1-9.47-2-5.85-3.93-8.11-4.61-12.19-.14-15.1c3-1.93,1.05,6.27,4.87,9,3.67,2.66,9.42,4.33,10.67,11.76s2.35,12.81,2.17,15.86-3.65,1.83-3.65,1.83Z"/><path class="cls-22" d="M121.91,57.85s13.65,26.86,13.53,69.95"/><path class="cls-34" d="M121.78,57.23c0-.38-26.25,8.93-27.13,38.06C94.65,95.29,117.83,87.62,121.78,57.23Z"/><path id="SVGID-3" data-name="SVGID" class="cls-4" d="M121.78,57.23c0-.38-26.25,8.93-27.13,38.06C94.65,95.29,117.83,87.62,121.78,57.23Z"/><g class="cls-35"><path class="cls-6" d="M121.78,57.23S97.11,90.38,94.24,95.71s19.27-4.17,19.27-4.17L124.11,69Z"/></g><path class="cls-34" d="M121.78,57.23c.56-.29-19.12-13.71-45-8.53C76.78,48.7,100.39,68.11,121.78,57.23Z"/><path id="SVGID-4" data-name="SVGID" class="cls-4" d="M121.78,57.23c.56-.29-19.12-13.71-45-8.53C76.78,48.7,100.39,68.11,121.78,57.23Z"/><g class="cls-36"><polygon class="cls-6" points="76.78 48.7 121.78 57.23 109.53 70.75 82.08 61 76.78 48.7"/></g><path class="cls-34" d="M121.78,57.23c0,.37-26.19-17-22.83-45.71C99,11.52,121.94,24.48,121.78,57.23Z"/><path id="SVGID-5" data-name="SVGID" class="cls-4" d="M121.78,57.23c0,.37-26.19-17-22.83-45.71C99,11.52,121.94,24.48,121.78,57.23Z"/><g class="cls-37"><polygon class="cls-6" points="98.95 11.52 121.78 57.23 105.51 55.53 90.64 26.22 98.95 11.52"/></g><path class="cls-34" d="M121.78,57.23s-6.61-28.43,19.63-44.7C141.41,12.53,144.05,37.75,121.78,57.23Z"/><path id="SVGID-6" data-name="SVGID" class="cls-4" d="M121.78,57.23s-6.61-28.43,19.63-44.7C141.41,12.53,144.05,37.75,121.78,57.23Z"/><g class="cls-38"><polygon class="cls-6" points="141.41 12.53 121.78 57.23 115.3 47.51 124.3 18.02 141.41 12.53"/></g><path class="cls-34" d="M121.78,57.23S139.43,38.11,160,39.69C160,39.69,151.23,61.81,121.78,57.23Z"/><path id="SVGID-7" data-name="SVGID" class="cls-4" d="M121.78,57.23S139.43,38.11,160,39.69C160,39.69,151.23,61.81,121.78,57.23Z"/><g class="cls-39"><polygon class="cls-6" points="160.02 39.69 121.78 57.23 134.92 35.13 150.35 28.62 159.66 35.69 160.02 39.69"/></g><circle class="cls-3" cx="121.12" cy="58.69" r="1.47"/><circle class="cls-11" cx="123.08" cy="57.93" r="1.47"/><path class="cls-20" d="M135.88,126.5s-1.34-15.68,6-14.78c2.91.35,3,3.59,3.26,5s1.11,2.65,3.75,3.37,3.21,3.58,2.85,6.14S135.88,126.5,135.88,126.5Z"/><path class="cls-21" d="M105.6,126.55s-.88-9.47,4-9.76c4.37-.26,2.55,3.73,6,4.7,3.17.89,3.61-3.94,6.8-3.38,2.54.45,2.8,3.84,5.53,5.69a11.76,11.76,0,0,0,6.09,2.4l-24.67,2.13Z"/><rect x="105.6" y="126.2" width="93.85" height="4.11"/><rect class="cls-40" x="149.38" y="25.99" width="24.84" height="3.46"/><path d="M186.43,104.16a5.75,5.75,0,0,1,5.69,5.81v0h0V126.2H180.74V110h0v0a5.75,5.75,0,0,1,5.69-5.8Z"/><path class="cls-11" d="M33.89,271.31s.2-3.24-2.3-3.24-2.72,2.45-4.59,2.25c-2.44-.26-1.7-3-4.57-3.12s-3.06,2.51-6,2.69c-2.72.17-2.33-3.4-5.3-3.34-2.8.05-3.53,4.1-6.84,3.38a6.37,6.37,0,0,1-4.31-3s1.17,6.17,5,6.39c3.42.2,3.84-1.81,6.36-1.66,2.26.14,2.44,2.89,4.81,3.24,2.77.41,3.12-3.33,5.78-2.61,2.09.57,2,3.25,4.16,3.45s2.79-2.64,4.84-2.44S33.89,276,33.89,276Z"/><line class="cls-28" x1="34.07" y1="279.97" x2="34.07" y2="267.23"/><circle cx="34.07" cy="266.1" r="1.43"/><ellipse class="cls-3" cx="34.35" cy="290.56" rx="11.05" ry="11.37"/><g class="cls-41"><rect class="cls-11" x="34.09" y="276.19" width="16.52" height="14.49"/></g><rect class="cls-3" x="23.3" y="294.13" width="22.09" height="96.74"/><path d="M34.45,298.44c4.38,0,7.92,4,7.92,8.86v.07h0l-.24,83.5H26.32l.21-83.5h0v-.07c0-4.9,3.55-8.86,7.92-8.86Z"/><g class="cls-42"><polygon class="cls-4" points="71.39 364.09 66.05 364.09 66.05 358.42 60.72 358.42 60.72 352.74 55.38 352.74 55.38 347.06 50.05 347.06 50.05 341.38 44.71 341.38 44.71 341.38 44.71 335.7 39.38 335.7 39.38 330.03 34.04 330.03 34.04 324.35 28.7 324.35 28.7 324.35 28.7 318.67 23.37 318.67 23.37 312.99 18.03 312.99 18.03 307.32 12.7 307.32 12.7 301.64 7.36 301.64 7.36 295.96 4.24 296 4.24 301.64 4.24 395.94 71.39 395.94 71.39 378.25 71.39 364.09"/></g><rect x="26.32" y="372.75" width="15.87" height="1.9"/><rect class="cls-23" x="26.32" y="374.65" width="15.87" height="16.22"/><path class="cls-6" d="M34.7,390.87a16,16,0,0,1-6-13.22S34.23,381.07,34.7,390.87Z"/><g class="cls-43"><polygon class="cls-20" points="28.72 377.64 34.7 390.87 30.91 390.68 27.03 382.21 28.72 377.64"/></g><path class="cls-34" d="M34.7,390.87s-3.61-7.4.9-14.59A21.17,21.17,0,0,1,34.7,390.87Z"/><path id="SVGID-8" data-name="SVGID" class="cls-6" d="M34.7,390.87s-3.61-7.4.9-14.59A21.17,21.17,0,0,1,34.7,390.87Z"/><g class="cls-44"><polygon class="cls-20" points="35.6 376.28 34.7 390.87 32.54 388.76 32.27 379.52 35.6 376.28"/></g><path class="cls-34" d="M34.7,390.87s1-7.69,5.22-10.65C39.92,380.22,41,387.22,34.7,390.87Z"/><path id="SVGID-9" data-name="SVGID" class="cls-6" d="M34.7,390.87s1-7.69,5.22-10.65C39.92,380.22,41,387.22,34.7,390.87Z"/><g class="cls-45"><polygon class="cls-20" points="39.92 380.22 34.7 390.87 34.47 383.17 36.65 379.01 39.35 379.28 39.92 380.22"/></g><circle class="cls-15" cx="34.35" cy="353.47" r="3.27"/><circle cx="34.35" cy="353.47" r="1.75"/><circle class="cls-15" cx="34.35" cy="363.33" r="3.27"/><circle cx="34.35" cy="363.33" r="1.75"/><rect class="cls-40" x="23.3" y="290.66" width="22.23" height="3.46"/><path d="M75.95,240.29a4.08,4.08,0,0,1,4,4.12v0h0v11.5H71.9v-11.5h0v0a4.08,4.08,0,0,1,4-4.12Z"/><path d="M90.58,240.29a4.08,4.08,0,0,1,4,4.12v0h0v11.5H86.53v-11.5h0v0a4.08,4.08,0,0,1,4-4.12Z"/><rect x="45.52" y="281.85" width="55.71" height="3.26"/><circle class="cls-15" cx="53.03" cy="263.19" r="3.27"/><circle cx="53.03" cy="263.19" r="1.75"/><circle class="cls-15" cx="53.03" cy="273.06" r="3.27"/><circle cx="53.03" cy="273.06" r="1.75"/><path d="M55.34,297.72a4.08,4.08,0,0,1,4,4.12v0h0v11.5H51.3v-11.5h0v0a4.08,4.08,0,0,1,4-4.12Z"/><path class="cls-20" d="M62.78,340.48c.78-1.17,2.26-4.15,1.62-6.54-1.26-4.67-1-9.92,2.62-9.89,4.09,0,3.3,4.61,3.81,7.57.43,2.5,5.19-1.87,8.45-.46s1.63,5.2,4.19,8.39,1,6,3,6H62.66Z"/><path class="cls-4" d="M45.56,344.36s-.82-11.28,5.78-10.41c3.53.46,3.44,3.67,5,5.05s7-1.89,9.37,1S68,344.64,68,345.53l-22.41-.06Z"/><path class="cls-6" d="M78.09,341.7c.27-1.83,1.13-4,3.6-4.52s4.69-1.22,4.94-3.67.51-6.36,3.85-6.25,3.34,3.34,3.15,6.34,1.38,4.11,2.93,5.15,5,2.23,5,6.77H78.49A9.43,9.43,0,0,1,78.09,341.7Z"/><circle class="cls-15" cx="66.16" cy="327.74" r="0.48"/><circle class="cls-15" cx="68.43" cy="331.22" r="0.48"/><circle class="cls-15" cx="67.11" cy="335.33" r="0.48"/><circle class="cls-15" cx="72.38" cy="335.8" r="0.48"/><circle class="cls-15" cx="69.38" cy="340.05" r="0.48"/><circle class="cls-15" cx="73.67" cy="343.09" r="0.48"/><circle class="cls-15" cx="75.95" cy="341.28" r="0.48"/><circle class="cls-15" cx="77.75" cy="335.1" r="0.48"/><rect class="cls-13" x="105.6" y="130.31" width="93.85" height="119.83"/><rect class="cls-3" x="145.46" y="169.96" width="53.99" height="107.07"/><path d="M155.12,174.89c3.37.14,5.37,2.62,5.69,5.8v0h0v13h0V277H149.43V180.73h0v0A5.75,5.75,0,0,1,155.12,174.89Z"/><path d="M172.46,174.89c3.37.14,5.37,2.62,5.69,5.81v0h0v13h0V277H166.77V180.74h0v0a5.75,5.75,0,0,1,5.69-5.8Z"/><path d="M189.8,174.89c3.37.14,5.37,2.62,5.69,5.81v0h0v13h0V277H184.11V180.74h0v0a5.75,5.75,0,0,1,5.69-5.8Z"/><rect class="cls-3" x="145.46" y="283.1" width="53.99" height="62.34"/><path d="M172.26,289.14c10.8,0,19.56,9,19.56,20.12v.15h0v36H152.7v-36h0v-.15c0-11.11,8.76-20.12,19.56-20.12Z"/><path class="cls-34" d="M174.71,345.43c0,.32-21-13.16-19.91-38.12C154.79,307.31,173.16,317.18,174.71,345.43Z"/><path id="SVGID-10" data-name="SVGID" class="cls-4" d="M174.71,345.43c0,.32-21-13.16-19.91-38.12C154.79,307.31,173.16,317.18,174.71,345.43Z"/><g class="cls-46"><polygon class="cls-6" points="154.79 307.31 174.71 345.43 162.08 344.89 149.14 320.46 154.79 307.31"/></g><path class="cls-34" d="M174.71,345.43s-12-21.33,3-42A53.36,53.36,0,0,1,174.71,345.43Z"/><path id="SVGID-11" data-name="SVGID" class="cls-4" d="M174.71,345.43s-12-21.33,3-42A53.36,53.36,0,0,1,174.71,345.43Z"/><g class="cls-47"><polygon class="cls-6" points="177.7 303.39 174.71 345.43 167.51 339.34 166.61 312.72 177.7 303.39"/></g><path class="cls-34" d="M174.71,345.43s6.84-21.33,22-27.53C196.71,317.9,197.09,338.39,174.71,345.43Z"/><path id="SVGID-12" data-name="SVGID" class="cls-4" d="M174.71,345.43s6.84-21.33,22-27.53C196.71,317.9,197.09,338.39,174.71,345.43Z"/><g class="cls-48"><polygon class="cls-6" points="196.72 317.9 174.71 345.43 177.43 323.39 186.49 312.73 195.25 314.9 196.72 317.9"/></g><path class="cls-34" d="M174.71,345.43s-10.49-19.77-26.51-23.16C148.2,322.27,151.44,342.51,174.71,345.43Z"/><path id="SVGID-13" data-name="SVGID" class="cls-4" d="M174.71,345.43s-10.49-19.77-26.51-23.16C148.2,322.27,151.44,342.51,174.71,345.43Z"/><g class="cls-49"><polygon class="cls-6" points="148.2 322.27 174.71 345.43 168.15 324.23 157.36 315.35 149.11 319.06 148.2 322.27"/></g><path class="cls-23" d="M145.55,277.92s-1.6-18.61,18.77-26.32c6.52-2.46,8-5.07,8.06-10.59.08,5.51,1.54,8.12,8.06,10.59,20.37,7.7,18.77,26.32,18.77,26.32Z"/><g class="cls-50"><rect class="cls-11" x="172.58" y="239.73" width="28.37" height="37.28"/></g><ellipse class="cls-15" cx="172.39" cy="241.2" rx="1.8" ry="1.85"/><rect class="cls-12" x="145.46" y="277.01" width="10.8" height="6.09"/><rect class="cls-13" x="156.26" y="277.01" width="10.8" height="6.09"/><rect class="cls-14" x="167.06" y="277.01" width="10.8" height="6.09"/><rect class="cls-12" x="177.86" y="277.01" width="10.8" height="6.09"/><rect class="cls-13" x="188.65" y="277.01" width="10.8" height="6.09"/><ellipse class="cls-15" cx="147.4" cy="275.07" rx="1.93" ry="1.94"/><ellipse class="cls-15" cx="155.77" cy="275.07" rx="1.93" ry="1.94"/><ellipse class="cls-15" cx="164.15" cy="275.07" rx="1.93" ry="1.94"/><ellipse class="cls-15" cx="172.53" cy="275.07" rx="1.93" ry="1.94"/><ellipse class="cls-15" cx="180.91" cy="275.07" rx="1.93" ry="1.94"/><ellipse class="cls-15" cx="189.29" cy="275.07" rx="1.93" ry="1.94"/><ellipse class="cls-15" cx="197.52" cy="275.07" rx="1.93" ry="1.94"/><polygon class="cls-14" points="199.45 130.31 199.45 169.96 167.44 169.96 167.35 164.31 167.44 158.7 172.65 158.7 172.65 153.02 178.11 153.02 178.11 147.34 183.45 147.34 183.45 141.66 188.78 141.66 188.78 135.99 194.12 135.99 194.12 130.31 199.45 130.31"/><rect class="cls-11" x="145.46" y="135.96" width="23.13" height="34"/><path class="cls-3" d="M145.48,136.34s-.69-7.52,8.08-10.64c2.81-1,3.43-2.05,3.47-4.28,0,2.23.66,3.28,3.47,4.28,8.77,3.12,8.08,10.64,8.08,10.64Z"/><g class="cls-51"><rect class="cls-11" x="157.03" y="120.9" width="12.21" height="15.07"/></g><ellipse class="cls-15" cx="157.03" cy="121.5" rx="0.78" ry="0.75"/><circle class="cls-15" cx="146.56" cy="134.87" r="1.1"/><circle class="cls-15" cx="151.8" cy="134.87" r="1.1"/><circle class="cls-15" cx="157.03" cy="134.87" r="1.1"/><circle class="cls-15" cx="162.27" cy="134.87" r="1.1"/><circle class="cls-15" cx="167.5" cy="134.87" r="1.1"/><rect class="cls-52" x="145.46" y="135.96" width="23.13" height="2.16"/><path d="M157,142.21a7.24,7.24,0,0,1,7.16,7.31v.05h0V170H149.87V149.58h0v-.05a7.24,7.24,0,0,1,7.16-7.31Z"/><circle class="cls-15" cx="137.34" cy="177.16" r="3.9"/><circle cx="137.34" cy="177.16" r="2.08"/><circle class="cls-15" cx="137.34" cy="188.91" r="3.9"/><circle cx="137.34" cy="188.91" r="2.08"/><path class="cls-34" d="M124.66,163.24c.21-.14-15.86-9.17-30.73,3.06C93.93,166.3,107.83,174.49,124.66,163.24Z"/><path class="cls-6" d="M124.66,163.24s11.26-15.65,30.77-9.68A36.87,36.87,0,0,1,124.66,163.24Z"/><path class="cls-6" d="M124.66,163.24s17.19.46,25.36,11.39C150,174.63,135.2,179.87,124.66,163.24Z"/><path class="cls-53" d="M124.38,162.9s-5.73,27.79-2.49,47.42"/><path id="SVGID-14" data-name="SVGID" class="cls-6" d="M124.66,163.24c.21-.14-15.86-9.17-30.73,3.06C93.93,166.3,107.83,174.49,124.66,163.24Z"/><g class="cls-54"><path class="cls-20" d="M124.66,163.24s-27.22,2.15-31.12,3S104,174,104,174l15.83-4.54Z"/></g><path class="cls-34" d="M124.66,163.24c.39.15-1.5-15.47-15.33-26.1C109.33,137.14,109.95,157.32,124.66,163.24Z"/><path id="SVGID-15" data-name="SVGID" class="cls-6" d="M124.66,163.24c.39.15-1.5-15.47-15.33-26.1C109.33,137.14,109.95,157.32,124.66,163.24Z"/><g class="cls-55"><polygon class="cls-20" points="109.33 137.14 124.67 163.24 112.61 163.02 105.52 145.13 109.33 137.14"/></g><path class="cls-34" d="M124.66,163.24c-.18.16-2.94-20.41,12.81-31.24C137.47,132,141,149.07,124.66,163.24Z"/><path id="SVGID-16" data-name="SVGID" class="cls-6" d="M124.66,163.24c-.18.16-2.94-20.41,12.81-31.24C137.47,132,141,149.07,124.66,163.24Z"/><g class="cls-56"><polygon class="cls-20" points="137.47 131.99 124.67 163.24 118.43 154.4 126.55 134.26 137.47 131.99"/></g><path id="SVGID-17" data-name="SVGID" class="cls-6" d="M124.66,163.24s11.26-15.65,30.77-9.68A36.87,36.87,0,0,1,124.66,163.24Z"/><g class="cls-57"><polygon class="cls-20" points="155.44 153.56 124.67 163.24 126.68 155.78 145.26 147.43 155.44 153.56"/></g><g class="cls-58"><polygon class="cls-20" points="150.02 174.63 124.67 163.24 141.37 160.16 151.32 165 151.86 172.71 150.02 174.63"/></g><circle class="cls-3" cx="123.65" cy="163.54" r="0.97"/><circle class="cls-11" cx="124.88" cy="164.19" r="0.97"/><path class="cls-3" d="M42.05,235.52s-3.18-38.81,37.38-54.87c13-5.14,15.88-10.58,16-22.07.16,11.49,3.07,16.93,16,22.07,40.55,16.06,37.38,54.87,37.38,54.87Z"/><g class="cls-59"><rect class="cls-11" x="95.48" y="155.9" width="56.47" height="77.73"/></g><ellipse class="cls-11" cx="95.48" cy="158.97" rx="3.59" ry="3.85"/><circle class="cls-15" cx="43.5" cy="230.2" r="1.51"/><circle class="cls-15" cx="50.93" cy="230.2" r="1.51"/><circle class="cls-15" cx="58.35" cy="230.2" r="1.51"/><circle class="cls-15" cx="65.78" cy="230.2" r="1.51"/><circle class="cls-15" cx="73.2" cy="230.2" r="1.51"/><circle class="cls-15" cx="80.63" cy="230.2" r="1.51"/><circle class="cls-15" cx="88.05" cy="230.2" r="1.51"/><circle class="cls-15" cx="95.48" cy="230.2" r="1.51"/><circle class="cls-15" cx="102.9" cy="230.2" r="1.51"/><circle class="cls-15" cx="110.33" cy="230.2" r="1.51"/><circle class="cls-15" cx="117.75" cy="230.2" r="1.51"/><circle class="cls-15" cx="125.18" cy="230.2" r="1.51"/><circle class="cls-15" cx="132.6" cy="230.2" r="1.51"/><circle class="cls-15" cx="140.03" cy="230.2" r="1.51"/><rect class="cls-40" x="42" y="231.71" width="106.96" height="3.81"/><rect class="cls-23" x="124.68" y="235.95" width="20.79" height="69.33"/><circle class="cls-15" cx="147.45" cy="230.2" r="1.51"/><rect class="cls-3" x="101.23" y="235.52" width="23.44" height="33.5"/><rect class="cls-12" x="101.23" y="235.52" width="4.42" height="3.3"/><rect class="cls-13" x="105.66" y="235.52" width="4.42" height="3.3"/><rect class="cls-14" x="110.08" y="235.52" width="4.42" height="3.3"/><rect class="cls-12" x="114.5" y="235.52" width="4.42" height="3.3"/><rect class="cls-13" x="118.93" y="235.52" width="4.42" height="3.3"/><rect class="cls-14" x="123.35" y="235.52" width="4.42" height="3.3"/><rect class="cls-12" x="127.77" y="235.52" width="4.42" height="3.3"/><rect class="cls-13" x="132.2" y="235.52" width="4.42" height="3.3"/><rect class="cls-14" x="136.62" y="235.52" width="4.42" height="3.3"/><rect class="cls-12" x="141.04" y="235.52" width="4.42" height="3.3"/><rect x="101.23" y="269.02" width="23.44" height="3.13"/><rect class="cls-12" x="101.23" y="272.15" width="23.44" height="33.13"/><rect class="cls-12" x="101.23" y="305.28" width="4.42" height="3.3"/><rect class="cls-13" x="105.66" y="305.28" width="4.42" height="3.3"/><rect class="cls-14" x="110.08" y="305.28" width="4.42" height="3.3"/><rect class="cls-12" x="114.5" y="305.28" width="4.42" height="3.3"/><rect class="cls-13" x="118.93" y="305.28" width="4.42" height="3.3"/><rect class="cls-14" x="123.35" y="305.28" width="4.42" height="3.3"/><rect class="cls-12" x="127.77" y="305.28" width="4.42" height="3.3"/><rect class="cls-13" x="132.2" y="305.28" width="4.42" height="3.3"/><rect class="cls-14" x="136.62" y="305.28" width="4.42" height="3.3"/><rect class="cls-12" x="141.04" y="305.28" width="4.42" height="3.3"/><path d="M113.12,242.54a6.91,6.91,0,0,1,6.84,7v.05h0V269H106.29V249.57h0v-.05a6.91,6.91,0,0,1,6.83-7Z"/><g class="cls-60"><polygon class="cls-12" points="125.83 247.57 125.83 252.38 125.84 252.38 125.84 278.79 101.08 278.79 101.08 266.81 106.03 266.81 106.03 262 110.98 262 110.98 257.19 115.93 257.19 115.93 252.38 120.88 252.38 120.88 247.57 125.83 247.57"/></g><path d="M113.12,278.86a6.91,6.91,0,0,1,6.84,7v.05h0v19.46H106.29V285.89h0v-.05a6.91,6.91,0,0,1,6.83-7Z"/><g class="cls-61"><polygon class="cls-3" points="125.83 283.89 125.83 288.7 125.84 288.7 125.84 315.11 101.08 315.11 101.08 303.13 106.03 303.13 106.03 298.32 110.98 298.32 110.98 293.51 115.93 293.51 115.93 288.7 120.88 288.7 120.88 283.89 125.83 283.89"/></g><path d="M128.24,249.57h0v-.05a6.91,6.91,0,0,1,6.84-7h0a6.91,6.91,0,0,1,6.84,7v.05h0v17.7h0v38H128.24V249.57Z"/><g class="cls-62"><polygon class="cls-3" points="128.24 274.06 128.24 278.87 128.24 278.87 128.24 305.28 152.99 305.28 152.99 293.29 148.04 293.29 148.04 288.48 143.09 288.48 143.09 283.68 138.14 283.68 138.14 278.87 133.19 278.87 133.19 274.06 128.24 274.06"/></g><rect class="cls-11" x="101.56" y="308.52" width="43.9" height="36.95"/><rect class="cls-63" x="103.56" y="310.52" width="39.9" height="32.95"/><rect class="cls-63" x="105.56" y="312.52" width="35.9" height="28.95"/><rect class="cls-63" x="107.56" y="314.52" width="31.9" height="24.95"/><rect class="cls-63" x="109.56" y="316.52" width="27.9" height="20.95"/><rect class="cls-63" x="111.56" y="318.52" width="23.9" height="16.95"/><rect class="cls-63" x="113.56" y="320.52" width="19.9" height="12.95"/><rect class="cls-63" x="115.56" y="322.52" width="15.9" height="8.95"/><rect class="cls-63" x="117.56" y="324.52" width="11.9" height="4.95"/><path class="cls-4" d="M79.28,290.85c.29-.12-16.89-14.93-37.81-3.81C41.47,287,56.23,300.31,79.28,290.85Z"/><g class="cls-64"><path class="cls-6" d="M79.28,290.85S45.92,286.79,41,286.91s10.71,11.92,10.71,11.92l20.2-1.61Z"/></g><path class="cls-34" d="M79.28,290.85c.43.28,2-19-12.12-35.22C67.16,255.63,63,280.13,79.28,290.85Z"/><path id="SVGID-18" data-name="SVGID" class="cls-4" d="M79.28,290.85c.43.28,2-19-12.12-35.22C67.16,255.63,63,280.13,79.28,290.85Z"/><g class="cls-65"><polygon class="cls-6" points="67.16 255.63 79.28 290.85 64.8 287.65 60.61 264.33 67.16 255.63"/></g><path class="cls-34" d="M79.28,290.85c-.26.15,1.43-25.34,23.07-34.55C102.35,256.29,102.46,277.75,79.28,290.85Z"/><path id="SVGID-19" data-name="SVGID" class="cls-4" d="M79.28,290.85c-.26.15,1.43-25.34,23.07-34.55C102.35,256.29,102.46,277.75,79.28,290.85Z"/><g class="cls-66"><polygon class="cls-6" points="102.35 256.29 79.28 290.85 73.92 278.67 88.62 256.36 102.35 256.29"/></g><path class="cls-4" d="M79.28,290.85s17.4-16.13,39.47-4.16A45.37,45.37,0,0,1,79.28,290.85Z"/><g class="cls-67"><polygon class="cls-6" points="118.75 286.68 79.28 290.85 83.53 282.35 107.98 276.81 118.75 286.68"/></g><path class="cls-4" d="M79.28,290.85s20.61,4.75,27.81,19.93C107.09,310.77,87.92,313.48,79.28,290.85Z"/><g class="cls-68"><polygon class="cls-6" points="107.09 310.77 79.28 290.85 100.18 291.21 111 299.48 109.77 308.91 107.09 310.77"/></g><circle class="cls-3" cx="77.98" cy="290.97" r="1.2"/><circle class="cls-12" cx="79.31" cy="292.05" r="1.2"/><rect class="cls-11" x="23.3" y="390.87" width="78.26" height="39.99"/><rect class="cls-3" x="101.56" y="380.54" width="43.9" height="50.32"/><rect class="cls-23" x="104.05" y="397.68" width="39.41" height="33.18"/><rect class="cls-13" x="107.4" y="402.96" width="32.86" height="27.89"/><rect class="cls-3" x="111.67" y="407.84" width="24.22" height="23.02"/><path d="M107.47,382.52a3.37,3.37,0,0,1,3.36,3.39v0h0v9.44h-6.71v-9.44h0v0a3.37,3.37,0,0,1,3.36-3.39Z"/><path d="M118.34,382.52a3.37,3.37,0,0,1,3.36,3.39v0h0v9.44H115v-9.44h0v0A3.37,3.37,0,0,1,118.34,382.52Z"/><path d="M129.21,382.52a3.37,3.37,0,0,1,3.36,3.39v0h0v9.44h-6.71v-9.44h0v0a3.37,3.37,0,0,1,3.36-3.39Z"/><path d="M140.09,382.52a3.37,3.37,0,0,1,3.36,3.39v0h0v9.44h-6.71v-9.44h0v0A3.37,3.37,0,0,1,140.09,382.52Z"/><rect class="cls-4" x="118.85" y="412.28" width="9.8" height="18.58"/><circle class="cls-15" cx="126.92" cy="420.86" r="0.75"/><rect x="101.56" y="377.04" width="43.9" height="3.5"/><ellipse class="cls-15" cx="103.06" cy="375.54" rx="1.49" ry="1.51"/><ellipse class="cls-15" cx="109.88" cy="375.54" rx="1.49" ry="1.51"/><ellipse class="cls-15" cx="116.7" cy="375.54" rx="1.49" ry="1.51"/><ellipse class="cls-15" cx="123.51" cy="375.54" rx="1.49" ry="1.51"/><ellipse class="cls-15" cx="130.34" cy="375.54" rx="1.49" ry="1.51"/><ellipse class="cls-15" cx="137.15" cy="375.54" rx="1.49" ry="1.51"/><ellipse class="cls-15" cx="143.97" cy="375.54" rx="1.49" ry="1.51"/><path d="M155.12,350.4c3.37.14,5.37,2.62,5.69,5.8v0h0v13h0V377H149.43v-20.8h0v0A5.75,5.75,0,0,1,155.12,350.4Z"/><path d="M172.46,350.4c3.37.14,5.37,2.62,5.69,5.81v0h0v13h0V377H166.77v-20.8h0v0a5.75,5.75,0,0,1,5.69-5.8Z"/><path d="M189.8,350.4c3.37.14,5.37,2.62,5.69,5.81v0h0v13h0V377H184.11v-20.8h0v0a5.75,5.75,0,0,1,5.69-5.8Z"/><rect class="cls-4" x="145.46" y="399.29" width="86.64" height="31.57"/><path d="M155.59,404.21c3.37.14,5.37,2.62,5.69,5.8v0h0v20.8H149.9v-20.8h0v0a5.75,5.75,0,0,1,5.69-5.8Z"/><path d="M172.32,404.21c3.37.14,5.37,2.62,5.69,5.8v0h0v13h0v7.77H166.63v-20.8h0v0a5.75,5.75,0,0,1,5.69-5.8Z"/><path d="M189,404.21c3.37.14,5.37,2.62,5.69,5.8v0h0v13h0v7.77H183.35v-20.8h0v0a5.75,5.75,0,0,1,5.69-5.8Z"/><path d="M205.76,404.21c3.37.14,5.37,2.62,5.69,5.8v0h0v13h0v7.77H200.07v-20.8h0v0a5.75,5.75,0,0,1,5.69-5.8Z"/><path d="M222.48,404.21c3.37.14,5.37,2.62,5.69,5.8v0h0v13h0v7.77H216.79v-20.8h0v0a5.75,5.75,0,0,1,5.69-5.8Z"/><path d="M33.68,394.35c3.86.15,6.16,3,6.52,6.65v0h0v29.8h-13v-29.8h0v0a6.59,6.59,0,0,1,6.52-6.65Z"/><path d="M52.85,394.35c3.86.15,6.16,3,6.52,6.65v0h0V416h0v14.87h-13v-29.8h0v0a6.59,6.59,0,0,1,6.52-6.65Z"/><path d="M72,394.35c3.86.15,6.16,3,6.52,6.65v0h0V416h0v14.87h-13v-29.8h0v0A6.59,6.59,0,0,1,72,394.35Z"/><path d="M91.19,394.35c3.86.15,6.16,3,6.52,6.65v0h0V416h0v14.87h-13v-29.8h0v0a6.59,6.59,0,0,1,6.52-6.65Z"/><path d="M156.11,381.5a3.37,3.37,0,0,1,3.36,3.39v0h0v9.44h-6.71v-9.44h0v0A3.37,3.37,0,0,1,156.11,381.5Z"/><path d="M171.46,381.5a3.37,3.37,0,0,1,3.36,3.39v0h0v9.44H168.1v-9.44h0v0a3.37,3.37,0,0,1,3.36-3.39Z"/><path d="M186.81,381.5a3.37,3.37,0,0,1,3.36,3.39v0h0v9.44h-6.71v-9.44h0v0A3.37,3.37,0,0,1,186.81,381.5Z"/><path d="M209.3,353c3,.12,4.86,2.37,5.14,5.25v0h0V370h0v7H204.16v-18.8h0v0A5.2,5.2,0,0,1,209.3,353Z"/><path d="M222.26,353c3,.12,4.86,2.37,5.14,5.25v0h0V370h0v7H217.12v-18.8h0v0a5.19,5.19,0,0,1,5.14-5.25Z"/><path d="M214.55,343.88a3.37,3.37,0,0,1,3.39-3.36h9.47v6.71h-9.47A3.37,3.37,0,0,1,214.55,343.88Z"/><rect x="217.69" y="282.36" width="14.42" height="1.77"/><circle class="cls-15" cx="207.55" cy="250.48" r="3.9"/><circle cx="207.55" cy="250.48" r="2.08"/><circle class="cls-15" cx="207.55" cy="262.23" r="3.9"/><circle cx="207.55" cy="262.23" r="2.08"/><path d="M216.79,245.42h0v0a3.93,3.93,0,0,1,3.92-3.95h0a3.93,3.93,0,0,1,3.92,3.95v0h0v9.71h0v3.71H216.8V245.42Z"/><rect x="216.79" y="258.84" width="31.96" height="1.71"/><rect class="cls-13" x="199.45" y="202.33" width="53.99" height="32.7"/><path class="cls-69" d="M199.47,235.52a17.37,17.37,0,0,1,11.41-16.91c4-1.58,4.85-3.26,4.9-6.8,0,3.54.94,5.22,4.9,6.8a17.37,17.37,0,0,1,11.41,16.91Z"/><path id="SVGID-20" data-name="SVGID" class="cls-3" d="M199.47,235.52a17.37,17.37,0,0,1,11.41-16.91c4-1.58,4.85-3.26,4.9-6.8,0,3.54.94,5.22,4.9,6.8a17.37,17.37,0,0,1,11.41,16.91Z"/><g class="cls-70"><rect class="cls-11" x="215.79" y="211.24" width="17.24" height="23.95"/></g><circle class="cls-15" cx="200.96" cy="233.45" r="1.51"/><circle class="cls-15" cx="208.37" cy="233.45" r="1.51"/><circle class="cls-15" cx="215.78" cy="233.45" r="1.51"/><circle class="cls-15" cx="223.19" cy="233.45" r="1.51"/><circle class="cls-15" cx="230.6" cy="233.45" r="1.51"/><rect x="199.45" y="234.95" width="32.67" height="2.88"/><rect class="cls-12" x="101.56" y="377.04" width="4.39" height="3.5"/><rect class="cls-13" x="105.95" y="377.04" width="4.39" height="3.5"/><rect class="cls-14" x="110.34" y="377.04" width="4.39" height="3.5"/><rect class="cls-12" x="114.73" y="377.04" width="4.39" height="3.5"/><rect class="cls-13" x="119.12" y="377.04" width="4.39" height="3.5"/><rect class="cls-14" x="123.51" y="377.04" width="4.39" height="3.5"/><rect class="cls-12" x="127.9" y="377.04" width="4.39" height="3.5"/><rect class="cls-13" x="132.29" y="377.04" width="4.39" height="3.5"/><rect class="cls-14" x="136.68" y="377.04" width="4.39" height="3.5"/><rect class="cls-12" x="141.07" y="377.04" width="4.39" height="3.5"/><rect class="cls-12" x="199.45" y="234.95" width="4.67" height="3.51"/><rect class="cls-13" x="204.12" y="234.95" width="4.67" height="3.51"/><rect class="cls-14" x="208.79" y="234.95" width="4.67" height="3.51"/><rect class="cls-12" x="213.45" y="234.95" width="4.67" height="3.51"/><rect class="cls-13" x="218.12" y="234.95" width="4.67" height="3.51"/><rect class="cls-14" x="222.79" y="234.95" width="4.67" height="3.51"/><rect class="cls-12" x="227.45" y="234.95" width="4.67" height="3.51"/><path class="cls-4" d="M199.45,302.95s.17-12,3.85-12.24.81,8.79,3.48,9c3.75.33,2.67-4.44,5.22-4.44,3,0-.55,7.73,5,7.73v1.33Z"/><rect x="199.45" y="302.54" width="18.24" height="1.72"/><rect x="232.12" y="234.95" width="71.25" height="3.51"/><path d="M273,218.37a3.37,3.37,0,0,1,3.36,3.39v0h0v9.44h-6.71v-9.44h0v0A3.37,3.37,0,0,1,273,218.37Z"/><path d="M181.77,161.38a3.37,3.37,0,0,1,3.38-3.36h9.47v6.71h-9.47A3.37,3.37,0,0,1,181.77,161.38Z"/><rect class="cls-3" x="280.23" y="200.96" width="23.13" height="34"/><path class="cls-3" d="M280.25,201.34s-.69-7.52,8.08-10.64c2.81-1,3.43-2.05,3.47-4.28,0,2.23.66,3.28,3.47,4.28,8.77,3.12,8.08,10.64,8.08,10.64Z"/><g class="cls-71"><rect class="cls-11" x="291.8" y="185.9" width="12.21" height="15.07"/></g><ellipse class="cls-11" cx="291.8" cy="186.49" rx="0.78" ry="0.75"/><circle class="cls-15" cx="281.33" cy="199.86" r="1.1"/><circle class="cls-15" cx="286.57" cy="199.86" r="1.1"/><circle class="cls-15" cx="291.8" cy="199.86" r="1.1"/><circle class="cls-15" cx="297.04" cy="199.86" r="1.1"/><circle class="cls-15" cx="302.27" cy="199.86" r="1.1"/><rect class="cls-52" x="280.23" y="200.96" width="23.13" height="2.16"/><path d="M291.8,207.21a7.24,7.24,0,0,1,7.16,7.31v.05h0V235H284.64V214.57h0v-.05a7.24,7.24,0,0,1,7.16-7.31Z"/><path class="cls-4" d="M250.35,371.25s5-1.91,3.46-12.28-1.81-14.45,2.94-15.4,8.51,3.73,9.34,14.5a118.89,118.89,0,0,1-.15,19.74l-15.37-3"/><path class="cls-4" d="M275.44,350.4s1.83,6.4,5.52,7.2,4.8-2.19,8.38.07-2.14,7.34,1.06,10.86,11.08,3,12,8.52-9.52,3.5-9.52,3.5L273.77,377Z"/><path class="cls-4" d="M282.91,288.94c.45,0-11.92-30.11-46-29.47C237,259.47,247.23,286.07,282.91,288.94Z"/><g class="cls-72"><path class="cls-6" d="M282.91,288.94S242.83,262.05,236.45,259s6,22.24,6,22.24l26.92,11.08Z"/></g><path class="cls-34" d="M282.91,288.94c.37.64,14.89-23.08,7.37-53C290.29,236,269,264.6,282.91,288.94Z"/><path id="SVGID-21" data-name="SVGID" class="cls-4" d="M282.91,288.94c.37.64,14.89-23.08,7.37-53C290.29,236,269,264.6,282.91,288.94Z"/><g class="cls-73"><polygon class="cls-6" points="290.29 235.95 282.91 288.94 266.44 275.42 276.25 242.84 290.29 235.95"/></g><path class="cls-34" d="M282.91,288.94c-.43,0,18.31-31.52,52-29.25C334.93,259.69,321.12,287.24,282.91,288.94Z"/><path id="SVGID-22" data-name="SVGID" class="cls-4" d="M282.91,288.94c-.43,0,18.31-31.52,52-29.25C334.93,259.69,321.12,287.24,282.91,288.94Z"/><g class="cls-74"><polygon class="cls-6" points="334.93 259.69 282.91 288.94 283.97 269.85 317.3 250.84 334.93 259.69"/></g><path class="cls-15" d="M282.91,288.94s32.78-9.34,53.26,20.34C336.17,309.27,306.9,313.8,282.91,288.94Z"/><path id="SVGID-23" data-name="SVGID" class="cls-4" d="M282.91,288.94s32.78-9.34,53.26,20.34C336.17,309.27,306.9,313.8,282.91,288.94Z"/><g class="cls-75"><polygon class="cls-6" points="336.17 309.27 282.91 288.94 293.88 280.81 328.79 289.63 336.17 309.27"/></g><path class="cls-4" d="M282.91,288.94s23.31,19.49,22.65,43.6C305.56,332.54,279.26,323.54,282.91,288.94Z"/><g class="cls-76"><polygon class="cls-6" points="305.56 332.54 282.91 288.94 309.45 302.99 317.92 320.62 310.21 331.88 305.56 332.54"/></g><circle class="cls-3" cx="281.17" cy="288.25" r="1.72"/><circle class="cls-23" cx="282.17" cy="290.49" r="1.72"/><path class="cls-4" d="M252.77,318.75c.1-.26-19.85,1.92-25.27,22.17C227.5,340.91,245,339.37,252.77,318.75Z"/><g class="cls-77"><path class="cls-6" d="M252.77,318.75S230,337.88,227.14,341.14s14.17.26,14.17.26l11.14-14Z"/></g><path class="cls-4" d="M252.77,318.75c.44-.11-11.12-12.75-30.1-13.4C222.68,305.35,236,322.83,252.77,318.75Z"/><g class="cls-78"><polygon class="cls-6" points="222.68 305.35 252.77 318.75 241.97 326.19 224.36 314.83 222.68 305.35"/></g><path class="cls-4" d="M252.77,318.75c-.06.26-15.53-16.21-8.44-35.76C244.33,283,258.28,295.85,252.77,318.75Z"/><g class="cls-79"><polygon class="cls-6" points="244.33 282.98 252.77 318.75 241.66 314.87 236.09 291.9 244.33 282.98"/></g><path class="cls-4" d="M252.77,318.75s.06-21,21.11-28A40.12,40.12,0,0,1,252.77,318.75Z"/><g class="cls-80"><polygon class="cls-6" points="273.88 290.7 252.77 318.75 249.83 310.88 261 291.72 273.88 290.7"/></g><path class="cls-4" d="M252.77,318.75s15.5-10.47,29.66-6C282.43,312.78,272.62,326.81,252.77,318.75Z"/><g class="cls-81"><polygon class="cls-6" points="282.43 312.78 252.77 318.75 265.61 305.44 277.49 303.43 282.84 309.92 282.43 312.78"/></g><circle class="cls-3" cx="252.07" cy="319.66" r="1.06"/><circle class="cls-23" cx="253.56" cy="319.45" r="1.06"/><path class="cls-82" d="M216.79,256.95s29.54-.2,32.89-.06c5.28.22,13.14,10.87,16.64,21.48,2.74,8.32,9.28,42.1,11,78.5,1.09,23.68.91,25.66.91,25.66H262s-.11-10.86-.63-27.3c-.46-14.7-1-48-3.57-64.22-2.61-16.39-3.67-18.86-5.22-24.56-1.2-4.39-2.34-7.61-3.82-7.61h-32v-1.89Z"/><path class="cls-4" d="M287.19,323.23c.18-.2-19.17-5.47-31.62,11.39C255.56,334.62,272.41,339.58,287.19,323.23Z"/><g class="cls-83"><path class="cls-6" d="M287.19,323.23s-28.16,9.49-32,11.46,13.1,5.43,13.1,5.43l15.51-9Z"/></g><path class="cls-4" d="M287.19,323.23c.45.06-5.69-15.93-23.11-23.47C264.08,299.75,270.09,320.9,287.19,323.23Z"/><g class="cls-84"><polygon class="cls-6" points="264.08 299.75 287.19 323.23 274.41 326.2 262.18 309.19 264.08 299.75"/></g><path class="cls-4" d="M287.19,323.23c-.15.22-8.52-20.76,5.23-36.37C292.41,286.86,300.69,303.93,287.19,323.23Z"/><g class="cls-85"><polygon class="cls-6" points="292.41 286.86 287.19 323.23 278.26 315.56 281.48 292.15 292.41 286.86"/></g><path class="cls-4" d="M287.19,323.23s7.73-19.51,29.91-18.38A40.12,40.12,0,0,1,287.19,323.23Z"/><g class="cls-86"><polygon class="cls-6" points="317.09 304.85 287.19 323.23 287.33 314.83 304.73 301.08 317.09 304.85"/></g><path class="cls-4" d="M287.19,323.23s18.26-4.08,29.79,5.29C317,328.52,302.72,338,287.19,323.23Z"/><g class="cls-87"><polygon class="cls-6" points="316.97 328.52 287.19 323.23 304 315.54 315.79 318.01 318.4 326 316.97 328.52"/></g><circle class="cls-3" cx="286.2" cy="323.82" r="1.06"/><circle class="cls-23" cx="287.67" cy="324.17" r="1.06"/><path class="cls-6" d="M232.11,377s-2.15-14.83,6.94-15,3.49,11.3,9.09,9.72,14.26-3.33,14,5.26S232.11,377,232.11,377Z"/><rect class="cls-23" x="232.11" y="377.04" width="75.55" height="53.82"/><rect class="cls-82" x="238.07" y="377.04" width="64.35" height="48.67"/><path class="cls-19" d="M163,457.36s4.45,23.45,34.42,17.25,34.69-39.08,34.69-39.08H165.71Z"/><path class="cls-88" d="M173.74,437.42s4.39,10.3,14.12,9.65a12.5,12.5,0,0,0,11.59-9.4Z"/><path class="cls-89" d="M84,436.71S91.29,477.32,133,476.2s39.62-40,39.62-40Z"/><path id="SVGID-24" data-name="SVGID" class="cls-11" d="M84,436.71S91.29,477.32,133,476.2s39.62-40,39.62-40Z"/><g class="cls-90"><path class="cls-17" d="M173.69,436.23s-14.57,11-16.73,13-3.49,24.67-4.41,26.46,16.79-3.19,16.79-3.19l7.53-26.65Z"/></g><path class="cls-88" d="M209.88,437.42s7.85,16.4,29.1,16,30.68-19.08,30.68-19.08Z"/><path class="cls-91" d="M250.1,447.77s2.35,28.45,33.29,28.45c35.33,0,33.7-40,33.7-40l-67.41-.7Z"/><path class="cls-91" d="M16.95,438.38S16,468,48.51,467.87C71,467.78,81.13,444.94,81.2,436.5Z"/><g class="cls-92"><polygon class="cls-93" points="54.59 437.55 68.31 465.28 82.38 445.6 82.38 437.55 54.59 437.55"/></g><rect x="16.95" y="430.86" width="300.14" height="8.78"/><circle class="cls-15" cx="215.78" cy="211.82" r="1.25"/><g class="cls-94"><polygon class="cls-93" points="265.56 442.99 281.58 459.5 281.58 471.76 291.05 474.05 294.92 479.57 262.46 481.69 248.82 459.68 249.7 450.57 265.56 442.99"/></g></g></g></svg>