<svg xmlns="http://www.w3.org/2000/svg" xmlns:xlink="http://www.w3.org/1999/xlink" viewBox="0 0 396.57 633.96"><defs><style>.cls-1,.cls-26,.cls-28,.cls-31{fill:none;}.cls-2{fill:#f1f2f6;}.cls-3{fill:#515151;}.cls-4{fill:#858585;}.cls-5{fill:#73c4e2;}.cls-6{fill:#fbc24d;}.cls-7{fill:#3b72aa;}.cls-8{fill:#1d1d1d;}.cls-9{fill:#203760;}.cls-10{clip-path:url(#clip-path);}.cls-11{fill:#ed7129;}.cls-12{clip-path:url(#clip-path-3);}.cls-13{clip-path:url(#clip-path-4);}.cls-14{fill:#fff;}.cls-15{clip-path:url(#clip-path-5);}.cls-16{clip-path:url(#clip-path-6);}.cls-17{fill:#77bb68;}.cls-18{fill:#c5f0ff;}.cls-19{clip-path:url(#clip-path-7);}.cls-20{clip-path:url(#clip-path-8);}.cls-21{clip-path:url(#clip-path-14);}.cls-22{clip-path:url(#clip-path-15);}.cls-23{clip-path:url(#clip-path-16);}.cls-24{clip-path:url(#clip-path-18);}.cls-25{clip-path:url(#clip-path-20);}.cls-26{stroke:#000;stroke-width:0.75px;}.cls-27{fill:#232323;}.cls-28,.cls-31{stroke:#fff;stroke-miterlimit:10;}.cls-28{stroke-width:0.28px;}.cls-29{fill:#9cd8fa;}.cls-30{clip-path:url(#clip-path-21);}.cls-31{stroke-width:0.57px;}.cls-32{clip-path:url(#clip-path-22);}.cls-33{clip-path:url(#clip-path-23);}</style><clipPath id="clip-path"><path class="cls-1" d="M203.54,321s6-17.82,8.76-26.56,7.46-20.5,10.15-20.91,12.9-.24,21.83-.34c12.35-.15,12.16-.85,15.51,13.27s3.63,16.9,4.12,21.22,1.8,28.53,1,41,3.49,39.56.26,40.79-50.31,7.25-51.7,3.82S203.54,322.14,203.54,321Z"/></clipPath><clipPath id="clip-path-3"><path class="cls-1" d="M142.22,375.76s-3-13.64,2.53-31.14,9.89-31.14,12-32.92c1.86-1.57,18.18-.79,30.36-.79,12,0,15.63-.53,16.42.69s1.51,4.13,4.68,12.67,8.77,28.79,10.88,37.87-3.5,15.18-11.09,17.61-24-2.06-24-2.06-21.76-.2-27.46-.2A93.4,93.4,0,0,1,142.22,375.76Z"/></clipPath><clipPath id="clip-path-4"><circle class="cls-1" cx="177.12" cy="152.39" r="14.6"/></clipPath><clipPath id="clip-path-5"><rect class="cls-1" x="166.76" y="207.87" width="20.73" height="26.52"/></clipPath><clipPath id="clip-path-6"><rect class="cls-1" x="166.76" y="291.01" width="20.73" height="19.9"/></clipPath><clipPath id="clip-path-7"><path class="cls-1" d="M259.19,425s-28.71,11.2-30,12S219,472.2,216.93,481.41,212.53,501,212,505.72s32.24,1.62,32.24,1.62l11.35-57.23Z"/></clipPath><clipPath id="clip-path-8"><path class="cls-1" d="M236.47,498.69s8.44-33,12.29-46.23,14-42.05,15.28-44.33c.68-1.22,11.62-.72,18.63-.72,2.6,0,14.69,46.57,16.8,56.48s6.4,24.08,8,44.08-5.75,13.17-6.84,14.48S235.09,532,236.47,498.69Z"/></clipPath><clipPath id="clip-path-14"><path class="cls-1" d="M135.34,336l22.19-.11s7,39.82,8.32,59.44S162,472.62,159,488.49s-18.81,34-18.81,34-8.26-16-8.26-18.09-.85-58.6-1.33-72-3.74-73.22-2.17-77.81S135.34,336,135.34,336Z"/></clipPath><clipPath id="clip-path-15"><ellipse class="cls-1" cx="182.14" cy="371.71" rx="22.83" ry="22.32"/></clipPath><clipPath id="clip-path-16"><polygon class="cls-1" points="138.24 324.86 138.24 335.87 130.64 335.87 130.65 335.87 101.55 335.87 101.55 300.95 113.42 300.95 113.42 304.31 116.93 304.31 116.93 307.68 120.45 307.68 120.45 311.04 123.96 311.04 123.96 314.4 127.47 314.4 127.47 317.9 130.94 317.9 130.94 321.37 134.91 321.39 134.91 324.92 138.24 324.86"/></clipPath><clipPath id="clip-path-18"><path class="cls-1" d="M213.44,338.24a5.32,5.32,0,0,1,5.26,5.37v0h0l-.16,50.62H208l.14-50.62h0v0a5.32,5.32,0,0,1,5.26-5.37Z"/></clipPath><clipPath id="clip-path-20"><path class="cls-1" d="M276.48,331a5.76,5.76,0,0,1,5.7,5.82v0h0l0,13.77H270.79V336.82h0v0A5.76,5.76,0,0,1,276.48,331Z"/></clipPath><clipPath id="clip-path-21"><circle class="cls-1" cx="213.41" cy="315.88" r="8.4"/></clipPath><clipPath id="clip-path-22"><ellipse class="cls-1" cx="276.48" cy="285.27" rx="10.94" ry="10.97"/></clipPath><clipPath id="clip-path-23"><circle class="cls-1" cx="241.72" cy="176.73" r="8.43"/></clipPath></defs><title>island-1</title><g id="Layer_2" data-name="Layer 2"><g id="Layer_1-2" data-name="Layer 1"><path class="cls-2" d="M163.1,162.94c-2.55-.09-13.12-1.08-12.62,3.86.31,3.1,5.18,2.09,5,4.88-.17,3-19.64-1.48-21.81,2.73-2.78,5.41,14.44,1.53,15.41,4.41.89,2.66-4.54,1.18-4.44,3.77.13,3.57,20.15,2.19,22.1,1.39.93-.38-.17-1.32-.17-2,.06-5.13,0-11.25-1.92-16.07a11.23,11.23,0,0,1-1-2.47Z"/><rect class="cls-3" x="250.15" y="235.88" width="10.63" height="59.88"/><rect class="cls-4" x="251.13" y="237.32" width="8.6" height="1.58"/><rect class="cls-4" x="251.17" y="240.28" width="8.6" height="1.58"/><rect class="cls-4" x="251.17" y="243.25" width="8.6" height="1.58"/><rect class="cls-4" x="251.15" y="246.21" width="8.6" height="1.58"/><rect class="cls-4" x="251.19" y="249.18" width="8.6" height="1.58"/><rect class="cls-4" x="251.19" y="252.14" width="8.6" height="1.58"/><rect class="cls-4" x="251.15" y="255.11" width="8.6" height="1.58"/><rect class="cls-4" x="251.19" y="258.07" width="8.6" height="1.58"/><rect class="cls-4" x="251.19" y="261.04" width="8.6" height="1.58"/><rect class="cls-4" x="251.17" y="264" width="8.6" height="1.58"/><rect class="cls-4" x="251.19" y="266.97" width="8.6" height="1.58"/><rect class="cls-4" x="251.13" y="269.65" width="8.6" height="1.58"/><rect class="cls-4" x="251.17" y="272.62" width="8.6" height="1.58"/><rect class="cls-4" x="251.17" y="275.58" width="8.6" height="1.58"/><rect class="cls-4" x="251.15" y="278.55" width="8.6" height="1.58"/><rect class="cls-4" x="251.19" y="281.51" width="8.6" height="1.58"/><rect class="cls-4" x="251.19" y="284.48" width="8.6" height="1.58"/><rect class="cls-4" x="251.15" y="287.45" width="8.6" height="1.58"/><rect class="cls-4" x="251.19" y="290.41" width="8.6" height="1.58"/><rect class="cls-4" x="251.19" y="293.38" width="8.6" height="1.58"/><path class="cls-5" d="M229.92,225.79h3.37m0,30.06H209.7V242.47h3.37v-3.37h3.37v-3.37h3.37v-3.27h3.37v-3.37h3.37v-3.33h3.37v-3.34h3.37v33.43Z"/><rect class="cls-6" x="233.29" y="225.44" width="16.86" height="47.66"/><path d="M241.72,228.7a5.32,5.32,0,0,1,5.26,5.37v0h0v15H236.45v-15h0v0a5.32,5.32,0,0,1,5.26-5.37Z"/><rect class="cls-7" x="193.95" y="246.12" width="53.02" height="76.11"/><rect class="cls-8" x="196.84" y="255.84" width="13.16" height="63.93"/><ellipse class="cls-8" cx="203.42" cy="255.76" rx="6.58" ry="6.64"/><rect class="cls-8" x="212.51" y="255.84" width="13.16" height="63.93"/><ellipse class="cls-8" cx="219.09" cy="255.76" rx="6.58" ry="6.64"/><rect class="cls-8" x="228.19" y="255.84" width="13.16" height="63.93"/><ellipse class="cls-8" cx="234.77" cy="255.76" rx="6.58" ry="6.64"/><path class="cls-9" d="M203.54,321s6-17.82,8.76-26.56,7.46-20.5,10.15-20.91,12.9-.24,21.83-.34c12.35-.15,12.16-.85,15.51,13.27s3.63,16.9,4.12,21.22,1.8,28.53,1,41,1.38,15.59-1.85,16.82-47.31-2-48.7-5.48S203.54,322.14,203.54,321Z"/><g class="cls-10"><polygon class="cls-7" points="233.29 356.54 205.1 345.88 208.39 326.54 211.76 326.54 211.76 323.17 215.13 323.17 215.13 319.8 218.5 319.8 218.5 316.43 221.87 316.43 221.87 313.06 225.24 313.06 225.24 309.69 228.61 309.69 228.61 306.33 231.98 306.33 231.98 302.96 235.35 302.96 235.35 299.59 235.42 299.59 235.42 299.58 238.79 299.58 238.79 296.21 242.16 296.21 242.16 292.84 245.53 292.84 245.53 289.57 248.9 289.57 248.9 286.2 252.27 286.2 252.27 282.87 255.64 282.87 255.64 279.54 264.46 279.58 264.46 313.34 266.17 362.17 233.29 356.54"/></g><g class="cls-10"><polygon class="cls-9" points="235.54 393.25 265.87 382.79 265.87 363.45 262.5 363.45 262.5 360.08 259.13 360.08 259.13 356.71 255.76 356.71 255.76 353.34 252.39 353.34 252.39 349.97 249.02 349.97 249.02 346.61 245.65 346.61 245.65 343.24 242.28 343.24 242.28 339.87 238.91 339.87 238.91 336.5 235.54 336.5 235.54 336.49 232.18 336.49 232.18 333.12 228.81 333.12 228.81 329.75 225.44 329.75 225.44 326.48 221.49 326.48 221.49 323.11 218.7 323.11 218.7 319.78 215.33 319.78 215.33 316.45 204.94 316.47 204.94 350.45 204.94 394.27 235.54 393.25"/></g><circle class="cls-5" cx="241.72" cy="176.73" r="8.43"/><rect class="cls-11" x="233.29" y="177.42" width="16.86" height="45"/><path class="cls-5" d="M142.22,375.76s-3-13.64,2.53-31.14,9.89-31.14,12-32.92c1.86-1.57,18.18-.79,30.36-.79,12,0,15.63-.53,16.42.69s1.51,4.13,4.68,12.67,8.77,28.79,10.88,37.87-3.5,15.18-11.09,17.61-24-2.06-24-2.06-21.76-.2-27.46-.2A93.4,93.4,0,0,1,142.22,375.76Z"/><g class="cls-12"><path class="cls-9" d="M157.7,309.24s7.89,15,13.79,23.68,23.43,35.86,30.68,50-65.36-.77-65.36-.77l-5-34.95,16.61-34.42Z"/></g><rect class="cls-7" x="160.29" y="278.26" width="33.67" height="32.66"/><rect x="160.29" y="274.13" width="33.67" height="4.13"/><rect class="cls-5" x="160.29" y="238.51" width="33.67" height="35.62"/><rect x="156.76" y="234.38" width="40.73" height="4.28"/><rect class="cls-6" x="160.29" y="193.46" width="33.67" height="40.93"/><rect x="156.76" y="189.33" width="40.73" height="4.13"/><circle class="cls-5" cx="177.12" cy="152.39" r="14.6"/><rect x="162.53" y="151.19" width="29.19" height="2.41"/><g class="cls-13"><rect class="cls-7" x="177.12" y="135.11" width="18.51" height="16.08"/></g><rect class="cls-7" x="162.5" y="153.05" width="29.24" height="36.28"/><circle class="cls-14" cx="170.99" cy="181.17" r="3.47"/><circle cx="170.99" cy="181.17" r="1.85"/><circle class="cls-14" cx="170.99" cy="170.72" r="3.47"/><circle cx="170.99" cy="170.72" r="1.85"/><circle class="cls-14" cx="170.99" cy="160.27" r="3.47"/><circle cx="170.99" cy="160.27" r="1.85"/><ellipse class="cls-8" cx="177.12" cy="207.74" rx="10.36" ry="10.46"/><rect class="cls-11" x="180.06" y="153.05" width="11.66" height="36.28"/><rect class="cls-8" x="166.76" y="207.87" width="20.73" height="26.52"/><g class="cls-15"><path class="cls-7" d="M184.81,209.69h3.37m0,30.06H164.59V226.37H168V223h3.37v-3.37h3.37v-3.27h3.37V213h3.37v-3.33h3.37v-3.34h3.37v33.43Z"/></g><path class="cls-2" d="M198.9,198c1.37,0,12.56-.73,12.46,2.66-.09,2.86-6,.56-5.79,4.07.23,4.55,23.58-.66,23.26,6.52s-20,1.66-20.06,5.72c0,2.88,5.09,1.22,5.17,4.29s-10.4,3.07-17.4,2.7c-6-.32-9.11-1.23-9.09-3.93,0-4.5,9-3.5,9.09-8.06.11-5.57-13.79-.46-13.79-6.29,0-4.37,9.77-1,11.2-3.4C195.1,200.39,193.31,198,198.9,198Z"/><path d="M177.12,246.12a5.32,5.32,0,0,1,5.26,5.37v0h0v15H171.86v-15h0v0a5.32,5.32,0,0,1,5.26-5.37Z"/><ellipse class="cls-8" cx="177.12" cy="291.7" rx="10.36" ry="10.46"/><rect class="cls-8" x="166.76" y="291.01" width="20.73" height="19.9"/><g class="cls-16"><path class="cls-17" d="M186.19,291h3.24m0,29.21H166.76v-13H170V303.9h3.24v-3.27h3.24v-3.18h3.24v-3.27h3.24v-3.24h3.24V287.7h3.24v32.49Z"/></g><path class="cls-7" d="M178.2,330.48c-.29-1.06-1.13-7.42,7.65-6s10.34,6.06,9.2,8.49-9.4,1.68-12.77.84S178.62,332,178.2,330.48Z"/><path class="cls-9" d="M190,327.6c-.47-.83,1.15-3.14,4.65-2.59s4.92,1.88,3.56,3.53S192.07,331.26,190,327.6Z"/><rect x="233.29" y="222.42" width="16.86" height="3.02"/><path d="M241.72,182.2a5.32,5.32,0,0,1,5.26,5.37v0h0V222.9l-10.53,0V187.61h0v0a5.32,5.32,0,0,1,5.26-5.37Z"/><rect class="cls-14" x="181.24" y="154.44" width="9.25" height="1.7"/><rect class="cls-14" x="181.28" y="157.63" width="9.25" height="1.7"/><rect class="cls-14" x="181.28" y="160.82" width="9.25" height="1.7"/><rect class="cls-14" x="181.26" y="164.01" width="9.25" height="1.7"/><rect class="cls-14" x="181.3" y="167.2" width="9.25" height="1.7"/><rect class="cls-14" x="181.3" y="170.39" width="9.25" height="1.7"/><rect class="cls-14" x="181.26" y="173.58" width="9.25" height="1.7"/><rect class="cls-14" x="181.3" y="176.77" width="9.25" height="1.7"/><rect class="cls-14" x="181.3" y="179.96" width="9.25" height="1.7"/><rect class="cls-14" x="181.28" y="183.15" width="9.25" height="1.7"/><rect class="cls-14" x="181.3" y="186.34" width="9.25" height="1.7"/><circle class="cls-6" cx="315.23" cy="29.37" r="29.37"/><path class="cls-2" d="M251.12,320.43c18.87,0,37.67-1.32,56.54-.21,2.53.15,12.25.92,12.25,4.82,0,5-18,2.47-18.74,6.91-.58,3.49,8.66,3.56,10.57,3.56,13.74,0,30.19-.34,43.55,1.88,2.24.37,8.32,1.91,7.75,5.34-.32,1.94-4.74,3.06-6.28,3-9.61-.12-20.29-.39-29.28-.4-3.4,0-12.21-.6-15.11,1.14-1.69,1-1,2.89.72,3.36,2.33.63,13.35,0,13.24,4.81-.06,2.58-6.41,4.17-10.29,4.65-13.18,1.65-72.37,3.18-72.89-5.35-.37-6.1,13.86-4.78,13.73-9.25-.1-3.45-27.44.34-27.44-7.14,0-4.75,12.09-3.15,15.29-3.44,2.26-.21,10.9.4,10.89-3.14s-6.47-3.18-8.79-4.5c-4.63-2.65-.37-6,3.14-6Z"/><path class="cls-18" d="M58.65,518.95S20.85,516.78,21,525.16s14.32,5.25,14,11.63S-.93,538.29,0,557.85c1,20.56,41.14,6.81,41.46,20.35.29,12.46-37,8-34.26,23.84,3,17.77,76-8.88,79.3,4.37,2,8-14.86,8.38-13.08,18.71,2.08,12,41.32,11.86,63.11-1.06,13.77-8.17,20.63-21.16,35.76-25.57s26.08,1.69,40.27,16.3,28.57,17.57,40.4,9.56c10.49-7.1,17.57-27.19,30.93-27.19,13.88,0,17.48,10.94,30.65,20.17s36.5,11.31,42,1.07-6.44-19.28-10.92-26-3.26-12.37,6.25-15.45,24.05-2.39,29.58-2.55c4.44-.13,13.88-.07,15-5.85,1.42-7.27-7.78-9.18-26.93-11S342,552.71,343,546.41c1.51-9.67,35.68-7.2,35.32-16.33-.37-9.61-43.94-11.13-57.49-11.13Z"/><polygon class="cls-5" points="204.98 394.27 287.38 394.27 287.38 506.71 204.95 513.32 204.98 394.27"/><rect x="223.68" y="405.15" width="13.16" height="63.93"/><ellipse cx="230.26" cy="405.07" rx="6.58" ry="6.64"/><rect x="239.35" y="405.15" width="13.16" height="63.93"/><ellipse cx="245.93" cy="405.07" rx="6.58" ry="6.64"/><rect x="255" y="405.15" width="13.16" height="63.93"/><ellipse cx="261.58" cy="405.07" rx="6.58" ry="6.64"/><rect x="270.68" y="405.15" width="13.16" height="63.93"/><ellipse cx="277.26" cy="405.07" rx="6.58" ry="6.64"/><polygon points="208.06 405.02 221.22 405.02 221.22 506.71 208.04 510.28 208.06 405.02"/><path class="cls-9" d="M259.19,425s-28.71,11.2-30,12S219,472.2,216.93,481.41,212.53,501,212,505.72s32.24,1.62,32.24,1.62l11.35-57.23Z"/><g class="cls-19"><path class="cls-7" d="M212.37,479.44s20.68-5,22.07,1.41-16.26,11.53-21.73,9.22S212.37,479.44,212.37,479.44Z"/></g><path class="cls-7" d="M236.47,498.69s8.44-33,12.29-46.23,14-42.05,15.28-44.33c.68-1.22,11.62-.72,18.63-.72,2.6,0,14.69,46.57,16.8,56.48s6.4,24.08,8,44.08-5.75,13.17-6.84,14.48S235.09,532,236.47,498.69Z"/><g class="cls-20"><path class="cls-9" d="M292.82,425.5s-13.68-2.53-13.68,5.1,12.17,3.81,15.62,3.81S292.82,425.5,292.82,425.5Z"/></g><g class="cls-20"><path class="cls-9" d="M252.68,466.47s6.2-4.2,7.29,1-6.87,6.4-8.09,2.35S251.94,467.23,252.68,466.47Z"/></g><g class="cls-20"><path class="cls-5" d="M299.28,451s-12.67-2.65-15.9,6-1.31,9.5,4.77,9.43,10.42-.43,14.55-.75S299.28,451,299.28,451Z"/></g><g class="cls-20"><path class="cls-5" d="M244.65,455.21S259.4,453,260,461.4s-15.14,6.15-18,4.32S244.65,455.21,244.65,455.21Z"/></g><g class="cls-20"><path class="cls-9" d="M302.71,470.84s-9.16-1-8.79,3.62,7.91,2.51,10.85,2.21S302.71,470.84,302.71,470.84Z"/></g><g class="cls-20"><path class="cls-5" d="M303.95,475.5s-15.11-1.21-14.87,5,11.11,4.38,14.87,3.18S303.95,475.5,303.95,475.5Z"/></g><path class="cls-18" d="M268.33,407.35l-1.69,94.36,9.14,1-.89-95.41s-.69-.58-3.12-.65C269.13,406.57,268.33,407.35,268.33,407.35Z"/><path class="cls-7" d="M232.17,456s.2-1.34,2.46-1.27,2.43,2.18.5,2.46S232.09,457.09,232.17,456Z"/><ellipse cx="214.64" cy="404.94" rx="6.58" ry="6.64"/><rect class="cls-6" x="265.54" y="313.43" width="21.88" height="37.16"/><rect class="cls-7" x="265.5" y="350.59" width="21.88" height="21.92"/><path class="cls-5" d="M134.91,335.87h22.62s7,39.82,8.32,59.44S162,472.62,159,488.49s-18.81,34-18.81,34-8.26-16-8.26-18.09-.85-58.6-1.33-72-3.74-73.22-2.17-77.81S134.91,335.87,134.91,335.87Z"/><g class="cls-21"><path class="cls-7" d="M157.53,335.87s-22.28,166.87-23,170.3,0,21.05,0,21.05l22.57-6.31L172.67,453l3.86-50.63-1.59-38.74Z"/></g><ellipse class="cls-5" cx="182.14" cy="371.71" rx="22.83" ry="22.32"/><g class="cls-22"><rect class="cls-7" x="182.42" y="348.13" width="28.98" height="28.18"/></g><path class="cls-5" d="M156.27,473.27s-9.33-2.11-12.16,1.4-2.89,6.81,3.08,7.46,5.83.17,8.83-.17S156.27,473.27,156.27,473.27Z"/><path class="cls-11" d="M159.31,428.59s-5.22,53.62-6.12,61.15,36,40,36,40L205,514.28l0-85.69Z"/><path class="cls-5" d="M91.25,381.76a98.75,98.75,0,0,1,.37-10.94c1.35-12.79,4.87-33.27,9.93-34.94,7-2.33,33.36,0,33.36,0v41Z"/><circle class="cls-11" cx="129.54" cy="266.44" r="2.61"/><ellipse class="cls-7" cx="129.54" cy="286.85" rx="27.99" ry="18.56"/><rect class="cls-7" x="101.55" y="287.85" width="55.98" height="13.1"/><rect class="cls-5" x="101.55" y="300.95" width="55.98" height="34.92"/><polygon class="cls-7" points="91.25 376.3 94.72 376.3 94.72 372.93 98.19 372.93 98.19 369.56 101.66 369.56 101.66 366.19 105.13 366.19 105.13 362.82 108.6 362.82 108.6 362.82 108.6 359.46 112.06 359.46 112.06 356.09 115.53 356.09 115.53 352.72 119 352.72 119 352.72 119 349.35 122.47 349.35 122.47 345.98 125.94 345.98 125.94 342.61 129.41 342.61 129.41 339.24 132.88 339.24 132.88 335.87 134.91 335.87 134.91 339.24 134.91 395.2 91.25 395.2 91.25 384.7 91.25 376.3"/><rect class="cls-5" x="91.25" y="395.2" width="21.7" height="85.26"/><polygon class="cls-17" points="138.24 324.86 138.24 335.87 130.64 335.87 130.65 335.87 101.55 335.87 101.55 300.95 113.42 300.95 113.42 304.31 116.93 304.31 116.93 307.68 120.45 307.68 120.45 311.04 123.96 311.04 123.96 314.4 127.47 314.4 127.47 317.9 130.94 317.9 130.94 321.37 134.91 321.39 134.91 324.92 138.24 324.86"/><g class="cls-23"><path d="M109.43,317.68a4.46,4.46,0,0,1,4.41,4.5v0h0v15.32H105V322.22h0v0a4.46,4.46,0,0,1,4.41-4.5Z"/></g><g class="cls-23"><path d="M121.7,317.68a4.46,4.46,0,0,1,4.41,4.5v0h0v15.32h-8.81V322.22h0v0a4.46,4.46,0,0,1,4.41-4.5Z"/></g><rect class="cls-7" x="91.25" y="414.81" width="21.7" height="85.26"/><path class="cls-17" d="M108.6,539.84s17.74-.92,23.69-20.34,10.21-33.66,25.24-32.86,18.05,19.35,20.43,32,1.76,26.71,2.38,37.38-43.79,0-43.79,0l-27.21-5.38Z"/><rect class="cls-6" x="134.91" y="316.06" width="22.62" height="19.81"/><polygon class="cls-7" points="91.25 417.04 91.25 398.56 91.25 398.56 91.25 395.2 94.76 395.2 94.76 398.56 98.27 398.56 98.27 401.93 101.79 401.93 101.79 405.29 105.3 405.29 105.3 408.65 108.81 408.65 108.81 412.15 112.28 412.15 112.28 417.04 91.25 417.04"/><path class="cls-17" d="M174.55,523.77s12.3,3.7,20.89-2,17.89-23.51,26.43-23.82c18.36-.65,72.69,1,78.55,3.16,7.37,2.74,14.25,23.29,14.13,39.95s-15,26.41-15,26.41L199.24,556l-24.68,4.24V523.77Z"/><rect class="cls-6" x="91.25" y="503.33" width="43.67" height="47.29"/><path class="cls-7" d="M134.33,544.46c.43-2,.83-8.19,6.38-10.71s23.31,2.67,16.22,16S132.8,549.62,134.33,544.46Z"/><path class="cls-5" d="M54.76,558.23c.64-2.42,1.22-11.74,13-14.81s24.26-6.15,31.13,4.65,0,16.67-12.88,17.68C53.19,568.29,54.22,561.06,54.76,558.23Z"/><path class="cls-5" d="M136.82,562.8c.7-4.28,4.54-14.35,14.56-17.59s25.3,4.4,22.93,15.79-21.12,12.19-29.92,7.71S136.31,565.9,136.82,562.8Z"/><path class="cls-5" d="M183.21,558.67c-1-2.47-2.11-12.46,4.13-15.13s10.12,1,7,12.46S183.63,559.68,183.21,558.67Z"/><path class="cls-9" d="M191.81,556a20,20,0,0,1,14.1-14c11.87-3.39,29-4,34.8,7.68S232,567.78,213,566.51,190,561.68,191.81,556Z"/><path class="cls-7" d="M224.1,571.25c.27-2.43,3.29-13.33,14.84-10.55S247.71,573,244,575.86,222.92,581.8,224.1,571.25Z"/><path class="cls-9" d="M293.79,542c.67-1,11.09-3,15.34,5.51s5.58,9.43-1.06,13.62S285.75,553.8,293.79,542Z"/><path class="cls-5" d="M302.75,545.15c0-4.13,5.11-10,12.62-6.58s9,9.8,6,16.7S302.68,553,302.75,545.15Z"/><path class="cls-7" d="M294.89,559.1c1.7-5.42,6.51-10.75,19.39-8.79s16.21,13.63,14.41,21.89-24.81,1.43-30.15-2.43C293,565.78,293.69,563.09,294.89,559.1Z"/><path class="cls-7" d="M180.85,557.74s8-9.15,17.88-2.47,9.19,17.64.34,17.48S177.64,567.94,180.85,557.74Z"/><rect class="cls-17" x="112.28" y="409.92" width="22.63" height="22.33"/><rect class="cls-6" x="112.28" y="432.26" width="22.63" height="21.67"/><rect class="cls-6" x="112.28" y="395.2" width="22.63" height="14.72"/><path d="M118,397.66a2.73,2.73,0,0,1,2.7,2.76v0h0v7.69h-5.4v-7.69h0v0A2.73,2.73,0,0,1,118,397.66Z"/><path d="M100.61,377.5a4.15,4.15,0,0,1,4.11,4.19v0h0V393.4H96.5V381.72h0v0A4.15,4.15,0,0,1,100.61,377.5Z"/><path d="M128.81,397.66a2.73,2.73,0,0,1,2.7,2.76v0h0v7.69h-5.4v-7.69h0v0A2.73,2.73,0,0,1,128.81,397.66Z"/><rect class="cls-8" x="117.02" y="420.27" width="13.16" height="11.99"/><ellipse class="cls-8" cx="123.6" cy="420.19" rx="6.58" ry="6.64"/><rect class="cls-8" x="117.02" y="442.15" width="13.16" height="11.99"/><ellipse class="cls-8" cx="123.6" cy="442.07" rx="6.58" ry="6.64"/><circle class="cls-14" cx="130.12" cy="383.04" r="2.17"/><circle cx="130.12" cy="383.04" r="1.16"/><circle class="cls-14" cx="123.6" cy="383.04" r="2.17"/><circle cx="123.6" cy="383.04" r="1.16"/><circle class="cls-14" cx="117.07" cy="383.04" r="2.17"/><circle cx="117.07" cy="383.04" r="1.16"/><path d="M123.6,360.71a4.46,4.46,0,0,1,4.41,4.5v0h0v12.56h-8.83V365.25h0v0A4.46,4.46,0,0,1,123.6,360.71Z"/><path d="M107.51,417.22a3.16,3.16,0,0,1-3.2,3.13H95.37v-6.26h8.94A3.17,3.17,0,0,1,107.51,417.22Z"/><path d="M107.51,426.27a3.16,3.16,0,0,1-3.2,3.13H95.37v-6.26h8.94a3.17,3.17,0,0,1,3.2,3.13Z"/><rect class="cls-7" x="91.25" y="454.14" width="43.67" height="49.2"/><path d="M99.91,461.64a3.67,3.67,0,0,1,3.64,3.71v0h0v10.35H96.28V465.38h0v0A3.67,3.67,0,0,1,99.91,461.64Z"/><path d="M126.25,461.64a3.67,3.67,0,0,1,3.64,3.71v0h0v10.35h-7.27V465.38h0v0A3.67,3.67,0,0,1,126.25,461.64Z"/><path d="M113.08,461.64a3.67,3.67,0,0,1,3.64,3.71v0h0v10.35h-7.27V465.38h0v0a3.67,3.67,0,0,1,3.64-3.71Z"/><circle class="cls-14" cx="125.83" cy="487.58" r="4.23"/><circle cx="125.83" cy="487.58" r="2.26"/><circle class="cls-14" cx="113.08" cy="487.58" r="4.23"/><circle cx="113.08" cy="487.58" r="2.26"/><circle class="cls-14" cx="100.33" cy="487.58" r="4.23"/><circle cx="100.33" cy="487.58" r="2.26"/><polygon class="cls-11" points="112.28 435.63 112.28 432.26 108.81 432.26 108.81 435.63 105.34 435.63 105.34 439 101.87 439 101.87 442.37 98.4 442.37 98.4 445.74 94.93 445.74 94.93 449.06 91.25 449.06 91.25 452.47 94.93 452.47 94.93 454.14 112.28 454.14 112.28 435.63"/><path d="M146.74,319.35a3.45,3.45,0,0,1,3.41,3.48v0h0v9.71h-6.83v-9.71h0v0a3.45,3.45,0,0,1,3.41-3.48Z"/><path d="M165,436.4a2.73,2.73,0,0,1,2.7,2.76v0h0v7.69h-5.4v-7.69h0v0A2.73,2.73,0,0,1,165,436.4Z"/><path d="M165,452.75a2.73,2.73,0,0,1,2.7,2.76v0h0v7.69h-5.4v-7.69h0v0A2.73,2.73,0,0,1,165,452.75Z"/><path d="M165,469.1a2.73,2.73,0,0,1,2.7,2.76v0h0v7.69h-5.4v-7.69h0v0a2.73,2.73,0,0,1,2.7-2.76Z"/><path d="M106.2,282.92a4.7,4.7,0,0,1,4.65,4.75v0h0V301h-9.31V287.7h0v0a4.7,4.7,0,0,1,4.65-4.75Z"/><path d="M117.87,282.92a4.7,4.7,0,0,1,4.65,4.75v0h0V301h-9.31V287.7h0v0a4.7,4.7,0,0,1,4.65-4.75Z"/><path d="M129.54,282.92a4.7,4.7,0,0,1,4.65,4.75v0h0V301h-9.31V287.7h0v0a4.7,4.7,0,0,1,4.65-4.75Z"/><path d="M141.21,282.92a4.7,4.7,0,0,1,4.65,4.75v0h0V301h-9.31V287.7h0v0A4.7,4.7,0,0,1,141.21,282.92Z"/><path d="M152.88,282.92a4.7,4.7,0,0,1,4.65,4.75v0h0V301h-9.31V287.7h0v0a4.7,4.7,0,0,1,4.65-4.75Z"/><path class="cls-7" d="M143.33,361.91c-2.57-.76-6.1-1.46-5.6-5.19s3.1-3.68,7.34-3,5.54,2.15,4.77,4.89A5.08,5.08,0,0,1,143.33,361.91Z"/><path class="cls-9" d="M147.7,366.68c-2.74.52-6.2-2.49-3.52-4.78s4.46-2.81,5.66.24S150.38,366.14,147.7,366.68Z"/><path class="cls-7" d="M142.43,401.37c-2.69-.27-3.86-1.25-2.49-3.71s4.94-1.5,5.43,1S144.33,401.44,142.43,401.37Z"/><path class="cls-5" d="M166.14,388.82s-6.09,1.85-9.25-.89-1.56-9.82,8.05-7.7S166.14,388.82,166.14,388.82Z"/><path class="cls-5" d="M154,434.41c-1.93.08-4.68-.8-4.68-3.81s1.2-3,4.57-3,3.32,3.32,3,4.67A2.9,2.9,0,0,1,154,434.41Z"/><path class="cls-5" d="M146.66,448.76a4.44,4.44,0,0,1,4.79,1.41c1.88,2.26,2.23,4.43.26,5.13-2.54.91-6,1.55-7.15-.45C143.45,453,142.37,449.41,146.66,448.76Z"/><path class="cls-9" d="M141.73,446.39s4.41-1.06,6,1.41.09,1.84-3.78,2.47S137.39,447.42,141.73,446.39Z"/><rect class="cls-6" x="159.31" y="394.28" width="45.65" height="34.32"/><path d="M196.53,437.07a2.73,2.73,0,0,1,2.7,2.76v0h0v7.69h-5.4v-7.69h0v0A2.73,2.73,0,0,1,196.53,437.07Z"/><path d="M196.53,453.42a2.73,2.73,0,0,1,2.7,2.76v0h0v7.69h-5.4V456.2h0v0A2.73,2.73,0,0,1,196.53,453.42Z"/><path d="M196.53,469.77a2.73,2.73,0,0,1,2.7,2.76v0h0v7.69h-5.4v-7.69h0v0A2.73,2.73,0,0,1,196.53,469.77Z"/><rect class="cls-7" x="159.29" y="374.22" width="45.67" height="20.05"/><path d="M182.13,404.26a14.9,14.9,0,0,1,14.71,14.3H167.42C167.64,410.4,174.27,404.66,182.13,404.26Z"/><path d="M198.14,379a2.73,2.73,0,0,1,2.7,2.76v0h0v7.69h-5.4v-7.69h0v0A2.73,2.73,0,0,1,198.14,379Z"/><path d="M172.18,376.63a5.49,5.49,0,0,1,5.43,5.54v0h0l0,12.07H166.77l0-12.07h0v0a5.48,5.48,0,0,1,5.43-5.54Z"/><path d="M186.63,376.63a5.49,5.49,0,0,1,5.43,5.54v0h0l0,12.07H181.22l0-12.07h0v0a5.48,5.48,0,0,1,5.43-5.54Z"/><rect class="cls-14" x="159.3" y="394.28" width="45.65" height="2.92"/><path class="cls-18" d="M175.61,418.56s-3.73,158.1-4.9,170.58,16.52,2.67,16.52,2.67l1-173.25a14.74,14.74,0,0,0-6.2-1A15.31,15.31,0,0,0,175.61,418.56Z"/><rect class="cls-6" x="204.94" y="333.97" width="16.86" height="60.31"/><path d="M213.44,338.24a5.32,5.32,0,0,1,5.26,5.37v0h0l-.16,50.62H208l.14-50.62h0v0a5.32,5.32,0,0,1,5.26-5.37Z"/><g class="cls-24"><polygon class="cls-9" points="197.13 369.45 199.29 369.45 199.29 367.36 201.45 367.36 201.45 365.26 203.6 365.26 203.6 363.17 205.76 363.17 205.76 361.07 207.92 361.07 207.92 361.07 207.92 358.98 210.08 358.98 210.08 356.88 212.24 356.88 212.24 354.79 214.39 354.79 214.39 354.79 214.39 352.69 216.55 352.69 216.55 350.6 218.71 350.6 218.71 348.5 220.87 348.5 220.87 346.41 223.02 346.41 223.02 344.31 224.28 344.33 224.28 346.41 224.28 381.21 197.13 381.21 197.13 374.68 197.13 369.45"/></g><g class="cls-24"><polygon class="cls-7" points="229.66 388.49 227.5 388.49 227.5 386.39 225.35 386.39 225.35 384.3 223.19 384.3 223.19 382.2 221.03 382.2 221.03 380.11 218.87 380.11 218.87 378.01 216.72 378.01 216.72 375.92 214.56 375.92 214.56 373.82 212.4 373.82 212.4 371.73 210.24 371.73 210.24 369.63 208.09 369.63 208.09 367.54 205.93 367.54 205.93 365.44 203.77 365.44 203.77 363.35 202.51 363.36 202.51 365.44 202.51 400.24 229.66 400.24 229.66 393.71 229.66 388.49"/></g><polygon class="cls-17" points="221.8 391.02 225.34 391.02 225.34 387.65 228.81 387.65 228.81 384.29 232.28 384.29 232.28 380.92 235.75 380.92 235.75 377.55 239.22 377.55 239.22 377.55 239.22 374.18 242.69 374.18 242.69 370.81 246.16 370.81 246.16 367.44 249.63 367.44 249.63 367.44 249.63 364.07 253.1 364.07 253.1 360.7 256.57 360.7 256.57 357.33 260.04 357.33 260.04 353.96 263.51 353.96 263.51 350.59 265.54 350.62 265.54 353.96 265.44 394.27 221.8 394.27 221.8 391.02"/><path d="M260,384.64a3.67,3.67,0,0,1-3.71,3.63H245.92V381h10.36A3.67,3.67,0,0,1,260,384.64Z"/><rect class="cls-7" x="265.46" y="375.19" width="21.95" height="19.09"/><rect x="265.46" y="372.52" width="42.17" height="2.67"/><path d="M276.82,376.92a4.53,4.53,0,0,1,4.48,4.57v0h0v12.75h-9V381.52h0v0a4.53,4.53,0,0,1,4.48-4.57Z"/><path d="M281.47,354a3.85,3.85,0,0,1,3.81,3.89v0h0l0,14.63h-7.65V357.89h0v0a3.85,3.85,0,0,1,3.81-3.89Z"/><path d="M276.48,317a2.73,2.73,0,0,1,2.7,2.76v0h0v7.69h-5.4v-7.69h0v0A2.73,2.73,0,0,1,276.48,317Z"/><path d="M276.48,331a5.76,5.76,0,0,1,5.7,5.82v0h0l0,13.77H270.79V336.82h0v0A5.76,5.76,0,0,1,276.48,331Z"/><g class="cls-25"><path class="cls-5" d="M280.5,338.8h1.68m0,15.15H270.42v-6.74h1.68v-1.7h1.68v-1.7h1.68v-1.65h1.68v-1.7h1.68v-1.68h1.68V337.1h1.68v16.84Z"/></g><path d="M272,356.22a2.73,2.73,0,0,1,2.7,2.76v0h0v7.69h-5.4V359h0v0A2.73,2.73,0,0,1,272,356.22Z"/><path class="cls-26" d="M326.13,497.79s.46-3,5.52-2.86,5.45,4.89,1.12,5.52S326,500.12,326.13,497.79Z"/><path class="cls-18" d="M223.68,498a1.67,1.67,0,0,0-.82,2.62c1.18,1.86,10.58.37,11,2.68s-5.29,2-5.08,4.33c.26,3,6.44,1,9,4.37,3.51,4.71,1.49,30.48,1.35,37s.68,33.77.32,39.92S296.8,588,296.8,588s-.64-46.39-.5-54.84-.79-17.31.57-19,4-1.19,4-2.87-5.19-1.62-4.68-3.93c.7-3.17,9.61-.74,8.1-3-2.36-3.62-6.56-5.87-35-6.5C236.88,497.05,225.09,497.71,223.68,498Z"/><path class="cls-18" d="M277.65,368s30.05-.9,38.92,3.89c12.41,6.7,19.29,22.2,21.62,30.11s10.32,71.53,10.32,101.33-.14,29.79-.14,29.79l-27.7-3.41s.74-44.56.44-67-.82-55.6-4.84-72.2c-3.6-14.87-6.34-17.21-8.58-18H277.65Z"/><rect class="cls-8" x="97.85" y="513.44" width="13.16" height="63.93"/><ellipse class="cls-8" cx="104.43" cy="513.35" rx="6.58" ry="6.64"/><rect class="cls-8" x="115.15" y="513.44" width="13.16" height="63.93"/><ellipse class="cls-8" cx="121.73" cy="513.35" rx="6.58" ry="6.64"/><path class="cls-7" d="M63.55,568.41c-1-3.35-1.11-9.24,10.7-14.54s15.6.9,17.68,5.3-4.08,10.59-12.81,12.31S64.51,571.76,63.55,568.41Z"/><path class="cls-9" d="M81.88,564.24A28.5,28.5,0,0,1,97.4,543.54c13.87-6.78,39.68-8.63,48.44,7.63s2.92,28.64-15.54,30S79.9,580.78,81.88,564.24Z"/><path class="cls-2" d="M55,219.63c6.19-.22,16.05,1.61,16.53-1.71.27-1.9-4.1-3.6-2.18-5.91,2.3-2.76,15.2-2.2,17.82-.1,3.2,2.56-6.33,4.07-5.44,7.62A3.53,3.53,0,0,0,83,221.6c3.2,2.28,21.74,1.37,21.8,6.64s-14.63,2.29-17.55,4.92c-4.31,3.88,7.36,4.19,7.55,8.34.25,5.58-35.59,4.48-42.08,2.92-4.5-1.08-4.14-6.18.44-7.37,3.51-.91,12-1,11.24-5.39-.76-4.51-21.35-.82-21.35-6.74C43,219.91,48.8,219.85,55,219.63Z"/><rect x="79.26" y="393.25" width="55.65" height="2.04"/><path class="cls-18" d="M104.71,391.39s-23.77-.57-28.88.55c-3.75.82-7.67,7.89-10.25,17.26S51.65,504.84,52.77,527c.64,12.73,13.09,2.74,13.09,2.74s3.5-60,3.5-76,3.08-59.72,10.48-60,24.87-.25,24.87-.25v-2Z"/><rect class="cls-14" x="134.91" y="311.93" width="22.62" height="4.13"/><rect x="265.54" y="309.3" width="21.88" height="4.13"/><rect class="cls-9" x="91.25" y="450.01" width="43.66" height="4.13"/><rect class="cls-8" x="91.25" y="499.21" width="43.66" height="4.13"/><rect class="cls-27" x="250.15" y="222.42" width="10.63" height="13.45"/><rect class="cls-17" x="250.15" y="222.42" width="10.63" height="13.45"/><rect class="cls-28" x="251.19" y="223.46" width="8.55" height="11.37"/><rect class="cls-28" x="252.23" y="224.51" width="6.46" height="9.29"/><rect class="cls-28" x="253.27" y="225.55" width="4.38" height="7.2"/><rect class="cls-28" x="254.32" y="226.59" width="2.3" height="5.12"/><rect class="cls-28" x="255.36" y="227.63" width="0.21" height="3.03"/><circle class="cls-29" cx="213.41" cy="315.88" r="8.4"/><g class="cls-30"><rect class="cls-7" x="213.41" y="307.48" width="10.84" height="7.7"/></g><rect x="205.01" y="315.18" width="16.79" height="1.39"/><rect class="cls-11" x="204.94" y="316.45" width="16.86" height="17.52"/><rect class="cls-31" x="207.02" y="318.54" width="12.69" height="13.35"/><rect class="cls-31" x="209.11" y="320.62" width="8.52" height="9.18"/><rect class="cls-31" x="211.19" y="322.7" width="4.36" height="5.01"/><rect class="cls-31" x="213.28" y="324.79" width="0.19" height="0.85"/><rect class="cls-27" x="265.54" y="286.06" width="21.88" height="23.24"/><ellipse class="cls-5" cx="276.48" cy="285.27" rx="10.94" ry="10.97"/><rect x="265.54" y="284.36" width="21.88" height="1.81"/><g class="cls-32"><rect class="cls-7" x="276.48" y="273.28" width="13.08" height="11.08"/></g><rect class="cls-11" x="265.54" y="286.06" width="21.88" height="23.24"/><rect class="cls-31" x="267.62" y="288.14" width="17.71" height="19.08"/><rect class="cls-31" x="269.71" y="290.23" width="13.54" height="14.91"/><rect class="cls-31" x="271.79" y="292.31" width="9.38" height="10.74"/><rect class="cls-31" x="273.87" y="294.39" width="5.21" height="6.57"/><rect class="cls-31" x="275.96" y="296.48" width="1.04" height="2.4"/><rect class="cls-11" x="134.91" y="300.95" width="22.62" height="10.98"/><rect class="cls-31" x="136.48" y="302.51" width="19.49" height="7.85"/><rect class="cls-31" x="138.04" y="304.08" width="16.37" height="4.73"/><rect class="cls-31" x="139.6" y="305.64" width="13.24" height="1.6"/><rect x="233.29" y="176.03" width="16.86" height="1.39"/><g class="cls-33"><rect class="cls-7" x="241.72" y="167.52" width="10.08" height="8.52"/></g><rect class="cls-17" x="159.29" y="371.37" width="45.68" height="2.86"/></g></g></svg>