<svg xmlns="http://www.w3.org/2000/svg" xmlns:xlink="http://www.w3.org/1999/xlink" viewBox="0 0 333.67 491.62"><defs><style>.cls-1,.cls-21,.cls-22,.cls-23,.cls-24,.cls-30,.cls-52,.cls-59,.cls-60{fill:none;}.cls-2{fill:#f1f2f6;}.cls-3{fill:#f2f2f2;}.cls-4{fill:#fff;}.cls-5{fill:#2c5e5e;}.cls-6{fill:#9b6534;}.cls-7{fill:#254c4b;}.cls-8{fill:#6dd1bd;}.cls-9{fill:#46a391;}.cls-10{fill:#fbc24d;}.cls-11{fill:#bdbdbd;}.cls-12{fill:#e9e9e9;}.cls-13{fill:#1d1d1d;}.cls-14{fill:#f36569;}.cls-15{fill:#848484;}.cls-16{fill:#6a6a6a;}.cls-17{fill:#383838;}.cls-18{fill:#5c5c5c;}.cls-19{fill:#a6a6a6;}.cls-20{fill:#efefef;}.cls-21,.cls-22,.cls-23,.cls-24,.cls-30,.cls-52,.cls-59,.cls-60{stroke:#000;}.cls-21,.cls-23{stroke-width:0.92px;}.cls-22{stroke-width:0.9px;}.cls-23,.cls-24,.cls-52{stroke-linecap:round;}.cls-23,.cls-24,.cls-52,.cls-59{stroke-linejoin:round;}.cls-24{stroke-width:0.85px;}.cls-25{fill:#193534;}.cls-26{fill:#e2e2e2;}.cls-27{fill:#d8d8d8;}.cls-28{fill:#cacaca;}.cls-29{fill:#d0d0d0;}.cls-30{stroke-width:1.17px;}.cls-31{clip-path:url(#clip-path);}.cls-32{clip-path:url(#clip-path-2);}.cls-33{fill:#555;}.cls-34{clip-path:url(#clip-path-3);}.cls-35{clip-path:url(#clip-path-4);}.cls-36{clip-path:url(#clip-path-5);}.cls-37{clip-path:url(#clip-path-6);}.cls-38{clip-path:url(#clip-path-7);}.cls-39{clip-path:url(#clip-path-8);}.cls-40{fill:#818181;}.cls-41{clip-path:url(#clip-path-9);}.cls-42{clip-path:url(#clip-path-10);}.cls-43{fill:#474747;}.cls-44{clip-path:url(#clip-path-11);}.cls-45{fill:#f3f3f3;}.cls-46{clip-path:url(#clip-path-12);}.cls-47{clip-path:url(#clip-path-13);}.cls-48{clip-path:url(#clip-path-14);}.cls-49{clip-path:url(#clip-path-15);}.cls-50{clip-path:url(#clip-path-16);}.cls-51{clip-path:url(#clip-path-17);}.cls-52{stroke-width:0.7px;}.cls-53{clip-path:url(#clip-path-18);}.cls-54{fill:#ddd;}.cls-55{clip-path:url(#clip-path-19);}.cls-56{clip-path:url(#clip-path-20);}.cls-57{clip-path:url(#clip-path-21);}.cls-58{fill:#232323;}.cls-59{stroke-width:1.33px;}.cls-60{stroke-width:1.18px;}</style><clipPath id="clip-path" transform="translate(0 -0.05)"><path class="cls-1" d="M81.67,256.54h0A17.72,17.72,0,0,0,60.92,263S71.71,266.72,81.67,256.54Z"/></clipPath><clipPath id="clip-path-2" transform="translate(0 -0.05)"><path class="cls-1" d="M81.93,257.2c.28.36-22.7,1.21-29.46-13.36C52.47,243.84,67.08,238.29,81.93,257.2Z"/></clipPath><clipPath id="clip-path-3" transform="translate(0 -0.05)"><path class="cls-1" d="M81.93,257.2c0,.7-18-10.64-10.11-33.87C71.82,223.32,80.9,230.13,81.93,257.2Z"/></clipPath><clipPath id="clip-path-4" transform="translate(0 -0.05)"><path class="cls-1" d="M81.48,257.34c-.37.37-9.3-15.15,11.52-32.19C93,225.15,97.59,241,81.48,257.34Z"/></clipPath><clipPath id="clip-path-5" transform="translate(0 -0.05)"><path class="cls-1" d="M81.38,256.88c-.89,0,6.7-15.35,27.68-11.22C109.06,245.66,102.12,256.43,81.38,256.88Z"/></clipPath><clipPath id="clip-path-6" transform="translate(0 -0.05)"><path class="cls-1" d="M81.31,255.27c-.22-.49,8.93-2.87,16.59,8.47C97.91,263.74,86.8,267.72,81.31,255.27Z"/></clipPath><clipPath id="clip-path-7" transform="translate(0 -0.05)"><path class="cls-1" d="M253,353.59s-13.27-3.39-13.79-16.6C239.16,337,250.35,336.62,253,353.59Z"/></clipPath><clipPath id="clip-path-8" transform="translate(0 -0.05)"><path class="cls-1" d="M253,353.59c-.12.3-7.8-13.75-2.38-23C250.57,330.59,258.38,340,253,353.59Z"/></clipPath><clipPath id="clip-path-9" transform="translate(0 -0.05)"><path class="cls-1" d="M307.66,353.59c-.22.23-4.12-15.86,4.51-23C312.16,330.59,315.36,345.33,307.66,353.59Z"/></clipPath><clipPath id="clip-path-10" transform="translate(0 -0.05)"><path class="cls-1" d="M307.66,353.59c-.34.13,1.51-14.15,13.13-15.17C320.78,338.42,320.77,348.78,307.66,353.59Z"/></clipPath><clipPath id="clip-path-11" transform="translate(0 -0.05)"><path class="cls-1" d="M307.66,353.59s8.09-6.95,16.94-.64A47.65,47.65,0,0,1,307.66,353.59Z"/></clipPath><clipPath id="clip-path-12" transform="translate(0 -0.05)"><path class="cls-1" d="M262.46,265.43h0a10.33,10.33,0,0,0-12.09,3.76S256.66,271.37,262.46,265.43Z"/></clipPath><clipPath id="clip-path-13" transform="translate(0 -0.05)"><path class="cls-1" d="M262.61,265.82c.16.21-13.23.7-17.17-7.79C245.44,258,254,254.8,262.61,265.82Z"/></clipPath><clipPath id="clip-path-14" transform="translate(0 -0.05)"><path class="cls-1" d="M262.61,265.82c0,.41-10.49-6.2-5.89-19.75C256.72,246.07,262,250,262.61,265.82Z"/></clipPath><clipPath id="clip-path-15" transform="translate(0 -0.05)"><path class="cls-1" d="M262.35,265.9c-.22.22-5.42-8.83,6.71-18.77C269.07,247.14,271.74,256.4,262.35,265.9Z"/></clipPath><clipPath id="clip-path-16" transform="translate(0 -0.05)"><path class="cls-1" d="M262.29,265.63c-.52,0,3.91-9,16.14-6.54C278.43,259.09,274.38,265.37,262.29,265.63Z"/></clipPath><clipPath id="clip-path-17" transform="translate(0 -0.05)"><path class="cls-1" d="M262.25,264.7c-.13-.29,5.21-1.67,9.67,4.94C271.93,269.63,265.45,272,262.25,264.7Z"/></clipPath><clipPath id="clip-path-18" transform="translate(0 -0.05)"><path class="cls-1" d="M26,375.23c-.24.1.66-9,8.28-12.3C34.23,362.93,36.42,370.91,26,375.23Z"/></clipPath><clipPath id="clip-path-19" transform="translate(0 -0.05)"><path class="cls-1" d="M22.88,376.46s-8.41-3.27-7.93-11.16c0,0,7.91,2.54,10.2,10.79Z"/></clipPath><clipPath id="clip-path-20" transform="translate(0 -0.05)"><path class="cls-1" d="M24.57,376s-5.14-11.87.69-17.21c0,0,5.11,8.71,1.28,17Z"/></clipPath><clipPath id="clip-path-21" transform="translate(0 -0.05)"><path class="cls-1" d="M26.28,375.85c-.39,0,1.23-10.25,11.38-5.64C37.66,370.21,35.4,376.06,26.28,375.85Z"/></clipPath></defs><title>island-3</title><g id="Layer_2" data-name="Layer 2"><g id="Layer_1-2" data-name="Layer 1"><path class="cls-2" d="M111.22,83s-42-2.27-43.48,3.75,12.94,2.27,12.94,6.86-60.77-3.46-61.14,6.51,50.18,2.66,50.09,8.64c-.07,4.21-13.3,1.23-13.3,6s45.28,4.79,50.09,4.64.94-.2,5.19-.2Z" transform="translate(0 -0.05)"/><rect class="cls-3" x="112" y="114.19" width="9.62" height="2.52"/><rect x="110.44" y="93.71" width="12.98" height="62.92"/><rect class="cls-2" x="112.12" y="95.63" width="9.62" height="2.52"/><rect class="cls-2" x="112.12" y="100.35" width="9.62" height="2.52"/><rect class="cls-2" x="112.12" y="105.06" width="9.62" height="2.52"/><rect class="cls-2" x="112.12" y="109.77" width="9.62" height="2.52"/><rect class="cls-2" x="112.12" y="114.48" width="9.62" height="2.52"/><rect class="cls-4" x="112.12" y="119.2" width="9.62" height="2.52"/><rect class="cls-4" x="112.12" y="123.91" width="9.62" height="2.52"/><rect class="cls-4" x="112.12" y="128.62" width="9.62" height="2.52"/><rect class="cls-4" x="112.12" y="133.33" width="9.62" height="2.52"/><rect class="cls-4" x="112.12" y="138.05" width="9.62" height="2.52"/><rect class="cls-4" x="112.12" y="142.76" width="9.62" height="2.52"/><rect class="cls-4" x="112.12" y="147.47" width="9.62" height="2.52"/><rect class="cls-4" x="112.12" y="152.19" width="9.62" height="2.52"/><path class="cls-5" d="M198.58,60.41a2.44,2.44,0,0,1-2.17-2.85c.12-2.71.58-4.92,4-4.92s5.45,2.81,4.71,5.47l-.74,2.67Z" transform="translate(0 -0.05)"/><rect class="cls-6" x="139.21" y="67.53" width="1.22" height="10.36"/><rect class="cls-6" x="125.54" y="58" width="1.22" height="19.9"/><path class="cls-7" d="M132.28,38s.78-6.75,5.79-6.68,5,3,5,5.63-.51,5.24,1.58,6.74c1.71,1.23,3.91,2.27,3.91,4.73s-2.15,3.18-2.82,6.18,4.2,3.9,2.82,8.48-7.63,7.65-14.12,4.13-4.93-9.55-4.93-13.78S132.28,38,132.28,38Z" transform="translate(0 -0.05)"/><path class="cls-8" d="M126.07,60.26c-2.46.06-8.23-1.71-8.19-6.48s2.84-5,2.16-9.78c-.76-5.34-5.85-15.06-1.22-15.94,4-.75,2.77,8.73,8.15,8.15,4-.43,7.32-1.06,7.91,2s-2,3.52-2,7.11c0,3.18,4,3.14,3,8.32C134.78,59.61,130.88,60.14,126.07,60.26Z" transform="translate(0 -0.05)"/><path class="cls-9" d="M129,84s5.33-1.69,5.25-4.62.7-5.85,4.51-5.77,7.51,8.18,11.12,7.72v7.38l-20.34.45Z" transform="translate(0 -0.05)"/><path class="cls-5" d="M112,88.47s5.67-3.39,5.82-7.09,0-9.4,3.48-9.57,4.41,4,6.23,7.61,4.43,3.17,6.62,2.85A5.58,5.58,0,0,1,140,88.11c0,4.23,0,2.07,0,2.07L112,90" transform="translate(0 -0.05)"/><path class="cls-2" d="M209.13,67.6s15.58-.5,15.58,3.25-6.6,2.28-6.6,5.86,29.65-1.41,29.53,6.73-23.66,2.4-23.6,7,6.66,1.5,6.6,4.84-7.39,1.61-7.68,5.49c-.22,2.94,6.3,1.71,5.64,5.78-.75,4.57-14.29,4.41-19.47,4.29Z" transform="translate(0 -0.05)"/><rect class="cls-10" x="123.42" y="93.71" width="23.76" height="46.4"/><rect x="147.18" y="92.87" width="61.95" height="50.74"/><rect class="cls-11" x="147.18" y="146.48" width="61.95" height="54.4"/><rect class="cls-12" x="179.7" y="200.89" width="29.43" height="32.95"/><path class="cls-5" d="M162.73,106.05s2.12,2.71,3.91,1.06.92-6.34,3.92-6.05c2.19.21,1.32,4.61,3.35,5.73s6.1-.71,7.86,1.76-1.77,6.9-1.77,6.9l-15.58.41Z" transform="translate(0 -0.05)"/><rect class="cls-10" x="100.69" y="200.79" width="58.63" height="145.87"/><rect class="cls-13" x="111.39" y="217.19" width="15.55" height="92.57"/><ellipse class="cls-13" cx="119.16" cy="217.09" rx="7.77" ry="7.85"/><rect class="cls-13" x="133.08" y="217.23" width="15.55" height="42.57"/><ellipse class="cls-13" cx="140.85" cy="217.13" rx="7.77" ry="7.85"/><path class="cls-8" d="M202.94,139s-.21-8.41,5.76-8.52h.43v13.17Z" transform="translate(0 -0.05)"/><path class="cls-8" d="M147,122.72s2.49-3,4.93-1.83c3.39,1.61,2.49,4.14,2.09,8.07s4.57,6.36,8.05,3.74l1.91,8.1v5l-16.83-1.68Z" transform="translate(0 -0.05)"/><rect class="cls-4" x="123.42" y="143.61" width="23.76" height="57.22"/><rect class="cls-13" x="123.42" y="140.11" width="23.76" height="3.5"/><rect class="cls-13" x="127.53" y="155.96" width="15.55" height="43.09"/><ellipse class="cls-13" cx="135.3" cy="155.86" rx="7.77" ry="7.85"/><polygon points="134.35 128.77 135.3 107.06 136.25 128.77 134.35 128.77"/><circle class="cls-14" cx="135.3" cy="107.8" r="1.78"/><path class="cls-14" d="M135.3,127.61c6.56,0,11.88,5.62,11.88,12.54H123.42c0-6.93,5.32-12.54,11.88-12.54Z" transform="translate(0 -0.05)"/><polygon class="cls-15" points="143.07 200.83 127.53 200.83 127.53 169.49 132.71 169.49 132.71 163.62 137.89 163.62 137.89 163.62 137.89 157.75 143.07 157.75 143.07 200.83"/><polygon class="cls-11" points="127.53 200.83 143.07 200.83 143.07 192.93 137.9 192.93 137.89 186.83 132.71 186.83 132.71 186.83 132.71 180.96 127.53 180.96 127.53 200.83"/><rect x="102.77" y="88.7" width="108.3" height="5.01"/><path d="M156.25,152.24a3.88,3.88,0,0,1,3.84,3.92v0h0v10.93h-7.67V156.19h0v0a3.88,3.88,0,0,1,3.84-3.92Z" transform="translate(0 -0.05)"/><path d="M167.54,152.24a3.88,3.88,0,0,1,3.84,3.92v0h0v10.93h-7.67V156.19h0v0a3.88,3.88,0,0,1,3.84-3.92Z" transform="translate(0 -0.05)"/><rect class="cls-4" x="185.58" y="169.33" width="23.55" height="2.57"/><polygon class="cls-16" points="185.58 171.9 209.13 171.9 209.13 200.89 185.58 200.83 185.58 171.9"/><rect class="cls-13" x="189.59" y="183.43" width="15.55" height="17.43"/><ellipse class="cls-13" cx="197.36" cy="183.13" rx="7.77" ry="7.85"/><rect class="cls-4" x="173.8" y="194.14" width="5.91" height="63"/><rect class="cls-17" x="172.05" y="192.23" width="9.41" height="1.91"/><circle class="cls-18" cx="176.75" cy="188.01" r="4.22"/><path class="cls-19" d="M185.58,200.84v5.9h5.89v5.9h5.89v5.9h5.89v5.9h5.89v10.42H179.7v-34Z" transform="translate(0 -0.05)"/><path class="cls-9" d="M147.18,115.49s-1.21-9.9,3.1-9.84c3.5,0,2.13,4.5,5.62,4.53s1.64-7,6-7,4.85,8.42,4.75,12.7Z" transform="translate(0 -0.05)"/><path class="cls-9" d="M173.95,115.4s-.86-6.4,3.69-7.33,5.31,2.54,8.94,1.36c3.79-1.23,2-6,6.84-6.26,4.56-.22,5.36,4.58,5.48,7.75a41.65,41.65,0,0,1,0,4.95Z" transform="translate(0 -0.05)"/><path class="cls-8" d="M194.63,115.31s-3.5-13.15,1.47-13.83,4.78,5.94,8.21,6.39c4.1.54,4.83-2.29,4.83-2.29v9.94Z" transform="translate(0 -0.05)"/><rect class="cls-13" x="147.18" y="114.92" width="63.89" height="2.9"/><path class="cls-9" d="M163.09,139s-6.77-18.53.61-19.09c6.09-.46,4.39,7.69,8.11,7.26,4.35-.5,4-5.92,9.09-5.28,5.72.71,3.76,13.71,1.88,17.45s-8.91,4.32-8.91,4.32Z" transform="translate(0 -0.05)"/><path class="cls-5" d="M187.51,135s4.72,1.69,4.57-2.32-1-11.81,5.13-11.81c4.09,0,4.89,6.37,3.64,9s-3.68,4.85-1.38,7.49c2.64,3,9.66-.55,9.66,6.29v1.57L189,143.44Z" transform="translate(0 -0.05)"/><path class="cls-5" d="M152.41,144.19s-5-6.31-1-8.73c3.44-2.07,5,1.49,9,.88s3.56-7.51,9.25-7c6.47.54,6.6,11.27,4.2,15S152.41,144.19,152.41,144.19Z" transform="translate(0 -0.05)"/><path class="cls-5" d="M174.47,144.66s-3.74-7.91.51-9.86c3.78-1.74,3.76,3.57,7.18,1.54s5-4.67,9.37-2.86c5.31,2.22,1.32,11.18,1.32,11.18Z" transform="translate(0 -0.05)"/><rect class="cls-13" x="147.18" y="143.61" width="63.89" height="2.95"/><rect class="cls-20" x="179.71" y="233.84" width="29.42" height="23.3"/><rect class="cls-13" x="181.57" y="240.42" width="6.87" height="16.72"/><ellipse class="cls-13" cx="185.01" cy="240.38" rx="3.43" ry="3.47"/><rect class="cls-13" x="190.99" y="240.42" width="6.87" height="16.72"/><ellipse class="cls-13" cx="194.42" cy="240.38" rx="3.43" ry="3.47"/><rect class="cls-13" x="200.4" y="240.42" width="6.87" height="16.72"/><ellipse class="cls-13" cx="203.83" cy="240.38" rx="3.43" ry="3.47"/><rect class="cls-21" x="111.64" y="24.73" width="22.25" height="63.97"/><rect class="cls-22" x="111.59" y="24.4" width="97.54" height="63.97"/><path class="cls-5" d="M163.71,41.75A3,3,0,0,1,167,38.67c3.44.1,4.93,2.65,4.78,5.53l-8.33.43Z" transform="translate(0 -0.05)"/><path class="cls-8" d="M170.55,43.84s0-4.81,3.86-5.17,4.38,1.54,7.64,2.24,5.47-.21,5.47,3.71h-17Z" transform="translate(0 -0.05)"/><path class="cls-9" d="M186.54,44.13s1.49-5.51,6.24-5.51,4.09,2.53,6.69,2.37,3.78.51,4.08,3.22Z" transform="translate(0 -0.05)"/><path class="cls-5" d="M156.34,60.79s-2.46-2.58-.36-5c1.72-2,5.78-2.17,6.75.14s1.77,2.31,3.48,2.4,2.38.22,2.53,2Z" transform="translate(0 -0.05)"/><path class="cls-9" d="M165.9,59.64s-1.2-5.9,2.38-6.69c3.1-.68,5,.4,5.29,2.18a35.64,35.64,0,0,1,.32,5.14H166Z" transform="translate(0 -0.05)"/><path class="cls-5" d="M173.34,60.27s-1.15-4.55,3.36-5.19c3.64-.51,4.32,1.83,6.7,1.83s2.9,1.89,2.68,3.5Z" transform="translate(0 -0.05)"/><path class="cls-8" d="M182.68,58.67c-1.22-1.77-2-4.88.29-6.6s4.26-.34,6.61,1.22,3.33-.13,5-.3,6.68.88,3,7.27L184,60.41A14.44,14.44,0,0,1,182.68,58.67Z" transform="translate(0 -0.05)"/><path class="cls-8" d="M156.26,76.51s-2.67-5.43,2-6.46c3.55-.78,2.64,2,5.78,1.75s3.6-2.78,7.37-1.93c3.93.89,3.07,2.77,1.87,6.6Z" transform="translate(0 -0.05)"/><path class="cls-5" d="M173.25,76.48s-1.76-1.65-.3-4.68a4.18,4.18,0,0,1,6.75-1.36c1.88,1.79,2.64,2.81,4.09,2.09s2.34-2,4.39-1.35a6.42,6.42,0,0,1,4.25,3.43c1,1.87,2.3,1,3.68.25s2.77,0,2.77,1S173.25,76.48,173.25,76.48Z" transform="translate(0 -0.05)"/><path class="cls-9" d="M190.79,74s1-4.59,4.57-4.59,3.93,2.38,6.33,2.38,3.58,1.16,2.72,4.07l-13.55.61Z" transform="translate(0 -0.05)"/><rect x="154.5" y="59.8" width="50.63" height="1.42"/><rect x="154.5" y="75.82" width="50.63" height="1.42"/><path class="cls-9" d="M155.31,44.32s-2.62-5.36,1.78-6.45c3.17-.79,3.93,1.9,6,3s6.39-1.81,6,3C169,45.26,155.31,44.32,155.31,44.32Z" transform="translate(0 -0.05)"/><rect x="154.5" y="43.79" width="50.63" height="1.42"/><path class="cls-21" d="M133.89,11.62V24.71H111.6V11.62a11.15,11.15,0,0,1,22.3,0Z" transform="translate(0 -0.05)"/><path class="cls-21" d="M189.51.52a11.13,11.13,0,0,1,11.15,11.1V24.71" transform="translate(0 -0.05)"/><path class="cls-21" d="M198,.52a11.13,11.13,0,0,1,11.15,11.1V24.71" transform="translate(0 -0.05)"/><path class="cls-21" d="M181,.52a11.13,11.13,0,0,1,11.15,11.1V24.71" transform="translate(0 -0.05)"/><path class="cls-21" d="M172.57.52a11.13,11.13,0,0,1,11.15,11.1V24.71" transform="translate(0 -0.05)"/><path class="cls-21" d="M164.1.52a11.13,11.13,0,0,1,11.15,11.1V24.71" transform="translate(0 -0.05)"/><path class="cls-21" d="M155.63.52a11.13,11.13,0,0,1,11.15,11.1V24.71" transform="translate(0 -0.05)"/><path class="cls-21" d="M147.16.52a11.13,11.13,0,0,1,11.15,11.1V24.71" transform="translate(0 -0.05)"/><path class="cls-21" d="M138.68.52a11.13,11.13,0,0,1,11.15,11.1V24.71" transform="translate(0 -0.05)"/><path class="cls-21" d="M130.21.52a11.13,11.13,0,0,1,11.15,11.1V24.71" transform="translate(0 -0.05)"/><path class="cls-21" d="M122.85.52A11.13,11.13,0,0,1,134,11.62V24.71" transform="translate(0 -0.05)"/><path d="M118.55,24.41a4.41,4.41,0,0,1,8.81,0" transform="translate(0 -0.05)"/><line class="cls-21" x1="122.96" y1="24.66" x2="133.89" y2="15.52"/><line class="cls-21" x1="122.96" y1="24.66" x2="133.15" y2="7.08"/><line class="cls-21" x1="122.96" y1="24.66" x2="127.13" y2="1.08"/><line class="cls-21" x1="122.96" y1="24.66" x2="118.8" y2="1.18"/><path class="cls-21" d="M108.63,0" transform="translate(0 -0.05)"/><line class="cls-21" x1="122.96" y1="24.66" x2="112.64" y2="6.87"/><line class="cls-21" x1="122.96" y1="24.66" x2="111.39" y2="15"/><line class="cls-21" x1="122.96" y1="24.66" x2="111.59" y2="20.54"/><line class="cls-21" x1="122.96" y1="24.66" x2="111.59" y2="20.54"/><line class="cls-21" x1="122.74" y1="0.46" x2="198.41" y2="0.46"/><line class="cls-21" x1="133.15" y1="7.08" x2="208.09" y2="7.08"/><line class="cls-21" x1="134" y1="15.76" x2="209.24" y2="15.76"/><line class="cls-21" x1="134" y1="20.62" x2="209.24" y2="20.62"/><line class="cls-21" x1="134" y1="20.62" x2="125.91" y2="23.98"/><line class="cls-23" x1="111.64" y1="30.89" x2="209.13" y2="30.89"/><line class="cls-23" x1="111.64" y1="38.09" x2="209.13" y2="38.09"/><line class="cls-23" x1="111.64" y1="45.3" x2="209.13" y2="45.3"/><line class="cls-23" x1="111.73" y1="52.5" x2="208.97" y2="52.5"/><line class="cls-23" x1="111.64" y1="59.71" x2="208.97" y2="59.71"/><line class="cls-23" x1="111.73" y1="66.91" x2="208.97" y2="66.91"/><line class="cls-23" x1="111.7" y1="74.12" x2="208.97" y2="74.12"/><line class="cls-23" x1="111.75" y1="81.32" x2="208.97" y2="81.32"/><rect class="cls-14" x="118.55" y="67.33" width="8.81" height="21.09"/><line class="cls-23" x1="141.36" y1="24.66" x2="141.36" y2="89.78"/><line class="cls-23" x1="149.83" y1="24.66" x2="149.83" y2="88.7"/><line class="cls-23" x1="158.3" y1="24.66" x2="158.3" y2="88.7"/><line class="cls-23" x1="166.78" y1="24.66" x2="166.78" y2="88.41"/><line class="cls-23" x1="175.25" y1="24.66" x2="175.25" y2="89.15"/><line class="cls-23" x1="183.72" y1="24.66" x2="183.72" y2="88.7"/><line class="cls-23" x1="192.19" y1="24.66" x2="192.19" y2="88.7"/><line class="cls-23" x1="200.66" y1="24.66" x2="200.66" y2="88.86"/><line class="cls-23" x1="127.36" y1="24.36" x2="127.36" y2="88.41"/><line class="cls-23" x1="118.8" y1="24.36" x2="118.8" y2="88.41"/><path class="cls-24" d="M77.33,451.41c5.48,4.19-5.47,10.1-.59,14a4,4,0,0,0,2.9.91" transform="translate(0 -0.05)"/><path class="cls-24" d="M319.49,443.55c9.33,5.71-4.52,10.22-3.28,15.81.77,3.46,5,3.92,5.59,7.91.41,2.86-3.17,5.32,1.16,6.94" transform="translate(0 -0.05)"/><path class="cls-5" d="M181.52,453.65s7.71,4.06,7.71,10.92,4.22,10,17.22,11.54,20.79-.49,26.75,4.46,20.29,1,30.06-4.46,13.05-3.92,21-4.17,8.24-5.87,9.69-14.22S290.68,428,290.68,428l-103.2-1.7Z" transform="translate(0 -0.05)"/><path class="cls-9" d="M155,457.35s12.76,10.26,28.56-.72,17-19.77,18-26.49L160.63,428Z" transform="translate(0 -0.05)"/><path class="cls-25" d="M84.55,450.37s-3,13.72,6.31,20.4,16.89-1,28.2.84,22.17,4.68,29.66.72c8.14-4.3,8.05-9.55,9.27-18.62s-17.73-13.36-17.73-13.36l-42.74,2.39Z" transform="translate(0 -0.05)"/><rect class="cls-6" x="179.48" y="151.3" width="1.22" height="14.34"/><rect class="cls-6" x="206.4" y="151.3" width="1.22" height="14.34"/><rect class="cls-6" x="231.81" y="149.81" width="1.22" height="14.34"/><path class="cls-25" d="M185.86,167.69s.71-14.47,8.17-13.64c4.29.48,2,6.41,6.61,8s8-3.35,11.7,1.7-1.15,9.72-1.15,9.72H185.9Z" transform="translate(0 -0.05)"/><path class="cls-5" d="M205.78,172s-2.52-10.47,5-10.24c5.67.17,4.1,5.5,7.09,6.67s3.92-2.09,7.38-.12,1,3.69,1,3.69Z" transform="translate(0 -0.05)"/><path class="cls-9" d="M159.32,172s-.7-12.33,4.33-12.16c5.57.19,4.17,5.08,9.66,5.85s8.82-3.48,13.87-2,4.17,7,3.66,9.74Z" transform="translate(0 -0.05)"/><path class="cls-9" d="M214.21,166.74s-1.06-10.1,5.9-10c6.56.13,3.84,5.7,9.11,5.5,5.55-.21,6.85-6,11.54-4.67,5.34,1.49,2.08,11.4,0,14.38H214.68Z" transform="translate(0 -0.05)"/><path class="cls-5" d="M240.77,172.78s-.42-10.54,5.9-10.15,6.29,6,6.29,9.38C253,174.53,240.77,172.78,240.77,172.78Z" transform="translate(0 -0.05)"/><rect class="cls-14" x="159.32" y="170.43" width="93.63" height="79.31"/><polygon class="cls-26" points="165.22 200.86 165.22 206.77 171.13 206.77 171.13 212.67 177.03 212.67 177.03 218.57 182.93 218.57 182.93 224.48 188.84 224.48 188.84 230.38 194.74 230.38 194.74 236.28 200.64 236.28 200.64 242.19 200.25 242.19 200.28 242.21 200.33 245.13 252.96 245.13 252.96 330.54 159.32 330.54 159.32 262.63 159.32 262.63 159.32 206.77 159.32 206.77 159.32 200.86 165.22 200.86"/><rect class="cls-3" x="172.25" y="282.7" width="9.72" height="2.55"/><rect class="cls-4" x="170.67" y="262.03" width="13.11" height="63.52"/><rect class="cls-27" x="172.36" y="263.97" width="9.72" height="2.55"/><rect class="cls-27" x="172.36" y="268.73" width="9.72" height="2.55"/><rect class="cls-27" x="172.36" y="273.49" width="9.72" height="2.55"/><rect class="cls-27" x="172.36" y="278.24" width="9.72" height="2.55"/><rect class="cls-27" x="172.36" y="283" width="9.72" height="2.55"/><rect class="cls-27" x="172.36" y="287.76" width="9.72" height="2.55"/><rect class="cls-27" x="172.36" y="292.52" width="9.72" height="2.55"/><rect class="cls-27" x="172.36" y="297.28" width="9.72" height="2.55"/><rect class="cls-3" x="172.36" y="302.03" width="9.72" height="2.55"/><rect class="cls-3" x="172.36" y="306.79" width="9.72" height="2.55"/><rect class="cls-3" x="172.36" y="311.55" width="9.72" height="2.55"/><rect class="cls-3" x="172.36" y="316.31" width="9.72" height="2.55"/><rect class="cls-3" x="172.36" y="321.07" width="9.72" height="2.55"/><polygon class="cls-11" points="252.96 324.15 252.96 303.08 201.49 303.08 201.49 280.69 201.5 280.69 201.5 274.79 195.59 274.79 195.59 280.69 189.69 280.69 189.69 286.59 183.78 286.59 183.78 292.5 177.88 292.5 177.88 298.4 172.02 298.4 172.02 304.3 166.11 304.3 166.11 310.21 159.56 310.21 159.56 316.11 158.93 324.38 154.31 446.51 180.3 422.9 180.3 422.9 203.87 422.9 203.87 347.76 229.38 347.76 229.38 326.69 203.87 326.69 203.87 325.37 201.49 325.37 201.49 324.15 252.96 324.15"/><circle class="cls-4" cx="207.04" cy="259.06" r="4.6"/><circle cx="207.04" cy="259.06" r="2.46"/><circle class="cls-4" cx="224.36" cy="259.06" r="4.6"/><circle cx="224.36" cy="259.06" r="2.46"/><circle class="cls-4" cx="241.68" cy="259.06" r="4.6"/><circle cx="241.68" cy="259.06" r="2.46"/><rect class="cls-14" x="236.72" y="322.39" width="87.88" height="100.98"/><rect class="cls-28" x="203.88" y="385.85" width="32.85" height="36.71"/><rect class="cls-4" x="203.87" y="354.87" width="32.85" height="30.01"/><rect class="cls-4" x="203.87" y="324.87" width="32.85" height="30.01"/><rect class="cls-3" x="71.17" y="221.26" width="9.62" height="2.52"/><rect class="cls-13" x="69.61" y="200.79" width="12.98" height="62.92"/><rect class="cls-4" x="71.29" y="202.71" width="9.62" height="2.52"/><rect class="cls-4" x="71.29" y="207.42" width="9.62" height="2.52"/><rect class="cls-4" x="71.29" y="212.13" width="9.62" height="2.52"/><rect class="cls-4" x="71.29" y="216.85" width="9.62" height="2.52"/><rect class="cls-4" x="71.29" y="221.56" width="9.62" height="2.52"/><rect class="cls-4" x="71.29" y="226.27" width="9.62" height="2.52"/><rect class="cls-4" x="71.29" y="230.98" width="9.62" height="2.52"/><rect class="cls-4" x="71.29" y="235.7" width="9.62" height="2.52"/><rect class="cls-3" x="71.29" y="240.41" width="9.62" height="2.52"/><rect class="cls-4" x="71.29" y="245.12" width="9.62" height="2.52"/><rect class="cls-3" x="71.29" y="249.84" width="9.62" height="2.52"/><rect class="cls-3" x="71.29" y="254.55" width="9.62" height="2.52"/><rect class="cls-4" x="71.29" y="259.26" width="9.62" height="2.52"/><rect class="cls-3" x="71.17" y="282.2" width="9.62" height="2.52"/><rect class="cls-13" x="69.61" y="261.73" width="12.98" height="62.92"/><rect class="cls-4" x="71.29" y="263.65" width="9.62" height="2.52"/><rect class="cls-4" x="71.29" y="268.36" width="9.62" height="2.52"/><rect class="cls-4" x="71.29" y="273.08" width="9.62" height="2.52"/><rect class="cls-4" x="71.29" y="277.79" width="9.62" height="2.52"/><rect class="cls-4" x="71.29" y="282.5" width="9.62" height="2.52"/><rect class="cls-4" x="71.29" y="287.21" width="9.62" height="2.52"/><rect class="cls-4" x="71.29" y="291.93" width="9.62" height="2.52"/><rect class="cls-4" x="71.29" y="296.64" width="9.62" height="2.52"/><rect class="cls-4" x="71.29" y="301.35" width="9.62" height="2.52"/><rect class="cls-4" x="71.29" y="306.07" width="9.62" height="2.52"/><rect class="cls-4" x="71.29" y="310.78" width="9.62" height="2.52"/><rect class="cls-3" x="71.29" y="315.49" width="9.62" height="2.52"/><rect class="cls-3" x="71.29" y="320.2" width="9.62" height="2.52"/><path class="cls-11" d="M159.32,229v5.9h0V355.39H53V335h0v-5.9h5.9v-5.85h5.9v-5.9h5.9v-5.9h5.9v-5.9h5.9v-5.9h5.9v-5.85h5.9v-5.9h5.93V282h5.9v-5.9h5.9v-5.9H118v-5.85h5.9v-5.9h5.9v-5.9h5.9v-5.9h5.9v-5.9h5.9V234.9h5.9V229h5.9Z" transform="translate(0 -0.05)"/><path class="cls-8" d="M230.68,404.63s-3.17-10.38,3.14-11.28,2.91,5.48,2.91,5.48v5.81Z" transform="translate(0 -0.05)"/><path class="cls-10" d="M290.4,370h5.9m0,52.66H255V399.17h5.9v-5.9h5.9v-5.9h5.9v-5.72h5.9v-5.9h5.9V369.9h5.9v-5.84h5.9v58.56Z" transform="translate(0 -0.05)"/><path class="cls-25" d="M216.49,405.63s5.19-1.68,4.77-5.87c-.38-3.85-1.18-10.19,2.91-10.2,3.55,0,2,5.88,2.52,10.47s4.88-.15,8.18,3-1.42,10.7-1.42,10.7L230.9,423H218.32Z" transform="translate(0 -0.05)"/><path class="cls-9" d="M202.44,401.11a4.36,4.36,0,0,0,4.41-3.76c.74-3.94.46-8.7,4.91-8.49,4.17.2,4.21,4.77,3.74,7.95s-.95,5.2,3.65,6.37,8.06,5.9,5,13.89L222.48,423l-18.61-.34Z" transform="translate(0 -0.05)"/><rect x="28.16" y="346.66" width="92.19" height="75.89"/><path class="cls-25" d="M97.37,326s-2.14-5.78,1.72-7.77,5.09-3.58,5.16-6.53-.69-8.28,3.78-8.6,4.68,5.16,4.33,9.35.83,5.23,3.65,6.95,4.34,1.79,4.34,5-7.91,15.2-7.91,15.2L97.1,339l-.21-11.28Z" transform="translate(0 -0.05)"/><path class="cls-8" d="M102.92,365.63c6-1.76,4.3-7.26,5.08-11.42.66-3.48,6.75-4.25,7.57.32.4,2.22-1.47,4.15-.9,6.43.38,1.52,5,3,3.11,6.13-.84,1.4-15.45,1.47-15.62.15Z" transform="translate(0 -0.05)"/><path class="cls-9" d="M55.59,363.24c1.87-1.84,4.26-6.8,7.57-4.53C65,360,65,362.83,67.59,363.25c3.18.53,5-2.61,8.43-1.24,2.27.91,2.27,5.76,1.53,6.25s-18.39,0-20.41-.35c-.69-.11-4.42.28-4.86-.31a1.92,1.92,0,0,1,.46-2.55C53.45,364.61,53.73,365.08,55.59,363.24Z" transform="translate(0 -0.05)"/><path class="cls-25" d="M217,369.06s5.33.95,6.11-2.14c.7-2.75.12-8.62,4.76-8.51s2.35,6.66,7.85,8.51h1v7.82l-14.25,4.64Z" transform="translate(0 -0.05)"/><path class="cls-8" d="M76,367.18c2.34-2.24,1.83-7,3.39-9.74a3.44,3.44,0,0,1,5-1.26c2.1,1.57,1.71,5.48,1.71,7.78,0,.66,1.15,3.18,1,3.46-.9,1.8-4.93,2.11-6.58,2.11s-3.93-.64-4.67-2.36Z" transform="translate(0 -0.05)"/><path class="cls-9" d="M83,366.59c.17-2.22,1.68-4.93,3.92-5.67,3.21-1.07,4.44,2.32,7.18,2.86,5.4,1.08,13.26-5.28,13.26,4.12Z" transform="translate(0 -0.05)"/><path class="cls-9" d="M209.57,349.62s0-9.1,6.26-9.69c4.95-.47,5.18,5.72,5.18,5.72l.49,9.28H209.71Z" transform="translate(0 -0.05)"/><path class="cls-8" d="M28.32,365.95c.12-3.7,3.89-8.8,8.1-6.69,2.16,1.08,3,3.32,5.53,3.68,2.94.42,14.61-6.68,15.91,3.7L46.37,369l-13.63-1.06-4.4-1.25" transform="translate(0 -0.05)"/><rect class="cls-14" x="120.35" y="346.66" width="38.97" height="75.89"/><rect class="cls-4" x="28.16" y="366.59" width="92.19" height="3.58"/><path class="cls-8" d="M29.34,388a36.25,36.25,0,0,1,1-4.1,18.52,18.52,0,0,1,.89-2.31,6.44,6.44,0,0,1,2.95-3.19c4-1.8,2.77,6.58,6.58,6.58,2.95,0,3.42-3.44,5.55-4.86,5-3.36,6.7,5.74,7,8.7-1.29,0-2.45.56-3.73.64-.7,0-17.46-.16-18-.25a1.92,1.92,0,0,1-1.57-1.08Z" transform="translate(0 -0.05)"/><path class="cls-9" d="M58.75,385.79c-.51-4.26,4-10.67,8.72-7.81,1.77,1.06,1.88,3.27,3.56,4.32,2.6,1.63,6.69-1.83,7.39,3.07a6.48,6.48,0,0,1,0,2.86c-1.23,2.46-17.6,2.89-18.9,1.33-.53-.63-.4-1.6-.49-2.37Z" transform="translate(0 -0.05)"/><polygon class="cls-4" points="199.12 391.83 199.12 397.73 199.13 397.73 205.03 397.73 205.03 403.64 210.93 403.64 210.93 409.54 210.96 409.59 216.87 409.59 216.87 415.5 222.77 415.5 222.77 422.9 192.64 422.9 192.18 397.73 192.1 391.55 199.12 391.83"/><path class="cls-8" d="M74.1,384.6c2.85-12.32,15.2.57,11.65,4.11-.88.88-12.32,5.13-12-.69A10.36,10.36,0,0,1,74.1,384.6Z" transform="translate(0 -0.05)"/><path class="cls-9" d="M82.81,386.11c.6-2,5.89-6.21,10.26-4,1.49.74,2.19,2.56,4,2.79s3.92-2.36,6-1.33c1.31.65,1.84,2,3.56,1.74,2.72-.39,4.2-4,8.22-3.66,2.54.22,5.78,5.95,4.79,7.6-3.2,0-10.48-.78-13.71-.24-2.78.46-18.37.82-20.72.35a2.91,2.91,0,0,1-2-1.12S82.21,388.13,82.81,386.11Z" transform="translate(0 -0.05)"/><path d="M28.16,413.07c1.48-3.09.82-8.83,4.25-10.79,4.58-2.62,5.22,5.51,8.06,6.73,4.18,1.79,7-5.55,11.82-3.64,2.15.86,4.71,7.17,2.79,9.09-.52.52-2.5.3-3.21.3A97.81,97.81,0,0,1,40,414c-3.43-.43-7,.56-10.48.12Z" transform="translate(0 -0.05)"/><path class="cls-8" d="M53,411.89c5.68-11.16,9.09-5.15,16.51-4.22,4,.5,7.73-1.1,11.46,1a3.56,3.56,0,0,1,1.15,4.24c-2,3.47-20.84,1.94-25,1.94-1.64,0-4.48.55-4.48-1.7Z" transform="translate(0 -0.05)"/><path class="cls-9" d="M84.22,414.52c-1.36-.57-2.95,0-4.18-.91a2.9,2.9,0,0,1-1.21-2.48c0-4.31,8.92-4.5,11.21-3.52,1.9.82,3.64,3.64,1.76,5.52-1.52,1.52-4.74,1.52-6.73,1.52Z" transform="translate(0 -0.05)"/><path class="cls-8" d="M89.68,413.67c6.89,1.42,14,.46,21,1.09,1.82.17,6.55,1.4,8.14.4,1.4-.88,1.32-3,.68-4.41a6,6,0,0,0-2.16-2.23c-6.29-4.5-7.57,2.26-11.82.85-3-1-4.42-6.16-8.91-4.36-1.79.71-1.9,2.64-3.27,3.82-1.14,1-4.82,1.59-5.09,3.21s1.05,1.86,2.48,1.7Z" transform="translate(0 -0.05)"/><rect class="cls-4" x="28.16" y="387.97" width="92.19" height="3.58"/><rect class="cls-29" x="25.11" y="413.01" width="95.23" height="3.58"/><path class="cls-5" d="M62.64,346.72,62,332.63s3.46-1,4.36-3.92-1.1-5.57,2.06-7.5,6.79,4.32,10.85,1.09,1.6-16.84,7.38-15.67,1.79,10.52,5.71,14.17,11.19,2,12.63,9.94-2.52,16-2.52,16H62.64Z" transform="translate(0 -0.05)"/><path class="cls-5" d="M108.53,335.48c0-.62.09-8.82,6-10.63,4.48-1.36,4.11-2.61,4.94-6s.48-11.55,6.67-11.35,5.43,5.3,6.53,9.29,4.06,4.61,7.57,7.57,4.4,6.05,3.58,10.94-4,11.41-4,11.41H117.66S108.46,342.91,108.53,335.48Z" transform="translate(0 -0.05)"/><path class="cls-9" d="M128,346.72s-3.09-8.93,2.68-10.65,9,2.82,11.21-2.41.55-22.15,9.63-21.25,7.06,18.19,7.06,18.19l.3,16.12H128Z" transform="translate(0 -0.05)"/><rect class="cls-6" x="133.69" y="295.02" width="1.79" height="51.64"/><rect class="cls-30" x="34.09" y="298.4" width="28.55" height="48.26"/><rect class="cls-6" x="191.56" y="391.08" width="1.26" height="27.34"/><rect class="cls-6" x="179.53" y="385.55" width="1.59" height="34.64"/><rect class="cls-30" x="62.64" y="298.4" width="96.29" height="48.26"/><path class="cls-9" d="M120.35,406.73s1.76-11.42,8.39-11.24,3.6,9.54,11.73,11.12,8.92-9.57,14.89-6.87c5.79,2.63-3,15.46,6.75,18.55l-.06,6H120.35V406.73Z" transform="translate(0 -0.05)"/><path class="cls-25" d="M169.93,422.61s-2.92-5.86,1.22-8,3.75,3.46,6.74-2.55,1.92-13.67,8.33-13.67c4.87,0,2.57,6.77,7,11.55s9.18.31,12.46,2.64c3.82,2.71-.79,9.13-2.37,10.9Z" transform="translate(0 -0.05)"/><path class="cls-5" d="M258.34,422.61s-7.91-8.37-2.57-11.8c4.66-3,5.9,4.45,11.35,3.84,5.7-.63,5.66-6.31,11.41-6.14,7.07.2,2.43,12,.55,14.1H258.34Z" transform="translate(0 -0.05)"/><rect class="cls-6" x="78.57" y="257.79" width="4.28" height="88.87"/><path class="cls-9" d="M81.67,256.54h0A17.72,17.72,0,0,0,60.92,263S71.71,266.72,81.67,256.54Z" transform="translate(0 -0.05)"/><g class="cls-31"><polygon class="cls-5" points="60.92 263.09 79.74 256.51 81.2 259.04 66.76 266.98 60.61 265.84 60.92 263.09"/></g><path class="cls-9" d="M81.93,257.2c.28.36-22.7,1.21-29.46-13.36C52.47,243.84,67.08,238.29,81.93,257.2Z" transform="translate(0 -0.05)"/><g class="cls-32"><path class="cls-5" d="M52.47,243.84l30,14.8-23.75-.55s-7.53-8.67-7.27-8.62S52.47,243.84,52.47,243.84Z" transform="translate(0 -0.05)"/></g><path class="cls-33" d="M81.93,257.2c0,.7-18-10.64-10.11-33.87C71.82,223.32,80.9,230.13,81.93,257.2Z" transform="translate(0 -0.05)"/><path id="SVGID" class="cls-9" d="M81.93,257.2c0,.7-18-10.64-10.11-33.87C71.82,223.32,80.9,230.13,81.93,257.2Z" transform="translate(0 -0.05)"/><g class="cls-34"><polygon class="cls-5" points="71.82 223.27 80.47 257.54 67.64 250.9 65.22 233.3 69.29 224.53 71.82 223.27"/></g><path class="cls-33" d="M81.48,257.34c-.37.37-9.3-15.15,11.52-32.19C93,225.15,97.59,241,81.48,257.34Z" transform="translate(0 -0.05)"/><path id="SVGID-2" data-name="SVGID" class="cls-9" d="M81.48,257.34c-.37.37-9.3-15.15,11.52-32.19C93,225.15,97.59,241,81.48,257.34Z" transform="translate(0 -0.05)"/><g class="cls-35"><polygon class="cls-5" points="93 225.09 78.39 261.37 72.09 247.22 81.17 229.88 87.74 225.64 93 225.09"/></g><path class="cls-33" d="M81.38,256.88c-.89,0,6.7-15.35,27.68-11.22C109.06,245.66,102.12,256.43,81.38,256.88Z" transform="translate(0 -0.05)"/><path id="SVGID-3" data-name="SVGID" class="cls-9" d="M81.38,256.88c-.89,0,6.7-15.35,27.68-11.22C109.06,245.66,102.12,256.43,81.38,256.88Z" transform="translate(0 -0.05)"/><g class="cls-36"><polygon class="cls-5" points="109.06 245.61 78.6 258.74 80.97 247.18 93.86 240 103.64 240.25 110.07 243.5 109.06 245.61"/></g><path class="cls-9" d="M81.31,255.27c-.22-.49,8.93-2.87,16.59,8.47C97.91,263.74,86.8,267.72,81.31,255.27Z" transform="translate(0 -0.05)"/><g class="cls-37"><polygon class="cls-5" points="97.91 263.69 79.59 253.59 81.31 263.48 92.21 268.48 97.91 266.61 97.91 263.69"/></g><circle class="cls-8" cx="78.61" cy="256.51" r="2.98"/><circle class="cls-9" cx="83.69" cy="257.19" r="2.98"/><path d="M139.64,353.91a3.88,3.88,0,0,1,3.84,3.92v0h0v10.92H135.8V357.85h0v0a3.88,3.88,0,0,1,3.84-3.92Z" transform="translate(0 -0.05)"/><path d="M139.64,377.26a3.88,3.88,0,0,1,3.84,3.92v0h0v10.92H135.8V381.21h0v0a3.88,3.88,0,0,1,3.84-3.92Z" transform="translate(0 -0.05)"/><path class="cls-8" d="M87.74,346.72s-1.44-6.8,5-7.21,8.55,2.55,10.19-1,1.23-7.85,5.58-7.51c3.6.29,1.64,6.34,6.17,6.68,4.8.37,6.38-.3,9.43,3.07,2.48,2.74-.14,5.93-.14,5.93H87.74Z" transform="translate(0 -0.05)"/><rect class="cls-7" x="201.49" y="274.79" width="69.44" height="27.02"/><rect x="199.35" y="322.39" width="37.38" height="3.02"/><path class="cls-8" d="M219.44,348.53s3.19-3.61-1.19-8.1c-3.7-3.79-4.73-8.3-1.29-9.68,3.7-1.49,5.93,7.88,10.91,6.46,4.71-1.34,4.53-7.36,8.86-4.66v22.37H218.93Z" transform="translate(0 -0.05)"/><path class="cls-25" d="M224.79,349.62s-1-7.06,5.17-8.51,6.76,4,6.76,4v9.85H224.93Z" transform="translate(0 -0.05)"/><path class="cls-9" d="M210.68,385.9s-2-23.92,7.14-22.64c6.91,1,.34,10.43,5.56,12.54s4.67-9.49,13.34-2.06v11.2Z" transform="translate(0 -0.05)"/><path class="cls-8" d="M203.88,364.63a4.92,4.92,0,0,1,5.78-1.7c4,1.21,4.74,9,4.83,13.37a82.17,82.17,0,0,1-.33,8.63H203.88Z" transform="translate(0 -0.05)"/><path d="M177.23,236.72a6.62,6.62,0,0,1,6.55,6.69v0h0v18.65H170.68V243.46h0v0A6.62,6.62,0,0,1,177.23,236.72Z" transform="translate(0 -0.05)"/><path d="M186.64,303.13a3.88,3.88,0,0,1,3.84,3.92v0h0V318h-7.67V307.08h0v0a3.88,3.88,0,0,1,3.84-3.92Z" transform="translate(0 -0.05)"/><path class="cls-5" d="M203.88,337.78s2.39-5.79,6.42-4.26c5,1.91-2,11.7,4.57,13.19s4-6.58,11.76-5.33,3.66,13.54,3.66,13.54h-26.4V337.78Z" transform="translate(0 -0.05)"/><circle class="cls-4" cx="217.92" cy="333.77" r="0.56"/><path class="cls-5" d="M113.86,445.3a33.19,33.19,0,0,0,28.28,14.79c19.74,0,37.8-8.32,43.72-29.95l-74.3-2.1Z" transform="translate(0 -0.05)"/><circle class="cls-4" cx="220.67" cy="340.17" r="0.56"/><circle class="cls-4" cx="234.03" cy="336.38" r="0.56"/><circle class="cls-4" cx="229.78" cy="339.29" r="0.56"/><circle class="cls-4" cx="221.12" cy="336.38" r="0.56"/><path class="cls-9" d="M215.5,292.55s4.13,2.82,5.07-1.54-.42-9.82,5.5-10.27,6.4,10.53,6.65,15.48,0,5.64,0,5.64l-18.5-.26Z" transform="translate(0 -0.05)"/><circle class="cls-4" cx="225.51" cy="339.29" r="0.56"/><rect x="199.35" y="353.53" width="37.38" height="2.98"/><rect x="199.35" y="384.15" width="38.2" height="2.98"/><path class="cls-25" d="M193,395.53c-4.74.2-10.17-1.33-11.19-6.27-1.22-5.87,2.26-4.67,2.72-11.27.46-6.44-5.55-7-5.48-11.24.08-4.54,7.9-4.87,6.85-9.54-1.43-6.37-4.43-16.33,2.91-16.48,7.11-.15,2.53,11.22,4.88,14.6s8.39,2.12,9,8.5-6.72,7.22-5.59,12.17,5.18,4,6,10.35C203.88,392.52,197.93,395.33,193,395.53Z" transform="translate(0 -0.05)"/><path class="cls-9" d="M181.37,391.18c-6,.25-13.21-1.62-14.18-7.94-.84-5.44,2.86-5.91,3.45-14.27.58-8.15-7-8.9-6.95-14.24.1-5.75,10-6.18,8.68-12.08-1.81-8.08-3.41-20.25,3.68-20.89s3.21,14.22,6.18,18.5,10.63,2.69,11.34,10.77-8.52,9.15-7.08,15.42,7.85,5.65,8.69,13.74C196,388.52,187.61,390.92,181.37,391.18Z" transform="translate(0 -0.05)"/><circle class="cls-4" cx="218.38" cy="366.56" r="0.56"/><path class="cls-9" d="M230.62,423.27s-6.09-3.35-2.54-8c2.5-3.26,7-1.72,7.42-6.54.6-7.23-5.73-23.91,4.73-26,9.51-1.88,7.13,10,11.69,16.2,6,8.16,10.49-.68,15.55,6.73,3.48,5.1-1.47,14.72-2.77,17Z" transform="translate(0 -0.05)"/><circle class="cls-4" cx="216.49" cy="371.51" r="0.56"/><circle class="cls-4" cx="220.01" cy="376.8" r="0.56"/><rect class="cls-6" x="261.4" y="264.32" width="1.86" height="37.48"/><circle class="cls-4" cx="217.51" cy="381.32" r="0.56"/><circle class="cls-4" cx="225.29" cy="381.32" r="0.56"/><circle class="cls-4" cx="229.32" cy="377.77" r="0.56"/><circle class="cls-4" cx="233.76" cy="381.32" r="0.56"/><circle class="cls-4" cx="223.09" cy="393.76" r="0.56"/><circle class="cls-4" cx="224.75" cy="400.15" r="0.56"/><circle class="cls-4" cx="226.41" cy="406.51" r="0.56"/><circle class="cls-4" cx="232.16" cy="405.4" r="0.56"/><circle class="cls-4" cx="229.32" cy="409.26" r="0.56"/><path d="M284.45,391.51a3.88,3.88,0,0,1,3.84,3.92v0h0v10.92h-7.67V395.45h0v0a3.88,3.88,0,0,1,3.84-3.92Z" transform="translate(0 -0.05)"/><path d="M252.16,362.93a3.88,3.88,0,0,1,3.84,3.92v0h0V377.8h-7.67V366.88h0v0A3.88,3.88,0,0,1,252.16,362.93Z" transform="translate(0 -0.05)"/><path d="M267.1,362.64a3.88,3.88,0,0,1,3.84,3.92v0h0v10.92h-7.67V366.58h0v0a3.88,3.88,0,0,1,3.84-3.92Z" transform="translate(0 -0.05)"/><rect x="252.96" y="331.84" width="58.66" height="22.02"/><path class="cls-8" d="M277.15,346.72s-.07-9.64,2.87-9.73,1.43,9.45,3.68,9.73c3.23.4,1.2-7.43,5-7,3.16.32,4.64,9.74,2.55,14.24H277.35Z" transform="translate(0 -0.05)"/><path class="cls-9" d="M253,354.06s-2.22-8.43,3-10.92c4.49-2.12,4-7.08,3.36-10.23s.26-6.13,3.34-6.42,4.83,4.48,4.41,9.38.79,5.56,3.83,5.23,5.28,0,7.13,3.42-.19,9.38-.19,9.38Z" transform="translate(0 -0.05)"/><path class="cls-25" d="M291.27,353.91s-1.5-1.74-1.73-6.33c-.17-3.41.3-11.28,3.95-11.2s3.52,6,5.53,5.82c3.32-.33,1.52-6.31,5.92-6.31s7.55,14.67,6.68,18Z" transform="translate(0 -0.05)"/><path class="cls-8" d="M253,353.59s-13.27-3.39-13.79-16.6C239.16,337,250.35,336.62,253,353.59Z" transform="translate(0 -0.05)"/><g class="cls-38"><path class="cls-5" d="M239.16,337s12.35,14.92,13.79,16.6-4.32,1.34-4.32,1.34L240,346.72,237.64,338Z" transform="translate(0 -0.05)"/></g><path class="cls-8" d="M253,353.59c-.12.3-7.8-13.75-2.38-23C250.57,330.59,258.38,340,253,353.59Z" transform="translate(0 -0.05)"/><path id="SVGID-4" data-name="SVGID" class="cls-8" d="M253,353.59c-.12.3-7.8-13.75-2.38-23C250.57,330.59,258.38,340,253,353.59Z" transform="translate(0 -0.05)"/><g class="cls-39"><path class="cls-5" d="M250.57,330.59s2.38,21,2.38,23.47-2.15.86-2.15.86l-6.92-11.24,2.41-10.42Z" transform="translate(0 -0.05)"/></g><path class="cls-9" d="M247.92,297.13s3.21-2.22,2.59-7.56.73-11.83,6.37-10.66c4.35.9,1.13,9.06,5.13,9.64,5.83.85,8.94-1.91,8.94,2.46v11.1l-23.84-.54Z" transform="translate(0 -0.05)"/><path class="cls-40" d="M307.66,353.59c-.22.23-4.12-15.86,4.51-23C312.16,330.59,315.36,345.33,307.66,353.59Z" transform="translate(0 -0.05)"/><path id="SVGID-5" data-name="SVGID" class="cls-9" d="M307.66,353.59c-.22.23-4.12-15.86,4.51-23C312.16,330.59,315.36,345.33,307.66,353.59Z" transform="translate(0 -0.05)"/><g class="cls-41"><path class="cls-5" d="M312.16,330.59s-4.27,20.67-4.51,23-4.37-5.87-4.37-5.87l1.29-11.63,2-4.46Z" transform="translate(0 -0.05)"/></g><path class="cls-19" d="M307.66,353.59c-.34.13,1.51-14.15,13.13-15.17C320.78,338.42,320.77,348.78,307.66,353.59Z" transform="translate(0 -0.05)"/><path id="SVGID-6" data-name="SVGID" class="cls-9" d="M307.66,353.59c-.34.13,1.51-14.15,13.13-15.17C320.78,338.42,320.77,348.78,307.66,353.59Z" transform="translate(0 -0.05)"/><g class="cls-42"><path class="cls-5" d="M320.78,338.42s-11.85,13.84-13.13,15.17,0-8.6,0-8.6l4.11-7.05,5.84-1.45Z" transform="translate(0 -0.05)"/></g><path class="cls-43" d="M307.66,353.59s8.09-6.95,16.94-.64A47.65,47.65,0,0,1,307.66,353.59Z" transform="translate(0 -0.05)"/><path id="SVGID-7" data-name="SVGID" class="cls-9" d="M307.66,353.59s8.09-6.95,16.94-.64A47.65,47.65,0,0,1,307.66,353.59Z" transform="translate(0 -0.05)"/><g class="cls-44"><path class="cls-5" d="M324.6,353s-11.49-2.23-16.94.64l1.09,1.81,12,.69,4.17-2Z" transform="translate(0 -0.05)"/></g><circle class="cls-4" cx="281.17" cy="350.15" r="0.56"/><path class="cls-24" d="M137.84,445c-10,4.86,2.75,10.88,1,16.87-1.09,3.8-7,4.66-5.78,9.56s8.33,11.44-.48,14.38" transform="translate(0 -0.05)"/><circle class="cls-4" cx="287.07" cy="347.84" r="0.56"/><circle class="cls-4" cx="285.95" cy="352.13" r="0.56"/><circle class="cls-4" cx="280.05" cy="342.04" r="0.56"/><path class="cls-5" d="M256.79,322.44s-3-12.91,3.86-13c5.8-.08,3.13,7.15,7.52,7.27s3.18-6.17,9-5.5,4.11,8.32,3.45,11.24H256.79Z" transform="translate(0 -0.05)"/><rect class="cls-6" x="293.97" y="290.96" width="1.46" height="19.41"/><path class="cls-9" d="M296.3,292.55c-2.64-.21-5.51.4-8.4.61s-6.18-.61-6.18-5.3c0-3.25,2.82-4.33.59-6.24s-6.49-7.59-1.71-10.3,5.72,3.92,8.9,1.7-1.07-13,5.82-13.47c4.4-.33,5.3,4.11,4.4,7.61-.66,2.57-1.18,5.17.24,6.41s4.84-1,5.89,2c1.11,3.26-2.49,4.44-2.39,7.45s5.3,4.13,3.64,7.77C305.17,295.08,298.93,292.76,296.3,292.55Z" transform="translate(0 -0.05)"/><circle class="cls-10" cx="285.39" cy="277.74" r="1.12"/><circle class="cls-10" cx="295.06" cy="279.03" r="1.12"/><circle class="cls-10" cx="299.73" cy="288.73" r="1.12"/><circle class="cls-10" cx="295.06" cy="266.78" r="1.12"/><circle class="cls-10" cx="288.06" cy="287.71" r="1.12"/><path class="cls-9" d="M280.61,322.44s-2.89-2.8,0-6.44,3-6.51,2-10.06-1-7.91,2.74-8.19,2.52,6.5,5.84,8.8,5.55-1.32,8.44,1c2.53,2-1.55,4.53-.85,9.22.58,3.84,3.38,5.7,4.65,5.7H280.61Z" transform="translate(0 -0.05)"/><rect class="cls-6" x="77.17" y="167.12" width="1.77" height="23.57"/><path class="cls-9" d="M80,169c-3.2-.25-6.69.49-10.2.74s-9.66-.15-8.85-6c.54-3.91,4.77-5.68,2.06-8s-8.21-7-3.76-11.69c3.36-3.56,8.63,3.95,12.49,1.25s-.82-16.35,7.57-16.65c4-.15,5.93,5.29,4.84,9.54-.8,3.12-1.43,6.27.29,7.79s5.47-.66,7.16,2.48c1.16,2.16-3,5.39-2.9,9.05s6,5.4,4.41,9.43C91.7,170.64,83.2,169.3,80,169Z" transform="translate(0 -0.05)"/><circle class="cls-45" cx="66.75" cy="151.07" r="1.36"/><circle class="cls-45" cx="78.49" cy="152.64" r="1.36"/><circle class="cls-45" cx="84.16" cy="164.42" r="1.36"/><circle class="cls-45" cx="78.49" cy="137.76" r="1.36"/><circle class="cls-45" cx="69.99" cy="163.18" r="1.36"/><circle class="cls-4" cx="207.43" cy="313.35" r="4.6"/><circle cx="207.43" cy="313.35" r="2.46"/><circle class="cls-4" cx="224.75" cy="313.35" r="4.6"/><circle cx="224.75" cy="313.35" r="2.46"/><circle class="cls-4" cx="242.07" cy="313.35" r="4.6"/><circle cx="242.07" cy="313.35" r="2.46"/><path class="cls-9" d="M201.49,289.92s1.91-9,7.27-9.17c4.88-.13,5.37,4.46,5.73,7.84s1.42,6.55,4.44,5.87,6.37-3.89,10.95-1.07,2.83,8.49,2.83,8.49l-31.22,0V289.92Z" transform="translate(0 -0.05)"/><path class="cls-8" d="M228.21,301.84s5.65-4.38,6.16-8.39.65-11.29,5-10.91,2.56,7.16,6.39,11.12,6.54,2,9.11,1.87,5.36,1.35,5.06,6.33Z" transform="translate(0 -0.05)"/><path class="cls-9" d="M262.46,265.43h0a10.33,10.33,0,0,0-12.09,3.76S256.66,271.37,262.46,265.43Z" transform="translate(0 -0.05)"/><g class="cls-46"><polygon class="cls-5" points="250.37 269.23 261.33 265.4 262.19 266.87 253.77 271.5 250.18 270.84 250.37 269.23"/></g><path class="cls-9" d="M262.61,265.82c.16.21-13.23.7-17.17-7.79C245.44,258,254,254.8,262.61,265.82Z" transform="translate(0 -0.05)"/><g class="cls-47"><path class="cls-5" d="M245.44,258l17.48,8.63-13.84-.32s-4.39-5.05-4.24-5A24.63,24.63,0,0,0,245.44,258Z" transform="translate(0 -0.05)"/></g><path class="cls-33" d="M262.61,265.82c0,.41-10.49-6.2-5.89-19.75C256.72,246.07,262,250,262.61,265.82Z" transform="translate(0 -0.05)"/><path id="SVGID-8" data-name="SVGID" class="cls-9" d="M262.61,265.82c0,.41-10.49-6.2-5.89-19.75C256.72,246.07,262,250,262.61,265.82Z" transform="translate(0 -0.05)"/><g class="cls-48"><polygon class="cls-5" points="256.72 246.02 261.76 265.99 254.28 262.13 252.87 251.86 255.25 246.75 256.72 246.02"/></g><path class="cls-33" d="M262.35,265.9c-.22.22-5.42-8.83,6.71-18.77C269.07,247.14,271.74,256.4,262.35,265.9Z" transform="translate(0 -0.05)"/><path id="SVGID-9" data-name="SVGID" class="cls-9" d="M262.35,265.9c-.22.22-5.42-8.83,6.71-18.77C269.07,247.14,271.74,256.4,262.35,265.9Z" transform="translate(0 -0.05)"/><g class="cls-49"><polygon class="cls-5" points="269.07 247.08 260.55 268.23 256.88 259.98 262.17 249.87 266 247.4 269.07 247.08"/></g><path class="cls-9" d="M262.29,265.63c-.52,0,3.91-9,16.14-6.54C278.43,259.09,274.38,265.37,262.29,265.63Z" transform="translate(0 -0.05)"/><g class="cls-50"><polygon class="cls-5" points="278.43 259.04 260.67 266.69 262.05 259.96 269.57 255.77 275.27 255.92 279.02 257.81 278.43 259.04"/></g><path class="cls-33" d="M262.25,264.7c-.13-.29,5.21-1.67,9.67,4.94C271.93,269.63,265.45,272,262.25,264.7Z" transform="translate(0 -0.05)"/><path id="SVGID-10" data-name="SVGID" class="cls-9" d="M262.25,264.7c-.13-.29,5.21-1.67,9.67,4.94C271.93,269.63,265.45,272,262.25,264.7Z" transform="translate(0 -0.05)"/><g class="cls-51"><polygon class="cls-5" points="271.93 269.58 261.25 263.69 262.25 269.46 268.61 272.37 271.93 271.28 271.93 269.58"/></g><circle class="cls-8" cx="260.68" cy="265.4" r="1.73"/><circle class="cls-9" cx="263.64" cy="265.79" r="1.73"/><path d="M183.65,183.4a3.88,3.88,0,0,1,3.84,3.92v0h0v10.93h-7.67V187.34h0v0a3.88,3.88,0,0,1,3.84-3.92Z" transform="translate(0 -0.05)"/><path class="cls-9" d="M201,233.87c1.49-.45,7.51-.5,6.91-4.53s-5.38-7.92-2.31-11.58,8.28,2.39,9.71-3.74-2.37-24.14,7.63-22.38c8.7,1.53.41,11.56,3.67,17.72,2.62,5,6.23,3.62,9.51,8.2,3.57,5,2.84,13.15,1.56,17.63l-3.72,7.05-33.28.81Z" transform="translate(0 -0.05)"/><rect class="cls-52" x="200.64" y="184.86" width="73.53" height="57.32"/><rect x="198.4" y="301.8" width="77.23" height="2.91"/><path class="cls-8" d="M239.6,227s-4.39-7.92.27-11.83,7.53,1.75,9.2-4.31-.2-17,7.78-16.45,5.28,12.77,4.22,17.11-1.18,8,2.59,9.89,10.52,5,10.52,17.34v3.45l-33.57.81Z" transform="translate(0 -0.05)"/><path class="cls-5" d="M223.19,242.93s-3.57-8.26,4.11-10,9.82-1.75,11-7.22,3-10.89,8.64-9.7c7.64,1.62,3.54,11.57,7.64,15.53s19.59,2.59,19.59,11.55l-26,.65Z" transform="translate(0 -0.05)"/><path class="cls-7" d="M231.6,151.7c-1.54.73-2.59,1.24-4.53,2.12s-5.44.61-6.25-1c-1.19-2.41.51-4.37,3.38-6.62s-2.62-8.49,1.51-10.69c3.21-1.71,5.31,5.26,7.77,6.17,2.66,1,7-3.77,9.14-1.9s-1.67,5-2.1,7.72,2.43,3.66,1.18,5.55c-.94,1.42-4.62,0-6.19-.78S233.14,151,231.6,151.7Z" transform="translate(0 -0.05)"/><path class="cls-9" d="M199.56,147.39c.78-1.21-.65-3.06-1.52-4.46s-1.84-4-.15-5.53,4.89.71,8,1.63,6.28-3.25,8.72-1.5c2,1.44-1.17,4.61-.12,7.56,1,2.7,3.72,5.57,2,8-1.55,2.2-5.27,1.43-8,.58s-3.92-.34-6.07.16-4.55.18-5.41-1.89S199,148.18,199.56,147.39Z" transform="translate(0 -0.05)"/><path class="cls-9" d="M172.06,146.77c.22-.59.22-2.54-1.62-4.64s-3.48-5.73.07-7.53,5.81,2.28,7.38,5.15c1.29,2.36,3.74,2.48,6.8,1,3.94-1.88,8.73,3.75,6.56,9.07s-6.21,5.11-9.36,3.75-4.9-.47-6.85.44-5,.37-5.53-1.95S171.2,149,172.06,146.77Z" transform="translate(0 -0.05)"/><circle class="cls-4" cx="191.55" cy="157.04" r="0.3"/><circle class="cls-4" cx="189.54" cy="161.72" r="0.3"/><circle class="cls-4" cx="194.91" cy="159.25" r="0.3"/><circle class="cls-4" cx="195.23" cy="165.07" r="0.3"/><circle class="cls-4" cx="198.58" cy="164.46" r="0.3"/><circle class="cls-4" cx="194.62" cy="169.4" r="0.3"/><circle class="cls-4" cx="200.48" cy="169.67" r="0.3"/><circle class="cls-4" cx="203.14" cy="166.6" r="0.3"/><circle class="cls-4" cx="221.12" cy="159.49" r="0.3"/><circle class="cls-4" cx="217.06" cy="164.46" r="0.3"/><circle class="cls-4" cx="223.6" cy="163.64" r="0.3"/><circle class="cls-4" cx="220.3" cy="167.34" r="0.3"/><circle class="cls-4" cx="225.04" cy="169.4" r="0.3"/><circle class="cls-4" cx="232.12" cy="164.34" r="0.3"/><circle class="cls-4" cx="228.92" cy="167.34" r="0.3"/><circle class="cls-4" cx="235.77" cy="169.06" r="0.3"/><circle class="cls-4" cx="237.85" cy="161.11" r="0.3"/><circle class="cls-4" cx="239.47" cy="164.95" r="0.3"/><path class="cls-5" d="M26,375.23c-.24.1.66-9,8.28-12.3C34.23,362.93,36.42,370.91,26,375.23Z" transform="translate(0 -0.05)"/><path id="SVGID-11" data-name="SVGID" class="cls-9" d="M26,375.23c-.24.1.66-9,8.28-12.3C34.23,362.93,36.42,370.91,26,375.23Z" transform="translate(0 -0.05)"/><g class="cls-53"><polygon class="cls-5" points="34.23 362.88 25.12 377.76 23.45 371.36 29.62 362.25 33.39 361.88 34.23 362.88"/></g><rect class="cls-54" x="6.76" y="381.58" width="7.84" height="40.98"/><rect x="4.43" y="379.05" width="12.49" height="2.53"/><circle class="cls-10" cx="10.68" cy="373.44" r="5.6"/><path class="cls-9" d="M22.88,376.46s-8.41-3.27-7.93-11.16c0,0,7.91,2.54,10.2,10.79Z" transform="translate(0 -0.05)"/><g class="cls-55"><polygon class="cls-5" points="14.95 365.25 24.05 376.6 20.34 377.69 14.64 372 13.72 366.42 14.95 365.25"/></g><path class="cls-9" d="M24.57,376s-5.14-11.87.69-17.21c0,0,5.11,8.71,1.28,17Z" transform="translate(0 -0.05)"/><g class="cls-56"><polygon class="cls-5" points="25.26 358.69 25.26 376.83 20.62 375.1 20.28 363.91 22.92 358.37 25.26 358.69"/></g><path class="cls-9" d="M26.28,375.85c-.39,0,1.23-10.25,11.38-5.64C37.66,370.21,35.4,376.06,26.28,375.85Z" transform="translate(0 -0.05)"/><g class="cls-57"><polygon class="cls-5" points="37.66 370.16 24.68 376.14 27.83 366.65 34.65 365.35 38.65 368.19 37.66 370.16"/></g><polygon class="cls-10" points="20.51 375.18 31.52 375.18 28.87 384.15 23.51 384.15 20.51 375.18"/><rect class="cls-54" x="62.47" y="381.58" width="7.84" height="40.98"/><rect x="60.15" y="379.05" width="12.49" height="2.53"/><circle class="cls-10" cx="66.39" cy="373.44" r="5.6"/><rect class="cls-14" x="14.6" y="384.15" width="47.87" height="38.41"/><rect class="cls-13" x="19.92" y="395.07" width="15.55" height="27.49"/><ellipse class="cls-13" cx="27.69" cy="394.97" rx="7.77" ry="7.85"/><rect class="cls-13" x="41.6" y="395.07" width="15.55" height="27.49"/><ellipse class="cls-13" cx="49.38" cy="394.97" rx="7.77" ry="7.85"/><rect class="cls-4" x="296.3" y="359.55" width="5.91" height="63"/><rect x="294.55" y="357.65" width="9.41" height="1.91"/><circle class="cls-10" cx="299.25" cy="353.43" r="4.22"/><path class="cls-9" d="M6.76,429S5.35,445.51,13,451.26s22.77,4.44,31.39,5.06,7.19,1.88,15,2.5,11-5.26,19.9-4.63,17.09,3.69,25,2.38c7.26-1.2,17.35-5.13,18.65-28.54Z" transform="translate(0 -0.05)"/><path class="cls-8" d="M120.07,431.53s-.2,12.82,7.42,14.72,8.18-2,16.67,2.15,24.26-5.85,24.26-18.26Z" transform="translate(0 -0.05)"/><path class="cls-9" d="M204.24,428s-2.08,17,8.1,21.32,14.42-1.17,25.2,2.13,14.77,6.1,27.83,1.4,16.94-9.32,16.94-21.36Z" transform="translate(0 -0.05)"/><path class="cls-25" d="M260,449.36s.23,12.55,8.69,13.43,11.27-1.65,18.26,1.14,9.76,4.45,16.53,2,7.84-18.81,7.84-25.09-9.44-14.54-9.44-14.54L260,428v21.32Z" transform="translate(0 -0.05)"/><path class="cls-8" d="M282.42,431.53s-.2,12.82,7.42,14.72,8.18-2,16.67,2.15,24.26-5.85,24.26-18.26Z" transform="translate(0 -0.05)"/><ellipse class="cls-58" cx="311.76" cy="443.4" rx="2.03" ry="1.58"/><ellipse class="cls-58" cx="302.66" cy="439.57" rx="1.48" ry="0.72"/><path class="cls-8" d="M145.07,423.37s-3.57-8.26,4.11-10,9.82-1.75,11-7.22,3-10.89,8.64-9.7c7.64,1.62,3.54,11.57,7.64,15.53S196,414.53,196,423.49l-26,.65Z" transform="translate(0 -0.05)"/><path d="M3.43,422.61h326.8c1.9,0,3.43,2,3.43,4.46s-1.54,4.46-3.43,4.46H3.43c-1.9,0-3.43-2-3.43-4.46S1.54,422.61,3.43,422.61Z" transform="translate(0 -0.05)"/><path class="cls-5" d="M58.09,476.51c-.15-4,10.78-3.28,8.62,1C65.31,480.35,58.24,480.54,58.09,476.51Z" transform="translate(0 -0.05)"/><path class="cls-9" d="M198,480.38a15,15,0,0,1,1.56.57,2.29,2.29,0,0,1,1.63,2.05c0,5.44-11.42,2.8-6.86-.85C194.35,482.15,196.91,480,198,480.38Z" transform="translate(0 -0.05)"/><path class="cls-9" d="M177.65,488.52c5.12,1.4-4.53,5.06-4.53,1.91C173.12,489,175.48,487.93,177.65,488.52Z" transform="translate(0 -0.05)"/><path class="cls-5" d="M298.57,475.06c.17-2.48,5.6.41,2.3,1.07-.91.18-1.33.26-1.86-.11A1.06,1.06,0,0,1,298.57,475.06Z" transform="translate(0 -0.05)"/><path class="cls-5" d="M41.36,465.44c.39-2.66,5.6.41,2.3,1.07-.91.18-1.33.26-1.86-.11A1.06,1.06,0,0,1,41.36,465.44Z" transform="translate(0 -0.05)"/><path class="cls-9" d="M297.53,478.65c.73-.19,1.09.68,1.2,1.42.18,1.26-3.31,2-3.91,1.32C293.8,480.16,297.53,478.65,297.53,478.65Z" transform="translate(0 -0.05)"/><ellipse class="cls-58" cx="95.92" cy="440.34" rx="1.86" ry="1.48"/><ellipse class="cls-58" cx="53.68" cy="451.21" rx="1.7" ry="0.79"/><ellipse class="cls-58" cx="49.42" cy="448.44" rx="1.13" ry="0.87"/><ellipse class="cls-58" cx="149.41" cy="443.4" rx="2.03" ry="1.58"/><ellipse class="cls-58" cx="140.3" cy="439.57" rx="1.48" ry="0.72"/><ellipse class="cls-58" cx="185.48" cy="449" rx="2.01" ry="1.42"/><ellipse class="cls-58" cx="175.21" cy="456.55" rx="2.67" ry="1.22"/><ellipse class="cls-58" cx="226.03" cy="438.44" rx="2.73" ry="1.85"/><ellipse class="cls-58" cx="248.64" cy="471.27" rx="1.43" ry="0.76"/><ellipse class="cls-58" cx="247.21" cy="446.51" rx="2" ry="1.19"/><line class="cls-59" x1="34.09" y1="306.44" x2="158.93" y2="306.44"/><path class="cls-59" d="M178.07,298.45" transform="translate(0 -0.05)"/><path class="cls-59" d="M34.27,298.45" transform="translate(0 -0.05)"/><line class="cls-59" x1="34.09" y1="314.49" x2="158.93" y2="314.49"/><line class="cls-59" x1="34.09" y1="322.53" x2="158.93" y2="322.53"/><line class="cls-59" x1="34.09" y1="330.57" x2="158.93" y2="330.57"/><line class="cls-59" x1="34.09" y1="338.62" x2="158.93" y2="338.62"/><line class="cls-59" x1="43.1" y1="298.4" x2="43.1" y2="346.66"/><path class="cls-59" d="M34.09,346.72" transform="translate(0 -0.05)"/><path class="cls-59" d="M34.09,298.45" transform="translate(0 -0.05)"/><line class="cls-59" x1="54.45" y1="298.4" x2="54.45" y2="346.66"/><line class="cls-59" x1="72.2" y1="298.4" x2="72.2" y2="346.08"/><line class="cls-59" x1="94.07" y1="298.4" x2="94.07" y2="346.66"/><line class="cls-59" x1="83.14" y1="298.4" x2="83.14" y2="346.66"/><line class="cls-59" x1="105.01" y1="298.4" x2="105.01" y2="346.66"/><line class="cls-59" x1="115.94" y1="298.4" x2="115.94" y2="346.66"/><line class="cls-59" x1="126.88" y1="298.4" x2="126.88" y2="346.66"/><line class="cls-59" x1="137.28" y1="298.4" x2="137.28" y2="346.66"/><line class="cls-59" x1="148.13" y1="298.4" x2="148.13" y2="346.66"/><path class="cls-30" d="M62.64,281.62v16.84H34.08V281.62a14.28,14.28,0,1,1,28.55,0Z" transform="translate(0 -0.05)"/><line class="cls-30" x1="158.96" y1="298.4" x2="158.96" y2="346.66"/><path class="cls-30" d="M144.73,267.34A14.28,14.28,0,0,1,159,281.62v16.84" transform="translate(0 -0.05)"/><path class="cls-30" d="M133.85,267.34a14.28,14.28,0,0,1,14.28,14.28v16.84" transform="translate(0 -0.05)"/><path class="cls-30" d="M123,267.34a14.28,14.28,0,0,1,14.28,14.28v16.84" transform="translate(0 -0.05)"/><path class="cls-30" d="M101.31,267.34a14.28,14.28,0,0,1,14.28,14.28v16.84" transform="translate(0 -0.05)"/><path class="cls-30" d="M90.46,267.34a14.28,14.28,0,0,1,14.28,14.28v16.84" transform="translate(0 -0.05)"/><path class="cls-30" d="M79.62,267.34a14.28,14.28,0,0,1,14.28,14.28v16.84" transform="translate(0 -0.05)"/><path class="cls-30" d="M68.77,267.34A14.28,14.28,0,0,1,83,281.62v16.84" transform="translate(0 -0.05)"/><path class="cls-30" d="M57.92,267.34A14.28,14.28,0,0,1,72.2,281.62v16.84" transform="translate(0 -0.05)"/><path class="cls-30" d="M48.5,267.34a14.28,14.28,0,0,1,14.28,14.28v16.84" transform="translate(0 -0.05)"/><path d="M43,298.07a5.64,5.64,0,1,1,11.29,0" transform="translate(0 -0.05)"/><path class="cls-30" d="M14.15,311" transform="translate(0 -0.05)"/><path class="cls-30" d="M48.63,298.45" transform="translate(0 -0.05)"/><path class="cls-30" d="M20.53,322" transform="translate(0 -0.05)"/><path class="cls-30" d="M48.63,298.45" transform="translate(0 -0.05)"/><path class="cls-30" d="M30.29,330.23" transform="translate(0 -0.05)"/><path class="cls-30" d="M48.63,298.45" transform="translate(0 -0.05)"/><path class="cls-30" d="M42.26,334.59" transform="translate(0 -0.05)"/><path class="cls-30" d="M48.63,298.45" transform="translate(0 -0.05)"/><path class="cls-30" d="M55,334.59" transform="translate(0 -0.05)"/><path class="cls-30" d="M48.63,298.45" transform="translate(0 -0.05)"/><path class="cls-30" d="M67,330.23" transform="translate(0 -0.05)"/><path class="cls-30" d="M48.63,298.45" transform="translate(0 -0.05)"/><path class="cls-30" d="M76.74,322" transform="translate(0 -0.05)"/><path class="cls-30" d="M48.63,298.45" transform="translate(0 -0.05)"/><path class="cls-30" d="M83.11,311" transform="translate(0 -0.05)"/><path class="cls-30" d="M48.63,298.45" transform="translate(0 -0.05)"/><line class="cls-30" x1="48.63" y1="298.4" x2="85.32" y2="298.4"/><path class="cls-30" d="M83.11,285.91" transform="translate(0 -0.05)"/><line class="cls-30" x1="48.63" y1="298.4" x2="62.91" y2="293.2"/><path class="cls-30" d="M76.74,274.87" transform="translate(0 -0.05)"/><line class="cls-30" x1="48.63" y1="298.4" x2="62.64" y2="286.65"/><line class="cls-30" x1="48.63" y1="298.4" x2="61.68" y2="275.79"/><path class="cls-30" d="M55,262.32" transform="translate(0 -0.05)"/><line class="cls-30" x1="48.63" y1="298.4" x2="53.98" y2="268.08"/><path class="cls-30" d="M42.26,262.32" transform="translate(0 -0.05)"/><line class="cls-30" x1="48.63" y1="298.4" x2="43.31" y2="268.21"/><path class="cls-30" d="M30.29,266.68" transform="translate(0 -0.05)"/><line class="cls-30" x1="48.63" y1="298.4" x2="35.42" y2="275.52"/><path class="cls-30" d="M20.53,274.87" transform="translate(0 -0.05)"/><line class="cls-30" x1="48.63" y1="298.4" x2="33.83" y2="285.98"/><path class="cls-30" d="M14.15,285.91" transform="translate(0 -0.05)"/><line class="cls-30" x1="48.63" y1="298.4" x2="34.09" y2="293.1"/><path class="cls-30" d="M14.15,285.91" transform="translate(0 -0.05)"/><line class="cls-30" x1="48.63" y1="298.4" x2="34.09" y2="293.1"/><path class="cls-30" d="M11.94,298.45" transform="translate(0 -0.05)"/><path class="cls-30" d="M34.09,298.45" transform="translate(0 -0.05)"/><line class="cls-30" x1="48.63" y1="298.4" x2="34.09" y2="298.4"/><line class="cls-30" x1="48.36" y1="267.29" x2="145.25" y2="267.29"/><path class="cls-9" d="M136.58,295.07s-9,.34-13.24-6.74,5.36-7.51,3-14.18-7.45-10.37-4.57-15.12,8.76-5,7.59-9.53-.08-12.2,4.91-11.47c5.48.8,2.8,8.33,4.79,12.33,2.67,5.33,7.15,3.13,8.53,8.54,1.07,4.18-4.83,6.81-4.13,12.17s6.66,5.42,6.52,12.16C149.91,288.25,146.34,294.52,136.58,295.07Z" transform="translate(0 -0.05)"/><path class="cls-30" d="M112.16,267.34a14.28,14.28,0,0,1,14.28,14.28v16.84" transform="translate(0 -0.05)"/><line class="cls-30" x1="61.68" y1="275.79" x2="157.63" y2="275.79"/><line class="cls-60" x1="62.77" y1="286.96" x2="159.11" y2="286.96"/><line class="cls-60" x1="62.77" y1="293.2" x2="159.11" y2="293.2"/><rect x="43.1" y="322.24" width="11.35" height="24.42"/><circle class="cls-14" cx="51.99" cy="334.06" r="0.97"/><line class="cls-1" x1="200.64" y1="184.86" x2="274.17" y2="184.86"/><line class="cls-52" x1="200.64" y1="192.97" x2="274.17" y2="192.97"/><line class="cls-52" x1="200.64" y1="201.07" x2="274.17" y2="201.07"/><line class="cls-52" x1="200.64" y1="209.17" x2="274.17" y2="209.17"/><line class="cls-52" x1="200.64" y1="217.27" x2="274.17" y2="217.27"/><line class="cls-52" x1="200.64" y1="225.37" x2="274.17" y2="225.37"/><line class="cls-52" x1="200.64" y1="233.48" x2="274.17" y2="233.48"/><line class="cls-52" x1="200.64" y1="241.58" x2="274.17" y2="241.58"/><line class="cls-52" x1="200.64" y1="241.58" x2="274.17" y2="241.58"/><line class="cls-52" x1="208.81" y1="184.86" x2="208.81" y2="242.18"/><line class="cls-52" x1="216.98" y1="184.86" x2="216.98" y2="242.18"/><line class="cls-52" x1="225.15" y1="184.86" x2="225.15" y2="242.18"/><line class="cls-52" x1="233.32" y1="184.86" x2="233.32" y2="242.18"/><line class="cls-52" x1="241.49" y1="184.86" x2="241.49" y2="242.18"/><line class="cls-52" x1="249.66" y1="184.86" x2="249.66" y2="242.18"/><line class="cls-52" x1="257.83" y1="184.86" x2="257.83" y2="242.18"/><line class="cls-52" x1="266" y1="184.86" x2="266" y2="242.18"/><line class="cls-52" x1="274.17" y1="184.86" x2="274.17" y2="242.18"/><line class="cls-52" x1="200.64" y1="184.86" x2="200.64" y2="242.18"/><rect x="200.3" y="241.28" width="74.23" height="3.85"/><rect class="cls-27" x="100.69" y="156.63" width="22.73" height="44.16"/><rect class="cls-13" x="69.61" y="197.34" width="53.81" height="3.42"/><path class="cls-9" d="M69.61,197.39s-6.33-7.61-2.28-11c3.4-2.81,8.78,4.22,15.19-.49s5.16-11.52,10-11.52c3.35,0,2.82,6.76,6.1,10.57,3.71,4.31,10.54-1.73,12.74,3.83,1.66,4.19-4.77,8.58-4.77,8.58Z" transform="translate(0 -0.05)"/><path class="cls-8" d="M102.61,193.52s-5.6-6.58-2.3-9.46,6.71,1.74,8.77-3.06c1.47-3.41,2.79-9.51,7.05-7.9,3.46,1.3.46,7.49,3.75,11.22,2.45,2.77,7.4,1.42,8.24,6,.88,4.75-4.73,7.06-4.73,7.06H106.1Z" transform="translate(0 -0.05)"/><path class="cls-5" d="M298.33,309.37c2.93-3.25,7,1.94,9.11-2.85,1.47-3.41,3.17-9.67,6.72-8.11,2.54,1.12,1.54,6.2,2.78,11,1.2,4.64,6.58.66,9.21,6.2,1.2,2.52-1.55,6.81-1.55,6.81h-23S292.93,315.36,298.33,309.37Z" transform="translate(0 -0.05)"/><circle class="cls-4" cx="125.27" cy="77.87" r="0.64"/></g></g></svg>