<?xml version="1.0" encoding="utf-8"?>
<!-- Generator: Adobe Illustrator 21.0.0, SVG Export Plug-In . SVG Version: 6.00 Build 0)  -->
<svg version="1.1" id="Layer_1" xmlns="http://www.w3.org/2000/svg" xmlns:xlink="http://www.w3.org/1999/xlink" x="0px" y="0px"
	 viewBox="0 0 468.9 614" style="enable-background:new 0 0 468.9 614;" xml:space="preserve">
<style type="text/css">
	.st0{fill:#F1F2F6;}
	.st1{fill:#515151;}
	.st2{fill:#858585;}
	.st3{fill:#73C4E2;}
	.st4{fill:#FBC24D;}
	.st5{fill:#3B72AA;}
	.st6{fill:#1D1D1D;}
	.st7{fill:#203760;}
	.st8{clip-path:url(#SVGID_2_);}
	.st9{clip-path:url(#SVGID_4_);}
	.st10{fill:#ED7129;}
	.st11{clip-path:url(#SVGID_6_);}
	.st12{clip-path:url(#SVGID_8_);}
	.st13{fill:#FFFFFF;}
	.st14{clip-path:url(#SVGID_10_);}
	.st15{clip-path:url(#SVGID_12_);}
	.st16{fill:#77BB68;}
	.st17{fill:#C5F0FF;}
	.st18{clip-path:url(#SVGID_14_);}
	.st19{clip-path:url(#SVGID_16_);}
	.st20{clip-path:url(#SVGID_18_);}
	.st21{clip-path:url(#SVGID_20_);}
	.st22{clip-path:url(#SVGID_22_);}
	.st23{clip-path:url(#SVGID_24_);}
	.st24{clip-path:url(#SVGID_26_);}
	.st25{clip-path:url(#SVGID_28_);}
	.st26{clip-path:url(#SVGID_30_);}
	.st27{clip-path:url(#SVGID_32_);}
	.st28{clip-path:url(#SVGID_34_);}
	.st29{clip-path:url(#SVGID_36_);}
	.st30{clip-path:url(#SVGID_38_);}
	.st31{clip-path:url(#SVGID_40_);}
	.st32{fill:none;stroke:#000000;stroke-width:0.75;}
	.st33{fill:#232323;}
	.st34{fill:none;stroke:#FFFFFF;stroke-width:0.28;stroke-miterlimit:10;}
	.st35{fill:#9CD8FA;}
	.st36{clip-path:url(#SVGID_42_);}
	.st37{fill:none;stroke:#FFFFFF;stroke-width:0.57;stroke-miterlimit:10;}
	.st38{clip-path:url(#SVGID_44_);}
	.st39{clip-path:url(#SVGID_46_);}
</style>
<title>island-1</title>
<g id="Layer_2">
	<g id="Layer_1-2">
		<path class="st0" d="M192.9,31.1c-3.1-0.1-15.5-1.4-14.9,4.8c0.4,3.8,6.1,2.6,5.9,6.1c-0.2,3.7-23.2-1.9-25.8,3.3
			c-3.3,6.7,17,1.9,18.2,5.4c1.1,3.3-5.3,1.5-5.2,4.7c0.1,4.5,23.8,2.7,26.1,1.7c1.1-0.5-0.2-1.6-0.2-2.5c0.1-6.3,0-13.9-2.2-19.9
			c-0.5-1-0.9-2-1.2-3.1L192.9,31.1z"/>
		<rect x="295.8" y="121.4" class="st1" width="12.5" height="74.1"/>
		<rect x="296.9" y="123.1" class="st2" width="10.2" height="2"/>
		<rect x="297.1" y="126.9" class="st2" width="10.2" height="2"/>
		<rect x="297.1" y="130.4" class="st2" width="10.2" height="2"/>
		<rect x="296.9" y="134.2" class="st2" width="10.2" height="2"/>
		<rect x="297.1" y="137.9" class="st2" width="10.2" height="2"/>
		<rect x="297.1" y="141.5" class="st2" width="10.2" height="2"/>
		<rect x="296.9" y="145.2" class="st2" width="10.2" height="2"/>
		<rect x="297.1" y="148.9" class="st2" width="10.2" height="2"/>
		<rect x="297.1" y="152.5" class="st2" width="10.2" height="2"/>
		<rect x="297.1" y="156.2" class="st2" width="10.2" height="2"/>
		<rect x="297.1" y="159.9" class="st2" width="10.2" height="2"/>
		<rect x="296.9" y="163.1" class="st2" width="10.2" height="2"/>
		<rect x="297.1" y="166.8" class="st2" width="10.2" height="2"/>
		<rect x="297.1" y="170.5" class="st2" width="10.2" height="2"/>
		<rect x="296.9" y="174.1" class="st2" width="10.2" height="2"/>
		<rect x="297.1" y="177.8" class="st2" width="10.2" height="2"/>
		<rect x="297.1" y="181.6" class="st2" width="10.2" height="2"/>
		<rect x="296.9" y="185.3" class="st2" width="10.2" height="2"/>
		<rect x="297.1" y="188.9" class="st2" width="10.2" height="2"/>
		<rect x="297.1" y="192.6" class="st2" width="10.2" height="2"/>
		<path class="st3" d="M271.9,108.9h4 M275.9,146H248v-16.6h4v-4.2h4V121h4V117h4v-4.2h4v-4.1h4v-4.1h4L275.9,146L275.9,146z"/>
		<rect x="275.9" y="108.4" class="st4" width="20" height="59"/>
		<path d="M285.8,112.5c3.4,0,6.3,3,6.3,6.7l0,0l0,0v18.6h-12.4v-18.6l0,0l0,0C279.6,115.5,282.4,112.5,285.8,112.5L285.8,112.5z"/>
		<rect x="229.3" y="134" class="st5" width="62.7" height="94.2"/>
		<rect x="232.7" y="146" class="st6" width="15.6" height="79.1"/>
		<ellipse class="st6" cx="240.5" cy="146" rx="7.8" ry="8.2"/>
		<rect x="251.3" y="146" class="st6" width="15.6" height="79.1"/>
		<ellipse class="st6" cx="259.1" cy="146" rx="7.8" ry="8.2"/>
		<rect x="269.9" y="146" class="st6" width="15.6" height="79.1"/>
		<ellipse class="st6" cx="277.7" cy="146" rx="7.8" ry="8.2"/>
		<path class="st7" d="M240.6,226.7c0,0,7.1-22,10.4-32.9c3.3-10.9,8.9-25.4,11.9-25.9c3.1-0.5,15.3-0.2,25.8-0.4
			c14.5-0.1,14.4-1.1,18.3,16.5s4.3,20.9,4.8,26.2c0.6,5.3,2.1,35.3,1.2,50.7s1.7,19.3-2.2,20.8c-3.9,1.5-55.9-2.5-57.6-6.8
			C251.6,270.7,240.6,228.1,240.6,226.7z"/>
		<g>
			<g>
				<g>
					<defs>
						<path id="SVGID_1_" d="M240.6,226.7c0,0,7.1-22,10.4-32.9c3.3-10.9,8.9-25.4,11.9-25.9c3.1-0.5,15.3-0.2,25.8-0.4
							c14.5-0.1,14.4-1.1,18.3,16.5s4.3,20.9,4.8,26.2c0.6,5.3,2.1,35.3,1.2,50.7s4.1,49,0.4,50.5s-59.5,8.9-61.1,4.7
							S240.6,228.1,240.6,226.7z"/>
					</defs>
					<clipPath id="SVGID_2_">
						<use xlink:href="#SVGID_1_"  style="overflow:visible;"/>
					</clipPath>
					<g class="st8">
						<polygon class="st5" points="275.9,270.7 242.5,257.5 246.4,233.5 250.5,233.5 250.5,229.4 254.4,229.4 254.4,225.2 
							258.4,225.2 258.4,221 262.4,221 262.4,216.9 266.3,216.9 266.3,212.7 270.3,212.7 270.3,208.5 274.3,208.5 274.3,204.4 
							278.4,204.4 278.4,200.2 278.4,200.2 278.4,200.2 282.4,200.2 282.4,196 286.4,196 286.4,191.8 290.3,191.8 290.3,187.9 
							294.3,187.9 294.3,183.7 298.4,183.7 298.4,179.6 302.3,179.6 302.3,175.4 312.8,175.5 312.8,217.2 314.8,277.7 						"/>
					</g>
				</g>
			</g>
		</g>
		<g>
			<g>
				<g>
					<defs>
						<path id="SVGID_3_" d="M240.6,226.7c0,0,7.1-22,10.4-32.9c3.3-10.9,8.9-25.4,11.9-25.9c3.1-0.5,15.3-0.2,25.8-0.4
							c14.5-0.1,14.4-1.1,18.3,16.5s4.3,20.9,4.8,26.2c0.6,5.3,2.1,35.3,1.2,50.7s4.1,49,0.4,50.5s-59.5,8.9-61.1,4.7
							S240.6,228.1,240.6,226.7z"/>
					</defs>
					<clipPath id="SVGID_4_">
						<use xlink:href="#SVGID_3_"  style="overflow:visible;"/>
					</clipPath>
					<g class="st9">
						<polygon class="st7" points="278.5,316.1 314.4,303.2 314.4,279.3 310.4,279.3 310.4,275.1 306.4,275.1 306.4,270.9 
							302.5,270.9 302.5,266.7 298.5,266.7 298.5,262.6 294.5,262.6 294.5,258.4 290.4,258.4 290.4,254.2 286.5,254.2 286.5,250.1 
							282.5,250.1 282.5,245.9 278.5,245.9 278.5,245.9 274.6,245.9 274.6,241.7 270.6,241.7 270.6,237.6 266.5,237.6 266.5,233.5 
							261.9,233.5 261.9,229.3 258.6,229.3 258.6,225.2 254.6,225.2 254.6,221.2 242.3,221.2 242.3,263.2 242.3,317.4 						"/>
					</g>
				</g>
			</g>
		</g>
		<ellipse class="st3" cx="285.8" cy="48.1" rx="9.9" ry="10.4"/>
		<rect x="275.9" y="49" class="st10" width="20" height="55.7"/>
		<path class="st3" d="M168.2,294.5c0,0-3.5-16.8,3-38.5c6.5-21.7,11.7-38.5,14.2-40.7c2.2-2,21.5-1,35.9-1
			c14.2,0,18.4-0.6,19.4,0.9c0.9,1.5,1.8,5.1,5.6,15.7c3.8,10.6,10.4,35.6,12.9,46.9s-4.1,18.8-13.1,21.8c-9,3-28.4-2.6-28.4-2.6
			s-25.8-0.2-32.5-0.2C179.4,296.4,173.7,295.7,168.2,294.5z"/>
		<g>
			<g>
				<g>
					<defs>
						<path id="SVGID_5_" d="M168.2,294.5c0,0-3.5-16.8,3-38.5c6.5-21.7,11.7-38.5,14.2-40.7c2.2-2,21.5-1,35.9-1
							c14.2,0,18.4-0.6,19.4,0.9c0.9,1.5,1.8,5.1,5.6,15.7c3.8,10.6,10.4,35.6,12.9,46.9s-4.1,18.8-13.1,21.8
							c-9,3-28.4-2.6-28.4-2.6s-25.8-0.2-32.5-0.2C179.4,296.4,173.7,295.7,168.2,294.5z"/>
					</defs>
					<clipPath id="SVGID_6_">
						<use xlink:href="#SVGID_5_"  style="overflow:visible;"/>
					</clipPath>
					<g class="st11">
						<path class="st7" d="M186.5,212.1c0,0,9.3,18.6,16.3,29.3c7,10.8,27.7,44.4,36.3,61.9c8.6,17.4-77.3-1-77.3-1l-5.9-43.3
							l19.6-42.6L186.5,212.1z"/>
					</g>
				</g>
			</g>
		</g>
		<rect x="189.6" y="173.9" class="st5" width="39.8" height="40.5"/>
		<rect x="189.6" y="168.7" width="39.8" height="5.1"/>
		<rect x="189.6" y="124.6" class="st3" width="39.8" height="44.1"/>
		<rect x="185.4" y="119.6" width="48.1" height="5.3"/>
		<rect x="189.6" y="68.9" class="st4" width="39.8" height="50.6"/>
		<rect x="185.4" y="63.7" width="48.1" height="5.1"/>
		<ellipse class="st3" cx="209.4" cy="18.1" rx="17.3" ry="18.1"/>
		<rect x="192.2" y="16.6" width="34.5" height="3"/>
		<g>
			<g>
				<g>
					<defs>
						<ellipse id="SVGID_7_" cx="209.4" cy="18.1" rx="17.3" ry="18.1"/>
					</defs>
					<clipPath id="SVGID_8_">
						<use xlink:href="#SVGID_7_"  style="overflow:visible;"/>
					</clipPath>
					<g class="st12">
						<rect x="209.4" y="-3.3" class="st5" width="21.9" height="19.9"/>
					</g>
				</g>
			</g>
		</g>
		<rect x="192.2" y="18.9" class="st5" width="34.5" height="44.9"/>
		<ellipse class="st13" cx="202.2" cy="53.7" rx="4.1" ry="4.3"/>
		<ellipse cx="202.2" cy="53.7" rx="2.2" ry="2.4"/>
		<ellipse class="st13" cx="202.2" cy="40.7" rx="4.1" ry="4.3"/>
		<ellipse cx="202.2" cy="40.7" rx="2.2" ry="2.4"/>
		<ellipse class="st13" cx="202.2" cy="27.8" rx="4.1" ry="4.3"/>
		<ellipse cx="202.2" cy="27.8" rx="2.2" ry="2.4"/>
		<ellipse class="st6" cx="209.4" cy="86.5" rx="12.3" ry="13"/>
		<rect x="213" y="18.9" class="st10" width="13.8" height="44.9"/>
		<rect x="197.3" y="86.8" class="st6" width="24.5" height="32.8"/>
		<g>
			<g>
				<g>
					<defs>
						<rect id="SVGID_9_" x="197.3" y="86.8" width="24.5" height="32.8"/>
					</defs>
					<clipPath id="SVGID_10_">
						<use xlink:href="#SVGID_9_"  style="overflow:visible;"/>
					</clipPath>
					<g class="st14">
						<path class="st5" d="M218.5,89h4 M222.6,126.2h-27.9v-16.6h4v-4.2h4v-4.2h4v-4.1h4v-4.1h4V89h4v-4.1h4L222.6,126.2
							L222.6,126.2z"/>
					</g>
				</g>
			</g>
		</g>
		<path class="st0" d="M235.2,74.5c1.7,0,14.9-0.9,14.8,3.3c-0.1,3.6-7.1,0.7-6.9,5.1c0.2,5.7,27.9-0.9,27.6,8S247,93.1,246.9,98
			c0,3.6,6,1.5,6.1,5.3c0.1,3.8-12.3,3.8-20.6,3.3c-7.1-0.4-10.8-1.5-10.8-4.8c0-5.6,10.6-4.3,10.8-10c0.1-6.9-16.3-0.6-16.3-7.8
			c0-5.4,11.6-1.2,13.2-4.2C230.7,77.5,228.6,74.5,235.2,74.5z"/>
		<path d="M209.4,134c3.4,0,6.3,3,6.3,6.7l0,0l0,0v18.6h-12.4v-18.6l0,0l0,0C203.2,137.1,206,134.2,209.4,134z"/>
		<ellipse class="st6" cx="209.4" cy="190.5" rx="12.3" ry="13"/>
		<rect x="197.3" y="189.6" class="st6" width="24.5" height="24.6"/>
		<g>
			<g>
				<g>
					<defs>
						<rect id="SVGID_11_" x="197.3" y="189.6" width="24.5" height="24.6"/>
					</defs>
					<clipPath id="SVGID_12_">
						<use xlink:href="#SVGID_11_"  style="overflow:visible;"/>
					</clipPath>
					<g class="st15">
						<path class="st16" d="M220.2,189.6h3.8 M224,225.7h-26.8v-16.1h3.8v-4.1h3.8v-4.1h3.8v-4h3.8v-4.1h3.8v-4h3.8v-4h3.8
							L224,225.7L224,225.7z"/>
					</g>
				</g>
			</g>
		</g>
		<path class="st5" d="M210.7,238.5c-0.4-1.4-1.3-9.2,9-7.4c10.3,1.7,12.2,7.5,10.9,10.5s-11.1,2.1-15.1,1
			C211.4,241.5,211.2,240.3,210.7,238.5z"/>
		<path class="st7" d="M224.7,234.9c-0.6-1,1.3-3.8,5.4-3.2s5.8,2.4,4.3,4.3C232.8,238,227.2,239.5,224.7,234.9z"/>
		<rect x="275.9" y="104.7" width="20" height="3.7"/>
		<path d="M285.8,54.9c3.4,0,6.3,3,6.3,6.7l0,0l0,0v43.7h-12.4V61.6l0,0l0,0C279.6,58,282.4,55.1,285.8,54.9L285.8,54.9z"/>
		<rect x="214.3" y="20.5" class="st13" width="10.9" height="2.1"/>
		<rect x="214.4" y="24.5" class="st13" width="10.9" height="2.1"/>
		<rect x="214.4" y="28.5" class="st13" width="10.9" height="2.1"/>
		<rect x="214.4" y="32.4" class="st13" width="10.9" height="2.1"/>
		<rect x="214.4" y="36.4" class="st13" width="10.9" height="2.1"/>
		<rect x="214.4" y="40.3" class="st13" width="10.9" height="2.1"/>
		<rect x="214.4" y="44.3" class="st13" width="10.9" height="2.1"/>
		<rect x="214.4" y="48.3" class="st13" width="10.9" height="2.1"/>
		<rect x="214.4" y="52.2" class="st13" width="10.9" height="2.1"/>
		<rect x="214.4" y="56.1" class="st13" width="10.9" height="2.1"/>
		<rect x="214.4" y="60" class="st13" width="10.9" height="2.1"/>
		<path class="st0" d="M296.9,226c22.3,0,44.6-1.6,66.8-0.2c3,0.1,14.4,1.1,14.4,5.9c0,6.2-21.3,3.1-22.1,8.5
			c-0.7,4.3,10.3,4.5,12.5,4.5c16.2,0,35.7-0.4,51.4,2.4c2.6,0.5,9.8,2.4,9.2,6.6c-0.4,2.4-5.6,3.8-7.4,3.7
			c-11.4-0.1-24-0.5-34.6-0.5c-4,0-14.4-0.7-17.9,1.4c-2,1.2-1.2,3.6,0.8,4.2c2.7,0.7,15.8,0,15.6,5.9c-0.1,3.2-7.6,5.2-12.2,5.7
			c-15.6,2-85.6,4-86.2-6.7c-0.5-7.5,16.4-5.9,16.2-11.4c-0.1-4.3-32.4,0.4-32.4-8.8c0-5.9,14.3-3.8,18.1-4.2
			c2.7-0.2,12.9,0.5,12.9-3.8c0-4.3-7.7-4-10.4-5.6c-5.4-3.2-0.5-7.4,3.7-7.4L296.9,226z"/>
		<path class="st17" d="M69.4,471.8c0,0-44.7-2.7-44.6,7.7c0.1,10.4,16.9,6.4,16.6,14.4C41.1,501.7-1,495.6,0,519.9
			c1.2,25.5,48.6,8.4,49.1,25.1c0.4,15.5-43.8,9.9-40.6,29.5c3.5,22,89.9-11,93.8,5.4c2.4,9.9-17.6,10.4-15.5,23.1
			c2.5,14.9,48.8,14.7,74.6-1.4c16.3-10.1,24.4-26.2,42.3-31.7c18-5.4,30.9,2.1,47.7,20.2s33.8,21.8,47.8,11.9
			c12.4-8.8,20.8-33.7,36.5-33.7c16.4,0,20.7,13.5,36.2,25c15.5,11.5,43.2,14,49.7,1.4c6.5-12.6-7.6-23.9-12.9-32.2
			c-5.3-8.3-3.9-15.3,7.3-19.2c11.2-3.8,28.4-3,35-3.1c5.2-0.1,16.4-0.1,17.7-7.2c1.7-9-9.2-11.4-31.8-13.6
			c-22.6-2.2-32.5-5.9-31.3-13.7c1.8-12,42.2-8.9,41.7-20.2c-0.5-11.9-51.9-13.7-68-13.7L69.4,471.8z"/>
		<polygon class="st3" points="242.4,317.4 339.9,317.4 339.9,456.5 242.3,464.7 		"/>
		<rect x="264.5" y="330.8" width="15.6" height="79.1"/>
		<ellipse cx="272.3" cy="330.8" rx="7.8" ry="8.2"/>
		<rect x="283.1" y="330.8" width="15.6" height="79.1"/>
		<ellipse cx="290.8" cy="330.8" rx="7.8" ry="8.2"/>
		<rect x="301.5" y="330.8" width="15.6" height="79.1"/>
		<ellipse cx="309.4" cy="330.8" rx="7.8" ry="8.2"/>
		<rect x="320.1" y="330.8" width="15.6" height="79.1"/>
		<ellipse cx="327.9" cy="330.8" rx="7.8" ry="8.2"/>
		<polygon points="246.1,330.7 261.6,330.7 261.6,456.5 246,461 		"/>
		<path class="st7" d="M306.5,355.4c0,0-33.9,13.9-35.5,14.9s-12.1,43.6-14.5,54.9c-2.5,11.4-5.2,24.3-5.8,30.1
			c-0.6,5.8,38.1,2,38.1,2l13.5-70.8L306.5,355.4z"/>
		<g>
			<g>
				<g>
					<defs>
						<path id="SVGID_13_" d="M306.5,355.4c0,0-33.9,13.9-35.5,14.9s-12.1,43.6-14.5,54.9c-2.5,11.4-5.2,24.3-5.8,30.1
							c-0.6,5.8,38.1,2,38.1,2l13.5-70.8L306.5,355.4z"/>
					</defs>
					<clipPath id="SVGID_14_">
						<use xlink:href="#SVGID_13_"  style="overflow:visible;"/>
					</clipPath>
					<g class="st18">
						<path class="st5" d="M251.2,422.8c0,0,24.5-6.2,26.1,1.7c1.7,7.9-19.3,14.2-25.7,11.4C245.3,433,251.2,422.8,251.2,422.8z"/>
					</g>
				</g>
			</g>
		</g>
		<path class="st5" d="M279.7,446.6c0,0,9.9-40.8,14.5-57.2c4.6-16.3,16.6-52,18.1-54.8c0.8-1.5,13.7-0.9,22-0.9
			c3.1,0,17.4,57.7,19.9,69.9s7.6,29.8,9.5,54.6c1.9,24.8-6.9,16.3-8,17.9C354.4,477.8,278,487.9,279.7,446.6z"/>
		<g>
			<g>
				<g>
					<defs>
						<path id="SVGID_15_" d="M279.7,446.6c0,0,9.9-40.8,14.5-57.2c4.6-16.3,16.6-52,18.1-54.8c0.8-1.5,13.7-0.9,22-0.9
							c3.1,0,17.4,57.7,19.9,69.9s7.6,29.8,9.5,54.6c1.9,24.8-6.9,16.3-8,17.9C354.4,477.8,278,487.9,279.7,446.6z"/>
					</defs>
					<clipPath id="SVGID_16_">
						<use xlink:href="#SVGID_15_"  style="overflow:visible;"/>
					</clipPath>
					<g class="st19">
						<path class="st7" d="M346.2,356.1c0,0-16.2-3.1-16.2,6.3c0,9.4,14.4,4.7,18.4,4.7C352.5,367.1,346.2,356.1,346.2,356.1z"/>
					</g>
				</g>
			</g>
		</g>
		<g>
			<g>
				<g>
					<defs>
						<path id="SVGID_17_" d="M279.7,446.6c0,0,9.9-40.8,14.5-57.2c4.6-16.3,16.6-52,18.1-54.8c0.8-1.5,13.7-0.9,22-0.9
							c3.1,0,17.4,57.7,19.9,69.9s7.6,29.8,9.5,54.6c1.9,24.8-6.9,16.3-8,17.9C354.4,477.8,278,487.9,279.7,446.6z"/>
					</defs>
					<clipPath id="SVGID_18_">
						<use xlink:href="#SVGID_17_"  style="overflow:visible;"/>
					</clipPath>
					<g class="st20">
						<path class="st7" d="M298.8,406.8c0,0,7.3-5.2,8.6,1.2c1.3,6.4-8.2,7.9-9.6,3C296.5,406,297.9,407.7,298.8,406.8z"/>
					</g>
				</g>
			</g>
		</g>
		<g>
			<g>
				<g>
					<defs>
						<path id="SVGID_19_" d="M279.7,446.6c0,0,9.9-40.8,14.5-57.2c4.6-16.3,16.6-52,18.1-54.8c0.8-1.5,13.7-0.9,22-0.9
							c3.1,0,17.4,57.7,19.9,69.9s7.6,29.8,9.5,54.6c1.9,24.8-6.9,16.3-8,17.9C354.4,477.8,278,487.9,279.7,446.6z"/>
					</defs>
					<clipPath id="SVGID_20_">
						<use xlink:href="#SVGID_19_"  style="overflow:visible;"/>
					</clipPath>
					<g class="st21">
						<path class="st3" d="M353.9,387.6c0,0-15-3.2-18.8,7.4s-1.5,11.8,5.7,11.6c7.2-0.1,12.3-0.5,17.1-1
							C362.8,405.2,353.9,387.6,353.9,387.6z"/>
					</g>
				</g>
			</g>
		</g>
		<g>
			<g>
				<g>
					<defs>
						<path id="SVGID_21_" d="M279.7,446.6c0,0,9.9-40.8,14.5-57.2c4.6-16.3,16.6-52,18.1-54.8c0.8-1.5,13.7-0.9,22-0.9
							c3.1,0,17.4,57.7,19.9,69.9s7.6,29.8,9.5,54.6c1.9,24.8-6.9,16.3-8,17.9C354.4,477.8,278,487.9,279.7,446.6z"/>
					</defs>
					<clipPath id="SVGID_22_">
						<use xlink:href="#SVGID_21_"  style="overflow:visible;"/>
					</clipPath>
					<g class="st22">
						<path class="st3" d="M289.2,392.8c0,0,17.5-2.7,18.2,7.7c0.7,10.4-17.9,7.5-21.3,5.3S289.2,392.8,289.2,392.8z"/>
					</g>
				</g>
			</g>
		</g>
		<g>
			<g>
				<g>
					<defs>
						<path id="SVGID_23_" d="M279.7,446.6c0,0,9.9-40.8,14.5-57.2c4.6-16.3,16.6-52,18.1-54.8c0.8-1.5,13.7-0.9,22-0.9
							c3.1,0,17.4,57.7,19.9,69.9s7.6,29.8,9.5,54.6c1.9,24.8-6.9,16.3-8,17.9C354.4,477.8,278,487.9,279.7,446.6z"/>
					</defs>
					<clipPath id="SVGID_24_">
						<use xlink:href="#SVGID_23_"  style="overflow:visible;"/>
					</clipPath>
					<g class="st23">
						<path class="st7" d="M357.9,412.1c0,0-10.9-1.2-10.4,4.5c0.5,5.7,9.3,3.1,12.9,2.7C364,418.9,357.9,412.1,357.9,412.1z"/>
					</g>
				</g>
			</g>
		</g>
		<g>
			<g>
				<g>
					<defs>
						<path id="SVGID_25_" d="M279.7,446.6c0,0,9.9-40.8,14.5-57.2c4.6-16.3,16.6-52,18.1-54.8c0.8-1.5,13.7-0.9,22-0.9
							c3.1,0,17.4,57.7,19.9,69.9s7.6,29.8,9.5,54.6c1.9,24.8-6.9,16.3-8,17.9C354.4,477.8,278,487.9,279.7,446.6z"/>
					</defs>
					<clipPath id="SVGID_26_">
						<use xlink:href="#SVGID_25_"  style="overflow:visible;"/>
					</clipPath>
					<g class="st24">
						<path class="st3" d="M359.5,417.9c0,0-17.9-1.5-17.6,6.2c0.2,7.7,13.1,5.4,17.6,4S359.5,417.9,359.5,417.9z"/>
					</g>
				</g>
			</g>
		</g>
		<path class="st17" d="M317.3,333.7l-2,116.8l10.8,1.2L325,333.7c0,0-0.8-0.7-3.7-0.7C318.2,332.7,317.3,333.7,317.3,333.7z"/>
		<path class="st5" d="M274.6,393.8c0,0,0.2-1.6,3-1.6c2.7,0,2.8,2.7,0.6,3.1C275.9,395.7,274.5,395.2,274.6,393.8z"/>
		<ellipse cx="253.8" cy="330.6" rx="7.8" ry="8.2"/>
		<rect x="314" y="217.3" class="st4" width="25.9" height="46"/>
		<rect x="314" y="263.4" class="st5" width="25.9" height="27.1"/>
		<path class="st3" d="M159.5,245.2h26.7c0,0,8.3,49.3,9.8,73.5c1.5,24.3-4.6,95.7-8.2,115.3s-22.2,42.1-22.2,42.1
			s-9.8-19.8-9.8-22.4c0-2.6-1.1-72.5-1.5-89.1c-0.5-16.6-4.4-90.6-2.6-96.3C153.7,262.6,159.5,245.2,159.5,245.2z"/>
		<g>
			<g>
				<g>
					<defs>
						<path id="SVGID_27_" d="M160,245.3l26.3-0.1c0,0,8.3,49.3,9.8,73.5c1.5,24.3-4.6,95.7-8.2,115.3
							c-3.5,19.7-22.2,42.1-22.2,42.1s-9.8-19.8-9.8-22.4c0-2.6-1.1-72.5-1.5-89.1s-4.4-90.6-2.6-96.3
							C153.7,262.6,160,245.3,160,245.3z"/>
					</defs>
					<clipPath id="SVGID_28_">
						<use xlink:href="#SVGID_27_"  style="overflow:visible;"/>
					</clipPath>
					<g class="st25">
						<path class="st5" d="M186.3,245.2c0,0-26.4,206.6-27.2,210.8c-0.8,4.2,0,26,0,26l26.7-7.8l18.4-84l4.6-62.6l-1.9-47.9
							L186.3,245.2z"/>
					</g>
				</g>
			</g>
		</g>
		<ellipse class="st3" cx="215.3" cy="289.5" rx="27" ry="27.6"/>
		<g>
			<g>
				<g>
					<defs>
						<ellipse id="SVGID_29_" cx="215.3" cy="289.5" rx="27" ry="27.6"/>
					</defs>
					<clipPath id="SVGID_30_">
						<use xlink:href="#SVGID_29_"  style="overflow:visible;"/>
					</clipPath>
					<g class="st26">
						<rect x="215.7" y="260.3" class="st5" width="34.3" height="34.9"/>
					</g>
				</g>
			</g>
		</g>
		<path class="st3" d="M184.8,415.2c0,0-11-2.6-14.4,1.7c-3.4,4.3-3.4,8.4,3.7,9.3c7.1,0.9,6.9,0.2,10.4-0.2
			S184.8,415.2,184.8,415.2z"/>
		<path class="st10" d="M188.4,359.9c0,0-6.1,66.3-7.2,75.6s42.6,49.5,42.6,49.5l18.7-19.2V359.8L188.4,359.9z"/>
		<path class="st3" d="M107.9,302c-0.1-4.6,0-9,0.5-13.5c1.5-15.8,5.8-41.2,11.7-43.2c8.3-2.8,39.5,0,39.5,0V296L107.9,302z"/>
		<ellipse class="st10" cx="153.1" cy="159.2" rx="3.1" ry="3.2"/>
		<ellipse class="st5" cx="153.1" cy="184.5" rx="33.1" ry="23"/>
		<rect x="120.2" y="185.8" class="st5" width="66.2" height="16.2"/>
		<rect x="120.2" y="202" class="st3" width="66.2" height="43.2"/>
		<polygon class="st5" points="107.9,295.2 112,295.2 112,291 116.1,291 116.1,286.9 120.3,286.9 120.3,282.7 124.3,282.7 
			124.3,278.5 128.4,278.5 128.4,278.5 128.4,274.4 132.6,274.4 132.6,270.2 136.6,270.2 136.6,266 140.7,266 140.7,266 
			140.7,261.9 144.9,261.9 144.9,257.7 148.9,257.7 148.9,253.5 153,253.5 153,249.2 157.2,249.2 157.2,245.2 159.5,245.2 
			159.5,249.2 159.5,318.6 107.9,318.6 107.9,305.6 		"/>
		<rect x="107.9" y="318.6" class="st3" width="25.7" height="105.6"/>
		<polygon class="st16" points="163.4,231.6 163.4,245.2 154.4,245.2 154.4,245.2 120.2,245.2 120.2,202 134.1,202 134.1,206.1 
			138.2,206.1 138.2,210.3 142.4,210.3 142.4,214.3 146.6,214.3 146.6,218.6 150.8,218.6 150.8,222.9 154.8,222.9 154.8,227.2 
			159.5,227.2 159.5,231.6 		"/>
		<g>
			<g>
				<g>
					<defs>
						<polygon id="SVGID_31_" points="163.4,231.6 163.4,245.2 154.4,245.2 154.4,245.2 120.2,245.2 120.2,202 134.1,202 
							134.1,206.1 138.2,206.1 138.2,210.3 142.4,210.3 142.4,214.3 146.6,214.3 146.6,218.6 150.8,218.6 150.8,222.9 154.8,222.9 
							154.8,227.2 159.5,227.2 159.5,231.6 						"/>
					</defs>
					<clipPath id="SVGID_32_">
						<use xlink:href="#SVGID_31_"  style="overflow:visible;"/>
					</clipPath>
					<g class="st27">
						<path d="M129.4,222.6c3,0,5.2,2.5,5.2,5.6l0,0l0,0v18.9h-10.4v-18.9l0,0l0,0C124.2,225.2,126.5,222.6,129.4,222.6L129.4,222.6
							z"/>
					</g>
				</g>
			</g>
		</g>
		<g>
			<g>
				<g>
					<defs>
						<polygon id="SVGID_33_" points="163.4,231.6 163.4,245.2 154.4,245.2 154.4,245.2 120.2,245.2 120.2,202 134.1,202 
							134.1,206.1 138.2,206.1 138.2,210.3 142.4,210.3 142.4,214.3 146.6,214.3 146.6,218.6 150.8,218.6 150.8,222.9 154.8,222.9 
							154.8,227.2 159.5,227.2 159.5,231.6 						"/>
					</defs>
					<clipPath id="SVGID_34_">
						<use xlink:href="#SVGID_33_"  style="overflow:visible;"/>
					</clipPath>
					<g class="st28">
						<path d="M143.9,222.6c3,0,5.2,2.5,5.2,5.6l0,0l0,0v18.9h-10.4v-18.9l0,0l0,0C138.7,225.2,141.1,222.6,143.9,222.6L143.9,222.6
							z"/>
					</g>
				</g>
			</g>
		</g>
		<rect x="107.9" y="342.8" class="st5" width="25.7" height="105.6"/>
		<path class="st16" d="M128.4,497.5c0,0,20.9-1.1,28-25.1c7.1-24,12.1-41.7,29.8-40.7s21.4,24,24.1,39.6c2.8,15.7,2.1,33,2.8,46.3
			c0.7,13.2-51.8,0-51.8,0l-32.2-6.7L128.4,497.5z"/>
		<rect x="159.5" y="220.7" class="st4" width="26.7" height="24.5"/>
		<polygon class="st5" points="107.9,345.5 107.9,322.8 107.9,322.8 107.9,318.6 112.1,318.6 112.1,322.8 116.3,322.8 116.3,326.8 
			120.4,326.8 120.4,331.1 124.5,331.1 124.5,335.1 128.7,335.1 128.7,339.5 132.8,339.5 132.8,345.5 		"/>
		<path class="st16" d="M206.5,477.7c0,0,14.5,4.6,24.7-2.5c10.2-7.1,21.2-29.1,31.2-29.5c21.8-0.7,86,1.2,92.8,4
			c8.8,3.3,16.8,28.8,16.7,49.4c-0.1,20.5-17.7,32.7-17.7,32.7l-118.6-14.2l-29.2,5.2L206.5,477.7L206.5,477.7z"/>
		<rect x="107.9" y="452.3" class="st4" width="51.7" height="58.5"/>
		<path class="st5" d="M158.8,503.3c0.5-2.5,0.9-10.1,7.6-13.2c6.6-3.1,27.6,3.3,19.2,19.8C177.2,526.3,157,509.6,158.8,503.3z"/>
		<path class="st3" d="M64.8,520.3c0.7-3,1.4-14.5,15.4-18.3s28.7-7.7,36.8,5.8c8,13.5,0,20.7-15.3,21.9
			C62.9,532.8,64.1,523.9,64.8,520.3z"/>
		<path class="st3" d="M161.8,526c0.8-5.3,5.3-17.7,17.3-21.8c11.9-4.1,29.9,5.4,27.1,19.6c-2.8,14.1-24.9,15.1-35.4,9.5
			C160.4,527.7,161.2,529.8,161.8,526z"/>
		<path class="st3" d="M216.6,520.9c-1.2-3.1-2.5-15.5,4.8-18.7s11.9,1.2,8.3,15.5C226.1,531.9,217.1,522.1,216.6,520.9z"/>
		<path class="st7" d="M226.8,517.6c2.2-8.4,8.6-15.1,16.7-17.3c14.1-4.2,34.3-5,41.1,9.5c6.9,14.5-10.3,22.4-32.8,20.8
			S224.7,524.6,226.8,517.6z"/>
		<path class="st5" d="M265,536.4c0.4-3,3.9-16.5,17.5-13s10.4,15.2,6,18.8C284.2,545.8,263.6,549.5,265,536.4z"/>
		<path class="st7" d="M347.4,500.2c0.8-1.2,13.1-3.7,18.1,6.8c5,10.5,6.6,11.6-1.3,16.8C356.3,529.1,338,514.8,347.4,500.2z"/>
		<path class="st3" d="M358.1,504.2c0-5.1,6-12.4,14.9-8.2s10.6,12.1,7.1,20.7C376.5,525.2,357.9,513.8,358.1,504.2z"/>
		<path class="st5" d="M348.7,521.4c2-6.7,7.7-13.4,22.9-10.9c15.3,2.5,19.2,16.8,17,27.1c-2.1,10.3-29.3,1.7-35.6-3
			C346.5,529.7,347.3,526.3,348.7,521.4z"/>
		<path class="st5" d="M213.9,519.7c0,0,9.5-11.4,21.2-3.1c11.7,8.3,10.9,21.8,0.4,21.7C224.9,538.1,210,532.3,213.9,519.7z"/>
		<rect x="132.8" y="336.7" class="st16" width="26.7" height="27.6"/>
		<rect x="132.8" y="364.5" class="st4" width="26.7" height="26.9"/>
		<rect x="132.8" y="318.6" class="st4" width="26.7" height="18.2"/>
		<path d="M139.5,321.6c1.8,0,3.2,1.6,3.2,3.5l0,0l0,0l0,0v9.5h-6.4v-9.5l0,0l0,0C136.4,323.1,137.8,321.6,139.5,321.6L139.5,321.6z
			"/>
		<path d="M119,296.6c2.7,0,4.8,2.4,4.8,5.2l0,0l0,0l0,0v14.5h-9.7v-14.5l0,0l0,0C114.1,299,116.3,296.6,119,296.6L119,296.6z"/>
		<path d="M152.3,321.6c1.8,0,3.2,1.6,3.2,3.5l0,0l0,0l0,0v9.5h-6.4v-9.5l0,0l0,0C149.1,323.1,150.5,321.6,152.3,321.6L152.3,321.6z
			"/>
		<rect x="138.4" y="349.6" class="st6" width="15.6" height="14.9"/>
		<ellipse class="st6" cx="146.2" cy="349.5" rx="7.8" ry="8.2"/>
		<rect x="138.4" y="376.6" class="st6" width="15.6" height="14.9"/>
		<ellipse class="st6" cx="146.2" cy="376.6" rx="7.8" ry="8.2"/>
		<ellipse class="st13" cx="153.9" cy="303.5" rx="2.6" ry="2.7"/>
		<ellipse cx="153.9" cy="303.5" rx="1.4" ry="1.5"/>
		<ellipse class="st13" cx="146.2" cy="303.5" rx="2.6" ry="2.7"/>
		<ellipse cx="146.2" cy="303.5" rx="1.4" ry="1.5"/>
		<ellipse class="st13" cx="138.5" cy="303.5" rx="2.6" ry="2.7"/>
		<ellipse cx="138.5" cy="303.5" rx="1.4" ry="1.5"/>
		<path d="M146.2,275.9c3,0,5.2,2.5,5.2,5.6l0,0l0,0V297H141v-15.5l0,0l0,0C140.9,278.5,143.2,276,146.2,275.9L146.2,275.9z"/>
		<path d="M127.1,345.8c0,2.1-1.7,3.8-3.8,3.8l0,0h-10.5v-7.8h10.5C125.5,341.9,127.1,343.7,127.1,345.8z"/>
		<path d="M127.1,357c0,2.1-1.7,3.8-3.8,3.8l0,0h-10.5v-7.8h10.5C125.5,353.1,127.1,354.8,127.1,357z"/>
		<rect x="107.9" y="391.4" class="st5" width="51.7" height="60.9"/>
		<path d="M118.1,400.7c2.4,0,4.4,2.1,4.3,4.6l0,0l0,0l0,0v12.9h-8.6v-12.7l0,0l0,0C113.8,403,115.8,400.9,118.1,400.7L118.1,400.7z
			"/>
		<path d="M149.2,400.7c2.4,0,4.4,2.1,4.3,4.6l0,0l0,0l0,0v12.9h-8.6v-12.7l0,0l0,0C145,403,146.9,400.9,149.2,400.7L149.2,400.7z"
			/>
		<path d="M133.8,400.7c2.4,0,4.4,2.1,4.3,4.6l0,0l0,0l0,0v12.9h-8.6v-12.7l0,0l0,0C129.4,403,131.4,400.9,133.8,400.7
			C133.8,400.9,133.8,400.9,133.8,400.7L133.8,400.7z"/>
		<ellipse class="st13" cx="148.8" cy="432.9" rx="5" ry="5.2"/>
		<ellipse cx="148.8" cy="432.9" rx="2.7" ry="2.8"/>
		<ellipse class="st13" cx="133.8" cy="432.9" rx="5" ry="5.2"/>
		<ellipse cx="133.8" cy="432.9" rx="2.7" ry="2.8"/>
		<ellipse class="st13" cx="118.6" cy="432.9" rx="5" ry="5.2"/>
		<ellipse cx="118.6" cy="432.9" rx="2.7" ry="2.8"/>
		<polygon class="st10" points="132.8,368.6 132.8,364.5 128.7,364.5 128.7,368.6 124.5,368.6 124.5,372.8 120.5,372.8 120.5,377 
			116.4,377 116.4,381.1 112.2,381.1 112.2,385.3 107.9,385.3 107.9,389.5 112.2,389.5 112.2,391.4 132.8,391.4 		"/>
		<path d="M173.5,224.7c2.2,0,4,2,4,4.3l0,0l0,0v12h-8v-12l0,0l0,0C169.5,226.6,171.2,224.7,173.5,224.7L173.5,224.7z"/>
		<path d="M195.1,369.5c1.8,0,3.2,1.6,3.2,3.5l0,0l0,0l0,0v9.5h-6.4V373l0,0l0,0C191.9,371.1,193.4,369.5,195.1,369.5L195.1,369.5z"
			/>
		<path d="M195.1,389.8c1.8,0,3.2,1.6,3.2,3.5l0,0l0,0l0,0v9.5h-6.4v-9.5l0,0l0,0C191.9,391.3,193.4,389.8,195.1,389.8L195.1,389.8z
			"/>
		<path d="M195.1,410c1.8,0,3.2,1.6,3.2,3.5l0,0l0,0l0,0v9.5h-6.4v-9.5l0,0l0,0C191.9,411.6,193.4,410,195.1,410L195.1,410z"/>
		<path d="M125.6,179.6c3.1,0,5.6,2.7,5.6,5.8l0,0l0,0l0,0V202h-11v-16.5l0,0l0,0C120,182.3,122.5,179.7,125.6,179.6
			C125.6,179.7,125.6,179.7,125.6,179.6L125.6,179.6z"/>
		<path d="M139.4,179.6c3.1,0,5.6,2.7,5.6,5.8l0,0l0,0l0,0V202h-11v-16.5l0,0l0,0C133.9,182.3,136.4,179.7,139.4,179.6
			C139.4,179.7,139.4,179.7,139.4,179.6L139.4,179.6z"/>
		<path d="M153.1,179.6c3.1,0,5.6,2.7,5.4,5.8l0,0l0,0l0,0V202h-11v-16.5l0,0l0,0C147.7,182.3,150.1,179.7,153.1,179.6
			C153.1,179.7,153.1,179.7,153.1,179.6L153.1,179.6z"/>
		<path d="M167,179.6c3.1,0,5.6,2.7,5.4,5.8l0,0l0,0l0,0V202h-11v-16.5l0,0l0,0C161.4,182.3,163.9,179.7,167,179.6L167,179.6z"/>
		<path d="M180.8,179.6c3.1,0,5.6,2.7,5.4,5.8l0,0l0,0l0,0V202h-11v-16.5l0,0l0,0C175.3,182.3,177.7,179.7,180.8,179.6
			C180.8,179.7,180.8,179.7,180.8,179.6L180.8,179.6z"/>
		<path class="st5" d="M169.5,277.3c-3.1-1-7.2-1.9-6.6-6.4c0.6-4.6,3.7-4.6,8.6-3.7c5,0.9,6.5,2.6,5.7,6.1
			c-0.9,3.3-4.4,5.2-7.6,4.2C169.6,277.3,169.6,277.3,169.5,277.3z"/>
		<path class="st7" d="M174.7,283.3c-3.2,0.6-7.3-3.1-4.1-5.9c3.2-2.8,5.3-3.5,6.7,0.2C178.7,281.3,177.9,282.5,174.7,283.3z"/>
		<path class="st5" d="M168.4,326.2c-3.2-0.4-4.6-1.5-3-4.6c1.7-3.1,5.8-1.9,6.4,1.2C172.4,326,170.6,326.2,168.4,326.2z"/>
		<path class="st3" d="M196.4,310.6c0,0-7.2,2.4-10.9-1.1c-3.7-3.5-1.9-12.1,9.6-9.5C206.6,302.6,196.4,310.6,196.4,310.6z"/>
		<path class="st3" d="M182.1,367.1c-2.2,0.1-5.6-1-5.6-4.7s1.4-3.7,5.4-3.7c4,0,3.9,4.1,3.5,5.8
			C185.1,366.1,183.7,367.2,182.1,367.1z"/>
		<path class="st3" d="M173.5,384.9c2-0.7,4.3,0,5.7,1.7c2.2,2.8,2.6,5.4,0.4,6.3c-3,1.1-7.1,1.9-8.4-0.6
			C169.6,390.1,168.4,385.6,173.5,384.9z"/>
		<path class="st7" d="M167.6,381.9c0,0,5.2-1.4,7.1,1.7c1.9,3.1,0.1,2.2-4.5,3.1C165.6,387.6,162.5,383.2,167.6,381.9z"/>
		<rect x="188.4" y="317.4" class="st4" width="53.9" height="42.4"/>
		<path d="M232.4,370.4c1.8,0,3.2,1.6,3.2,3.5l0,0l0,0l0,0v9.5h-6.4v-9.5l0,0l0,0C229.2,371.9,230.6,370.4,232.4,370.4L232.4,370.4z
			"/>
		<path d="M232.4,390.6c1.8,0,3.2,1.6,3.2,3.5l0,0l0,0l0,0v9.5h-6.4V394l0,0l0,0C229.2,392.2,230.6,390.6,232.4,390.6L232.4,390.6z"
			/>
		<path d="M232.4,410.9c1.8,0,3.2,1.6,3.2,3.5l0,0l0,0l0,0v9.5h-6.4v-9.5l0,0l0,0C229.2,412.4,230.6,410.9,232.4,410.9L232.4,410.9z
			"/>
		<rect x="188.4" y="292.6" class="st5" width="54" height="24.8"/>
		<path d="M215.3,329.8c9.3,0.1,17,7.9,17.4,17.7H198C198.2,337.4,206.1,330.3,215.3,329.8z"/>
		<path d="M234.3,298.5c1.8,0,3.2,1.6,3.2,3.5l0,0l0,0l0,0v9.5h-6.4V302l0,0l0,0C231.1,300.1,232.5,298.5,234.3,298.5L234.3,298.5z"
			/>
		<path d="M203.6,295.5c3.5,0,6.5,3.1,6.4,6.8l0,0l0,0v15h-12.8v-15l0,0l0,0C197.1,298.6,200.1,295.7,203.6,295.5L203.6,295.5
			L203.6,295.5z"/>
		<path d="M220.7,295.5c3.5,0,6.5,3.1,6.4,6.8l0,0l0,0v15h-12.8v-15l0,0l0,0C214.3,298.6,217.1,295.7,220.7,295.5L220.7,295.5
			L220.7,295.5z"/>
		<rect x="188.4" y="317.4" class="st13" width="54" height="3.6"/>
		<path class="st17" d="M207.7,347.5c0,0-4.4,195.7-5.8,211.1c-1.4,15.5,19.5,3.3,19.5,3.3l1.2-214.3c-2.4-1-4.8-1.4-7.3-1.2
			C212.6,346,210.1,346.5,207.7,347.5z"/>
		<rect x="242.3" y="242.8" class="st4" width="20" height="74.6"/>
		<path d="M252.4,248c3.4,0,6.3,3,6.3,6.7l0,0l0,0l-0.2,62.6H246l0.1-62.6l0,0l0,0C246.1,251.1,248.9,248.1,252.4,248L252.4,248z"/>
		<g>
			<g>
				<g>
					<defs>
						<path id="SVGID_35_" d="M252.4,248c3.4,0,6.3,3,6.3,6.7l0,0l0,0l-0.2,62.6H246l0.1-62.6l0,0l0,0
							C246.1,251.1,248.9,248.1,252.4,248L252.4,248z"/>
					</defs>
					<clipPath id="SVGID_36_">
						<use xlink:href="#SVGID_35_"  style="overflow:visible;"/>
					</clipPath>
					<g class="st29">
						<polygon class="st7" points="233.1,286.7 235.7,286.7 235.7,284.1 238.2,284.1 238.2,281.5 240.8,281.5 240.8,279 243.4,279 
							243.4,276.4 245.9,276.4 245.9,276.4 245.9,273.8 248.5,273.8 248.5,271.2 250.9,271.2 250.9,268.6 253.5,268.6 253.5,268.6 
							253.5,266 256.1,266 256.1,263.4 258.6,263.4 258.6,260.8 261.2,260.8 261.2,258.2 263.7,258.2 263.7,255.6 265.2,255.6 
							265.2,258.2 265.2,301.2 233.1,301.2 233.1,293.2 						"/>
					</g>
				</g>
			</g>
		</g>
		<g>
			<g>
				<g>
					<defs>
						<path id="SVGID_37_" d="M252.4,248c3.4,0,6.3,3,6.3,6.7l0,0l0,0l-0.2,62.6H246l0.1-62.6l0,0l0,0
							C246.1,251.1,248.9,248.1,252.4,248L252.4,248z"/>
					</defs>
					<clipPath id="SVGID_38_">
						<use xlink:href="#SVGID_37_"  style="overflow:visible;"/>
					</clipPath>
					<g class="st30">
						<polygon class="st5" points="271.6,310.3 269,310.3 269,307.7 266.5,307.7 266.5,305.1 263.9,305.1 263.9,302.5 261.3,302.5 
							261.3,299.9 258.9,299.9 258.9,297.3 256.3,297.3 256.3,294.7 253.8,294.7 253.8,292.1 251.2,292.1 251.2,289.5 248.6,289.5 
							248.6,286.9 246.1,286.9 246.1,284.3 243.5,284.3 243.5,281.7 241,281.7 241,279.2 239.5,279.2 239.5,281.7 239.5,324.7 
							271.6,324.7 271.6,316.7 						"/>
					</g>
				</g>
			</g>
		</g>
		<polygon class="st16" points="262.3,313.4 266.4,313.4 266.4,309.1 270.6,309.1 270.6,305.1 274.7,305.1 274.7,300.9 278.8,300.9 
			278.8,296.6 282.9,296.6 282.9,296.6 282.9,292.6 287,292.6 287,288.4 291.1,288.4 291.1,284.1 295.2,284.1 295.2,284.1 
			295.2,280.1 299.3,280.1 299.3,275.9 303.4,275.9 303.4,271.6 307.5,271.6 307.5,267.6 311.6,267.6 311.6,263.4 314,263.4 
			314,267.6 313.8,317.4 262.3,317.4 		"/>
		<path d="M307.5,305.4c0,2.5-2,4.6-4.4,4.5l0,0h-12.3V301h12.3C305.4,301,307.5,303,307.5,305.4L307.5,305.4z"/>
		<rect x="314" y="293.8" class="st5" width="26" height="23.6"/>
		<rect x="314" y="290.5" width="49.9" height="3.3"/>
		<path d="M327.3,295.9c3,0,5.3,2.6,5.3,5.7l0,0l0,0v15.8H322v-15.7l0,0l0,0C322,298.5,324.4,296,327.3,295.9L327.3,295.9z"/>
		<path d="M332.9,267.6c2.5,0,4.5,2.2,4.5,4.8l0,0l0,0l0,0v18.1h-9v-18.1l0,0l0,0C328.3,269.8,330.3,267.6,332.9,267.6
			C332.8,267.6,332.8,267.6,332.9,267.6L332.9,267.6z"/>
		<path d="M327,221.8c1.8,0,3.2,1.6,3.2,3.5l0,0l0,0l0,0v9.5h-6.4v-9.5l0,0l0,0C323.8,223.4,325.2,221.8,327,221.8L327,221.8z"/>
		<path d="M327,239.1c3.8,0,6.7,3.2,6.7,7.2l0,0l0,0l0,0v17.1h-13.5v-17.1l0,0l0,0C320.2,242.3,323.2,239.1,327,239.1z"/>
		<g>
			<g>
				<g>
					<defs>
						<path id="SVGID_39_" d="M327,239.1c3.8,0,6.7,3.2,6.7,7.2l0,0l0,0l0,0v17.1h-13.5v-17.1l0,0l0,0
							C320.2,242.3,323.2,239.1,327,239.1z"/>
					</defs>
					<clipPath id="SVGID_40_">
						<use xlink:href="#SVGID_39_"  style="overflow:visible;"/>
					</clipPath>
					<g class="st31">
						<path class="st3" d="M331.7,248.8h2 M333.7,267.4h-14v-8.3h2V257h2v-2.1h2v-2h2v-2.1h2v-2.1h2v-2.1h2L333.7,267.4L333.7,267.4
							z"/>
					</g>
				</g>
			</g>
		</g>
		<path d="M321.6,270.3c1.8,0,3.2,1.6,3.2,3.5l0,0l0,0l0,0v9.5h-6.4v-9.5l0,0l0,0C318.5,271.9,319.9,270.3,321.6,270.3L321.6,270.3z
			"/>
		<path class="st32" d="M385.6,445.5c0,0,0.6-3.7,6.5-3.6c5.9,0.1,6.5,6.1,1.3,6.8C388.2,449.5,385.5,448.4,385.6,445.5z"/>
		<path class="st17" d="M264.5,445.8c-1.1,0.4-1.7,1.5-1.3,2.6c0.1,0.2,0.2,0.5,0.4,0.6c1.4,2.4,12.5,0.5,13,3.3
			c0.5,2.8-6.3,2.5-6,5.3c0.4,3.7,7.6,1.2,10.6,5.4c4.1,5.8,1.8,37.7,1.7,45.8c-0.1,8,0.8,41.8,0.4,49.4c-0.5,7.5,67.8-1.1,67.8-1.1
			s-0.7-57.4-0.6-67.8c0.1-10.4-0.9-21.4,0.7-23.5c1.7-2.1,4.7-1.5,4.7-3.6s-6.1-2-5.6-4.8c0.8-4,11.4-0.9,9.6-3.7
			c-2.8-4.5-7.8-7.3-41.4-8C280.1,444.5,266.2,445.4,264.5,445.8z"/>
		<path class="st17" d="M328.3,284.9c0,0,35.5-1.1,46,4.8c14.7,8.3,22.8,27.5,25.5,37.3c2.7,9.8,12.2,88.5,12.2,125.4
			s-0.1,36.9-0.1,36.9l-32.8-4.2c0,0,0.8-55.2,0.5-82.9c-0.4-27.7-0.9-68.8-5.7-89.4c-4.3-18.4-7.4-21.3-10.2-22.3h-35.5
			L328.3,284.9L328.3,284.9z"/>
		<rect x="115.7" y="464.8" class="st6" width="15.6" height="79.1"/>
		<ellipse class="st6" cx="123.5" cy="464.7" rx="7.8" ry="8.2"/>
		<rect x="136.2" y="464.8" class="st6" width="15.6" height="79.1"/>
		<ellipse class="st6" cx="143.9" cy="464.7" rx="7.8" ry="8.2"/>
		<path class="st5" d="M75.1,532.9c-1.2-4.1-1.3-11.4,12.7-17.9s18.4,1.1,20.9,6.6c2.5,5.4-4.8,13.1-15.1,15.2
			C83.3,538.8,76.3,537.1,75.1,532.9z"/>
		<path class="st7" d="M96.9,527.7c1.9-11.1,8.6-20.7,18.3-25.6c16.4-8.4,46.9-10.6,57.2,9.4c10.3,20,3.4,35.4-18.3,37.1
			S94.5,548.2,96.9,527.7z"/>
		<path class="st0" d="M65.1,101.2c7.3-0.2,19,2,19.5-2.1c0.4-2.4-4.8-4.5-2.6-7.3c2.7-3.5,18-2.7,21-0.1c3.8,3.2-7.4,5.1-6.4,9.4
			c0.2,1,0.7,2,1.5,2.6c3.8,2.8,25.7,1.7,25.8,8.2s-17.3,2.8-20.8,6.1c-5.1,4.8,8.8,5.2,9,10.3c0.2,6.9-42.1,5.6-49.8,3.6
			c-5.3-1.4-4.8-7.7,0.5-9.2c4.1-1.1,14.2-1.2,13.2-6.7c-0.9-5.6-25.2-1-25.2-8.3C50.9,101.6,57.7,101.6,65.1,101.2z"/>
		<rect x="93.8" y="316.1" width="65.9" height="2.5"/>
		<path class="st17" d="M123.8,313.8c0,0-28.1-0.7-34.2,0.6c-4.5,1-9.1,9.8-12.1,21.4c-3,11.6-16.4,118.3-15.1,145.8
			c0.7,15.7,15.5,3.3,15.5,3.3s4.1-74.3,4.1-94.1c0-19.8,3.7-73.9,12.4-74.3c8.8-0.4,29.4-0.2,29.4-0.2v-2.6L123.8,313.8
			L123.8,313.8z"/>
		<rect x="159.5" y="215.5" class="st13" width="26.7" height="5.1"/>
		<rect x="314" y="212.2" width="25.9" height="5.1"/>
		<rect x="107.9" y="386.4" class="st7" width="51.7" height="5.1"/>
		<rect x="107.9" y="447.3" class="st6" width="51.7" height="5.1"/>
		<rect x="295.8" y="104.7" class="st33" width="12.5" height="16.6"/>
		<rect x="295.8" y="104.7" class="st16" width="12.5" height="16.6"/>
		<rect x="297.1" y="106.1" class="st34" width="10.1" height="14.1"/>
		<rect x="298.2" y="107.3" class="st34" width="7.7" height="11.5"/>
		<rect x="299.5" y="108.7" class="st34" width="5.2" height="8.9"/>
		<rect x="300.7" y="109.9" class="st34" width="2.7" height="6.3"/>
		<rect x="302" y="111.1" class="st34" width="0.2" height="3.7"/>
		<ellipse class="st35" cx="252.4" cy="220.4" rx="9.9" ry="10.4"/>
		<g>
			<g>
				<g>
					<defs>
						<ellipse id="SVGID_41_" cx="252.4" cy="220.4" rx="9.9" ry="10.4"/>
					</defs>
					<clipPath id="SVGID_42_">
						<use xlink:href="#SVGID_41_"  style="overflow:visible;"/>
					</clipPath>
					<g class="st36">
						<rect x="252.4" y="210" class="st5" width="12.8" height="9.5"/>
					</g>
				</g>
			</g>
		</g>
		<rect x="242.4" y="219.5" width="19.9" height="1.7"/>
		<rect x="242.3" y="221.2" class="st10" width="20" height="21.7"/>
		<rect x="244.8" y="223.6" class="st37" width="15" height="16.6"/>
		<rect x="247.3" y="226.2" class="st37" width="10.1" height="11.4"/>
		<rect x="249.8" y="228.8" class="st37" width="5.2" height="6.2"/>
		<rect x="252.2" y="231.4" class="st37" width="0.2" height="1.1"/>
		<rect x="314" y="183.5" class="st33" width="25.9" height="28.7"/>
		<ellipse class="st3" cx="327" cy="182.5" rx="12.9" ry="13.6"/>
		<rect x="314" y="181.4" width="25.9" height="2.2"/>
		<g>
			<g>
				<g>
					<defs>
						<ellipse id="SVGID_43_" cx="327" cy="182.5" rx="12.9" ry="13.6"/>
					</defs>
					<clipPath id="SVGID_44_">
						<use xlink:href="#SVGID_43_"  style="overflow:visible;"/>
					</clipPath>
					<g class="st38">
						<rect x="327" y="167.7" class="st5" width="15.5" height="13.7"/>
					</g>
				</g>
			</g>
		</g>
		<rect x="314" y="183.5" class="st10" width="25.9" height="28.7"/>
		<rect x="316.4" y="186" class="st37" width="20.9" height="23.6"/>
		<rect x="318.9" y="188.6" class="st37" width="16" height="18.4"/>
		<rect x="321.4" y="191.2" class="st37" width="11.1" height="13.2"/>
		<rect x="323.9" y="193.8" class="st37" width="6.1" height="8.2"/>
		<rect x="326.4" y="196.4" class="st37" width="1.2" height="3"/>
		<rect x="159.5" y="202" class="st10" width="26.7" height="13.6"/>
		<rect x="161.4" y="203.8" class="st37" width="23.1" height="9.8"/>
		<rect x="163.2" y="205.8" class="st37" width="19.4" height="5.8"/>
		<rect x="165.1" y="207.7" class="st37" width="15.6" height="2"/>
		<rect x="275.9" y="47.3" width="20" height="1.7"/>
		<g>
			<g>
				<g>
					<defs>
						<ellipse id="SVGID_45_" cx="285.8" cy="48.1" rx="9.9" ry="10.4"/>
					</defs>
					<clipPath id="SVGID_46_">
						<use xlink:href="#SVGID_45_"  style="overflow:visible;"/>
					</clipPath>
					<g class="st39">
						<rect x="285.8" y="36.8" class="st5" width="11.9" height="10.5"/>
					</g>
				</g>
			</g>
		</g>
		<rect x="188.4" y="289.1" class="st16" width="54" height="3.6"/>
	</g>
</g>
</svg>
