<?xml version="1.0" encoding="utf-8"?>
<!-- Generator: Adobe Illustrator 21.0.0, SVG Export Plug-In . SVG Version: 6.00 Build 0)  -->
<svg version="1.1" id="Layer_1" xmlns="http://www.w3.org/2000/svg" xmlns:xlink="http://www.w3.org/1999/xlink" x="0px" y="0px"
	 viewBox="0 0 396.6 498.8" style="enable-background:new 0 0 396.6 498.8;" xml:space="preserve">
<style type="text/css">
	.st0{fill:#F1F2F6;}
	.st1{fill:#515151;}
	.st2{fill:#858585;}
	.st3{fill:#73C4E2;}
	.st4{fill:#FBC24D;}
	.st5{fill:#3B72AA;}
	.st6{fill:#1D1D1D;}
	.st7{fill:#203760;}
	.st8{clip-path:url(#SVGID_2_);}
	.st9{clip-path:url(#SVGID_4_);}
	.st10{fill:#ED7129;}
	.st11{clip-path:url(#SVGID_6_);}
	.st12{clip-path:url(#SVGID_8_);}
	.st13{fill:#FFFFFF;}
	.st14{clip-path:url(#SVGID_10_);}
	.st15{clip-path:url(#SVGID_12_);}
	.st16{fill:#77BB68;}
	.st17{fill:#C5F0FF;}
	.st18{clip-path:url(#SVGID_14_);}
	.st19{clip-path:url(#SVGID_16_);}
	.st20{clip-path:url(#SVGID_18_);}
	.st21{clip-path:url(#SVGID_20_);}
	.st22{clip-path:url(#SVGID_22_);}
	.st23{clip-path:url(#SVGID_24_);}
	.st24{clip-path:url(#SVGID_26_);}
	.st25{clip-path:url(#SVGID_28_);}
	.st26{clip-path:url(#SVGID_30_);}
	.st27{clip-path:url(#SVGID_32_);}
	.st28{clip-path:url(#SVGID_34_);}
	.st29{clip-path:url(#SVGID_36_);}
	.st30{clip-path:url(#SVGID_38_);}
	.st31{clip-path:url(#SVGID_40_);}
	.st32{fill:none;stroke:#000000;stroke-width:0.75;}
	.st33{fill:#232323;}
	.st34{fill:none;stroke:#FFFFFF;stroke-width:0.28;stroke-miterlimit:10;}
	.st35{fill:#9CD8FA;}
	.st36{clip-path:url(#SVGID_42_);}
	.st37{fill:none;stroke:#FFFFFF;stroke-width:0.57;stroke-miterlimit:10;}
	.st38{clip-path:url(#SVGID_44_);}
	.st39{clip-path:url(#SVGID_46_);}
</style>
<title>island-1</title>
<g id="Layer_2">
	<g id="Layer_1-2">
		<path class="st0" d="M163.1,27.8c-2.6-0.1-13.1-1.1-12.6,3.9c0.3,3.1,5.2,2.1,5,4.9c-0.2,3-19.6-1.5-21.8,2.7
			c-2.8,5.4,14.4,1.5,15.4,4.4c0.9,2.7-4.5,1.2-4.4,3.8c0.1,3.6,20.1,2.2,22.1,1.4c0.9-0.4-0.2-1.3-0.2-2c0.1-5.1,0-11.2-1.9-16.1
			c-0.4-0.8-0.8-1.6-1-2.5L163.1,27.8z"/>
		<rect x="250.1" y="100.8" class="st1" width="10.6" height="59.9"/>
		<rect x="251.1" y="102.2" class="st2" width="8.6" height="1.6"/>
		<rect x="251.2" y="105.2" class="st2" width="8.6" height="1.6"/>
		<rect x="251.2" y="108.1" class="st2" width="8.6" height="1.6"/>
		<rect x="251.1" y="111.1" class="st2" width="8.6" height="1.6"/>
		<rect x="251.2" y="114.1" class="st2" width="8.6" height="1.6"/>
		<rect x="251.2" y="117" class="st2" width="8.6" height="1.6"/>
		<rect x="251.1" y="120" class="st2" width="8.6" height="1.6"/>
		<rect x="251.2" y="123" class="st2" width="8.6" height="1.6"/>
		<rect x="251.2" y="125.9" class="st2" width="8.6" height="1.6"/>
		<rect x="251.2" y="128.9" class="st2" width="8.6" height="1.6"/>
		<rect x="251.2" y="131.9" class="st2" width="8.6" height="1.6"/>
		<rect x="251.1" y="134.5" class="st2" width="8.6" height="1.6"/>
		<rect x="251.2" y="137.5" class="st2" width="8.6" height="1.6"/>
		<rect x="251.2" y="140.5" class="st2" width="8.6" height="1.6"/>
		<rect x="251.1" y="143.4" class="st2" width="8.6" height="1.6"/>
		<rect x="251.2" y="146.4" class="st2" width="8.6" height="1.6"/>
		<rect x="251.2" y="149.4" class="st2" width="8.6" height="1.6"/>
		<rect x="251.1" y="152.4" class="st2" width="8.6" height="1.6"/>
		<rect x="251.2" y="155.3" class="st2" width="8.6" height="1.6"/>
		<rect x="251.2" y="158.3" class="st2" width="8.6" height="1.6"/>
		<path class="st3" d="M229.9,90.7h3.4 M233.3,120.7h-23.6v-13.4h3.4v-3.4h3.4v-3.4h3.4v-3.3h3.4v-3.4h3.4v-3.3h3.4v-3.3h3.4
			L233.3,120.7L233.3,120.7z"/>
		<rect x="233.3" y="90.3" class="st4" width="16.9" height="47.7"/>
		<path d="M241.7,93.6c2.9,0,5.3,2.4,5.3,5.4l0,0l0,0v15h-10.5V99l0,0l0,0C236.4,96,238.8,93.6,241.7,93.6L241.7,93.6z"/>
		<rect x="193.9" y="111" class="st5" width="53" height="76.1"/>
		<rect x="196.8" y="120.7" class="st6" width="13.2" height="63.9"/>
		<ellipse class="st6" cx="203.4" cy="120.7" rx="6.6" ry="6.6"/>
		<rect x="212.5" y="120.7" class="st6" width="13.2" height="63.9"/>
		<ellipse class="st6" cx="219.1" cy="120.7" rx="6.6" ry="6.6"/>
		<rect x="228.2" y="120.7" class="st6" width="13.2" height="63.9"/>
		<ellipse class="st6" cx="234.8" cy="120.7" rx="6.6" ry="6.6"/>
		<path class="st7" d="M203.5,185.9c0,0,6-17.8,8.8-26.6s7.5-20.5,10.1-20.9s12.9-0.2,21.8-0.3c12.3-0.1,12.2-0.9,15.5,13.3
			s3.6,16.9,4.1,21.2s1.8,28.5,1,41s1.4,15.6-1.9,16.8s-47.3-2-48.7-5.5S203.5,187,203.5,185.9z"/>
		<g>
			<g>
				<defs>
					<path id="SVGID_1_" d="M203.5,185.9c0,0,6-17.8,8.8-26.6s7.5-20.5,10.1-20.9s12.9-0.2,21.8-0.3c12.3-0.1,12.2-0.9,15.5,13.3
						s3.6,16.9,4.1,21.2s1.8,28.5,1,41s3.5,39.6,0.3,40.8s-50.3,7.2-51.7,3.8S203.5,187,203.5,185.9z"/>
				</defs>
				<clipPath id="SVGID_2_">
					<use xlink:href="#SVGID_1_"  style="overflow:visible;"/>
				</clipPath>
				<g class="st8">
					<polygon class="st5" points="233.3,221.4 205.1,210.8 208.4,191.4 211.8,191.4 211.8,188.1 215.1,188.1 215.1,184.7 
						218.5,184.7 218.5,181.3 221.9,181.3 221.9,178 225.2,178 225.2,174.6 228.6,174.6 228.6,171.2 232,171.2 232,167.9 
						235.4,167.9 235.4,164.5 235.4,164.5 235.4,164.5 238.8,164.5 238.8,161.1 242.2,161.1 242.2,157.7 245.5,157.7 245.5,154.5 
						248.9,154.5 248.9,151.1 252.3,151.1 252.3,147.8 255.6,147.8 255.6,144.4 264.5,144.5 264.5,178.2 266.2,227.1 					"/>
				</g>
			</g>
		</g>
		<g>
			<g>
				<defs>
					<path id="SVGID_3_" d="M203.5,185.9c0,0,6-17.8,8.8-26.6s7.5-20.5,10.1-20.9s12.9-0.2,21.8-0.3c12.3-0.1,12.2-0.9,15.5,13.3
						s3.6,16.9,4.1,21.2s1.8,28.5,1,41s3.5,39.6,0.3,40.8s-50.3,7.2-51.7,3.8S203.5,187,203.5,185.9z"/>
				</defs>
				<clipPath id="SVGID_4_">
					<use xlink:href="#SVGID_3_"  style="overflow:visible;"/>
				</clipPath>
				<g class="st9">
					<polygon class="st7" points="235.5,258.1 265.9,247.7 265.9,228.4 262.5,228.4 262.5,225 259.1,225 259.1,221.6 255.8,221.6 
						255.8,218.2 252.4,218.2 252.4,214.9 249,214.9 249,211.5 245.6,211.5 245.6,208.1 242.3,208.1 242.3,204.8 238.9,204.8 
						238.9,201.4 235.5,201.4 235.5,201.4 232.2,201.4 232.2,198 228.8,198 228.8,194.7 225.4,194.7 225.4,191.4 221.5,191.4 
						221.5,188 218.7,188 218.7,184.7 215.3,184.7 215.3,181.4 204.9,181.4 204.9,215.4 204.9,259.2 					"/>
				</g>
			</g>
		</g>
		<circle class="st3" cx="241.7" cy="41.6" r="8.4"/>
		<rect x="233.3" y="42.3" class="st10" width="16.9" height="45"/>
		<path class="st3" d="M142.2,240.7c0,0-3-13.6,2.5-31.1s9.9-31.1,12-32.9c1.9-1.6,18.2-0.8,30.4-0.8c12,0,15.6-0.5,16.4,0.7
			s1.5,4.1,4.7,12.7s8.8,28.8,10.9,37.9s-3.5,15.2-11.1,17.6s-24-2.1-24-2.1s-21.8-0.2-27.5-0.2
			C151.7,242.2,146.9,241.6,142.2,240.7z"/>
		<g>
			<g>
				<defs>
					<path id="SVGID_5_" d="M142.2,240.7c0,0-3-13.6,2.5-31.1s9.9-31.1,12-32.9c1.9-1.6,18.2-0.8,30.4-0.8c12,0,15.6-0.5,16.4,0.7
						s1.5,4.1,4.7,12.7s8.8,28.8,10.9,37.9s-3.5,15.2-11.1,17.6s-24-2.1-24-2.1s-21.8-0.2-27.5-0.2
						C151.7,242.2,146.9,241.6,142.2,240.7z"/>
				</defs>
				<clipPath id="SVGID_6_">
					<use xlink:href="#SVGID_5_"  style="overflow:visible;"/>
				</clipPath>
				<g class="st11">
					<path class="st7" d="M157.7,174.1c0,0,7.9,15,13.8,23.7s23.4,35.9,30.7,50s-65.4-0.8-65.4-0.8l-5-35l16.6-34.4L157.7,174.1z"/>
				</g>
			</g>
		</g>
		<rect x="160.3" y="143.2" class="st5" width="33.7" height="32.7"/>
		<rect x="160.3" y="139" width="33.7" height="4.1"/>
		<rect x="160.3" y="103.4" class="st3" width="33.7" height="35.6"/>
		<rect x="156.8" y="99.3" width="40.7" height="4.3"/>
		<rect x="160.3" y="58.4" class="st4" width="33.7" height="40.9"/>
		<rect x="156.8" y="54.2" width="40.7" height="4.1"/>
		<circle class="st3" cx="177.1" cy="17.3" r="14.6"/>
		<rect x="162.5" y="16.1" width="29.2" height="2.4"/>
		<g>
			<g>
				<defs>
					<circle id="SVGID_7_" cx="177.1" cy="17.3" r="14.6"/>
				</defs>
				<clipPath id="SVGID_8_">
					<use xlink:href="#SVGID_7_"  style="overflow:visible;"/>
				</clipPath>
				<g class="st12">
					<rect x="177.1" class="st5" width="18.5" height="16.1"/>
				</g>
			</g>
		</g>
		<rect x="162.5" y="18" class="st5" width="29.2" height="36.3"/>
		<circle class="st13" cx="171" cy="46.1" r="3.5"/>
		<circle cx="171" cy="46.1" r="1.9"/>
		<circle class="st13" cx="171" cy="35.6" r="3.5"/>
		<circle cx="171" cy="35.6" r="1.9"/>
		<circle class="st13" cx="171" cy="25.2" r="3.5"/>
		<circle cx="171" cy="25.2" r="1.9"/>
		<ellipse class="st6" cx="177.1" cy="72.6" rx="10.4" ry="10.5"/>
		<rect x="180.1" y="18" class="st10" width="11.7" height="36.3"/>
		<rect x="166.8" y="72.8" class="st6" width="20.7" height="26.5"/>
		<g>
			<g>
				<defs>
					<rect id="SVGID_9_" x="166.8" y="72.8" width="20.7" height="26.5"/>
				</defs>
				<clipPath id="SVGID_10_">
					<use xlink:href="#SVGID_9_"  style="overflow:visible;"/>
				</clipPath>
				<g class="st14">
					<path class="st5" d="M184.8,74.6h3.4 M188.2,104.7h-23.6V91.3h3.4v-3.4h3.4v-3.4h3.4v-3.3h3.4v-3.3h3.4v-3.3h3.4v-3.3h3.4
						L188.2,104.7L188.2,104.7z"/>
				</g>
			</g>
		</g>
		<path class="st0" d="M198.9,62.9c1.4,0,12.6-0.7,12.5,2.7c-0.1,2.9-6,0.6-5.8,4.1c0.2,4.6,23.6-0.7,23.3,6.5s-20,1.7-20.1,5.7
			c0,2.9,5.1,1.2,5.2,4.3s-10.4,3.1-17.4,2.7c-6-0.3-9.1-1.2-9.1-3.9c0-4.5,9-3.5,9.1-8.1c0.1-5.6-13.8-0.5-13.8-6.3
			c0-4.4,9.8-1,11.2-3.4C195.1,65.3,193.3,62.9,198.9,62.9z"/>
		<path d="M177.1,111c2.9,0,5.3,2.4,5.3,5.4l0,0l0,0v15h-10.5v-15l0,0l0,0C171.8,113.5,174.2,111.1,177.1,111z"/>
		<ellipse class="st6" cx="177.1" cy="156.6" rx="10.4" ry="10.5"/>
		<rect x="166.8" y="155.9" class="st6" width="20.7" height="19.9"/>
		<g>
			<g>
				<defs>
					<rect id="SVGID_11_" x="166.8" y="155.9" width="20.7" height="19.9"/>
				</defs>
				<clipPath id="SVGID_12_">
					<use xlink:href="#SVGID_11_"  style="overflow:visible;"/>
				</clipPath>
				<g class="st15">
					<path class="st16" d="M186.2,155.9h3.2 M189.4,185.1h-22.7v-13h3.2v-3.3h3.2v-3.3h3.2v-3.2h3.2V159h3.2v-3.2h3.2v-3.2h3.2
						L189.4,185.1L189.4,185.1z"/>
				</g>
			</g>
		</g>
		<path class="st5" d="M178.2,195.4c-0.3-1.1-1.1-7.4,7.6-6s10.3,6.1,9.2,8.5s-9.4,1.7-12.8,0.8S178.6,196.9,178.2,195.4z"/>
		<path class="st7" d="M190,192.5c-0.5-0.8,1.1-3.1,4.6-2.6s4.9,1.9,3.6,3.5S192.1,196.2,190,192.5z"/>
		<rect x="233.3" y="87.3" width="16.9" height="3"/>
		<path d="M241.7,47.1c2.9,0,5.3,2.4,5.3,5.4l0,0l0,0v35.3h-10.5V52.5l0,0l0,0C236.4,49.6,238.8,47.2,241.7,47.1L241.7,47.1z"/>
		<rect x="181.2" y="19.3" class="st13" width="9.2" height="1.7"/>
		<rect x="181.3" y="22.5" class="st13" width="9.2" height="1.7"/>
		<rect x="181.3" y="25.7" class="st13" width="9.2" height="1.7"/>
		<rect x="181.3" y="28.9" class="st13" width="9.2" height="1.7"/>
		<rect x="181.3" y="32.1" class="st13" width="9.2" height="1.7"/>
		<rect x="181.3" y="35.3" class="st13" width="9.2" height="1.7"/>
		<rect x="181.3" y="38.5" class="st13" width="9.2" height="1.7"/>
		<rect x="181.3" y="41.7" class="st13" width="9.2" height="1.7"/>
		<rect x="181.3" y="44.9" class="st13" width="9.2" height="1.7"/>
		<rect x="181.3" y="48" class="st13" width="9.2" height="1.7"/>
		<rect x="181.3" y="51.2" class="st13" width="9.2" height="1.7"/>
		<path class="st0" d="M251.1,185.3c18.9,0,37.7-1.3,56.5-0.2c2.5,0.1,12.2,0.9,12.2,4.8c0,5-18,2.5-18.7,6.9
			c-0.6,3.5,8.7,3.6,10.6,3.6c13.7,0,30.2-0.3,43.5,1.9c2.2,0.4,8.3,1.9,7.8,5.3c-0.3,1.9-4.7,3.1-6.3,3c-9.6-0.1-20.3-0.4-29.3-0.4
			c-3.4,0-12.2-0.6-15.1,1.1c-1.7,1-1,2.9,0.7,3.4c2.3,0.6,13.4,0,13.2,4.8c-0.1,2.6-6.4,4.2-10.3,4.6c-13.2,1.6-72.4,3.2-72.9-5.4
			c-0.4-6.1,13.9-4.8,13.7-9.2c-0.1-3.5-27.4,0.3-27.4-7.1c0-4.8,12.1-3.1,15.3-3.4c2.3-0.2,10.9,0.4,10.9-3.1s-6.5-3.2-8.8-4.5
			c-4.6-2.6-0.4-6,3.1-6L251.1,185.3z"/>
		<path class="st17" d="M58.7,383.9c0,0-37.8-2.2-37.7,6.2s14.3,5.2,14,11.6s-35.9,1.5-35,21.1c1,20.6,41.1,6.8,41.5,20.3
			c0.3,12.5-37,8-34.3,23.8c3,17.8,76-8.9,79.3,4.4c2,8-14.9,8.4-13.1,18.7c2.1,12,41.3,11.9,63.1-1.1c13.8-8.2,20.6-21.2,35.8-25.6
			s26.1,1.7,40.3,16.3s28.6,17.6,40.4,9.6c10.5-7.1,17.6-27.2,30.9-27.2c13.9,0,17.5,10.9,30.6,20.2s36.5,11.3,42,1.1
			s-6.4-19.3-10.9-26s-3.3-12.4,6.2-15.5s24-2.4,29.6-2.5c4.4-0.1,13.9-0.1,15-5.8c1.4-7.3-7.8-9.2-26.9-11s-27.5-4.8-26.5-11.1
			c1.5-9.7,35.7-7.2,35.3-16.3c-0.4-9.6-43.9-11.1-57.5-11.1L58.7,383.9z"/>
		<polygon class="st3" points="205,259.2 287.4,259.2 287.4,371.6 204.9,378.2 		"/>
		<rect x="223.7" y="270" width="13.2" height="63.9"/>
		<ellipse cx="230.3" cy="270" rx="6.6" ry="6.6"/>
		<rect x="239.4" y="270" width="13.2" height="63.9"/>
		<ellipse cx="245.9" cy="270" rx="6.6" ry="6.6"/>
		<rect x="255" y="270" width="13.2" height="63.9"/>
		<ellipse cx="261.6" cy="270" rx="6.6" ry="6.6"/>
		<rect x="270.7" y="270" width="13.2" height="63.9"/>
		<ellipse cx="277.3" cy="270" rx="6.6" ry="6.6"/>
		<polygon points="208.1,269.9 221.2,269.9 221.2,371.6 208,375.2 		"/>
		<path class="st7" d="M259.2,289.9c0,0-28.7,11.2-30,12s-10.2,35.2-12.3,44.4s-4.4,19.6-4.9,24.3s32.2,1.6,32.2,1.6l11.4-57.2
			L259.2,289.9z"/>
		<g>
			<g>
				<defs>
					<path id="SVGID_13_" d="M259.2,289.9c0,0-28.7,11.2-30,12s-10.2,35.2-12.3,44.4s-4.4,19.6-4.9,24.3s32.2,1.6,32.2,1.6
						l11.4-57.2L259.2,289.9z"/>
				</defs>
				<clipPath id="SVGID_14_">
					<use xlink:href="#SVGID_13_"  style="overflow:visible;"/>
				</clipPath>
				<g class="st18">
					<path class="st5" d="M212.4,344.3c0,0,20.7-5,22.1,1.4s-16.3,11.5-21.7,9.2S212.4,344.3,212.4,344.3z"/>
				</g>
			</g>
		</g>
		<path class="st5" d="M236.5,363.6c0,0,8.4-33,12.3-46.2s14-42,15.3-44.3c0.7-1.2,11.6-0.7,18.6-0.7c2.6,0,14.7,46.6,16.8,56.5
			s6.4,24.1,8,44.1c1.6,20-5.8,13.2-6.8,14.5S235.1,396.9,236.5,363.6z"/>
		<g>
			<g>
				<defs>
					<path id="SVGID_15_" d="M236.5,363.6c0,0,8.4-33,12.3-46.2s14-42,15.3-44.3c0.7-1.2,11.6-0.7,18.6-0.7
						c2.6,0,14.7,46.6,16.8,56.5s6.4,24.1,8,44.1c1.6,20-5.8,13.2-6.8,14.5S235.1,396.9,236.5,363.6z"/>
				</defs>
				<clipPath id="SVGID_16_">
					<use xlink:href="#SVGID_15_"  style="overflow:visible;"/>
				</clipPath>
				<g class="st19">
					<path class="st7" d="M292.8,290.4c0,0-13.7-2.5-13.7,5.1s12.2,3.8,15.6,3.8S292.8,290.4,292.8,290.4z"/>
				</g>
			</g>
		</g>
		<g>
			<g>
				<defs>
					<path id="SVGID_17_" d="M236.5,363.6c0,0,8.4-33,12.3-46.2s14-42,15.3-44.3c0.7-1.2,11.6-0.7,18.6-0.7
						c2.6,0,14.7,46.6,16.8,56.5s6.4,24.1,8,44.1c1.6,20-5.8,13.2-6.8,14.5S235.1,396.9,236.5,363.6z"/>
				</defs>
				<clipPath id="SVGID_18_">
					<use xlink:href="#SVGID_17_"  style="overflow:visible;"/>
				</clipPath>
				<g class="st20">
					<path class="st7" d="M252.7,331.4c0,0,6.2-4.2,7.3,1s-6.9,6.4-8.1,2.4S251.9,332.1,252.7,331.4z"/>
				</g>
			</g>
		</g>
		<g>
			<g>
				<defs>
					<path id="SVGID_19_" d="M236.5,363.6c0,0,8.4-33,12.3-46.2s14-42,15.3-44.3c0.7-1.2,11.6-0.7,18.6-0.7
						c2.6,0,14.7,46.6,16.8,56.5s6.4,24.1,8,44.1c1.6,20-5.8,13.2-6.8,14.5S235.1,396.9,236.5,363.6z"/>
				</defs>
				<clipPath id="SVGID_20_">
					<use xlink:href="#SVGID_19_"  style="overflow:visible;"/>
				</clipPath>
				<g class="st21">
					<path class="st3" d="M299.3,315.9c0,0-12.7-2.6-15.9,6s-1.3,9.5,4.8,9.4s10.4-0.4,14.5-0.8S299.3,315.9,299.3,315.9z"/>
				</g>
			</g>
		</g>
		<g>
			<g>
				<defs>
					<path id="SVGID_21_" d="M236.5,363.6c0,0,8.4-33,12.3-46.2s14-42,15.3-44.3c0.7-1.2,11.6-0.7,18.6-0.7
						c2.6,0,14.7,46.6,16.8,56.5s6.4,24.1,8,44.1c1.6,20-5.8,13.2-6.8,14.5S235.1,396.9,236.5,363.6z"/>
				</defs>
				<clipPath id="SVGID_22_">
					<use xlink:href="#SVGID_21_"  style="overflow:visible;"/>
				</clipPath>
				<g class="st22">
					<path class="st3" d="M244.6,320.1c0,0,14.8-2.2,15.4,6.2s-15.1,6.1-18,4.3S244.6,320.1,244.6,320.1z"/>
				</g>
			</g>
		</g>
		<g>
			<g>
				<defs>
					<path id="SVGID_23_" d="M236.5,363.6c0,0,8.4-33,12.3-46.2s14-42,15.3-44.3c0.7-1.2,11.6-0.7,18.6-0.7
						c2.6,0,14.7,46.6,16.8,56.5s6.4,24.1,8,44.1c1.6,20-5.8,13.2-6.8,14.5S235.1,396.9,236.5,363.6z"/>
				</defs>
				<clipPath id="SVGID_24_">
					<use xlink:href="#SVGID_23_"  style="overflow:visible;"/>
				</clipPath>
				<g class="st23">
					<path class="st7" d="M302.7,335.7c0,0-9.2-1-8.8,3.6s7.9,2.5,10.9,2.2S302.7,335.7,302.7,335.7z"/>
				</g>
			</g>
		</g>
		<g>
			<g>
				<defs>
					<path id="SVGID_25_" d="M236.5,363.6c0,0,8.4-33,12.3-46.2s14-42,15.3-44.3c0.7-1.2,11.6-0.7,18.6-0.7
						c2.6,0,14.7,46.6,16.8,56.5s6.4,24.1,8,44.1c1.6,20-5.8,13.2-6.8,14.5S235.1,396.9,236.5,363.6z"/>
				</defs>
				<clipPath id="SVGID_26_">
					<use xlink:href="#SVGID_25_"  style="overflow:visible;"/>
				</clipPath>
				<g class="st24">
					<path class="st3" d="M304,340.4c0,0-15.1-1.2-14.9,5s11.1,4.4,14.9,3.2S304,340.4,304,340.4z"/>
				</g>
			</g>
		</g>
		<path class="st17" d="M268.3,272.3l-1.7,94.4l9.1,1l-0.9-95.4c0,0-0.7-0.6-3.1-0.6C269.1,271.5,268.3,272.3,268.3,272.3z"/>
		<path class="st5" d="M232.2,320.9c0,0,0.2-1.3,2.5-1.3s2.4,2.2,0.5,2.5S232.1,322,232.2,320.9z"/>
		<ellipse cx="214.6" cy="269.8" rx="6.6" ry="6.6"/>
		<rect x="265.5" y="178.3" class="st4" width="21.9" height="37.2"/>
		<rect x="265.5" y="215.5" class="st5" width="21.9" height="21.9"/>
		<path class="st3" d="M134.9,200.8h22.6c0,0,7,39.8,8.3,59.4s-3.9,77.3-6.9,93.2s-18.8,34-18.8,34s-8.3-16-8.3-18.1
			s-0.9-58.6-1.3-72s-3.7-73.2-2.2-77.8C130,214.9,134.9,200.8,134.9,200.8z"/>
		<g>
			<g>
				<defs>
					<path id="SVGID_27_" d="M135.3,200.9l22.2-0.1c0,0,7,39.8,8.3,59.4s-3.9,77.3-6.9,93.2s-18.8,34-18.8,34s-8.3-16-8.3-18.1
						s-0.9-58.6-1.3-72s-3.7-73.2-2.2-77.8C130,214.9,135.3,200.9,135.3,200.9z"/>
				</defs>
				<clipPath id="SVGID_28_">
					<use xlink:href="#SVGID_27_"  style="overflow:visible;"/>
				</clipPath>
				<g class="st25">
					<path class="st5" d="M157.5,200.8c0,0-22.3,166.9-23,170.3s0,21,0,21l22.6-6.3l15.6-67.9l3.9-50.6l-1.6-38.7L157.5,200.8z"/>
				</g>
			</g>
		</g>
		<ellipse class="st3" cx="182.1" cy="236.6" rx="22.8" ry="22.3"/>
		<g>
			<g>
				<defs>
					<ellipse id="SVGID_29_" cx="182.1" cy="236.6" rx="22.8" ry="22.3"/>
				</defs>
				<clipPath id="SVGID_30_">
					<use xlink:href="#SVGID_29_"  style="overflow:visible;"/>
				</clipPath>
				<g class="st26">
					<rect x="182.4" y="213" class="st5" width="29" height="28.2"/>
				</g>
			</g>
		</g>
		<path class="st3" d="M156.3,338.2c0,0-9.3-2.1-12.2,1.4s-2.9,6.8,3.1,7.5s5.8,0.2,8.8-0.2S156.3,338.2,156.3,338.2z"/>
		<path class="st10" d="M159.3,293.5c0,0-5.2,53.6-6.1,61.1s36,40,36,40l15.8-15.5v-85.7L159.3,293.5z"/>
		<path class="st3" d="M91.2,246.7c-0.1-3.7,0-7.3,0.4-10.9c1.3-12.8,4.9-33.3,9.9-34.9c7-2.3,33.4,0,33.4,0v41L91.2,246.7z"/>
		<circle class="st10" cx="129.5" cy="131.3" r="2.6"/>
		<ellipse class="st5" cx="129.5" cy="151.8" rx="28" ry="18.6"/>
		<rect x="101.6" y="152.8" class="st5" width="56" height="13.1"/>
		<rect x="101.6" y="165.9" class="st3" width="56" height="34.9"/>
		<polygon class="st5" points="91.2,241.2 94.7,241.2 94.7,237.8 98.2,237.8 98.2,234.5 101.7,234.5 101.7,231.1 105.1,231.1 
			105.1,227.7 108.6,227.7 108.6,227.7 108.6,224.4 112.1,224.4 112.1,221 115.5,221 115.5,217.6 119,217.6 119,217.6 119,214.3 
			122.5,214.3 122.5,210.9 125.9,210.9 125.9,207.5 129.4,207.5 129.4,204.1 132.9,204.1 132.9,200.8 134.9,200.8 134.9,204.1 
			134.9,260.1 91.2,260.1 91.2,249.6 		"/>
		<rect x="91.2" y="260.1" class="st3" width="21.7" height="85.3"/>
		<polygon class="st16" points="138.2,189.8 138.2,200.8 130.6,200.8 130.6,200.8 101.6,200.8 101.6,165.9 113.4,165.9 113.4,169.2 
			116.9,169.2 116.9,172.6 120.4,172.6 120.4,175.9 124,175.9 124,179.3 127.5,179.3 127.5,182.8 130.9,182.8 130.9,186.3 
			134.9,186.3 134.9,189.8 		"/>
		<g>
			<g>
				<defs>
					<polygon id="SVGID_31_" points="138.2,189.8 138.2,200.8 130.6,200.8 130.6,200.8 101.6,200.8 101.6,165.9 113.4,165.9 
						113.4,169.2 116.9,169.2 116.9,172.6 120.4,172.6 120.4,175.9 124,175.9 124,179.3 127.5,179.3 127.5,182.8 130.9,182.8 
						130.9,186.3 134.9,186.3 134.9,189.8 					"/>
				</defs>
				<clipPath id="SVGID_32_">
					<use xlink:href="#SVGID_31_"  style="overflow:visible;"/>
				</clipPath>
				<g class="st27">
					<path d="M109.4,182.6c2.5,0,4.4,2,4.4,4.5l0,0l0,0v15.3H105v-15.3l0,0l0,0C105,184.7,107,182.6,109.4,182.6L109.4,182.6z"/>
				</g>
			</g>
		</g>
		<g>
			<g>
				<defs>
					<polygon id="SVGID_33_" points="138.2,189.8 138.2,200.8 130.6,200.8 130.6,200.8 101.6,200.8 101.6,165.9 113.4,165.9 
						113.4,169.2 116.9,169.2 116.9,172.6 120.4,172.6 120.4,175.9 124,175.9 124,179.3 127.5,179.3 127.5,182.8 130.9,182.8 
						130.9,186.3 134.9,186.3 134.9,189.8 					"/>
				</defs>
				<clipPath id="SVGID_34_">
					<use xlink:href="#SVGID_33_"  style="overflow:visible;"/>
				</clipPath>
				<g class="st28">
					<path d="M121.7,182.6c2.5,0,4.4,2,4.4,4.5l0,0l0,0v15.3h-8.8v-15.3l0,0l0,0C117.3,184.7,119.3,182.6,121.7,182.6L121.7,182.6z"
						/>
				</g>
			</g>
		</g>
		<rect x="91.2" y="279.7" class="st5" width="21.7" height="85.3"/>
		<path class="st16" d="M108.6,404.7c0,0,17.7-0.9,23.7-20.3s10.2-33.7,25.2-32.9s18.1,19.4,20.4,32c2.4,12.7,1.8,26.7,2.4,37.4
			s-43.8,0-43.8,0l-27.2-5.4L108.6,404.7z"/>
		<rect x="134.9" y="181" class="st4" width="22.6" height="19.8"/>
		<polygon class="st5" points="91.2,281.9 91.2,263.5 91.2,263.5 91.2,260.1 94.8,260.1 94.8,263.5 98.3,263.5 98.3,266.8 
			101.8,266.8 101.8,270.2 105.3,270.2 105.3,273.5 108.8,273.5 108.8,277 112.3,277 112.3,281.9 		"/>
		<path class="st16" d="M174.6,388.7c0,0,12.3,3.7,20.9-2s17.9-23.5,26.4-23.8c18.4-0.6,72.7,1,78.5,3.2
			c7.4,2.7,14.2,23.3,14.1,39.9s-15,26.4-15,26.4l-100.3-11.5l-24.7,4.2L174.6,388.7L174.6,388.7z"/>
		<rect x="91.2" y="368.2" class="st4" width="43.7" height="47.3"/>
		<path class="st5" d="M134.3,409.4c0.4-2,0.8-8.2,6.4-10.7s23.3,2.7,16.2,16S132.8,414.5,134.3,409.4z"/>
		<path class="st3" d="M54.8,423.1c0.6-2.4,1.2-11.7,13-14.8s24.3-6.2,31.1,4.7s0,16.7-12.9,17.7C53.2,433.2,54.2,426,54.8,423.1z"
			/>
		<path class="st3" d="M136.8,427.7c0.7-4.3,4.5-14.3,14.6-17.6s25.3,4.4,22.9,15.8s-21.1,12.2-29.9,7.7S136.3,430.8,136.8,427.7z"
			/>
		<path class="st3" d="M183.2,423.6c-1-2.5-2.1-12.5,4.1-15.1s10.1,1,7,12.5S183.6,424.6,183.2,423.6z"/>
		<path class="st7" d="M191.8,420.9c1.9-6.8,7.3-12.2,14.1-14c11.9-3.4,29-4,34.8,7.7s-8.7,18.1-27.7,16.8S190,426.6,191.8,420.9z"
			/>
		<path class="st5" d="M224.1,436.1c0.3-2.4,3.3-13.3,14.8-10.5s8.8,12.3,5.1,15.2S222.9,446.7,224.1,436.1z"/>
		<path class="st7" d="M293.8,406.9c0.7-1,11.1-3,15.3,5.5s5.6,9.4-1.1,13.6S285.8,418.7,293.8,406.9z"/>
		<path class="st3" d="M302.8,410.1c0-4.1,5.1-10,12.6-6.6s9,9.8,6,16.7S302.7,417.9,302.8,410.1z"/>
		<path class="st5" d="M294.9,424c1.7-5.4,6.5-10.8,19.4-8.8s16.2,13.6,14.4,21.9s-24.8,1.4-30.1-2.4C293,430.7,293.7,428,294.9,424
			z"/>
		<path class="st5" d="M180.9,422.6c0,0,8-9.2,17.9-2.5s9.2,17.6,0.3,17.5S177.6,432.8,180.9,422.6z"/>
		<rect x="112.3" y="274.8" class="st16" width="22.6" height="22.3"/>
		<rect x="112.3" y="297.2" class="st4" width="22.6" height="21.7"/>
		<rect x="112.3" y="260.1" class="st4" width="22.6" height="14.7"/>
		<path d="M118,262.6c1.5,0,2.7,1.3,2.7,2.8l0,0l0,0l0,0v7.7h-5.4v-7.7l0,0l0,0C115.3,263.8,116.5,262.6,118,262.6L118,262.6z"/>
		<path d="M100.6,242.4c2.3,0,4.1,1.9,4.1,4.2l0,0l0,0l0,0v11.7h-8.2v-11.7l0,0l0,0C96.5,244.3,98.3,242.4,100.6,242.4L100.6,242.4z
			"/>
		<path d="M128.8,262.6c1.5,0,2.7,1.3,2.7,2.8l0,0l0,0l0,0v7.7h-5.4v-7.7l0,0l0,0C126.1,263.8,127.3,262.6,128.8,262.6L128.8,262.6z
			"/>
		<rect x="117" y="285.2" class="st6" width="13.2" height="12"/>
		<ellipse class="st6" cx="123.6" cy="285.1" rx="6.6" ry="6.6"/>
		<rect x="117" y="307" class="st6" width="13.2" height="12"/>
		<ellipse class="st6" cx="123.6" cy="307" rx="6.6" ry="6.6"/>
		<circle class="st13" cx="130.1" cy="247.9" r="2.2"/>
		<circle cx="130.1" cy="247.9" r="1.2"/>
		<circle class="st13" cx="123.6" cy="247.9" r="2.2"/>
		<circle cx="123.6" cy="247.9" r="1.2"/>
		<circle class="st13" cx="117.1" cy="247.9" r="2.2"/>
		<circle cx="117.1" cy="247.9" r="1.2"/>
		<path d="M123.6,225.6c2.5,0,4.4,2,4.4,4.5l0,0l0,0v12.6h-8.8v-12.5l0,0l0,0C119.1,227.7,121.1,225.7,123.6,225.6L123.6,225.6z"/>
		<path d="M107.5,282.1c0,1.7-1.4,3.1-3.2,3.1l0,0h-8.9v-6.3h8.9C106.1,279,107.5,280.4,107.5,282.1z"/>
		<path d="M107.5,291.2c0,1.7-1.4,3.1-3.2,3.1l0,0h-8.9V288h8.9C106.1,288,107.5,289.4,107.5,291.2z"/>
		<rect x="91.2" y="319" class="st5" width="43.7" height="49.2"/>
		<path d="M99.9,326.5c2,0,3.7,1.7,3.6,3.7l0,0l0,0l0,0v10.4h-7.3v-10.3l0,0l0,0C96.2,328.3,97.9,326.6,99.9,326.5L99.9,326.5z"/>
		<path d="M126.2,326.5c2,0,3.7,1.7,3.6,3.7l0,0l0,0l0,0v10.4h-7.3v-10.3l0,0l0,0C122.6,328.3,124.2,326.6,126.2,326.5L126.2,326.5z
			"/>
		<path d="M113.1,326.5c2,0,3.7,1.7,3.6,3.7l0,0l0,0l0,0v10.4h-7.3v-10.3l0,0l0,0C109.4,328.3,111.1,326.6,113.1,326.5
			C113.1,326.6,113.1,326.6,113.1,326.5L113.1,326.5z"/>
		<circle class="st13" cx="125.8" cy="352.5" r="4.2"/>
		<circle cx="125.8" cy="352.5" r="2.3"/>
		<circle class="st13" cx="113.1" cy="352.5" r="4.2"/>
		<circle cx="113.1" cy="352.5" r="2.3"/>
		<circle class="st13" cx="100.3" cy="352.5" r="4.2"/>
		<circle cx="100.3" cy="352.5" r="2.3"/>
		<polygon class="st10" points="112.3,300.5 112.3,297.2 108.8,297.2 108.8,300.5 105.3,300.5 105.3,303.9 101.9,303.9 101.9,307.3 
			98.4,307.3 98.4,310.6 94.9,310.6 94.9,314 91.2,314 91.2,317.4 94.9,317.4 94.9,319 112.3,319 		"/>
		<path d="M146.7,184.3c1.9,0,3.4,1.6,3.4,3.5l0,0l0,0v9.7h-6.8v-9.7l0,0l0,0C143.3,185.8,144.8,184.3,146.7,184.3L146.7,184.3z"/>
		<path d="M165,301.3c1.5,0,2.7,1.3,2.7,2.8l0,0l0,0l0,0v7.7h-5.4v-7.7l0,0l0,0C162.3,302.6,163.5,301.3,165,301.3L165,301.3z"/>
		<path d="M165,317.7c1.5,0,2.7,1.3,2.7,2.8l0,0l0,0l0,0v7.7h-5.4v-7.7l0,0l0,0C162.3,318.9,163.5,317.7,165,317.7L165,317.7z"/>
		<path d="M165,334c1.5,0,2.7,1.3,2.7,2.8l0,0l0,0l0,0v7.7h-5.4v-7.7l0,0l0,0C162.3,335.3,163.5,334,165,334L165,334z"/>
		<path d="M106.2,147.8c2.6,0,4.7,2.2,4.7,4.7l0,0l0,0l0,0v13.4h-9.3v-13.3l0,0l0,0C101.5,150,103.6,147.9,106.2,147.8
			C106.2,147.9,106.2,147.9,106.2,147.8L106.2,147.8z"/>
		<path d="M117.9,147.8c2.6,0,4.7,2.2,4.7,4.7l0,0l0,0l0,0v13.4h-9.3v-13.3l0,0l0,0C113.2,150,115.3,147.9,117.9,147.8
			C117.9,147.9,117.9,147.9,117.9,147.8L117.9,147.8z"/>
		<path d="M129.5,147.8c2.6,0,4.7,2.2,4.6,4.7l0,0l0,0l0,0v13.4h-9.3v-13.3l0,0l0,0C124.9,150,126.9,147.9,129.5,147.8
			C129.5,147.9,129.5,147.9,129.5,147.8L129.5,147.8z"/>
		<path d="M141.2,147.8c2.6,0,4.7,2.2,4.6,4.7l0,0l0,0l0,0v13.4h-9.3v-13.3l0,0l0,0C136.5,150,138.6,147.9,141.2,147.8L141.2,147.8z
			"/>
		<path d="M152.9,147.8c2.6,0,4.7,2.2,4.6,4.7l0,0l0,0l0,0v13.4h-9.3v-13.3l0,0l0,0C148.2,150,150.3,147.9,152.9,147.8
			C152.9,147.9,152.9,147.9,152.9,147.8L152.9,147.8z"/>
		<path class="st5" d="M143.3,226.8c-2.6-0.8-6.1-1.5-5.6-5.2s3.1-3.7,7.3-3s5.5,2.1,4.8,4.9c-0.8,2.7-3.7,4.2-6.4,3.4
			C143.4,226.8,143.4,226.8,143.3,226.8z"/>
		<path class="st7" d="M147.7,231.6c-2.7,0.5-6.2-2.5-3.5-4.8s4.5-2.8,5.7,0.2S150.4,231,147.7,231.6z"/>
		<path class="st5" d="M142.4,266.3c-2.7-0.3-3.9-1.2-2.5-3.7s4.9-1.5,5.4,1S144.3,266.3,142.4,266.3z"/>
		<path class="st3" d="M166.1,253.7c0,0-6.1,1.9-9.2-0.9s-1.6-9.8,8.1-7.7S166.1,253.7,166.1,253.7z"/>
		<path class="st3" d="M154,299.3c-1.9,0.1-4.7-0.8-4.7-3.8s1.2-3,4.6-3s3.3,3.3,3,4.7C156.5,298.5,155.3,299.4,154,299.3z"/>
		<path class="st3" d="M146.7,313.7c1.7-0.6,3.6,0,4.8,1.4c1.9,2.3,2.2,4.4,0.3,5.1c-2.5,0.9-6,1.5-7.1-0.5
			C143.4,317.9,142.4,314.3,146.7,313.7z"/>
		<path class="st7" d="M141.7,311.3c0,0,4.4-1.1,6,1.4s0.1,1.8-3.8,2.5S137.4,312.3,141.7,311.3z"/>
		<rect x="159.3" y="259.2" class="st4" width="45.6" height="34.3"/>
		<path d="M196.5,302c1.5,0,2.7,1.3,2.7,2.8l0,0l0,0l0,0v7.7h-5.4v-7.7l0,0l0,0C193.8,303.2,195,302,196.5,302L196.5,302z"/>
		<path d="M196.5,318.3c1.5,0,2.7,1.3,2.7,2.8l0,0l0,0l0,0v7.7h-5.4v-7.7l0,0l0,0C193.8,319.6,195,318.3,196.5,318.3L196.5,318.3z"
			/>
		<path d="M196.5,334.7c1.5,0,2.7,1.3,2.7,2.8l0,0l0,0l0,0v7.7h-5.4v-7.7l0,0l0,0C193.8,335.9,195,334.7,196.5,334.7L196.5,334.7z"
			/>
		<rect x="159.3" y="239.1" class="st5" width="45.7" height="20"/>
		<path d="M182.1,269.2c7.9,0.1,14.4,6.4,14.7,14.3h-29.4C167.6,275.3,174.3,269.6,182.1,269.2z"/>
		<path d="M198.1,243.9c1.5,0,2.7,1.3,2.7,2.8l0,0l0,0l0,0v7.7h-5.4v-7.7l0,0l0,0C195.4,245.2,196.6,243.9,198.1,243.9L198.1,243.9z
			"/>
		<path d="M172.2,241.5c3,0,5.5,2.5,5.4,5.5l0,0l0,0v12.1h-10.8V247l0,0l0,0C166.7,244,169.2,241.6,172.2,241.5L172.2,241.5
			L172.2,241.5z"/>
		<path d="M186.6,241.5c3,0,5.5,2.5,5.4,5.5l0,0l0,0v12.1h-10.8V247l0,0l0,0C181.2,244,183.6,241.6,186.6,241.5L186.6,241.5
			L186.6,241.5z"/>
		<rect x="159.3" y="259.2" class="st13" width="45.7" height="2.9"/>
		<path class="st17" d="M175.6,283.5c0,0-3.7,158.1-4.9,170.6s16.5,2.7,16.5,2.7l1-173.2c-2-0.8-4.1-1.1-6.2-1
			C179.8,282.3,177.7,282.7,175.6,283.5z"/>
		<rect x="204.9" y="198.9" class="st4" width="16.9" height="60.3"/>
		<path d="M213.4,203.1c2.9,0,5.3,2.4,5.3,5.4l0,0l0,0l-0.2,50.6H208l0.1-50.6l0,0l0,0C208.1,205.6,210.5,203.2,213.4,203.1
			L213.4,203.1z"/>
		<g>
			<g>
				<defs>
					<path id="SVGID_35_" d="M213.4,203.1c2.9,0,5.3,2.4,5.3,5.4l0,0l0,0l-0.2,50.6H208l0.1-50.6l0,0l0,0
						C208.1,205.6,210.5,203.2,213.4,203.1L213.4,203.1z"/>
				</defs>
				<clipPath id="SVGID_36_">
					<use xlink:href="#SVGID_35_"  style="overflow:visible;"/>
				</clipPath>
				<g class="st29">
					<polygon class="st7" points="197.1,234.4 199.3,234.4 199.3,232.3 201.4,232.3 201.4,230.2 203.6,230.2 203.6,228.1 
						205.8,228.1 205.8,226 207.9,226 207.9,226 207.9,223.9 210.1,223.9 210.1,221.8 212.2,221.8 212.2,219.7 214.4,219.7 
						214.4,219.7 214.4,217.6 216.6,217.6 216.6,215.5 218.7,215.5 218.7,213.4 220.9,213.4 220.9,211.3 223,211.3 223,209.2 
						224.3,209.2 224.3,211.3 224.3,246.1 197.1,246.1 197.1,239.6 					"/>
				</g>
			</g>
		</g>
		<g>
			<g>
				<defs>
					<path id="SVGID_37_" d="M213.4,203.1c2.9,0,5.3,2.4,5.3,5.4l0,0l0,0l-0.2,50.6H208l0.1-50.6l0,0l0,0
						C208.1,205.6,210.5,203.2,213.4,203.1L213.4,203.1z"/>
				</defs>
				<clipPath id="SVGID_38_">
					<use xlink:href="#SVGID_37_"  style="overflow:visible;"/>
				</clipPath>
				<g class="st30">
					<polygon class="st5" points="229.7,253.4 227.5,253.4 227.5,251.3 225.4,251.3 225.4,249.2 223.2,249.2 223.2,247.1 221,247.1 
						221,245 218.9,245 218.9,242.9 216.7,242.9 216.7,240.8 214.6,240.8 214.6,238.7 212.4,238.7 212.4,236.6 210.2,236.6 
						210.2,234.5 208.1,234.5 208.1,232.4 205.9,232.4 205.9,230.3 203.8,230.3 203.8,228.3 202.5,228.3 202.5,230.3 202.5,265.1 
						229.7,265.1 229.7,258.6 					"/>
				</g>
			</g>
		</g>
		<polygon class="st16" points="221.8,255.9 225.3,255.9 225.3,252.5 228.8,252.5 228.8,249.2 232.3,249.2 232.3,245.8 235.8,245.8 
			235.8,242.4 239.2,242.4 239.2,242.4 239.2,239.1 242.7,239.1 242.7,235.7 246.2,235.7 246.2,232.3 249.6,232.3 249.6,232.3 
			249.6,229 253.1,229 253.1,225.6 256.6,225.6 256.6,222.2 260,222.2 260,218.9 263.5,218.9 263.5,215.5 265.5,215.5 265.5,218.9 
			265.4,259.2 221.8,259.2 		"/>
		<path d="M260,249.5c0,2-1.7,3.7-3.7,3.6l0,0h-10.4v-7.2h10.4C258.3,245.9,260,247.5,260,249.5L260,249.5z"/>
		<rect x="265.5" y="240.1" class="st5" width="22" height="19.1"/>
		<rect x="265.5" y="237.4" width="42.2" height="2.7"/>
		<path d="M276.8,241.8c2.5,0,4.5,2.1,4.5,4.6l0,0l0,0v12.8h-9v-12.7l0,0l0,0C272.3,243.9,274.3,241.9,276.8,241.8L276.8,241.8z"/>
		<path d="M281.5,218.9c2.1,0,3.8,1.8,3.8,3.9l0,0l0,0l0,0v14.6h-7.6v-14.6l0,0l0,0C277.6,220.7,279.3,218.9,281.5,218.9
			C281.4,218.9,281.4,218.9,281.5,218.9L281.5,218.9z"/>
		<path d="M276.5,181.9c1.5,0,2.7,1.3,2.7,2.8l0,0l0,0l0,0v7.7h-5.4v-7.7l0,0l0,0C273.8,183.2,275,181.9,276.5,181.9L276.5,181.9z"
			/>
		<path d="M276.5,195.9c3.2,0,5.7,2.6,5.7,5.8l0,0l0,0l0,0v13.8h-11.4v-13.8l0,0l0,0C270.8,198.5,273.3,195.9,276.5,195.9z"/>
		<g>
			<g>
				<defs>
					<path id="SVGID_39_" d="M276.5,195.9c3.2,0,5.7,2.6,5.7,5.8l0,0l0,0l0,0v13.8h-11.4v-13.8l0,0l0,0
						C270.8,198.5,273.3,195.9,276.5,195.9z"/>
				</defs>
				<clipPath id="SVGID_40_">
					<use xlink:href="#SVGID_39_"  style="overflow:visible;"/>
				</clipPath>
				<g class="st31">
					<path class="st3" d="M280.5,203.7h1.7 M282.2,218.8h-11.8v-6.7h1.7v-1.7h1.7v-1.7h1.7v-1.6h1.7v-1.7h1.7v-1.7h1.7V202h1.7
						L282.2,218.8L282.2,218.8z"/>
				</g>
			</g>
		</g>
		<path d="M272,221.1c1.5,0,2.7,1.3,2.7,2.8l0,0l0,0l0,0v7.7h-5.4v-7.7l0,0l0,0C269.3,222.4,270.5,221.1,272,221.1L272,221.1z"/>
		<path class="st32" d="M326.1,362.7c0,0,0.5-3,5.5-2.9s5.5,4.9,1.1,5.5S326,365,326.1,362.7z"/>
		<path class="st17" d="M223.7,362.9c-0.9,0.3-1.4,1.2-1.1,2.1c0.1,0.2,0.2,0.4,0.3,0.5c1.2,1.9,10.6,0.4,11,2.7s-5.3,2-5.1,4.3
			c0.3,3,6.4,1,9,4.4c3.5,4.7,1.5,30.5,1.4,37s0.7,33.8,0.3,39.9s57.3-0.9,57.3-0.9s-0.6-46.4-0.5-54.8s-0.8-17.3,0.6-19
			s4-1.2,4-2.9s-5.2-1.6-4.7-3.9c0.7-3.2,9.6-0.7,8.1-3c-2.4-3.6-6.6-5.9-35-6.5C236.9,361.9,225.1,362.6,223.7,362.9z"/>
		<path class="st17" d="M277.6,232.9c0,0,30-0.9,38.9,3.9c12.4,6.7,19.3,22.2,21.6,30.1s10.3,71.5,10.3,101.3s-0.1,29.8-0.1,29.8
			l-27.7-3.4c0,0,0.7-44.6,0.4-67s-0.8-55.6-4.8-72.2c-3.6-14.9-6.3-17.2-8.6-18h-30L277.6,232.9L277.6,232.9z"/>
		<rect x="97.8" y="378.3" class="st6" width="13.2" height="63.9"/>
		<ellipse class="st6" cx="104.4" cy="378.2" rx="6.6" ry="6.6"/>
		<rect x="115.2" y="378.3" class="st6" width="13.2" height="63.9"/>
		<ellipse class="st6" cx="121.7" cy="378.2" rx="6.6" ry="6.6"/>
		<path class="st5" d="M63.5,433.3c-1-3.3-1.1-9.2,10.7-14.5s15.6,0.9,17.7,5.3s-4.1,10.6-12.8,12.3S64.5,436.7,63.5,433.3z"/>
		<path class="st7" d="M81.9,429.1c1.6-9,7.3-16.7,15.5-20.7c13.9-6.8,39.7-8.6,48.4,7.6s2.9,28.6-15.5,30S79.9,445.7,81.9,429.1z"
			/>
		<path class="st0" d="M55,84.5c6.2-0.2,16.1,1.6,16.5-1.7c0.3-1.9-4.1-3.6-2.2-5.9c2.3-2.8,15.2-2.2,17.8-0.1
			c3.2,2.6-6.3,4.1-5.4,7.6c0.2,0.8,0.6,1.6,1.3,2.1c3.2,2.3,21.7,1.4,21.8,6.6S90.2,95.4,87.2,98c-4.3,3.9,7.4,4.2,7.6,8.3
			c0.2,5.6-35.6,4.5-42.1,2.9c-4.5-1.1-4.1-6.2,0.4-7.4c3.5-0.9,12-1,11.2-5.4C63.5,91.9,43,95.6,43,89.7C43,84.8,48.8,84.8,55,84.5
			z"/>
		<rect x="79.3" y="258.1" width="55.7" height="2"/>
		<path class="st17" d="M104.7,256.3c0,0-23.8-0.6-28.9,0.5c-3.8,0.8-7.7,7.9-10.2,17.3c-2.5,9.4-13.9,95.6-12.8,117.8
			c0.6,12.7,13.1,2.7,13.1,2.7s3.5-60,3.5-76s3.1-59.7,10.5-60s24.9-0.2,24.9-0.2v-2.1H104.7z"/>
		<rect x="134.9" y="176.8" class="st13" width="22.6" height="4.1"/>
		<rect x="265.5" y="174.2" width="21.9" height="4.1"/>
		<rect x="91.2" y="314.9" class="st7" width="43.7" height="4.1"/>
		<rect x="91.2" y="364.1" class="st6" width="43.7" height="4.1"/>
		<rect x="250.1" y="87.3" class="st33" width="10.6" height="13.4"/>
		<rect x="250.1" y="87.3" class="st16" width="10.6" height="13.4"/>
		<rect x="251.2" y="88.4" class="st34" width="8.5" height="11.4"/>
		<rect x="252.2" y="89.4" class="st34" width="6.5" height="9.3"/>
		<rect x="253.3" y="90.5" class="st34" width="4.4" height="7.2"/>
		<rect x="254.3" y="91.5" class="st34" width="2.3" height="5.1"/>
		<rect x="255.4" y="92.5" class="st34" width="0.2" height="3"/>
		<circle class="st35" cx="213.4" cy="180.8" r="8.4"/>
		<g>
			<g>
				<defs>
					<circle id="SVGID_41_" cx="213.4" cy="180.8" r="8.4"/>
				</defs>
				<clipPath id="SVGID_42_">
					<use xlink:href="#SVGID_41_"  style="overflow:visible;"/>
				</clipPath>
				<g class="st36">
					<rect x="213.4" y="172.4" class="st5" width="10.8" height="7.7"/>
				</g>
			</g>
		</g>
		<rect x="205" y="180.1" width="16.8" height="1.4"/>
		<rect x="204.9" y="181.4" class="st10" width="16.9" height="17.5"/>
		<rect x="207" y="183.4" class="st37" width="12.7" height="13.4"/>
		<rect x="209.1" y="185.5" class="st37" width="8.5" height="9.2"/>
		<rect x="211.2" y="187.6" class="st37" width="4.4" height="5"/>
		<rect x="213.3" y="189.7" class="st37" width="0.2" height="0.9"/>
		<rect x="265.5" y="151" class="st33" width="21.9" height="23.2"/>
		<ellipse class="st3" cx="276.5" cy="150.2" rx="10.9" ry="11"/>
		<rect x="265.5" y="149.3" width="21.9" height="1.8"/>
		<g>
			<g>
				<defs>
					<ellipse id="SVGID_43_" cx="276.5" cy="150.2" rx="10.9" ry="11"/>
				</defs>
				<clipPath id="SVGID_44_">
					<use xlink:href="#SVGID_43_"  style="overflow:visible;"/>
				</clipPath>
				<g class="st38">
					<rect x="276.5" y="138.2" class="st5" width="13.1" height="11.1"/>
				</g>
			</g>
		</g>
		<rect x="265.5" y="151" class="st10" width="21.9" height="23.2"/>
		<rect x="267.6" y="153" class="st37" width="17.7" height="19.1"/>
		<rect x="269.7" y="155.1" class="st37" width="13.5" height="14.9"/>
		<rect x="271.8" y="157.2" class="st37" width="9.4" height="10.7"/>
		<rect x="273.9" y="159.3" class="st37" width="5.2" height="6.6"/>
		<rect x="276" y="161.4" class="st37" width="1" height="2.4"/>
		<rect x="134.9" y="165.9" class="st10" width="22.6" height="11"/>
		<rect x="136.5" y="167.4" class="st37" width="19.5" height="7.9"/>
		<rect x="138" y="169" class="st37" width="16.4" height="4.7"/>
		<rect x="139.6" y="170.5" class="st37" width="13.2" height="1.6"/>
		<rect x="233.3" y="40.9" width="16.9" height="1.4"/>
		<g>
			<g>
				<defs>
					<circle id="SVGID_45_" cx="241.7" cy="41.6" r="8.4"/>
				</defs>
				<clipPath id="SVGID_46_">
					<use xlink:href="#SVGID_45_"  style="overflow:visible;"/>
				</clipPath>
				<g class="st39">
					<rect x="241.7" y="32.4" class="st5" width="10.1" height="8.5"/>
				</g>
			</g>
		</g>
		<rect x="159.3" y="236.3" class="st16" width="45.7" height="2.9"/>
	</g>
</g>
</svg>
