<svg id="Layer_1" data-name="Layer 1" xmlns="http://www.w3.org/2000/svg" xmlns:xlink="http://www.w3.org/1999/xlink" viewBox="0 0 1532.43 924.22"><defs><style>.cls-1,.cls-13,.cls-15,.cls-17,.cls-18,.cls-20,.cls-21,.cls-25,.cls-27,.cls-36,.cls-40,.cls-42,.cls-43,.cls-45,.cls-48,.cls-49,.cls-52,.cls-53,.cls-54,.cls-56,.cls-57,.cls-6,.cls-61,.cls-66,.cls-67,.cls-69{fill:none;}.cls-2,.cls-8{isolation:isolate;}.cls-3{clip-path:url(#clip-path);}.cls-4,.cls-8{fill:#fff;}.cls-5{clip-path:url(#clip-path-4);}.cls-17,.cls-20,.cls-21,.cls-25,.cls-27,.cls-36,.cls-40,.cls-42,.cls-43,.cls-45,.cls-48,.cls-49,.cls-52,.cls-53,.cls-54,.cls-56,.cls-57,.cls-6,.cls-61{stroke:#000;}.cls-21,.cls-27,.cls-43,.cls-49,.cls-52,.cls-53,.cls-57,.cls-6{stroke-linejoin:round;}.cls-7{fill:#36777e;}.cls-8{opacity:0.05;}.cls-9{fill:#2c5e5e;}.cls-10{clip-path:url(#clip-path-5);}.cls-11{fill:#193534;}.cls-12{clip-path:url(#clip-path-6);}.cls-13{stroke:#fff;stroke-width:7.5px;}.cls-14{fill:#f36569;}.cls-15,.cls-18,.cls-67{stroke:#424242;}.cls-15,.cls-17,.cls-18,.cls-66,.cls-67,.cls-69{stroke-miterlimit:10;}.cls-15{stroke-width:2.27px;}.cls-16{clip-path:url(#clip-path-7);}.cls-18{stroke-width:1.84px;}.cls-19{clip-path:url(#clip-path-8);}.cls-20,.cls-21{stroke-width:1.5px;}.cls-21,.cls-25,.cls-27,.cls-40,.cls-49,.cls-52,.cls-53,.cls-54,.cls-56,.cls-57{stroke-linecap:round;}.cls-22{fill:#254c4b;}.cls-23{clip-path:url(#clip-path-25);}.cls-24{clip-path:url(#clip-path-34);}.cls-25,.cls-43,.cls-48,.cls-49{stroke-width:2px;}.cls-26{clip-path:url(#clip-path-35);}.cls-28{fill:#6dd1bd;}.cls-29{clip-path:url(#clip-path-50);}.cls-30{fill:#77bb68;}.cls-31{fill:#505050;}.cls-32{clip-path:url(#clip-path-51);}.cls-33{clip-path:url(#clip-path-52);}.cls-34{clip-path:url(#clip-path-53);}.cls-35{clip-path:url(#clip-path-54);}.cls-36{stroke-width:8.5px;}.cls-37{clip-path:url(#clip-path-55);}.cls-38{fill:#122625;}.cls-39{fill:#46a391;}.cls-40{stroke-width:5px;}.cls-41{clip-path:url(#clip-path-56);}.cls-42,.cls-54{stroke-width:5.67px;}.cls-44{clip-path:url(#clip-path-71);}.cls-46{clip-path:url(#clip-path-72);}.cls-47{clip-path:url(#clip-path-73);}.cls-50{fill:#212121;}.cls-51{clip-path:url(#clip-path-86);}.cls-52,.cls-67{stroke-width:2.83px;}.cls-53{stroke-width:6px;}.cls-55{clip-path:url(#clip-path-95);}.cls-56,.cls-57,.cls-61{stroke-width:3px;}.cls-58{clip-path:url(#clip-path-111);}.cls-59{clip-path:url(#clip-path-112);}.cls-60{fill:#ebebeb;}.cls-62{clip-path:url(#clip-path-131);}.cls-63{clip-path:url(#clip-path-132);}.cls-64{clip-path:url(#clip-path-134);}.cls-65{clip-path:url(#clip-path-159);}.cls-66,.cls-69{stroke:#193534;}.cls-66{stroke-width:1.62px;}.cls-68{clip-path:url(#clip-path-160);}.cls-70{clip-path:url(#clip-path-161);}.cls-71{clip-path:url(#clip-path-162);}.cls-72{fill:#f4f4f4;}.cls-73{fill:#419383;}</style><clipPath id="clip-path" transform="translate(71.24 136.58)"><rect class="cls-1" width="1440" height="750"/></clipPath><clipPath id="clip-path-4" transform="translate(71.24 136.58)"><rect class="cls-1" x="-34.84" y="-232.78" width="1509.67" height="1209.04"/></clipPath><clipPath id="clip-path-5" transform="translate(71.24 136.58)"><path class="cls-1" d="M1246.07-26.72S1307.42,24,1324.81,95.82c0,0-75.46-4.19-125-100.68Z"/></clipPath><clipPath id="clip-path-6" transform="translate(71.24 136.58)"><path class="cls-1" d="M1146-22.59s-49.1,82.49-33.83,168.08c0,0,89.91-38.52,101.33-165.25Z"/></clipPath><clipPath id="clip-path-7" transform="translate(71.24 136.58)"><circle class="cls-1" cx="1357.32" cy="-1.07" r="50.99"/></clipPath><clipPath id="clip-path-8" transform="translate(71.24 136.58)"><path class="cls-1" d="M1373.3,300.6c-15.81-.28-28.16-11.71-39.74-39.86-15.1-36.71-3.59-101,3.76-124.55,7.59-24.27,16.77-35.72,16.77-53.71s-3.22-68.3,5.93-87.39,83.9-1.8,83.9-1.8L1445.16,62s-11.25,35.24-10.75,58.4-5.62,107.95-15.29,130.66C1410.54,271.26,1393.62,301,1373.3,300.6Z"/></clipPath><clipPath id="clip-path-25" transform="translate(71.24 136.58)"><path class="cls-1" d="M1289.18,312.09s-59.57-66.41-124.79-103.69-112.55-37.28-149-37.28c0,0-9-79.85,94.48-56.35,94.38,21.43,142.07,82.2,160.69,110.36A122.38,122.38,0,0,1,1289.18,312.09Z"/></clipPath><clipPath id="clip-path-34" transform="translate(71.24 136.58)"><path class="cls-1" d="M693.26,47.39s-39.82,66.9-27.44,136.32c0,0,72.92-31.24,82.18-134Z"/></clipPath><clipPath id="clip-path-35" transform="translate(71.24 136.58)"><path class="cls-1" d="M1090.77,761.18s-12.61-29.87-4.28-64.92,2-74.08.22-87.69,3.16-42.76-.22-59.8c-5.13-25.86-27.92-54-28.6-84.15s5.57-72.64,15.87-104.1,16.86-66.67,6.4-91c-14.2-33.06-16.2-65.84-11.85-65.84,12.72,0,32.08,8.63,47.59,32.65,13.15,20.37,4.4,35.35,3.72,53.83s7.77,17.86,17.33,23.06c13.22,7.2,18,19.67,14.6,35-2.77,12.55-18.41,26.57-13,38.78,5.11,11.51,15.5,8.14,19.69,31.21s-.29,42.15-10.8,72.1-10.51,268-10.51,268Z"/></clipPath><clipPath id="clip-path-50" transform="translate(71.24 136.58)"><path class="cls-1" d="M1199.44,437.28c3.62-1.85,42.86,9.4,61.53,9.4h50l-.67,18.64s-8.72,4.74-29.27,16.21c-13.82,7.71-31.51,9-40.39,26.45-9.43,18.51-1.84,99-1.84,99s-73.37,19.35-125.15-9.06c0,0,9.29-55,10.91-71.75s3-44.12-14.16-57.35S969.93,398.1,969.93,398.1l14.92-25.27s153.29,52.65,185.89,58.66C1170.74,431.48,1183.49,445.42,1199.44,437.28Z"/></clipPath><clipPath id="clip-path-51" transform="translate(71.24 136.58)"><path class="cls-1" d="M35.5,482.51S-56.68,402.06-48,303.91c0,0,72.63,12.9,122,138.5Z"/></clipPath><clipPath id="clip-path-52" transform="translate(71.24 136.58)"><path class="cls-1" d="M261.52,763.39s82.55-95.79,217.38-121.12c0,0-15.6,71.13-116.49,121.12Z"/></clipPath><clipPath id="clip-path-53" transform="translate(71.24 136.58)"><path class="cls-1" d="M301.7,736.16s10.8-152,130-253.66c0,0,8.31,134-52.3,222.45Z"/></clipPath><clipPath id="clip-path-54" transform="translate(71.24 136.58)"><path class="cls-1" d="M284.91,604.13s-26.93-98.44,13.68-194c0,0,57.76,35.69,51.63,187.79Z"/></clipPath><clipPath id="clip-path-55" transform="translate(71.24 136.58)"><path class="cls-1" d="M220.53,597.91s-29.47-67.3,7-148.91c0,0,40.12,38.44,27.29,155.13Z"/></clipPath><clipPath id="clip-path-56" transform="translate(71.24 136.58)"><path class="cls-1" d="M40.67,0s79.27,70,73.62,154C109,232.32,104,240.25,87.87,241.89s-36.93-16.59-38.79-54.22S14.72,101-4,83.43-3-4.91-3-4.91Z"/></clipPath><clipPath id="clip-path-71" transform="translate(71.24 136.58)"><path class="cls-1" d="M87.87-4.91s6.21,14.72,16.36,16.83,18.93-3,33.19,4.67,24.07,22.9,17.06,31.78-17-1-25.47-2.34c-7.59-1.21-9.35.23-20.33,4s-24.31,2.34-34.12-6.08S31.32,0,31.32,0L47.44-15.89Z"/></clipPath><clipPath id="clip-path-72" transform="translate(71.24 136.58)"><path class="cls-1" d="M-6.54,72s21.27,0,23.84,14.49-11.69,23.37,1.17,34.12,29,15.89,30.62,29-5.61,29-11.69,38.79-5.37,20.33,7,34.82,7.24,25.94.94,33.42-16.59,16.36-14,36.46,4.67,30.62-5.84,32.48S0,320.65,0,300.31s10.75-21,5.38-32.72-9.82-29-10.52-41.37S-6.54,72-6.54,72Z"/></clipPath><clipPath id="clip-path-73" transform="translate(71.24 136.58)"><path class="cls-1" d="M5.21,756.9s80.45-61.77,154-77.77,136.25-20.52,143.29,17.12c7.28,38.9-104.55,58.8-123.17,62.15s.34-2.23-18.62,3.35S5.21,756.9,5.21,756.9Z"/></clipPath><clipPath id="clip-path-86" transform="translate(71.24 136.58)"><path class="cls-1" d="M-19.72,553s2.39-53.91,13.18-70.47,29.73-45.26,51.63-38.93,36.38,71.88-.23,160.56C7.85,693.77,4,708.19-6.54,718S-19.72,553-19.72,553Z"/></clipPath><clipPath id="clip-path-95" transform="translate(71.24 136.58)"><path class="cls-1" d="M1449.57,495.85s-46.47-83.3-55.71-148.92-5.14-92.69,17.08-98.82,35.27,23.77,41.29,42S1449.57,495.85,1449.57,495.85Z"/></clipPath><clipPath id="clip-path-111" transform="translate(71.24 136.58)"><path class="cls-1" d="M707.73,54.73s11.9,91.57,147.76,91.57c0,0,10.12-50-97.75-111.27Z"/></clipPath><clipPath id="clip-path-112" transform="translate(71.24 136.58)"><path class="cls-1" d="M1318.22,292.27c-14.85,2.78-47.57.07-69.84-35.4s-22.55-56.73-23.1-77.87-1.93-41.53-8-58.58S1196.53,89.3,1185.68,72c-7.33-11.72-20.6-50.21,14.11-63.35s71.14,8.25,78,41.06,6.87,60.89,20.6,81.9c10.63,16.27,47.59,69.31,49,107.86S1333.07,289.49,1318.22,292.27Z"/></clipPath><clipPath id="clip-path-131" transform="translate(71.24 136.58)"><path class="cls-1" d="M236.17,34.4c9.87,0,24.93,2.26,32.09,31.37s9.62,39.47,16.65,54.65C297.76,148.16,306.38,173.13,300,200c-5.25,22.18-14.38,56.8-38.85,58.8s-46.14-9.49-59.45-44.12S195.35,156,204,133.07s21.23-32.25,22-44.93c.27-4.6-9.38-10.1-12.38-17.13-5.25-12.34-7.55-21.9-10.05-29.27C203.49,41.74,215.94,34.4,236.17,34.4Z"/></clipPath><clipPath id="clip-path-132" transform="translate(71.24 136.58)"><path class="cls-1" d="M208.63,39.43s-32.21,12-54.93,28.91-32,31.19-27.86,34.71,26.69-8.67,49.65-8.25,44.68-1.55,52.44-9.69S220.77,78.74,219.1,70c-1.78-9.34,9.16-9.89,6-21.22C223.12,41.8,214.7,39.11,208.63,39.43Z"/></clipPath><clipPath id="clip-path-134" transform="translate(71.24 136.58)"><path class="cls-1" d="M-6.54,722.18S2.28,682.69,16.8,673s31.12-13.43,38.75-26.85S69,614.89,82.08,597.91c14.75-19.1,13.94-20.3,32.31-34.11,21.24-16,44.56-27.66,59.91-14.81s-25.37,43.2-29.52,74.57c-2.52,19.05-5.69,41-25.39,55.93-21.78,16.45-23.56,22.34-29.5,40.84-8.51,26.53-75.41,43.07-75.41,43.07L-4,752.83Z"/></clipPath><clipPath id="clip-path-159" transform="translate(71.24 136.58)"><circle class="cls-1" cx="593.85" cy="-16.86" r="119.72"/></clipPath><clipPath id="clip-path-160" transform="translate(71.24 136.58)"><circle class="cls-1" cx="724.26" cy="-1.07" r="63.66"/></clipPath><clipPath id="clip-path-161" transform="translate(71.24 136.58)"><path class="cls-1" d="M1330,461.45c1.9-1.18,42.1,6,53.7,44.69S1399,574.83,1399,582.58s-19,4.34-19,4.34l.91,53.58s-70.36,15.89-110.35-6.83l1.14-51.83L1251.22,587s-1.47-14,2.28-45c3.33-27.54,8.5-67.67,52.89-81.06C1306.39,460.94,1318.84,468.37,1330,461.45Z"/></clipPath><clipPath id="clip-path-162" transform="translate(71.24 136.58)"><path class="cls-1" d="M1330,461.45c1.9-1.18,36.54,2.9,48.13,41.55s27.15,73.15,27.15,80.9-21.81,3-21.81,3l2.19,52.63S1313,655.87,1273,633.16l-1.34-51.33-31.09-4.12a211.67,211.67,0,0,1,9.75-48.73c8.57-26.38,10.07-59.22,56-68C1306.39,460.94,1318.84,468.37,1330,461.45Z"/></clipPath></defs><title>jungle_FINAL</title><g class="cls-2"><g class="cls-3"><g class="cls-3"><rect class="cls-4" x="71.24" y="136.58" width="1440" height="750"/></g></g></g><rect class="cls-4" x="71.24" y="136.58" width="1440" height="750"/><g class="cls-3"><rect class="cls-6" x="71.24" y="136.58" width="1440" height="750"/><rect class="cls-7" x="71.24" y="136.58" width="1440" height="753.84"/><rect class="cls-8" x="503.34" y="340.24" width="600.54" height="353.71"/><path class="cls-9" d="M1246.07-26.72S1307.42,24,1324.81,95.82c0,0-75.46-4.19-125-100.68Z" transform="translate(71.24 136.58)"/><g class="cls-10"><path class="cls-11" d="M1324.81,95.82s-88.37-93.18-105-115.7l35.77-22.21,79.11,91.16Z" transform="translate(71.24 136.58)"/></g><path class="cls-9" d="M1146-22.59s-49.1,82.49-33.83,168.08c0,0,89.91-38.52,101.33-165.25Z" transform="translate(71.24 136.58)"/><g class="cls-12"><path class="cls-11" d="M1112.13,145.49S1172.61,4.84,1181.42-27l-54.9-7.92L1076.31,99.36Z" transform="translate(71.24 136.58)"/></g><path class="cls-13" d="M1318.94,278.23s23.53,65.85,28.5,119.87" transform="translate(71.24 136.58)"/><path class="cls-13" d="M1284.66,300.61s42.84,51.66,60.35,92.76" transform="translate(71.24 136.58)"/><circle class="cls-14" cx="1428.56" cy="135.52" r="50.99"/><path class="cls-15" d="M1366.18-50.43" transform="translate(71.24 136.58)"/><circle id="SVGID" class="cls-14" cx="1428.56" cy="135.52" r="50.99"/><g class="cls-16"><line class="cls-17" x1="1428.56" y1="136.37" x2="1378.87" y2="147.84"/><line class="cls-17" x1="1428.56" y1="136.37" x2="1382.73" y2="158.73"/><line class="cls-17" x1="1428.56" y1="136.37" x2="1388.93" y2="168.46"/><line class="cls-17" x1="1428.56" y1="136.37" x2="1397.17" y2="176.56"/><line class="cls-17" x1="1428.56" y1="136.37" x2="1407.01" y2="182.59"/><line class="cls-17" x1="1428.56" y1="136.37" x2="1417.96" y2="186.25"/><line class="cls-18" x1="1428.56" y1="136.37" x2="1429.45" y2="187.36"/><line class="cls-18" x1="1428.56" y1="136.37" x2="1440.9" y2="185.85"/><line class="cls-18" x1="1428.56" y1="136.37" x2="1451.71" y2="181.81"/><line class="cls-18" x1="1428.56" y1="136.37" x2="1461.34" y2="175.44"/><line class="cls-18" x1="1428.56" y1="136.37" x2="1469.29" y2="167.06"/><line class="cls-18" x1="1428.56" y1="136.37" x2="1475.15" y2="157.11"/><line class="cls-18" x1="1428.56" y1="136.37" x2="1478.62" y2="146.1"/><line class="cls-18" x1="1428.56" y1="136.37" x2="1479.53" y2="134.59"/><line class="cls-17" x1="1428.56" y1="136.37" x2="1377.69" y2="139.93"/></g><circle cx="1428.56" cy="135.52" r="13.24"/><path class="cls-13" d="M1374.71,290.13s-13.84,85.05-25.81,113.64" transform="translate(71.24 136.58)"/><path class="cls-9" d="M1373.3,300.6c-15.81-.28-28.16-11.71-39.74-39.86-15.1-36.71-3.59-101,3.76-124.55,7.59-24.27,16.77-35.72,16.77-53.71s-3.22-68.3,5.93-87.39,83.9-1.8,83.9-1.8L1445.16,62s-11.25,35.24-10.75,58.4-5.62,107.95-15.29,130.66C1410.54,271.26,1393.62,301,1373.3,300.6Z" transform="translate(71.24 136.58)"/><g class="cls-19"><path class="cls-20" d="M1417.23-17.6s-12.34,65.66-15.68,96.3S1389.82,166,1385.71,179s-7.27,52-9.14,74.42-2.05,42.29-5.78,54.08" transform="translate(71.24 136.58)"/></g><g class="cls-19"><line class="cls-21" x1="1480.63" y1="163.21" x2="1439.02" y2="116.16"/></g><g class="cls-19"><line class="cls-21" x1="1480.63" y1="163.21" x2="1531.31" y2="139.26"/></g><g class="cls-19"><line class="cls-21" x1="1474.65" y1="203.11" x2="1421.43" y2="141.28"/></g><g class="cls-19"><line class="cls-21" x1="1474.65" y1="203.11" x2="1523.16" y2="178.08"/></g><g class="cls-19"><line class="cls-21" x1="1468.79" y1="249" x2="1417.3" y2="175.04"/></g><g class="cls-19"><line class="cls-21" x1="1468.79" y1="249" x2="1519.02" y2="215.29"/></g><g class="cls-19"><line class="cls-21" x1="1464.08" y1="280.16" x2="1417.3" y2="226.01"/></g><g class="cls-19"><line class="cls-21" x1="1464.08" y1="280.16" x2="1521.32" y2="247.23"/></g><g class="cls-19"><line class="cls-21" x1="1457.53" y1="314.47" x2="1523.16" y2="277.6"/></g><g class="cls-19"><line class="cls-21" x1="1457.53" y1="314.47" x2="1408.56" y2="259.36"/></g><g class="cls-19"><line class="cls-21" x1="1452.08" y1="347.11" x2="1397.4" y2="286.79"/></g><g class="cls-19"><line class="cls-21" x1="1452.08" y1="347.11" x2="1516.4" y2="313.07"/></g><g class="cls-19"><line class="cls-21" x1="1449.34" y1="378.51" x2="1393.81" y2="316.8"/></g><g class="cls-19"><line class="cls-21" x1="1449.34" y1="378.51" x2="1511.24" y2="349.13"/></g><g class="cls-19"><line class="cls-21" x1="1445.95" y1="406.08" x2="1506.94" y2="374.56"/></g><g class="cls-19"><line class="cls-21" x1="1445.95" y1="406.08" x2="1387.6" y2="357.99"/></g><path class="cls-22" d="M1289.18,312.09s-59.57-66.41-124.79-103.69-112.55-37.28-149-37.28c0,0-9-79.85,94.48-56.35,94.38,21.43,142.07,82.2,160.69,110.36A122.38,122.38,0,0,1,1289.18,312.09Z" transform="translate(71.24 136.58)"/><g class="cls-23"><line class="cls-21" x1="1086.63" y1="272.78" x2="1121.74" y2="318.16"/></g><g class="cls-23"><line class="cls-21" x1="1103.88" y1="247.02" x2="1145.05" y2="320.68"/></g><g class="cls-23"><line class="cls-21" x1="1137.62" y1="236.06" x2="1173.47" y2="328.55"/></g><g class="cls-23"><line class="cls-21" x1="1177.83" y1="239.95" x2="1202.6" y2="344.98"/></g><g class="cls-23"><line class="cls-21" x1="1220.6" y1="250.18" x2="1239.29" y2="361.71"/></g><g class="cls-23"><line class="cls-21" x1="1262.08" y1="273.53" x2="1271.03" y2="384.7"/></g><g class="cls-23"><line class="cls-21" x1="1302.08" y1="301.15" x2="1302.08" y2="406.08"/></g><g class="cls-23"><line class="cls-21" x1="1336.86" y1="340.24" x2="1327.13" y2="433.41"/></g><g class="cls-23"><line class="cls-21" x1="1362.04" y1="389.35" x2="1349.67" y2="451.13"/></g><path class="cls-9" d="M693.26,47.39s-39.82,66.9-27.44,136.32c0,0,72.92-31.24,82.18-134Z" transform="translate(71.24 136.58)"/><g class="cls-24"><path class="cls-11" d="M665.82,183.71S714.88,69.64,722,43.81l-44.53-6.43L636.77,146.31Z" transform="translate(71.24 136.58)"/></g><circle class="cls-14" cx="665.09" cy="119.72" r="119.72"/><path class="cls-14" d="M1447.41,722.53s-11.22-1.5-25.89,6.78-20.46,2.6-18.47-4.14,9-11.39,19.5-14.5,13.35-11.85,10.68-16.57c-4-7-11.11-7.24-26.38-4s-42.8,5.11-49.1-2.93,4.58-23.64,20.34-17.78,28.42,4.49,32.73-3.62-3.8-14.34-14.15-15.88-35.25,2.31-38.92-7.66,17-25.47,17-25.47,14.16,13.94,24.2,17.43c9.1,3.17,15.13.27,15-7.77-.14-9.62-20.54-24.24-32.33-31.51-26.05-16.08-86.89-173.35-86.89-173.35s-8.22-9.43-16.19-2.33-25.61,24.45-32.38,17.66c-6.41-6.43-1-14.83,9.84-26.81s4.59-20.79-2.55-23.15c-7.67-2.54-16,6.59-27.58,11.13-9,3.55-18.77-37.58-18.77-37.58s11.19-12.32,9.51-20.38c-1.32-6.36-8.39-8.67-16.8-6.81-4.31,1-17.72,7.66-22.82,7.86-8.54.34-14.95-6.82-12.41-13.29,4.48-11.42,25.25-4.75,30.52-8.61,9.83-7.2-5-13.61-12.81-18.68-11.53-7.53-16.73-20.57-7.18-26.14,8.63-5,19.8,4.19,24.69,15.66,4.74,11.11,6.34,19.45,14.15,18.88s7-14,6.48-21-1.23-21.62,10.42-22.45c8.76-.62,11.41,11.43,5.61,26.69-2.86,7.54-6.06,27,3.14,27s9.21-14.86,9.4-18.66,2.06-14.7,11.81-12.6,9.72,15.21,2.48,26.52-11.61,29.52,3.58,30c13.27.46,19.56-23.32,29.15-16.69,6.64,4.59-4.14,21.59-8.65,28.08s-4.59,13.25,1.81,15.25c6.88,2.15,9.22,0,18.35-6.22,10.35-7.05,22.45,1.21,22.45,14.78s17.47,41.06,17.47,41.06,12.08-4.85,23.56-1.51-4,9.8-4,9.8,3.94,29.93,5.83,38.76,16,15.72,21,4.38,8.64-32.7,22-27.82c12.43,4.54-4.09,26-8.57,33.65-3.95,6.79-7,15.08-.72,17.74s15-10.76,19.39-17.74,10.67-15.86,19.62-7.93-11.29,30.54-17.9,38.3c-4.06,4.77-6.67,11.28-2.29,14.66s14.48-5,19.81-6.67,10.37,115.81,10.37,115.81Z" transform="translate(71.24 136.58)"/><path class="cls-25" d="M1214.06,319.29s166.61,164.39,232.25,297.55" transform="translate(71.24 136.58)"/><path class="cls-11" d="M1090.77,761.18s-12.61-29.87-4.28-64.92,2-74.08.22-87.69,3.16-42.76-.22-59.8c-5.13-25.86-27.92-54-28.6-84.15s5.57-72.64,15.87-104.1,16.86-66.67,6.4-91c-14.2-33.06-16.2-65.84-11.85-65.84,12.72,0,32.08,8.63,47.59,32.65,13.15,20.37,4.4,35.35,3.72,53.83s7.77,17.86,17.33,23.06c13.22,7.2,18,19.67,14.6,35-2.77,12.55-18.41,26.57-13,38.78,5.11,11.51,15.5,8.14,19.69,31.21s-.29,42.15-10.8,72.1-10.51,268-10.51,268Z" transform="translate(71.24 136.58)"/><g class="cls-26"><line class="cls-27" x1="1136.32" y1="382.54" x2="1173.1" y2="344.98"/></g><g class="cls-26"><line class="cls-27" x1="1147.06" y1="411.08" x2="1193.85" y2="370.74"/></g><g class="cls-26"><line class="cls-27" x1="1150.05" y1="442.14" x2="1200.72" y2="400.17"/></g><g class="cls-26"><line class="cls-27" x1="1147.06" y1="468.05" x2="1197.73" y2="430.96"/></g><g class="cls-26"><line class="cls-27" x1="1136.32" y1="503.98" x2="1221.66" y2="451.13"/></g><g class="cls-26"><line class="cls-27" x1="1125.59" y1="538.14" x2="1231.04" y2="477.77"/></g><g class="cls-26"><line class="cls-27" x1="1120.84" y1="573.14" x2="1217.97" y2="511.2"/></g><g class="cls-26"><line class="cls-27" x1="1120.84" y1="614.7" x2="1228.53" y2="536.92"/></g><g class="cls-26"><line class="cls-27" x1="1132.9" y1="656.48" x2="1241.98" y2="571.04"/></g><g class="cls-26"><line class="cls-27" x1="1147.06" y1="693.95" x2="1231.04" y2="626.86"/></g><g class="cls-26"><line class="cls-27" x1="1147.06" y1="740.72" x2="1223.98" y2="663.1"/></g><g class="cls-26"><line class="cls-27" x1="1150.05" y1="778.85" x2="1217.97" y2="714.77"/></g><g class="cls-26"><line class="cls-27" x1="1151.97" y1="815.74" x2="1217.97" y2="757.42"/></g><g class="cls-26"><line class="cls-27" x1="1143.49" y1="855.02" x2="1223.98" y2="797.78"/></g><g class="cls-26"><line class="cls-27" x1="1143.49" y1="897.76" x2="1223.98" y2="831.29"/></g><path class="cls-4" d="M1381.81,484.9s9.1,17.12,6.28,27.56-5.17-17.1-12.92-21.53S1381.81,484.9,1381.81,484.9Z" transform="translate(71.24 136.58)"/><path class="cls-9" d="M1326.87,446.68s40.11,1.26,64.72,34.55l-13.17,14.62-51.43-32Z" transform="translate(71.24 136.58)"/><path d="M1388.74,434.5c-1.42-5.5,7.76-8.19,6.16-15.17-1.71-7.47-10.58-3.75-12.78-10.27-2-5.83,4.62-6.43,6.85-15.7s-4.81-18.7-17.5-18.36-16.31,9.43-16.31,9.43a104,104,0,0,0,1.07,13.66c1.07,7.16,5.41,7.57,8.29,11.93,1.41,2.13,3,7.36-4.24,10.81-6.45,3.07-6.7,9.9.88,11.74,6.86,1.66,5.52,8.2.88,12.18-3.23,2.77-5,4.8-5.06,6.13h39.88C1397.37,442.51,1390.08,439.71,1388.74,434.5Z" transform="translate(71.24 136.58)"/><path class="cls-28" d="M1348.9,387s6.31-5.7,10.12,0c3.56,5.33-3.41,11.13-6,11.13S1348.9,387,1348.9,387Z" transform="translate(71.24 136.58)"/><path class="cls-4" d="M980,387.41s-13.41-2.39-14.61-5.74,2.75-6.18-.36-8.94-13.61-10.27-11.7-13.15,23.88,10.27,33.68,17S980,387.41,980,387.41Z" transform="translate(71.24 136.58)"/><path d="M1289.18,385.38s4.67-13.8,25.66-13.8,46.63,10.27,42.5,38.54-24.81,27.52-27.79,40.77S1289.18,385.38,1289.18,385.38Z" transform="translate(71.24 136.58)"/><polygon class="cls-28" points="1195.58 734.49 1187.14 893.18 1302.08 894.85 1301.31 736.64 1195.58 734.49"/><path class="cls-9" d="M1199.44,437.28c3.62-1.85,42.86,9.4,61.53,9.4h50l-.67,18.64S1303.34,480,1280.33,485c-19.46,4.2-30.84,5.59-39.72,23-9.43,18.51-1.84,99-1.84,99s-73.37,19.35-125.15-9.06c0,0,9.29-55,10.91-71.75s3-44.12-14.16-57.35-140.44-70.71-140.44-70.71l14.92-25.27s153.29,52.65,185.89,58.66C1170.74,431.48,1183.49,445.42,1199.44,437.28Z" transform="translate(71.24 136.58)"/><g class="cls-29"><path class="cls-20" d="M1186.22,434.45s-3.89,160.48-5.93,184.15" transform="translate(71.24 136.58)"/></g><path class="cls-30" d="M763.92,756.6s-5.43-16.85,5.38-20.44,19.89-3.73,17.62-13.21c-1.74-7.28-12.85-4.67-20.8-4.92C755,717.7,749.46,704,757,696.3c6.11-6.23,15.7.74,24.88,1.92s9.33-6.81,6.07-14.22-3.7-23,10.22-22.8,12.14,14.07,10.66,20.88,2.22,15.55,11.4,10.37,17.09-7.85,20.51,0c3.91,9-11.78,12.56-17.26,19.08-6.94,8.26-2.44,16.21,6.89,14.29s24.35-3.55,25.09,7.69c.64,9.77-19.78,19.31-33,19.31C808.86,752.83,763.92,756.6,763.92,756.6Z" transform="translate(71.24 136.58)"/><path class="cls-9" d="M-26.07,295.4s21.27-27.68,44.8-18.24S45.63,296,45.63,317.86s6.32,78.8,34.46,78.8,29.32-30.07,25.08-51.16S89.72,243.1,117,240.56s27.47,73,27.3,99.2c-.12,18.52,3.46,33.07,14.38,33.07s15.34-26,18.78-42.79c4.38-21.36,10.39-39.05,26.09-36.71,15.31,2.28,14.68,26.54,15,59.49.4,36,28.6,22.69,34.64-7.3,4-19.63,17.22-83.82,49.92-77.44s16.79,47.87-5.45,88.77c-13.92,25.59-15.32,42.06-1.19,42.06,15.91,0,27-18.2,41.22-7,8.86,7-4.2,27.39,3.39,41.09,10.77,19.43,40.56-21.66,51.89-41.09,13.14-22.55,39.64-29,55.7-12.14s2.09,47.17-13.15,76.64-5,47.61,19.5,39.42c18.66-6.25,36.65,13.79,13.57,42.53-17.5,21.8-13.57,43.45,11.27,40.9,19.18-2,51.63-15.38,67.83,6.2S542.9,639,508.23,661.2s-19.14,43.1-2.55,44.26,41.48-4.59,56,12.58c11.84,14-6.24,31.8-19,40.67s-578.57,15-578.57,15L-61.14,366Z" transform="translate(71.24 136.58)"/><path class="cls-31" d="M35.5,482.51S-56.68,402.06-48,303.91c0,0,72.63,12.9,122,138.5Z" transform="translate(71.24 136.58)"/><path id="SVGID-2" data-name="SVGID" class="cls-7" d="M35.5,482.51S-56.68,402.06-48,303.91c0,0,72.63,12.9,122,138.5Z" transform="translate(71.24 136.58)"/><g class="cls-32"><polygon class="cls-22" points="23.24 440.49 130.19 611.01 110.96 632.43 22.66 554.76 0 455.88 23.24 440.49"/></g><path d="M135.47,412.64s-10.6,5.53-20.9-1.33c-5.5-3.66-13.07,4.18-18.83,8-7.27,4.76,7.73,16.91-1.66,20.22-9,3.19-11.35.59-23.75-2.51-12.84-3.21-25.48,9.7-22.46,28.4,1.66,10.32-17.4,3.08-27.33,5.29-7.27,1.61-22.46,4.38-22.64,18s35.28,112.1,37.44,112.83S46,599.86,53.9,592.73s5.44-17.23,8.65-23.85,6.45-10,16.64-10.75,11.35-5.92,10.58-13-4.21-19.51,11.48-20.51c26.59-1.69,24-53.56,24-53.56l.92-18.68s13.74,1,9.5-9.68c-2.71-6.83-2.55-14.56,2.65-17.13S135.47,412.64,135.47,412.64Z" transform="translate(71.24 136.58)"/><path class="cls-14" d="M137,411.35s-3.7-.54-4.67,2.6,3.82,12.35,8.23,10.8c3.15-1.11,3.61-2.73,3.61-2.73Z" transform="translate(71.24 136.58)"/><path d="M1234.77,379.79s.31-20.2-19.58-28.59-42.09,3-48.9,16.2c-6.94,13.42-5.28,26.07.93,36.38s9.74,16.45,6.63,23.56,20.41-9.16,20.41-9.16Z" transform="translate(71.24 136.58)"/><polygon class="cls-9" points="1346.63 769.07 1352.74 897.76 1437.74 894.85 1441.9 768.87 1346.63 769.07"/><path class="cls-7" d="M261.52,763.39s82.55-95.79,217.38-121.12c0,0-15.6,71.13-116.49,121.12Z" transform="translate(71.24 136.58)"/><g class="cls-33"><path class="cls-22" d="M478.9,642.27S319.36,763.66,307.49,770.09s-54-1-54-1l8-28.23L355.45,660l86.47-17.78h37Z" transform="translate(71.24 136.58)"/></g><path class="cls-7" d="M301.7,736.16s10.8-152,130-253.66c0,0,8.31,134-52.3,222.45Z" transform="translate(71.24 136.58)"/><g class="cls-34"><path class="cls-22" d="M431.71,482.51S347,691.36,339.21,729.65L298.6,741.94l-5.83-56.85,38.64-105.83,61.81-82.5Z" transform="translate(71.24 136.58)"/></g><path class="cls-7" d="M284.91,604.13s-26.93-98.44,13.68-194c0,0,57.76,35.69,51.63,187.79Z" transform="translate(71.24 136.58)"/><g class="cls-35"><path class="cls-22" d="M298.6,410.12s20.19,146,20.19,194l-42.63,3.68L264.69,471.59Z" transform="translate(71.24 136.58)"/></g><path class="cls-36" d="M258.64-11.42S496.49,449,177.78,642.27c0,0-136.88,71.5-226.36,67.28" transform="translate(71.24 136.58)"/><path class="cls-36" d="M187.2-15.89S231.29,296.83-12,449" transform="translate(71.24 136.58)"/><path class="cls-4" d="M442.59,606s16.93,1.12,21.49-1.49,22.1-15,24-12.12-7.19,12.19-12.11,21.8-2.91,12.8-15.07,12.53c-4.56-.1-18.36-1.31-18.36-1.31V606Z" transform="translate(71.24 136.58)"/><path class="cls-31" d="M220.53,597.91s-29.47-67.3,7-148.91c0,0,40.12,38.44,27.29,155.13Z" transform="translate(71.24 136.58)"/><path id="SVGID-3" data-name="SVGID" class="cls-7" d="M220.53,597.91s-29.47-67.3,7-148.91c0,0,40.12,38.44,27.29,155.13Z" transform="translate(71.24 136.58)"/><g class="cls-37"><path class="cls-22" d="M227.56,449s11.55,143.88,11.55,163.64l-37.54-14.73-3.94-99,18.57-52.18" transform="translate(71.24 136.58)"/></g><path class="cls-4" d="M442.87,699a49.72,49.72,0,0,0,26.71,10.64c16.21,1.35,24.67.69,25.28,4.27s-16.51,6.85-25.24,12.51-6.79,9.13-16.83,2.49-15.41-9.5-20.14-10.73S442.87,699,442.87,699Z" transform="translate(71.24 136.58)"/><path class="cls-38" d="M181.86,585.88s11.76,4.2,45.83,4.56,135.17,3.18,135.17,3.18l86.08,2.11.36,39.76s-118.92,10.58-146.64,11.85S181.86,585.88,181.86,585.88Z" transform="translate(71.24 136.58)"/><path class="cls-4" d="M277.24,585c8.32,1.5,17.11,1.94,25.08,5,.84.32,5.9,2.08,5.42,3.59-.56,1.77-20.43-2.83-21.41-.69-1.42,3.1,9.14,5.51,8,6.73s-3.77.6-7.16-.46a80.89,80.89,0,0,0-11.83-2.56c-1.49-.26-6.06.2-7.24-.77-.79-.65.55-6.13.79-7.08.12-.48-.13-4,.16-4.07,1.61-.58.32-.71,2-.54Z" transform="translate(71.24 136.58)"/><path class="cls-39" d="M176.85,465.39c12.81,29,12.63,58.59,24,80.88,7.57,14.79,18.1,16.57,38.1,23.24,3.84,1.28,34.45,11.33,37.17,12.33,0,0-2.36,19.32-2.42,19.31-1.77-.29-81.88-12.41-91.88-15.27-14.84-4.24-8-10.6-12.8-21-11.07-24.22,1.8-75.4,7.53-98.33Z" transform="translate(71.24 136.58)"/><path class="cls-39" d="M605.69,760.21S569.52,730.43,544.77,718s-14.91-49.2,9.84-53.64,34.27,26,51.08,24.11,8.57-20.62-1.9-25.7-44.19-12.12-32-33.51c30.78-54.2,40.93,26.21,59.65,19.1,13-4.94,14.28-17.79,9.2-34.14s.64-45.69,27.92-44.74,44.42,16.38,43.15,38.07-2.86,40.8-2.86,40.8-22.53-7.85-27.29,5.52,0,12.37,11.74,20-2.54,21.89-9.2,29.19-6.35,16.18,19.67,18.72,36.17,14.34,29.51,36.8S605.69,760.21,605.69,760.21Z" transform="translate(71.24 136.58)"/><path class="cls-40" d="M663.78,648.4s-51,74.92-66.45,136.74" transform="translate(71.24 136.58)"/><path d="M211.19,395.5s.71-10.17-9.5-20.43-29.45-17.05-48.12-6.36c-21.54,12.34-19.53,37.52-15,45.56s15.41,15.85,17,24.53,32.79-28,32.79-28Z" transform="translate(71.24 136.58)"/><path class="cls-4" d="M211.19,395.5s-8.07,33.65-10,38.23-3.84,7.44-14.21,6.41-11.17,3.3-12.15,9.76a51.28,51.28,0,0,0-.81,9.33s-13.82,3.6-21.54-8.37c0,0,1.74-5.69,2.76-10.26s5.33-5.61,8.74-10.68c2.21-3.29,3.65-8.7,2.39-11.36s-1.53-4.21-.34-6.24,3.68-2.52,6.42-1,4.49-.52,6.16-4.3,2.41-10,9.53-9.08S204.06,400.52,211.19,395.5Z" transform="translate(71.24 136.58)"/><path class="cls-11" d="M171.81,564.28s-2.32,5.41,11.08,17.79,21.19,10.79,44,15.41,51.35,7,61.51,10.2,44.41,25.26,65.7,37.86S449,696,449,696l-15.76,27.76S342,693.88,311.17,680.92,204,667.69,187.26,666.07s-45.06,2.24-58-9.93,10.25-78.55,10.25-78.55Z" transform="translate(71.24 136.58)"/><path class="cls-30" d="M40.67,0s79.27,70,73.62,154C109,232.32,104,240.25,87.87,241.89s-36.93-16.59-38.79-54.22S14.72,101-4,83.43-3-4.91-3-4.91Z" transform="translate(71.24 136.58)"/><g class="cls-41"><path class="cls-42" d="M0,0S109.68,78.7,86.82,244.88" transform="translate(71.24 136.58)"/></g><g class="cls-41"><line class="cls-43" x1="88.04" y1="151.75" x2="80.47" y2="248.24"/></g><g class="cls-41"><line class="cls-43" x1="116.1" y1="188.61" x2="95.2" y2="271.32"/></g><g class="cls-41"><line class="cls-43" x1="141.13" y1="233.95" x2="113" y2="305.16"/></g><g class="cls-41"><line class="cls-43" x1="155.42" y1="287.14" x2="113" y2="330.66"/></g><g class="cls-41"><line class="cls-43" x1="159.16" y1="316.59" x2="116.1" y2="340.77"/></g><g class="cls-41"><line class="cls-43" x1="161.19" y1="349.78" x2="127.95" y2="367.8"/></g><g class="cls-41"><line class="cls-43" x1="161.19" y1="349.78" x2="185.62" y2="367.8"/></g><g class="cls-41"><line class="cls-43" x1="163.11" y1="316.59" x2="190.15" y2="338.35"/></g><g class="cls-41"><line class="cls-43" x1="159.16" y1="287.14" x2="194.6" y2="307.36"/></g><g class="cls-41"><line class="cls-43" x1="151.46" y1="258.57" x2="190.15" y2="278.13"/></g><g class="cls-41"><line class="cls-43" x1="141.13" y1="233.95" x2="185.62" y2="244.06"/></g><g class="cls-41"><line class="cls-43" x1="132.56" y1="208.57" x2="178.06" y2="221.64"/></g><g class="cls-41"><line class="cls-43" x1="116.1" y1="183.62" x2="166.19" y2="191.31"/></g><g class="cls-41"><line class="cls-43" x1="95.2" y1="154.39" x2="155.42" y2="161.86"/></g><path class="cls-22" d="M87.87-4.91s6.21,14.72,16.36,16.83,18.93-3,33.19,4.67,24.07,22.9,17.06,31.78-17-1-25.47-2.34c-7.59-1.21-9.35.23-20.33,4s-24.31,2.34-34.12-6.08S31.32,0,31.32,0L47.44-15.89Z" transform="translate(71.24 136.58)"/><g class="cls-44"><path class="cls-45" d="M41.76-15.89S66.72-2.26,74,10,84.5,28.7,95.3,30.32,117.88,24,131.42,27.9s20.21,12.18,27.82,24.4" transform="translate(71.24 136.58)"/></g><path class="cls-22" d="M-6.54,72s21.27,0,23.84,14.49-11.69,23.37,1.17,34.12,29,15.89,30.62,29-5.61,29-11.69,38.79-5.37,20.33,7,34.82,7.24,25.94.94,33.42-16.59,16.36-14,36.46,4.67,30.62-5.84,32.48S0,320.65,0,300.31s10.75-21,5.38-32.72-9.82-29-10.52-41.37S-6.54,72-6.54,72Z" transform="translate(71.24 136.58)"/><g class="cls-46"><path class="cls-45" d="M-12,138.16S9.46,147.44,12.08,166s-8.52,32.5-8.52,43.36,2.72,14.26,13.23,26.51,7.89,30.29,2.29,42.2-7.21,38.17,9.28,51.13" transform="translate(71.24 136.58)"/></g><path class="cls-39" d="M5.21,756.9s80.45-61.77,154-77.77,136.25-20.52,143.29,17.12c7.28,38.9-104.55,58.8-123.17,62.15s.34-2.23-18.62,3.35S5.21,756.9,5.21,756.9Z" transform="translate(71.24 136.58)"/><g class="cls-47"><path class="cls-48" d="M21.75,768.47s130-75.41,283.55-74.84" transform="translate(71.24 136.58)"/></g><g class="cls-47"><line class="cls-43" x1="356.63" y1="830.21" x2="369.84" y2="813.32"/></g><g class="cls-47"><line class="cls-43" x1="356.63" y1="830.21" x2="376.54" y2="850.15"/></g><g class="cls-47"><line class="cls-43" x1="320.56" y1="833.56" x2="345.32" y2="800.92"/></g><g class="cls-47"><line class="cls-43" x1="320.56" y1="833.56" x2="356.63" y2="872.4"/></g><g class="cls-47"><line class="cls-43" x1="280.22" y1="839.21" x2="318.44" y2="797.09"/></g><g class="cls-47"><line class="cls-43" x1="280.22" y1="839.21" x2="318.44" y2="886.58"/></g><g class="cls-47"><line class="cls-43" x1="244.29" y1="847.42" x2="284.78" y2="800.92"/></g><g class="cls-47"><line class="cls-43" x1="244.29" y1="847.42" x2="280.22" y2="898.48"/></g><g class="cls-47"><line class="cls-43" x1="206.86" y1="857.84" x2="244.29" y2="803.88"/></g><g class="cls-47"><line class="cls-43" x1="206.86" y1="856.9" x2="238.1" y2="896.47"/></g><g class="cls-47"><line class="cls-43" x1="171.35" y1="870.21" x2="204.91" y2="818.97"/></g><g class="cls-47"><line class="cls-43" x1="171.35" y1="870.21" x2="191.23" y2="898.48"/></g><path class="cls-36" d="M414.36-11.42s13.8,430.69-443.85,231.68" transform="translate(71.24 136.58)"/><path class="cls-49" d="M344.1,290.13c4.39,2.74,7.39,7.13,10.15,11.47,23.87,37.51,48.6-21.88,69,11.66" transform="translate(71.24 136.58)"/><path class="cls-49" d="M339.21,305.55c-7.32.74-13.54,6.81-13.54,14.29,0,7.1,1.13,14.13,1.13,21.25,0,26.07-29.45,46.23-51.52,28.58-9.69-7.75-6.61-27.83-13.75-34.79s-15.82-2.77-22.54,3.95" transform="translate(71.24 136.58)"/><path class="cls-49" d="M342.22,392.23c3.13-4.33,8.3-5.27,13.35-5.27,24.51,0,12.89,32.3,35.7,32.3,8.1,0,8.35-17.86,16.45-18.94,2.79-.37,6.07,1.89,7.46,4.31" transform="translate(71.24 136.58)"/><path class="cls-50" d="M374.74,346.26c-.07.18,13.95,3,24-4.49C398.79,341.77,380.95,329.37,374.74,346.26Z" transform="translate(71.24 136.58)"/><ellipse class="cls-4" cx="457.45" cy="477.9" rx="2.25" ry="2.21"/><path class="cls-14" d="M378.17,313.88c4.41-1.61,9.38-.91,13.1,7.7s2.59,14.53,7.52,20.19c0,0-13.2-6-24,4.49a60.9,60.9,0,0,0-.6-13.29C372.89,325.3,372,316.15,378.17,313.88Z" transform="translate(71.24 136.58)"/><path class="cls-50" d="M259.6,390c-.14.06,6.27,9.94,16.52,11.52C276.12,401.55,273.09,383.93,259.6,390Z" transform="translate(71.24 136.58)"/><ellipse class="cls-4" cx="269.11" cy="393.91" rx="1.82" ry="1.85" transform="translate(-127.75 438.47) rotate(-44.54)"/><path class="cls-14" d="M280.59,373.35c3.49,1.66,5.95,5,3,12.13s-7,9.91-7.51,16.07c0,0-4.1-11.21-16.52-11.52a50.13,50.13,0,0,0,7.45-8C270.83,376.85,275.66,371,280.59,373.35Z" transform="translate(71.24 136.58)"/><path class="cls-50" d="M370.65,440.66c-.11.11,10.4,7.48,21.21,5.77C391.86,446.42,381.43,430.62,370.65,440.66Z" transform="translate(71.24 136.58)"/><ellipse class="cls-4" cx="381.7" cy="441.33" rx="1.78" ry="2.03" transform="translate(-107.52 740.26) rotate(-65.3)"/><path class="cls-14" d="M384.38,418.22c4.15.48,8,2.87,8.13,10.58s-2.78,11.62-.65,17.62c0,0-8.78-9.37-21.21-5.77a43.94,43.94,0,0,0,4-10C376.2,424.61,378.52,417.54,384.38,418.22Z" transform="translate(71.24 136.58)"/><path class="cls-4" d="M355.51,303.91c-.29.08,0-10.07,12.61-11.64C368.12,292.27,368.8,300.35,355.51,303.91Z" transform="translate(71.24 136.58)"/><path class="cls-4" d="M357.47,327.89c-.23.19-4.16-9.17,6.68-15.8C364.15,312.09,368.11,319.17,357.47,327.89Z" transform="translate(71.24 136.58)"/><path class="cls-4" d="M399.56,304.3c0,.3-9.18-4.13-5.45-16.27C394.11,288,401.76,290.72,399.56,304.3Z" transform="translate(71.24 136.58)"/><path class="cls-4" d="M406.27,319.29c-.24.18-3.61-9.4,7.61-15.38C413.87,303.91,417.4,311.21,406.27,319.29Z" transform="translate(71.24 136.58)"/><path class="cls-4" d="M309.52,331.6c-.25-.17,7.56-6.65,17.07,1.78C326.59,333.37,321,339.23,309.52,331.6Z" transform="translate(71.24 136.58)"/><path class="cls-4" d="M324,354.58c-.17-.25,9.46-3.45,15.25,7.86C339.21,362.45,331.85,365.86,324,354.58Z" transform="translate(71.24 136.58)"/><path class="cls-4" d="M304.07,354.28c-.07-.29,10.06.45,11.07,13.11C315.13,367.39,307,367.72,304.07,354.28Z" transform="translate(71.24 136.58)"/><path class="cls-4" d="M297.31,376.34c.11-.28,8.2,5.85,2.16,17C299.47,393.36,292.49,389.23,297.31,376.34Z" transform="translate(71.24 136.58)"/><path class="cls-4" d="M283.66,350.34c.3,0-2.81,9.67-15.36,7.65C268.31,358,269.91,350,283.66,350.34Z" transform="translate(71.24 136.58)"/><path class="cls-4" d="M264.67,341.19c.3,0-2.81,9.67-15.36,7.65C249.32,348.85,250.92,340.9,264.67,341.19Z" transform="translate(71.24 136.58)"/><path class="cls-4" d="M250.65,314.56c.09-.29,8.46,5.47,2.93,16.9C253.59,331.46,246.43,327.65,250.65,314.56Z" transform="translate(71.24 136.58)"/><path class="cls-4" d="M114.29,294s5.53-10.63,11.55-15.81,17.53-11.89,17.09-8.68-11,7.8-9.51,13.24c.82,2.93,3.85-.47,6.65.41s-1.69,4.28-8.93,8.32c-6.84,3.82-8.45,5.42-9.85,8S114.29,294,114.29,294Z" transform="translate(71.24 136.58)"/><path class="cls-4" d="M365.25,388.83c-.23.2-4.44-9,6.18-16C371.43,372.82,375.61,379.77,365.25,388.83Z" transform="translate(71.24 136.58)"/><path class="cls-4" d="M358.29,410.12c-.3,0,2.31-9.8,14.94-8.43C373.23,401.68,372,409.7,358.29,410.12Z" transform="translate(71.24 136.58)"/><path class="cls-4" d="M386.44,398.18c-.1-.29,10.05-.58,12.35,11.91C398.79,410.09,390.76,411.24,386.44,398.18Z" transform="translate(71.24 136.58)"/><path class="cls-14" d="M-19.72,553s2.39-53.91,13.18-70.47,29.73-45.26,51.63-38.93,36.38,71.88-.23,160.56C7.85,693.77,4,708.19-6.54,718S-19.72,553-19.72,553Z" transform="translate(71.24 136.58)"/><g class="cls-51"><line class="cls-48" x1="116.1" y1="571.04" x2="47.03" y2="854.62"/></g><g class="cls-51"><line class="cls-49" x1="51.52" y1="827.28" x2="102.56" y2="788.85"/></g><g class="cls-51"><line class="cls-49" x1="66.35" y1="777.54" x2="126.76" y2="726.78"/></g><g class="cls-51"><line class="cls-49" x1="79.21" y1="723.5" x2="47.03" y2="664.14"/></g><g class="cls-51"><line class="cls-49" x1="79.21" y1="723.5" x2="145.24" y2="676.1"/></g><g class="cls-51"><line class="cls-49" x1="91.17" y1="676.1" x2="53.87" y2="625.71"/></g><g class="cls-51"><line class="cls-49" x1="91.17" y1="676.1" x2="163.49" y2="644.5"/></g><g class="cls-51"><line class="cls-49" x1="102.56" y1="624.03" x2="79.21" y2="583.27"/></g><g class="cls-51"><line class="cls-49" x1="103.47" y1="624.03" x2="160.64" y2="605.21"/></g><path class="cls-14" d="M746.07,748.33s-2.54-30.14-26.33-34.27-42.2,13.58-57.43,19.67-53.33,25.53-66.63-6.66c-9.84-23.8,11.1-49.18,43.78-48.86s55.21-11,51.72-26.15S657.55,631.89,635,637.28s-64.1,12.91-67.26-13.64c-3-25.38,27-39.34,52-25,19.1,10.91,40.54,6,44-3.67,4.55-12.74-2.74-21.76-13.85-38.58s-30.85-56-5.08-70.2c21-11.58,46.32,16.58,45.05,51.48-.82,22.51,3.49,41.1,18.09,41.1s24-23.16,33.63-40.47c12.06-21.58,36.17-30.57,48.54-11.1,10.28,16.18.41,46-38.71,71.43-21.91,14.25-21.26,37-6.66,42.15s32-8.08,46-20.62,46.8-24.86,61.55-8.57c19.35,21.38-3.17,54.26-38.07,67.26C788.26,688.55,744.17,703.59,746.07,748.33Z" transform="translate(71.24 136.58)"/><path class="cls-39" d="M936.57,729.73c-1.08.3,5-9.81-13.43-15.86s-31.31,1-45.32,6.62-29.92-1-35.11-14.91-4.85-41,20.78-46.71,36.09,13,47.29,18.95c8.48,4.51,26.78-2.22,24-21.34-2-13.91-15.48-15-28.34-19.11-25.41-8.09-46.18-33.8-29.77-56,13.35-18.09,35.1-5,43.38,7.41s20.51,28,37.49,26.16c14-1.52,16.41-15.75,10.36-29.44s-28.67-54.92-.34-60.59c22.81-4.56,27.72,21.15,28.84,32.88s12.8,11.73,19.27,1.11c12.78-21,31.87-39.79,49.12-31.16,15,7.49,13.36,29.65-6.44,52.39-7.3,8.39-4.56,17.79,7.07,17.79s38-1.06,39,15c.87,13.52-15.3,20.57-38.41,16.34s-33.32,4.71-32.53,13,14.77,10.48,32.53,14.71,42.21,24.68,33.39,41.86c-8.5,16.57-31.35,13.93-48.8,3.71s-39.29-19.66-47.47-1.89,27.35,33.85,46.68,37.56,16.82,15.39,15.56,20.28-95.89,1.59-95.89,1.59S954.65,715.38,936.57,729.73Z" transform="translate(71.24 136.58)"/><polygon class="cls-4" points="947.35 813.38 983.2 797.78 955.73 802.11 977.29 778.85 953.8 790.16 961.91 752.39 946.52 783.02 939.79 747.03 935.4 784.98 917.13 758.84 931.54 797.78 904.35 784.98 931.54 807.47 904.63 810.08 947.35 813.38"/><path class="cls-52" d="M872.95,658.39s8.24,81.18,17.31,96.57" transform="translate(71.24 136.58)"/><polygon class="cls-4" points="991.99 848.13 972.21 818.87 988.69 831.51 994.33 792.22 997.07 832.06 1014.24 793.32 1003.39 833.57 1030.04 808.98 1009.85 835.49 1041.17 834.12 1011.63 843.05 1037.32 859.12 991.99 848.13"/><path class="cls-52" d="M928.58,701.66s-22.66,29.12-22.8,51.18" transform="translate(71.24 136.58)"/><path class="cls-53" d="M693.26,597.91s45.93,75.9,54.74,154.93" transform="translate(71.24 136.58)"/><path class="cls-54" d="M1014.49,604.13s-83.77,101.3-85.91,154.14" transform="translate(71.24 136.58)"/><path class="cls-40" d="M801.64,705.33s5.49,16,5.13,52.94" transform="translate(71.24 136.58)"/><path class="cls-4" d="M1234.77,379.79s-2.49,15.52-6.11,25.27-7.15,17.73-10.15,18.86-12.59-2.9-15.31,2.68c-3.4,7-3.54,8.51-3.75,10.68,0,0-14.71,12-28.7-5.8,0,0,2.07-2.28,5-8.6s9.29-19.85,6.73-21.33a3.94,3.94,0,0,1-1.48-5.5,3.51,3.51,0,0,1,4.38-1.76c2,.62,5.1-6.08,5-11s5.68-2.1,16.86,0S1229.07,383.24,1234.77,379.79Z" transform="translate(71.24 136.58)"/><path class="cls-39" d="M174,458.26c.23,0,11.68,28.83,12.79,39.26S182.4,510.9,179,523.76s-5.42,20.44-4.11,38.89S87.73,595,87.73,595a244.64,244.64,0,0,0,13-40.81c5.4-23.67,17.89-53.3,3.91-78.64S73,427,60.9,412.88s-17.14-28.23-15.84-36.71,10.81-21.54,21.62-35.78,41.74-50.32,43-52.36l13.42,9.88s-17.89,34.48-24.6,47.52-10.06,21.43-5,33.54,24.23,35,37.83,47.15,22.74,19.56,22.74,19.56S156.51,456.84,174,458.26Z" transform="translate(71.24 136.58)"/><circle class="cls-4" cx="1267.61" cy="618.12" r="3.42"/><circle class="cls-4" cx="1267.61" cy="654.33" r="3.42"/><circle class="cls-4" cx="1267.61" cy="690.54" r="3.42"/><path class="cls-25" d="M1175.1,648.4s-2,98.78-2,112.78" transform="translate(71.24 136.58)"/><path class="cls-4" d="M1289.18,385.38s-5,40.1-4.47,46.47,2.93,8,11.7,9.4,12.91,3.91,10,19.69c0,0,11.53,7.92,23.58.52,0,0-1.38-4.7-.17-12.45s-4.13-9.23-5.68-14.55-.69-9.32,2.75-11.39,2.75-4.89,0-4.89-4.82.93-5-4.58,2.41-7.61,0-9.83S1298.47,406,1289.18,385.38Z" transform="translate(71.24 136.58)"/><line class="cls-25" x1="1394.38" y1="815.74" x2="1392.82" y2="897.76"/><path class="cls-45" d="M1330,651.61" transform="translate(71.24 136.58)"/><path class="cls-45" d="M1322.57,464.61" transform="translate(71.24 136.58)"/><path class="cls-39" d="M1330,461.45c1.9-1.18,42.1,6,53.7,44.69S1399,574.83,1399,582.58s-19,4.34-19,4.34l.91,53.58s-70.36,15.89-110.35-6.83l1.14-51.83L1251.22,587s-1.47-14,2.28-45c3.33-27.54,8.5-67.67,52.89-81.06C1306.39,460.94,1318.84,468.37,1330,461.45Z" transform="translate(71.24 136.58)"/><polygon class="cls-4" points="1153.37 811.24 1114.73 805.26 1142.4 802.47 1115.63 785.45 1141.22 790.42 1123.79 755.95 1146.45 781.66 1143.82 745.14 1157.71 780.73 1168.74 750.81 1164.7 792.13 1187.74 772.85 1167.16 801.5 1193.85 797.19 1153.37 811.24"/><path class="cls-52" d="M1080.51,656s12.65,80.61,7.79,97.8" transform="translate(71.24 136.58)"/><path class="cls-30" d="M1449.57,495.85s-46.47-83.3-55.71-148.92-5.14-92.69,17.08-98.82,35.27,23.77,41.29,42S1449.57,495.85,1449.57,495.85Z" transform="translate(71.24 136.58)"/><g class="cls-55"><path class="cls-48" d="M1408.52,242s23.91,140.48,50.47,200.69" transform="translate(71.24 136.58)"/></g><g class="cls-55"><line class="cls-49" x1="1483.3" y1="398.47" x2="1470.02" y2="385.89"/></g><g class="cls-55"><line class="cls-49" x1="1483.3" y1="398.47" x2="1496.67" y2="382.54"/></g><g class="cls-55"><line class="cls-49" x1="1487.26" y1="418.28" x2="1511.24" y2="393.46"/></g><g class="cls-55"><line class="cls-49" x1="1487.26" y1="418.28" x2="1457.44" y2="403.23"/></g><g class="cls-55"><line class="cls-49" x1="1492.51" y1="444.04" x2="1522.12" y2="412.93"/></g><g class="cls-55"><line class="cls-49" x1="1492.51" y1="444.04" x2="1452.49" y2="426.72"/></g><g class="cls-55"><line class="cls-49" x1="1498.45" y1="469.1" x2="1530.23" y2="437.6"/></g><g class="cls-55"><line class="cls-49" x1="1498.45" y1="469.1" x2="1457.44" y2="452.95"/></g><g class="cls-55"><line class="cls-49" x1="1503.2" y1="490.57" x2="1531.43" y2="457.21"/></g><g class="cls-55"><line class="cls-49" x1="1503.2" y1="490.57" x2="1454.37" y2="475.53"/></g><g class="cls-55"><line class="cls-49" x1="1509.64" y1="517.43" x2="1456.06" y2="502.48"/></g><g class="cls-55"><line class="cls-49" x1="1509.64" y1="517.43" x2="1531.43" y2="489.4"/></g><g class="cls-55"><line class="cls-49" x1="1518.04" y1="546.7" x2="1470.02" y2="533.61"/></g><g class="cls-55"><line class="cls-49" x1="1523.55" y1="562.79" x2="1478.02" y2="554.76"/></g><g class="cls-55"><line class="cls-49" x1="1523.55" y1="586.86" x2="1489.76" y2="577.83"/></g><circle class="cls-11" cx="665.09" cy="124.8" r="29.25"/><path class="cls-4" d="M438,9.87c0-.52-20.78,6.26-19.79,29.28C418.23,39.15,436.83,36.81,438,9.87Z" transform="translate(71.24 136.58)"/><path class="cls-4" d="M438,9.7c-.43.29,17.33,13.06,35.31-1.36C473.33,8.34,460.45-5.28,438,9.7Z" transform="translate(71.24 136.58)"/><path class="cls-4" d="M453.1,37.24c.07-.51-21.28,4.25-22.48,27.26C430.61,64.5,449.35,63.95,453.1,37.24Z" transform="translate(71.24 136.58)"/><path class="cls-4" d="M453.11,37.07c-.45.24,16,14.65,35.28,2C488.39,39.08,476.86,24.3,453.11,37.07Z" transform="translate(71.24 136.58)"/><path class="cls-4" d="M463.61,72.21c.07-.51-21.28,4.25-22.48,27.26C441.13,99.47,459.87,98.91,463.61,72.21Z" transform="translate(71.24 136.58)"/><path class="cls-4" d="M463.63,72c-.45.25,16,14.64,35.28,2C498.91,74,487.38,59.26,463.63,72Z" transform="translate(71.24 136.58)"/><path class="cls-4" d="M484,109.5c-.14-.5-17.68,12.58-9.37,34.07C474.66,143.57,491.53,135.41,484,109.5Z" transform="translate(71.24 136.58)"/><path class="cls-4" d="M484,109.34c-.32.41,20.6,6.82,33-12.59C517,96.75,500.43,88,484,109.34Z" transform="translate(71.24 136.58)"/><path class="cls-4" d="M507.68,133.61c-.25-.45-14.54,16.12-1.77,35.29C505.91,168.9,520.61,157.27,507.68,133.61Z" transform="translate(71.24 136.58)"/><path class="cls-4" d="M507.58,133.46c-.22.47,21.59,2.19,29.51-19.45C537.09,114,519,109,507.58,133.46Z" transform="translate(71.24 136.58)"/><path class="cls-4" d="M544.82,146.31c-.44-.27-4.71,21.19,15.86,31.58C560.67,177.89,567.73,160.53,544.82,146.31Z" transform="translate(71.24 136.58)"/><path class="cls-4" d="M544.66,146.23c0,.51,19.87-8.74,16.09-31.46C560.75,114.76,542.58,119.34,544.66,146.23Z" transform="translate(71.24 136.58)"/><path class="cls-4" d="M582.81,134.8c-.52,0,5.95,20.87,29,20.22C611.79,155,609.73,136.39,582.81,134.8Z" transform="translate(71.24 136.58)"/><path class="cls-4" d="M582.64,134.8c.28.43,13.31-17.14-.83-35.33C581.8,99.47,568,112.15,582.64,134.8Z" transform="translate(71.24 136.58)"/><path class="cls-4" d="M622.89,113.5c-.51-.09,3.49,21.42,26.44,23.45C649.33,136.95,649.45,118.21,622.89,113.5Z" transform="translate(71.24 136.58)"/><path class="cls-4" d="M669.87,112.61c-.41-.31-6.43,20.73,13.2,32.78C683.07,145.39,691.53,128.67,669.87,112.61Z" transform="translate(71.24 136.58)"/><path class="cls-4" d="M669.72,112.52c0,.52,20.52-7.07,18.63-30C688.35,82.49,669.86,85.55,669.72,112.52Z" transform="translate(71.24 136.58)"/><path class="cls-4" d="M623.26,113.51c.3.42,12.39-17.82-2.69-35.24C620.58,78.28,607.46,91.66,623.26,113.51Z" transform="translate(71.24 136.58)"/><path class="cls-56" d="M423.26-4.91s22.9,14,35.62,59.64c20,71.78,60.29,94.64,95.52,91.57S624.82,88.06,680,117.18" transform="translate(71.24 136.58)"/><polygon class="cls-39" points="915.16 131.68 878.03 149.43 956.89 144.11 908.45 228.21 979.65 147.09 934.42 273.54 999.82 155.86 972.21 296.53 1023.43 154.58 1012.92 307.7 1043.85 168.45 1051.44 291.62 1063.11 155.86 1093.17 223.48 1078.87 154.58 1171.67 234.02 1099.88 149.43 1202.6 193.33 1144.82 144.11 1200.85 131.68 915.16 131.68"/><path class="cls-9" d="M830,56.55c-1.24,2.67-8.65-23.25,4.25-43.62C834.29,12.93,840.89,33.16,830,56.55Z" transform="translate(71.24 136.58)"/><path class="cls-9" d="M829.72,57.06c-.37-2.92,19.69,15.09,19.6,39.21C849.32,96.26,833,82.64,829.72,57.06Z" transform="translate(71.24 136.58)"/><path class="cls-9" d="M863.16,44.92c-1.68,2.42-4.54-24.39,11.66-42.25C874.82,2.67,877.86,23.73,863.16,44.92Z" transform="translate(71.24 136.58)"/><path class="cls-9" d="M862.77,45.37c.13-2.94,16.82,18.24,12.6,42C875.37,87.35,861.59,71.13,862.77,45.37Z" transform="translate(71.24 136.58)"/><path class="cls-9" d="M890.5,54.52c-2.77,1,10.29-22.58,33.81-27.89C924.31,26.63,914.71,45.61,890.5,54.52Z" transform="translate(71.24 136.58)"/><path class="cls-9" d="M889.93,54.66c1.8-2.33,3.29,24.59-13.8,41.6C876.13,96.26,874.17,75.08,889.93,54.66Z" transform="translate(71.24 136.58)"/><path class="cls-9" d="M913,59.49c-1.9,2.26-2.26-24.71,15.53-41C928.58,18.5,929.65,39.75,913,59.49Z" transform="translate(71.24 136.58)"/><path class="cls-9" d="M912.61,59.89c.41-2.92,15.05,19.72,8.64,43C921.25,102.86,909,85.43,912.61,59.89Z" transform="translate(71.24 136.58)"/><path class="cls-9" d="M939.28,65.73c-2.54,1.49,6.15-24,28.37-33.41C967.65,32.32,961.54,52.7,939.28,65.73Z" transform="translate(71.24 136.58)"/><path class="cls-9" d="M938.74,66c1.36-2.61,7.57,23.63-6.26,43.38C932.48,109.35,926.82,88.84,938.74,66Z" transform="translate(71.24 136.58)"/><path class="cls-9" d="M962.14,76.28c-2.25,1.91,1.89-24.74,22.15-37.83C984.29,38.46,981.8,59.59,962.14,76.28Z" transform="translate(71.24 136.58)"/><path class="cls-9" d="M961.65,76.61c.89-2.81,11.55,22,1.36,43.81C963,120.42,953.88,101.2,961.65,76.61Z" transform="translate(71.24 136.58)"/><path class="cls-9" d="M988.37,85.85c-2,2.13-.64-24.8,18.17-39.89C1006.54,46,1006.22,67.24,988.37,85.85Z" transform="translate(71.24 136.58)"/><path class="cls-9" d="M987.91,86.23c.6-2.89,13.73,20.66,5.82,43.44C993.73,129.67,982.69,111.48,987.91,86.23Z" transform="translate(71.24 136.58)"/><path class="cls-9" d="M1018.64,85.12c-1.24,2.67-8.66-23.25,4.23-43.63C1022.86,41.49,1029.47,61.72,1018.64,85.12Z" transform="translate(71.24 136.58)"/><path class="cls-9" d="M1018.32,85.62c-.37-2.92,19.7,15.08,19.62,39.19C1037.94,124.82,1021.59,111.21,1018.32,85.62Z" transform="translate(71.24 136.58)"/><path class="cls-9" d="M1046.43,73.66c-.09,2.95-17.09-18-13.22-41.79C1033.21,31.87,1047.22,47.88,1046.43,73.66Z" transform="translate(71.24 136.58)"/><path class="cls-9" d="M1046.34,74.24c-1.49-2.54,24,6.15,33.42,28.36C1079.76,102.61,1059.38,96.5,1046.34,74.24Z" transform="translate(71.24 136.58)"/><path class="cls-9" d="M1067.79,49.08c1.08,2.74-22.82-9.75-28.69-33.13C1039.1,15.94,1058.31,25.09,1067.79,49.08Z" transform="translate(71.24 136.58)"/><path class="cls-9" d="M1067.94,49.65c-2.38-1.74,24.51-3.88,41.92,12.8C1109.86,62.45,1088.73,64.92,1067.94,49.65Z" transform="translate(71.24 136.58)"/><path class="cls-9" d="M1075.46,25.67c2.07,2.1-24.81,0-39.38-19.24C1036.07,6.43,1057.33,7.32,1075.46,25.67Z" transform="translate(71.24 136.58)"/><path class="cls-9" d="M1075.82,26.14c-2.87-.67,21-13.18,43.58-4.66C1119.4,21.48,1100.93,32,1075.82,26.14Z" transform="translate(71.24 136.58)"/><path class="cls-9" d="M1078.38,7.64c2.31,1.83-24.63,3-41.43-14.3C1036.95-6.66,1058.15-8.37,1078.38,7.64Z" transform="translate(71.24 136.58)"/><path class="cls-9" d="M1078.8,8.06c-2.93-.32,19.26-15.64,42.69-9.93C1121.49-1.87,1104.44,10.85,1078.8,8.06Z" transform="translate(71.24 136.58)"/><path class="cls-22" d="M916.67,133.31s-12,4.34-13.72,4.86-11.61,3.9-15.2,3.82c-1.92,0-10.12-4.47-13-6.38s-8.68-5-8.86-5.64-.91-3.86-1.35-3.78-.13,2.43-.56,2.73-2.91-1.43-3.21-1.13,2,2.08,1.87,2.48-2.73-.3-2.86.17,2.47,1.09,2.52,1.56-2.43,1.13-2.34,1.48,3-1,4.17,0l1.22,1s16.59,13.63,19.1,15.5,4.86,2.6,11.51,2.3,16.54-.3,18.06.07c2.11.51,2.65,4.32,1.35,7.32s-3.82,4.43-6.9,3.08-11.55-5.25-16.85-5.34-21.79,4.4-27.22,5.85-6.86,1.05-9.42-1.94-3.26-4.21-3.69-4,.7,2.3.22,2.69-2-1.3-2.34-.82,1.88,1.75,1.43,2.26c-.83.95-2.52-.17-2.78.39s4,3.25,5.54,5a8.27,8.27,0,0,0,7.05,3.27c4,0,24,.22,25.7.22,3.19,0,6.29,1.34,10.55,3.52,4.65,2.39,10.36,4.28,10.81,7.52.22,1.62.15,4.43-4.64,7.54-5.38,3.48-15.93,7.16-18.36,8.64s-14.28,17.11-15.76,18.54-3.56-.87-4.43-1.52-1.91-1.26-2.26-1,1.09,1,.65,1.43-1.82-.7-2.13-.26,1.52.91,1.26,1.43-1.69-.3-2,0,5.56,4.43,8.47,5.38,9.94-5.47,13.37-8.51,6.9-5,9.16-5.47,24.8-5.57,28.13-6.9c8.42-3.35,16.78-9.76,19.82-14.85A54.36,54.36,0,0,0,946,164.7c1-8.6.3-19.32.83-23.49s7.42-16.06,9.81-19.58,4.08-3.82,4.73-12.42S963,83,963,81.73V76.82l-5-.22s-2.6,16.89-3.26,20.67-2,9.44-2.6,12.16c-.75,3.53-4.6,6.73-7,8.38S916.67,133.31,916.67,133.31Z" transform="translate(71.24 136.58)"/><path class="cls-22" d="M931.69,113.85s2.7-3.57,5-1.45c2.54,2.36-1.71,5-1.93,5.11S931.69,113.85,931.69,113.85Z" transform="translate(71.24 136.58)"/><ellipse cx="934.56" cy="114.64" rx="1.82" ry="1.45" transform="translate(271.8 840.96) rotate(-45.77)"/><path class="cls-22" d="M909.21,124c-.06,0-4.47.14-4.07,3.23.45,3.44,5.1,1.52,5.29,1.38S909.21,124,909.21,124Z" transform="translate(71.24 136.58)"/><ellipse cx="908.23" cy="126.77" rx="1.82" ry="1.45" transform="translate(62.56 278.25) rotate(-8.88)"/><path class="cls-22" d="M910.51,129.66s-3.57-4-1.67-11,14.81-12.95,24-5.34c6.46,5.35,1.75,17.69-5.23,20.51S914,134.29,910.51,129.66Z" transform="translate(71.24 136.58)"/><path class="cls-39" d="M916.73,113.38s6.18-3.15,11.67-.76,4.61,10.17,3.91,13.28-3.82,6.27-8.52,7c-5.92.87-12.12-2.52-13.35-7.71S912.65,115.3,916.73,113.38Z" transform="translate(71.24 136.58)"/><circle class="cls-4" cx="996.6" cy="256.55" r="2.24"/><circle cx="996.6" cy="256.55" r="1.03"/><circle class="cls-4" cx="988.09" cy="259.99" r="2.24"/><circle cx="988.09" cy="259.99" r="1.03"/><path class="cls-22" d="M949.78,188.5a23,23,0,0,1-10.07-2.65,43.75,43.75,0,0,1-9.81-6.78,2.58,2.58,0,0,1,3.57-3.74c.14.13,14.11,13.24,22.64,5.55,3.73-3.36,2.71-8.94,1.64-14.85-1.19-6.57-2.54-14,3.74-18.29,4.11-2.8,10.09-2.61,15.87-2.42,11.77.38,13.24-1.15,13.67-4.48.39-3.08-1.92-5.06-6-8.3-5.56-4.37-13.18-10.35-10.83-23.43,1.56-8.65,9.91-14.82,10.27-15.08a2.58,2.58,0,0,1,3,4.18h0c-.07.05-7,5.23-8.23,11.82-1.81,10,3.41,14.11,8.93,18.45,4.31,3.38,8.76,6.88,8,13-1.22,9.57-11.06,9.25-19,9-5-.16-10.08-.32-12.79,1.53-3.34,2.28-2.77,6.46-1.56,13.1s2.6,14.33-3.27,19.62A14.25,14.25,0,0,1,949.78,188.5Z" transform="translate(71.24 136.58)"/><circle cx="992.83" cy="261.99" r="0.25"/><circle cx="993.67" cy="261.73" r="0.25"/><path class="cls-57" d="M805.4,76.16c18-16.35,52.82-43.53,82-23.87,21.59,14.54,10.83,56.1-6.42,50.57-16.92-5.42,12-41,25.1-42.16,45.27-4.11,63.4,41.7,123.14,21.79,41.82-13.94,54.29-62.69,47-102.91" transform="translate(71.24 136.58)"/><path class="cls-9" d="M707.73,54.73s11.9,91.57,147.76,91.57c0,0,10.12-50-97.75-111.27Z" transform="translate(71.24 136.58)"/><g class="cls-58"><polygon class="cls-11" points="926.73 282.89 796.83 171.63 753.49 191.32 845.17 307.7 931.54 296.53 926.73 282.89"/></g><path class="cls-30" d="M1318.22,292.27c-14.85,2.78-47.57.07-69.84-35.4s-22.55-56.73-23.1-77.87-1.93-41.53-8-58.58S1196.53,89.3,1185.68,72c-7.33-11.72-20.6-50.21,14.11-63.35s71.14,8.25,78,41.06,6.87,60.89,20.6,81.9c10.63,16.27,47.59,69.31,49,107.86S1333.07,289.49,1318.22,292.27Z" transform="translate(71.24 136.58)"/><g class="cls-59"><path class="cls-20" d="M1193,6.43s100,134.08,129.61,285.84" transform="translate(71.24 136.58)"/></g><g class="cls-59"><line class="cls-21" x1="1287.37" y1="178.08" x2="1293.3" y2="139.26"/></g><g class="cls-59"><line class="cls-21" x1="1287.37" y1="178.08" x2="1240.47" y2="164.51"/></g><g class="cls-59"><line class="cls-21" x1="1300.78" y1="198.6" x2="1311.85" y2="141.28"/></g><g class="cls-59"><line class="cls-21" x1="1300.78" y1="197.94" x2="1241.98" y2="188.61"/></g><g class="cls-59"><line class="cls-21" x1="1317.55" y1="228.21" x2="1336.96" y2="154.58"/></g><g class="cls-59"><line class="cls-21" x1="1317.55" y1="228.21" x2="1255.2" y2="219.07"/></g><g class="cls-59"><line class="cls-21" x1="1329.75" y1="251.35" x2="1353.85" y2="186.27"/></g><g class="cls-59"><line class="cls-21" x1="1329.75" y1="251.35" x2="1275.15" y2="250.18"/></g><g class="cls-59"><line class="cls-21" x1="1345.05" y1="283.16" x2="1363.55" y2="231.55"/></g><g class="cls-59"><line class="cls-21" x1="1345.05" y1="283.16" x2="1282.88" y2="277.82"/></g><g class="cls-59"><line class="cls-21" x1="1359.5" y1="315.59" x2="1379.54" y2="263.09"/></g><g class="cls-59"><line class="cls-21" x1="1359.5" y1="315.59" x2="1287.37" y2="307.7"/></g><g class="cls-59"><line class="cls-21" x1="1372.66" y1="354.01" x2="1399.66" y2="301.15"/></g><g class="cls-59"><line class="cls-21" x1="1372.66" y1="354.01" x2="1291.14" y2="337.48"/></g><g class="cls-59"><line class="cls-21" x1="1382.18" y1="383.8" x2="1413.36" y2="328.55"/></g><g class="cls-59"><line class="cls-21" x1="1382.18" y1="383.8" x2="1302.08" y2="369.52"/></g><g class="cls-59"><line class="cls-21" x1="1389.61" y1="409.36" x2="1425.33" y2="357.99"/></g><g class="cls-59"><line class="cls-21" x1="1389.61" y1="409.36" x2="1311.85" y2="406.08"/></g><ellipse class="cls-60" cx="512.33" cy="311.09" rx="3.42" ry="3.39"/><ellipse class="cls-60" cx="523.43" cy="322.34" rx="2.88" ry="2.04"/><ellipse class="cls-60" cx="564.89" cy="316.1" rx="5.26" ry="4.58"/><ellipse class="cls-60" cx="644.5" cy="703.75" rx="2.64" ry="2.33"/><ellipse class="cls-60" cx="657.45" cy="715.05" rx="3.41" ry="3.37"/><ellipse class="cls-60" cx="908.88" cy="715.46" rx="4.53" ry="5.02"/><ellipse class="cls-60" cx="889.44" cy="720.96" rx="2.48" ry="2.54"/><ellipse class="cls-60" cx="922.84" cy="735.48" rx="2.28" ry="2.25"/><ellipse class="cls-60" cx="1116.56" cy="638.45" rx="1.83" ry="2.19"/><ellipse class="cls-60" cx="1121.63" cy="476.64" rx="4.88" ry="4.53"/><ellipse class="cls-60" cx="1213.08" cy="366.23" rx="4.89" ry="4.51"/><ellipse class="cls-60" cx="1216.55" cy="381.23" rx="2.89" ry="2.66"/><ellipse class="cls-60" cx="1262.17" cy="251.5" rx="3.98" ry="4.27"/><ellipse class="cls-60" cx="1398.7" cy="254.78" rx="4.9" ry="4.6"/><ellipse class="cls-60" cx="866.27" cy="297.8" rx="3.34" ry="3.35"/><ellipse class="cls-60" cx="851.18" cy="288.7" rx="2.91" ry="2.92"/><path class="cls-9" d="M331.41,18.57a34.19,34.19,0,0,0-19.12,1.95c-9.41,4.13-3.52,12.25,5.16,8.82A32,32,0,0,0,331.41,18.57Z" transform="translate(71.24 136.58)"/><path class="cls-9" d="M331.41,18A34.18,34.18,0,0,1,347.75,7.91c10-2.47,10.26,7.56,1.29,10.14A32,32,0,0,1,331.41,18Z" transform="translate(71.24 136.58)"/><path class="cls-9" d="M359.86,28.71A34.18,34.18,0,0,1,376.2,18.59c10-2.47,10.26,7.56,1.3,10.14A32,32,0,0,1,359.86,28.71Z" transform="translate(71.24 136.58)"/><path class="cls-9" d="M343.93,48.47a34.19,34.19,0,0,0-18.86-3.73c-10.2,1.19-6.95,10.69,2.35,9.95A32,32,0,0,0,343.93,48.47Z" transform="translate(71.24 136.58)"/><path class="cls-9" d="M350.23,72a34.18,34.18,0,0,0-18.42,5.48c-8.47,5.81-1.17,12.69,6.71,7.71A32,32,0,0,0,350.23,72Z" transform="translate(71.24 136.58)"/><path class="cls-9" d="M367.21,91.63a34.18,34.18,0,0,0-16.41,10c-6.71,7.78,2.11,12.57,8.46,5.74A32,32,0,0,0,367.21,91.63Z" transform="translate(71.24 136.58)"/><path class="cls-9" d="M391.27,110.65a34.19,34.19,0,0,0-16.41,10c-6.71,7.78,2.11,12.57,8.46,5.74A32,32,0,0,0,391.27,110.65Z" transform="translate(71.24 136.58)"/><path class="cls-9" d="M411.45,141.64a34.19,34.19,0,0,0-16.58-9.73c-10-2.23-10.08,7.8-1.06,10.17A32,32,0,0,0,411.45,141.64Z" transform="translate(71.24 136.58)"/><path class="cls-9" d="M397.53,159.95a34.19,34.19,0,0,0-4-18.79c-5.14-8.89-12.57-2.15-8.2,6.1A32,32,0,0,0,397.53,159.95Z" transform="translate(71.24 136.58)"/><path class="cls-9" d="M363.79,159.95a34.19,34.19,0,0,0-4-18.79c-5.14-8.89-12.56-2.15-8.2,6.1A32,32,0,0,0,363.79,159.95Z" transform="translate(71.24 136.58)"/><path class="cls-9" d="M362.4,212.55a34.18,34.18,0,0,0-14.14,13c-5.05,8.94,4.53,11.91,9.42,4A32,32,0,0,0,362.4,212.55Z" transform="translate(71.24 136.58)"/><path class="cls-9" d="M348.39,193.13a34.19,34.19,0,0,0-18.79-4.07c-10.22,1-7.14,10.56,2.17,10A32,32,0,0,0,348.39,193.13Z" transform="translate(71.24 136.58)"/><path class="cls-9" d="M346.83,170.72a34.2,34.2,0,0,0-15-12.05c-9.59-3.68-11.11,6.24-2.53,9.9A32,32,0,0,0,346.83,170.72Z" transform="translate(71.24 136.58)"/><path class="cls-9" d="M377.13,221.4a25.75,25.75,0,0,0-8.55,11.9c-2.38,7.48,5.29,8.29,7.7,1.59A24.46,24.46,0,0,0,377.13,221.4Z" transform="translate(71.24 136.58)"/><path class="cls-9" d="M397.11,227a25.76,25.76,0,0,0-5.79,13.46c-.71,7.81,7,7,7.86-.11A24.45,24.45,0,0,0,397.11,227Z" transform="translate(71.24 136.58)"/><path class="cls-9" d="M412.2,228.7a25.75,25.75,0,0,0,.7,14.64c2.79,7.33,9.3,3.2,7-3.55A24.46,24.46,0,0,0,412.2,228.7Z" transform="translate(71.24 136.58)"/><path class="cls-9" d="M412.52,228.78a25.75,25.75,0,0,0,14.05,4.15c7.84-.22,6.07-7.73-1-7.79A24.46,24.46,0,0,0,412.52,228.78Z" transform="translate(71.24 136.58)"/><path class="cls-9" d="M412.18,228.17a25.75,25.75,0,0,0,9.27-11.35c2.83-7.32-4.77-8.59-7.59-2.05A24.45,24.45,0,0,0,412.18,228.17Z" transform="translate(71.24 136.58)"/><path class="cls-9" d="M397.17,227a25.75,25.75,0,0,0,7.32-12.7c1.62-7.68-6.1-7.71-7.82-.8A24.45,24.45,0,0,0,397.17,227Z" transform="translate(71.24 136.58)"/><path class="cls-9" d="M377.51,221.4a25.74,25.74,0,0,0,9.1-11.48c2.73-7.36-4.9-8.52-7.62-1.94A24.46,24.46,0,0,0,377.51,221.4Z" transform="translate(71.24 136.58)"/><path class="cls-9" d="M362.41,212.55a34.18,34.18,0,0,0,15.17-11.81c5.78-8.49-3.53-12.25-9.06-4.74A32,32,0,0,0,362.41,212.55Z" transform="translate(71.24 136.58)"/><path class="cls-9" d="M347.3,193a34.18,34.18,0,0,0,18.6,4.86c10.25-.58,7.58-10.25-1.75-10.07A32,32,0,0,0,347.3,193Z" transform="translate(71.24 136.58)"/><path class="cls-9" d="M347.49,170.91a34.19,34.19,0,0,0,17.48,8c10.2,1.2,9.23-8.79,0-10.22A32,32,0,0,0,347.49,170.91Z" transform="translate(71.24 136.58)"/><path class="cls-9" d="M364.34,159.95A34.19,34.19,0,0,0,366.68,179c4.32,9.32,12.32,3.27,8.72-5.33A32,32,0,0,0,364.34,159.95Z" transform="translate(71.24 136.58)"/><path class="cls-9" d="M397.54,159.95a34.19,34.19,0,0,0,1.3,19.18c3.81,9.54,12.13,3.93,9-4.86A32,32,0,0,0,397.54,159.95Z" transform="translate(71.24 136.58)"/><path class="cls-9" d="M412.52,141.35a34.19,34.19,0,0,0,18.58,4.91c10.26-.55,7.61-10.23-1.72-10.07A32,32,0,0,0,412.52,141.35Z" transform="translate(71.24 136.58)"/><path class="cls-9" d="M405.16,126.51a34.18,34.18,0,0,0,18.06-6.59c8.1-6.31.4-12.74-7.17-7.28A32,32,0,0,0,405.16,126.51Z" transform="translate(71.24 136.58)"/><path class="cls-9" d="M392.52,110.37A34.19,34.19,0,0,0,411.44,107c9.07-4.81,2.6-12.48-5.8-8.42A32,32,0,0,0,392.52,110.37Z" transform="translate(71.24 136.58)"/><path class="cls-9" d="M367.21,91.63a34.19,34.19,0,0,0,17.61-7.7c7.7-6.8-.39-12.74-7.61-6.83A32,32,0,0,0,367.21,91.63Z" transform="translate(71.24 136.58)"/><path class="cls-9" d="M350.23,71.89a34.18,34.18,0,0,0,19.22-.12c9.76-3.21,4.67-11.86-4.3-9.27A32,32,0,0,0,350.23,71.89Z" transform="translate(71.24 136.58)"/><path class="cls-9" d="M343.93,48.15A34.19,34.19,0,0,0,362.25,54c10.27,0,8.11-9.84-1.22-10.15A32,32,0,0,0,343.93,48.15Z" transform="translate(71.24 136.58)"/><path class="cls-61" d="M334.32-4.91s-9.13,30.62,5,38.63,22.95-1.9,19.82-6.6-19.57-4.17-15.16,22.56c3.16,19.16,12,33.85,27.94,45.28s45.9,33.34,38.86,54.2c-4.92,14.59-22.17,11.21-37.81,10.17-16.6-1.11-32.86,7.56-26.08,31.82s40.06,37,67.57,37.55" transform="translate(71.24 136.58)"/><path class="cls-9" d="M236.17,34.4c9.87,0,24.93,2.26,32.09,31.37s9.62,39.47,16.65,54.65C297.76,148.16,306.38,173.13,300,200c-5.25,22.18-14.38,56.8-38.85,58.8s-46.14-9.49-59.45-44.12S195.35,156,204,133.07s21.23-32.25,22-44.93c.27-4.6-9.38-10.1-12.38-17.13-5.25-12.34-7.55-21.9-10.05-29.27C203.49,41.74,215.94,34.4,236.17,34.4Z" transform="translate(71.24 136.58)"/><g class="cls-62"><path class="cls-22" d="M281.41,104.22c-1.32-1.07-42,84.48,9.73,140.5C291.14,244.72,335.62,148.26,281.41,104.22Z" transform="translate(71.24 136.58)"/></g><path class="cls-28" d="M268.26,65.77s-5.68,14.22-4.86,34-1,69-34.68,69.14-29.15-26.56-19.92-46.15c9-19,18.8-27,16.88-37.26C223.05,71.44,246.14,94.32,268.26,65.77Z" transform="translate(71.24 136.58)"/><ellipse class="cls-4" cx="238.67" cy="57.21" rx="4.97" ry="4.7" transform="translate(68.54 149.31) rotate(-3.04)"/><ellipse cx="238.67" cy="57.21" rx="2.49" ry="2.36" transform="translate(68.54 149.31) rotate(-3.04)"/><path class="cls-22" d="M237,261.78c2.37-5.26,5.49-11,9.79-10.61,7.55.69,6.24,15.93,5,20.19-.38,1.29-1.79,1-2-.42-.14-1.14-.44-7.26-2.08-7.39s-3.55,9.19-5.56,9.23c-3.29.07,2-10.31-.66-10.32-1.75,0-4.28,6.25-5.88,6S237,261.78,237,261.78Z" transform="translate(71.24 136.58)"/><path class="cls-22" d="M268.86,251.67c.26-2.3,2.43-5.21,5.32-5.56,5.07-.62,10.49,6.1,12.31,10.8,3,7.86-5.23-.66-6.41-.6-.34,0-.24.84-.23,1.06,0,.9,1,7.76.1,8-1.55.46-4.8-7.35-5.79-6.84-1.3.68,1,9.91-.25,10.55-1.13.56-2.77-2.95-3.36-4.54C267.31,255.89,268.86,251.67,268.86,251.67Z" transform="translate(71.24 136.58)"/><path class="cls-14" d="M208.63,39.43s-32.21,12-54.93,28.91-32,31.19-27.86,34.71,26.69-8.67,49.65-8.25,44.68-1.55,52.44-9.69S220.77,78.74,219.1,70c-1.78-9.34,9.16-9.89,6-21.22C223.12,41.8,214.7,39.11,208.63,39.43Z" transform="translate(71.24 136.58)"/><g class="cls-63"><path d="M146.49,66.8s17.84,12.55,17.79,32-39,9.75-39,9.75l-6.23-11.08Z" transform="translate(71.24 136.58)"/></g><g class="cls-63"><path class="cls-45" d="M157.09,85.89s31.49-15.42,68.06-17.69" transform="translate(71.24 136.58)"/></g><path class="cls-28" d="M-6.54,722.18S2.28,682.69,16.8,673s31.12-13.43,38.75-26.85S69,614.89,82.08,597.91c14.75-19.1,13.94-20.3,32.31-34.11,21.24-16,44.56-27.66,59.91-14.81s-25.37,43.2-29.52,74.57c-2.52,19.05-5.69,41-25.39,55.93-21.78,16.45-23.56,22.34-29.5,40.84-8.51,26.53-75.41,43.07-75.41,43.07L-4,752.83Z" transform="translate(71.24 136.58)"/><g class="cls-64"><path class="cls-48" d="M2.52,752.83s39.69-43.74,54.38-67,41.23-59,54.61-74.12c14.78-16.71,50.66-58.86,61.54-68.59" transform="translate(71.24 136.58)"/></g><g class="cls-64"><line class="cls-43" x1="84.47" y1="877.46" x2="67.67" y2="838.75"/></g><g class="cls-64"><line class="cls-43" x1="84.47" y1="877.46" x2="162.79" y2="892.71"/></g><g class="cls-64"><line class="cls-43" x1="94.55" y1="865.63" x2="80.48" y2="811.24"/></g><g class="cls-64"><line class="cls-43" x1="94.55" y1="865.63" x2="170.77" y2="875.49"/></g><g class="cls-64"><line class="cls-43" x1="96.86" y1="800.32" x2="107.36" y2="849.88"/></g><g class="cls-64"><line class="cls-43" x1="107.36" y1="849.88" x2="162.79" y2="854.62"/></g><g class="cls-64"><line class="cls-43" x1="123.21" y1="830.77" x2="116.1" y2="787.3"/></g><g class="cls-64"><line class="cls-43" x1="123.21" y1="830.77" x2="192.19" y2="826.36"/></g><g class="cls-64"><line class="cls-43" x1="144.05" y1="798.57" x2="133.18" y2="760.64"/></g><g class="cls-64"><line class="cls-43" x1="135.46" y1="811.24" x2="210.67" y2="806.62"/></g><g class="cls-64"><line class="cls-43" x1="157.33" y1="779.54" x2="145.24" y2="734.49"/></g><g class="cls-64"><line class="cls-43" x1="150.52" y1="789.74" x2="219.06" y2="782.05"/></g><g class="cls-64"><line class="cls-43" x1="172.92" y1="759.49" x2="162.79" y2="714.65"/></g><g class="cls-64"><line class="cls-43" x1="164.58" y1="771.32" x2="228.04" y2="762.53"/></g><g class="cls-64"><line class="cls-43" x1="185.81" y1="745.18" x2="178.75" y2="699.24"/></g><g class="cls-64"><line class="cls-43" x1="182.75" y1="748.25" x2="235.23" y2="749.3"/></g><g class="cls-64"><line class="cls-43" x1="197.53" y1="731.54" x2="192.19" y2="681.69"/></g><g class="cls-64"><line class="cls-43" x1="192.19" y1="737.07" x2="238.1" y2="737.07"/></g><g class="cls-64"><line class="cls-43" x1="210.67" y1="716.68" x2="203.74" y2="679.66"/></g><g class="cls-64"><line class="cls-43" x1="210.67" y1="716.68" x2="249.02" y2="720.49"/></g><g class="cls-64"><line class="cls-43" x1="222.45" y1="702.99" x2="221.9" y2="673.5"/></g><g class="cls-64"><line class="cls-43" x1="221.9" y1="702.99" x2="258.44" y2="706.46"/></g><g class="cls-64"><line class="cls-43" x1="235.23" y1="689.67" x2="235.23" y2="671.61"/></g><g class="cls-64"><line class="cls-43" x1="235.23" y1="689.23" x2="252.87" y2="692.61"/></g><g class="cls-65"><line class="cls-66" x1="640.89" y1="126.63" x2="543.5" y2="144.48"/><line class="cls-66" x1="639.09" y1="137.94" x2="558.08" y2="184.72"/><line class="cls-66" x1="645.68" y1="145.89" x2="585.54" y2="217.55"/><line class="cls-66" x1="654.58" y1="151.1" x2="622.58" y2="239.01"/><line class="cls-66" x1="664.73" y1="152.95" x2="664.73" y2="246.5"/><line class="cls-66" x1="674.9" y1="151.22" x2="706.89" y2="239.13"/><line class="cls-66" x1="683.86" y1="146.12" x2="743.99" y2="217.78"/><line class="cls-66" x1="690.54" y1="138.26" x2="771.56" y2="185.03"/><line class="cls-66" x1="694.12" y1="128.59" x2="786.25" y2="144.83"/></g><path class="cls-67" d="M724.26,0" transform="translate(71.24 136.58)"/><path class="cls-67" d="M724.26,0" transform="translate(71.24 136.58)"/><path class="cls-67" d="M724.26,0" transform="translate(71.24 136.58)"/><path class="cls-67" d="M724.26,0" transform="translate(71.24 136.58)"/><path class="cls-67" d="M724.26,0" transform="translate(71.24 136.58)"/><path class="cls-67" d="M724.26,0" transform="translate(71.24 136.58)"/><path class="cls-67" d="M724.26,0" transform="translate(71.24 136.58)"/><path class="cls-67" d="M724.26,0" transform="translate(71.24 136.58)"/><path class="cls-67" d="M724.26,0" transform="translate(71.24 136.58)"/><path class="cls-67" d="M724.26,0" transform="translate(71.24 136.58)"/><path class="cls-67" d="M724.26,0" transform="translate(71.24 136.58)"/><path class="cls-67" d="M724.26,0" transform="translate(71.24 136.58)"/><path class="cls-67" d="M724.26,0" transform="translate(71.24 136.58)"/><circle class="cls-39" cx="795.5" cy="135.52" r="63.66"/><path class="cls-67" d="M735.32-62.69" transform="translate(71.24 136.58)"/><g class="cls-68"><line class="cls-69" x1="795.5" y1="136.58" x2="733.47" y2="150.9"/><line class="cls-69" x1="795.5" y1="136.58" x2="738.28" y2="164.49"/><line class="cls-69" x1="795.5" y1="136.58" x2="746.03" y2="176.65"/><line class="cls-69" x1="795.5" y1="136.58" x2="756.31" y2="186.75"/><line class="cls-69" x1="795.5" y1="136.58" x2="768.6" y2="194.28"/><line class="cls-69" x1="795.5" y1="136.58" x2="782.27" y2="198.85"/><line class="cls-69" x1="795.5" y1="136.58" x2="796.61" y2="200.24"/><line class="cls-69" x1="795.5" y1="136.58" x2="810.9" y2="198.35"/><line class="cls-69" x1="795.5" y1="136.58" x2="824.4" y2="193.31"/><line class="cls-69" x1="795.5" y1="136.58" x2="836.42" y2="185.35"/><line class="cls-69" x1="795.5" y1="136.58" x2="846.34" y2="174.9"/><line class="cls-69" x1="795.5" y1="136.58" x2="853.66" y2="162.48"/><line class="cls-69" x1="795.5" y1="136.58" x2="858" y2="148.73"/><line class="cls-69" x1="795.5" y1="136.58" x2="859.13" y2="134.36"/><line class="cls-69" x1="795.5" y1="136.58" x2="732" y2="141.02"/></g><circle class="cls-11" cx="795.5" cy="135.52" r="16.53"/><g class="cls-70"><line class="cls-45" x1="1390.99" y1="613.47" x2="1393.99" y2="784.18"/></g><g class="cls-71"><polygon class="cls-28" points="1373.53 588.31 1391.21 628.93 1404.58 587.92 1400.76 586.75 1390.04 590.42 1376.53 586.98 1373.53 588.31"/></g><polygon class="cls-14" points="1403.8 661.99 1388.68 661.99 1384.68 629.82 1407.85 629.82 1403.8 661.99"/><ellipse class="cls-4" cx="1396.27" cy="629.82" rx="11.58" ry="3.12"/><path class="cls-72" d="M1306.5,521c1.19-2.81,2.07-8.52,9-11l.59,4.07s11.9.44,16.52-6.31,1.26,8.39-1.5,14.26-11.19,7.3-13,8.43-9.44,6.88-10.62,8.56-8.81-8.94-8.81-8.94S1305.31,523.84,1306.5,521Z" transform="translate(71.24 136.58)"/><path class="cls-72" d="M1342.8,526.22c-1.19-2.81-2.07-8.52-9-11l-.59,4.07s-11.9.44-16.52-6.31-1.26,8.39,1.5,14.26,11.19,7.3,13,8.43,9.44,6.88,10.63,8.56,8.81-8.94,8.81-8.94S1344,529,1342.8,526.22Z" transform="translate(71.24 136.58)"/><path class="cls-73" d="M1302.09,518.1l28.47,22.76s-32.93,37.5-53.46,49.85c-18,10.81-23.62,4.91-25.69-2.6-1.31-4.75,2.56-19.6,18-38A249.3,249.3,0,0,1,1302.09,518.1Z" transform="translate(71.24 136.58)"/><path class="cls-73" d="M1348,514.84l-28.47,22.76s32.93,37.5,53.46,49.85c18,10.81,23.69,4.62,25.76-2.89,1.31-4.75-2.63-19.32-18.06-37.73A249.26,249.26,0,0,0,1348,514.84Z" transform="translate(71.24 136.58)"/><path class="cls-22" d="M958.29,74.85a3.11,3.11,0,0,1,2.7-1,3,3,0,0,1,2.36,3.37c-.18.79-.57.86-.67.79-.39-.23-.36-2-1-2.07s-.84,2.2-1.61,2.11.27-2.09-.29-2.25-1.73,1.8-2.31,1.49S957.75,75.33,958.29,74.85Z" transform="translate(71.24 136.58)"/><ellipse class="cls-60" cx="299.96" cy="430.46" rx="3.84" ry="3.74"/></g></svg>