<?xml version="1.0" encoding="utf-8"?>
<!-- Generator: Adobe Illustrator 17.0.0, SVG Export Plug-In . SVG Version: 6.00 Build 0)  -->
<!DOCTYPE svg PUBLIC "-//W3C//DTD SVG 1.1//EN" "http://www.w3.org/Graphics/SVG/1.1/DTD/svg11.dtd">
<svg version="1.1" id="Layer_1" xmlns="http://www.w3.org/2000/svg" xmlns:xlink="http://www.w3.org/1999/xlink" x="0px" y="0px"
	 width="1440px" height="750px" viewBox="0 0 1440 750" enable-background="new 0 0 1440 750" xml:space="preserve">
<g enable-background="new    ">
	<g>
		<defs>
			<rect id="SVGID_1_" x="0" y="0" width="1440" height="750"/>
		</defs>
		<clipPath id="SVGID_2_">
			<use xlink:href="#SVGID_1_"  overflow="visible"/>
		</clipPath>
		<g clip-path="url(#SVGID_2_)">
			<defs>
				<rect id="SVGID_3_" x="0" y="0" width="1440" height="750"/>
			</defs>
			<clipPath id="SVGID_4_">
				<use xlink:href="#SVGID_3_"  overflow="visible"/>
			</clipPath>
			<rect x="0" y="0" clip-path="url(#SVGID_4_)" fill="#FFFFFF" width="1440" height="750"/>
		</g>
	</g>
</g>
<rect x="0" y="0" fill="#FFFFFF" width="1440" height="750"/>
<g>
	<defs>
		<rect id="SVGID_5_" x="0" y="0" width="1440" height="750"/>
	</defs>
	<clipPath id="SVGID_6_">
		<use xlink:href="#SVGID_5_"  overflow="visible"/>
	</clipPath>
	<g clip-path="url(#SVGID_6_)">
		<defs>
			<rect id="SVGID_7_" x="-34.837" y="-232.777" width="1509.673" height="1209.039"/>
		</defs>
		<clipPath id="SVGID_8_">
			<use xlink:href="#SVGID_7_"  overflow="visible"/>
		</clipPath>
		<g clip-path="url(#SVGID_8_)">
			
				<image overflow="visible" width="929" height="744" xlink:href="5D200A491FF06489.jpg"  transform="matrix(1.6251 0 0 1.6251 -34.8366 -232.7775)">
			</image>
		</g>
	</g>
</g>
<rect x="0" y="0" fill="none" stroke="#000000" stroke-linejoin="round" width="1440" height="750"/>
<rect x="0.001" y="-0.001" fill="#36777E" width="1440" height="753.84"/>
<rect x="432.096" y="203.656" opacity="0.2" fill="#FFFFFF" width="600.543" height="353.713"/>
<path fill="#2C5E5E" d="M1246.071-26.717c0,0,61.35,50.686,78.74,122.539c0,0-75.457-4.189-124.979-100.679L1246.071-26.717z"/>
<g>
	<defs>
		<path id="SVGID_9_" d="M1246.071-26.717c0,0,61.35,50.686,78.74,122.539c0,0-75.457-4.189-124.979-100.679L1246.071-26.717z"/>
	</defs>
	<clipPath id="SVGID_10_">
		<use xlink:href="#SVGID_9_"  overflow="visible"/>
	</clipPath>
	<path clip-path="url(#SVGID_10_)" fill="#193534" d="M1324.811,95.821c0,0-88.372-93.183-104.964-115.696l35.768-22.21
		l79.107,91.164L1324.811,95.821z"/>
</g>
<path fill="#2C5E5E" d="M1145.962-22.594c0,0-49.097,82.487-33.83,168.08c0,0,89.911-38.522,101.327-165.251L1145.962-22.594z"/>
<g>
	<defs>
		<path id="SVGID_11_" d="M1145.962-22.594c0,0-49.097,82.487-33.83,168.08c0,0,89.911-38.522,101.327-165.251L1145.962-22.594z"/>
	</defs>
	<clipPath id="SVGID_12_">
		<use xlink:href="#SVGID_11_"  overflow="visible"/>
	</clipPath>
	<path clip-path="url(#SVGID_12_)" fill="#193534" d="M1112.132,145.486c0,0,60.482-140.65,69.29-172.487l-54.903-7.924
		l-50.206,134.29L1112.132,145.486z"/>
</g>
<path fill="none" stroke="#FFFFFF" stroke-width="7.5" d="M1318.943,278.225c0,0,23.532,65.849,28.498,119.87"/>
<path fill="none" stroke="#FFFFFF" stroke-width="7.5" d="M1284.663,300.607c0,0,42.841,51.663,60.352,92.755"/>
<g>
	<circle fill="#F36569" cx="1357.322" cy="-1.066" r="50.995"/>
	<path fill="none" stroke="#424242" stroke-width="2.2706" stroke-miterlimit="10" d="M1366.177-50.433"/>
	<g>
		<defs>
			<circle id="SVGID_13_" cx="1357.322" cy="-1.066" r="50.995"/>
		</defs>
		<use xlink:href="#SVGID_13_"  overflow="visible" fill="#F36569"/>
		<clipPath id="SVGID_14_">
			<use xlink:href="#SVGID_13_"  overflow="visible"/>
		</clipPath>
		<g clip-path="url(#SVGID_14_)">
			<line fill="none" stroke="#000000" stroke-miterlimit="10" x1="1357.322" y1="-0.213" x2="1307.634" y2="11.259"/>
			<line fill="none" stroke="#000000" stroke-miterlimit="10" x1="1357.322" y1="-0.213" x2="1311.488" y2="22.142"/>
			<line fill="none" stroke="#000000" stroke-miterlimit="10" x1="1357.322" y1="-0.213" x2="1317.692" y2="31.879"/>
			<line fill="none" stroke="#000000" stroke-miterlimit="10" x1="1357.322" y1="-0.213" x2="1325.927" y2="39.972"/>
			<line fill="none" stroke="#000000" stroke-miterlimit="10" x1="1357.322" y1="-0.213" x2="1335.771" y2="46.004"/>
			<line fill="none" stroke="#000000" stroke-miterlimit="10" x1="1357.322" y1="-0.213" x2="1346.72" y2="49.668"/>
			
				<line fill="none" stroke="#424242" stroke-width="1.8392" stroke-miterlimit="10" x1="1357.322" y1="-0.213" x2="1358.212" y2="50.774"/>
			
				<line fill="none" stroke="#424242" stroke-width="1.8392" stroke-miterlimit="10" x1="1357.322" y1="-0.213" x2="1369.659" y2="49.267"/>
			
				<line fill="none" stroke="#424242" stroke-width="1.8392" stroke-miterlimit="10" x1="1357.322" y1="-0.213" x2="1380.473" y2="45.224"/>
			
				<line fill="none" stroke="#424242" stroke-width="1.8392" stroke-miterlimit="10" x1="1357.322" y1="-0.213" x2="1390.101" y2="38.852"/>
			
				<line fill="none" stroke="#424242" stroke-width="1.8392" stroke-miterlimit="10" x1="1357.322" y1="-0.213" x2="1398.048" y2="30.477"/>
			
				<line fill="none" stroke="#424242" stroke-width="1.8392" stroke-miterlimit="10" x1="1357.322" y1="-0.213" x2="1403.908" y2="20.529"/>
			
				<line fill="none" stroke="#424242" stroke-width="1.8392" stroke-miterlimit="10" x1="1357.322" y1="-0.213" x2="1407.38" y2="9.518"/>
			
				<line fill="none" stroke="#424242" stroke-width="1.8392" stroke-miterlimit="10" x1="1357.322" y1="-0.213" x2="1408.286" y2="-1.992"/>
			<line fill="none" stroke="#000000" stroke-miterlimit="10" x1="1357.322" y1="-0.213" x2="1306.451" y2="3.345"/>
		</g>
	</g>
	<circle cx="1357.322" cy="-1.066" r="13.24"/>
</g>
<path fill="none" stroke="#FFFFFF" stroke-width="7.5" d="M1374.714,290.133c0,0-13.838,85.053-25.813,113.639"/>
<path fill="#2C5E5E" d="M1373.302,300.604c-15.808-0.279-28.16-11.709-39.738-39.858c-15.102-36.715-3.593-101.044,3.758-124.555
	c7.589-24.27,16.769-35.723,16.769-53.706c0-17.982-3.22-68.303,5.926-87.393s83.896-1.805,83.896-1.805l1.25,68.733
	c0,0-11.249,35.237-10.75,58.396c0.5,23.159-5.62,107.945-15.286,130.664C1410.543,271.255,1393.616,300.962,1373.302,300.604z"/>
<g>
	<defs>
		<path id="SVGID_15_" d="M1373.302,300.604c-15.808-0.279-28.16-11.709-39.738-39.858c-15.102-36.715-3.593-101.044,3.758-124.555
			c7.589-24.27,16.769-35.723,16.769-53.706c0-17.982-3.22-68.303,5.926-87.393s83.896-1.805,83.896-1.805l1.25,68.733
			c0,0-11.249,35.237-10.75,58.396c0.5,23.159-5.62,107.945-15.286,130.664C1410.543,271.255,1393.616,300.962,1373.302,300.604z"/>
	</defs>
	<clipPath id="SVGID_16_">
		<use xlink:href="#SVGID_15_"  overflow="visible"/>
	</clipPath>
	<path clip-path="url(#SVGID_16_)" fill="none" stroke="#000000" stroke-width="1.5" d="M1417.229-17.596
		c0,0-12.345,65.657-15.683,96.299c-3.338,30.643-11.729,87.338-15.832,100.298c-4.102,12.96-7.274,52.044-9.137,74.421
		c-1.863,22.377-2.051,42.29-5.781,54.078"/>
	
		<line clip-path="url(#SVGID_16_)" fill="none" stroke="#000000" stroke-width="1.5" stroke-linecap="round" stroke-linejoin="round" x1="1409.387" y1="26.63" x2="1367.779" y2="-20.427"/>
	
		<line clip-path="url(#SVGID_16_)" fill="none" stroke="#000000" stroke-width="1.5" stroke-linecap="round" stroke-linejoin="round" x1="1409.387" y1="26.63" x2="1460.075" y2="2.672"/>
	
		<line clip-path="url(#SVGID_16_)" fill="none" stroke="#000000" stroke-width="1.5" stroke-linecap="round" stroke-linejoin="round" x1="1403.41" y1="66.53" x2="1350.193" y2="4.699"/>
	
		<line clip-path="url(#SVGID_16_)" fill="none" stroke="#000000" stroke-width="1.5" stroke-linecap="round" stroke-linejoin="round" x1="1403.41" y1="66.53" x2="1451.915" y2="41.492"/>
	
		<line clip-path="url(#SVGID_16_)" fill="none" stroke="#000000" stroke-width="1.5" stroke-linecap="round" stroke-linejoin="round" x1="1397.548" y1="112.411" x2="1346.055" y2="38.456"/>
	
		<line clip-path="url(#SVGID_16_)" fill="none" stroke="#000000" stroke-width="1.5" stroke-linecap="round" stroke-linejoin="round" x1="1397.548" y1="112.411" x2="1447.777" y2="78.704"/>
	
		<line clip-path="url(#SVGID_16_)" fill="none" stroke="#000000" stroke-width="1.5" stroke-linecap="round" stroke-linejoin="round" x1="1392.836" y1="143.575" x2="1346.055" y2="89.423"/>
	
		<line clip-path="url(#SVGID_16_)" fill="none" stroke="#000000" stroke-width="1.5" stroke-linecap="round" stroke-linejoin="round" x1="1392.836" y1="143.576" x2="1450.076" y2="110.649"/>
	
		<line clip-path="url(#SVGID_16_)" fill="none" stroke="#000000" stroke-width="1.5" stroke-linecap="round" stroke-linejoin="round" x1="1386.293" y1="177.889" x2="1451.915" y2="141.013"/>
	
		<line clip-path="url(#SVGID_16_)" fill="none" stroke="#000000" stroke-width="1.5" stroke-linecap="round" stroke-linejoin="round" x1="1386.293" y1="177.889" x2="1337.322" y2="122.776"/>
	
		<line clip-path="url(#SVGID_16_)" fill="none" stroke="#000000" stroke-width="1.5" stroke-linecap="round" stroke-linejoin="round" x1="1380.836" y1="210.525" x2="1326.164" y2="150.203"/>
	
		<line clip-path="url(#SVGID_16_)" fill="none" stroke="#000000" stroke-width="1.5" stroke-linecap="round" stroke-linejoin="round" x1="1380.836" y1="210.525" x2="1445.163" y2="176.482"/>
	
		<line clip-path="url(#SVGID_16_)" fill="none" stroke="#000000" stroke-width="1.5" stroke-linecap="round" stroke-linejoin="round" x1="1378.098" y1="241.925" x2="1322.568" y2="180.215"/>
	
		<line clip-path="url(#SVGID_16_)" fill="none" stroke="#000000" stroke-width="1.5" stroke-linecap="round" stroke-linejoin="round" x1="1378.098" y1="241.925" x2="1440" y2="212.549"/>
	
		<line clip-path="url(#SVGID_16_)" fill="none" stroke="#000000" stroke-width="1.5" stroke-linecap="round" stroke-linejoin="round" x1="1374.714" y1="269.5" x2="1435.701" y2="237.977"/>
	
		<line clip-path="url(#SVGID_16_)" fill="none" stroke="#000000" stroke-width="1.5" stroke-linecap="round" stroke-linejoin="round" x1="1374.714" y1="269.5" x2="1316.356" y2="221.403"/>
</g>
<path fill="#254C4B" d="M1289.175,312.091c0,0-59.57-66.409-124.786-103.694c-65.216-37.284-112.545-37.284-149.003-37.284
	c0,0-9.022-79.847,94.478-56.349c94.375,21.427,142.069,82.204,160.69,110.365C1289.175,253.289,1293.688,285.769,1289.175,312.091z
	"/>
<g>
	<defs>
		<path id="SVGID_17_" d="M1289.175,312.091c0,0-59.57-66.409-124.786-103.694c-65.216-37.284-112.545-37.284-149.003-37.284
			c0,0-9.022-79.847,94.478-56.349c94.375,21.427,142.069,82.204,160.69,110.365
			C1289.175,253.289,1293.688,285.769,1289.175,312.091z"/>
	</defs>
	<clipPath id="SVGID_18_">
		<use xlink:href="#SVGID_17_"  overflow="visible"/>
	</clipPath>
	
		<line clip-path="url(#SVGID_18_)" fill="none" stroke="#000000" stroke-width="1.5" stroke-linecap="round" stroke-linejoin="round" x1="1015.386" y1="136.191" x2="1050.503" y2="181.572"/>
	
		<line clip-path="url(#SVGID_18_)" fill="none" stroke="#000000" stroke-width="1.5" stroke-linecap="round" stroke-linejoin="round" x1="1032.639" y1="110.436" x2="1073.808" y2="184.096"/>
	
		<line clip-path="url(#SVGID_18_)" fill="none" stroke="#000000" stroke-width="1.5" stroke-linecap="round" stroke-linejoin="round" x1="1066.381" y1="99.471" x2="1102.234" y2="191.961"/>
	
		<line clip-path="url(#SVGID_18_)" fill="none" stroke="#000000" stroke-width="1.5" stroke-linecap="round" stroke-linejoin="round" x1="1106.588" y1="103.364" x2="1131.359" y2="208.397"/>
	
		<line clip-path="url(#SVGID_18_)" fill="none" stroke="#000000" stroke-width="1.5" stroke-linecap="round" stroke-linejoin="round" x1="1149.356" y1="113.597" x2="1168.051" y2="225.129"/>
	
		<line clip-path="url(#SVGID_18_)" fill="none" stroke="#000000" stroke-width="1.5" stroke-linecap="round" stroke-linejoin="round" x1="1190.843" y1="136.95" x2="1199.788" y2="248.117"/>
	
		<line clip-path="url(#SVGID_18_)" fill="none" stroke="#000000" stroke-width="1.5" stroke-linecap="round" stroke-linejoin="round" x1="1230.839" y1="164.57" x2="1230.839" y2="269.5"/>
	
		<line clip-path="url(#SVGID_18_)" fill="none" stroke="#000000" stroke-width="1.5" stroke-linecap="round" stroke-linejoin="round" x1="1265.623" y1="203.656" x2="1255.891" y2="296.826"/>
	
		<line clip-path="url(#SVGID_18_)" fill="none" stroke="#000000" stroke-width="1.5" stroke-linecap="round" stroke-linejoin="round" x1="1290.796" y1="252.766" x2="1278.428" y2="314.547"/>
</g>
<path fill="#2C5E5E" d="M693.259,47.389c0,0-39.822,66.903-27.439,136.325c0,0,72.924-31.244,82.184-134.031L693.259,47.389z"/>
<g>
	<defs>
		<path id="SVGID_19_" d="M693.259,47.389c0,0-39.822,66.903-27.439,136.325c0,0,72.924-31.244,82.184-134.031L693.259,47.389z"/>
	</defs>
	<clipPath id="SVGID_20_">
		<use xlink:href="#SVGID_19_"  overflow="visible"/>
	</clipPath>
	<path clip-path="url(#SVGID_20_)" fill="#193534" d="M665.82,183.714c0,0,49.055-114.077,56.199-139.9l-44.531-6.427
		l-40.721,108.92L665.82,183.714z"/>
</g>
<circle fill="#F36569" cx="593.847" cy="-16.862" r="119.723"/>
<path fill="#F36569" d="M1447.414,722.535c0,0-11.218-1.503-25.887,6.781c-14.669,8.284-20.457,2.599-18.466-4.142
	c1.991-6.741,8.974-11.39,19.501-14.497c10.528-3.106,13.349-11.854,10.678-16.573c-3.963-7.004-11.111-7.243-26.382-3.964
	c-15.271,3.279-42.799,5.113-49.099-2.934c-6.299-8.047,4.582-23.643,20.339-17.776c15.757,5.868,28.415,4.487,32.729-3.624
	c4.315-8.111-3.797-14.343-14.151-15.877c-10.355-1.534-35.248,2.313-38.917-7.665c-3.668-9.978,16.955-25.47,16.955-25.47
	s14.163,13.936,24.205,17.43c9.096,3.166,15.13,0.272,15.015-7.766c-0.139-9.619-20.542-24.237-32.328-31.509
	c-26.054-16.075-86.888-173.347-86.888-173.347s-8.223-9.431-16.193-2.334c-7.971,7.097-25.614,24.448-32.38,17.659
	c-6.409-6.431-0.989-14.832,9.842-26.809c10.873-12.023,4.588-20.789-2.553-23.149c-7.673-2.536-16.021,6.591-27.579,11.126
	c-9.045,3.548-18.772-37.577-18.772-37.577s11.187-12.324,9.508-20.382c-1.325-6.361-8.392-8.674-16.803-6.813
	c-4.313,0.954-17.721,7.657-22.821,7.861c-8.536,0.342-14.946-6.819-12.408-13.286c4.481-11.423,25.252-4.747,30.521-8.608
	c9.827-7.199-5.031-13.606-12.805-18.683c-11.531-7.53-16.734-20.565-7.176-26.137c8.633-5.032,19.795,4.193,24.689,15.663
	c4.741,11.111,6.342,19.449,14.153,18.877c7.811-0.572,7.049-13.959,6.477-20.982c-0.571-7.023-1.229-21.621,10.421-22.45
	c8.758-0.624,11.406,11.429,5.614,26.692c-2.859,7.536-6.064,27.02,3.144,27.02s9.208-14.86,9.398-18.662
	c0.191-3.802,2.065-14.705,11.812-12.6s9.716,15.215,2.477,26.519c-7.24,11.304-11.612,29.516,3.576,30.039
	c13.269,0.457,19.564-23.316,29.154-16.689c6.639,4.588-4.135,21.594-8.648,28.076c-4.512,6.482-4.587,13.247,1.809,15.247
	c6.878,2.15,9.221,0,18.347-6.219c10.349-7.053,22.449,1.206,22.449,14.783c0,13.577,17.47,41.056,17.47,41.056
	s12.082-4.85,23.559-1.507c11.477,3.343-4,9.804-4,9.804s3.942,29.934,5.828,38.76c1.886,8.826,15.953,15.724,21.027,4.382
	c5.073-11.343,8.635-32.703,22.029-27.815c12.429,4.536-4.095,25.956-8.573,33.652c-3.949,6.787-7.031,15.081-0.723,17.737
	c6.178,2.601,15.011-10.757,19.393-17.737c4.381-6.98,10.668-15.865,19.622-7.932s-11.291,30.537-17.902,38.303
	c-4.064,4.774-6.674,11.283-2.292,14.657c4.382,3.373,14.479-4.997,19.813-6.666c5.335-1.669,10.369,115.81,10.369,115.81
	L1447.414,722.535z"/>
<path fill="none" stroke="#000000" stroke-width="2" stroke-linecap="round" d="M1214.058,319.29c0,0,166.607,164.39,232.251,297.55
	"/>
<path fill="#193534" d="M1090.767,761.177c0,0-12.61-29.867-4.278-64.923c8.331-35.056,2.026-74.083,0.225-87.694
	c-1.802-13.61,3.155-42.761-0.225-59.799c-5.13-25.856-27.922-53.989-28.598-84.148c-0.676-30.159,5.574-72.635,15.87-104.096
	c10.295-31.461,16.863-66.67,6.403-91.017c-14.203-33.064-16.202-65.844-11.854-65.844c12.718,0,32.077,8.63,47.586,32.649
	c13.15,20.367,4.397,35.348,3.72,53.828s7.773,17.855,17.326,23.056c13.224,7.199,17.984,19.672,14.602,35.005
	c-2.769,12.553-18.409,26.57-12.988,38.776c5.111,11.505,15.496,8.142,19.688,31.208c4.192,23.066-0.292,42.151-10.797,72.1
	c-10.505,29.948-10.505,267.99-10.505,267.99L1090.767,761.177z"/>
<g>
	<defs>
		<path id="SVGID_21_" d="M1090.767,761.177c0,0-12.61-29.867-4.278-64.923c8.331-35.056,2.026-74.083,0.225-87.694
			c-1.802-13.61,3.155-42.761-0.225-59.799c-5.13-25.856-27.922-53.989-28.598-84.148c-0.676-30.159,5.574-72.635,15.87-104.096
			c10.295-31.461,16.863-66.67,6.403-91.017c-14.203-33.064-16.202-65.844-11.854-65.844c12.718,0,32.077,8.63,47.586,32.649
			c13.15,20.367,4.397,35.348,3.72,53.828s7.773,17.855,17.326,23.056c13.224,7.199,17.984,19.672,14.602,35.005
			c-2.769,12.553-18.409,26.57-12.988,38.776c5.111,11.505,15.496,8.142,19.688,31.208c4.192,23.066-0.292,42.151-10.797,72.1
			c-10.505,29.948-10.505,267.99-10.505,267.99L1090.767,761.177z"/>
	</defs>
	<clipPath id="SVGID_22_">
		<use xlink:href="#SVGID_21_"  overflow="visible"/>
	</clipPath>
	
		<line clip-path="url(#SVGID_22_)" fill="none" stroke="#000000" stroke-linecap="round" stroke-linejoin="round" x1="1065.082" y1="245.958" x2="1101.858" y2="208.397"/>
	
		<line clip-path="url(#SVGID_22_)" fill="none" stroke="#000000" stroke-linecap="round" stroke-linejoin="round" x1="1075.816" y1="274.497" x2="1122.608" y2="234.153"/>
	
		<line clip-path="url(#SVGID_22_)" fill="none" stroke="#000000" stroke-linecap="round" stroke-linejoin="round" x1="1078.807" y1="305.552" x2="1129.483" y2="263.587"/>
	
		<line clip-path="url(#SVGID_22_)" fill="none" stroke="#000000" stroke-linecap="round" stroke-linejoin="round" x1="1075.816" y1="331.462" x2="1126.492" y2="294.38"/>
	
		<line clip-path="url(#SVGID_22_)" fill="none" stroke="#000000" stroke-linecap="round" stroke-linejoin="round" x1="1065.082" y1="367.396" x2="1150.423" y2="314.547"/>
	
		<line clip-path="url(#SVGID_22_)" fill="none" stroke="#000000" stroke-linecap="round" stroke-linejoin="round" x1="1054.349" y1="401.553" x2="1159.803" y2="341.184"/>
	
		<line clip-path="url(#SVGID_22_)" fill="none" stroke="#000000" stroke-linecap="round" stroke-linejoin="round" x1="1049.598" y1="436.555" x2="1146.731" y2="374.618"/>
	
		<line clip-path="url(#SVGID_22_)" fill="none" stroke="#000000" stroke-linecap="round" stroke-linejoin="round" x1="1049.598" y1="478.116" x2="1157.285" y2="400.333"/>
	
		<line clip-path="url(#SVGID_22_)" fill="none" stroke="#000000" stroke-linecap="round" stroke-linejoin="round" x1="1061.657" y1="519.899" x2="1170.744" y2="434.454"/>
	
		<line clip-path="url(#SVGID_22_)" fill="none" stroke="#000000" stroke-linecap="round" stroke-linejoin="round" x1="1075.816" y1="557.369" x2="1159.803" y2="490.278"/>
	
		<line clip-path="url(#SVGID_22_)" fill="none" stroke="#000000" stroke-linecap="round" stroke-linejoin="round" x1="1075.816" y1="604.132" x2="1152.736" y2="526.517"/>
	
		<line clip-path="url(#SVGID_22_)" fill="none" stroke="#000000" stroke-linecap="round" stroke-linejoin="round" x1="1078.807" y1="642.265" x2="1146.731" y2="578.19"/>
	
		<line clip-path="url(#SVGID_22_)" fill="none" stroke="#000000" stroke-linecap="round" stroke-linejoin="round" x1="1080.73" y1="679.159" x2="1146.731" y2="620.836"/>
	
		<line clip-path="url(#SVGID_22_)" fill="none" stroke="#000000" stroke-linecap="round" stroke-linejoin="round" x1="1072.252" y1="718.433" x2="1152.736" y2="661.197"/>
	
		<line clip-path="url(#SVGID_22_)" fill="none" stroke="#000000" stroke-linecap="round" stroke-linejoin="round" x1="1072.251" y1="761.177" x2="1152.736" y2="694.707"/>
</g>
<path fill="#FFFFFF" d="M1381.81,484.902c0,0,9.105,17.119,6.275,27.561c-2.83,10.442-5.167-17.103-12.919-21.532
	C1367.415,486.502,1381.81,484.902,1381.81,484.902z"/>
<path fill="#2C5E5E" d="M1326.868,446.683c0,0,40.111,1.261,64.719,34.55l-13.166,14.62l-51.43-31.99L1326.868,446.683z"/>
<g>
	<path d="M1388.737,434.496c-1.42-5.5,7.763-8.189,6.163-15.165c-1.713-7.468-10.583-3.75-12.783-10.265
		c-1.968-5.827,4.622-6.427,6.848-15.695c2.226-9.268-4.81-18.696-17.5-18.362c-12.689,0.334-16.313,9.434-16.313,9.434
		s0,6.499,1.072,13.661c1.073,7.163,5.408,7.571,8.287,11.93c1.407,2.129,3.016,7.355-4.239,10.808
		c-6.455,3.072-6.705,9.905,0.878,11.739c6.856,1.658,5.515,8.205,0.875,12.183c-3.233,2.772-5.04,4.798-5.063,6.125h39.882
		C1397.37,442.509,1390.084,439.712,1388.737,434.496z"/>
</g>
<path fill="#6DD1BD" d="M1348.901,386.97c0,0,6.314-5.705,10.124,0c3.562,5.334-3.411,11.126-5.993,11.126
	S1348.901,386.97,1348.901,386.97z"/>
<path fill="#FFFFFF" d="M979.991,387.408c0,0-13.413-2.391-14.607-5.739c-1.194-3.348,2.747-6.182-0.358-8.943
	c-3.105-2.761-13.614-10.267-11.703-13.15c1.911-2.883,23.884,10.273,33.677,17.019
	C996.792,383.341,979.991,387.408,979.991,387.408z"/>
<path d="M1289.175,385.376c0,0,4.666-13.798,25.664-13.798c20.999,0,46.627,10.271,42.496,38.541s-24.809,27.517-27.79,40.77
	C1326.565,464.142,1289.175,385.376,1289.175,385.376z"/>
<polygon fill="#6DD1BD" points="1124.344,597.906 1115.896,756.598 1230.839,758.268 1230.071,600.06 "/>
<g>
	<defs>
		<polygon id="SVGID_23_" points="1124.344,597.906 1115.896,756.598 1230.839,758.268 1230.071,600.06 		"/>
	</defs>
	<clipPath id="SVGID_24_">
		<use xlink:href="#SVGID_23_"  overflow="visible"/>
	</clipPath>
</g>
<path fill="#2C5E5E" d="M1199.44,437.281c3.624-1.85,42.86,9.402,61.533,9.402c18.672,0,49.971,0,49.971,0l-0.672,18.642
	c0,0-6.931,14.664-29.939,19.625c-19.46,4.196-30.84,5.591-39.724,23.03c-9.43,18.51-1.836,98.983-1.836,98.983
	s-73.374,19.349-125.154-9.058c0,0,9.288-55.029,10.913-71.747c1.625-16.718,3.019-44.117-14.164-57.353
	c-17.183-13.235-140.441-70.711-140.441-70.711l14.922-25.275c0,0,153.288,52.646,185.894,58.659
	C1170.744,431.48,1183.487,445.425,1199.44,437.281z"/>
<g>
	<defs>
		<path id="SVGID_25_" d="M1199.44,437.281c3.624-1.85,42.86,9.402,61.533,9.402c18.672,0,49.971,0,49.971,0l-0.672,18.642
			c0,0-8.719,4.738-29.272,16.208c-13.817,7.711-31.507,9.008-40.391,26.448c-9.43,18.51-1.836,98.983-1.836,98.983
			s-73.374,19.349-125.154-9.058c0,0,9.288-55.029,10.913-71.747c1.625-16.718,3.019-44.117-14.164-57.353
			c-17.183-13.235-140.441-70.711-140.441-70.711l14.922-25.275c0,0,153.288,52.646,185.894,58.659
			C1170.744,431.48,1183.487,445.425,1199.44,437.281z"/>
	</defs>
	<clipPath id="SVGID_26_">
		<use xlink:href="#SVGID_25_"  overflow="visible"/>
	</clipPath>
	<path clip-path="url(#SVGID_26_)" fill="none" stroke="#000000" stroke-width="1.5" d="M1186.222,434.454
		c0,0-3.893,160.481-5.932,184.146"/>
</g>
<path fill="#77BB68" d="M763.922,756.598c0,0-5.432-16.851,5.378-20.437c10.81-3.586,19.891-3.733,17.622-13.211
	c-1.742-7.278-12.852-4.675-20.803-4.917c-11.089-0.338-16.663-14.037-9.11-21.738c6.107-6.227,15.697,0.74,24.878,1.925
	c9.181,1.185,9.329-6.812,6.072-14.216c-3.258-7.404-3.702-22.953,10.218-22.805c13.92,0.148,12.143,14.068,10.662,20.88
	c-1.481,6.812,2.221,15.549,11.403,10.366c9.181-5.183,17.087-7.847,20.513,0.024c3.915,8.994-11.776,12.564-17.255,19.079
	c-6.944,8.258-2.438,16.214,6.891,14.289c9.329-1.925,24.353-3.55,25.086,7.69c0.636,9.767-19.776,19.307-33.013,19.307
	C808.864,752.833,763.922,756.598,763.922,756.598z"/>
<path fill="#2C5E5E" d="M-26.066,295.397c0,0,21.266-27.679,44.803-18.238c23.537,9.441,26.888,18.809,26.888,40.703
	c0,21.894,6.323,78.805,34.462,78.805s29.323-30.072,25.079-51.158c-4.243-21.086-15.451-102.408,11.851-104.95
	c27.302-2.541,27.475,72.985,27.302,99.196c-0.122,18.515,3.458,33.065,14.38,33.065c10.922,0,15.339-26.013,18.78-42.787
	c4.382-21.362,10.389-39.052,26.086-36.71c15.314,2.284,14.681,26.535,15.044,59.485c0.396,36.019,28.603,22.693,34.643-7.3
	c3.952-19.627,17.217-83.823,49.919-77.437c32.703,6.386,16.794,47.867-5.45,88.77c-13.915,25.587-15.319,42.062-1.187,42.062
	c15.909,0,26.952-18.2,41.22-6.971c8.858,6.971-4.202,27.391,3.393,41.092c10.771,19.432,40.561-21.663,51.886-41.092
	c13.142-22.547,39.639-29.008,55.695-12.137c16.056,16.871,2.091,47.173-13.155,76.642c-15.246,29.468-4.958,47.61,19.499,39.415
	c18.664-6.254,36.652,13.785,13.571,42.53c-17.501,21.796-13.571,43.45,11.269,40.901c19.179-1.968,51.625-15.379,67.831,6.201
	c16.206,21.58-4.844,53.482-39.512,75.713c-34.668,22.232-19.138,43.103-2.547,44.26c16.592,1.158,41.48-4.587,56.013,12.575
	c11.845,13.987-6.238,31.799-18.971,40.673s-578.567,15.048-578.567,15.048l-25.296-407.786L-26.066,295.397z"/>
<path fill="#505050" d="M35.5,482.506c0,0-92.181-80.449-83.5-178.598c0,0,72.629,12.9,121.996,138.496L35.5,482.506z"/>
<g>
	<defs>
		<path id="SVGID_27_" d="M35.5,482.506c0,0-92.181-80.449-83.5-178.598c0,0,72.629,12.9,121.996,138.496L35.5,482.506z"/>
	</defs>
	<use xlink:href="#SVGID_27_"  overflow="visible" fill="#36777E"/>
	<clipPath id="SVGID_28_">
		<use xlink:href="#SVGID_27_"  overflow="visible"/>
	</clipPath>
	<polygon clip-path="url(#SVGID_28_)" fill="#254C4B" points="-48,303.908 58.946,474.428 39.718,495.843 -48.577,418.178 
		-71.24,319.29 	"/>
</g>
<path d="M135.473,412.644c0,0-10.601,5.534-20.902-1.327c-5.497-3.661-13.067,4.177-18.83,7.952
	c-7.272,4.762,7.73,16.912-1.657,20.222c-9.041,3.188-11.352,0.593-23.749-2.507c-12.837-3.209-25.479,9.699-22.464,28.403
	c1.664,10.322-17.398,3.08-27.332,5.285c-7.27,1.614-22.464,4.378-22.642,17.979c-0.179,13.602,35.278,112.097,37.438,112.828
	s10.693-1.618,18.564-8.747c7.871-7.128,5.444-17.231,8.647-23.853c3.204-6.622,6.45-9.955,16.639-10.746
	c10.189-0.791,11.352-5.921,10.576-13.022c-0.776-7.102-4.209-19.514,11.484-20.513c26.588-1.692,23.979-53.557,23.979-53.557
	l0.918-18.682c0,0,13.735,0.982,9.5-9.68c-2.711-6.827-2.554-14.556,2.652-17.13C143.499,422.975,135.473,412.644,135.473,412.644z"
	/>
<path fill="#F36569" d="M137.032,411.352c0,0-3.695-0.539-4.674,2.602c-0.979,3.142,3.821,12.345,8.23,10.797
	c3.146-1.105,3.61-2.733,3.61-2.733L137.032,411.352z"/>
<path d="M1234.767,379.785c0,0,0.311-20.201-19.58-28.593c-19.89-8.391-42.091,3.045-48.897,16.204
	c-6.94,13.416-5.284,26.073,0.932,36.376c6.216,10.303,9.738,16.445,6.63,23.563c-3.108,7.119,20.409-9.158,20.409-9.158
	L1234.767,379.785z"/>
<polygon fill="#2C5E5E" points="1275.392,632.487 1281.5,761.177 1366.5,758.268 1370.663,632.287 "/>
<path fill="#36777E" d="M261.525,763.385c0,0,82.55-95.791,217.379-121.12c0,0-15.602,71.128-116.49,121.12L261.525,763.385z"/>
<g>
	<defs>
		<path id="SVGID_29_" d="M261.525,763.385c0,0,82.55-95.791,217.379-121.12c0,0-15.602,71.128-116.49,121.12L261.525,763.385z"/>
	</defs>
	<clipPath id="SVGID_30_">
		<use xlink:href="#SVGID_29_"  overflow="visible"/>
	</clipPath>
	<path clip-path="url(#SVGID_30_)" fill="#254C4B" d="M478.905,642.265c0,0-159.541,121.399-171.417,127.828
		c-11.876,6.43-54.005-0.989-54.005-0.989l8.043-28.226l93.925-80.834l86.466-17.78H478.905z"/>
</g>
<path fill="#36777E" d="M301.704,736.161c0,0,10.796-152.033,130.006-253.656c0,0,8.313,134.029-52.305,222.449L301.704,736.161z"/>
<g>
	<defs>
		<path id="SVGID_31_" d="M301.704,736.161c0,0,10.796-152.033,130.006-253.656c0,0,8.313,134.029-52.305,222.449L301.704,736.161z"
			/>
	</defs>
	<clipPath id="SVGID_32_">
		<use xlink:href="#SVGID_31_"  overflow="visible"/>
	</clipPath>
	<path clip-path="url(#SVGID_32_)" fill="#254C4B" d="M431.711,482.506c0,0-84.698,208.85-92.501,247.143l-40.612,12.292
		l-5.833-56.85l38.642-105.827l61.807-82.503L431.711,482.506z"/>
</g>
<path fill="#36777E" d="M284.913,604.132c0,0-26.928-98.442,13.684-194.014c0,0,57.755,35.694,51.628,187.788L284.913,604.132z"/>
<g>
	<defs>
		<path id="SVGID_33_" d="M284.913,604.132c0,0-26.928-98.442,13.684-194.014c0,0,57.755,35.694,51.628,187.788L284.913,604.132z"/>
	</defs>
	<clipPath id="SVGID_34_">
		<use xlink:href="#SVGID_33_"  overflow="visible"/>
	</clipPath>
	<path clip-path="url(#SVGID_34_)" fill="#254C4B" d="M298.597,410.119c0,0,20.19,146.023,20.19,194.014l-42.626,3.677
		l-11.467-136.224L298.597,410.119z"/>
</g>
<path fill="none" stroke="#000000" stroke-width="8.5039" d="M258.64-11.417c0,0,237.854,460.417-80.856,653.682
	c0,0-136.885,71.502-226.361,67.283"/>
<path fill="none" stroke="#000000" stroke-width="8.5039" d="M187.198-15.892c0,0,44.087,312.718-199.245,464.892"/>
<path fill="#FFFFFF" d="M442.589,605.989c0,0,16.933,1.123,21.493-1.488c4.56-2.611,22.102-15.018,24.045-12.122
	c1.937,2.886-7.188,12.188-12.108,21.802c-4.92,9.613-2.913,12.804-15.072,12.526c-4.559-0.104-18.359-1.306-18.359-1.306V605.989z"
	/>
<path fill="#505050" d="M220.528,597.906c0,0-29.474-67.302,7.035-148.906c0,0,40.123,38.442,27.287,155.132L220.528,597.906z"/>
<g>
	<defs>
		<path id="SVGID_35_" d="M220.528,597.906c0,0-29.474-67.302,7.035-148.906c0,0,40.123,38.442,27.287,155.132L220.528,597.906z"/>
	</defs>
	<use xlink:href="#SVGID_35_"  overflow="visible" fill="#36777E"/>
	<clipPath id="SVGID_36_">
		<use xlink:href="#SVGID_35_"  overflow="visible"/>
	</clipPath>
	<path clip-path="url(#SVGID_36_)" fill="#254C4B" d="M227.563,449c0,0,11.553,143.88,11.553,163.635l-37.535-14.729l-3.941-99.04
		l18.565-52.183"/>
</g>
<path fill="#FFFFFF" d="M442.87,698.98c0,0,10.503,9.296,26.709,10.644c16.206,1.349,24.668,0.688,25.284,4.265
	c0.616,3.577-16.506,6.851-25.24,12.506c-8.734,5.655-6.79,9.128-16.833,2.494c-10.043-6.634-15.409-9.503-20.141-10.735
	C427.917,716.922,442.87,698.98,442.87,698.98z"/>
<path fill="#122625" d="M181.863,585.875c0,0,11.761,4.195,45.831,4.56s135.165,3.177,135.165,3.177l86.085,2.112l0.365,39.76
	c0,0-118.915,10.578-146.637,11.855C274.949,648.615,181.863,585.875,181.863,585.875z"/>
<path fill="#FFFFFF" d="M277.241,585.026c8.322,1.501,17.107,1.939,25.079,4.972c0.84,0.32,5.897,2.076,5.422,3.586
	c-0.557,1.771-20.435-2.833-21.413-0.691c-1.416,3.103,9.135,5.514,7.978,6.726c-1.146,1.201-3.774,0.596-7.156-0.461
	c-4.362-1.364-7.315-1.782-11.825-2.56c-1.491-0.257-6.064,0.195-7.245-0.77c-0.791-0.646,0.55-6.129,0.787-7.084
	c0.12-0.485-0.13-3.961,0.158-4.065c1.613-0.58,0.315-0.708,2.05-0.539L277.241,585.026z"/>
<path fill="#46A391" d="M176.848,465.387c12.814,29.045,12.629,58.591,24.037,80.876c7.574,14.795,18.096,16.567,38.104,23.236
	c3.842,1.281,34.449,11.328,37.173,12.334c0.003,0.001-2.357,19.321-2.415,19.312c-1.772-0.288-81.882-12.412-91.884-15.269
	c-14.84-4.24-8.029-10.598-12.801-21.037c-11.07-24.218,1.8-75.397,7.532-98.326L176.848,465.387z"/>
<path fill="#46A391" d="M605.692,760.208c0,0-36.17-29.778-60.918-42.175c-24.748-12.397-14.912-49.202,9.836-53.644
	c24.748-4.442,34.267,26.017,51.083,24.113c16.816-1.904,8.567-20.623-1.904-25.7c-10.47-5.076-44.188-12.123-32.046-33.509
	c30.776-54.204,40.929,26.211,59.649,19.102c13.01-4.941,14.278-17.786,9.201-34.138c-5.076-16.352,0.635-45.689,27.921-44.737
	c27.286,0.952,44.419,16.375,43.15,38.074c-1.269,21.698-2.856,40.8-2.856,40.8s-22.527-7.85-27.286,5.523
	c-4.759,13.373,0,12.374,11.739,19.989c11.74,7.615-2.538,21.893-9.201,29.19c-6.663,7.297-6.346,16.181,19.672,18.72
	c26.017,2.538,36.17,14.344,29.507,36.805C726.603,780.991,605.692,760.208,605.692,760.208z"/>
<path fill="none" stroke="#000000" stroke-width="5" stroke-linecap="round" d="M663.783,648.396c0,0-51,74.925-66.454,136.743"/>
<path d="M211.186,395.503c0,0,0.711-10.17-9.503-20.433c-10.214-10.262-29.448-17.053-48.116-6.355
	c-21.535,12.341-19.53,37.522-14.98,45.564s15.408,15.851,17.046,24.527c1.639,8.677,32.794-27.987,32.794-27.987L211.186,395.503z"
	/>
<path fill="#FFFFFF" d="M211.186,395.503c0,0-8.071,33.652-10.008,38.227c-1.937,4.574-3.842,7.443-14.205,6.406
	c-10.363-1.037-11.166,3.297-12.145,9.761c-0.979,6.464-0.811,9.33-0.811,9.33s-13.822,3.603-21.536-8.369
	c0,0,1.74-5.689,2.757-10.256c1.017-4.566,5.331-5.605,8.739-10.681c2.207-3.287,3.655-8.698,2.392-11.358
	c-1.233-2.596-1.529-4.208-0.342-6.243c1.198-2.054,3.684-2.525,6.42-0.975c2.737,1.551,4.494-0.52,6.165-4.295
	c1.671-3.776,2.406-9.972,9.534-9.075C195.273,398.871,204.062,400.517,211.186,395.503z"/>
<path fill="#193534" d="M171.812,564.282c0,0-2.322,5.41,11.084,17.795c13.406,12.385,21.192,10.786,44.032,15.407
	c22.84,4.621,51.345,6.97,61.51,10.201c10.165,3.232,44.413,25.256,65.703,37.864c21.29,12.608,94.854,50.407,94.854,50.407
	l-15.762,27.756c0,0-91.236-29.835-122.066-42.796c-30.83-12.961-107.137-13.227-123.91-14.845
	c-16.774-1.618-45.061,2.236-57.953-9.93c-12.892-12.166,10.254-78.549,10.254-78.549L171.812,564.282z"/>
<path fill="#77BB68" d="M40.665,0c0,0,79.268,70.005,73.618,154.013c-5.266,78.306-10.283,86.238-26.409,87.874
	c-16.126,1.636-36.926-16.593-38.795-54.22c-1.87-37.627-34.355-86.705-53.051-104.233C-22.67,65.905-3.038-4.908-3.038-4.908
	L40.665,0z"/>
<g>
	<defs>
		<path id="SVGID_37_" d="M40.665,0c0,0,79.268,70.005,73.618,154.013c-5.266,78.306-10.283,86.238-26.409,87.874
			c-16.126,1.636-36.926-16.593-38.795-54.22c-1.87-37.627-34.355-86.705-53.051-104.233C-22.67,65.905-3.038-4.908-3.038-4.908
			L40.665,0z"/>
	</defs>
	<clipPath id="SVGID_38_">
		<use xlink:href="#SVGID_37_"  overflow="visible"/>
	</clipPath>
	<path clip-path="url(#SVGID_38_)" fill="none" stroke="#000000" stroke-width="5.6693" d="M0,0c0,0,109.676,78.704,86.817,244.885"
		/>
	
		<line clip-path="url(#SVGID_38_)" fill="none" stroke="#000000" stroke-width="2" stroke-linejoin="round" x1="16.799" y1="15.166" x2="9.231" y2="111.654"/>
	
		<line clip-path="url(#SVGID_38_)" fill="none" stroke="#000000" stroke-width="2" stroke-linejoin="round" x1="44.856" y1="52.025" x2="23.957" y2="134.732"/>
	
		<line clip-path="url(#SVGID_38_)" fill="none" stroke="#000000" stroke-width="2" stroke-linejoin="round" x1="69.894" y1="97.367" x2="41.765" y2="168.58"/>
	
		<line clip-path="url(#SVGID_38_)" fill="none" stroke="#000000" stroke-width="2" stroke-linejoin="round" x1="84.18" y1="150.557" x2="41.765" y2="194.075"/>
	
		<line clip-path="url(#SVGID_38_)" fill="none" stroke="#000000" stroke-width="2" stroke-linejoin="round" x1="87.916" y1="180.009" x2="44.856" y2="204.186"/>
	
		<line clip-path="url(#SVGID_38_)" fill="none" stroke="#000000" stroke-width="2" stroke-linejoin="round" x1="89.951" y1="213.197" x2="56.706" y2="231.22"/>
	
		<line clip-path="url(#SVGID_38_)" fill="none" stroke="#000000" stroke-width="2" stroke-linejoin="round" x1="89.951" y1="213.197" x2="114.384" y2="231.22"/>
	
		<line clip-path="url(#SVGID_38_)" fill="none" stroke="#000000" stroke-width="2" stroke-linejoin="round" x1="91.873" y1="180.009" x2="118.907" y2="201.768"/>
	
		<line clip-path="url(#SVGID_38_)" fill="none" stroke="#000000" stroke-width="2" stroke-linejoin="round" x1="87.916" y1="150.557" x2="123.362" y2="170.778"/>
	
		<line clip-path="url(#SVGID_38_)" fill="none" stroke="#000000" stroke-width="2" stroke-linejoin="round" x1="80.224" y1="121.984" x2="118.907" y2="141.545"/>
	
		<line clip-path="url(#SVGID_38_)" fill="none" stroke="#000000" stroke-width="2" stroke-linejoin="round" x1="69.894" y1="97.367" x2="114.384" y2="107.478"/>
	
		<line clip-path="url(#SVGID_38_)" fill="none" stroke="#000000" stroke-width="2" stroke-linejoin="round" x1="61.322" y1="71.982" x2="106.818" y2="85.059"/>
	
		<line clip-path="url(#SVGID_38_)" fill="none" stroke="#000000" stroke-width="2" stroke-linejoin="round" x1="44.856" y1="47.035" x2="94.95" y2="54.728"/>
	
		<line clip-path="url(#SVGID_38_)" fill="none" stroke="#000000" stroke-width="2" stroke-linejoin="round" x1="23.957" y1="17.803" x2="84.18" y2="25.276"/>
</g>
<path fill="#254C4B" d="M87.874-4.908c0,0,6.209,14.723,16.36,16.827c10.151,2.103,18.93-3.038,33.186,4.674
	s24.072,22.903,17.061,31.784c-7.011,8.881-17.027-0.989-25.474-2.337c-7.591-1.212-9.348,0.234-20.332,3.973
	c-10.984,3.739-24.306,2.337-34.121-6.076C64.737,35.523,31.317,0,31.317,0l16.126-15.892L87.874-4.908z"/>
<g>
	<defs>
		<path id="SVGID_39_" d="M87.874-4.908c0,0,6.209,14.723,16.36,16.827c10.151,2.103,18.93-3.038,33.186,4.674
			s24.072,22.903,17.061,31.784c-7.011,8.881-17.027-0.989-25.474-2.337c-7.591-1.212-9.348,0.234-20.332,3.973
			c-10.984,3.739-24.306,2.337-34.121-6.076C64.737,35.523,31.317,0,31.317,0l16.126-15.892L87.874-4.908z"/>
	</defs>
	<clipPath id="SVGID_40_">
		<use xlink:href="#SVGID_39_"  overflow="visible"/>
	</clipPath>
	<path clip-path="url(#SVGID_40_)" fill="none" stroke="#000000" d="M41.765-15.892c0,0,24.954,13.635,32.231,25.89
		s10.502,18.706,21.306,20.318c10.804,1.613,22.576-6.289,36.121-2.419c13.545,3.87,20.211,12.184,27.825,24.395"/>
</g>
<path fill="#254C4B" d="M-6.544,71.982c0,0,21.267,0,23.838,14.49c2.571,14.49-11.685,23.371,1.169,34.121
	s28.98,15.892,30.616,28.98c1.636,13.088-5.609,28.98-11.685,38.795c-6.076,9.816-5.375,20.333,7.011,34.822
	c12.386,14.49,7.245,25.941,0.935,33.42c-6.31,7.479-16.593,16.359-14.022,36.458c2.571,20.099,4.674,30.616-5.843,32.485
	C14.957,327.423,0,320.646,0,300.313c0-20.332,10.75-21.034,5.375-32.719C0,255.909-4.44,238.615-5.142,226.228
	C-5.843,213.842-6.544,71.982-6.544,71.982z"/>
<g>
	<defs>
		<path id="SVGID_41_" d="M-6.544,71.982c0,0,21.267,0,23.838,14.49c2.571,14.49-11.685,23.371,1.169,34.121
			s28.98,15.892,30.616,28.98c1.636,13.088-5.609,28.98-11.685,38.795c-6.076,9.816-5.375,20.333,7.011,34.822
			c12.386,14.49,7.245,25.941,0.935,33.42c-6.31,7.479-16.593,16.359-14.022,36.458c2.571,20.099,4.674,30.616-5.843,32.485
			C14.957,327.423,0,320.646,0,300.313c0-20.332,10.75-21.034,5.375-32.719C0,255.909-4.44,238.615-5.142,226.228
			C-5.843,213.842-6.544,71.982-6.544,71.982z"/>
	</defs>
	<clipPath id="SVGID_42_">
		<use xlink:href="#SVGID_41_"  overflow="visible"/>
	</clipPath>
	<path clip-path="url(#SVGID_42_)" fill="none" stroke="#000000" d="M-12.047,138.157c0,0,21.503,9.281,24.129,27.841
		c2.627,18.561-8.518,32.502-8.518,43.358c0,10.857,2.718,14.257,13.235,26.509c10.517,12.252,7.891,30.293,2.287,42.2
		c-5.603,11.907-7.208,38.173,9.281,51.13"/>
</g>
<path fill="#46A391" d="M5.21,756.904c0,0,80.454-61.773,154.038-77.774s136.248-20.515,143.29,17.118
	c7.279,38.898-104.552,58.796-123.174,62.145c-18.621,3.349,0.342-2.233-18.621,3.349C141.78,767.323,5.21,756.904,5.21,756.904z"/>
<g>
	<defs>
		<path id="SVGID_43_" d="M5.21,756.904c0,0,80.454-61.773,154.038-77.774s136.248-20.515,143.29,17.118
			c7.279,38.898-104.552,58.796-123.174,62.145c-18.621,3.349,0.342-2.233-18.621,3.349C141.78,767.323,5.21,756.904,5.21,756.904z"
			/>
	</defs>
	<clipPath id="SVGID_44_">
		<use xlink:href="#SVGID_43_"  overflow="visible"/>
	</clipPath>
	<path clip-path="url(#SVGID_44_)" fill="none" stroke="#000000" stroke-width="2" d="M21.747,768.471
		c0,0,129.971-75.407,283.552-74.842"/>
	
		<line clip-path="url(#SVGID_44_)" fill="none" stroke="#000000" stroke-width="2" stroke-linejoin="round" x1="285.39" y1="693.626" x2="298.597" y2="676.731"/>
	
		<line clip-path="url(#SVGID_44_)" fill="none" stroke="#000000" stroke-width="2" stroke-linejoin="round" x1="285.39" y1="693.626" x2="305.298" y2="713.567"/>
	
		<line clip-path="url(#SVGID_44_)" fill="none" stroke="#000000" stroke-width="2" stroke-linejoin="round" x1="249.319" y1="696.972" x2="274.084" y2="664.33"/>
	
		<line clip-path="url(#SVGID_44_)" fill="none" stroke="#000000" stroke-width="2" stroke-linejoin="round" x1="249.319" y1="696.973" x2="285.391" y2="735.815"/>
	
		<line clip-path="url(#SVGID_44_)" fill="none" stroke="#000000" stroke-width="2" stroke-linejoin="round" x1="208.982" y1="702.626" x2="247.197" y2="660.501"/>
	
		<line clip-path="url(#SVGID_44_)" fill="none" stroke="#000000" stroke-width="2" stroke-linejoin="round" x1="208.982" y1="702.626" x2="247.197" y2="750"/>
	
		<line clip-path="url(#SVGID_44_)" fill="none" stroke="#000000" stroke-width="2" stroke-linejoin="round" x1="173.055" y1="710.832" x2="213.542" y2="664.331"/>
	
		<line clip-path="url(#SVGID_44_)" fill="none" stroke="#000000" stroke-width="2" stroke-linejoin="round" x1="173.055" y1="710.832" x2="208.983" y2="761.892"/>
	
		<line clip-path="url(#SVGID_44_)" fill="none" stroke="#000000" stroke-width="2" stroke-linejoin="round" x1="135.619" y1="721.258" x2="173.054" y2="667.291"/>
	
		<line clip-path="url(#SVGID_44_)" fill="none" stroke="#000000" stroke-width="2" stroke-linejoin="round" x1="135.619" y1="720.314" x2="166.862" y2="759.886"/>
	
		<line clip-path="url(#SVGID_44_)" fill="none" stroke="#000000" stroke-width="2" stroke-linejoin="round" x1="100.114" y1="733.627" x2="133.668" y2="682.384"/>
	
		<line clip-path="url(#SVGID_44_)" fill="none" stroke="#000000" stroke-width="2" stroke-linejoin="round" x1="100.115" y1="733.627" x2="119.992" y2="761.892"/>
</g>
<path fill="none" stroke="#000000" stroke-width="8.5039" d="M414.359-11.417c0,0,13.796,430.686-443.854,231.679"/>
<path fill="none" stroke="#000000" stroke-width="2" stroke-linecap="round" stroke-linejoin="round" d="M344.098,290.133
	c4.395,2.738,7.394,7.133,10.154,11.47c23.87,37.51,48.596-21.876,69.008,11.658"/>
<path fill="none" stroke="#000000" stroke-width="2" stroke-linecap="round" stroke-linejoin="round" d="M339.209,305.552
	c-7.316,0.736-13.538,6.806-13.538,14.29c0,7.101,1.128,14.133,1.128,21.248c0,26.068-29.455,46.233-51.521,28.581
	c-9.687-7.749-6.608-27.829-13.753-34.786c-7.156-6.968-15.819-2.77-22.537,3.949"/>
<path fill="none" stroke="#000000" stroke-width="2" stroke-linecap="round" stroke-linejoin="round" d="M342.218,392.234
	c3.134-4.334,8.3-5.265,13.35-5.265c24.513,0,12.895,32.299,35.704,32.299c8.104,0,8.349-17.857,16.446-18.936
	c2.785-0.371,6.073,1.892,7.456,4.311"/>
<path fill="#212121" d="M374.739,346.26c-0.065,0.176,13.948,3.034,24.049-4.495C398.788,341.766,380.948,329.373,374.739,346.26z"
	/>
<ellipse fill="#FFFFFF" cx="386.208" cy="341.311" rx="2.247" ry="2.21"/>
<path fill="#F36569" d="M378.175,313.876c4.406-1.606,9.379-0.908,13.097,7.704c3.718,8.612,2.586,14.532,7.516,20.186
	c0,0-13.198-6.008-24.049,4.495c0,0,0.535-6.287-0.602-13.292C372.892,325.304,371.95,316.146,378.175,313.876z"/>
<path fill="#212121" d="M259.598,390.036c-0.141,0.064,6.273,9.937,16.524,11.517C276.122,401.553,273.093,383.928,259.598,390.036z
	"/>
<ellipse transform="matrix(-0.7128 0.7014 -0.7014 -0.7128 737.2337 485.9223)" fill="#FFFFFF" cx="269.125" cy="393.909" rx="1.819" ry="1.85"/>
<path fill="#F36569" d="M280.586,373.353c3.487,1.658,5.949,4.979,3.042,12.134c-2.907,7.155-7.034,9.908-7.506,16.066
	c0,0-4.095-11.214-16.524-11.517c0,0,3.998-3.316,7.452-8.028C270.829,376.851,275.66,371.011,280.586,373.353z"/>
<path fill="#212121" d="M370.652,440.661c-0.113,0.105,10.399,7.477,21.209,5.765C391.861,446.425,381.428,430.624,370.652,440.661z
	"/>
<ellipse transform="matrix(-0.4179 0.9085 -0.9085 -0.4179 942.1899 278.9909)" fill="#FFFFFF" cx="381.712" cy="441.354" rx="1.783" ry="2.026"/>
<path fill="#F36569" d="M384.381,418.224c4.15,0.482,7.987,2.867,8.129,10.579c0.142,7.711-2.781,11.623-0.649,17.623
	c0,0-8.783-9.374-21.209-5.765c0,0,2.558-4.405,3.987-9.967C376.202,424.608,378.518,417.542,384.381,418.224z"/>
<path fill="#FFFFFF" d="M355.51,303.907c-0.291,0.078,0-10.07,12.607-11.638C368.118,292.27,368.803,300.35,355.51,303.907z"/>
<path fill="#FFFFFF" d="M357.467,327.895c-0.233,0.191-4.156-9.172,6.68-15.804C364.147,312.091,368.106,319.168,357.467,327.895z"
	/>
<path fill="#FFFFFF" d="M399.558,304.298c-0.048,0.298-9.185-4.129-5.445-16.27C394.112,288.028,401.763,290.716,399.558,304.298z"
	/>
<path fill="#FFFFFF" d="M406.266,319.288c-0.244,0.177-3.605-9.403,7.606-15.38C413.872,303.908,417.404,311.207,406.266,319.288z"
	/>
<path fill="#FFFFFF" d="M309.521,331.596c-0.251-0.167,7.56-6.652,17.065,1.778C326.586,333.374,320.973,339.226,309.521,331.596z"
	/>
<path fill="#FFFFFF" d="M323.958,354.585c-0.173-0.247,9.461-3.448,15.251,7.86C339.21,362.445,331.853,365.856,323.958,354.585z"/>
<path fill="#FFFFFF" d="M304.065,354.284c-0.065-0.294,10.06,0.447,11.066,13.112C315.132,367.395,307.029,367.721,304.065,354.284z
	"/>
<path fill="#FFFFFF" d="M297.309,376.341c0.106-0.282,8.199,5.846,2.158,17.021C299.466,393.362,292.489,389.23,297.309,376.341z"/>
<path fill="#FFFFFF" d="M283.663,350.34c0.301,0.007-2.812,9.669-15.356,7.654C268.308,357.994,269.906,350.044,283.663,350.34z"/>
<path fill="#FFFFFF" d="M264.674,341.192c0.302,0.007-2.812,9.669-15.356,7.654C249.319,348.846,250.917,340.896,264.674,341.192z"
	/>
<path fill="#FFFFFF" d="M250.654,314.557c0.093-0.287,8.458,5.466,2.931,16.905C253.585,331.462,246.427,327.652,250.654,314.557z"
	/>
<path fill="#FFFFFF" d="M114.287,293.966c0,0,5.528-10.626,11.546-15.807c6.018-5.181,17.529-11.892,17.091-8.683
	c-0.437,3.209-11.027,7.803-9.511,13.239c0.817,2.929,3.853-0.468,6.652,0.41c2.799,0.878-1.692,4.276-8.927,8.318
	c-6.844,3.824-8.454,5.421-9.854,7.968C119.885,301.957,114.287,293.966,114.287,293.966z"/>
<path fill="#FFFFFF" d="M365.249,388.825c-0.227,0.198-4.44-9.038,6.185-16.004C371.434,372.821,375.611,379.771,365.249,388.825z"
	/>
<path fill="#FFFFFF" d="M358.285,410.119c-0.301,0.009,2.31-9.801,14.941-8.435C373.225,401.684,372.039,409.705,358.285,410.119z"
	/>
<path fill="#FFFFFF" d="M386.439,398.182c-0.095-0.286,10.053-0.584,12.349,11.911C398.788,410.093,390.761,411.245,386.439,398.182
	z"/>
<path fill="#F36569" d="M-19.723,552.979c0,0,2.387-53.911,13.179-70.473c10.792-16.562,29.727-45.258,51.627-38.932
	s36.381,71.884-0.227,160.558C7.849,693.772,4.03,708.187-6.544,718.033C-17.118,727.878-19.723,552.979-19.723,552.979z"/>
<g>
	<defs>
		<path id="SVGID_45_" d="M-19.723,552.979c0,0,2.387-53.911,13.179-70.473c10.792-16.562,29.727-45.258,51.627-38.932
			s36.381,71.884-0.227,160.558C7.849,693.772,4.03,708.187-6.544,718.033C-17.118,727.878-19.723,552.979-19.723,552.979z"/>
	</defs>
	<clipPath id="SVGID_46_">
		<use xlink:href="#SVGID_45_"  overflow="visible"/>
	</clipPath>
	
		<line clip-path="url(#SVGID_46_)" fill="none" stroke="#000000" stroke-width="2" x1="44.856" y1="434.454" x2="-24.205" y2="718.033"/>
	
		<line clip-path="url(#SVGID_46_)" fill="none" stroke="#000000" stroke-width="2" stroke-linecap="round" stroke-linejoin="round" x1="-19.723" y1="690.695" x2="31.317" y2="652.26"/>
	
		<line clip-path="url(#SVGID_46_)" fill="none" stroke="#000000" stroke-width="2" stroke-linecap="round" stroke-linejoin="round" x1="-4.886" y1="640.957" x2="55.518" y2="590.195"/>
	
		<line clip-path="url(#SVGID_46_)" fill="none" stroke="#000000" stroke-width="2" stroke-linecap="round" stroke-linejoin="round" x1="7.972" y1="586.913" x2="-24.205" y2="527.559"/>
	
		<line clip-path="url(#SVGID_46_)" fill="none" stroke="#000000" stroke-width="2" stroke-linecap="round" stroke-linejoin="round" x1="7.972" y1="586.913" x2="73.996" y2="539.517"/>
	
		<line clip-path="url(#SVGID_46_)" fill="none" stroke="#000000" stroke-width="2" stroke-linecap="round" stroke-linejoin="round" x1="19.929" y1="539.517" x2="-17.367" y2="489.124"/>
	
		<line clip-path="url(#SVGID_46_)" fill="none" stroke="#000000" stroke-width="2" stroke-linecap="round" stroke-linejoin="round" x1="19.93" y1="539.517" x2="92.245" y2="507.915"/>
	
		<line clip-path="url(#SVGID_46_)" fill="none" stroke="#000000" stroke-width="2" stroke-linecap="round" stroke-linejoin="round" x1="31.317" y1="487.449" x2="7.972" y2="446.683"/>
	
		<line clip-path="url(#SVGID_46_)" fill="none" stroke="#000000" stroke-width="2" stroke-linecap="round" stroke-linejoin="round" x1="32.227" y1="487.449" x2="89.398" y2="468.625"/>
</g>
<path fill="#F36569" d="M746.074,748.33c0,0-2.538-30.142-26.334-34.266c-23.796-4.125-42.199,13.576-57.428,19.671
	c-15.23,6.095-53.325,25.525-66.629-6.663c-9.836-23.796,11.105-49.179,43.785-48.861c32.68,0.317,55.207-11.045,51.717-26.146
	c-3.49-15.101-33.632-20.177-56.159-14.783c-22.527,5.394-64.105,12.915-67.264-13.643c-3.019-25.383,26.969-39.343,52.034-25.02
	c19.099,10.914,40.543,5.974,43.987-3.669c4.552-12.744-2.741-21.759-13.846-38.575c-11.105-16.816-30.854-55.966-5.076-70.2
	c20.968-11.578,46.323,16.579,45.054,51.48c-0.819,22.514,3.49,41.104,18.085,41.104c14.595,0,23.961-23.164,33.632-40.469
	c12.057-21.575,36.17-30.572,48.544-11.105c10.283,16.177,0.411,45.983-38.708,71.434c-21.907,14.252-21.258,36.99-6.663,42.153
	c14.595,5.162,32.046-8.079,46.006-20.623c13.96-12.545,46.799-24.865,61.553-8.567c19.354,21.381-3.173,54.255-38.074,67.264
	C788.259,688.548,744.17,703.594,746.074,748.33z"/>
<path fill="#46A391" d="M936.57,729.735c-1.082,0.302,5.035-9.808-13.435-15.858c-18.47-6.051-31.308,1.05-45.32,6.623
	s-29.921-1.011-35.114-14.906c-5.193-13.895-4.852-40.982,20.784-46.714c25.635-5.732,36.085,12.991,47.29,18.948
	c8.483,4.51,26.779-2.217,24.043-21.336c-1.99-13.906-15.481-15.013-28.342-19.107c-25.411-8.09-46.179-33.804-29.77-56.037
	c13.35-18.089,35.098-5.035,43.378,7.411c8.28,12.447,20.51,28.001,37.492,26.157c13.962-1.516,16.413-15.746,10.362-29.439
	c-6.051-13.693-28.672-54.918-0.335-60.586c22.808-4.562,27.722,21.152,28.836,32.88c1.115,11.729,12.797,11.729,19.267,1.115
	c12.778-20.965,31.873-39.788,49.115-31.161c14.98,7.495,13.356,29.645-6.437,52.391c-7.3,8.39-4.558,17.791,7.073,17.791
	c11.63,0,37.996-1.062,39.036,15.047c0.871,13.515-15.304,20.569-38.408,16.341s-33.32,4.709-32.534,12.971
	c0.786,8.262,14.774,10.48,32.534,14.706s42.21,24.685,33.394,41.865c-8.501,16.566-31.351,13.93-48.796,3.714
	c-17.446-10.216-39.293-19.655-47.466-1.886c-8.173,17.768,27.348,33.852,46.68,37.564c19.332,3.711,16.817,15.393,15.56,20.275
	c-1.258,4.882-95.893,1.585-95.893,1.585S954.65,715.383,936.57,729.735z"/>
<polygon fill="#FFFFFF" points="876.107,676.792 911.959,661.198 884.487,665.529 906.053,642.265 882.564,653.578 890.668,615.803 
	875.283,646.435 868.552,610.445 864.157,648.396 845.887,622.259 860.297,661.198 833.113,648.396 860.297,670.886 
	833.387,673.496 "/>
<path fill="none" stroke="#000000" stroke-width="2.8346" stroke-linecap="round" stroke-linejoin="round" d="M872.948,658.386
	c0,0,8.242,81.183,17.308,96.567"/>
<polygon fill="#FFFFFF" points="920.751,711.545 900.97,682.287 917.454,694.924 923.086,655.638 925.833,695.474 943.004,656.737 
	932.152,696.985 958.801,672.397 938.608,698.908 969.927,697.534 940.394,706.463 966.081,722.535 "/>
<path fill="none" stroke="#000000" stroke-width="2.8346" stroke-linecap="round" stroke-linejoin="round" d="M928.581,701.655
	c0,0-22.665,29.121-22.802,51.178"/>
<path fill="none" stroke="#000000" stroke-width="6" stroke-linecap="round" stroke-linejoin="round" d="M693.259,597.906
	c0,0,45.933,75.903,54.745,154.927"/>
<path fill="none" stroke="#000000" stroke-width="5.6693" stroke-linecap="round" d="M1014.495,604.132
	c0,0-83.769,101.299-85.914,154.135"/>
<path fill="none" stroke="#000000" stroke-width="5" stroke-linecap="round" d="M801.643,705.328c0,0,5.493,15.973,5.127,52.939"/>
<path fill="#FFFFFF" d="M1234.767,379.785c0,0-2.487,15.518-6.112,25.267c-3.626,9.749-7.149,17.726-10.153,18.865
	c-3.004,1.14-12.592-2.896-15.311,2.683c-3.403,6.983-3.543,8.505-3.751,10.681c0,0-14.71,12.017-28.696-5.801
	c0,0,2.072-2.279,4.973-8.598c2.9-6.319,9.294-19.853,6.734-21.328c-2.119-1.22-2.503-3.458-1.477-5.501
	c0.756-1.507,2.409-2.385,4.377-1.763c1.969,0.622,5.098-6.083,4.995-10.952c-0.104-4.869,5.676-2.101,16.864-0.029
	C1218.399,385.379,1229.069,383.238,1234.767,379.785z"/>
<path fill="#46A391" d="M174.033,458.264c0.23,0.019,11.675,28.825,12.793,39.261c1.118,10.436-4.428,13.379-7.783,26.238
	c-3.354,12.858-5.419,20.444-4.114,38.893c1.305,18.449-87.198,32.294-87.198,32.294s7.64-17.144,13.045-40.811
	c5.404-23.667,17.89-53.297,3.913-78.641c-13.976-25.344-31.68-48.451-43.793-62.614c-12.113-14.163-17.144-28.235-15.84-36.711
	c1.304-8.476,10.808-21.538,21.617-35.78c10.808-14.242,41.743-50.315,43.047-52.365l13.417,9.877c0,0-17.89,34.475-24.599,47.52
	c-6.709,13.045-10.063,21.431-5.032,33.543c5.032,12.113,24.226,35.034,37.83,47.147c13.604,12.113,22.736,19.563,22.736,19.563
	S156.515,456.836,174.033,458.264z"/>
<circle fill="#FFFFFF" cx="1196.37" cy="481.533" r="3.418"/>
<circle fill="#FFFFFF" cx="1196.37" cy="517.742" r="3.418"/>
<circle fill="#FFFFFF" cx="1196.37" cy="553.951" r="3.418"/>
<path fill="none" stroke="#000000" stroke-width="2" stroke-linecap="round" d="M1175.099,648.396c0,0-2.003,98.775-2.003,112.781"
	/>
<path fill="#FFFFFF" d="M1289.175,385.376c0,0-4.991,40.104-4.475,46.472c0.517,6.368,2.926,7.961,11.704,9.396
	c8.778,1.435,12.909,3.906,9.983,19.692c0,0,11.532,7.918,23.581,0.516c0,0-1.377-4.696-0.172-12.453
	c1.204-7.756-4.131-9.228-5.68-14.546c-1.549-5.317-0.693-9.319,2.752-11.385c3.444-2.065,2.751-4.892,0-4.892
	c-2.752,0-4.818,0.933-4.99-4.575c-0.172-5.508,2.41-7.612,0-9.831C1319.468,401.553,1298.47,406.03,1289.175,385.376z"/>
<line fill="none" stroke="#000000" stroke-width="2" stroke-linecap="round" x1="1323.136" y1="679.159" x2="1321.583" y2="761.177"/>
<path fill="none" stroke="#000000" d="M1329.971,651.611"/>
<path fill="none" stroke="#000000" d="M1322.568,464.613"/>
<path fill="#46A391" d="M1329.968,461.453c1.898-1.18,42.104,6.04,53.699,44.689c11.594,38.648,15.355,68.683,15.355,76.437
	c0,7.754-19.021,4.335-19.021,4.335l0.905,53.579c0,0-70.359,15.888-110.351-6.826l1.141-51.834l-20.474,5.186
	c0,0-1.472-13.995,2.279-45.018c3.329-27.538,8.5-67.667,52.887-81.064C1306.387,460.936,1318.841,468.368,1329.968,461.453z"/>
<polygon fill="#FFFFFF" points="1082.126,674.65 1043.489,668.674 1071.161,665.884 1044.392,648.862 1069.985,653.837 
	1052.55,619.36 1075.212,645.079 1072.579,608.56 1086.471,644.148 1097.502,614.228 1093.457,655.55 1116.497,636.262 
	1095.918,664.92 1122.608,660.608 "/>
<path fill="none" stroke="#000000" stroke-width="2.8346" stroke-linecap="round" stroke-linejoin="round" d="M1080.506,656.044
	c0,0,12.652,80.613,7.792,97.796"/>
<path fill="#77BB68" d="M1449.57,495.853c0,0-46.474-83.296-55.715-148.916c-9.241-65.62-5.136-92.691,17.079-98.82
	c22.216-6.129,35.272,23.772,41.293,42.016C1458.247,308.377,1449.57,495.853,1449.57,495.853z"/>
<g>
	<defs>
		<path id="SVGID_47_" d="M1449.57,495.853c0,0-46.474-83.296-55.715-148.916c-9.241-65.62-5.136-92.691,17.079-98.82
			c22.216-6.129,35.272,23.772,41.293,42.016C1458.247,308.377,1449.57,495.853,1449.57,495.853z"/>
	</defs>
	<clipPath id="SVGID_48_">
		<use xlink:href="#SVGID_47_"  overflow="visible"/>
	</clipPath>
	<path clip-path="url(#SVGID_48_)" fill="none" stroke="#000000" stroke-width="2" d="M1408.52,241.988
		c0,0,23.906,140.479,50.468,200.691"/>
	
		<line clip-path="url(#SVGID_48_)" fill="none" stroke="#000000" stroke-width="2" stroke-linecap="round" stroke-linejoin="round" x1="1412.055" y1="261.888" x2="1398.782" y2="249.309"/>
	
		<line clip-path="url(#SVGID_48_)" fill="none" stroke="#000000" stroke-width="2" stroke-linecap="round" stroke-linejoin="round" x1="1412.055" y1="261.888" x2="1425.427" y2="245.958"/>
	
		<line clip-path="url(#SVGID_48_)" fill="none" stroke="#000000" stroke-width="2" stroke-linecap="round" stroke-linejoin="round" x1="1416.017" y1="281.698" x2="1440" y2="256.871"/>
	
		<line clip-path="url(#SVGID_48_)" fill="none" stroke="#000000" stroke-width="2" stroke-linecap="round" stroke-linejoin="round" x1="1416.017" y1="281.698" x2="1386.203" y2="266.642"/>
	
		<line clip-path="url(#SVGID_48_)" fill="none" stroke="#000000" stroke-width="2" stroke-linecap="round" stroke-linejoin="round" x1="1421.267" y1="307.451" x2="1450.883" y2="276.349"/>
	
		<line clip-path="url(#SVGID_48_)" fill="none" stroke="#000000" stroke-width="2" stroke-linecap="round" stroke-linejoin="round" x1="1421.266" y1="307.451" x2="1381.25" y2="290.133"/>
	
		<line clip-path="url(#SVGID_48_)" fill="none" stroke="#000000" stroke-width="2" stroke-linecap="round" stroke-linejoin="round" x1="1427.21" y1="332.51" x2="1458.988" y2="301.013"/>
	
		<line clip-path="url(#SVGID_48_)" fill="none" stroke="#000000" stroke-width="2" stroke-linecap="round" stroke-linejoin="round" x1="1427.21" y1="332.51" x2="1386.203" y2="316.365"/>
	
		<line clip-path="url(#SVGID_48_)" fill="none" stroke="#000000" stroke-width="2" stroke-linecap="round" stroke-linejoin="round" x1="1431.964" y1="353.982" x2="1460.193" y2="320.625"/>
	
		<line clip-path="url(#SVGID_48_)" fill="none" stroke="#000000" stroke-width="2" stroke-linecap="round" stroke-linejoin="round" x1="1431.964" y1="353.982" x2="1383.132" y2="338.949"/>
	
		<line clip-path="url(#SVGID_48_)" fill="none" stroke="#000000" stroke-width="2" stroke-linecap="round" stroke-linejoin="round" x1="1438.402" y1="380.847" x2="1384.816" y2="365.89"/>
	
		<line clip-path="url(#SVGID_48_)" fill="none" stroke="#000000" stroke-width="2" stroke-linecap="round" stroke-linejoin="round" x1="1438.402" y1="380.847" x2="1460.193" y2="352.816"/>
	
		<line clip-path="url(#SVGID_48_)" fill="none" stroke="#000000" stroke-width="2" stroke-linecap="round" stroke-linejoin="round" x1="1446.795" y1="410.119" x2="1398.782" y2="397.024"/>
	
		<line clip-path="url(#SVGID_48_)" fill="none" stroke="#000000" stroke-width="2" stroke-linecap="round" stroke-linejoin="round" x1="1452.311" y1="426.206" x2="1406.782" y2="418.178"/>
	
		<line clip-path="url(#SVGID_48_)" fill="none" stroke="#000000" stroke-width="2" stroke-linecap="round" stroke-linejoin="round" x1="1452.311" y1="450.275" x2="1418.515" y2="441.244"/>
</g>
<circle fill="#193534" cx="593.847" cy="-11.785" r="29.248"/>
<path fill="#FFFFFF" d="M438.025,9.868c0.023-0.516-20.78,6.258-19.79,29.277C418.235,39.145,436.833,36.811,438.025,9.868z"/>
<path fill="#FFFFFF" d="M438.022,9.697c-0.43,0.287,17.335,13.057,35.313-1.355C473.335,8.342,460.454-5.275,438.022,9.697z"/>
<path fill="#FFFFFF" d="M453.099,37.239c0.072-0.511-21.281,4.254-22.483,27.264C430.615,64.503,449.35,63.946,453.099,37.239z"/>
<path fill="#FFFFFF" d="M453.111,37.068c-0.455,0.245,16.016,14.645,35.282,2.007C488.393,39.075,476.864,24.297,453.111,37.068z"/>
<path fill="#FFFFFF" d="M463.615,72.207c0.072-0.511-21.281,4.254-22.483,27.264C441.131,99.471,459.867,98.914,463.615,72.207z"/>
<path fill="#FFFFFF" d="M463.628,72.036c-0.455,0.245,16.016,14.645,35.281,2.007C498.909,74.043,487.381,59.265,463.628,72.036z"/>
<path fill="#FFFFFF" d="M484.034,109.503c-0.143-0.496-17.682,12.582-9.373,34.073C474.661,143.575,491.532,135.408,484.034,109.503
	z"/>
<path fill="#FFFFFF" d="M483.976,109.341c-0.315,0.409,20.603,6.818,33.019-12.592C516.995,96.75,500.433,87.975,483.976,109.341z"
	/>
<path fill="#FFFFFF" d="M507.677,133.606c-0.248-0.453-14.536,16.115-1.767,35.294C505.91,168.901,520.609,157.272,507.677,133.606z
	"/>
<path fill="#FFFFFF" d="M507.585,133.461c-0.219,0.468,21.591,2.192,29.506-19.447C537.091,114.014,519.021,109.037,507.585,133.461
	z"/>
<path fill="#FFFFFF" d="M544.815,146.309c-0.439-0.272-4.705,21.186,15.858,31.581C560.673,177.889,567.732,160.526,544.815,146.309
	z"/>
<path fill="#FFFFFF" d="M544.664,146.228c0.04,0.515,19.867-8.735,16.089-31.464C560.753,114.764,542.576,119.34,544.664,146.228z"
	/>
<path fill="#FFFFFF" d="M582.807,134.799c-0.516-0.031,5.948,20.871,28.98,20.223C611.787,155.022,609.729,136.392,582.807,134.799z
	"/>
<path fill="#FFFFFF" d="M582.635,134.8c0.28,0.434,13.312-17.139-0.831-35.329C581.805,99.471,567.999,112.148,582.635,134.8z"/>
<path fill="#FFFFFF" d="M622.889,113.504c-0.509-0.09,3.489,21.42,26.441,23.445C649.33,136.95,649.445,118.207,622.889,113.504z"/>
<path fill="#FFFFFF" d="M669.868,112.61c-0.415-0.307-6.435,20.726,13.202,32.78C683.069,145.39,691.535,128.667,669.868,112.61z"/>
<path fill="#FFFFFF" d="M669.724,112.516c-0.003,0.516,20.519-7.068,18.627-30.031C688.35,82.485,669.859,85.548,669.724,112.516z"
	/>
<path fill="#FFFFFF" d="M623.264,113.514c0.303,0.418,12.393-17.815-2.686-35.236C620.578,78.278,607.457,91.663,623.264,113.514z"
	/>
<path fill="none" stroke="#000000" stroke-width="3" stroke-linecap="round" d="M423.26-4.908c0,0,22.896,14.039,35.62,59.64
	c20.026,71.775,60.286,94.641,95.517,91.574c35.231-3.067,70.422-58.242,125.627-29.121"/>
<polygon fill="#46A391" points="843.924,-4.908 806.787,12.84 885.653,7.527 837.212,91.628 908.414,10.505 863.183,136.95 
	928.581,19.271 900.97,159.946 952.186,17.991 941.681,171.113 972.613,31.869 980.2,155.036 991.873,19.271 1021.93,86.891 
	1007.631,17.991 1100.427,97.439 1028.641,12.84 1131.359,56.745 1073.58,7.527 1129.609,-4.908 "/>
<path fill="#2C5E5E" d="M830.035,56.554c-1.24,2.674-8.652-23.253,4.253-43.624C834.288,12.93,840.887,33.156,830.035,56.554z"/>
<path fill="#2C5E5E" d="M829.724,57.057c-0.372-2.924,19.694,15.091,19.599,39.205C849.323,96.262,832.977,82.643,829.724,57.057z"
	/>
<path fill="#2C5E5E" d="M863.16,44.925c-1.679,2.422-4.545-24.391,11.656-42.253C874.816,2.672,877.857,23.73,863.16,44.925z"/>
<path fill="#2C5E5E" d="M862.768,45.367c0.134-2.944,16.82,18.239,12.6,41.981C875.367,87.348,861.594,71.132,862.768,45.367z"/>
<path fill="#2C5E5E" d="M890.503,54.523c-2.766,1.018,10.289-22.577,33.81-27.893C924.313,26.63,914.707,45.614,890.503,54.523z"/>
<path fill="#2C5E5E" d="M889.928,54.66c1.801-2.333,3.294,24.591-13.799,41.602C876.129,96.262,874.168,75.077,889.928,54.66z"/>
<path fill="#2C5E5E" d="M913.044,59.487c-1.897,2.255-2.258-24.708,15.534-40.986C928.577,18.501,929.647,39.75,913.044,59.487z"/>
<path fill="#2C5E5E" d="M912.612,59.891c0.407-2.919,15.052,19.724,8.642,42.971C921.254,102.862,909.048,85.435,912.612,59.891z"/>
<path fill="#2C5E5E" d="M939.281,65.729c-2.543,1.489,6.153-24.036,28.371-33.41C967.652,32.319,961.539,52.698,939.281,65.729z"/>
<path fill="#2C5E5E" d="M938.739,65.965c1.362-2.614,7.572,23.627-6.259,43.382C932.48,109.347,926.82,88.838,938.739,65.965z"/>
<path fill="#2C5E5E" d="M962.144,76.28c-2.247,1.908,1.891-24.739,22.147-37.825C984.291,38.456,981.804,59.586,962.144,76.28z"/>
<path fill="#2C5E5E" d="M961.651,76.606c0.888-2.81,11.555,21.956,1.361,43.81C963.012,120.416,953.88,101.2,961.651,76.606z"/>
<path fill="#2C5E5E" d="M988.366,85.851c-2.04,2.127-0.641-24.803,18.174-39.886C1006.54,45.966,1006.221,67.239,988.366,85.851z"/>
<path fill="#2C5E5E" d="M987.908,86.226c0.597-2.886,13.734,20.664,5.82,43.443C993.729,129.669,982.686,111.483,987.908,86.226z"/>
<path fill="#2C5E5E" d="M1018.635,85.119c-1.238,2.674-8.665-23.248,4.228-43.627C1022.863,41.492,1029.474,61.715,1018.635,85.119z
	"/>
<path fill="#2C5E5E" d="M1018.324,85.622c-0.373-2.924,19.703,15.08,19.621,39.194
	C1037.945,124.816,1021.592,111.206,1018.324,85.622z"/>
<path fill="#2C5E5E" d="M1046.431,73.66c-0.091,2.946-17.089-17.988-13.219-41.79C1033.212,31.869,1047.223,47.88,1046.431,73.66z"
	/>
<path fill="#2C5E5E" d="M1046.342,74.244c-1.49-2.543,24.038,6.146,33.419,28.361C1079.761,102.605,1059.381,96.498,1046.342,74.244
	z"/>
<path fill="#2C5E5E" d="M1067.794,49.075c1.083,2.741-22.817-9.747-28.693-33.135C1039.101,15.941,1058.309,25.091,1067.794,49.075z
	"/>
<path fill="#2C5E5E" d="M1067.944,49.647c-2.376-1.745,24.505-3.88,41.92,12.801C1109.864,62.448,1088.731,64.915,1067.944,49.647z"
	/>
<path fill="#2C5E5E" d="M1075.458,25.67c2.072,2.097-24.811-0.023-39.384-19.236C1036.074,6.434,1057.331,7.323,1075.458,25.67z"/>
<path fill="#2C5E5E" d="M1075.82,26.138c-2.869-0.674,21.024-13.175,43.584-4.655C1119.404,21.483,1100.929,32.035,1075.82,26.138z"
	/>
<path fill="#2C5E5E" d="M1078.381,7.637c2.311,1.829-24.63,2.998-41.434-14.297C1036.947-6.66,1058.154-8.366,1078.381,7.637z"/>
<path fill="#2C5E5E" d="M1078.797,8.057c-2.93-0.32,19.263-15.637,42.692-9.927C1121.489-1.871,1104.437,10.853,1078.797,8.057z"/>
<g>
	<path fill="#254C4B" d="M916.669,133.306c0,0-11.983,4.342-13.72,4.863c-1.737,0.521-11.614,3.897-15.196,3.821
		c-1.918-0.041-10.116-4.472-13.025-6.382c-2.909-1.91-8.683-5.036-8.857-5.644c-0.174-0.608-0.912-3.864-1.346-3.777
		c-0.434,0.087-0.13,2.431-0.564,2.735c-0.434,0.304-2.909-1.433-3.213-1.129c-0.304,0.304,2.041,2.084,1.867,2.475
		c-0.174,0.391-2.735-0.304-2.865,0.174s2.475,1.085,2.518,1.563c0.043,0.478-2.431,1.129-2.344,1.476
		c0.087,0.347,2.952-0.999,4.168,0.043c1.216,1.042,1.216,1.042,1.216,1.042s16.585,13.633,19.103,15.5
		c2.518,1.867,4.863,2.605,11.505,2.301c6.643-0.304,16.541-0.302,18.061,0.066c2.106,0.51,2.648,4.319,1.346,7.315
		s-3.821,4.428-6.903,3.083c-3.083-1.346-11.549-5.253-16.846-5.34c-5.297-0.087-21.795,4.402-27.222,5.848
		c-5.427,1.446-6.86,1.055-9.421-1.941c-2.562-2.996-3.256-4.211-3.69-3.951c-0.434,0.261,0.695,2.301,0.217,2.692
		c-0.478,0.391-1.997-1.302-2.344-0.825c-0.347,0.478,1.879,1.747,1.433,2.258c-0.825,0.945-2.518-0.174-2.779,0.391
		s3.973,3.246,5.536,4.983s3.104,3.223,7.055,3.266c3.951,0.043,24.004,0.223,25.703,0.217c3.187-0.011,6.295,1.336,10.547,3.518
		c4.651,2.387,10.364,4.281,10.812,7.525c0.224,1.62,0.151,4.435-4.644,7.539c-5.378,3.482-15.934,7.164-18.365,8.64
		c-2.431,1.476-14.284,17.106-15.76,18.539c-1.476,1.433-3.56-0.868-4.428-1.52c-0.868-0.651-1.91-1.259-2.258-0.999
		s1.085,0.999,0.651,1.433c-0.434,0.434-1.823-0.695-2.127-0.261c-0.304,0.434,1.52,0.912,1.259,1.433s-1.693-0.304-1.997,0.043
		c-0.304,0.347,5.557,4.428,8.466,5.384c2.909,0.955,9.942-5.47,13.372-8.51c3.43-3.039,6.903-4.993,9.161-5.47
		s24.801-5.575,28.134-6.903c8.416-3.353,16.778-9.765,19.817-14.845c3.039-5.08,6.363-12.681,7.318-21.278
		c0.955-8.596,0.304-19.32,0.825-23.488c0.521-4.168,7.424-16.064,9.812-19.581c2.388-3.517,4.081-3.821,4.732-12.417
		c0.651-8.596,1.563-26.18,1.563-27.483s0-4.906,0-4.906l-5.036-0.217c0,0-2.605,16.889-3.256,20.666s-2.032,9.441-2.605,12.157
		c-0.746,3.534-4.602,6.73-6.99,8.379C942.676,119.456,916.669,133.306,916.669,133.306z"/>
	<g>
		<path fill="#254C4B" d="M931.692,113.85c0.041-0.047,2.702-3.57,4.991-1.451c2.543,2.356-1.708,5.038-1.932,5.115
			S931.692,113.85,931.692,113.85z"/>
		<ellipse transform="matrix(0.7166 0.6975 -0.6975 0.7166 344.824 -619.3545)" cx="934.542" cy="114.637" rx="1.448" ry="1.82"/>
	</g>
	<g>
		<path fill="#254C4B" d="M909.205,124.017c-0.062,0.006-4.475,0.139-4.071,3.231c0.45,3.437,5.097,1.522,5.29,1.383
			S909.205,124.017,909.205,124.017z"/>
		<ellipse transform="matrix(0.1543 0.988 -0.988 0.1543 893.374 -790.0903)" cx="908.198" cy="126.796" rx="1.448" ry="1.82"/>
	</g>
	<path fill="#254C4B" d="M910.514,129.656c0,0-3.574-3.978-1.672-11.012s14.808-12.948,23.983-5.342
		c6.457,5.352,1.748,17.69-5.228,20.515C920.622,136.642,913.952,134.287,910.514,129.656z"/>
	<path fill="#46A391" d="M916.733,113.376c0,0,6.183-3.15,11.666-0.758c5.483,2.391,4.608,10.169,3.908,13.28
		c-0.7,3.11-3.824,6.268-8.516,6.96c-5.916,0.872-12.124-2.516-13.348-7.707C909.217,119.959,912.65,115.301,916.733,113.376z"/>
	<g>
		<circle fill="#FFFFFF" cx="925.357" cy="119.965" r="2.241"/>
		<circle cx="925.357" cy="119.965" r="1.027"/>
	</g>
	<g>
		<circle fill="#FFFFFF" cx="916.847" cy="123.403" r="2.241"/>
		<circle cx="916.847" cy="123.403" r="1.027"/>
	</g>
	<g>
		<path fill="#254C4B" d="M949.779,188.498c-3.1,0-6.479-0.881-10.066-2.647c-5.526-2.721-9.634-6.613-9.807-6.778
			c-1.032-0.986-1.069-2.622-0.084-3.654c0.986-1.033,2.621-1.07,3.654-0.084c0.138,0.132,14.112,13.235,22.641,5.553
			c3.728-3.357,2.714-8.942,1.641-14.854c-1.192-6.565-2.543-14.007,3.737-18.29c4.112-2.804,10.095-2.612,15.874-2.423
			c11.766,0.375,13.245-1.148,13.671-4.48c0.393-3.079-1.921-5.06-6.043-8.296c-5.563-4.37-13.184-10.354-10.825-23.429
			c1.561-8.651,9.913-14.823,10.269-15.082c1.152-0.84,2.769-0.587,3.61,0.567c0.84,1.152,0.587,2.767-0.563,3.608l0,0
			c-0.07,0.051-7.04,5.234-8.229,11.824c-1.806,10.014,3.41,14.109,8.932,18.446c4.307,3.381,8.76,6.878,7.978,13.015
			c-1.221,9.566-11.06,9.247-18.965,8.993c-4.953-0.16-10.077-0.325-12.795,1.527c-3.338,2.276-2.769,6.459-1.564,13.096
			c1.22,6.717,2.603,14.331-3.267,19.618C956.789,187.24,953.483,188.498,949.779,188.498z"/>
	</g>
	<g>
		<circle cx="921.592" cy="125.401" r="0.25"/>
		<circle cx="922.43" cy="125.15" r="0.25"/>
	</g>
</g>
<path fill="none" stroke="#000000" stroke-width="3" stroke-linecap="round" stroke-linejoin="round" d="M805.404,76.163
	c18.046-16.349,52.817-43.527,81.999-23.871c21.594,14.545,10.831,56.096-6.42,50.569c-16.925-5.422,12.043-40.978,25.096-42.164
	c45.266-4.115,63.403,41.702,123.145,21.788c41.819-13.94,54.294-62.695,46.982-102.912"/>
<path fill="#2C5E5E" d="M707.734,54.732c0,0,11.899,91.574,147.757,91.574c0,0,10.124-50.03-97.751-111.266L707.734,54.732z"/>
<g>
	<defs>
		<path id="SVGID_49_" d="M707.734,54.732c0,0,11.899,91.574,147.757,91.574c0,0,10.124-50.03-97.751-111.266L707.734,54.732z"/>
	</defs>
	<clipPath id="SVGID_50_">
		<use xlink:href="#SVGID_49_"  overflow="visible"/>
	</clipPath>
	<polygon clip-path="url(#SVGID_50_)" fill="#193534" points="855.49,146.307 725.592,35.041 682.252,54.732 773.933,171.113 
		860.297,159.946 	"/>
</g>
<path fill="#77BB68" d="M1318.218,292.27c-14.848,2.776-47.57,0.07-69.843-35.399c-22.272-35.468-22.547-56.728-23.097-77.87
	c-0.55-21.142-1.925-41.533-7.975-58.585c-6.049-17.052-20.776-31.112-31.621-48.435c-7.335-11.715-20.602-50.207,14.106-63.354
	s71.144,8.253,78.009,41.055c6.866,32.802,6.866,60.89,20.599,81.902c10.633,16.269,47.586,69.31,49.045,107.861
	C1348.901,277.997,1333.067,289.494,1318.218,292.27z"/>
<g>
	<defs>
		<path id="SVGID_51_" d="M1318.218,292.27c-14.848,2.776-47.57,0.07-69.843-35.399c-22.272-35.468-22.547-56.728-23.097-77.87
			c-0.55-21.142-1.925-41.533-7.975-58.585c-6.049-17.052-20.776-31.112-31.621-48.435c-7.335-11.715-20.602-50.207,14.106-63.354
			s71.144,8.253,78.009,41.055c6.866,32.802,6.866,60.89,20.599,81.902c10.633,16.269,47.586,69.31,49.045,107.861
			C1348.901,277.997,1333.067,289.494,1318.218,292.27z"/>
	</defs>
	<clipPath id="SVGID_52_">
		<use xlink:href="#SVGID_51_"  overflow="visible"/>
	</clipPath>
	<path clip-path="url(#SVGID_52_)" fill="none" stroke="#000000" stroke-width="1.5" d="M1192.953,6.434
		c0,0,99.968,134.077,129.615,285.836"/>
	
		<line clip-path="url(#SVGID_52_)" fill="none" stroke="#000000" stroke-width="1.5" stroke-linecap="round" stroke-linejoin="round" x1="1216.127" y1="41.492" x2="1222.057" y2="2.672"/>
	
		<line clip-path="url(#SVGID_52_)" fill="none" stroke="#000000" stroke-width="1.5" stroke-linecap="round" stroke-linejoin="round" x1="1216.127" y1="41.492" x2="1169.228" y2="27.929"/>
	
		<line clip-path="url(#SVGID_52_)" fill="none" stroke="#000000" stroke-width="1.5" stroke-linecap="round" stroke-linejoin="round" x1="1229.538" y1="62.02" x2="1240.609" y2="4.699"/>
	
		<line clip-path="url(#SVGID_52_)" fill="none" stroke="#000000" stroke-width="1.5" stroke-linecap="round" stroke-linejoin="round" x1="1229.538" y1="61.356" x2="1170.744" y2="52.025"/>
	
		<line clip-path="url(#SVGID_52_)" fill="none" stroke="#000000" stroke-width="1.5" stroke-linecap="round" stroke-linejoin="round" x1="1246.314" y1="91.628" x2="1265.721" y2="17.991"/>
	
		<line clip-path="url(#SVGID_52_)" fill="none" stroke="#000000" stroke-width="1.5" stroke-linecap="round" stroke-linejoin="round" x1="1246.314" y1="91.629" x2="1183.963" y2="82.485"/>
	
		<line clip-path="url(#SVGID_52_)" fill="none" stroke="#000000" stroke-width="1.5" stroke-linecap="round" stroke-linejoin="round" x1="1258.508" y1="114.764" x2="1282.611" y2="49.683"/>
	
		<line clip-path="url(#SVGID_52_)" fill="none" stroke="#000000" stroke-width="1.5" stroke-linecap="round" stroke-linejoin="round" x1="1258.508" y1="114.764" x2="1203.908" y2="113.597"/>
	
		<line clip-path="url(#SVGID_52_)" fill="none" stroke="#000000" stroke-width="1.5" stroke-linecap="round" stroke-linejoin="round" x1="1273.807" y1="146.574" x2="1292.315" y2="94.965"/>
	
		<line clip-path="url(#SVGID_52_)" fill="none" stroke="#000000" stroke-width="1.5" stroke-linecap="round" stroke-linejoin="round" x1="1273.807" y1="146.574" x2="1211.635" y2="141.235"/>
	
		<line clip-path="url(#SVGID_52_)" fill="none" stroke="#000000" stroke-width="1.5" stroke-linecap="round" stroke-linejoin="round" x1="1288.258" y1="179.002" x2="1308.301" y2="126.507"/>
	
		<line clip-path="url(#SVGID_52_)" fill="none" stroke="#000000" stroke-width="1.5" stroke-linecap="round" stroke-linejoin="round" x1="1288.258" y1="179.002" x2="1216.127" y2="171.113"/>
	
		<line clip-path="url(#SVGID_52_)" fill="none" stroke="#000000" stroke-width="1.5" stroke-linecap="round" stroke-linejoin="round" x1="1301.417" y1="217.422" x2="1328.421" y2="164.57"/>
	
		<line clip-path="url(#SVGID_52_)" fill="none" stroke="#000000" stroke-width="1.5" stroke-linecap="round" stroke-linejoin="round" x1="1301.417" y1="217.422" x2="1219.9" y2="200.891"/>
	
		<line clip-path="url(#SVGID_52_)" fill="none" stroke="#000000" stroke-width="1.5" stroke-linecap="round" stroke-linejoin="round" x1="1310.944" y1="247.217" x2="1342.116" y2="191.961"/>
	
		<line clip-path="url(#SVGID_52_)" fill="none" stroke="#000000" stroke-width="1.5" stroke-linecap="round" stroke-linejoin="round" x1="1310.944" y1="247.217" x2="1230.839" y2="232.932"/>
	
		<line clip-path="url(#SVGID_52_)" fill="none" stroke="#000000" stroke-width="1.5" stroke-linecap="round" stroke-linejoin="round" x1="1318.369" y1="272.78" x2="1354.091" y2="221.403"/>
	
		<line clip-path="url(#SVGID_52_)" fill="none" stroke="#000000" stroke-width="1.5" stroke-linecap="round" stroke-linejoin="round" x1="1318.369" y1="272.78" x2="1240.609" y2="269.5"/>
</g>
<ellipse fill="#EBEBEB" cx="441.094" cy="174.501" rx="3.417" ry="3.388"/>
<ellipse fill="#EBEBEB" cx="452.19" cy="185.755" rx="2.882" ry="2.042"/>
<ellipse fill="#EBEBEB" cx="493.651" cy="179.514" rx="5.258" ry="4.581"/>
<ellipse fill="#EBEBEB" cx="573.264" cy="567.168" rx="2.643" ry="2.33"/>
<ellipse fill="#EBEBEB" cx="586.213" cy="578.461" rx="3.408" ry="3.371"/>
<ellipse fill="#EBEBEB" cx="837.638" cy="578.877" rx="4.526" ry="5.023"/>
<ellipse fill="#EBEBEB" cx="818.203" cy="584.373" rx="2.485" ry="2.54"/>
<ellipse fill="#EBEBEB" cx="851.605" cy="598.893" rx="2.282" ry="2.251"/>
<ellipse fill="#EBEBEB" cx="1045.317" cy="501.861" rx="1.828" ry="2.188"/>
<ellipse fill="#EBEBEB" cx="1050.392" cy="340.052" rx="4.882" ry="4.534"/>
<ellipse fill="#EBEBEB" cx="1141.836" cy="229.641" rx="4.894" ry="4.512"/>
<ellipse fill="#EBEBEB" cx="1145.306" cy="244.645" rx="2.892" ry="2.658"/>
<ellipse fill="#EBEBEB" cx="1190.932" cy="114.916" rx="3.984" ry="4.267"/>
<ellipse fill="#EBEBEB" cx="1327.463" cy="118.194" rx="4.895" ry="4.597"/>
<ellipse fill="#EBEBEB" cx="795.034" cy="161.215" rx="3.342" ry="3.355"/>
<ellipse fill="#EBEBEB" cx="779.942" cy="152.117" rx="2.911" ry="2.92"/>
<path fill="#2C5E5E" d="M331.407,18.565c0,0-9.717-2.177-19.123,1.948c-9.406,4.126-3.518,12.251,5.157,8.824
	C326.723,25.67,331.407,18.565,331.407,18.565z"/>
<path fill="#2C5E5E" d="M331.407,18.032c0,0,6.373-7.652,16.343-10.118c9.97-2.466,10.26,7.564,1.294,10.138
	C339.452,20.807,331.407,18.032,331.407,18.032z"/>
<path fill="#2C5E5E" d="M359.857,28.709c0,0,6.373-7.652,16.343-10.118c9.97-2.466,10.26,7.564,1.295,10.138
	C367.902,31.483,359.857,28.709,359.857,28.709z"/>
<path fill="#2C5E5E" d="M343.929,48.472c0,0-8.656-4.923-18.857-3.728c-10.201,1.195-6.946,10.688,2.352,9.946
	C337.373,53.898,343.929,48.472,343.929,48.472z"/>
<path fill="#2C5E5E" d="M350.225,71.985c0,0-9.953-0.327-18.424,5.481c-8.471,5.807-1.171,12.693,6.712,7.707
	C346.949,79.839,350.225,71.985,350.225,71.985z"/>
<path fill="#2C5E5E" d="M367.207,91.628c0,0-9.707,2.226-16.413,10.004c-6.707,7.778,2.109,12.571,8.458,5.738
	C366.045,100.059,367.207,91.628,367.207,91.628z"/>
<path fill="#2C5E5E" d="M391.273,110.649c0,0-9.706,2.226-16.413,10.004s2.109,12.571,8.458,5.738
	C390.111,119.079,391.273,110.649,391.273,110.649z"/>
<path fill="#2C5E5E" d="M411.445,141.637c0,0-6.552-7.5-16.577-9.731c-10.025-2.231-10.079,7.803-1.056,10.166
	C403.468,144.601,411.445,141.637,411.445,141.637z"/>
<path fill="#2C5E5E" d="M397.526,159.946c0,0,1.093-9.898-4.044-18.792c-5.137-8.894-12.565-2.147-8.202,6.098
	C389.948,156.074,397.526,159.946,397.526,159.946z"/>
<path fill="#2C5E5E" d="M363.79,159.946c0,0,1.093-9.898-4.044-18.792c-5.137-8.894-12.564-2.147-8.202,6.098
	C356.212,156.074,363.79,159.946,363.79,159.946z"/>
<path fill="#2C5E5E" d="M362.401,212.549c0,0-9.083,4.083-14.137,13.024c-5.054,8.941,4.53,11.915,9.418,3.971
	C362.912,221.043,362.401,212.549,362.401,212.549z"/>
<path fill="#2C5E5E" d="M348.392,193.127c0,0-8.566-5.079-18.787-4.068c-10.221,1.011-7.138,10.56,2.172,9.987
	C341.739,198.433,348.392,193.127,348.392,193.127z"/>
<path fill="#2C5E5E" d="M346.833,170.717c0,0-5.383-8.378-14.973-12.054c-9.59-3.675-11.113,6.243-2.533,9.902
	C338.508,172.48,346.833,170.717,346.833,170.717z"/>
<path fill="#2C5E5E" d="M377.125,221.403c0,0-6.176,4.422-8.555,11.897c-2.38,7.475,5.291,8.286,7.704,1.585
	C378.855,227.715,377.125,221.403,377.125,221.403z"/>
<path fill="#2C5E5E" d="M397.112,226.969c0,0-5.078,5.648-5.793,13.46c-0.714,7.812,6.951,6.952,7.864-0.111
	C400.161,232.76,397.112,226.969,397.112,226.969z"/>
<path fill="#2C5E5E" d="M412.195,228.701c0,0-2.086,7.303,0.7,14.637s9.296,3.198,7.018-3.55
	C417.475,232.567,412.195,228.701,412.195,228.701z"/>
<path fill="#2C5E5E" d="M412.519,228.779c0,0,6.214,4.368,14.055,4.145c7.842-0.223,6.073-7.731-1.049-7.795
	C417.905,225.061,412.519,228.779,412.519,228.779z"/>
<path fill="#2C5E5E" d="M412.184,228.174c0,0,6.435-4.036,9.267-11.351c2.832-7.316-4.774-8.594-7.592-2.053
	C410.843,221.768,412.184,228.174,412.184,228.174z"/>
<path fill="#2C5E5E" d="M397.169,226.969c0,0,5.7-5.02,7.316-12.697c1.616-7.677-6.096-7.712-7.824-0.802
	C394.813,220.864,397.169,226.969,397.169,226.969z"/>
<path fill="#2C5E5E" d="M377.509,221.403c0,0,6.376-4.128,9.102-11.484c2.727-7.356-4.897-8.524-7.621-1.943
	C376.076,215.017,377.509,221.403,377.509,221.403z"/>
<path fill="#2C5E5E" d="M362.414,212.549c0,0,9.39-3.317,15.167-11.809c5.777-8.492-3.527-12.249-9.057-4.737
	C362.608,204.041,362.414,212.549,362.414,212.549z"/>
<path fill="#2C5E5E" d="M347.299,193.013c0,0,8.344,5.436,18.598,4.856c10.254-0.579,7.577-10.25-1.749-10.07
	C354.17,187.992,347.299,193.013,347.299,193.013z"/>
<path fill="#2C5E5E" d="M347.491,170.909c0,0,7.281,6.794,17.482,7.993c10.2,1.199,9.232-8.789,0.015-10.221
	C355.125,167.149,347.491,170.909,347.491,170.909z"/>
<path fill="#2C5E5E" d="M364.341,159.946c0,0-1.981,9.76,2.334,19.08c4.315,9.32,12.32,3.27,8.718-5.334
	C371.539,164.485,364.341,159.946,364.341,159.946z"/>
<path fill="#2C5E5E" d="M397.543,159.946c0,0-2.502,9.639,1.305,19.178c3.808,9.539,12.126,3.927,8.992-4.858
	C404.487,164.865,397.543,159.946,397.543,159.946z"/>
<path fill="#2C5E5E" d="M412.519,141.354c0,0,8.327,5.461,18.583,4.914c10.256-0.547,7.609-10.226-1.718-10.075
	C419.406,136.355,412.519,141.354,412.519,141.354z"/>
<path fill="#2C5E5E" d="M405.161,126.507c0,0,9.955-0.28,18.056-6.593c8.102-6.313,0.396-12.74-7.169-7.284
	C407.953,118.468,405.161,126.507,405.161,126.507z"/>
<path fill="#2C5E5E" d="M392.515,110.368c0,0,9.853,1.448,18.925-3.366c9.073-4.814,2.597-12.479-5.799-8.416
	C396.657,102.934,392.515,110.368,392.515,110.368z"/>
<path fill="#2C5E5E" d="M367.207,91.628c0,0,9.918-0.897,17.613-7.699c7.695-6.803-0.394-12.741-7.607-6.826
	C369.495,83.432,367.207,91.628,367.207,91.628z"/>
<path fill="#2C5E5E" d="M350.225,71.895c0,0,9.467,3.09,19.222-0.125c9.755-3.214,4.665-11.862-4.296-9.274
	C355.562,65.267,350.225,71.895,350.225,71.895z"/>
<path fill="#2C5E5E" d="M343.929,48.153c0,0,8.048,5.866,18.318,5.826c10.27-0.04,8.105-9.838-1.218-10.148
	C351.054,43.499,343.929,48.153,343.929,48.153z"/>
<path fill="none" stroke="#000000" stroke-width="3" d="M334.315-4.908c0,0-9.127,30.62,4.955,38.626
	c14.082,8.006,22.948-1.904,19.819-6.598s-19.574-4.171-15.16,22.562c3.164,19.162,12.031,33.851,27.938,45.282
	c15.907,11.431,45.897,33.337,38.856,54.199c-4.923,14.586-22.166,11.213-37.813,10.17c-16.601-1.107-32.858,7.562-26.078,31.815
	c6.78,24.252,40.057,37.03,67.571,37.552"/>
<path fill="#2C5E5E" d="M236.171,34.398c9.871,0,24.93,2.261,32.091,31.37c7.161,29.109,9.621,39.467,16.652,54.648
	c12.848,27.741,21.461,52.71,15.115,79.537c-5.247,22.183-14.382,56.802-38.85,58.802c-24.468,2-46.14-9.489-59.445-44.122
	c-13.304-34.634-6.386-58.638,2.227-81.562c8.614-22.924,21.225-32.252,21.957-44.929c0.266-4.602-9.382-10.096-12.376-17.13
	c-5.254-12.344-7.547-21.899-10.054-29.272C203.487,41.739,215.939,34.398,236.171,34.398z"/>
<g>
	<defs>
		<path id="SVGID_53_" d="M236.171,34.398c9.871,0,24.93,2.261,32.091,31.37c7.161,29.109,9.621,39.467,16.652,54.648
			c12.848,27.741,21.461,52.71,15.115,79.537c-5.247,22.183-14.382,56.802-38.85,58.802c-24.468,2-46.14-9.489-59.445-44.122
			c-13.304-34.634-6.386-58.638,2.227-81.562c8.614-22.924,21.225-32.252,21.957-44.929c0.266-4.602-9.382-10.096-12.376-17.13
			c-5.254-12.344-7.547-21.899-10.054-29.272C203.487,41.739,215.939,34.398,236.171,34.398z"/>
	</defs>
	<clipPath id="SVGID_54_">
		<use xlink:href="#SVGID_53_"  overflow="visible"/>
	</clipPath>
	<path clip-path="url(#SVGID_54_)" fill="#254C4B" d="M281.413,104.22c-1.315-1.068-42.044,84.475,9.731,140.503
		C291.144,244.723,335.62,148.263,281.413,104.22z"/>
</g>
<path fill="#6DD1BD" d="M268.261,65.768c0,0-5.68,14.223-4.865,33.993c0.814,19.769-0.986,68.991-34.68,69.14
	c-33.693,0.149-29.153-26.564-19.921-46.15c8.96-19.009,18.799-27.029,16.884-37.26C223.05,71.438,246.138,94.324,268.261,65.768z"
	/>
<ellipse transform="matrix(0.053 0.9986 -0.9986 0.053 283.1481 -184.1519)" fill="#FFFFFF" cx="238.663" cy="57.206" rx="4.702" ry="4.967"/>
<ellipse transform="matrix(0.053 0.9986 -0.9986 0.053 283.1487 -184.1521)" cx="238.663" cy="57.206" rx="2.36" ry="2.493"/>
<path fill="#254C4B" d="M237.017,261.782c2.367-5.261,5.495-11.007,9.795-10.614c7.547,0.69,6.237,15.928,4.977,20.192
	c-0.381,1.288-1.794,1.049-1.975-0.42c-0.141-1.142-0.439-7.262-2.078-7.395c-1.7-0.138-3.548,9.194-5.557,9.234
	c-3.286,0.065,1.996-10.312-0.663-10.321c-1.752-0.006-4.284,6.254-5.879,6.019C234.099,268.25,237.017,261.782,237.017,261.782z"/>
<path fill="#254C4B" d="M268.856,251.667c0.262-2.298,2.434-5.21,5.321-5.564c5.07-0.622,10.493,6.105,12.309,10.802
	c3.04,7.863-5.232-0.662-6.414-0.6c-0.343,0.018-0.237,0.838-0.226,1.056c0.048,0.903,1.026,7.758,0.098,8.035
	c-1.549,0.463-4.8-7.354-5.794-6.839c-1.304,0.676,1.041,9.907-0.251,10.554c-1.127,0.564-2.773-2.945-3.364-4.537
	C267.312,255.894,268.856,251.667,268.856,251.667z"/>
<path fill="#F36569" d="M208.631,39.427c0,0-32.206,12.021-54.929,28.906c-22.723,16.885-32.028,31.187-27.863,34.711
	c4.165,3.524,26.688-8.67,49.646-8.25c22.958,0.421,44.682-1.553,52.442-9.688c7.76-8.135-7.159-6.37-8.822-15.093
	c-1.78-9.338,9.159-9.893,5.98-21.22C223.124,41.804,214.698,39.106,208.631,39.427z"/>
<g>
	<defs>
		<path id="SVGID_55_" d="M208.631,39.427c0,0-32.206,12.021-54.929,28.906c-22.723,16.885-32.028,31.187-27.863,34.711
			c4.165,3.524,26.688-8.67,49.646-8.25c22.958,0.421,44.682-1.553,52.442-9.688c7.76-8.135-7.159-6.37-8.822-15.093
			c-1.78-9.338,9.159-9.893,5.98-21.22C223.124,41.804,214.698,39.106,208.631,39.427z"/>
	</defs>
	<clipPath id="SVGID_56_">
		<use xlink:href="#SVGID_55_"  overflow="visible"/>
	</clipPath>
	<path clip-path="url(#SVGID_56_)" d="M146.492,66.803c0,0,17.84,12.547,17.792,32.006c-0.049,19.46-39,9.755-39,9.755l-6.23-11.08
		L146.492,66.803z"/>
	<path clip-path="url(#SVGID_56_)" fill="none" stroke="#000000" d="M157.085,85.885c0,0,31.485-15.424,68.061-17.691"/>
</g>
<path fill="#6DD1BD" d="M-6.544,722.185c0,0,8.825-39.492,23.343-49.234c14.518-9.741,31.118-13.427,38.754-26.855
	c7.635-13.427,13.409-31.205,26.524-48.19c14.747-19.099,13.941-20.303,32.307-34.113c21.235-15.967,44.564-27.657,59.909-14.813
	c15.493,12.969-25.365,43.204-29.519,74.568c-2.524,19.053-5.692,41.05-25.391,55.928c-21.781,16.45-23.563,22.341-29.497,40.842
	c-8.508,26.525-75.407,43.067-75.407,43.067l-18.43-10.552L-6.544,722.185z"/>
<g>
	<defs>
		<path id="SVGID_57_" d="M-6.544,722.185c0,0,8.825-39.492,23.343-49.234c14.518-9.741,31.118-13.427,38.754-26.855
			c7.635-13.427,13.409-31.205,26.524-48.19c14.747-19.099,13.941-20.303,32.307-34.113c21.235-15.967,44.564-27.657,59.909-14.813
			c15.493,12.969-25.365,43.204-29.519,74.568c-2.524,19.053-5.692,41.05-25.391,55.928c-21.781,16.45-23.563,22.341-29.497,40.842
			c-8.508,26.525-75.407,43.067-75.407,43.067l-18.43-10.552L-6.544,722.185z"/>
	</defs>
	<clipPath id="SVGID_58_">
		<use xlink:href="#SVGID_57_"  overflow="visible"/>
	</clipPath>
	<path clip-path="url(#SVGID_58_)" fill="none" stroke="#000000" stroke-width="2" d="M2.52,752.833c0,0,39.686-43.74,54.384-67.047
		s41.231-58.996,54.607-74.122c14.78-16.714,50.658-58.864,61.543-68.593"/>
	
		<line clip-path="url(#SVGID_58_)" fill="none" stroke="#000000" stroke-width="2" stroke-linejoin="round" x1="13.229" y1="740.878" x2="-3.57" y2="702.164"/>
	
		<line clip-path="url(#SVGID_58_)" fill="none" stroke="#000000" stroke-width="2" stroke-linejoin="round" x1="13.229" y1="740.878" x2="91.55" y2="756.128"/>
	
		<line clip-path="url(#SVGID_58_)" fill="none" stroke="#000000" stroke-width="2" stroke-linejoin="round" x1="23.307" y1="729.041" x2="9.239" y2="674.657"/>
	
		<line clip-path="url(#SVGID_58_)" fill="none" stroke="#000000" stroke-width="2" stroke-linejoin="round" x1="23.308" y1="729.041" x2="99.529" y2="738.91"/>
	
		<line clip-path="url(#SVGID_58_)" fill="none" stroke="#000000" stroke-width="2" stroke-linejoin="round" x1="25.617" y1="663.738" x2="36.116" y2="713.293"/>
	
		<line clip-path="url(#SVGID_58_)" fill="none" stroke="#000000" stroke-width="2" stroke-linejoin="round" x1="36.116" y1="713.293" x2="91.55" y2="718.033"/>
	
		<line clip-path="url(#SVGID_58_)" fill="none" stroke="#000000" stroke-width="2" stroke-linejoin="round" x1="51.969" y1="694.185" x2="44.856" y2="650.72"/>
	
		<line clip-path="url(#SVGID_58_)" fill="none" stroke="#000000" stroke-width="2" stroke-linejoin="round" x1="51.969" y1="694.185" x2="120.947" y2="689.776"/>
	
		<line clip-path="url(#SVGID_58_)" fill="none" stroke="#000000" stroke-width="2" stroke-linejoin="round" x1="72.808" y1="661.989" x2="61.943" y2="624.053"/>
	
		<line clip-path="url(#SVGID_58_)" fill="none" stroke="#000000" stroke-width="2" stroke-linejoin="round" x1="64.22" y1="674.657" x2="139.425" y2="670.038"/>
	
		<line clip-path="url(#SVGID_58_)" fill="none" stroke="#000000" stroke-width="2" stroke-linejoin="round" x1="86.091" y1="642.951" x2="73.996" y2="597.906"/>
	
		<line clip-path="url(#SVGID_58_)" fill="none" stroke="#000000" stroke-width="2" stroke-linejoin="round" x1="79.279" y1="653.152" x2="147.824" y2="645.47"/>
	
		<line clip-path="url(#SVGID_58_)" fill="none" stroke="#000000" stroke-width="2" stroke-linejoin="round" x1="101.682" y1="622.909" x2="91.55" y2="578.068"/>
	
		<line clip-path="url(#SVGID_58_)" fill="none" stroke="#000000" stroke-width="2" stroke-linejoin="round" x1="93.343" y1="634.733" x2="156.799" y2="625.942"/>
	
		<line clip-path="url(#SVGID_58_)" fill="none" stroke="#000000" stroke-width="2" stroke-linejoin="round" x1="114.571" y1="608.596" x2="107.508" y2="562.656"/>
	
		<line clip-path="url(#SVGID_58_)" fill="none" stroke="#000000" stroke-width="2" stroke-linejoin="round" x1="111.511" y1="611.664" x2="163.992" y2="612.714"/>
	
		<line clip-path="url(#SVGID_58_)" fill="none" stroke="#000000" stroke-width="2" stroke-linejoin="round" x1="126.291" y1="594.95" x2="120.947" y2="545.101"/>
	
		<line clip-path="url(#SVGID_58_)" fill="none" stroke="#000000" stroke-width="2" stroke-linejoin="round" x1="120.947" y1="600.482" x2="166.862" y2="600.482"/>
	
		<line clip-path="url(#SVGID_58_)" fill="none" stroke="#000000" stroke-width="2" stroke-linejoin="round" x1="139.425" y1="580.096" x2="132.496" y2="543.071"/>
	
		<line clip-path="url(#SVGID_58_)" fill="none" stroke="#000000" stroke-width="2" stroke-linejoin="round" x1="139.425" y1="580.096" x2="177.784" y2="583.9"/>
	
		<line clip-path="url(#SVGID_58_)" fill="none" stroke="#000000" stroke-width="2" stroke-linejoin="round" x1="151.209" y1="566.406" x2="150.664" y2="536.912"/>
	
		<line clip-path="url(#SVGID_58_)" fill="none" stroke="#000000" stroke-width="2" stroke-linejoin="round" x1="150.664" y1="566.406" x2="187.198" y2="569.878"/>
	
		<line clip-path="url(#SVGID_58_)" fill="none" stroke="#000000" stroke-width="2" stroke-linejoin="round" x1="163.992" y1="553.08" x2="163.992" y2="535.022"/>
	
		<line clip-path="url(#SVGID_58_)" fill="none" stroke="#000000" stroke-width="2" stroke-linejoin="round" x1="163.992" y1="552.64" x2="181.63" y2="556.02"/>
</g>
<g>
	<defs>
		<circle id="SVGID_59_" cx="593.847" cy="-16.862" r="119.723"/>
	</defs>
	<clipPath id="SVGID_60_">
		<use xlink:href="#SVGID_59_"  overflow="visible"/>
	</clipPath>
	<g clip-path="url(#SVGID_60_)">
		
			<line fill="none" stroke="#193534" stroke-width="1.6157" stroke-miterlimit="10" x1="569.646" y1="-9.959" x2="472.256" y2="7.891"/>
		
			<line fill="none" stroke="#193534" stroke-width="1.6157" stroke-miterlimit="10" x1="567.855" y1="1.36" x2="486.837" y2="48.136"/>
		
			<line fill="none" stroke="#193534" stroke-width="1.6157" stroke-miterlimit="10" x1="574.437" y1="9.302" x2="514.304" y2="80.967"/>
		
			<line fill="none" stroke="#193534" stroke-width="1.6157" stroke-miterlimit="10" x1="583.339" y1="14.514" x2="551.342" y2="102.424"/>
		
			<line fill="none" stroke="#193534" stroke-width="1.6157" stroke-miterlimit="10" x1="593.486" y1="16.367" x2="593.486" y2="109.918"/>
		
			<line fill="none" stroke="#193534" stroke-width="1.6157" stroke-miterlimit="10" x1="603.655" y1="14.638" x2="635.651" y2="102.547"/>
		
			<line fill="none" stroke="#193534" stroke-width="1.6157" stroke-miterlimit="10" x1="612.619" y1="9.535" x2="672.753" y2="81.199"/>
		
			<line fill="none" stroke="#193534" stroke-width="1.6157" stroke-miterlimit="10" x1="619.298" y1="1.673" x2="700.315" y2="48.449"/>
		
			<line fill="none" stroke="#193534" stroke-width="1.6157" stroke-miterlimit="10" x1="622.884" y1="-7.998" x2="715.014" y2="8.247"/>
	</g>
</g>
<path fill="none" stroke="#424242" stroke-width="2.8346" stroke-miterlimit="10" d="M724.263-0.001"/>
<path fill="none" stroke="#424242" stroke-width="2.8346" stroke-miterlimit="10" d="M724.263-0.001"/>
<path fill="none" stroke="#424242" stroke-width="2.8346" stroke-miterlimit="10" d="M724.263-0.001"/>
<path fill="none" stroke="#424242" stroke-width="2.8346" stroke-miterlimit="10" d="M724.263-0.001"/>
<path fill="none" stroke="#424242" stroke-width="2.8346" stroke-miterlimit="10" d="M724.263-0.001"/>
<path fill="none" stroke="#424242" stroke-width="2.8346" stroke-miterlimit="10" d="M724.263-0.001"/>
<path fill="none" stroke="#424242" stroke-width="2.8346" stroke-miterlimit="10" d="M724.263-0.001"/>
<path fill="none" stroke="#424242" stroke-width="2.8346" stroke-miterlimit="10" d="M724.263-0.001"/>
<path fill="none" stroke="#424242" stroke-width="2.8346" stroke-miterlimit="10" d="M724.263-0.001"/>
<path fill="none" stroke="#424242" stroke-width="2.8346" stroke-miterlimit="10" d="M724.263-0.001"/>
<path fill="none" stroke="#424242" stroke-width="2.8346" stroke-miterlimit="10" d="M724.263-0.001"/>
<path fill="none" stroke="#424242" stroke-width="2.8346" stroke-miterlimit="10" d="M724.263-0.001"/>
<path fill="none" stroke="#424242" stroke-width="2.8346" stroke-miterlimit="10" d="M724.263-0.001"/>
<g>
	<circle fill="#46A391" cx="724.263" cy="-1.066" r="63.661"/>
	<path fill="none" stroke="#424242" stroke-width="2.8346" stroke-miterlimit="10" d="M735.318-62.695"/>
	<g>
		<defs>
			<circle id="SVGID_61_" cx="724.263" cy="-1.066" r="63.661"/>
		</defs>
		<clipPath id="SVGID_62_">
			<use xlink:href="#SVGID_61_"  overflow="visible"/>
		</clipPath>
		<g clip-path="url(#SVGID_62_)">
			<line fill="none" stroke="#193534" stroke-miterlimit="10" x1="724.263" y1="-0.001" x2="662.233" y2="14.32"/>
			<line fill="none" stroke="#193534" stroke-miterlimit="10" x1="724.263" y1="-0.001" x2="667.045" y2="27.907"/>
			<line fill="none" stroke="#193534" stroke-miterlimit="10" x1="724.263" y1="-0.001" x2="674.789" y2="40.063"/>
			<line fill="none" stroke="#193534" stroke-miterlimit="10" x1="724.263" y1="-0.001" x2="685.069" y2="50.165"/>
			<line fill="none" stroke="#193534" stroke-miterlimit="10" x1="724.263" y1="-0.001" x2="697.359" y2="57.696"/>
			<line fill="none" stroke="#193534" stroke-miterlimit="10" x1="724.263" y1="-0.001" x2="711.027" y2="62.27"/>
			<line fill="none" stroke="#193534" stroke-miterlimit="10" x1="724.263" y1="-0.001" x2="725.374" y2="63.651"/>
			<line fill="none" stroke="#193534" stroke-miterlimit="10" x1="724.263" y1="-0.001" x2="739.664" y2="61.77"/>
			<line fill="none" stroke="#193534" stroke-miterlimit="10" x1="724.263" y1="-0.001" x2="753.165" y2="56.722"/>
			<line fill="none" stroke="#193534" stroke-miterlimit="10" x1="724.263" y1="-0.001" x2="765.184" y2="48.767"/>
			<line fill="none" stroke="#193534" stroke-miterlimit="10" x1="724.263" y1="-0.001" x2="775.105" y2="38.312"/>
			<line fill="none" stroke="#193534" stroke-miterlimit="10" x1="724.263" y1="-0.001" x2="782.421" y2="25.893"/>
			<line fill="none" stroke="#193534" stroke-miterlimit="10" x1="724.263" y1="-0.001" x2="786.755" y2="12.147"/>
			<line fill="none" stroke="#193534" stroke-miterlimit="10" x1="724.263" y1="-0.001" x2="787.886" y2="-2.222"/>
			<line fill="none" stroke="#193534" stroke-miterlimit="10" x1="724.263" y1="-0.001" x2="660.757" y2="4.44"/>
		</g>
	</g>
	<circle fill="#193534" cx="724.263" cy="-1.066" r="16.529"/>
</g>
<g>
	<defs>
		<path id="SVGID_63_" d="M1329.968,461.453c1.898-1.18,42.104,6.04,53.699,44.689c11.594,38.648,15.355,68.683,15.355,76.437
			c0,7.754-19.021,4.335-19.021,4.335l0.905,53.579c0,0-70.359,15.888-110.351-6.826l1.141-51.834l-20.474,5.186
			c0,0-1.472-13.995,2.279-45.018c3.329-27.538,8.5-67.667,52.887-81.064C1306.387,460.936,1318.841,468.368,1329.968,461.453z"/>
	</defs>
	<clipPath id="SVGID_64_">
		<use xlink:href="#SVGID_63_"  overflow="visible"/>
	</clipPath>
	<line clip-path="url(#SVGID_64_)" fill="none" stroke="#000000" x1="1319.749" y1="476.889" x2="1322.75" y2="647.594"/>
</g>
<g>
	<defs>
		<path id="SVGID_65_" d="M1329.968,461.453c1.898-1.18,36.535,2.899,48.13,41.547c11.594,38.648,27.153,73.145,27.153,80.9
			c0,7.754-21.812,3.013-21.812,3.013l2.185,52.631c0,0-72.592,16.328-112.584-6.385l-1.345-51.327l-31.086-4.125
			c0,0,1.176-22.349,9.746-48.73c8.57-26.382,10.067-59.221,56.032-68.041C1306.387,460.936,1318.841,468.368,1329.968,461.453z"/>
	</defs>
	<clipPath id="SVGID_66_">
		<use xlink:href="#SVGID_65_"  overflow="visible"/>
	</clipPath>
	<polygon clip-path="url(#SVGID_66_)" fill="#6DD1BD" points="1302.285,451.722 1319.975,492.345 1333.34,451.334 1329.516,450.161 
		1318.799,453.839 1305.289,450.391 	"/>
</g>
<g>
	<polygon fill="#F36569" points="1332.563,525.407 1317.443,525.407 1313.444,493.232 1336.611,493.232 	"/>
	<ellipse fill="#FFFFFF" cx="1325.027" cy="493.232" rx="11.584" ry="3.122"/>
</g>
<path fill="#F4F4F4" d="M1306.5,521.028c1.188-2.812,2.074-8.521,8.954-10.95l0.591,4.068c0,0,11.904,0.444,16.524-6.306
	c4.619-6.75,1.259,8.394-1.498,14.259c-2.758,5.866-11.195,7.303-13.008,8.428s-9.438,6.875-10.625,8.562s-8.812-8.938-8.812-8.938
	S1305.312,523.841,1306.5,521.028z"/>
<path fill="#F4F4F4" d="M1342.803,526.221c-1.188-2.812-2.074-8.521-8.954-10.95l-0.591,4.068c0,0-11.904,0.444-16.524-6.306
	c-4.619-6.75-1.259,8.394,1.498,14.259c2.757,5.866,11.195,7.303,13.007,8.428s9.438,6.875,10.625,8.562s8.812-8.938,8.812-8.938
	S1343.991,529.033,1342.803,526.221z"/>
<path fill="#419383" d="M1302.095,518.102l28.474,22.762c0,0-32.93,37.501-53.461,49.854c-17.963,10.809-23.621,4.906-25.694-2.602
	c-1.31-4.746,2.562-19.604,17.988-38.022C1284.829,531.677,1302.095,518.102,1302.095,518.102z"/>
<path fill="#419383" d="M1348.037,514.841l-28.474,22.762c0,0,32.93,37.501,53.461,49.854c17.963,10.809,23.691,4.618,25.764-2.889
	c1.31-4.746-2.631-19.316-18.058-37.734C1365.302,528.415,1348.037,514.841,1348.037,514.841z"/>
<path fill="#254C4B" d="M958.289,74.852c0,0,0.962-1.227,2.695-1.035s2.606,2.258,2.358,3.368c-0.177,0.794-0.571,0.855-0.674,0.794
	c-0.39-0.233-0.361-2.049-1.011-2.071c-0.65-0.022-0.842,2.201-1.612,2.112s0.265-2.086-0.289-2.254
	c-0.553-0.168-1.732,1.804-2.31,1.492C956.869,76.945,957.752,75.335,958.289,74.852z"/>
<ellipse fill="#EBEBEB" cx="228.717" cy="293.876" rx="3.837" ry="3.743"/>
</svg>
