<?xml version="1.0" encoding="utf-8"?>
<!-- Generator: Adobe Illustrator 17.0.0, SVG Export Plug-In . SVG Version: 6.00 Build 0)  -->
<!DOCTYPE svg PUBLIC "-//W3C//DTD SVG 1.1//EN" "http://www.w3.org/Graphics/SVG/1.1/DTD/svg11.dtd">
<svg version="1.1" id="Layer_1" xmlns="http://www.w3.org/2000/svg" xmlns:xlink="http://www.w3.org/1999/xlink" x="0px" y="0px"
	 width="500px" height="500px" viewBox="0 0 500 500" enable-background="new 0 0 500 500" xml:space="preserve">
<g enable-background="new    ">
	<g>
		<defs>
			<rect id="SVGID_1_" x="-1604" width="500" height="500"/>
		</defs>
		<clipPath id="SVGID_2_">
			<use xlink:href="#SVGID_1_"  overflow="visible"/>
		</clipPath>
		<g clip-path="url(#SVGID_2_)">
			<defs>
				<rect id="SVGID_3_" x="-1604" width="500" height="500"/>
			</defs>
			<clipPath id="SVGID_4_">
				<use xlink:href="#SVGID_3_"  overflow="visible"/>
			</clipPath>
			<rect x="-1604" clip-path="url(#SVGID_4_)" fill="#FFFFFF" width="500" height="500"/>
		</g>
	</g>
</g>
<rect x="-1604" fill="#FFFFFF" width="500" height="500"/>
<circle fill="#FFCF83" cx="-1349.626" cy="250" r="194.311"/>
<g>
	<defs>
		<circle id="SVGID_5_" cx="-1349.626" cy="250" r="194.311"/>
	</defs>
	<clipPath id="SVGID_6_">
		<use xlink:href="#SVGID_5_"  overflow="visible"/>
	</clipPath>
	<path clip-path="url(#SVGID_6_)" fill="#B74E29" d="M-1422.034,255.783c0,0,26.881-3.223,51.285-24.787
		c24.404-21.563,40.342-8.903,53.431,1.826c13.089,10.729,30.042,20.98,57.937,13.733l13.09,33.904l-110.939,42.849l-68.023-26.428
		l-5.579-24.146L-1422.034,255.783z"/>
</g>
<g>
	<defs>
		<circle id="SVGID_7_" cx="-1349.626" cy="250" r="194.311"/>
	</defs>
	<clipPath id="SVGID_8_">
		<use xlink:href="#SVGID_7_"  overflow="visible"/>
	</clipPath>
	<g clip-path="url(#SVGID_8_)">
		<defs>
			<path id="SVGID_9_" d="M-1422.034,255.783c0,0,26.881-3.223,51.285-24.787c24.404-21.563,40.342-8.903,53.431,1.826
				c13.089,10.729,30.042,20.98,57.937,13.733l13.09,33.904l-110.939,42.849l-68.023-26.428l-5.579-24.146L-1422.034,255.783z"/>
		</defs>
		<clipPath id="SVGID_10_">
			<use xlink:href="#SVGID_9_"  overflow="visible"/>
		</clipPath>
		<path clip-path="url(#SVGID_10_)" fill="#9E4125" d="M-1417.55,252.977c14.255,6.556,63.125-38.91,81.433-19.719
			c14.68,15.389-10.97,43.343,28.646,44.55l-3.649,23.346l-80.199-7.971l-34.785-38.65l6.764-16.426
			C-1419.339,238.108-1426.319,248.944-1417.55,252.977z"/>
	</g>
</g>
<g>
	<defs>
		<circle id="SVGID_11_" cx="-1349.626" cy="250" r="194.311"/>
	</defs>
	<clipPath id="SVGID_12_">
		<use xlink:href="#SVGID_11_"  overflow="visible"/>
	</clipPath>
	<path clip-path="url(#SVGID_12_)" fill="#EF8822" d="M-1341.957,283.135c0,0,21.767,2.193,41.677-9.955
		c19.911-12.149,45.499-36.278,66.536-34.422c21.037,1.856,30.148,10.799,43.984,17.548c13.836,6.749,29.36,13.667,43.027,9.618
		l-14.68,58.888l-113.051,14.005l-55.682-25.141L-1341.957,283.135z"/>
</g>
<g>
	<defs>
		<circle id="SVGID_13_" cx="-1349.626" cy="250" r="194.311"/>
	</defs>
	<clipPath id="SVGID_14_">
		<use xlink:href="#SVGID_13_"  overflow="visible"/>
	</clipPath>
	<g clip-path="url(#SVGID_14_)">
		<defs>
			<path id="SVGID_15_" d="M-1341.957,283.135c0,0,21.767,2.193,41.677-9.955c19.911-12.149,45.499-36.278,66.536-34.422
				c21.037,1.856,30.148,10.799,43.984,17.548c13.836,6.749,29.36,13.667,43.027,9.618l-14.68,58.888l-113.051,14.005
				l-55.682-25.141L-1341.957,283.135z"/>
		</defs>
		<clipPath id="SVGID_16_">
			<use xlink:href="#SVGID_15_"  overflow="visible"/>
		</clipPath>
		<path clip-path="url(#SVGID_16_)" fill="#C85629" d="M-1207.139,246.351c0,0-12.992-8.61-31.216,7.507
			c-18.223,16.116-46.908,56.781-97.022,45.476l-10.968-14.005l2.869-12.318l57.876-20.585l23.116-16.367l41.508-5.062l15.861,9.449
			L-1207.139,246.351z"/>
	</g>
</g>
<g>
	<defs>
		<circle id="SVGID_17_" cx="-1349.626" cy="250" r="194.311"/>
	</defs>
	<clipPath id="SVGID_18_">
		<use xlink:href="#SVGID_17_"  overflow="visible"/>
	</clipPath>
	<path clip-path="url(#SVGID_18_)" fill="#C85629" d="M-1404.153,254.232c0,0-18.344,0.524-40.008-9.958
		c-21.664-10.482-29.7-5.402-51.364,7.869c-21.664,13.271-38.684,14.319-51.576,13.271c-12.892-1.048,0,34.162,0,34.162
		l13.14,37.526l52.238-3.378l63.069-60.798L-1404.153,254.232z"/>
</g>
<g>
	<defs>
		<circle id="SVGID_19_" cx="-1349.626" cy="250" r="194.311"/>
	</defs>
	<clipPath id="SVGID_20_">
		<use xlink:href="#SVGID_19_"  overflow="visible"/>
	</clipPath>
	<g clip-path="url(#SVGID_20_)">
		<defs>
			<path id="SVGID_21_" d="M-1404.153,254.232c0,0-18.344,0.524-40.008-9.958c-21.664-10.482-29.7-5.402-51.364,7.869
				c-21.664,13.271-38.684,14.319-51.576,13.271c-12.892-1.048,0,34.162,0,34.162l13.14,37.526l52.238-3.378l63.069-60.798
				L-1404.153,254.232z"/>
		</defs>
		<clipPath id="SVGID_22_">
			<use xlink:href="#SVGID_21_"  overflow="visible"/>
		</clipPath>
		<path clip-path="url(#SVGID_22_)" fill="#9E4125" d="M-1478.054,242.003c0,0-9.784,6.464-1.223,14.151
			c8.561,7.687,33.719,14.326,9.085,34.942l-30.399-0.524l-35.395-21.839l9.713-16.59l33.369-13.486L-1478.054,242.003z"/>
	</g>
</g>
<g>
	<defs>
		<circle id="SVGID_23_" cx="-1349.626" cy="250" r="194.311"/>
	</defs>
	<clipPath id="SVGID_24_">
		<use xlink:href="#SVGID_23_"  overflow="visible"/>
	</clipPath>
	<path clip-path="url(#SVGID_24_)" fill="#B74E29" d="M-1554.093,257.222c0,0,19.371-12.977,45.701,12.036
		c26.33,25.013,48.146,24.825,64.508,17.679l-62.816,54.352l-37.05,2.633l-15.986-77.673L-1554.093,257.222z"/>
</g>
<g>
	<defs>
		<circle id="SVGID_25_" cx="-1349.626" cy="250" r="194.311"/>
	</defs>
	<clipPath id="SVGID_26_">
		<use xlink:href="#SVGID_25_"  overflow="visible"/>
	</clipPath>
	<g clip-path="url(#SVGID_26_)">
		<defs>
			<path id="SVGID_27_" d="M-1554.093,257.222c0,0,19.371-12.977,45.701,12.036c26.33,25.013,48.146,24.825,64.508,17.679
				l-62.816,54.352l-37.05,2.633l-15.986-77.673L-1554.093,257.222z"/>
		</defs>
		<clipPath id="SVGID_28_">
			<use xlink:href="#SVGID_27_"  overflow="visible"/>
		</clipPath>
		<path clip-path="url(#SVGID_28_)" fill="#C85629" d="M-1559.735,266.25c0,0,57.173,56.025,114.159,21.816l-30.091,55.857
			l-62.816,19.559l-28.963-52.848L-1559.735,266.25z"/>
	</g>
</g>
<g>
	<defs>
		<circle id="SVGID_29_" cx="-1349.626" cy="250" r="194.311"/>
	</defs>
	<clipPath id="SVGID_30_">
		<use xlink:href="#SVGID_29_"  overflow="visible"/>
	</clipPath>
	<path clip-path="url(#SVGID_30_)" fill="#FBC24D" d="M-1521.303,332.171c0,0,44.954-14.235,64.433-35.214
		c19.48-20.978,40.629-48.325,77.818-46.077c37.188,2.248,54.035,36.742,85.24,60.748c22.573,17.365,70.574,57.376,91.927,67.116
		l-18.978,44.458l-183.935,27.347c0,0-101.52-73.799-105.266-73.049c-3.746,0.749-19.48-43.83-19.48-43.83L-1521.303,332.171z"/>
</g>
<g>
	<defs>
		<circle id="SVGID_31_" cx="-1349.626" cy="250" r="194.311"/>
	</defs>
	<clipPath id="SVGID_32_">
		<use xlink:href="#SVGID_31_"  overflow="visible"/>
	</clipPath>
	<g clip-path="url(#SVGID_32_)">
		<defs>
			<path id="SVGID_33_" d="M-1521.303,332.171c0,0,44.954-14.235,64.433-35.214c19.48-20.978,40.629-48.325,77.818-46.077
				c37.188,2.248,54.035,36.742,85.24,60.748c22.573,17.365,70.574,57.376,91.927,67.116l-18.978,44.458l-183.935,27.347
				c0,0-101.52-73.799-105.266-73.049c-3.746,0.749-19.48-43.83-19.48-43.83L-1521.303,332.171z"/>
		</defs>
		<clipPath id="SVGID_34_">
			<use xlink:href="#SVGID_33_"  overflow="visible"/>
		</clipPath>
		<path clip-path="url(#SVGID_34_)" fill="#F79C43" d="M-1390.217,250.75c0,0-18.828,7.047-13.245,19.246
			c8.448,18.461,58.144,22.701,48.881,60.865c-11.379,46.88-141.546,54.656-166.722,1.31l30.643-30.797l69.853-50.624l35.32-6.141
			L-1390.217,250.75z"/>
	</g>
</g>
<g>
	<defs>
		<circle id="SVGID_35_" cx="-1349.626" cy="250" r="194.311"/>
	</defs>
	<clipPath id="SVGID_36_">
		<use xlink:href="#SVGID_35_"  overflow="visible"/>
	</clipPath>
	<path clip-path="url(#SVGID_36_)" fill="#F79C43" d="M-1274.731,323.309c0,0-4.126,7.21-7.398,24.975
		c-3.272,17.765-22.44,72.511-71.994,82.654l69.423-9.959l50.723-46.048l0.234-31.556l-30.855-14.259L-1274.731,323.309z"/>
	<path clip-path="url(#SVGID_36_)" fill="#FFCF83" d="M-1454.507,413.762c0,0,0.757,0.355,2.198,0.963
		c12.153,5.129,72.964,28.256,138.746,8.105c73.581-22.541,82.736-64.626,58.264-81.53c-19.142-13.222-21.9-15.275-17.733-20.772
		c8.136-10.733,86.94-14.805,108.445-10.401l0,0c15.409,3.156,18.516,20.884,17.997,26.13c-0.033,0.335-3.896,36.33-3.956,36.556
		l-36.522,45.579l-140.828,42.657l-125.342-19.283L-1454.507,413.762z"/>
</g>
<circle fill="#FFFFFF" cx="-1326.451" cy="140.625" r="55.88"/>
<g enable-background="new    ">
	<g>
		<defs>
			<rect id="SVGID_37_" x="-1072" width="500" height="500"/>
		</defs>
		<clipPath id="SVGID_38_">
			<use xlink:href="#SVGID_37_"  overflow="visible"/>
		</clipPath>
		<g clip-path="url(#SVGID_38_)">
			<defs>
				<rect id="SVGID_39_" x="-1072" width="500" height="500"/>
			</defs>
			<clipPath id="SVGID_40_">
				<use xlink:href="#SVGID_39_"  overflow="visible"/>
			</clipPath>
			<rect x="-1072" clip-path="url(#SVGID_40_)" fill="#FFFFFF" width="500" height="500"/>
		</g>
	</g>
</g>
<rect x="-1072" y="0" fill="#FFFFFF" width="500" height="500"/>
<circle fill="#DADADA" cx="-817.626" cy="250" r="194.476"/>
<circle fill="#73C4E2" cx="-817.626" cy="250" r="194.476"/>
<g>
	<defs>
		<circle id="SVGID_41_" cx="-817.626" cy="250" r="194.476"/>
	</defs>
	<clipPath id="SVGID_42_">
		<use xlink:href="#SVGID_41_"  overflow="visible"/>
	</clipPath>
	<rect x="-1027.641" y="161.745" clip-path="url(#SVGID_42_)" fill="#46A391" width="411.282" height="304.693"/>
	<path clip-path="url(#SVGID_42_)" fill="#C5F0FF" d="M-950.487,398.647c0,0,54.491-29.481,111.653-18.387
		c55.334,10.74,75.413,41.295,83.407,64.216l-70.577,5.804c0,0-6.613-21.799-35.214-24.452
		c-16.809-1.559-28.779,7.728-33.043,11.192L-950.487,398.647z"/>
	<path clip-path="url(#SVGID_42_)" fill="#C5F0FF" d="M-751.963,164.682c0,0,15.961,4.255,15.027,17.084
		c-0.722,9.924-19.688,15.286-30.663,18.171c-11.189,2.942-27.533,5.249-26.733,17.24c0.799,11.991,27.98,14.123,37.04,22.384
		c9.06,8.261,2.665,21.052-13.324,22.917c-15.989,1.865-85.539-1.865-86.072,19.453c-0.533,21.318,50.897,29.312,80.475,37.573
		c29.579,8.261,36.252,18.365,33.53,26.531c-2.29,6.87-28.733,10.775-53.249,2.781c-24.516-7.994-38.106-17.587-53.029-25.848
		c-12.453-6.894-37.628-16.439-57.026-11.458c-19.719,5.063-28.246,21.052-50.63,20.252c-22.384-0.799-38.106-4.264-50.63-12.258
		l21.851,49.831c0,0,22.65,3.731,43.169-4.797c20.519-8.527,35.423-17.394,53.828-18.12c20.252-0.799,52.019,20.284,90.205,28.592
		c33.826,7.359,83.537,1.52,85.136-26.46c1.599-27.98-33.842-38.372-61.556-45.567c-27.714-7.195-41.304-10.925-39.971-19.186
		c1.332-8.261,49.146-3.713,52.183-1.83c21.701,13.454,34.577,22.279,57.435,20.543c18.938-1.438,24.911-15.675,24.153-26.174
		c-0.719-9.962-1.332-11.725,11.458-11.991c12.791-0.266,28.52,2.407,34.109-13.324c3.877-10.913,7.155-13.934,11.078-18.444
		c0,0-10.644,7.182-15.168,16.011c-5.805,11.329-23.595,8.614-32.583,7.49c-8.722-1.09-18.753-5.057-21.951,10.665
		c-3.198,15.722-3.198,21.867-21.851,18.653c-18.037-3.107-20.051-11.607-19.719-11.991c3.091-3.583,13.324-6.129,10.393-22.917
		c-2.931-16.788-22.117-24.782-38.905-28.779c-16.788-3.997-14.39-10.392-1.332-13.59c13.057-3.198,34.797-12.453,34.797-26.673
		C-730.49,172.098-740.159,164.793-751.963,164.682z"/>
	<path clip-path="url(#SVGID_42_)" fill="#2C5E5E" d="M-991.843,154.418c0,0,10.688-6.449,16.769-7.002
		c6.081-0.553,7.739-1.658,11.24-3.501c3.501-1.843,9.951-1.658,15.11,0c5.159,1.659,2.027-2.396,9.582-3.87
		c7.555-1.474,6.818,1.843,11.425,4.607c4.607,2.764,17.321,4.607,23.218,0.369c5.897-4.238,18.243-17.321,23.771-19.717
		c5.528-2.395,9.029-1.843,15.479,1.658c6.449,3.501,7.371-5.712,14.004-7.924c6.634-2.211,10.688,2.211,11.793,7.371
		c1.106,5.159,7.002,6.818,11.056,6.634c4.054-0.184,6.634,2.211,7.739,6.449c1.106,4.238,11.793,5.897,18.796,1.843
		c7.002-4.054,16.216-15.847,22.849-13.268s9.954,11.978,16.769,12.346s14.557-2.58,19.533-2.396
		c4.975,0.184,4.791,1.658,9.214,2.027c4.422,0.368,7.555-5.897,11.425-1.659c3.87,4.238,4.054,9.582,10.872,7.187
		c6.818-2.396,10.135-8.661,14.926-9.214c4.791-0.553,11.566,2.551,16.71,9.125c5.145,6.574,11.719,9.718,21.437,8.003
		c9.718-1.715,18.007-7.146,19.722-3.144c1.715,4.002,2.572,14.338,2.572,14.338h-366.419L-991.843,154.418z"/>
	<path clip-path="url(#SVGID_42_)" fill="#2C5E5E" d="M-722.429,222.454c0,0,2.774-3.783,8.575-4.792
		c5.801-1.009,10.845-0.757,14.124-6.81c3.279-6.053,6.558-23.708,15.637-22.952c9.08,0.757,9.332,8.828,15.385,6.81
		c6.053-2.018,6.053-10.593,12.863-7.566c6.81,3.027,13.713,5.549,23.204-3.027c9.491-8.575,16.966,41.868,16.966,41.868
		s-14.191,3.783-24.028,3.783s-16.646,1.513-21.691-1.766c-5.044-3.279-10.845-5.549-19.925-4.035s-10.341-2.522-17.403-1.513
		C-705.783,223.463-713.097,226.994-722.429,222.454z"/>
	<path clip-path="url(#SVGID_42_)" fill="#3B72AA" d="M-751.963,164.682c0,0-0.797,8.803-13.648,9.48
		c-12.851,0.676-26.378-6.764-36.185,4.734c-9.807,11.498-10.822,16.571-23.672,17.247c-12.851,0.676-19.953,1.691-11.16,14.542
		c8.793,12.851,15.894,28.407-9.469,39.905c-25.363,11.498-54.785,19.614-73.046,26.378c-18.262,6.764-6.848,11.836-44.978,17.585
		c-38.129,5.749-55.123,6.087-55.123,6.087l0.676-135.958H-751.963z"/>
	<circle clip-path="url(#SVGID_42_)" fill="#FFFFFF" cx="-777.499" cy="96.358" r="18.675"/>
</g>
<g enable-background="new    ">
	<g>
		<defs>
			<rect id="SVGID_43_" x="-536" width="500" height="500"/>
		</defs>
		<clipPath id="SVGID_44_">
			<use xlink:href="#SVGID_43_"  overflow="visible"/>
		</clipPath>
		<g clip-path="url(#SVGID_44_)">
			<defs>
				<rect id="SVGID_45_" x="-536" width="500" height="500"/>
			</defs>
			<clipPath id="SVGID_46_">
				<use xlink:href="#SVGID_45_"  overflow="visible"/>
			</clipPath>
			<rect x="-536" clip-path="url(#SVGID_46_)" fill="#FFFFFF" width="500" height="500"/>
		</g>
	</g>
</g>
<rect x="-536" fill="#FFFFFF" width="500" height="500"/>
<circle cx="-281.626" cy="250" r="194.476"/>
<g>
	<defs>
		<circle id="SVGID_47_" cx="-281.626" cy="250" r="194.476"/>
	</defs>
	<clipPath id="SVGID_48_">
		<use xlink:href="#SVGID_47_"  overflow="visible"/>
	</clipPath>
	<rect x="-490.232" y="282.049" clip-path="url(#SVGID_48_)" fill="#46A391" width="408.465" height="174.965"/>
	<rect x="-463.059" y="30.154" clip-path="url(#SVGID_48_)" fill="#73C4E2" width="386.71" height="220.453"/>
	<path clip-path="url(#SVGID_48_)" fill="#FFFFFF" d="M-459.179,355.606c0,0,20.297-3.935,27.545-2.278
		c7.249,1.657,17.604,3.314,22.161,2.071c4.556-1.243,14.852,4.349,22.131,3.728c7.279-0.621,7.879-2.9,14.828-1.45
		c6.948,1.45,12.126,7.663,19.996,8.284c7.87,0.621,28.374,1.657,34.794,3.107c6.42,1.45,18.018,2.278,17.811,6.42
		c-0.207,4.142-19.882,1.864-26.51,5.592c-6.628,3.728-4.556,6.006-10.77,8.284c-6.213,2.278-17.529-2.278-21.088,2.278
		c-3.558,4.556-4.131,9.527-12.05,10.355c-7.918,0.828-18.018-3.935-24.232,9.113L-459.179,355.606z"/>
	<path clip-path="url(#SVGID_48_)" fill="#A5A5A5" d="M-372.498,143.929c0,0,1.582,3.163,7.908-5.536
		c6.327-8.699,11.269-24.12,15.816-22.934c4.547,1.186,1.384,11.862,6.524,15.421c5.14,3.559,8.897,9.49,10.281,13.839
		c1.384,4.35,3.756,5.338,9.885,8.501c6.129,3.163-6.327,54.566-6.327,54.566l-29.853,27.679l-17.793-50.415l-2.175-31.633
		L-372.498,143.929z"/>
</g>
<g>
	<defs>
		<circle id="SVGID_49_" cx="-281.626" cy="250" r="194.476"/>
	</defs>
	<clipPath id="SVGID_50_">
		<use xlink:href="#SVGID_49_"  overflow="visible"/>
	</clipPath>
	<g clip-path="url(#SVGID_50_)">
		<defs>
			<path id="SVGID_51_" d="M-372.498,143.929c0,0,1.582,3.163,7.908-5.536c6.327-8.699,11.269-24.12,15.816-22.934
				c4.547,1.186,1.384,11.862,6.524,15.421c5.14,3.559,8.897,9.49,10.281,13.839c1.384,4.35,3.756,5.338,9.885,8.501
				c6.129,3.163-6.327,54.566-6.327,54.566l-29.853,27.679l-17.793-50.415l-2.175-31.633L-372.498,143.929z"/>
		</defs>
		<clipPath id="SVGID_52_">
			<use xlink:href="#SVGID_51_"  overflow="visible"/>
		</clipPath>
		<path clip-path="url(#SVGID_52_)" fill="#7F7F7F" d="M-346.797,111.703c0,0-11.467,14.63-8.501,28.272
			c2.966,13.642,8.304,14.432,6.524,26.888c-1.779,12.455-16.41,39.936-9.49,59.311c6.92,19.375,8.699,27.481,8.699,27.481
			l-37.762-65.44l1.968-44.879l20.768-20.364l17.793-19.375V111.703z"/>
	</g>
</g>
<g>
	<defs>
		<circle id="SVGID_53_" cx="-281.626" cy="250" r="194.476"/>
	</defs>
	<clipPath id="SVGID_54_">
		<use xlink:href="#SVGID_53_"  overflow="visible"/>
	</clipPath>
	<path clip-path="url(#SVGID_54_)" fill="#A5A5A5" d="M-212.638,207.164c0,0,5.864,2.728,12.956-4.228
		c7.092-6.956,7.228-6.001,11.456-1.909c4.228,4.092,12.683,8.319,20.184,2.182c7.501-6.137,3.819,10.365,3.819,10.365
		l-25.503,21.892l-30.277-7.708l5.319-17.866L-212.638,207.164z"/>
</g>
<g>
	<defs>
		<circle id="SVGID_55_" cx="-281.626" cy="250" r="194.476"/>
	</defs>
	<clipPath id="SVGID_56_">
		<use xlink:href="#SVGID_55_"  overflow="visible"/>
	</clipPath>
	<g clip-path="url(#SVGID_56_)">
		<defs>
			<path id="SVGID_57_" d="M-212.638,207.164c0,0,5.864,2.728,12.956-4.228c7.092-6.956,7.228-6.001,11.456-1.909
				c4.228,4.092,12.683,8.319,20.184,2.182c7.501-6.137,3.819,10.365,3.819,10.365l-25.503,21.892l-30.277-7.708l5.319-17.866
				L-212.638,207.164z"/>
		</defs>
		<clipPath id="SVGID_58_">
			<use xlink:href="#SVGID_57_"  overflow="visible"/>
		</clipPath>
		<path clip-path="url(#SVGID_58_)" fill="#7F7F7F" d="M-217.82,216.848c0,0,13.365,9.82,20.73,2.864
			c7.365-6.956,7.774-13.093,16.911-9.683c9.138,3.409,16.861,8.592,16.861,8.592l-10.178,16.846h-40.369L-217.82,216.848z"/>
	</g>
</g>
<g>
	<defs>
		<circle id="SVGID_59_" cx="-281.626" cy="250" r="194.476"/>
	</defs>
	<clipPath id="SVGID_60_">
		<use xlink:href="#SVGID_59_"  overflow="visible"/>
	</clipPath>
	<path clip-path="url(#SVGID_60_)" fill="#161616" d="M-209.365,223.667c0,0,6.41,8.865,15.82,3.273
		c9.41-5.592,8.456-14.729,13.365-16.911c4.91-2.182,11.047-3.546,12.956-10.501c1.909-6.956,10.774-21.821,14.184-22.912
		c3.41-1.091,4.91,8.456,11.32,15.411s10.911,2.728,17.32,8.319c6.41,5.592,3,9.274,8.865,12.547
		c5.864,3.273,23.218,6.819,28.384,6.137c5.166-0.682,0,71.737,0,71.737s-6.343-2.693-21.786-5.14
		c-15.443-2.447-52.667,0.666-52.667,0.666l-22.103-4.336l-25.931-25.286l-1.091-27.004L-209.365,223.667z"/>
</g>
<g>
	<defs>
		<circle id="SVGID_61_" cx="-281.626" cy="250" r="194.476"/>
	</defs>
	<clipPath id="SVGID_62_">
		<use xlink:href="#SVGID_61_"  overflow="visible"/>
	</clipPath>
	<g clip-path="url(#SVGID_62_)">
		<defs>
			<path id="SVGID_63_" d="M-209.365,223.667c0,0,6.41,8.865,15.82,3.273c9.41-5.592,8.456-14.729,13.365-16.911
				c4.91-2.182,11.047-3.546,12.956-10.501c1.909-6.956,10.774-21.821,14.184-22.912c3.41-1.091,4.91,8.456,11.32,15.411
				s10.911,2.728,17.32,8.319c6.41,5.592,3,9.274,8.865,12.547c5.864,3.273,23.218,6.819,28.384,6.137
				c5.166-0.682,0,71.737,0,71.737s-6.343-2.693-21.786-5.14c-15.443-2.447-52.667,0.666-52.667,0.666l-22.103-4.336l-25.931-25.286
				l-1.091-27.004L-209.365,223.667z"/>
		</defs>
		<use xlink:href="#SVGID_63_"  overflow="visible" fill="#E2E2E2"/>
		<clipPath id="SVGID_64_">
			<use xlink:href="#SVGID_63_"  overflow="visible"/>
		</clipPath>
		<path clip-path="url(#SVGID_64_)" fill="#BDBDBD" d="M-150.22,171.254c0,0-8.104,15.351-4.281,26.578
			c3.823,11.227,7.798,7.979,8.41,18.682c0.612,10.703-7.798,23.241,0.306,28.899c8.104,5.658,12.079,4.281,14.832,12.538
			c2.752,8.257,10.55,11.468,19.572,13.303c9.021,1.835,21.937,12.232,24.233,20.795s-76.169,16.973-76.169,16.973l-41.642-25.383
			l-12.86-37.921l22.646-51.835l26.605-22.018L-150.22,171.254z"/>
	</g>
</g>
<g>
	<defs>
		<circle id="SVGID_65_" cx="-281.626" cy="250" r="194.476"/>
	</defs>
	<clipPath id="SVGID_66_">
		<use xlink:href="#SVGID_65_"  overflow="visible"/>
	</clipPath>
	<path clip-path="url(#SVGID_66_)" fill="#E2E2E2" d="M-358.263,228.744c0,0,8.897-17.793,15.026-25.504
		c6.129-7.71,8.699-22.934,8.106-29.656c-0.593-6.722,6.722-22.143,12.851-28.667c6.129-6.524,14.788-27.679,14.788-35.191
		c0-7.513,3.401-15.421,6.168-18.98c2.768-3.559,6.722-15.026,10.676-14.432s-1.977,11.269,3.361,17.596
		c5.338,6.327,11.467,10.478,15.619,18.98c4.152,8.501,5.931,20.364,6.524,28.667c0.593,8.304,4.745,22.538,9.688,26.69
		c4.943,4.152,10.083,14.037,10.874,21.154s3.756,12.258,7.711,17.793c3.954,5.536-31.733,105.349-31.733,105.349l-57.807-10.101
		L-358.263,228.744z"/>
</g>
<g>
	<defs>
		<circle id="SVGID_67_" cx="-281.626" cy="250" r="194.476"/>
	</defs>
	<clipPath id="SVGID_68_">
		<use xlink:href="#SVGID_67_"  overflow="visible"/>
	</clipPath>
	<g clip-path="url(#SVGID_68_)">
		<defs>
			<path id="SVGID_69_" d="M-358.263,228.744c0,0,8.897-17.793,15.026-25.504c6.129-7.71,8.699-22.934,8.106-29.656
				c-0.593-6.722,6.722-22.143,12.851-28.667c6.129-6.524,14.788-27.679,14.788-35.191c0-7.513,3.401-15.421,6.168-18.98
				c2.768-3.559,6.722-15.026,10.676-14.432s-1.977,11.269,3.361,17.596c5.338,6.327,11.467,10.478,15.619,18.98
				c4.152,8.501,5.931,20.364,6.524,28.667c0.593,8.304,4.745,22.538,9.688,26.69c4.943,4.152,10.083,14.037,10.874,21.154
				s3.756,12.258,7.711,17.793c3.954,5.536-31.733,105.349-31.733,105.349l-57.807-10.101L-358.263,228.744z"/>
		</defs>
		<clipPath id="SVGID_70_">
			<use xlink:href="#SVGID_69_"  overflow="visible"/>
		</clipPath>
		<path clip-path="url(#SVGID_70_)" fill="#BDBDBD" d="M-288.474,72.267c0,0-10.281,14.921-4.547,30.737
			c5.733,15.816,10.478,27.283,4.152,41.123c-6.327,13.839-13.839,27.283-4.152,46.658c9.688,19.375,8.541,29.458-2.966,56.544
			c-11.506,27.085-22.538,45.67-6.129,71.569l-44.879-2.768l-25.504-87.583l9.49-57.137l36.18-49.229l31.633-49.914H-288.474z"/>
	</g>
</g>
<g>
	<defs>
		<circle id="SVGID_71_" cx="-281.626" cy="250" r="194.476"/>
	</defs>
	<clipPath id="SVGID_72_">
		<use xlink:href="#SVGID_71_"  overflow="visible"/>
	</clipPath>
	<path clip-path="url(#SVGID_72_)" fill="#E2E2E2" d="M-284.787,309.818c0,0,8.732-16.87,8.459-25.325
		c-0.273-8.456,7.365-17.184,13.229-21.685s7.91-17.457,8.865-24.685c0.955-7.228,4.773-22.912,10.229-27.822
		c5.455-4.91,5.945-18.139,7.473-23.73c1.528-5.592,8.484-19.775,11.484-25.503c3-5.728,3.546-7.228,6.001-0.409
		c2.455,6.819,4.637,13.911,3.41,19.23c-1.228,5.319-1.228,15.548,3.955,20.048c5.182,4.501,4.364,17.593,3.682,23.321
		c-0.682,5.728,3.682,12.684,7.774,17.184c4.091,4.501,4.091,17.593,4.91,22.912c0.818,5.319,4.773,8.047,10.774,9.683
		s9.274,4.091,12.956,7.228c3.682,3.137,10.092,5.455,19.639,5.728c0,0-15.411,2.046-21.412,4.501
		c-6.001,2.455-23.049-0.818-26.458-0.409c-3.409,0.409-5.046,4.91-11.32,6.274c-6.274,1.364-13.83-4.91-25.395,0.546
		c-11.565,5.455-19.638,17.644-28.216,17.644C-273.328,314.548-284.787,309.818-284.787,309.818z"/>
</g>
<g>
	<defs>
		<circle id="SVGID_73_" cx="-281.626" cy="250" r="194.476"/>
	</defs>
	<clipPath id="SVGID_74_">
		<use xlink:href="#SVGID_73_"  overflow="visible"/>
	</clipPath>
	<g clip-path="url(#SVGID_74_)">
		<defs>
			<path id="SVGID_75_" d="M-284.787,309.818c0,0,8.732-16.87,8.459-25.325c-0.273-8.456,7.365-17.184,13.229-21.685
				s7.91-17.457,8.865-24.685c0.955-7.228,4.773-22.912,10.229-27.822c5.455-4.91,5.945-18.139,7.473-23.73
				c1.528-5.592,8.484-19.775,11.484-25.503c3-5.728,3.546-7.228,6.001-0.409c2.455,6.819,4.637,13.911,3.41,19.23
				c-1.228,5.319-1.228,15.548,3.955,20.048c5.182,4.501,4.364,17.593,3.682,23.321c-0.682,5.728,3.682,12.684,7.774,17.184
				c4.091,4.501,4.091,17.593,4.91,22.912c0.818,5.319,4.773,8.047,10.774,9.683s9.274,4.091,12.956,7.228
				c3.682,3.137,10.092,5.455,19.639,5.728c0,0-15.411,2.046-21.412,4.501c-6.001,2.455-23.049-0.818-26.458-0.409
				c-3.409,0.409-5.046,4.91-11.32,6.274c-6.274,1.364-13.83-4.91-25.395,0.546c-11.565,5.455-19.638,17.644-28.216,17.644
				C-273.328,314.548-284.787,309.818-284.787,309.818z"/>
		</defs>
		<clipPath id="SVGID_76_">
			<use xlink:href="#SVGID_75_"  overflow="visible"/>
		</clipPath>
		<path clip-path="url(#SVGID_76_)" fill="#BDBDBD" d="M-220.003,151.111c0,0-7.365,15.957-6.137,25.64
			c1.227,9.683,7.91,21.685,3.819,42.142c-4.091,20.457-15.548,27.276-15.548,47.052s7.365,30.959,11.32,36.005
			c3.955,5.046-42.415,19.775-42.415,19.775l-21.139-20.185l22.64-76.374c0,0,24.549-42.006,25.367-43.37
			c0.818-1.364,18.821-33.004,18.821-33.004L-220.003,151.111z"/>
	</g>
</g>
<g>
	<defs>
		<circle id="SVGID_77_" cx="-281.626" cy="250" r="194.476"/>
	</defs>
	<clipPath id="SVGID_78_">
		<use xlink:href="#SVGID_77_"  overflow="visible"/>
	</clipPath>
	<path clip-path="url(#SVGID_78_)" fill="#E2E2E2" d="M-391.974,83.464c0,0,7.125,14.25,8.397,24.683
		c1.272,10.433,2.29,25.955,6.616,29.772c4.326,3.817,6.362,11.705,6.107,17.049c-0.254,5.344,1.781,14.25,5.853,19.339
		c4.071,5.089,5.598,16.031,3.817,23.156c-1.781,7.125,1.527,24.683,6.616,27.228c5.089,2.545,12.723,7.888,13.232,14.504
		c0.509,6.616,1.527,15.268,5.598,19.085c4.071,3.817,10.433,11.451,12.214,18.067c1.781,6.616,10.942,9.415,12.723,18.321
		c1.781,8.906,3.308,14.25,3.308,14.25s-12.978-9.669-29.772-6.362c-16.794,3.308-39.951,13.487-62.089,1.781
		c-22.138-11.705-66.259-3.308-71.504-4.835s-19.594-80.41-19.594-80.41l51.147-102.803l38.933-35.116L-391.974,83.464z"/>
</g>
<g>
	<defs>
		<circle id="SVGID_79_" cx="-281.626" cy="250" r="194.476"/>
	</defs>
	<clipPath id="SVGID_80_">
		<use xlink:href="#SVGID_79_"  overflow="visible"/>
	</clipPath>
	<g clip-path="url(#SVGID_80_)">
		<defs>
			<path id="SVGID_81_" d="M-391.974,83.464c0,0,7.125,14.25,8.397,24.683c1.272,10.433,2.29,25.955,6.616,29.772
				c4.326,3.817,6.362,11.705,6.107,17.049c-0.254,5.344,1.781,14.25,5.853,19.339c4.071,5.089,5.598,16.031,3.817,23.156
				c-1.781,7.125,1.527,24.683,6.616,27.228c5.089,2.545,12.723,7.888,13.232,14.504c0.509,6.616,1.527,15.268,5.598,19.085
				c4.071,3.817,10.433,11.451,12.214,18.067c1.781,6.616,10.942,9.415,12.723,18.321c1.781,8.906,3.308,14.25,3.308,14.25
				s-12.978-9.669-29.772-6.362c-16.794,3.308-39.951,13.487-62.089,1.781c-22.138-11.705-66.259-3.308-71.504-4.835
				s-19.594-80.41-19.594-80.41l51.147-102.803l38.933-35.116L-391.974,83.464z"/>
		</defs>
		<clipPath id="SVGID_82_">
			<use xlink:href="#SVGID_81_"  overflow="visible"/>
		</clipPath>
		<path clip-path="url(#SVGID_82_)" fill="#BDBDBD" d="M-385.358,81.173c0,0-18.83,24.683-30.281,44.276s-7.888,38.424,3.562,56.491
			c11.451,18.067,7.379,45.549,0,61.071c-7.379,15.522-5.853,29.263,1.781,37.915c7.634,8.652,7.888,14.504,0.763,23.156
			c-7.125,8.652-70.74,3.308-70.74,3.308l-22.393-88.044l30.535-73.285l33.589-50.638l35.879-23.156L-385.358,81.173z"/>
	</g>
</g>
<g>
	<defs>
		<circle id="SVGID_83_" cx="-281.626" cy="250" r="194.476"/>
	</defs>
	<clipPath id="SVGID_84_">
		<use xlink:href="#SVGID_83_"  overflow="visible"/>
	</clipPath>
	<path clip-path="url(#SVGID_84_)" fill="#FFFFFF" d="M-112.029,356.863c0,0-27.437,6.674-35.408,4.82
		c-7.971-1.854-17.797,1.483-25.397,6.118c-7.601,4.634-23.358,9.269-32.998,6.303c-9.64-2.966-17.499-0.185-24.1,5.005
		c-6.6,5.191-15.387,5.561-19.836,5.376c-4.449-0.185-7.971,2.595,0.185,7.415c8.157,4.82,15.943,1.854,18.724,7.044
		c2.781,5.191,8.898,10.196,17.426,7.971c8.528-2.225,15.202-10.824,23.914-3.522c8.713,7.302,13.101,14.275,19.651,12.606
		S-112.029,356.863-112.029,356.863z"/>
	<path clip-path="url(#SVGID_84_)" fill="#2E2E2E" d="M-468.938,298.555c0,0,0.451-10.898,11.8-11.994
		c11.349-1.096,21.15,1.096,22.44,8.06c1.29,6.964-4.578,6.835-8.125,7.996c-3.547,1.161-14.186,2.773-18.378,1.741
		C-465.392,303.326-468.422,303.455-468.938,298.555z"/>
	<path clip-path="url(#SVGID_84_)" fill="#FFFFFF" d="M-437.471,297.071c0,0,5.739-3.998,11.865,0.129
		c6.126,4.127,6.589,9.536-1.161,8.512C-434.516,304.688-441.597,300.424-437.471,297.071z"/>
	<path clip-path="url(#SVGID_84_)" fill="#676767" d="M-429.34,298.679c0,0-0.516-6.439,5.481-8.899
		c5.997-2.46,11.091-0.905,13.477,2.837s-0.516,8.834-6.319,9.479C-422.504,302.742-429.275,302.612-429.34,298.679z"/>
	<path clip-path="url(#SVGID_84_)" fill="#2E2E2E" d="M-412.774,298.426c0,0,4.578-8.447,11.22-4.965
		c6.642,3.482,9.543,5.677,3.934,9.028C-403.23,305.839-414.191,306.084-412.774,298.426z"/>
	<path clip-path="url(#SVGID_84_)" d="M-421.608,303.713c0,0-1.87-5.674,5.417-5.352c7.287,0.323,12.316,4.294,8.254,7.478
		S-421.221,308.033-421.608,303.713z"/>
	<path clip-path="url(#SVGID_84_)" fill="#2E2E2E" d="M-332.753,301.363c0,0-0.714-1.879,3.511-4.497
		c4.226-2.619,7.261-4.404,11.487,0.952c4.226,5.357,6.249,3.988,8.868,4.404c2.619,0.417,7.074,3.273,1.394,6.13
		c-5.68,2.857-8.953,3.575-14.845,1.466C-328.23,307.71-333.646,304.378-332.753,301.363z"/>
	<path clip-path="url(#SVGID_84_)" fill="#FFFFFF" d="M-313.351,307.71c0,0,2.374-2.108,7.916,0
		c5.542,2.108,5.378,4.332,0.695,4.748C-309.423,312.875-315.256,311.829-313.351,307.71z"/>
	<path clip-path="url(#SVGID_84_)" fill="#676767" d="M-307.493,308.352c0,0,0-10.004,7.599-5.773
		c3.723,2.073,5.826,0.806,8.444,3.26c2.619,2.454,4.523,1.289,6.428,1.872c1.904,0.582,5.892,0.595,2.262,3.326
		c-3.63,2.732-5.773,3.014-11.01,1.507C-299.008,311.036-307.731,311.349-307.493,308.352z"/>
	<path clip-path="url(#SVGID_84_)" fill="#2E2E2E" d="M-284.787,309.818c0,0,2.132-6.407,8.767-5.769
		c6.634,0.638,5.449,4.597,9.359,3.66c3.909-0.937,8.767-0.186,8.826,3.326c0.059,3.512-5.746,3.512-11.728,3.512
		S-284.491,315.883-284.787,309.818z"/>
	<path clip-path="url(#SVGID_84_)" fill="#2E2E2E" d="M-202.505,289.289c0,0,0.234-4.054,5.886-4.912
		c5.652-0.858,15.827,0.741,16.295,5.575s-6.432,6.198-11.032,6.159C-195.956,296.072-202.271,295.643-202.505,289.289z"/>
	<path clip-path="url(#SVGID_84_)" fill="#FFFFFF" d="M-189.628,291.7c0,0,7.212-2.871,9.863,1.457
		c2.651,4.327-3.469,5.886-7.485,4.951C-191.266,297.172-193.76,294.064-189.628,291.7z"/>
	<path clip-path="url(#SVGID_84_)" fill="#676767" d="M-182.741,290.03c0,0,2.3-4.093,7.212-3.041
		c4.912,1.053,7.251,1.768,7.095,4.561c-0.156,2.793-3.509,3.324-8.654,2.793C-182.234,293.811-183.637,293.187-182.741,290.03z"/>
	<path clip-path="url(#SVGID_84_)" fill="#FFFFFF" d="M-152.937,285.947c0,0-0.935-2.952,0.989-4.739
		c1.924-1.787,8.683-3.535,13.85-1.282c5.167,2.253,8.08,3.719,7.42,6.89c-0.66,3.171-3.962,4.264-9.673,3.951
		C-146.062,290.453-152.083,289.365-152.937,285.947z"/>
	<path clip-path="url(#SVGID_84_)" fill="#2E2E2E" d="M-149.635,294.343c-1.87-0.812-3.38-7.527,2.719-7.527
		c6.099,0,12.897,0.073,12.78,5.803C-134.252,298.348-142.915,297.261-149.635,294.343z"/>
	<path clip-path="url(#SVGID_84_)" fill="#2E2E2E" d="M-133.087,286.816c0.148-1.707,3.923-6.965,10.022-3.744
		c6.099,3.221,6.876,6.989,2.02,8.663C-125.9,293.409-133.67,293.551-133.087,286.816z"/>
	<circle clip-path="url(#SVGID_84_)" fill="#FBC24D" cx="-210.987" cy="115.317" r="25.546"/>
	<circle clip-path="url(#SVGID_84_)" fill="#FBC24D" cx="-407.406" cy="333.188" r="2.139"/>
	<circle clip-path="url(#SVGID_84_)" fill="#FBC24D" cx="-385.16" cy="324.427" r="2.139"/>
	<circle clip-path="url(#SVGID_84_)" fill="#FBC24D" cx="-325.559" cy="343.731" r="2.139"/>
	<circle clip-path="url(#SVGID_84_)" fill="#FFFFFF" cx="-382.707" cy="347.219" r="1.423"/>
	<circle clip-path="url(#SVGID_84_)" fill="#FBC24D" cx="-356.046" cy="333.904" r="1.423"/>
	<circle clip-path="url(#SVGID_84_)" fill="#FFFFFF" cx="-399.041" cy="340.184" r="0.812"/>
	<circle clip-path="url(#SVGID_84_)" fill="#FFFFFF" cx="-375.766" cy="336.588" r="0.812"/>
	<circle clip-path="url(#SVGID_84_)" fill="#FBC24D" cx="-212.868" cy="327.311" r="2.139"/>
	<circle clip-path="url(#SVGID_84_)" fill="#FBC24D" cx="-181.26" cy="328.91" r="2.139"/>
	<circle clip-path="url(#SVGID_84_)" fill="#FBC24D" cx="-229.217" cy="350.781" r="2.139"/>
	<circle clip-path="url(#SVGID_84_)" fill="#FBC24D" cx="-142.708" cy="327.311" r="2.139"/>
	<circle clip-path="url(#SVGID_84_)" fill="#FFFFFF" cx="-206.249" cy="340.795" r="1.423"/>
	<circle clip-path="url(#SVGID_84_)" fill="#FFFFFF" cx="-242.183" cy="333.904" r="1.423"/>
	<circle clip-path="url(#SVGID_84_)" fill="#FBC24D" cx="-301.333" cy="409.688" r="1.423"/>
	<circle clip-path="url(#SVGID_84_)" fill="#FFFFFF" cx="-161.895" cy="315.971" r="1.423"/>
	<circle clip-path="url(#SVGID_84_)" fill="#FBC24D" cx="-169.85" cy="347.219" r="1.423"/>
	<circle clip-path="url(#SVGID_84_)" fill="#FFFFFF" cx="-325.559" cy="411.027" r="0.812"/>
	<circle clip-path="url(#SVGID_84_)" fill="#FFFFFF" cx="-226.266" cy="336.588" r="0.812"/>
	<circle clip-path="url(#SVGID_84_)" fill="#FFFFFF" cx="-162.507" cy="333.188" r="0.812"/>
	<circle clip-path="url(#SVGID_84_)" fill="#FFFFFF" cx="-253.671" cy="356.051" r="0.812"/>
	<circle clip-path="url(#SVGID_84_)" fill="#FFFFFF" cx="-197.213" cy="340.78" r="0.812"/>
	<circle clip-path="url(#SVGID_84_)" fill="#FFFFFF" cx="-153.976" cy="313.861" r="0.812"/>
	<circle clip-path="url(#SVGID_84_)" fill="#FFFFFF" cx="-333.662" cy="343.731" r="0.812"/>
	<circle clip-path="url(#SVGID_84_)" fill="#FFFFFF" cx="-371.877" cy="346.608" r="0.812"/>
	<circle clip-path="url(#SVGID_84_)" fill="#FFFFFF" cx="-338.97" cy="325.984" r="0.812"/>
	<circle clip-path="url(#SVGID_84_)" fill="#FFFFFF" cx="-294.392" cy="415.438" r="0.812"/>
	<circle clip-path="url(#SVGID_84_)" fill="#FFFFFF" cx="-272.883" cy="405.195" r="0.812"/>
	<circle clip-path="url(#SVGID_84_)" fill="#FFFFFF" cx="-280.475" cy="421.803" r="0.812"/>
	<circle clip-path="url(#SVGID_84_)" fill="#FFFFFF" cx="-306.686" cy="394.294" r="0.812"/>
	<circle clip-path="url(#SVGID_84_)" fill="#FBC24D" cx="-263.437" cy="401.933" r="1.423"/>
	<circle clip-path="url(#SVGID_84_)" fill="#FBC24D" cx="-332.134" cy="403.835" r="1.423"/>
</g>
<g enable-background="new    ">
	<g>
		<defs>
			<rect id="SVGID_85_" width="500" height="500"/>
		</defs>
		<clipPath id="SVGID_86_">
			<use xlink:href="#SVGID_85_"  overflow="visible"/>
		</clipPath>
		<g clip-path="url(#SVGID_86_)">
			<defs>
				<rect id="SVGID_87_" width="500" height="500"/>
			</defs>
			<clipPath id="SVGID_88_">
				<use xlink:href="#SVGID_87_"  overflow="visible"/>
			</clipPath>
			<rect clip-path="url(#SVGID_88_)" fill="#FFFFFF" width="500" height="500"/>
		</g>
	</g>
</g>
<rect fill="#FFFFFF" width="500" height="500"/>
<ellipse fill="#F79C43" cx="250" cy="250.001" rx="195.224" ry="193.812"/>
<g>
	<defs>
		<ellipse id="SVGID_89_" cx="250" cy="250.001" rx="195.224" ry="193.812"/>
	</defs>
	<clipPath id="SVGID_90_">
		<use xlink:href="#SVGID_89_"  overflow="visible"/>
	</clipPath>
	<path clip-path="url(#SVGID_90_)" fill="#9E4125" d="M331.969,176.489c0,0,16.641-0.268,28.416-16.041
		c7.075-9.478,10.861-14.603,23.634-18.35c15.696-4.604,21.6-2.773,37.714,0c16.115,2.773,18.725,25.8,18.725,25.8
		s-45.731,10.721-50.485,10.721s-10.023,2.18-15.293-0.909c-5.27-3.089-9.975-5.326-16.76-1.817
		C345.28,182.431,337.368,177.579,331.969,176.489z"/>
	<path clip-path="url(#SVGID_90_)" fill="#9E4125" d="M79.19,141.223c3.226-0.147,18.184-1.906,27.277-1.466
		c9.092,0.44,15.093,0,28.297,12.465c13.204,12.465,19.51,21.704,40.628,24.05l-113.653,6.159L79.19,141.223z"/>
	<circle clip-path="url(#SVGID_90_)" fill="#FFFFFF" cx="249.997" cy="181.823" r="74.605"/>
	<path clip-path="url(#SVGID_90_)" fill="#FBC24D" d="M50.598,180.087c0,0,20.817-6.927,27.565-6.365
		c6.748,0.563,9.637,6.919,15.789,3.299c6.516-3.833,22.555-2.246,25.524-1.482c5.113,1.317,9.557-0.13,15.199-1.255
		c5.643-1.125,12.757-1.394,17.099,0c5.651,1.814,4.993-0.768,14.431-0.563c9.438,0.206,11.19,1.688,17.083,0.281
		c5.893-1.406,9.457,1.725,15.833,1.725c6.375,0,7.692-0.812,14.274-0.65c7.544,0.186,12-0.464,22.213-0.093
		c8.521,0.31,15.813,0.279,19.184,0.279c3.371,0,15.539-0.371,21.709-1.261c5.987-0.863,6.119-1.713,14.72-1.432
		c8.602,0.281,11.72,0.273,19.033,0.836c7.313,0.562,14.976-2.786,24.049,0.193c10.415,3.421,18.689-1.967,26.334-1.902
		c8.567,0.073,10.72,0.88,16.86,2.535c6.14,1.656,36.483-2.2,36.483-2.2l26.731-6.481l17.145,120.39l-54.312,113.628
		l-123.619,66.658l-108.892-24.761l-71.609-37.96l-40.952-68.898l-15.469-72.958l2.531-67.639L50.598,180.087z"/>
	<path clip-path="url(#SVGID_90_)" fill="#B74E29" d="M292.368,211.508c0,0,27.732-5.088,32.906-7.632
		c5.174-2.544,13.248-3.634,21.788-5.088c8.54-1.454,14.718-2.726,21.26-7.813c6.542-5.088,14.9-17.989,24.167-21.987
		c9.267-3.998,35.796-11.448,47.971-7.45c12.174,3.997,9.994,47.971,9.994,47.971L292.368,211.508z"/>
	<path clip-path="url(#SVGID_90_)" fill="#F4B13B" d="M453.543,227.498c0,0-5.079,1.145-13.083,1.877
		c-5.139,0.471-14.119-1.319-20.055-0.788c-12.572,1.126-22.783,2.958-25.009,3.998c-4.886,2.284,3.29,0.131,11.83,1.584
		c8.54,1.454,11.792,2.413,19.242,2.231c7.45-0.182,13.992-0.909,21.805,0C456.086,237.31,453.543,227.498,453.543,227.498z"/>
	<path clip-path="url(#SVGID_90_)" fill="#F4B13B" d="M137.643,381.242c-0.053-1.386,18.888,0.169,24.046,0.581
		c5.157,0.413,15.882-1.671,19.392-1.671c7.19,0,11.772,1.153,15.075,1.153c3.304,0,10.435-1.153,17.246-0.075
		c4.03,0.638,7.598,1.527,14.262,1.94c6.664,0.413,9.565,0.962,11.16,1.953c0.999,0.621-29.551-1.583-36.17-1.21
		c-5.698,0.321-8.105,2.958-14.385,2.832c-4.331-0.087-12.536-4.174-19.361-2.035c-3.868,1.212-13,2.017-18.441-0.574
		C146.72,382.353,137.696,382.628,137.643,381.242z"/>
	<path clip-path="url(#SVGID_90_)" fill="#F4B13B" d="M276.046,248.111c-0.046-1.185,16.151,0.144,20.561,0.497
		c4.41,0.353,13.58-1.429,16.582-1.429c6.148,0,10.066,0.986,12.891,0.986c2.825,0,8.922-0.986,14.747-0.064
		c3.446,0.546,6.497,1.306,12.196,1.659c5.699,0.353,8.179,0.822,9.543,1.67c0.854,0.531-25.269-1.353-30.928-1.035
		c-4.872,0.274-6.931,2.53-12.3,2.422c-3.704-0.075-10.719-3.569-16.555-1.74c-3.307,1.036-11.116,1.725-15.769-0.491
		C283.807,249.061,276.092,249.296,276.046,248.111z"/>
	<path clip-path="url(#SVGID_90_)" fill="#F4B13B" d="M54.776,207.026c0,0,13.987-2.498,19.277-0.882
		c5.29,1.616,13.775,0.735,17.338,0.147c3.563-0.588,12.549,1.836,16.413,3.526c0,0-3.355,0.908-8.665,0.516
		c-5.309-0.392-8.269-0.611-12.664,1.174c-4.396,1.785-6.615,0.697-11.359-0.739c-4.744-1.436-14.492-0.653-18.279,1.132
		C53.051,213.685,54.776,207.026,54.776,207.026z"/>
	<g clip-path="url(#SVGID_90_)">
		<path fill="#2C5E5E" d="M272.28,360.773c0,0-0.989-8.085,4.721-8.522c5.71-0.437,13.282,8.522,9.472,8.522
			C286.309,360.773,272.48,360.773,272.28,360.773z"/>
		<path fill="#254C4B" d="M230.226,337.772c0,0-4.967,1.767-14.518,0.179c-6.905-1.148-8.634-10.948-2.6-13.411
			c6.034-2.463,13.423-2.217,17.98,1.108C235.644,328.974,230.226,337.772,230.226,337.772z"/>
		<path fill="#9E4125" d="M258.976,354.749l-0.346-7.407c0,0-19.919-1.447-26.745-10.653l3.652,0.26c0,0,13.575,7.445,22.725,5.912
			c0,0,0.26-5.454-0.91-9.226c-1.227-3.956-3.832-7.253-9.42-12.149l-3.25-1.89l3.165-1.879c0,0,5.9,6.384,8.458,9.348
			c1.973,2.286,1.436-5.767-0.187-10.126c-1.862-5.003,2.165-0.112,2.165-0.112s2.77,13.008,5.539,12.711
			c2.77-0.297,0.247-13.997,0.247-13.997l3.678-0.356c0,0-0.364,13.512,1.367,14.452c1.731,0.94,12.068,1.187,16.42-3.759
			l4.042-1.26c0,0-4.1,11.548-20.075,9.563c0,0,0.553,16.056,0.849,20.569C270.648,359.262,259.471,361.47,258.976,354.749z"/>
		<path fill="#46A391" d="M245.958,361.082c-1.55-1.851-1.655-7.985,4.516-8c6.17-0.016,4.415,5.518,9.43,2.14
			c5.014-3.378,16.944-2.046,14.581,6.179C274.408,361.667,246.225,361.401,245.958,361.082z"/>
		<path fill="#9E4125" d="M308.065,357.521c0,0,14.372,5.915,20.87,17.954l11.83,0.375c0,0-1.125-7.153,2.166-13.054
			c3.291-5.9,11.456-15.163,15.288-17.53l-5.082-0.951c0,0-8.331,9.837-11.456,14.038c-3.124,4.201-1.374-2.67,0.583-6.499
			c1.957-3.829,5.112-14.761,2.571-26.259l-2.696,1.098c0,0,4.291,9.781-2.791,25.531c0,0-3.416,5.718-3.332-0.621
			c0.083-6.339-1.324-16.822-2.115-20.071l-2.551,1.414c0,0,2.833,21.343,1.625,23.698c-1.208,2.355-8.748-15.663-12.289-20.12
			l-4.332,1.425c0,0,12.83,19.028,13.955,27.235c1.125,8.206-3.874,2.083-6.54-0.5c-2.666-2.583-9.289-7.332-12.622-9.123
			C307.815,353.772,308.065,357.521,308.065,357.521z"/>
		<path fill="#2C5E5E" d="M233.169,318.979c-5.431-2.958-5.588-9.666-22.413-11.298c-10.606-1.029-13.423-15.394,0.862-19.58
			c14.285-4.187,16.132,1.478,25.984-1.847c9.852-3.325,8.867-7.019,21.92-8.62c13.054-1.601,20.443,2.463,28.324,2.586
			c7.882,0.123,16.009-4.803,25.861,2.217c9.852,7.019,14.162,24.753,0.862,27.831c-13.3,3.079-18.965-1.97-29.555,0.369
			c-10.591,2.34-9.359,5.972-19.827,8.343C254.719,321.35,243.513,324.612,233.169,318.979z"/>
		<path fill="#46A391" d="M343.515,339.071c0.246-3.102,2.827-4.667,7.383-4.175c4.556,0.492,8.99,2.44,12.561,0.246
			c3.571-2.194,15.024-0.739,15.147,5.418c0.123,6.157-6.773,8.99-14.285,6.65c-7.512-2.34-9.482-2.586-14.162-2.709
			C345.479,344.378,343.269,342.172,343.515,339.071z"/>
		<path fill="#46A391" d="M230.09,338.221c-2.968-0.414-10.837-1.97-7.882-8.497c2.956-6.527,9.729-5.172,16.994-4.556
			c7.266,0.616,12.931,5.542,9.359,10.221C244.991,340.068,235.385,338.96,230.09,338.221z"/>
		<path fill="#2C5E5E" d="M314.149,347.595c0,0-18.587-2.345-22.528,1.518c-3.941,3.863,3.325,9.889,10.468,9.889
			c7.142,0,10.467-0.264,14.285-1.715C320.191,355.835,314.149,347.595,314.149,347.595z"/>
		<path fill="#46A391" d="M315.217,289.921c10.064-1.886,13.022-2.437,21.642-1.452c8.62,0.985,21.058,3.818,30.541,5.542
			c9.482,1.724,18.842,4.588,22.167,14.778c3.325,10.19-3.448,20.196-16.132,20.689c-12.684,0.493-18.349-6.143-28.57-1.336
			c-10.221,4.807-20.443,12.152-33.496,9.084c-13.054-3.068-37.191-13.166-33.25-27.944
			C282.058,294.503,305.153,291.807,315.217,289.921z"/>
		<path fill="#46A391" d="M305.105,352.85c0.287-3.731,0.862-4.926,7.882-5.788c7.019-0.862,14.778-1.134,16.132,3.818
			c1.355,4.952-4.843,8.234-10.245,8.119C309.374,358.797,304.736,357.653,305.105,352.85z"/>
		<path fill="#2C5E5E" d="M335.086,377.849c0,0-11.758-0.249-11.82-0.27c-1.791-0.6-0.098-6.335,5.304-6.532
			c5.402-0.196,4.518,3.192,6.925,2.849c2.406-0.344,4.371-2.849,7.367-1.817c2.996,1.031,4.012,4.303,2.547,5.768
			C345.384,377.871,340.327,378.136,335.086,377.849z"/>
	</g>
	<g clip-path="url(#SVGID_90_)">
		<path fill="#9E4125" d="M146.383,247.276c0,0,3.653-1.391,6.117,1.811c2.464,3.202,1.444,4.646,3.866,6.94
			c2.421,2.294,5.437,2.676,5.225,5.055c-0.212,2.379,0,5.905,0,5.905l6.032,0.595c0,0-0.425-4.12,0.17-7.519
			c0.595-3.398,1.232-5.075,3.611-6.594c2.379-1.519,3.058-2.48,6.627-3.431l0.17-2.039c0,0-5.31,1.274-8.496,4.248
			c-3.186,2.973-1.572-0.154-0.255-1.657c1.317-1.503,7.157-7.519,8.23-9.898s-4.704,1.104-4.704,1.104s-4.503,7.29-5.352,7.29
			s0.212-5.124,0.297-6.823c0.085-1.699-3.143-1.657-3.143-1.657s0.85,6.882,0,9.388c-0.85,2.506-2.081,0.382-2.166-2.124
			c-0.085-2.506-0.892-10.402-0.892-10.402h-2.591c0,0,1.657,13.397,1.062,15.999c-0.595,2.601-2.421,1.709-3.526-1.562
			c-1.104-3.271-5.395-7.986-9.218-7.221C143.622,245.45,146.383,247.276,146.383,247.276z"/>
		<path fill="#2C5E5E" d="M126.595,224.038c-0.334-2.6-0.278-7.107,3.445-9.056c4.516-2.364,9.754-0.835,12.756-0.42
			c3.906,0.54,10.971,0.606,13.762-0.883c2.791-1.489,8.664-3.841,12.468-4.187c5.93-0.54,13.01,1.21,17.12,2.978
			c6.538,2.812,11.978,5.923,13.756,8.778c1.94,3.116,3.179,5.644-0.45,8.621c-3.629,2.977-7.537,5.583-11.259,6.327
			c-3.722,0.744-5.862,1.489-9.677,3.629c-3.815,2.14-6.026,4.986-12.248,3.647c-5.524-1.189-6.229-7.999-9.161-5.99
			c-3.571,2.447-7.57,2.253-9.576-0.728c-1.912-2.842-2.884-4.745-7.723-4.745S127.433,230.551,126.595,224.038z"/>
		<path fill="#46A391" d="M186.248,222.728c2.537-1.491,6.447-1.85,10.811-1.828c5.084,0.025,9.82,0.88,13.418,2.034
			c4.835,1.55,6.623,2.203,8.014,5.86c1.429,3.756-1.295,7.645-4.587,9.037c-5.902,2.495-9.313-0.348-14.129-0.348
			c-2.968,0-6.355,1.237-12.308,0.635c-4.333-0.438-6.316-3.058-6.555-6.154C180.706,229.323,180.776,225.943,186.248,222.728z"/>
		<path fill="#46A391" d="M119.553,247.277c2.376,1.758,6.433,1.853,11.352,0.238c4.273-1.404,7.565,0.777,10.356,1.336
			c2.791,0.558,9.009,0.139,9.097-3.949c0.098-4.534-2.945-6.837-6.585-6.844c-5.061-0.01-7.144,2.119-10.71,0.445
			c-3.566-1.675-8.197-2.302-12.37-0.586C116.787,239.521,115.408,244.209,119.553,247.277z"/>
		<path fill="#2C5E5E" d="M162.444,269.953c0,0-9.685-0.205-9.736-0.223c-1.476-0.494-0.081-5.218,4.369-5.38
			c4.45-0.162,3.721,2.629,5.704,2.346c1.982-0.283,3.6-2.346,6.068-1.497c2.467,0.849,2.419,2.54,1.901,4.166
			C170.544,270.011,166.761,270.189,162.444,269.953z"/>
		<path fill="#46A391" d="M174.654,269.85c-1.218,1.091-6.857,1.458-6.938-1.05c-0.081-2.508,1.78-2.063,3.802-2.144
			C173.54,266.575,175.872,268.759,174.654,269.85z"/>
		<path fill="#254C4B" d="M176.94,246.641c-1.095,3.9,1.137,4.187,4.523,5.024c3.386,0.837,7.852,0.651,12.69,0.372
			c4.838-0.279,8.56-0.508,9.491-2.512c0.93-2.005,0.551-4.559-4.849-4.167c-3.805,0.276-5.386-2.718-8.178-1.788
			c-2.791,0.93-4.058,1.21-6.606,0.651C181.463,243.663,177.519,244.578,176.94,246.641z"/>
	</g>
</g>
<g>
	<path fill="#848484" d="M657.786,380.73c5.18-1.511,2.151-6.656,3.722-9.925c1.284-2.671,5.529-2.381,6.672,0.348
		c1.053,2.516-0.807,3.622-0.319,5.573c0.327,1.307,4.261,2.6,2.669,5.253c-0.722,1.203-13.248,1.262-13.39,0.129L657.786,380.73z"
		/>
	<path fill="#848484" d="M809.695,277.58c1.6-1.576,3.652-5.83,6.494-3.885c1.571,1.075,1.602,3.529,3.793,3.894
		c2.728,0.455,4.304-2.24,7.231-1.062c1.946,0.783,1.95,4.937,1.315,5.36c-0.706,0.47-15.971-0.134-17.954-0.134
		c-0.598,0-3.331,0.068-3.706-0.431c-0.517-0.69-0.2-1.805,0.397-2.19C807.862,278.747,808.095,279.156,809.695,277.58z"/>
	<path fill="#2D2D2D" d="M663.791,382.921c0.108-1.906,1.31-4.394,3.211-5.074c2.732-0.977,3.851,1.902,6.208,2.321
		c4.645,0.825,11.266-4.77,11.44,3.284L663.791,382.921z"/>
	<path fill="#C0C0C0" d="M644.388,378.669c0.3-4.464,3.508-8.152,7.586-5.705c1.517,0.91,1.609,2.807,3.05,3.708
		c2.234,1.396,3.496-0.316,6.027,1.997c2.022,1.848,0.139,4.252,0.139,4.252l-16.034-0.03
		C645.156,382.891,644.088,383.133,644.388,378.669z"/>
	<path fill="#DBDBDB" d="M791.886,281.389c4.335,0,6.281,0.119,12.27,0.363c2.125,0.087,6.387,0,8.001,0
		c0.086,0-0.162-2.12-0.702-3.308c-0.386-0.849-1.143-1.406-1.852-1.913c-5.397-3.855-6.493,1.941-10.133,0.728
		c-2.606-0.869-3.793-5.28-7.639-3.742c-1.533,0.613-1.629,2.265-2.806,3.274c-0.977,0.838-4.398,0.37-4.398,4.317
		c0,0.129,0.402,0.194,3.723,0.194L791.886,281.389z"/>
	<path fill="#848484" d="M753.32,469.203c-0.065-4.212,3.628-8.994,7.707-6.547c1.517,0.91,1.609,2.807,3.05,3.708
		c2.234,1.396,5.739-1.573,6.339,2.631c0.084,0.588,0.775,2.556,0.146,2.54c-2.565-0.065-14.261,0.194-17.08,0.259L753.32,469.203z"
		/>
	<path d="M769.735,468.324c2.446-10.564,13.681,0.494,10.638,3.537c-0.756,0.756-11.21,0.68-10.953-0.6
		C769.42,471.261,769.277,470.299,769.735,468.324z"/>
</g>
</svg>
