<?xml version="1.0" encoding="utf-8"?>
<!-- Generator: Adobe Illustrator 21.0.0, SVG Export Plug-In . SVG Version: 6.00 Build 0)  -->
<svg version="1.1" id="Layer_1" xmlns="http://www.w3.org/2000/svg" xmlns:xlink="http://www.w3.org/1999/xlink" x="0px" y="0px"
	 viewBox="0 0 500 500" style="enable-background:new 0 0 500 500;" xml:space="preserve">
<style type="text/css">
	.st0{enable-background:new    ;}
	.st1{fill:#FFCF83;}
	.st2{clip-path:url(#SVGID_4_);fill:#B74E29;}
	.st3{clip-path:url(#SVGID_6_);}
	.st4{clip-path:url(#SVGID_8_);fill:#9E4125;}
	.st5{clip-path:url(#SVGID_10_);fill:#EF8822;}
	.st6{clip-path:url(#SVGID_12_);}
	.st7{clip-path:url(#SVGID_14_);fill:#C85629;}
	.st8{clip-path:url(#SVGID_16_);fill:#C85629;}
	.st9{clip-path:url(#SVGID_18_);}
	.st10{clip-path:url(#SVGID_20_);fill:#9E4125;}
	.st11{clip-path:url(#SVGID_22_);fill:#B74E29;}
	.st12{clip-path:url(#SVGID_24_);}
	.st13{clip-path:url(#SVGID_26_);fill:#C85629;}
	.st14{clip-path:url(#SVGID_28_);fill:#FBC24D;}
	.st15{clip-path:url(#SVGID_30_);}
	.st16{clip-path:url(#SVGID_32_);fill:#F79C43;}
	.st17{clip-path:url(#SVGID_34_);fill:#F79C43;}
	.st18{clip-path:url(#SVGID_36_);fill:#FFCF83;}
	.st19{clip-path:url(#SVGID_30_);fill:#FFFFFF;}
</style>
<g>
	<g>
		<g class="st0">
			<defs>
				<rect id="SVGID_1_" x="-1" class="st0" width="500" height="500"/>
			</defs>
			<clipPath id="SVGID_2_">
				<use xlink:href="#SVGID_1_"  style="overflow:visible;"/>
			</clipPath>
		</g>
		<circle class="st1" cx="253.4" cy="250" r="194.3"/>
		<g>
			<g>
				<defs>
					<circle id="SVGID_3_" cx="253.4" cy="250" r="194.3"/>
				</defs>
				<clipPath id="SVGID_4_">
					<use xlink:href="#SVGID_3_"  style="overflow:visible;"/>
				</clipPath>
				<path class="st2" d="M181,255.8c0,0,26.9-3.2,51.3-24.8c24.4-21.6,40.3-8.9,53.4,1.8c13.1,10.7,30,21,57.9,13.7l13.1,33.9
					l-110.9,42.8l-68-26.4l-5.6-24.1L181,255.8z"/>
			</g>
		</g>
		<g>
			<g>
				<defs>
					<circle id="SVGID_5_" cx="253.4" cy="250" r="194.3"/>
				</defs>
				<clipPath id="SVGID_6_">
					<use xlink:href="#SVGID_5_"  style="overflow:visible;"/>
				</clipPath>
				<g class="st3">
					<g>
						<defs>
							<path id="SVGID_7_" d="M181,255.8c0,0,26.9-3.2,51.3-24.8c24.4-21.6,40.3-8.9,53.4,1.8c13.1,10.7,30,21,57.9,13.7l13.1,33.9
								l-110.9,42.8l-68-26.4l-5.6-24.1L181,255.8z"/>
						</defs>
						<clipPath id="SVGID_8_">
							<use xlink:href="#SVGID_7_"  style="overflow:visible;"/>
						</clipPath>
						<path class="st4" d="M185.4,253c14.3,6.6,63.1-38.9,81.4-19.7c14.7,15.4-11,43.3,28.6,44.6l-3.6,23.3l-80.2-8l-34.8-38.6
							l6.8-16.4C183.7,238.1,176.7,248.9,185.4,253z"/>
					</g>
				</g>
				<g class="st3">
					<g>
						<defs>
							<circle id="SVGID_9_" cx="253.4" cy="250" r="194.3"/>
						</defs>
						<clipPath id="SVGID_10_">
							<use xlink:href="#SVGID_9_"  style="overflow:visible;"/>
						</clipPath>
						<path class="st5" d="M261,283.1c0,0,21.8,2.2,41.7-10c19.9-12.1,45.5-36.3,66.5-34.4c21,1.9,30.1,10.8,44,17.5
							c13.8,6.7,29.4,13.7,43,9.6l-14.7,58.9l-113.1,14l-55.7-25.1L261,283.1z"/>
					</g>
				</g>
				<g class="st3">
					<g>
						<defs>
							<circle id="SVGID_11_" cx="253.4" cy="250" r="194.3"/>
						</defs>
						<clipPath id="SVGID_12_">
							<use xlink:href="#SVGID_11_"  style="overflow:visible;"/>
						</clipPath>
						<g class="st6">
							<g>
								<defs>
									<path id="SVGID_13_" d="M261,283.1c0,0,21.8,2.2,41.7-10c19.9-12.1,45.5-36.3,66.5-34.4c21,1.9,30.1,10.8,44,17.5
										c13.8,6.7,29.4,13.7,43,9.6l-14.7,58.9l-113.1,14l-55.7-25.1L261,283.1z"/>
								</defs>
								<clipPath id="SVGID_14_">
									<use xlink:href="#SVGID_13_"  style="overflow:visible;"/>
								</clipPath>
								<path class="st7" d="M395.9,246.4c0,0-13-8.6-31.2,7.5c-18.2,16.1-46.9,56.8-97,45.5l-11-14l2.9-12.3l57.9-20.6l23.1-16.4
									L382,231l15.9,9.4L395.9,246.4z"/>
							</g>
						</g>
						<g class="st6">
							<g>
								<defs>
									<circle id="SVGID_15_" cx="253.4" cy="250" r="194.3"/>
								</defs>
								<clipPath id="SVGID_16_">
									<use xlink:href="#SVGID_15_"  style="overflow:visible;"/>
								</clipPath>
								<path class="st8" d="M198.8,254.2c0,0-18.3,0.5-40-10c-21.7-10.5-29.7-5.4-51.4,7.9c-21.7,13.3-38.7,14.3-51.6,13.3
									c-12.9-1,0,34.2,0,34.2L69,337.1l52.2-3.4l63.1-60.8L198.8,254.2z"/>
							</g>
						</g>
						<g class="st6">
							<g>
								<defs>
									<circle id="SVGID_17_" cx="253.4" cy="250" r="194.3"/>
								</defs>
								<clipPath id="SVGID_18_">
									<use xlink:href="#SVGID_17_"  style="overflow:visible;"/>
								</clipPath>
								<g class="st9">
									<g>
										<defs>
											<path id="SVGID_19_" d="M198.8,254.2c0,0-18.3,0.5-40-10c-21.7-10.5-29.7-5.4-51.4,7.9c-21.7,13.3-38.7,14.3-51.6,13.3
												c-12.9-1,0,34.2,0,34.2L69,337.1l52.2-3.4l63.1-60.8L198.8,254.2z"/>
										</defs>
										<clipPath id="SVGID_20_">
											<use xlink:href="#SVGID_19_"  style="overflow:visible;"/>
										</clipPath>
										<path class="st10" d="M124.9,242c0,0-9.8,6.5-1.2,14.2c8.6,7.7,33.7,14.3,9.1,34.9l-30.4-0.5L67,268.7l9.7-16.6l33.4-13.5
											L124.9,242z"/>
									</g>
								</g>
								<g class="st9">
									<g>
										<defs>
											<circle id="SVGID_21_" cx="253.4" cy="250" r="194.3"/>
										</defs>
										<clipPath id="SVGID_22_">
											<use xlink:href="#SVGID_21_"  style="overflow:visible;"/>
										</clipPath>
										<path class="st11" d="M48.9,257.2c0,0,19.4-13,45.7,12s48.1,24.8,64.5,17.7l-62.8,54.4l-37,2.6l-16-77.7L48.9,257.2z"/>
									</g>
								</g>
								<g class="st9">
									<g>
										<defs>
											<circle id="SVGID_23_" cx="253.4" cy="250" r="194.3"/>
										</defs>
										<clipPath id="SVGID_24_">
											<use xlink:href="#SVGID_23_"  style="overflow:visible;"/>
										</clipPath>
										<g class="st12">
											<g>
												<defs>
													<path id="SVGID_25_" d="M48.9,257.2c0,0,19.4-13,45.7,12s48.1,24.8,64.5,17.7l-62.8,54.4l-37,2.6l-16-77.7L48.9,257.2z
														"/>
												</defs>
												<clipPath id="SVGID_26_">
													<use xlink:href="#SVGID_25_"  style="overflow:visible;"/>
												</clipPath>
												<path class="st13" d="M43.3,266.2c0,0,57.2,56,114.2,21.8l-30.1,55.9l-62.8,19.6l-29-52.8L43.3,266.2z"/>
											</g>
										</g>
										<g class="st12">
											<g>
												<defs>
													<circle id="SVGID_27_" cx="253.4" cy="250" r="194.3"/>
												</defs>
												<clipPath id="SVGID_28_">
													<use xlink:href="#SVGID_27_"  style="overflow:visible;"/>
												</clipPath>
												<path class="st14" d="M81.7,332.2c0,0,45-14.2,64.4-35.2c19.5-21,40.6-48.3,77.8-46.1s54,36.7,85.2,60.7
													c22.6,17.4,70.6,57.4,91.9,67.1l-19,44.5l-183.9,27.3c0,0-101.5-73.8-105.3-73c-3.7,0.7-19.5-43.8-19.5-43.8L81.7,332.2
													z"/>
											</g>
										</g>
										<g class="st12">
											<g>
												<defs>
													<circle id="SVGID_29_" cx="253.4" cy="250" r="194.3"/>
												</defs>
												<clipPath id="SVGID_30_">
													<use xlink:href="#SVGID_29_"  style="overflow:visible;"/>
												</clipPath>
												<g class="st15">
													<g>
														<defs>
															<path id="SVGID_31_" d="M81.7,332.2c0,0,45-14.2,64.4-35.2c19.5-21,40.6-48.3,77.8-46.1s54,36.7,85.2,60.7
																c22.6,17.4,70.6,57.4,91.9,67.1l-19,44.5l-183.9,27.3c0,0-101.5-73.8-105.3-73c-3.7,0.7-19.5-43.8-19.5-43.8
																L81.7,332.2z"/>
														</defs>
														<clipPath id="SVGID_32_">
															<use xlink:href="#SVGID_31_"  style="overflow:visible;"/>
														</clipPath>
														<path class="st16" d="M212.8,250.8c0,0-18.8,7-13.2,19.2c8.4,18.5,58.1,22.7,48.9,60.9
															c-11.4,46.9-141.5,54.7-166.7,1.3l30.6-30.8l69.9-50.6l35.3-6.1L212.8,250.8z"/>
													</g>
												</g>
												<g class="st15">
													<g>
														<defs>
															<circle id="SVGID_33_" cx="253.4" cy="250" r="194.3"/>
														</defs>
														<clipPath id="SVGID_34_">
															<use xlink:href="#SVGID_33_"  style="overflow:visible;"/>
														</clipPath>
														<path class="st17" d="M328.3,323.3c0,0-4.1,7.2-7.4,25s-22.4,72.5-72,82.7l69.4-10l50.7-46l0.2-31.6l-30.9-14.3
															L328.3,323.3z"/>
													</g>
													<g>
														<defs>
															<circle id="SVGID_35_" cx="253.4" cy="250" r="194.3"/>
														</defs>
														<clipPath id="SVGID_36_">
															<use xlink:href="#SVGID_35_"  style="overflow:visible;"/>
														</clipPath>
														<path class="st18" d="M148.5,413.8c0,0,0.8,0.4,2.2,1c12.2,5.1,73,28.3,138.7,8.1c73.6-22.5,82.7-64.6,58.3-81.5
															c-19.1-13.2-21.9-15.3-17.7-20.8c8.1-10.7,86.9-14.8,108.4-10.4l0,0c15.4,3.2,18.5,20.9,18,26.1
															c0,0.3-3.9,36.3-4,36.6l-36.5,45.6L275.1,461l-125.3-19.3L148.5,413.8z"/>
													</g>
												</g>
												<circle class="st19" cx="276.5" cy="140.6" r="55.9"/>
											</g>
										</g>
									</g>
								</g>
							</g>
						</g>
					</g>
				</g>
			</g>
		</g>
	</g>
</g>
</svg>
