<?xml version="1.0" encoding="utf-8"?>
<!-- Generator: Adobe Illustrator 21.0.0, SVG Export Plug-In . SVG Version: 6.00 Build 0)  -->
<svg version="1.1" id="Layer_1" xmlns="http://www.w3.org/2000/svg" xmlns:xlink="http://www.w3.org/1999/xlink" x="0px" y="0px"
	 viewBox="0 0 500 500" style="enable-background:new 0 0 500 500;" xml:space="preserve">
<style type="text/css">
	.st0{enable-background:new    ;}
	.st1{fill:#F79C43;}
	.st2{clip-path:url(#SVGID_4_);fill:#9E4125;}
	.st3{clip-path:url(#SVGID_6_);fill:#9E4125;}
	.st4{clip-path:url(#SVGID_8_);fill:#FFFFFF;}
	.st5{clip-path:url(#SVGID_10_);fill:#FBC24D;}
	.st6{clip-path:url(#SVGID_12_);fill:#B74E29;}
	.st7{clip-path:url(#SVGID_14_);fill:#F4B13B;}
	.st8{clip-path:url(#SVGID_16_);fill:#F4B13B;}
	.st9{clip-path:url(#SVGID_18_);fill:#F4B13B;}
	.st10{clip-path:url(#SVGID_20_);fill:#F4B13B;}
	.st11{clip-path:url(#SVGID_22_);}
	.st12{fill:#2C5E5E;}
	.st13{fill:#254C4B;}
	.st14{fill:#9E4125;}
	.st15{fill:#46A391;}
	.st16{clip-path:url(#SVGID_24_);}
</style>
<g>
	<g>
		<g class="st0">
			<defs>
				<rect id="SVGID_1_" x="2" y="-1" class="st0" width="500" height="500"/>
			</defs>
			<clipPath id="SVGID_2_">
				<use xlink:href="#SVGID_1_"  style="overflow:visible;"/>
			</clipPath>
		</g>
		<ellipse class="st1" cx="252" cy="249" rx="195.2" ry="193.8"/>
		<g>
			<g>
				<defs>
					<ellipse id="SVGID_3_" cx="252" cy="249" rx="195.2" ry="193.8"/>
				</defs>
				<clipPath id="SVGID_4_">
					<use xlink:href="#SVGID_3_"  style="overflow:visible;"/>
				</clipPath>
				<path class="st2" d="M334,175.5c0,0,16.6-0.3,28.4-16c7.1-9.5,10.9-14.6,23.6-18.4c15.7-4.6,21.6-2.8,37.7,0
					c16.1,2.8,18.7,25.8,18.7,25.8s-45.7,10.7-50.5,10.7s-10,2.2-15.3-0.9c-5.3-3.1-10-5.3-16.8-1.8
					C347.3,181.4,339.4,176.6,334,175.5z"/>
			</g>
			<g>
				<defs>
					<ellipse id="SVGID_5_" cx="252" cy="249" rx="195.2" ry="193.8"/>
				</defs>
				<clipPath id="SVGID_6_">
					<use xlink:href="#SVGID_5_"  style="overflow:visible;"/>
				</clipPath>
				<path class="st3" d="M81.2,140.2c3.2-0.1,18.2-1.9,27.3-1.5c9.1,0.4,15.1,0,28.3,12.5s19.5,21.7,40.6,24.1l-113.7,6.2
					L81.2,140.2z"/>
			</g>
			<g>
				<defs>
					<ellipse id="SVGID_7_" cx="252" cy="249" rx="195.2" ry="193.8"/>
				</defs>
				<clipPath id="SVGID_8_">
					<use xlink:href="#SVGID_7_"  style="overflow:visible;"/>
				</clipPath>
				<circle class="st4" cx="252" cy="180.8" r="74.6"/>
			</g>
			<g>
				<defs>
					<ellipse id="SVGID_9_" cx="252" cy="249" rx="195.2" ry="193.8"/>
				</defs>
				<clipPath id="SVGID_10_">
					<use xlink:href="#SVGID_9_"  style="overflow:visible;"/>
				</clipPath>
				<path class="st5" d="M52.6,179.1c0,0,20.8-6.9,27.6-6.4c6.7,0.6,9.6,6.9,15.8,3.3c6.5-3.8,22.6-2.2,25.5-1.5
					c5.1,1.3,9.6-0.1,15.2-1.3c5.6-1.1,12.8-1.4,17.1,0c5.7,1.8,5-0.8,14.4-0.6c9.4,0.2,11.2,1.7,17.1,0.3c5.9-1.4,9.5,1.7,15.8,1.7
					c6.4,0,7.7-0.8,14.3-0.6c7.5,0.2,12-0.5,22.2-0.1c8.5,0.3,15.8,0.3,19.2,0.3c3.4,0,15.5-0.4,21.7-1.3c6-0.9,6.1-1.7,14.7-1.4
					c8.6,0.3,11.7,0.3,19,0.8c7.3,0.6,15-2.8,24,0.2c10.4,3.4,18.7-2,26.3-1.9c8.6,0.1,10.7,0.9,16.9,2.5c6.1,1.7,36.5-2.2,36.5-2.2
					l26.7-6.5l17.1,120.4l-54.3,113.6l-123.6,66.7L173,440.5l-71.6-38l-41-68.9l-15.5-73l2.5-67.6L52.6,179.1z"/>
			</g>
			<g>
				<defs>
					<ellipse id="SVGID_11_" cx="252" cy="249" rx="195.2" ry="193.8"/>
				</defs>
				<clipPath id="SVGID_12_">
					<use xlink:href="#SVGID_11_"  style="overflow:visible;"/>
				</clipPath>
				<path class="st6" d="M294.4,210.5c0,0,27.7-5.1,32.9-7.6s13.2-3.6,21.8-5.1s14.7-2.7,21.3-7.8c6.5-5.1,14.9-18,24.2-22
					s35.8-11.4,48-7.4c12.2,4,10,48,10,48L294.4,210.5z"/>
			</g>
			<g>
				<defs>
					<ellipse id="SVGID_13_" cx="252" cy="249" rx="195.2" ry="193.8"/>
				</defs>
				<clipPath id="SVGID_14_">
					<use xlink:href="#SVGID_13_"  style="overflow:visible;"/>
				</clipPath>
				<path class="st7" d="M455.5,226.5c0,0-5.1,1.1-13.1,1.9c-5.1,0.5-14.1-1.3-20.1-0.8c-12.6,1.1-22.8,3-25,4
					c-4.9,2.3,3.3,0.1,11.8,1.6c8.5,1.5,11.8,2.4,19.2,2.2c7.5-0.2,14-0.9,21.8,0C458.1,236.3,455.5,226.5,455.5,226.5z"/>
			</g>
			<g>
				<defs>
					<ellipse id="SVGID_15_" cx="252" cy="249" rx="195.2" ry="193.8"/>
				</defs>
				<clipPath id="SVGID_16_">
					<use xlink:href="#SVGID_15_"  style="overflow:visible;"/>
				</clipPath>
				<path class="st8" d="M139.6,380.2c-0.1-1.4,18.9,0.2,24,0.6c5.2,0.4,15.9-1.7,19.4-1.7c7.2,0,11.8,1.2,15.1,1.2
					c3.3,0,10.4-1.2,17.2-0.1c4,0.6,7.6,1.5,14.3,1.9c6.7,0.4,9.6,1,11.2,2c1,0.6-29.6-1.6-36.2-1.2c-5.7,0.3-8.1,3-14.4,2.8
					c-4.3-0.1-12.5-4.2-19.4-2c-3.9,1.2-13,2-18.4-0.6C148.7,381.4,139.7,381.6,139.6,380.2z"/>
			</g>
			<g>
				<defs>
					<ellipse id="SVGID_17_" cx="252" cy="249" rx="195.2" ry="193.8"/>
				</defs>
				<clipPath id="SVGID_18_">
					<use xlink:href="#SVGID_17_"  style="overflow:visible;"/>
				</clipPath>
				<path class="st9" d="M278,247.1c0-1.2,16.2,0.1,20.6,0.5s13.6-1.4,16.6-1.4c6.1,0,10.1,1,12.9,1c2.8,0,8.9-1,14.7-0.1
					c3.4,0.5,6.5,1.3,12.2,1.7s8.2,0.8,9.5,1.7c0.9,0.5-25.3-1.4-30.9-1c-4.9,0.3-6.9,2.5-12.3,2.4c-3.7-0.1-10.7-3.6-16.6-1.7
					c-3.3,1-11.1,1.7-15.8-0.5C285.8,248.1,278.1,248.3,278,247.1z"/>
			</g>
			<g>
				<defs>
					<ellipse id="SVGID_19_" cx="252" cy="249" rx="195.2" ry="193.8"/>
				</defs>
				<clipPath id="SVGID_20_">
					<use xlink:href="#SVGID_19_"  style="overflow:visible;"/>
				</clipPath>
				<path class="st10" d="M56.8,206c0,0,14-2.5,19.3-0.9s13.8,0.7,17.3,0.1c3.6-0.6,12.5,1.8,16.4,3.5c0,0-3.4,0.9-8.7,0.5
					c-5.3-0.4-8.3-0.6-12.7,1.2c-4.4,1.8-6.6,0.7-11.4-0.7s-14.5-0.7-18.3,1.1C55.1,212.7,56.8,206,56.8,206z"/>
			</g>
			<g>
				<defs>
					<ellipse id="SVGID_21_" cx="252" cy="249" rx="195.2" ry="193.8"/>
				</defs>
				<clipPath id="SVGID_22_">
					<use xlink:href="#SVGID_21_"  style="overflow:visible;"/>
				</clipPath>
				<g class="st11">
					<path class="st12" d="M274.3,359.8c0,0-1-8.1,4.7-8.5c5.7-0.4,13.3,8.5,9.5,8.5C288.3,359.8,274.5,359.8,274.3,359.8z"/>
					<path class="st13" d="M232.2,336.8c0,0-5,1.8-14.5,0.2c-6.9-1.1-8.6-10.9-2.6-13.4s13.4-2.2,18,1.1
						C237.6,328,232.2,336.8,232.2,336.8z"/>
					<path class="st14" d="M261,353.7l-0.3-7.4c0,0-19.9-1.4-26.7-10.7l3.7,0.3c0,0,13.6,7.4,22.7,5.9c0,0,0.3-5.5-0.9-9.2
						c-1.2-4-3.8-7.3-9.4-12.1l-3.2-1.9l3.2-1.9c0,0,5.9,6.4,8.5,9.3c2,2.3,1.4-5.8-0.2-10.1c-1.9-5,2.2-0.1,2.2-0.1
						s2.8,13,5.5,12.7c2.8-0.3,0.2-14,0.2-14l3.7-0.4c0,0-0.4,13.5,1.4,14.5c1.7,0.9,12.1,1.2,16.4-3.8l4-1.3c0,0-4.1,11.5-20.1,9.6
						c0,0,0.6,16.1,0.8,20.6C272.6,358.3,261.5,360.5,261,353.7z"/>
					<path class="st15" d="M248,360.1c-1.6-1.9-1.7-8,4.5-8c6.2,0,4.4,5.5,9.4,2.1c5-3.4,16.9-2,14.6,6.2
						C276.4,360.7,248.2,360.4,248,360.1z"/>
					<path class="st14" d="M310.1,356.5c0,0,14.4,5.9,20.9,18l11.8,0.4c0,0-1.1-7.2,2.2-13.1c3.3-5.9,11.5-15.2,15.3-17.5l-5.1-1
						c0,0-8.3,9.8-11.5,14c-3.1,4.2-1.4-2.7,0.6-6.5c2-3.8,5.1-14.8,2.6-26.3l-2.7,1.1c0,0,4.3,9.8-2.8,25.5c0,0-3.4,5.7-3.3-0.6
						c0.1-6.3-1.3-16.8-2.1-20.1l-2.6,1.4c0,0,2.8,21.3,1.6,23.7s-8.7-15.7-12.3-20.1l-4.3,1.4c0,0,12.8,19,14,27.2
						c1.1,8.2-3.9,2.1-6.5-0.5c-2.7-2.6-9.3-7.3-12.6-9.1C309.8,352.8,310.1,356.5,310.1,356.5z"/>
					<path class="st12" d="M235.2,318c-5.4-3-5.6-9.7-22.4-11.3c-10.6-1-13.4-15.4,0.9-19.6c14.3-4.2,16.1,1.5,26-1.8
						c9.9-3.3,8.9-7,21.9-8.6c13.1-1.6,20.4,2.5,28.3,2.6c7.9,0.1,16-4.8,25.9,2.2c9.9,7,14.2,24.8,0.9,27.8
						c-13.3,3.1-19-2-29.6,0.4c-10.6,2.3-9.4,6-19.8,8.3C256.7,320.4,245.5,323.6,235.2,318z"/>
					<path class="st15" d="M345.5,338.1c0.2-3.1,2.8-4.7,7.4-4.2s9,2.4,12.6,0.2s15-0.7,15.1,5.4c0.1,6.2-6.8,9-14.3,6.6
						s-9.5-2.6-14.2-2.7C347.5,343.4,345.3,341.2,345.5,338.1z"/>
					<path class="st15" d="M232.1,337.2c-3-0.4-10.8-2-7.9-8.5c3-6.5,9.7-5.2,17-4.6c7.3,0.6,12.9,5.5,9.4,10.2
						C247,339.1,237.4,338,232.1,337.2z"/>
					<path class="st12" d="M316.1,346.6c0,0-18.6-2.3-22.5,1.5s3.3,9.9,10.5,9.9c7.1,0,10.5-0.3,14.3-1.7
						C322.2,354.8,316.1,346.6,316.1,346.6z"/>
					<path class="st15" d="M317.2,288.9c10.1-1.9,13-2.4,21.6-1.5c8.6,1,21.1,3.8,30.5,5.5c9.5,1.7,18.8,4.6,22.2,14.8
						c3.3,10.2-3.4,20.2-16.1,20.7s-18.3-6.1-28.6-1.3s-20.4,12.2-33.5,9.1c-13.1-3.1-37.2-13.2-33.2-27.9
						C284.1,293.5,307.2,290.8,317.2,288.9z"/>
					<path class="st15" d="M307.1,351.9c0.3-3.7,0.9-4.9,7.9-5.8c7-0.9,14.8-1.1,16.1,3.8c1.4,5-4.8,8.2-10.2,8.1
						C311.4,357.8,306.7,356.7,307.1,351.9z"/>
					<path class="st12" d="M337.1,376.8c0,0-11.8-0.2-11.8-0.3c-1.8-0.6-0.1-6.3,5.3-6.5c5.4-0.2,4.5,3.2,6.9,2.8
						c2.4-0.3,4.4-2.8,7.4-1.8c3,1,4,4.3,2.5,5.8C347.4,376.9,342.3,377.1,337.1,376.8z"/>
				</g>
			</g>
			<g>
				<defs>
					<ellipse id="SVGID_23_" cx="252" cy="249" rx="195.2" ry="193.8"/>
				</defs>
				<clipPath id="SVGID_24_">
					<use xlink:href="#SVGID_23_"  style="overflow:visible;"/>
				</clipPath>
				<g class="st16">
					<path class="st14" d="M148.4,246.3c0,0,3.7-1.4,6.1,1.8c2.5,3.2,1.4,4.6,3.9,6.9c2.4,2.3,5.4,2.7,5.2,5.1c-0.2,2.4,0,5.9,0,5.9
						l6,0.6c0,0-0.4-4.1,0.2-7.5c0.6-3.4,1.2-5.1,3.6-6.6s3.1-2.5,6.6-3.4l0.2-2c0,0-5.3,1.3-8.5,4.2c-3.2,3-1.6-0.2-0.3-1.7
						c1.3-1.5,7.2-7.5,8.2-9.9s-4.7,1.1-4.7,1.1s-4.5,7.3-5.4,7.3s0.2-5.1,0.3-6.8c0.1-1.7-3.1-1.7-3.1-1.7s0.9,6.9,0,9.4
						s-2.1,0.4-2.2-2.1s-0.9-10.4-0.9-10.4h-2.6c0,0,1.7,13.4,1.1,16c-0.6,2.6-2.4,1.7-3.5-1.6c-1.1-3.3-5.4-8-9.2-7.2
						C145.6,244.4,148.4,246.3,148.4,246.3z"/>
					<path class="st12" d="M128.6,223c-0.3-2.6-0.3-7.1,3.4-9.1c4.5-2.4,9.8-0.8,12.8-0.4c3.9,0.5,11,0.6,13.8-0.9s8.7-3.8,12.5-4.2
						c5.9-0.5,13,1.2,17.1,3c6.5,2.8,12,5.9,13.8,8.8c1.9,3.1,3.2,5.6-0.4,8.6s-7.5,5.6-11.3,6.3s-5.9,1.5-9.7,3.6s-6,5-12.2,3.6
						c-5.5-1.2-6.2-8-9.2-6c-3.6,2.4-7.6,2.3-9.6-0.7c-1.9-2.8-2.9-4.7-7.7-4.7S129.4,229.6,128.6,223z"/>
					<path class="st15" d="M188.2,221.7c2.5-1.5,6.4-1.9,10.8-1.8c5.1,0,9.8,0.9,13.4,2c4.8,1.6,6.6,2.2,8,5.9
						c1.4,3.8-1.3,7.6-4.6,9c-5.9,2.5-9.3-0.3-14.1-0.3c-3,0-6.4,1.2-12.3,0.6c-4.3-0.4-6.3-3.1-6.6-6.2
						C182.7,228.3,182.8,224.9,188.2,221.7z"/>
					<path class="st15" d="M121.6,246.3c2.4,1.8,6.4,1.9,11.4,0.2c4.3-1.4,7.6,0.8,10.4,1.3c2.8,0.6,9,0.1,9.1-3.9
						c0.1-4.5-2.9-6.8-6.6-6.8c-5.1,0-7.1,2.1-10.7,0.4c-3.6-1.7-8.2-2.3-12.4-0.6C118.8,238.5,117.4,243.2,121.6,246.3z"/>
					<path class="st12" d="M164.4,269c0,0-9.7-0.2-9.7-0.2c-1.5-0.5-0.1-5.2,4.4-5.4c4.4-0.2,3.7,2.6,5.7,2.3c2-0.3,3.6-2.3,6.1-1.5
						c2.5,0.8,2.4,2.5,1.9,4.2C172.5,269,168.8,269.2,164.4,269z"/>
					<path class="st15" d="M176.7,268.9c-1.2,1.1-6.9,1.5-6.9-1c-0.1-2.5,1.8-2.1,3.8-2.1C175.5,265.6,177.9,267.8,176.7,268.9z"/>
					<path class="st13" d="M178.9,245.6c-1.1,3.9,1.1,4.2,4.5,5s7.9,0.7,12.7,0.4s8.6-0.5,9.5-2.5c0.9-2,0.6-4.6-4.8-4.2
						c-3.8,0.3-5.4-2.7-8.2-1.8c-2.8,0.9-4.1,1.2-6.6,0.7C183.5,242.7,179.5,243.6,178.9,245.6z"/>
				</g>
			</g>
		</g>
	</g>
</g>
</svg>
