<?xml version="1.0" encoding="utf-8"?>
<!-- Generator: Adobe Illustrator 17.0.0, SVG Export Plug-In . SVG Version: 6.00 Build 0)  -->
<!DOCTYPE svg PUBLIC "-//W3C//DTD SVG 1.1//EN" "http://www.w3.org/Graphics/SVG/1.1/DTD/svg11.dtd">
<svg version="1.1" id="Layer_1" xmlns="http://www.w3.org/2000/svg" xmlns:xlink="http://www.w3.org/1999/xlink" x="0px" y="0px"
	 width="450px" height="293px" viewBox="0 0 450 293" enable-background="new 0 0 450 293" xml:space="preserve">
<g enable-background="new    ">
	<g>
		<defs>
			<rect id="SVGID_1_" x="481.476" y="0" width="450" height="293"/>
		</defs>
		<clipPath id="SVGID_2_">
			<use xlink:href="#SVGID_1_"  overflow="visible"/>
		</clipPath>
		<g clip-path="url(#SVGID_2_)">
			<defs>
				<rect id="SVGID_3_" x="481.476" y="0" width="450" height="293"/>
			</defs>
			<clipPath id="SVGID_4_">
				<use xlink:href="#SVGID_3_"  overflow="visible"/>
			</clipPath>
			<rect x="481.476" y="0" clip-path="url(#SVGID_4_)" fill="#FFFFFF" width="450" height="293"/>
		</g>
	</g>
</g>
<rect x="481.857" y="-0.003" fill="#C5F0FF" width="449.778" height="293"/>
<path fill="#FFFFFF" d="M545.851,22.164c0,0,64.806-3.15,65.495,2.615c0.692,5.781-17.465,3.014-15.995,9.596
	c1.541,6.902,67.74-2.924,67.24,10.655c-0.5,13.579-71.115,1.095-71.365,12.97c-0.113,5.375,11.727,3.064,11.977,9.69
	c0.528,13.992-54.183,8.024-54.183,8.024S499.653,79,499.682,63.875c0.02-10.159,37.565-8.488,37.687-17.519
	c0.101-7.505-20.127-6.209-20.626-14.078C516.243,24.409,538.357,22.289,545.851,22.164z"/>
<path fill="#FFFFFF" d="M869.601,35.02c0,0,33.125-2.02,33.579,3.552c0.312,3.836-7.764,1.753-7.764,5.594
	s25.297,1.459,25.297,6.679c0,4.905-23.487,1.001-23.487,5.968c0,5,10.588,1.972,9.961,7.688
	c-0.898,8.187-47.715,2.844-47.715,2.844l-3.463-8.568c0,0-20.288,0.918-20.872-4.592c-0.584-5.51,16.756-1.519,17.95-5.928
	c1.39-5.132-9.935-4.508-10.186-9.017C842.65,34.732,860.057,35.354,869.601,35.02z"/>
<path fill="#FFFFFF" d="M849.45,78.423c0,0-18.781-1.372-18.865,2.874c-0.083,4.246,9.644,3.216,8.149,6.986
	c-1.654,4.17-28.662,1.296-29.162,7.79c-0.5,6.494,34.3,4.246,34.3,4.246L849.45,78.423z"/>
<path fill="#9A43A4" d="M707.035,154.41c0,0,4.954-2.959,6.262-7.156c1.307-4.197,3.509-14.794,5.849-17.34
	c2.339-2.546,5.78-7.156,6.675-9.84c0.895-2.684,2.271-5.986,2.821-7.638c0.55-1.651,2.408-6.262,2.615-8.464
	c0.206-2.202,0.413-5.436,1.17-5.574c0.757-0.138,5.092,9.978,5.436,13.005c0.344,3.028,1.927,7.294,3.716,9.496
	c1.789,2.202,2.271,7.156,3.028,9.221s4.06,6.268,4.679,7.641c0.619,1.373-12.089,42.876-12.089,42.876l-29.334-17.626
	L707.035,154.41z"/>
<g>
	<defs>
		<path id="SVGID_5_" d="M707.035,154.41c0,0,4.954-2.959,6.262-7.156c1.307-4.197,3.509-14.794,5.849-17.34
			c2.339-2.546,5.78-7.156,6.675-9.84c0.895-2.684,2.271-5.986,2.821-7.638c0.55-1.651,2.408-6.262,2.615-8.464
			c0.206-2.202,0.413-5.436,1.17-5.574c0.757-0.138,5.092,9.978,5.436,13.005c0.344,3.028,1.927,7.294,3.716,9.496
			c1.789,2.202,2.271,7.156,3.028,9.221s4.06,6.268,4.679,7.641c0.619,1.373-12.089,42.876-12.089,42.876l-29.334-17.626
			L707.035,154.41z"/>
	</defs>
	<use xlink:href="#SVGID_5_"  overflow="visible" fill="#2C5E5E"/>
	<clipPath id="SVGID_6_">
		<use xlink:href="#SVGID_5_"  overflow="visible"/>
	</clipPath>
	<path clip-path="url(#SVGID_6_)" fill="#214443" d="M731.998,95.57c0,0,4.615,8.015,2.793,14.208
		c-1.822,6.193-4.129,8.865-2.186,13.479c1.943,4.615,3.157,7.165,1.093,12.022c-2.064,4.857-4.615,9.715,0.971,15.422
		c5.586,5.708,16.637-10.808,16.637-10.808l-2.004-22.587l-13.904-25.618L731.998,95.57z"/>
</g>
<g>
	<defs>
		<path id="SVGID_7_" d="M746.667,137.558c0,0,6.468-9.125,9.395-13.352c2.926-4.227,4.633-6.584,5.934-9.429
			c1.301-2.845,1.87-6.584,3.17-9.185c1.301-2.601,7.411-12.665,8.936-15.591c1.525-2.926,2.77-8.714,4.314-11.559
			c1.544-2.845,3.489-6.58,4.552-8.698c1.055-2.103,5.853,3.983,6.259,7.316c0.406,3.333,2.11,7.241,4.062,9.378
			c1.948,2.134,6.029,8.31,6.83,10.618c1.263,3.639,1.788,5.69,2.52,9.023c0.732,3.333,2.079,7.375,5.9,10.046
			c2.466,1.724,2.473,4.748,3.855,6.943c1.382,2.195,1.301,4.552,3.983,7.072c2.682,2.52,5.202,8.616,5.934,12.193
			c0.732,3.577-3.008,15.363-3.008,15.363l-15.526,11.949l-28.957-14.713l-19.896-17.171L746.667,137.558z"/>
	</defs>
	<use xlink:href="#SVGID_7_"  overflow="visible" fill="#46A391"/>
	<clipPath id="SVGID_8_">
		<use xlink:href="#SVGID_7_"  overflow="visible"/>
	</clipPath>
	<path clip-path="url(#SVGID_8_)" fill="#2C5E5E" d="M785.163,61.344c0,0-4.656,12.325,0.641,21.153
		c5.297,8.828,7.107,10.954,3.172,20.128c-4.244,9.892-5.78,14.868-1.862,20.112c3.917,5.244,4.953,9.513-0.962,14.589
		c-7.167,6.151-5.694,23.873,1.678,33.813c7.372,9.941,47.601-34.215,47.601-34.215l3.22-23.368c0,0-38.35-40.542-36.657-40.308
		C803.688,73.482,785.163,61.344,785.163,61.344z"/>
</g>
<path fill="#6DD1BD" d="M792.066,202.306c0,0,9.112-24.386,10.168-28.984c1.056-4.597,0.299-9.812,3.307-9.812
	c3.008,0,10.105-9.421,11.615-14.279c1.306-4.202,5.512-13.986,7.774-17.629c2.262-3.642,5.299-11.83,6.488-15.923
	c1.189-4.094,3.83-10.828,4.886-13.205c1.056-2.377,8.848-22.008,10.3-27.599c1.453-5.591,5.282-13.469,8.583-17.827
	c3.301-4.358,5.282-11.225,6.339-15.45c1.057-4.226,3.83-12.017,4.622-13.734c0.792-1.717,2.641-4.094,4.49,2.773
	c1.849,6.867,3.565,11.753,4.358,14.922s0.924,4.757,1.453,10.432c0.528,5.675,3.962,11.885,6.471,14.394
	c2.509,2.509,6.207,10.564,7.131,14.262c0.924,3.698,3.697,7.395,5.546,10.036c1.849,2.641,3.83,7.131,4.49,11.489
	s1.056,10.696,3.037,13.998c1.981,3.301,7.659,7.549,8.716,11.434c1.056,3.885,2.773,9.156,2.905,13.393
	c0.132,4.236,1.849,14.507,3.698,18.016c1.849,3.509,4.874,9.644,5.942,14.469c1.792,8.093,7.251,10.455,7.251,18.033
	c0,9.187-0.159,37.342-0.159,37.342v25.045L792.066,202.306z"/>
<g>
	<defs>
		<path id="SVGID_9_" d="M792.066,202.306c0,0,9.112-24.386,10.168-28.984c1.056-4.597,0.299-9.812,3.307-9.812
			c3.008,0,10.105-9.421,11.615-14.279c1.306-4.202,5.512-13.986,7.774-17.629c2.262-3.642,5.299-11.83,6.488-15.923
			c1.189-4.094,3.83-10.828,4.886-13.205c1.056-2.377,8.848-22.008,10.3-27.599c1.453-5.591,5.282-13.469,8.583-17.827
			c3.301-4.358,5.282-11.225,6.339-15.45c1.057-4.226,3.83-12.017,4.622-13.734c0.792-1.717,2.641-4.094,4.49,2.773
			c1.849,6.867,3.565,11.753,4.358,14.922s0.924,4.757,1.453,10.432c0.528,5.675,3.962,11.885,6.471,14.394
			c2.509,2.509,6.207,10.564,7.131,14.262c0.924,3.698,3.697,7.395,5.546,10.036c1.849,2.641,3.83,7.131,4.49,11.489
			s1.056,10.696,3.037,13.998c1.981,3.301,7.175,6.778,9.353,10.165c1.971,3.064,2.136,10.425,2.268,14.662
			c0.132,4.236,1.849,14.507,3.698,18.016c1.849,3.509,4.874,9.644,5.942,14.469c1.792,8.093,7.251,10.455,7.251,18.033
			c0,9.187-0.159,37.342-0.159,37.342v25.045L792.066,202.306z"/>
	</defs>
	<use xlink:href="#SVGID_9_"  overflow="visible" fill="#6DD1BD"/>
	<clipPath id="SVGID_10_">
		<use xlink:href="#SVGID_9_"  overflow="visible"/>
	</clipPath>
	<path clip-path="url(#SVGID_10_)" fill="#46A391" d="M866.976,21.125c0,0,2.259,16.771-0.375,28.875
		c-2.694,12.376-7.632,13.113-0.75,23.75c6.881,10.637,10.675,23.093,7.5,35c-3.175,11.907,7.818,21.231,13.375,28.375
		c5.557,7.144,5.564,20.259,3.5,32.52c-2.064,12.261-6.866,17.308,0.75,32.605c8.12,16.309,30.423,55.651,30.423,55.651h19.369
		l5.557-84.578l-19.527-104.04L874.723,20.48L866.976,21.125z"/>
</g>
<path fill="#9A43A4" d="M653.793,149.667c0,0,2.673-16.351,5.069-21.091c2.396-4.739,5.121-10.19,6.069-15.64
	c0.948-5.45,4.503-14.811,5.332-17.299c0.83-2.488,2.205,1.777,3.887,6.754c1.682,4.976,4.644,10.545,4.407,14.1
	s1.029,5.936,2.844,9.242c2.56,4.665,3.673,10.19,3.673,13.745s0.356,8.176,4.266,12.441c3.91,4.266,0.592,11.375,0.592,11.375
	l-20.972,8.65l-12.56-14.929L653.793,149.667z"/>
<g>
	<defs>
		<path id="SVGID_11_" d="M653.793,149.667c0,0,2.673-16.351,5.069-21.091c2.396-4.739,5.121-10.19,6.069-15.64
			c0.948-5.45,4.503-14.811,5.332-17.299c0.83-2.488,2.205,1.777,3.887,6.754c1.682,4.976,4.644,10.545,4.407,14.1
			s1.029,5.936,2.844,9.242c2.56,4.665,3.673,10.19,3.673,13.745s0.356,8.176,4.266,12.441c3.91,4.266,0.592,11.375,0.592,11.375
			l-20.972,8.65l-12.56-14.929L653.793,149.667z"/>
	</defs>
	<use xlink:href="#SVGID_11_"  overflow="visible" fill="#2C5E5E"/>
	<clipPath id="SVGID_12_">
		<use xlink:href="#SVGID_11_"  overflow="visible"/>
	</clipPath>
	<path clip-path="url(#SVGID_12_)" fill="#214443" d="M670.664,90.465c0,0,3.486,11.844,3.486,17.356
		c0,5.512-3.218,8.091-1.609,13.369s8.476,10.085,5.043,16.183c-3.433,6.098-13.219,15.124-8.326,20.522
		c4.893,5.398,11.258,13.017,11.258,13.017l-13.369,8.443l-19.818-28.379l6.466-32.249L670.664,90.465z"/>
</g>
<path fill="#C891C8" d="M598.067,136.26c0,0,8.176-18.958,11.493-25.001c3.318-6.043,4.147-11.849,5.095-17.299
	c0.948-5.45,1.777-9.361,3.792-13.745c2.014-4.384,4.572-10.098,4.572-10.098c1.442-3.265,4.209,2.026,5.157,7.95
	c0.948,5.924,2.52,9.188,5.039,13.622c2.131,3.75,7.27,12.698,9.166,19.452c1.896,6.754,4.739,17.457,8.413,22.039
	c3.673,4.582,16.983,24.639,18.095,32.104c1.112,7.465-57.672-0.075-57.672-0.075l-10.543-9.28L598.067,136.26z"/>
<g>
	<defs>
		<path id="SVGID_13_" d="M598.067,136.26c0,0,8.176-18.958,11.493-25.001c3.318-6.043,4.147-11.849,5.095-17.299
			c0.948-5.45,1.777-9.361,3.792-13.745c2.014-4.384,4.572-10.098,4.572-10.098c1.442-3.265,4.209,2.026,5.157,7.95
			c0.948,5.924,2.52,9.188,5.039,13.622c2.131,3.75,7.27,12.698,9.166,19.452c1.896,6.754,4.739,17.457,8.413,22.039
			c3.673,4.582,16.983,24.639,18.095,32.104c1.112,7.465-57.672-0.075-57.672-0.075l-10.543-9.28L598.067,136.26z"/>
	</defs>
	<use xlink:href="#SVGID_13_"  overflow="visible" fill="#46A391"/>
	<clipPath id="SVGID_14_">
		<use xlink:href="#SVGID_13_"  overflow="visible"/>
	</clipPath>
	<path clip-path="url(#SVGID_14_)" fill="#2C5E5E" d="M633.647,88.627c0,0-7.859,5.686-5.853,13.378
		c2.007,7.692,7.023,12.207,0.502,19.063c-6.522,6.856-12.876,8.135-12.207,16.693c0.669,8.558-2.714,22.148-10.368,25.25
		c-7.654,3.102-17.558-29.568-17.558-29.568l26.755-68.393l11.873-8.863L633.647,88.627z"/>
</g>
<path fill="#C5F0FF" d="M481.38,176.521c0,0,9.939-9.618,11.08-16.893c1.141-7.275,3.424-15.121,7.418-18.973
	c3.994-3.852,7.133-10.128,7.989-15.406c0.856-5.278,5.278-16.12,9.7-20.827c4.422-4.707,9.558-13.695,11.84-19.686
	c2.282-5.991,5.563-10.882,9.13-16.976c3.566-6.094,6.277-10.842,7.703-16.976c1.427-6.134,0.428-10.271,3.281-15.121
	c2.853-4.85,4.137-6.419,6.277-11.269c2.14-4.85,2.568-5.849,3.852-6.419c1.284-0.571,2.282-0.428,3.281,4.137
	c0.999,4.565,4.422,11.697,4.28,15.549c-0.143,3.852,0.045,10.746,2.613,15.311c2.568,4.565,5.804,10.652,7.23,17.642
	c1.427,6.99,5.438,12.66,7.133,18.26c1.589,5.249,3.709,12.981,5.991,19.543s3.994,12.696,7.133,18.545
	c3.138,5.849,7.133,10.984,7.418,15.692c0.285,4.708,1.141,8.844,4.708,15.406c3.566,6.562,4.565,7.846,6.134,14.265
	c1.569,6.419,7.989,25.392,9.272,33.095c1.284,7.703-96.861,31.526-96.861,31.526l-46.601,1.822V176.521z"/>
<g>
	<defs>
		<path id="SVGID_15_" d="M481.38,176.521c0,0,9.939-9.618,11.08-16.893c1.141-7.275,3.424-15.121,7.418-18.973
			c3.994-3.852,7.133-10.128,7.989-15.406c0.856-5.278,5.278-16.12,9.7-20.827c4.422-4.707,9.558-13.695,11.84-19.686
			c2.282-5.991,5.563-10.882,9.13-16.976c3.566-6.094,6.277-10.842,7.703-16.976c1.427-6.134,0.428-10.271,3.281-15.121
			c2.853-4.85,4.137-6.419,6.277-11.269c2.14-4.85,2.568-5.849,3.852-6.419c1.284-0.571,2.282-0.428,3.281,4.137
			c0.999,4.565,4.422,11.697,4.28,15.549c-0.143,3.852,0.045,10.746,2.613,15.311c2.568,4.565,5.804,10.652,7.23,17.642
			c1.427,6.99,5.438,12.66,7.133,18.26c1.589,5.249,3.709,12.981,5.991,19.543s3.994,12.696,7.133,18.545
			c3.138,5.849,7.133,10.984,7.418,15.692c0.285,4.708,1.141,8.844,4.708,15.406c3.566,6.562,4.565,7.846,6.134,14.265
			c1.569,6.419,7.989,25.392,9.272,33.095c1.284,7.703-96.861,31.526-96.861,31.526l-46.601,1.822V176.521z"/>
	</defs>
	<use xlink:href="#SVGID_15_"  overflow="visible" fill="#6DD1BD"/>
	<clipPath id="SVGID_16_">
		<use xlink:href="#SVGID_15_"  overflow="visible"/>
	</clipPath>
	<path clip-path="url(#SVGID_16_)" fill="#46A391" d="M560.545,11.555c0,0-3.013-2.887-0.565,5.199
		c2.448,8.086-2.532,20.844-4.209,25.641c-3.795,10.854,0.402,20.858,3.2,28.17c2.798,7.312,3.847,19.295-2.623,26.448
		c-6.469,7.154-18.534,6.543-24.129,18.313c-5.595,11.77-3.187,17.477,0.175,27.285c3.361,9.808-3.672,16.797-12.414,24.448
		c-8.743,7.652-11.715,16.033-6.994,28.695c4.721,12.662-6.753,39.205-21.441,47.943c-14.688,8.738-29.266-31.001-29.266-31.001
		l9.894-52.608l49.031-90.772L560.545,11.555z"/>
</g>
<path fill="#EF8822" d="M697.787,175.532c0,0-18.035,0.819-24.7-7.83c-6.666-8.65-13.611-21.028-30.964-21.962
	c-13.156-0.708-24.728,6.707-30.906,19.469c-6.178,12.762-9.535,32.5-9.535,32.5l81.311,4.81L697.787,175.532z"/>
<path fill="#ED7129" d="M470.38,217.192c0,0,14.012-37.89,44.795-16.849c24.605,16.819,37.004-27.99,62.129-38.349
	c13.213-5.448,24.463,2.675,30.213,20.567c5.502,17.121,29.33,17.155,36.575,16.011c7.245-1.144,9.702,20.276,9.702,20.276
	L624.536,293H481.38L470.38,217.192z"/>
<circle fill="#FFFFFF" cx="748.542" cy="40.072" r="26.616"/>
<path fill="#EF8822" d="M481.38,293c0,0,0.629-10.766,0.318-36.767c-0.318-26.55,40.669-41.301,53.203-11.507
	c12.265,29.154,7.109,45.479,68.689,44.532c36.41-0.56,10.477,3.742,10.477,3.742l-132.687,0.273V293z"/>
<path fill="#D86227" d="M716.042,168.725c0,0,7.667-4.714,11.65-20.54c2.037-8.095,10.38-16.501,21.61-16.582
	c11.23-0.081,22.366,12.518,24.642,21.541c2.276,9.023-20.972,36.294-20.972,36.294l-25.516,17.518L716.042,168.725z"/>
<path fill="#EF8822" d="M723.582,194.774c0,0,19.055-3.718,25.72-12.367c6.665-8.649,14.114-28.219,26.952-31.175
	c15.21-3.502,27.847,5.651,34.025,18.413c6.178,12.762,9.365,30.031,9.365,30.031l-81.141,7.28L723.582,194.774z"/>
<path fill="#FBC24D" d="M792.066,202.306c0,0,19.859-51.169,60.185-41.985c26.918,6.131,33.686,30.281,46.165,53.575
	c16.636,31.053,25.166,32.162,33.06,35.163c0.358,0.136,0,43.94,0,43.94l-55.973,0.275l-41.972-12.529l-55.473-40.633
	L792.066,202.306z"/>
<path fill="#C5F0FF" d="M664.438,197.717c0,0-8.484-0.008-16.358-0.008c-21.254,0-53.724-0.713-53.331,9.246
	c0.435,11.026,32.507,5.036,32.507,17.615c0,15.328-65.897-0.093-65.897,15.639s52.878,5.848,53.455,17.69
	c0.672,13.794-32.132,11.204-34.633,20.511c-3.944,14.676,64.578,14.589,64.578,14.589l16.577-71.664L664.438,197.717z"/>
<g>
	<defs>
		<path id="SVGID_17_" d="M664.438,197.717c0,0-8.484-0.008-16.358-0.008c-21.254,0-53.724-0.713-53.331,9.246
			c0.435,11.026,32.507,5.036,32.507,17.615c0,15.328-65.897-0.093-65.897,15.639s52.878,5.848,53.455,17.69
			c0.672,13.794-32.132,11.204-34.633,20.511c-3.944,14.676,64.578,14.589,64.578,14.589l16.577-71.664L664.438,197.717z"/>
	</defs>
	<clipPath id="SVGID_18_">
		<use xlink:href="#SVGID_17_"  overflow="visible"/>
	</clipPath>
</g>
<path fill="#C5F0FF" d="M661.32,197.981c0,0,89.331,0.005,99.796,0c24.095-0.011,62.884-0.383,62.884,12.05
	c0,12.433-38.019,8.704-37.002,19.205c0.764,7.889,11.791,11.175,25.076,11.149c8.05-0.016,39.391-1.905,39.391,7.892
	c0,9.9-13.408,10.117-11.217,20.181c2.19,10.063,29.789,24.814,45.689,24.814l-89.516,0.001L661.32,197.981z"/>
<g>
	<defs>
		<path id="SVGID_19_" d="M661.32,197.981c0,0,89.331,0.005,99.796,0c24.095-0.011,62.884-0.383,62.884,12.05
			c0,12.433-38.019,8.704-37.002,19.205c0.764,7.889,11.791,11.175,25.076,11.149c8.05-0.016,39.391-1.905,39.391,7.892
			c0,9.9-13.408,10.117-11.217,20.181c2.19,10.063,29.789,24.814,45.689,24.814l-89.516,0.001L661.32,197.981z"/>
	</defs>
	<clipPath id="SVGID_20_">
		<use xlink:href="#SVGID_19_"  overflow="visible"/>
	</clipPath>
</g>
<path fill="#ED7129" d="M556.737,293.273c0,0,60.828,1.197,79.113-47.215c18.262-48.349,17.944-98.543,68.474-96.754
	c38.451,1.362,43.694,41.337,54.492,74.997c19.243,59.985,57.271,67.05,109.667,68.7L714.769,293L556.737,293.273z"/>
<g>
	<defs>
		<path id="SVGID_21_" d="M556.737,293.273c0,0,60.828,1.197,79.113-47.215c18.262-48.349,17.944-98.543,68.474-96.754
			c38.451,1.362,43.694,41.337,54.492,74.997c19.243,59.985,57.271,67.05,109.667,68.7L714.769,293L556.737,293.273z"/>
	</defs>
	<clipPath id="SVGID_22_">
		<use xlink:href="#SVGID_21_"  overflow="visible"/>
	</clipPath>
	<path opacity="0.2" clip-path="url(#SVGID_22_)" fill="#FFFFFF" d="M665.905,165.687c0,0,30.24,13.979,71.976,2.894
		c0,0,26.529,6.928,6.048,10.417c-57.319,9.765-81.335-9.354-81.335-9.354C659.305,161.657,665.905,165.687,665.905,165.687z"/>
	<path opacity="0.2" clip-path="url(#SVGID_22_)" fill="#FFFFFF" d="M750.384,192.155c0,0-41.736,29.409-97.78-3.718
		c-56.044-33.127-9.861,15.998-9.861,15.998s70.265,29.654,109.687-4.821S750.384,192.155,750.384,192.155z"/>
	<path opacity="0.2" clip-path="url(#SVGID_22_)" fill="#FFFFFF" d="M642.872,224.49c0,0,59.608,29.798,119.085-2.121l4.984,28.737
		c0,0-19.18,2.044-43.359,7.847c-42.417,10.18-86.225-20.187-86.225-20.187L642.872,224.49z"/>
</g>
<g opacity="0.1293" enable-background="new    ">
	<g>
		<defs>
			
				<rect id="SVGID_23_" x="689.068" y="151.035" transform="matrix(-1 0.0066 -0.0066 -1 1399.1338 302.452)" width="20" height="5"/>
		</defs>
		<clipPath id="SVGID_24_">
			<use xlink:href="#SVGID_23_"  overflow="visible"/>
		</clipPath>
		<g clip-path="url(#SVGID_24_)">
			<defs>
				
					<rect id="SVGID_25_" x="689.068" y="151.035" transform="matrix(-1 0.0066 -0.0066 -1 1399.1338 302.452)" width="20" height="5"/>
			</defs>
			<clipPath id="SVGID_26_">
				<use xlink:href="#SVGID_25_"  overflow="visible"/>
			</clipPath>
			
				<ellipse transform="matrix(0.0066 1 -1 0.0066 848.4496 -546.9341)" opacity="0.3" clip-path="url(#SVGID_26_)" cx="699.503" cy="153.568" rx="1.854" ry="9.565"/>
		</g>
	</g>
</g>
<path fill="#ED7129" d="M786.809,282.833c0,0,28.414,11.324,42.97-7.864c11.712-15.439,7.751-48.446,36.475-47.558
	c17.66,0.546,23.814,16.727,28.191,32.729c8.99,32.861,36.095,32.856,36.095,32.856h-116.52L786.809,282.833z"/>
<ellipse cx="702.982" cy="140.087" rx="0.327" ry="0.204"/>
<path fill="#FFFFFF" d="M820.762,289.389c0,0,2.509-5.488-1.224-8.534c-3.733-3.046-8.665-1.77-11.909-2.201
	c-3.244-0.431-11.768-0.782-10.931-7.679c0.619-5.099,6.744-7.463,12.394-4.209c5.65,3.254,10.678,3.483,11.55,0.516
	c0.871-2.967-3.872-6.799-8.316-8.066s-12.858-3.501-11.724-8.715c1.25-5.75,8.958-3.732,12.861,0.503
	c2.616,2.839,6.463,5.007,8.006,3.667c2.039-1.77,1.653-4.051,1.368-8.061c-0.285-4.01,0.228-13.852,5.988-12.701
	c4.505,0.901,6.43,7.416,2.794,13.359c-2.346,3.834-3.416,7.487-0.879,8.916c2.537,1.428,6.432-1.682,9.807-3.744
	c4.208-2.571,9.28-1.775,9.526,2.821c0.204,3.819-4.429,8.034-13.721,8.63c-5.203,0.334-7.316,4.35-5.284,6.676
	c2.032,2.326,6.362,1.732,10.016,0.917s10.569,0.258,11.539,4.535c1.272,5.611-5.862,9.121-13.202,7.967
	C833.947,283.124,824.809,281.425,820.762,289.389z"/>
<path fill="none" stroke="#391869" stroke-width="1.7008" stroke-linecap="round" stroke-miterlimit="10" d="M826.303,258.069
	c0,0,0.556,17.691-5.646,32.291"/>
<g>
	<path fill="#46A391" d="M695.086,149.25c0,0-0.671,3.978,0.388,4.12c1.059,0.142,3.025,0.222,3.636,0.117
		c2.803-0.482,0.326-3.137,0.326-3.137L695.086,149.25z"/>
	<path fill="#6DD1BD" d="M698.895,148.368c0,0-1.289,5.376,0.228,5.539c1.323,0.142,5.534,0.18,6.261,0.226
		c0.78,0.05,1.035-0.422-1.132-1.278c-2.166-0.855-2.623-1.118-2.077-3.577S698.895,148.368,698.895,148.368z"/>
	<path d="M707.371,74.992c0,0-0.183-3.157-4.427-3.066c-4.374,0.094-5.744,2.858-5.565,5.571s0.981,5.019,3.606,5.872
		c2.625,0.853,4.932-2.583,4.932-2.583l0.761-3.684L707.371,74.992z"/>
	<path fill="#214443" d="M695.35,112.177l-2.114,38.238l5.763,0.361l0.103-0.874l4.76,0.881c0,0,8.177-13.502,8.871-17.253
		c0.683-3.69-2.048-16.988-2.529-20.232L695.35,112.177z"/>
	<path fill="#FFFFFF" d="M700.346,85.739c-0.118-0.087,0.456-0.815,0.639-2.369c0,0,2.631,0.259,3.218-1.619
		c0.587-1.879,0.307-2.217-0.285-2.456s-0.48-0.986,0.242-0.979c0.723,0.007,0.296-1.21,0.587-1.853
		c0.291-0.643,1.941-0.187,2.623-1.471c0,0,0.782,6.799-0.279,7.072c-1.061,0.272-2.256-0.047-2.455,0.795
		c-0.157,0.662-0.148,0.936,0.021,2.696C704.657,85.556,703.99,88.436,700.346,85.739z"/>
	<path fill="#FFFFFF" d="M709.182,79.659c0,0-0.52-0.573-1.18-1.071c-0.659-0.497-3.566-1.947-1.345-2.054
		c2.222-0.106,2.717-0.58,3.399,0.867c0.682,1.447,0.852,2.507,0.852,2.507l-1.271,0.607L709.182,79.659z"/>
	<path fill="#46A391" d="M700.337,85.644c0,0-2.66,0.3-7.127,3.409c-4.779,3.326-7.501,5.069-7.97,7.174
		c-0.644,2.894,4.014,9.159,5.644,11.774l3.803-3.06c0,0-2.579-4.388-3.442-6.108c-0.315-0.626,0.892-1.347,3.289-3.025
		c1.123-0.786,0.921-0.582,0.879,2.382c-0.025,1.807-0.973,15.306-0.973,15.306l16.733,0.451c0,0-1.027-17.502-0.684-17.962
		c0,0,6.767,1.731,8.434,0.898c1.067-0.534,1.584-2.809-0.083-7.833c-1.337-4.029-6.737-11.334-6.737-11.334l-4.123,3.016
		c0,0,6.797,10.092,6.496,10.435c-0.41,0.467-4.138-2.883-5.914-4.045c-2.063-1.35-3.905-1.566-3.905-1.566
		S702.112,86.901,700.337,85.644z"/>
	<path fill="#FFFFFF" d="M693.239,108.539c0.241,1.342,0.798,4.808,1.082,4.259c0.283-0.549,0.106-2.694,0.403-3.568
		c0.281-0.827,0.475-0.539,1.003,0.049c0.528,0.588,0.077-1.225-0.765-2.314c-0.32-0.414-0.345-0.448-1.036-1.38
		c-0.007-0.009-1.47,1.152-1.47,1.152S692.997,107.197,693.239,108.539z"/>
</g>
<g>
	<path fill="#D86227" d="M551.854,299.629c0,0-3.876-33.17,17.644-59.909c0,0,7.255,28.515-2.189,50.022L551.854,299.629z"/>
	<g>
		<defs>
			<path id="SVGID_27_" d="M551.854,299.629c0,0-3.876-33.17,17.644-59.909c0,0,7.255,28.515-2.189,50.022L551.854,299.629z"/>
		</defs>
		<clipPath id="SVGID_28_">
			<use xlink:href="#SVGID_27_"  overflow="visible"/>
		</clipPath>
		<path clip-path="url(#SVGID_28_)" fill="#EF8822" d="M569.498,239.72c0,0-9.717,48.416-9.835,56.978L551.421,301l-3.574-12.001
			l4.003-24.359l9.941-20.282L569.498,239.72z"/>
	</g>
	<path fill="#D86227" d="M568.282,298.316c0,0-10.764-40.775-48.406-62.263c0,0,4.642,36.865,25.675,57.781L568.282,298.316z"/>
	<g>
		<defs>
			<path id="SVGID_29_" d="M568.282,298.316c0,0-10.764-40.775-48.406-62.263c0,0,4.642,36.865,25.675,57.781L568.282,298.316z"/>
		</defs>
		<use xlink:href="#SVGID_29_"  overflow="visible" fill="#D86227"/>
		<clipPath id="SVGID_30_">
			<use xlink:href="#SVGID_29_"  overflow="visible"/>
		</clipPath>
		<path clip-path="url(#SVGID_30_)" fill="#F79034" d="M519.876,236.052c0,0,33.781,52.416,37.874,62.424l11.674,1.25l-1.342-15.756
			l-15.955-26.78l-21.051-19.246L519.876,236.052z"/>
	</g>
	<g>
		<defs>
			<path id="SVGID_31_" d="M556.516,292.447c0,0,6.554-21.919,27.34-32.907c0,0-3.165,19.906-14.937,30.876L556.516,292.447z"/>
		</defs>
		<use xlink:href="#SVGID_31_"  overflow="visible" fill="#D86227"/>
		<clipPath id="SVGID_32_">
			<use xlink:href="#SVGID_31_"  overflow="visible"/>
		</clipPath>
		<path clip-path="url(#SVGID_32_)" fill="#EF8822" d="M583.857,259.54c0,0-19.238,27.825-21.633,33.179l-6.351,0.472l1.005-8.519
			l9.122-14.239l11.752-10.065L583.857,259.54z"/>
	</g>
</g>
<path fill="#FBC24D" d="M749.306,287.269c0,0-39.573,3.229-53.888-12.237c-17.592-19.006-20.696-46.356-52.546-50.541
	c-32.388-4.256-48.714,18.226-60.636,42.855c-11.922,24.629-35.262,25.93-35.262,25.93H726.93L749.306,287.269z"/>
<path fill="#FFFFFF" d="M692.113,288.888c-4.123,0.186-6.406-4.575-2.839-7.594c3.568-3.019,7.003-4.465,4.689-7.727
	c-1.777-2.505-5.609,0.186-8.674,1.311c-4.274,1.568-8.493-2.796-6.795-6.883c1.373-3.306,6.09-2.12,9.768-3.074
	c3.677-0.954,2.51-4.021,0.137-6.342c-2.374-2.321-4.922-8.173,0.401-10.247c5.323-2.074,6.776,3.499,7.255,6.319
	c0.478,2.82,3.225,5.581,5.928,2.202c2.703-3.378,5.493-6.52,8.641-4.12c3.175,2.42-0.981,6.767-3.398,9.35
	c-3.025,3.233,0.473,8.092,3.73,5.931c3.258-2.161,7.086-3.368,9.368,0.238c4.27,6.747-9.672,9.09-14.713,11.116
	C700.433,281.449,696.251,288.702,692.113,288.888z"/>
<path fill="none" stroke="#391869" stroke-width="1.4173" stroke-linecap="round" d="M698.296,267.703
	c0,0,6.811,9.111,12.328,23.243"/>
<path fill="#EF8822" d="M837.53,292.722c0,0-31.57,1.21-41.746-29.596c-7.073-21.414-13.541-42.309-37.885-42.658
	c-26.302-0.377-36.774,24.2-42.56,43.189c-4.955,16.261-6.268,18.395-11.719,29.061c-0.002,0.004,8.365,0.279,32.009,0.279
	c33.974,0,55.733-0.279,55.733-0.279L837.53,292.722z"/>
<circle fill="#FFFFFF" cx="630.515" cy="156.536" r="1.596"/>
<circle fill="#FFFFFF" cx="652.197" cy="159.729" r="1.596"/>
<circle fill="#FFFFFF" cx="655.39" cy="171.943" r="1.596"/>
<circle fill="#FFFFFF" cx="637.052" cy="170.346" r="1.596"/>
<circle fill="#FFFFFF" cx="620.883" cy="183.399" r="1.596"/>
<circle fill="#FFFFFF" cx="622.479" cy="168.048" r="1.596"/>
<circle fill="#FFFFFF" cx="645.893" cy="184.995" r="1.596"/>
<circle fill="#FFFFFF" cx="633.859" cy="190.691" r="1.596"/>
<ellipse fill="#FFFFFF" cx="743.321" cy="137.532" rx="0.358" ry="0.374"/>
<ellipse fill="#FFFFFF" cx="741" cy="145.319" rx="0.358" ry="0.374"/>
<ellipse fill="#FFFFFF" cx="753.829" cy="147.875" rx="0.358" ry="0.374"/>
<ellipse transform="matrix(-0.9422 -0.3351 0.3351 -0.9422 1374.3376 557.0765)" fill="#FFFFFF" cx="735.233" cy="159.961" rx="0.374" ry="0.359"/>
<ellipse transform="matrix(-0.9422 -0.3351 0.3351 -0.9422 1426.3094 527.4212)" fill="#FFFFFF" cx="758.659" cy="140.652" rx="0.374" ry="0.358"/>
<ellipse transform="matrix(-0.9422 -0.3351 0.3351 -0.9422 1376.5901 535.4175)" fill="#FFFFFF" cx="734.488" cy="148.944" rx="0.374" ry="0.359"/>
<ellipse transform="matrix(-0.9422 -0.3352 0.3352 -0.9422 1397.7272 584.3724)" fill="#FFFFFF" cx="749.287" cy="171.582" rx="0.374" ry="0.358"/>
<ellipse transform="matrix(-0.9422 -0.3351 0.3351 -0.9422 1401.7574 552.4666)" fill="#FFFFFF" cx="748.542" cy="155.3" rx="0.374" ry="0.358"/>
<ellipse transform="matrix(-0.9422 -0.3352 0.3352 -0.9422 1433.9441 545.3491)" fill="#FFFFFF" cx="764.029" cy="148.944" rx="0.374" ry="0.359"/>
<ellipse transform="matrix(-0.9422 -0.3351 0.3351 -0.9422 1392.141 567.959)" fill="#FFFFFF" cx="745.072" cy="163.871" rx="0.374" ry="0.359"/>
<ellipse transform="matrix(-0.9422 -0.335 0.335 -0.9422 1418.9713 557.8546)" fill="#FFFFFF" cx="757.603" cy="156.536" rx="0.374" ry="0.358"/>
<circle fill="#FFFFFF" cx="497.661" cy="260.762" r="2.021"/>
<circle fill="#FFFFFF" cx="515.035" cy="273.011" r="2.021"/>
<circle fill="#FFFFFF" cx="499.573" cy="282.763" r="2.021"/>
<circle fill="#FFFFFF" cx="501.703" cy="242.647" r="2.021"/>
<g>
	<path fill="#EF8822" d="M899.881,301.116c0,0-2.864-40.338-34.493-67.3c0,0-2.206,35.561,13.878,59.02L899.881,301.116z"/>
	<g>
		<defs>
			<path id="SVGID_33_" d="M899.881,301.116c0,0-2.864-40.338-34.493-67.3c0,0-2.206,35.561,13.878,59.02L899.881,301.116z"/>
		</defs>
		<clipPath id="SVGID_34_">
			<use xlink:href="#SVGID_33_"  overflow="visible"/>
		</clipPath>
		<path clip-path="url(#SVGID_34_)" fill="#D86227" d="M865.388,233.815c0,0,22.472,55.412,24.543,65.572l10.775,3.261l1.548-15.084
			l-10.253-28.078l-16.399-21.89L865.388,233.815z"/>
	</g>
	<path fill="#888888" d="M880.041,303.255c0,0,3.617-50.938,43.558-84.986c0,0,2.785,44.906-17.525,74.531L880.041,303.255z"/>
	<g>
		<defs>
			<path id="SVGID_35_" d="M880.041,303.255c0,0,3.617-50.938,43.558-84.986c0,0,2.785,44.906-17.525,74.531L880.041,303.255z"/>
		</defs>
		<use xlink:href="#SVGID_35_"  overflow="visible" fill="#EF8822"/>
		<clipPath id="SVGID_36_">
			<use xlink:href="#SVGID_35_"  overflow="visible"/>
		</clipPath>
		<path clip-path="url(#SVGID_36_)" fill="#D86227" d="M923.599,218.269c0,0-28.378,69.974-30.992,82.804L879,305.191l-1.954-19.047
			l12.947-35.457l20.708-27.642L923.599,218.269z"/>
	</g>
	<path fill="#888888" d="M892.716,293.621c0,0-12.737-24.6-39.944-32.989c0,0,8.252,22.97,24.73,33.369L892.716,293.621z"/>
	<g>
		<defs>
			<path id="SVGID_37_" d="M892.716,293.621c0,0-12.737-24.6-39.944-32.989c0,0,8.252,22.97,24.73,33.369L892.716,293.621z"/>
		</defs>
		<use xlink:href="#SVGID_37_"  overflow="visible" fill="#EF8822"/>
		<clipPath id="SVGID_38_">
			<use xlink:href="#SVGID_37_"  overflow="visible"/>
		</clipPath>
		<path clip-path="url(#SVGID_38_)" fill="#D86227" d="M852.772,260.632c0,0,29.159,28.769,33.216,34.599l7.663-0.869l-3.115-9.909
			l-14.061-14.885l-16.251-9.326L852.772,260.632z"/>
	</g>
</g>
<g enable-background="new    ">
	<g>
		<defs>
			<rect id="SVGID_39_" x="0" y="0" width="450" height="293"/>
		</defs>
		<clipPath id="SVGID_40_">
			<use xlink:href="#SVGID_39_"  overflow="visible"/>
		</clipPath>
		<g clip-path="url(#SVGID_40_)">
			<defs>
				<rect id="SVGID_41_" x="0" y="0" width="450" height="293"/>
			</defs>
			<clipPath id="SVGID_42_">
				<use xlink:href="#SVGID_41_"  overflow="visible"/>
			</clipPath>
			<rect x="0" y="0" clip-path="url(#SVGID_42_)" fill="#FFFFFF" width="450" height="293"/>
		</g>
	</g>
</g>
<rect x="0.381" y="-0.003" fill="#FBC24D" width="449.778" height="293"/>
<path fill="#FFFFFF" d="M64.375,22.164c0,0,65.371-3.206,65.496,2.615c0.125,5.821-17.465,3.014-15.995,9.596
	c1.541,6.902,67.74-2.924,67.24,10.655C180.616,58.609,110,46.125,109.75,58c-0.113,5.375,11.727,3.064,11.977,9.69
	c0.528,13.992-54.183,8.024-54.183,8.024S18.177,79,18.206,63.875c0.02-10.159,37.565-8.488,37.687-17.519
	c0.101-7.505-20.127-6.209-20.626-14.078C34.767,24.409,56.881,22.289,64.375,22.164z"/>
<path fill="#FFFFFF" d="M388.125,35.02c0,0,33.125-2.02,33.579,3.552c0.312,3.836-7.764,1.753-7.764,5.594
	s25.297,1.459,25.297,6.679c0,4.905-23.487,1.001-23.487,5.968c0,5,10.588,1.972,9.961,7.688
	c-0.898,8.187-47.715,2.844-47.715,2.844l-3.463-8.568c0,0-20.288,0.918-20.872-4.592c-0.584-5.51,16.756-1.519,17.95-5.928
	c1.39-5.132-9.935-4.508-10.186-9.017C361.174,34.732,378.581,35.354,388.125,35.02z"/>
<path fill="#FFFFFF" d="M367.974,78.423c0,0-18.781-1.372-18.865,2.874c-0.083,4.246,9.644,3.216,8.149,6.986
	c-1.654,4.17-28.662,1.296-29.162,7.79c-0.5,6.494,34.3,4.246,34.3,4.246L367.974,78.423z"/>
<path fill="#9A43A4" d="M225.559,154.41c0,0,4.954-2.959,6.262-7.156c1.307-4.197,3.509-14.794,5.849-17.34
	c2.34-2.546,5.78-7.156,6.675-9.84c0.895-2.684,2.271-5.986,2.821-7.638c0.551-1.651,2.408-6.262,2.615-8.464
	c0.206-2.202,0.413-5.436,1.17-5.574c0.757-0.138,5.092,9.978,5.436,13.005c0.344,3.028,1.927,7.294,3.716,9.496
	c1.789,2.202,2.271,7.156,3.028,9.221s4.06,6.268,4.679,7.641c0.619,1.373-12.089,42.876-12.089,42.876l-29.334-17.626
	L225.559,154.41z"/>
<g>
	<defs>
		<path id="SVGID_43_" d="M225.559,154.41c0,0,4.954-2.959,6.262-7.156c1.307-4.197,3.509-14.794,5.849-17.34
			c2.34-2.546,5.78-7.156,6.675-9.84c0.895-2.684,2.271-5.986,2.821-7.638c0.551-1.651,2.408-6.262,2.615-8.464
			c0.206-2.202,0.413-5.436,1.17-5.574c0.757-0.138,5.092,9.978,5.436,13.005c0.344,3.028,1.927,7.294,3.716,9.496
			c1.789,2.202,2.271,7.156,3.028,9.221s4.06,6.268,4.679,7.641c0.619,1.373-12.089,42.876-12.089,42.876l-29.334-17.626
			L225.559,154.41z"/>
	</defs>
	<use xlink:href="#SVGID_43_"  overflow="visible" fill="#2C5E5E"/>
	<clipPath id="SVGID_44_">
		<use xlink:href="#SVGID_43_"  overflow="visible"/>
	</clipPath>
	<path clip-path="url(#SVGID_44_)" fill="#214443" d="M250.522,95.57c0,0,4.615,8.015,2.793,14.208
		c-1.822,6.193-4.129,8.865-2.186,13.479c1.943,4.615,3.157,7.165,1.093,12.022c-2.064,4.857-4.615,9.715,0.971,15.422
		c5.586,5.708,16.637-10.808,16.637-10.808l-2.004-22.587l-13.904-25.618L250.522,95.57z"/>
</g>
<g>
	<defs>
		<path id="SVGID_45_" d="M265.191,137.558c0,0,6.468-9.125,9.395-13.352s4.633-6.584,5.934-9.429
			c1.301-2.845,1.87-6.584,3.17-9.185c1.301-2.601,7.411-12.665,8.936-15.591c1.525-2.926,2.77-8.714,4.314-11.559
			s3.489-6.58,4.552-8.698c1.055-2.103,5.853,3.983,6.259,7.316c0.406,3.333,2.11,7.241,4.062,9.378
			c1.948,2.134,6.029,8.31,6.83,10.618c1.263,3.639,1.788,5.69,2.52,9.023c0.731,3.333,2.079,7.375,5.9,10.046
			c2.466,1.724,2.473,4.748,3.855,6.943c1.382,2.195,1.301,4.552,3.983,7.072c2.682,2.52,5.202,8.616,5.934,12.193
			s-3.008,15.363-3.008,15.363l-15.526,11.949l-28.957-14.713l-19.896-17.171L265.191,137.558z"/>
	</defs>
	<use xlink:href="#SVGID_45_"  overflow="visible" fill="#46A391"/>
	<clipPath id="SVGID_46_">
		<use xlink:href="#SVGID_45_"  overflow="visible"/>
	</clipPath>
	<path clip-path="url(#SVGID_46_)" fill="#2C5E5E" d="M303.688,61.344c0,0-4.656,12.325,0.641,21.153
		c5.297,8.828,7.107,10.954,3.172,20.128c-4.244,9.892-5.78,14.868-1.862,20.112c3.917,5.244,4.953,9.513-0.962,14.589
		c-7.167,6.151-5.694,23.873,1.678,33.813c7.372,9.941,47.601-34.215,47.601-34.215l3.22-23.368c0,0-38.35-40.542-36.657-40.308
		C322.212,73.482,303.688,61.344,303.688,61.344z"/>
</g>
<path fill="#6DD1BD" d="M310.59,202.306c0,0,9.112-24.386,10.168-28.984c1.056-4.597,0.299-9.812,3.307-9.812
	c3.008,0,10.105-9.421,11.615-14.279c1.306-4.202,5.512-13.986,7.774-17.629s5.299-11.83,6.488-15.923
	c1.189-4.094,3.83-10.828,4.886-13.205c1.056-2.377,8.848-22.008,10.3-27.599c1.453-5.591,5.282-13.469,8.583-17.827
	c3.301-4.358,5.282-11.225,6.339-15.45c1.057-4.226,3.83-12.017,4.622-13.734c0.792-1.717,2.641-4.094,4.49,2.773
	c1.849,6.867,3.566,11.753,4.358,14.922s0.924,4.757,1.453,10.432c0.528,5.675,3.962,11.885,6.471,14.394
	c2.509,2.509,6.207,10.564,7.131,14.262c0.924,3.698,3.697,7.395,5.546,10.036c1.849,2.641,3.829,7.131,4.49,11.489
	c0.66,4.358,1.056,10.696,3.037,13.998c1.981,3.301,7.659,7.549,8.716,11.434c1.056,3.885,2.773,9.156,2.905,13.393
	c0.132,4.236,1.849,14.507,3.698,18.016c1.849,3.509,4.874,9.644,5.942,14.469c1.792,8.093,7.251,10.455,7.251,18.033
	c0,9.187-0.159,37.342-0.159,37.342v25.045L310.59,202.306z"/>
<g>
	<defs>
		<path id="SVGID_47_" d="M310.59,202.306c0,0,9.112-24.386,10.168-28.984c1.056-4.597,0.299-9.812,3.307-9.812
			c3.008,0,10.105-9.421,11.615-14.279c1.306-4.202,5.512-13.986,7.774-17.629s5.299-11.83,6.488-15.923
			c1.189-4.094,3.83-10.828,4.886-13.205c1.056-2.377,8.848-22.008,10.3-27.599c1.453-5.591,5.282-13.469,8.583-17.827
			c3.301-4.358,5.282-11.225,6.339-15.45c1.057-4.226,3.83-12.017,4.622-13.734c0.792-1.717,2.641-4.094,4.49,2.773
			c1.849,6.867,3.566,11.753,4.358,14.922s0.924,4.757,1.453,10.432c0.528,5.675,3.962,11.885,6.471,14.394
			c2.509,2.509,6.207,10.564,7.131,14.262c0.924,3.698,3.697,7.395,5.546,10.036c1.849,2.641,3.829,7.131,4.49,11.489
			c0.66,4.358,1.056,10.696,3.037,13.998c1.981,3.301,7.175,6.778,9.353,10.165c1.971,3.064,2.136,10.425,2.268,14.662
			c0.132,4.236,1.849,14.507,3.698,18.016c1.849,3.509,4.874,9.644,5.942,14.469c1.792,8.093,7.251,10.455,7.251,18.033
			c0,9.187-0.159,37.342-0.159,37.342v25.045L310.59,202.306z"/>
	</defs>
	<use xlink:href="#SVGID_47_"  overflow="visible" fill="#6DD1BD"/>
	<clipPath id="SVGID_48_">
		<use xlink:href="#SVGID_47_"  overflow="visible"/>
	</clipPath>
	<path clip-path="url(#SVGID_48_)" fill="#46A391" d="M385.5,21.125c0,0,2.259,16.771-0.375,28.875
		c-2.694,12.376-7.632,13.113-0.75,23.75c6.882,10.637,10.675,23.093,7.5,35c-3.175,11.907,7.818,21.231,13.375,28.375
		c5.557,7.144,5.564,20.259,3.5,32.52c-2.064,12.261-6.866,17.308,0.75,32.605c8.12,16.309,30.423,55.651,30.423,55.651h19.369
		l5.557-84.578l-19.527-104.04L393.247,20.48L385.5,21.125z"/>
</g>
<path fill="#9A43A4" d="M172.318,149.667c0,0,2.673-16.351,5.069-21.091c2.396-4.739,5.121-10.19,6.069-15.64
	c0.948-5.45,4.503-14.811,5.332-17.299c0.829-2.488,2.205,1.777,3.887,6.754c1.682,4.976,4.644,10.545,4.407,14.1
	c-0.237,3.555,1.029,5.936,2.844,9.242c2.56,4.665,3.673,10.19,3.673,13.745s0.355,8.176,4.265,12.441
	c3.91,4.266,0.592,11.375,0.592,11.375l-20.972,8.65l-12.56-14.929L172.318,149.667z"/>
<g>
	<defs>
		<path id="SVGID_49_" d="M172.318,149.667c0,0,2.673-16.351,5.069-21.091c2.396-4.739,5.121-10.19,6.069-15.64
			c0.948-5.45,4.503-14.811,5.332-17.299c0.829-2.488,2.205,1.777,3.887,6.754c1.682,4.976,4.644,10.545,4.407,14.1
			c-0.237,3.555,1.029,5.936,2.844,9.242c2.56,4.665,3.673,10.19,3.673,13.745s0.355,8.176,4.265,12.441
			c3.91,4.266,0.592,11.375,0.592,11.375l-20.972,8.65l-12.56-14.929L172.318,149.667z"/>
	</defs>
	<use xlink:href="#SVGID_49_"  overflow="visible" fill="#2C5E5E"/>
	<clipPath id="SVGID_50_">
		<use xlink:href="#SVGID_49_"  overflow="visible"/>
	</clipPath>
	<path clip-path="url(#SVGID_50_)" fill="#214443" d="M189.188,90.465c0,0,3.486,11.844,3.486,17.356
		c0,5.512-3.218,8.091-1.609,13.369c1.609,5.277,8.476,10.085,5.043,16.183c-3.433,6.098-13.219,15.124-8.326,20.522
		c4.893,5.398,11.258,13.017,11.258,13.017l-13.369,8.443l-19.818-28.379l6.465-32.249L189.188,90.465z"/>
</g>
<path fill="#C891C8" d="M116.591,136.26c0,0,8.176-18.958,11.493-25.001c3.318-6.043,4.147-11.849,5.095-17.299
	c0.948-5.45,1.777-9.361,3.792-13.745c2.014-4.384,4.572-10.098,4.572-10.098c1.442-3.265,4.209,2.026,5.157,7.95
	c0.948,5.924,2.52,9.188,5.039,13.622c2.131,3.75,7.27,12.698,9.166,19.452c1.896,6.754,4.739,17.457,8.413,22.039
	c3.673,4.582,16.983,24.639,18.095,32.104c1.111,7.465-57.671-0.075-57.671-0.075l-10.543-9.28L116.591,136.26z"/>
<g>
	<defs>
		<path id="SVGID_51_" d="M116.591,136.26c0,0,8.176-18.958,11.493-25.001c3.318-6.043,4.147-11.849,5.095-17.299
			c0.948-5.45,1.777-9.361,3.792-13.745c2.014-4.384,4.572-10.098,4.572-10.098c1.442-3.265,4.209,2.026,5.157,7.95
			c0.948,5.924,2.52,9.188,5.039,13.622c2.131,3.75,7.27,12.698,9.166,19.452c1.896,6.754,4.739,17.457,8.413,22.039
			c3.673,4.582,16.983,24.639,18.095,32.104c1.111,7.465-57.671-0.075-57.671-0.075l-10.543-9.28L116.591,136.26z"/>
	</defs>
	<use xlink:href="#SVGID_51_"  overflow="visible" fill="#46A391"/>
	<clipPath id="SVGID_52_">
		<use xlink:href="#SVGID_51_"  overflow="visible"/>
	</clipPath>
	<path clip-path="url(#SVGID_52_)" fill="#2C5E5E" d="M152.171,88.627c0,0-7.859,5.686-5.853,13.378
		c2.007,7.692,7.023,12.207,0.502,19.063c-6.522,6.856-12.876,8.135-12.207,16.693c0.669,8.558-2.714,22.148-10.368,25.25
		c-7.654,3.102-17.558-29.568-17.558-29.568l26.755-68.393l11.873-8.863L152.171,88.627z"/>
</g>
<path fill="#C5F0FF" d="M-0.096,176.521c0,0,9.939-9.618,11.08-16.893c1.141-7.275,3.424-15.121,7.418-18.973
	c3.994-3.852,7.133-10.128,7.989-15.406c0.856-5.278,5.278-16.12,9.7-20.827c4.422-4.707,9.558-13.695,11.84-19.686
	c2.282-5.991,5.563-10.882,9.13-16.976c3.566-6.094,6.277-10.842,7.703-16.976c1.427-6.134,0.428-10.271,3.281-15.121
	c2.853-4.85,4.137-6.419,6.277-11.269c2.14-4.85,2.568-5.849,3.852-6.419c1.284-0.571,2.282-0.428,3.281,4.137
	c0.999,4.565,4.422,11.697,4.28,15.549c-0.143,3.852,0.045,10.746,2.613,15.311c2.568,4.565,5.804,10.652,7.23,17.642
	c1.427,6.99,5.438,12.66,7.133,18.26c1.589,5.249,3.709,12.981,5.991,19.543c2.282,6.562,3.994,12.696,7.133,18.545
	c3.138,5.849,7.133,10.984,7.418,15.692c0.285,4.708,1.141,8.844,4.708,15.406c3.566,6.562,4.565,7.846,6.134,14.265
	c1.569,6.419,7.988,25.392,9.272,33.095c1.284,7.703-96.861,31.526-96.861,31.526l-46.601,1.822V176.521z"/>
<g>
	<defs>
		<path id="SVGID_53_" d="M-0.096,176.521c0,0,9.939-9.618,11.08-16.893c1.141-7.275,3.424-15.121,7.418-18.973
			c3.994-3.852,7.133-10.128,7.989-15.406c0.856-5.278,5.278-16.12,9.7-20.827c4.422-4.707,9.558-13.695,11.84-19.686
			c2.282-5.991,5.563-10.882,9.13-16.976c3.566-6.094,6.277-10.842,7.703-16.976c1.427-6.134,0.428-10.271,3.281-15.121
			c2.853-4.85,4.137-6.419,6.277-11.269c2.14-4.85,2.568-5.849,3.852-6.419c1.284-0.571,2.282-0.428,3.281,4.137
			c0.999,4.565,4.422,11.697,4.28,15.549c-0.143,3.852,0.045,10.746,2.613,15.311c2.568,4.565,5.804,10.652,7.23,17.642
			c1.427,6.99,5.438,12.66,7.133,18.26c1.589,5.249,3.709,12.981,5.991,19.543c2.282,6.562,3.994,12.696,7.133,18.545
			c3.138,5.849,7.133,10.984,7.418,15.692c0.285,4.708,1.141,8.844,4.708,15.406c3.566,6.562,4.565,7.846,6.134,14.265
			c1.569,6.419,7.988,25.392,9.272,33.095c1.284,7.703-96.861,31.526-96.861,31.526l-46.601,1.822V176.521z"/>
	</defs>
	<use xlink:href="#SVGID_53_"  overflow="visible" fill="#6DD1BD"/>
	<clipPath id="SVGID_54_">
		<use xlink:href="#SVGID_53_"  overflow="visible"/>
	</clipPath>
	<path clip-path="url(#SVGID_54_)" fill="#46A391" d="M79.069,11.555c0,0-3.013-2.887-0.565,5.199
		c2.448,8.086-2.532,20.844-4.209,25.641c-3.795,10.854,0.402,20.858,3.2,28.17c2.798,7.312,3.847,19.295-2.623,26.448
		c-6.469,7.154-18.534,6.543-24.129,18.313c-5.595,11.77-3.187,17.477,0.175,27.285c3.361,9.808-3.672,16.797-12.414,24.448
		s-11.715,16.033-6.994,28.695c4.721,12.662-6.753,39.205-21.441,47.943c-14.688,8.738-29.266-31.001-29.266-31.001l9.894-52.608
		l49.031-90.772L79.069,11.555z"/>
</g>
<path fill="#285C7F" d="M216.311,175.532c0,0-18.035,0.819-24.7-7.83c-6.666-8.65-13.611-21.028-30.964-21.962
	c-13.156-0.708-24.728,6.707-30.906,19.469c-6.178,12.762-9.535,32.5-9.535,32.5l81.311,4.81L216.311,175.532z"/>
<path fill="#3B72AA" d="M-11.096,217.192c0,0,14.012-37.89,44.795-16.849c24.605,16.819,37.004-27.99,62.129-38.349
	c13.213-5.448,24.463,2.675,30.213,20.567c5.502,17.121,29.33,17.155,36.575,16.011c7.245-1.144,9.702,20.276,9.702,20.276
	L143.06,293H-0.096L-11.096,217.192z"/>
<circle fill="#FFFFFF" cx="267.066" cy="40.072" r="26.616"/>
<path fill="#203760" d="M-0.096,293c0,0,0.629-10.766,0.318-36.767c-0.318-26.55,40.669-41.301,53.203-11.507
	c12.265,29.154,7.109,45.479,68.689,44.532c36.41-0.56,10.477,3.742,10.477,3.742l-132.687,0.273V293z"/>
<path fill="#203760" d="M234.566,168.725c0,0,7.667-4.714,11.65-20.54c2.037-8.095,10.38-16.501,21.61-16.582
	c11.23-0.081,22.366,12.518,24.642,21.541c2.276,9.023-20.972,36.294-20.972,36.294l-25.516,17.518L234.566,168.725z"/>
<path fill="#3B72AA" d="M242.106,194.774c0,0,19.055-3.718,25.72-12.367c6.665-8.649,14.114-28.219,26.952-31.175
	c15.21-3.502,27.847,5.651,34.025,18.413c6.178,12.762,9.365,30.031,9.365,30.031l-81.141,7.28L242.106,194.774z"/>
<path fill="#73C4E2" d="M310.59,202.306c0,0,19.859-51.169,60.185-41.985c26.918,6.131,33.686,30.281,46.165,53.575
	c16.636,31.053,25.166,32.162,33.06,35.163c0.358,0.136,0,43.94,0,43.94l-55.973,0.275l-41.972-12.529l-55.473-40.633
	L310.59,202.306z"/>
<path fill="#C5F0FF" d="M182.962,197.717c0,0-8.484-0.008-16.358-0.008c-21.254,0-53.724-0.713-53.331,9.246
	c0.435,11.026,32.507,5.036,32.507,17.615c0,15.328-65.897-0.093-65.897,15.639s52.878,5.848,53.455,17.69
	c0.672,13.794-32.132,11.204-34.633,20.511c-3.944,14.676,64.578,14.589,64.578,14.589l16.577-71.664L182.962,197.717z"/>
<g>
	<defs>
		<path id="SVGID_55_" d="M182.962,197.717c0,0-8.484-0.008-16.358-0.008c-21.254,0-53.724-0.713-53.331,9.246
			c0.435,11.026,32.507,5.036,32.507,17.615c0,15.328-65.897-0.093-65.897,15.639s52.878,5.848,53.455,17.69
			c0.672,13.794-32.132,11.204-34.633,20.511c-3.944,14.676,64.578,14.589,64.578,14.589l16.577-71.664L182.962,197.717z"/>
	</defs>
	<clipPath id="SVGID_56_">
		<use xlink:href="#SVGID_55_"  overflow="visible"/>
	</clipPath>
</g>
<path fill="#C5F0FF" d="M179.844,197.981c0,0,89.331,0.005,99.796,0c24.095-0.011,62.884-0.383,62.884,12.05
	c0,12.433-38.019,8.704-37.002,19.205c0.764,7.889,11.791,11.175,25.076,11.149c8.05-0.016,39.391-1.905,39.391,7.892
	c0,9.9-13.408,10.117-11.217,20.181c2.19,10.063,29.789,24.814,45.689,24.814l-89.516,0.001L179.844,197.981z"/>
<g>
	<defs>
		<path id="SVGID_57_" d="M179.844,197.981c0,0,89.331,0.005,99.796,0c24.095-0.011,62.884-0.383,62.884,12.05
			c0,12.433-38.019,8.704-37.002,19.205c0.764,7.889,11.791,11.175,25.076,11.149c8.05-0.016,39.391-1.905,39.391,7.892
			c0,9.9-13.408,10.117-11.217,20.181c2.19,10.063,29.789,24.814,45.689,24.814l-89.516,0.001L179.844,197.981z"/>
	</defs>
	<clipPath id="SVGID_58_">
		<use xlink:href="#SVGID_57_"  overflow="visible"/>
	</clipPath>
</g>
<path fill="#ED7129" d="M75.261,293.273c0,0,60.828,1.197,79.113-47.215c18.261-48.349,17.944-98.543,68.474-96.754
	c38.451,1.362,43.694,41.337,54.492,74.997c19.243,59.985,57.271,67.05,109.667,68.7L233.293,293L75.261,293.273z"/>
<g>
	<defs>
		<path id="SVGID_59_" d="M75.261,293.273c0,0,60.828,1.197,79.113-47.215c18.261-48.349,17.944-98.543,68.474-96.754
			c38.451,1.362,43.694,41.337,54.492,74.997c19.243,59.985,57.271,67.05,109.667,68.7L233.293,293L75.261,293.273z"/>
	</defs>
	<clipPath id="SVGID_60_">
		<use xlink:href="#SVGID_59_"  overflow="visible"/>
	</clipPath>
	<path opacity="0.2" clip-path="url(#SVGID_60_)" fill="#FFFFFF" d="M184.429,165.687c0,0,30.24,13.979,71.976,2.894
		c0,0,26.529,6.928,6.048,10.417c-57.319,9.765-81.335-9.354-81.335-9.354C177.829,161.657,184.429,165.687,184.429,165.687z"/>
	<path opacity="0.2" clip-path="url(#SVGID_60_)" fill="#FFFFFF" d="M268.908,192.155c0,0-41.736,29.409-97.78-3.718
		c-56.044-33.127-9.861,15.998-9.861,15.998s70.265,29.654,109.687-4.821S268.908,192.155,268.908,192.155z"/>
	<path opacity="0.2" clip-path="url(#SVGID_60_)" fill="#FFFFFF" d="M161.396,224.49c0,0,59.608,29.798,119.085-2.121l4.984,28.737
		c0,0-19.18,2.044-43.359,7.847c-42.417,10.18-86.225-20.187-86.225-20.187L161.396,224.49z"/>
</g>
<g opacity="0.1293" enable-background="new    ">
	<g>
		<defs>
			
				<rect id="SVGID_61_" x="207.592" y="151.035" transform="matrix(-1 0.0066 -0.0066 -1 436.1924 305.6306)" width="20" height="5"/>
		</defs>
		<clipPath id="SVGID_62_">
			<use xlink:href="#SVGID_61_"  overflow="visible"/>
		</clipPath>
		<g clip-path="url(#SVGID_62_)">
			<defs>
				
					<rect id="SVGID_63_" x="207.592" y="151.035" transform="matrix(-1 0.0066 -0.0066 -1 436.1924 305.6306)" width="20" height="5"/>
			</defs>
			<clipPath id="SVGID_64_">
				<use xlink:href="#SVGID_63_"  overflow="visible"/>
			</clipPath>
			
				<ellipse transform="matrix(0.0066 1 -1 0.0066 370.1523 -65.4686)" opacity="0.3" clip-path="url(#SVGID_64_)" cx="218.027" cy="153.568" rx="1.854" ry="9.565"/>
		</g>
	</g>
</g>
<path fill="#285C7F" d="M305.333,282.833c0,0,28.414,11.324,42.97-7.864c11.712-15.439,7.751-48.446,36.475-47.558
	c17.66,0.546,23.814,16.727,28.191,32.729c8.99,32.861,36.095,32.856,36.095,32.856h-116.52L305.333,282.833z"/>
<ellipse cx="221.506" cy="140.087" rx="0.327" ry="0.204"/>
<path fill="#FBC24D" d="M339.286,289.389c0,0,2.509-5.488-1.224-8.534c-3.733-3.046-8.665-1.77-11.909-2.201
	c-3.244-0.431-11.768-0.782-10.931-7.679c0.619-5.099,6.744-7.463,12.394-4.209c5.65,3.254,10.678,3.483,11.55,0.516
	c0.871-2.967-3.872-6.799-8.316-8.066c-4.444-1.267-12.858-3.501-11.724-8.715c1.25-5.75,8.958-3.732,12.861,0.503
	c2.616,2.839,6.463,5.007,8.006,3.667c2.039-1.77,1.653-4.051,1.368-8.061c-0.285-4.01,0.228-13.852,5.988-12.701
	c4.505,0.901,6.43,7.416,2.794,13.359c-2.346,3.834-3.416,7.487-0.879,8.916c2.537,1.428,6.432-1.682,9.807-3.744
	c4.208-2.571,9.28-1.775,9.526,2.821c0.204,3.819-4.429,8.034-13.721,8.63c-5.203,0.334-7.316,4.35-5.284,6.676
	c2.032,2.326,6.362,1.732,10.016,0.917c3.655-0.814,10.569,0.258,11.539,4.535c1.272,5.611-5.862,9.121-13.202,7.967
	C352.471,283.124,343.333,281.425,339.286,289.389z"/>
<path fill="none" stroke="#391869" stroke-width="1.7008" stroke-linecap="round" stroke-miterlimit="10" d="M344.827,258.069
	c0,0,0.556,17.691-5.646,32.291"/>
<g>
	<path fill="#46A391" d="M213.61,149.25c0,0-0.671,3.978,0.388,4.12c1.059,0.142,3.025,0.222,3.636,0.117
		c2.803-0.482,0.326-3.137,0.326-3.137L213.61,149.25z"/>
	<path fill="#6DD1BD" d="M217.419,148.368c0,0-1.289,5.376,0.228,5.539c1.323,0.142,5.534,0.18,6.261,0.226
		c0.78,0.05,1.035-0.422-1.132-1.278s-2.623-1.118-2.077-3.577C221.244,146.819,217.419,148.368,217.419,148.368z"/>
	<path d="M225.895,74.992c0,0-0.183-3.157-4.427-3.066c-4.374,0.094-5.744,2.858-5.565,5.571c0.179,2.713,0.981,5.019,3.606,5.872
		c2.625,0.853,4.932-2.583,4.932-2.583l0.761-3.684L225.895,74.992z"/>
	<path fill="#214443" d="M213.874,112.177l-2.114,38.238l5.763,0.361l0.103-0.874l4.76,0.881c0,0,8.177-13.502,8.871-17.253
		c0.683-3.69-2.048-16.988-2.529-20.232L213.874,112.177z"/>
	<path fill="#FFFFFF" d="M218.87,85.739c-0.118-0.087,0.456-0.815,0.639-2.369c0,0,2.631,0.259,3.218-1.619
		c0.587-1.879,0.307-2.217-0.285-2.456c-0.591-0.238-0.481-0.986,0.242-0.979c0.723,0.007,0.296-1.21,0.587-1.853
		c0.291-0.643,1.941-0.187,2.623-1.471c0,0,0.782,6.799-0.279,7.072c-1.061,0.272-2.256-0.047-2.455,0.795
		c-0.157,0.662-0.148,0.936,0.021,2.696C223.181,85.556,222.514,88.436,218.87,85.739z"/>
	<path fill="#FFFFFF" d="M227.706,79.659c0,0-0.52-0.573-1.18-1.071c-0.659-0.497-3.566-1.947-1.345-2.054
		c2.222-0.106,2.717-0.58,3.399,0.867c0.682,1.447,0.852,2.507,0.852,2.507l-1.271,0.607L227.706,79.659z"/>
	<path fill="#46A391" d="M218.861,85.644c0,0-2.66,0.3-7.127,3.409c-4.779,3.326-7.501,5.069-7.97,7.174
		c-0.644,2.894,4.014,9.159,5.644,11.774l3.803-3.06c0,0-2.579-4.388-3.442-6.108c-0.315-0.626,0.892-1.347,3.289-3.025
		c1.123-0.786,0.921-0.582,0.879,2.382c-0.025,1.807-0.973,15.306-0.973,15.306l16.733,0.451c0,0-1.027-17.502-0.684-17.962
		c0,0,6.767,1.731,8.434,0.898c1.067-0.534,1.584-2.809-0.083-7.833c-1.337-4.029-6.737-11.334-6.737-11.334l-4.123,3.016
		c0,0,6.797,10.092,6.496,10.435c-0.41,0.467-4.138-2.883-5.914-4.045c-2.063-1.35-3.905-1.566-3.905-1.566
		S220.636,86.901,218.861,85.644z"/>
	<path fill="#FFFFFF" d="M211.763,108.539c0.241,1.342,0.798,4.808,1.082,4.259c0.283-0.549,0.106-2.694,0.403-3.568
		c0.281-0.827,0.475-0.539,1.003,0.049c0.528,0.588,0.077-1.225-0.765-2.314c-0.32-0.414-0.345-0.448-1.036-1.38
		c-0.007-0.009-1.47,1.152-1.47,1.152S211.522,107.197,211.763,108.539z"/>
</g>
<g>
	<path fill="#D86227" d="M70.378,299.629c0,0-3.876-33.17,17.644-59.909c0,0,7.255,28.515-2.189,50.022L70.378,299.629z"/>
	<g>
		<defs>
			<path id="SVGID_65_" d="M70.378,299.629c0,0-3.876-33.17,17.644-59.909c0,0,7.255,28.515-2.189,50.022L70.378,299.629z"/>
		</defs>
		<use xlink:href="#SVGID_65_"  overflow="visible" fill="#2C5E5E"/>
		<clipPath id="SVGID_66_">
			<use xlink:href="#SVGID_65_"  overflow="visible"/>
		</clipPath>
		<path clip-path="url(#SVGID_66_)" fill="#46A391" d="M88.022,239.72c0,0-9.717,48.416-9.835,56.978L69.945,301l-3.574-12.001
			l4.003-24.359l9.941-20.282L88.022,239.72z"/>
	</g>
	<path fill="#D86227" d="M86.806,298.316c0,0-10.764-40.775-48.406-62.263c0,0,4.642,36.865,25.675,57.781L86.806,298.316z"/>
	<g>
		<defs>
			<path id="SVGID_67_" d="M86.806,298.316c0,0-10.764-40.775-48.406-62.263c0,0,4.642,36.865,25.675,57.781L86.806,298.316z"/>
		</defs>
		<use xlink:href="#SVGID_67_"  overflow="visible" fill="#2C5E5E"/>
		<clipPath id="SVGID_68_">
			<use xlink:href="#SVGID_67_"  overflow="visible"/>
		</clipPath>
		<path clip-path="url(#SVGID_68_)" fill="#46A391" d="M38.4,236.052c0,0,33.781,52.416,37.874,62.424l11.674,1.25l-1.342-15.756
			l-15.955-26.78L49.6,237.945L38.4,236.052z"/>
	</g>
	<g>
		<defs>
			<path id="SVGID_69_" d="M75.04,292.447c0,0,6.554-21.919,27.34-32.907c0,0-3.165,19.906-14.937,30.876L75.04,292.447z"/>
		</defs>
		<use xlink:href="#SVGID_69_"  overflow="visible" fill="#2C5E5E"/>
		<clipPath id="SVGID_70_">
			<use xlink:href="#SVGID_69_"  overflow="visible"/>
		</clipPath>
		<path clip-path="url(#SVGID_70_)" fill="#46A391" d="M102.381,259.54c0,0-19.238,27.825-21.633,33.179l-6.351,0.472l1.005-8.519
			l9.122-14.239l11.752-10.065L102.381,259.54z"/>
	</g>
</g>
<path fill="#73C4E2" d="M267.83,287.269c0,0-39.573,3.229-53.888-12.237c-17.592-19.006-20.697-46.356-52.546-50.541
	c-32.387-4.256-48.714,18.226-60.636,42.855c-11.922,24.629-35.262,25.93-35.262,25.93h179.956L267.83,287.269z"/>
<path fill="#FBC24D" d="M210.637,288.888c-4.123,0.186-6.406-4.575-2.839-7.594c3.568-3.019,7.003-4.465,4.689-7.727
	c-1.777-2.505-5.609,0.186-8.674,1.311c-4.274,1.568-8.493-2.796-6.795-6.883c1.373-3.306,6.09-2.12,9.768-3.074
	c3.677-0.954,2.51-4.021,0.137-6.342c-2.374-2.321-4.922-8.173,0.401-10.247c5.323-2.074,6.776,3.499,7.255,6.319
	c0.478,2.82,3.225,5.581,5.928,2.202c2.703-3.378,5.493-6.52,8.641-4.12c3.175,2.42-0.981,6.767-3.398,9.35
	c-3.025,3.233,0.473,8.092,3.73,5.931c3.258-2.161,7.086-3.368,9.368,0.238c4.27,6.747-9.673,9.09-14.713,11.116
	C218.957,281.449,214.775,288.702,210.637,288.888z"/>
<path fill="none" stroke="#391869" stroke-width="1.4173" stroke-linecap="round" d="M216.82,267.703c0,0,6.811,9.111,12.328,23.243
	"/>
<path fill="#3B72AA" d="M356.055,292.722c0,0-31.57,1.21-41.746-29.596c-7.073-21.414-13.541-42.309-37.885-42.658
	c-26.302-0.377-36.774,24.2-42.56,43.189c-4.955,16.261-6.268,18.395-11.719,29.061c-0.002,0.004,8.365,0.279,32.009,0.279
	c33.974,0,55.733-0.279,55.733-0.279L356.055,292.722z"/>
<circle fill="#FFFFFF" cx="149.039" cy="156.536" r="1.596"/>
<circle fill="#FFFFFF" cx="170.721" cy="159.729" r="1.596"/>
<circle fill="#FFFFFF" cx="173.914" cy="171.943" r="1.596"/>
<circle fill="#FFFFFF" cx="155.576" cy="170.346" r="1.596"/>
<circle fill="#FFFFFF" cx="139.407" cy="183.399" r="1.596"/>
<circle fill="#FFFFFF" cx="141.003" cy="168.048" r="1.596"/>
<circle fill="#FFFFFF" cx="164.417" cy="184.995" r="1.596"/>
<circle fill="#FFFFFF" cx="152.383" cy="190.691" r="1.596"/>
<ellipse fill="#FFFFFF" cx="261.845" cy="137.532" rx="0.358" ry="0.374"/>
<ellipse fill="#FFFFFF" cx="259.524" cy="145.319" rx="0.358" ry="0.374"/>
<ellipse fill="#FFFFFF" cx="272.353" cy="147.875" rx="0.358" ry="0.374"/>
<ellipse transform="matrix(-0.9422 -0.3351 0.3351 -0.9422 439.23 395.7153)" fill="#FFFFFF" cx="253.757" cy="159.961" rx="0.374" ry="0.359"/>
<ellipse transform="matrix(-0.9422 -0.3351 0.3351 -0.9422 491.2009 366.063)" fill="#FFFFFF" cx="277.184" cy="140.652" rx="0.374" ry="0.358"/>
<ellipse transform="matrix(-0.9422 -0.3351 0.3351 -0.9422 441.4795 374.0649)" fill="#FFFFFF" cx="253.012" cy="148.944" rx="0.374" ry="0.359"/>
<ellipse transform="matrix(-0.9422 -0.3352 0.3352 -0.9422 462.6236 423.0001)" fill="#FFFFFF" cx="267.811" cy="171.582" rx="0.374" ry="0.358"/>
<ellipse transform="matrix(-0.9422 -0.3351 0.3351 -0.9422 466.6457 391.1171)" fill="#FFFFFF" cx="267.066" cy="155.3" rx="0.374" ry="0.358"/>
<ellipse transform="matrix(-0.9422 -0.3352 0.3352 -0.9422 498.8412 383.9749)" fill="#FFFFFF" cx="282.553" cy="148.944" rx="0.374" ry="0.359"/>
<ellipse transform="matrix(-0.9422 -0.3351 0.3351 -0.9422 457.0314 406.6034)" fill="#FFFFFF" cx="263.596" cy="163.871" rx="0.374" ry="0.359"/>
<ellipse transform="matrix(-0.9422 -0.335 0.335 -0.9422 483.8477 396.5388)" fill="#FFFFFF" cx="276.127" cy="156.536" rx="0.374" ry="0.358"/>
<circle fill="#FFFFFF" cx="16.186" cy="260.762" r="2.021"/>
<circle fill="#FFFFFF" cx="33.559" cy="273.011" r="2.021"/>
<circle fill="#FFFFFF" cx="18.098" cy="282.763" r="2.021"/>
<circle fill="#FFFFFF" cx="20.227" cy="242.647" r="2.021"/>
<g>
	<path fill="#6DD1BD" d="M418.405,301.116c0,0-2.864-40.338-34.493-67.3c0,0-2.206,35.561,13.878,59.02L418.405,301.116z"/>
	<g>
		<defs>
			<path id="SVGID_71_" d="M418.405,301.116c0,0-2.864-40.338-34.493-67.3c0,0-2.206,35.561,13.878,59.02L418.405,301.116z"/>
		</defs>
		<clipPath id="SVGID_72_">
			<use xlink:href="#SVGID_71_"  overflow="visible"/>
		</clipPath>
		<path clip-path="url(#SVGID_72_)" fill="#2C5E5E" d="M383.912,233.815c0,0,22.472,55.412,24.543,65.572l10.775,3.261l1.548-15.084
			l-10.253-28.078l-16.399-21.89L383.912,233.815z"/>
	</g>
	<path fill="#3B72AA" d="M398.565,303.255c0,0,3.617-50.938,43.558-84.986c0,0,2.785,44.906-17.525,74.531L398.565,303.255z"/>
	<g>
		<defs>
			<path id="SVGID_73_" d="M398.565,303.255c0,0,3.617-50.938,43.558-84.986c0,0,2.785,44.906-17.525,74.531L398.565,303.255z"/>
		</defs>
		<use xlink:href="#SVGID_73_"  overflow="visible" fill="#6DD1BD"/>
		<clipPath id="SVGID_74_">
			<use xlink:href="#SVGID_73_"  overflow="visible"/>
		</clipPath>
		<path clip-path="url(#SVGID_74_)" fill="#2C5E5E" d="M442.123,218.269c0,0-28.378,69.974-30.992,82.804l-13.607,4.118
			l-1.954-19.047l12.947-35.457l20.708-27.642L442.123,218.269z"/>
	</g>
	<path fill="#6DD1BD" d="M411.24,293.621c0,0-12.737-24.6-39.944-32.989c0,0,8.252,22.97,24.73,33.369L411.24,293.621z"/>
	<g>
		<defs>
			<path id="SVGID_75_" d="M411.24,293.621c0,0-12.737-24.6-39.944-32.989c0,0,8.252,22.97,24.73,33.369L411.24,293.621z"/>
		</defs>
		<use xlink:href="#SVGID_75_"  overflow="visible" fill="#6DD1BD"/>
		<clipPath id="SVGID_76_">
			<use xlink:href="#SVGID_75_"  overflow="visible"/>
		</clipPath>
		<path clip-path="url(#SVGID_76_)" fill="#2C5E5E" d="M371.296,260.632c0,0,29.159,28.769,33.216,34.599l7.663-0.869l-3.115-9.909
			l-14.061-14.885l-16.251-9.326L371.296,260.632z"/>
	</g>
</g>
</svg>
