<svg xmlns="http://www.w3.org/2000/svg" xmlns:xlink="http://www.w3.org/1999/xlink" viewBox="0 0 965.52 305.19"><defs><style>.cls-1,.cls-28,.cls-33{fill:none;}.cls-2,.cls-23,.cls-24,.cls-27{isolation:isolate;}.cls-3{clip-path:url(#clip-path);}.cls-23,.cls-4{fill:#fff;}.cls-5{fill:#c5f0ff;}.cls-6{fill:#9a43a4;}.cls-7{fill:#2c5e5e;}.cls-8{clip-path:url(#clip-path-3);}.cls-9{fill:#214443;}.cls-10{fill:#46a391;}.cls-11{clip-path:url(#clip-path-4);}.cls-12{fill:#6dd1bd;}.cls-13{clip-path:url(#clip-path-5);}.cls-14{clip-path:url(#clip-path-6);}.cls-15{fill:#c891c8;}.cls-16{clip-path:url(#clip-path-7);}.cls-17{clip-path:url(#clip-path-8);}.cls-18{fill:#ef8822;}.cls-19{fill:#ed7129;}.cls-20{fill:#d86227;}.cls-21{fill:#fbc24d;}.cls-22{clip-path:url(#clip-path-9);}.cls-23{opacity:0.2;}.cls-24{opacity:0.13;}.cls-25{clip-path:url(#clip-path-12);}.cls-26{clip-path:url(#clip-path-13);}.cls-27{opacity:0.3;}.cls-28,.cls-33{stroke:#391869;stroke-linecap:round;}.cls-28{stroke-miterlimit:10;stroke-width:1.7px;}.cls-29{clip-path:url(#clip-path-14);}.cls-30{clip-path:url(#clip-path-15);}.cls-31{fill:#f79034;}.cls-32{clip-path:url(#clip-path-16);}.cls-33{stroke-width:1.42px;}.cls-34{clip-path:url(#clip-path-17);}.cls-35{fill:#888;}.cls-36{clip-path:url(#clip-path-18);}.cls-37{clip-path:url(#clip-path-19);}.cls-38{clip-path:url(#clip-path-20);}.cls-39{fill:#f1fc86;}.cls-40{clip-path:url(#clip-path-22);}.cls-41{clip-path:url(#clip-path-23);}.cls-42{clip-path:url(#clip-path-24);}.cls-43{clip-path:url(#clip-path-25);}.cls-44{clip-path:url(#clip-path-26);}.cls-45{clip-path:url(#clip-path-27);}.cls-46{fill:#285c7f;}.cls-47{fill:#3b72aa;}.cls-48{fill:#203760;}.cls-49{fill:#73c4e2;}.cls-50{clip-path:url(#clip-path-28);}.cls-51{clip-path:url(#clip-path-31);}.cls-52{clip-path:url(#clip-path-32);}.cls-53{clip-path:url(#clip-path-33);}.cls-54{clip-path:url(#clip-path-34);}.cls-55{clip-path:url(#clip-path-35);}.cls-56{clip-path:url(#clip-path-36);}.cls-57{clip-path:url(#clip-path-37);}.cls-58{clip-path:url(#clip-path-38);}</style><clipPath id="clip-path"><rect class="cls-1" x="500.67" width="450" height="293"/></clipPath><clipPath id="clip-path-3"><path class="cls-1" d="M726.23,154.41s5-3,6.26-7.16,3.51-14.79,5.85-17.34,5.78-7.16,6.67-9.84,2.27-6,2.82-7.64,2.41-6.26,2.61-8.46.41-5.44,1.17-5.57,5.09,10,5.44,13a21.35,21.35,0,0,0,3.72,9.5c1.79,2.2,2.27,7.16,3,9.22s4.06,6.27,4.68,7.64-12.09,42.88-12.09,42.88L727.06,163Z"/></clipPath><clipPath id="clip-path-4"><path class="cls-1" d="M765.86,137.56s6.47-9.12,9.4-13.35,4.63-6.58,5.93-9.43,1.87-6.58,3.17-9.18S791.77,92.93,793.3,90s2.77-8.71,4.31-11.56,3.49-6.58,4.55-8.7,5.85,4,6.26,7.32a18.71,18.71,0,0,0,4.06,9.38c1.95,2.13,6,8.31,6.83,10.62a68.17,68.17,0,0,1,2.52,9c.73,3.33,2.08,7.38,5.9,10,2.47,1.72,2.47,4.75,3.85,6.94s1.3,4.55,4,7.07,5.2,8.62,5.93,12.19-3,15.36-3,15.36L823,169.65l-29-14.71-19.9-17.17Z"/></clipPath><clipPath id="clip-path-5"><path class="cls-1" d="M811.26,202.31s9.11-24.39,10.17-29,.3-9.81,3.31-9.81,10.1-9.42,11.61-14.28a112.67,112.67,0,0,1,7.77-17.63c2.26-3.64,5.3-11.83,6.49-15.92a139.29,139.29,0,0,1,4.89-13.21c1.06-2.38,8.85-22,10.3-27.6a59.72,59.72,0,0,1,8.58-17.83c3.3-4.36,5.28-11.23,6.34-15.45a125.51,125.51,0,0,1,4.62-13.73c.79-1.72,2.64-4.09,4.49,2.77s3.57,11.75,4.36,14.92.92,4.76,1.45,10.43a27.07,27.07,0,0,0,6.47,14.39c2.51,2.51,6.21,10.56,7.13,14.26s3.7,7.39,5.55,10a29.46,29.46,0,0,1,4.49,11.49c.66,4.36,1.06,10.7,3,14s7.17,6.78,9.35,10.16c2,3.06,2.14,10.43,2.27,14.66s1.85,14.51,3.7,18,4.87,9.64,5.94,14.47c1.79,8.09,7.25,10.46,7.25,18,0,9.19-.16,37.34-.16,37.34v25Z"/></clipPath><clipPath id="clip-path-6"><path class="cls-1" d="M673,149.67s2.67-16.35,5.07-21.09,5.12-10.19,6.07-15.64,4.5-14.81,5.33-17.3,2.21,1.78,3.89,6.75,4.64,10.54,4.41,14.1,1,5.94,2.84,9.24a31,31,0,0,1,3.67,13.74c0,3.55.36,8.18,4.27,12.44s.59,11.38.59,11.38l-21,8.65L675.6,157Z"/></clipPath><clipPath id="clip-path-7"><path class="cls-1" d="M617.26,136.26s8.18-19,11.49-25,4.15-11.85,5.09-17.3,1.78-9.36,3.79-13.75,4.57-10.1,4.57-10.1c1.44-3.26,4.21,2,5.16,7.95a35.64,35.64,0,0,0,5,13.62c2.13,3.75,7.27,12.7,9.17,19.45s4.74,17.46,8.41,22,17,24.64,18.09,32.1-57.67-.07-57.67-.07l-10.54-9.28Z"/></clipPath><clipPath id="clip-path-8"><path class="cls-1" d="M500.58,176.52s9.94-9.62,11.08-16.89,3.42-15.12,7.42-19a29.81,29.81,0,0,0,8-15.41c.86-5.28,5.28-16.12,9.7-20.83s9.56-13.69,11.84-19.69,5.56-10.88,9.13-17,6.28-10.84,7.7-17,.43-10.27,3.28-15.12,4.14-6.42,6.28-11.27,2.57-5.85,3.85-6.42,2.28-.43,3.28,4.14,4.42,11.7,4.28,15.55,0,10.75,2.61,15.31,5.8,10.65,7.23,17.64,5.44,12.66,7.13,18.26c1.59,5.25,3.71,13,6,19.54s4,12.7,7.13,18.54,7.13,11,7.42,15.69,1.14,8.84,4.71,15.41,4.57,7.85,6.13,14.26,8,25.39,9.27,33.1-96.86,31.53-96.86,31.53l-46.6,1.82V176.52Z"/></clipPath><clipPath id="clip-path-9"><path class="cls-1" d="M575.93,293.28s60.83,1.2,79.11-47.21,17.94-98.54,68.47-96.75c38.45,1.36,43.69,41.34,54.49,75,19.24,60,57.27,67,109.67,68.7H734Z"/></clipPath><clipPath id="clip-path-12"><rect class="cls-1" x="708.25" y="151.03" width="20" height="5" transform="translate(-1 4.74) rotate(-0.38)"/></clipPath><clipPath id="clip-path-13"><rect class="cls-1" x="716.23" y="143.13" width="5" height="20" transform="translate(-1.96 9.5) rotate(-0.76)"/></clipPath><clipPath id="clip-path-14"><path class="cls-1" d="M571.05,299.63s-3.88-33.17,17.64-59.91c0,0,7.26,28.51-2.19,50Z"/></clipPath><clipPath id="clip-path-15"><path class="cls-1" d="M587.48,298.32s-10.76-40.77-48.41-62.26c0,0,4.64,36.86,25.67,57.78Z"/></clipPath><clipPath id="clip-path-16"><path class="cls-1" d="M575.71,292.45s6.55-21.92,27.34-32.91c0,0-3.16,19.91-14.94,30.88Z"/></clipPath><clipPath id="clip-path-17"><path class="cls-1" d="M919.08,301.12s-2.86-40.34-34.49-67.3c0,0-2.21,35.56,13.88,59Z"/></clipPath><clipPath id="clip-path-18"><path class="cls-1" d="M899.24,303.26s3.62-50.94,43.56-85c0,0,2.78,44.91-17.53,74.53Z"/></clipPath><clipPath id="clip-path-19"><path class="cls-1" d="M911.91,293.62s-12.74-24.6-39.94-33c0,0,8.25,23,24.73,33.37Z"/></clipPath><clipPath id="clip-path-20"><rect class="cls-1" x="19.2" width="450" height="293"/></clipPath><clipPath id="clip-path-22"><path class="cls-1" d="M244.76,154.41s5-3,6.26-7.16,3.51-14.79,5.85-17.34,5.78-7.16,6.68-9.84,2.27-6,2.82-7.64,2.41-6.26,2.62-8.46.41-5.44,1.17-5.57,5.09,10,5.44,13a21.35,21.35,0,0,0,3.72,9.5c1.79,2.2,2.27,7.16,3,9.22s4.06,6.27,4.68,7.64-12.09,42.88-12.09,42.88L245.58,163Z"/></clipPath><clipPath id="clip-path-23"><path class="cls-1" d="M284.39,137.56s6.47-9.12,9.39-13.35,4.63-6.58,5.93-9.43,1.87-6.58,3.17-9.18S310.3,92.93,311.82,90s2.77-8.71,4.31-11.56,3.49-6.58,4.55-8.7,5.85,4,6.26,7.32A18.71,18.71,0,0,0,331,86.44c1.95,2.13,6,8.31,6.83,10.62a68.17,68.17,0,0,1,2.52,9c.73,3.33,2.08,7.38,5.9,10,2.47,1.72,2.47,4.75,3.86,6.94s1.3,4.55,4,7.07,5.2,8.62,5.93,12.19-3,15.36-3,15.36L341.5,169.65l-29-14.71-19.9-17.17Z"/></clipPath><clipPath id="clip-path-24"><path class="cls-1" d="M329.79,202.31s9.11-24.39,10.17-29,.3-9.81,3.31-9.81,10.11-9.42,11.61-14.28a112.67,112.67,0,0,1,7.77-17.63c2.26-3.64,5.3-11.83,6.49-15.92A139.27,139.27,0,0,1,374,102.48c1.06-2.38,8.85-22,10.3-27.6a59.72,59.72,0,0,1,8.58-17.83c3.3-4.36,5.28-11.23,6.34-15.45a125.5,125.5,0,0,1,4.62-13.73c.79-1.72,2.64-4.09,4.49,2.77s3.57,11.75,4.36,14.92.92,4.76,1.45,10.43a27.07,27.07,0,0,0,6.47,14.39c2.51,2.51,6.21,10.56,7.13,14.26s3.7,7.39,5.55,10a29.47,29.47,0,0,1,4.49,11.49c.66,4.36,1.06,10.7,3,14S448,127,450.2,130.34c2,3.06,2.14,10.43,2.27,14.66s1.85,14.51,3.7,18,4.87,9.64,5.94,14.47c1.79,8.09,7.25,10.46,7.25,18,0,9.19-.16,37.34-.16,37.34v25Z"/></clipPath><clipPath id="clip-path-25"><path class="cls-1" d="M191.51,149.67s2.67-16.35,5.07-21.09,5.12-10.19,6.07-15.64,4.5-14.81,5.33-17.3,2.21,1.78,3.89,6.75,4.64,10.54,4.41,14.1,1,5.94,2.84,9.24a31,31,0,0,1,3.67,13.74c0,3.55.35,8.18,4.26,12.44s.59,11.38.59,11.38l-21,8.65L194.12,157Z"/></clipPath><clipPath id="clip-path-26"><path class="cls-1" d="M135.79,136.26s8.18-19,11.49-25,4.15-11.85,5.1-17.3,1.78-9.36,3.79-13.75,4.57-10.1,4.57-10.1c1.44-3.26,4.21,2,5.16,7.95a35.63,35.63,0,0,0,5,13.62c2.13,3.75,7.27,12.7,9.17,19.45s4.74,17.46,8.41,22,17,24.64,18.1,32.1-57.67-.07-57.67-.07l-10.54-9.28Z"/></clipPath><clipPath id="clip-path-27"><path class="cls-1" d="M19.1,176.52s9.94-9.62,11.08-16.89,3.42-15.12,7.42-19a29.81,29.81,0,0,0,8-15.41c.86-5.28,5.28-16.12,9.7-20.83s9.56-13.69,11.84-19.69,5.56-10.88,9.13-17,6.28-10.84,7.7-17,.43-10.27,3.28-15.12,4.14-6.42,6.28-11.27,2.57-5.85,3.85-6.42,2.28-.43,3.28,4.14,4.42,11.7,4.28,15.55,0,10.75,2.61,15.31,5.8,10.65,7.23,17.64,5.44,12.66,7.13,18.26c1.59,5.25,3.71,13,6,19.54s4,12.7,7.13,18.54,7.13,11,7.42,15.69,1.14,8.84,4.71,15.41,4.57,7.85,6.13,14.26,8,25.39,9.27,33.1S65.7,236.95,65.7,236.95l-46.6,1.82V176.52Z"/></clipPath><clipPath id="clip-path-28"><path class="cls-1" d="M94.46,293.28s60.83,1.2,79.11-47.21,17.94-98.54,68.47-96.75c38.45,1.36,43.69,41.34,54.49,75,19.24,60,57.27,67,109.67,68.7H252.49Z"/></clipPath><clipPath id="clip-path-31"><rect class="cls-1" x="226.78" y="151.03" width="20" height="5" transform="translate(-1.01 1.57) rotate(-0.38)"/></clipPath><clipPath id="clip-path-32"><rect class="cls-1" x="234.75" y="143.13" width="5" height="20" transform="translate(-2 3.14) rotate(-0.76)"/></clipPath><clipPath id="clip-path-33"><path class="cls-1" d="M89.58,299.63s-3.88-33.17,17.64-59.91c0,0,7.25,28.51-2.19,50Z"/></clipPath><clipPath id="clip-path-34"><path class="cls-1" d="M106,298.32S95.24,257.54,57.6,236.06c0,0,4.64,36.86,25.67,57.78Z"/></clipPath><clipPath id="clip-path-35"><path class="cls-1" d="M94.24,292.45s6.55-21.92,27.34-32.91c0,0-3.17,19.91-14.94,30.88Z"/></clipPath><clipPath id="clip-path-36"><path class="cls-1" d="M437.6,301.12s-2.86-40.34-34.49-67.3c0,0-2.21,35.56,13.88,59Z"/></clipPath><clipPath id="clip-path-37"><path class="cls-1" d="M417.76,303.26s3.62-50.94,43.56-85c0,0,2.79,44.91-17.52,74.53Z"/></clipPath><clipPath id="clip-path-38"><path class="cls-1" d="M430.44,293.62s-12.74-24.6-39.94-33c0,0,8.25,23,24.73,33.37Z"/></clipPath></defs><title>wanderers</title><g id="Layer_2" data-name="Layer 2"><g id="Layer_1-2" data-name="Layer 1"><g class="cls-2"><g class="cls-3"><g class="cls-3"><rect class="cls-4" x="500.67" width="450" height="293"/></g></g></g><rect class="cls-5" x="501.05" width="449.78" height="293"/><path class="cls-4" d="M565,22.17s64.81-3.15,65.49,2.61-17.47,3-16,9.6c1.54,6.9,67.74-2.92,67.24,10.65s-71.11,1.1-71.36,13c-.11,5.38,11.73,3.06,12,9.69.53,14-54.18,8-54.18,8S518.85,79,518.88,63.88c0-10.16,37.57-8.49,37.69-17.52.1-7.51-20.13-6.21-20.63-14.08S557.55,22.29,565,22.17Z"/><path class="cls-4" d="M888.8,35s33.13-2,33.58,3.55c.31,3.84-7.76,1.75-7.76,5.59s25.3,1.46,25.3,6.68c0,4.9-23.49,1-23.49,6s10.59,2,10,7.69c-.9,8.19-47.72,2.84-47.72,2.84l-3.46-8.57s-20.29.92-20.87-4.59,16.76-1.52,18-5.93c1.39-5.13-9.93-4.51-10.19-9S879.25,35.36,888.8,35Z"/><path class="cls-4" d="M868.65,78.43s-18.78-1.37-18.86,2.87,9.64,3.22,8.15,7c-1.65,4.17-28.66,1.3-29.16,7.79s34.3,4.25,34.3,4.25Z"/><path class="cls-6" d="M726.23,154.41s5-3,6.26-7.16,3.51-14.79,5.85-17.34,5.78-7.16,6.67-9.84,2.27-6,2.82-7.64,2.41-6.26,2.61-8.46.41-5.44,1.17-5.57,5.09,10,5.44,13a21.35,21.35,0,0,0,3.72,9.5c1.79,2.2,2.27,7.16,3,9.22s4.06,6.27,4.68,7.64-12.09,42.88-12.09,42.88L727.06,163Z"/><path id="SVGID" class="cls-7" d="M726.23,154.41s5-3,6.26-7.16,3.51-14.79,5.85-17.34,5.78-7.16,6.67-9.84,2.27-6,2.82-7.64,2.41-6.26,2.61-8.46.41-5.44,1.17-5.57,5.09,10,5.44,13a21.35,21.35,0,0,0,3.72,9.5c1.79,2.2,2.27,7.16,3,9.22s4.06,6.27,4.68,7.64-12.09,42.88-12.09,42.88L727.06,163Z"/><g class="cls-8"><path class="cls-9" d="M751.19,95.57s4.61,8,2.79,14.21-4.13,8.86-2.19,13.48,3.16,7.16,1.09,12-4.61,9.71,1,15.42S770.5,139.9,770.5,139.9l-2-22.59L754.6,91.69Z"/></g><path id="SVGID-2" data-name="SVGID" class="cls-10" d="M765.86,137.56s6.47-9.12,9.4-13.35,4.63-6.58,5.93-9.43,1.87-6.58,3.17-9.18S791.77,92.93,793.3,90s2.77-8.71,4.31-11.56,3.49-6.58,4.55-8.7,5.85,4,6.26,7.32a18.71,18.71,0,0,0,4.06,9.38c1.95,2.13,6,8.31,6.83,10.62a68.17,68.17,0,0,1,2.52,9c.73,3.33,2.08,7.38,5.9,10,2.47,1.72,2.47,4.75,3.85,6.94s1.3,4.55,4,7.07,5.2,8.62,5.93,12.19-3,15.36-3,15.36L823,169.65l-29-14.71-19.9-17.17Z"/><g class="cls-11"><path class="cls-7" d="M804.36,61.35S799.7,73.67,805,82.5s7.11,11,3.17,20.13c-4.24,9.89-5.78,14.87-1.86,20.11s5,9.51-1,14.59c-7.17,6.15-5.69,23.87,1.68,33.81s47.6-34.21,47.6-34.21l3.22-23.37S819.5,73,821.19,73.25,804.36,61.35,804.36,61.35Z"/></g><path class="cls-12" d="M811.26,202.31s9.11-24.39,10.17-29,.3-9.81,3.31-9.81,10.1-9.42,11.61-14.28a112.67,112.67,0,0,1,7.77-17.63c2.26-3.64,5.3-11.83,6.49-15.92a139.29,139.29,0,0,1,4.89-13.21c1.06-2.38,8.85-22,10.3-27.6a59.72,59.72,0,0,1,8.58-17.83c3.3-4.36,5.28-11.23,6.34-15.45a125.51,125.51,0,0,1,4.62-13.73c.79-1.72,2.64-4.09,4.49,2.77s3.57,11.75,4.36,14.92.92,4.76,1.45,10.43a27.07,27.07,0,0,0,6.47,14.39c2.51,2.51,6.21,10.56,7.13,14.26s3.7,7.39,5.55,10a29.46,29.46,0,0,1,4.49,11.49c.66,4.36,1.06,10.7,3,14s7.66,7.55,8.72,11.43,2.77,9.16,2.91,13.39,1.85,14.51,3.7,18,4.87,9.64,5.94,14.47c1.79,8.09,7.25,10.46,7.25,18,0,9.19-.16,37.34-.16,37.34v25Z"/><path id="SVGID-3" data-name="SVGID" class="cls-12" d="M811.26,202.31s9.11-24.39,10.17-29,.3-9.81,3.31-9.81,10.1-9.42,11.61-14.28a112.67,112.67,0,0,1,7.77-17.63c2.26-3.64,5.3-11.83,6.49-15.92a139.29,139.29,0,0,1,4.89-13.21c1.06-2.38,8.85-22,10.3-27.6a59.72,59.72,0,0,1,8.58-17.83c3.3-4.36,5.28-11.23,6.34-15.45a125.51,125.51,0,0,1,4.62-13.73c.79-1.72,2.64-4.09,4.49,2.77s3.57,11.75,4.36,14.92.92,4.76,1.45,10.43a27.07,27.07,0,0,0,6.47,14.39c2.51,2.51,6.21,10.56,7.13,14.26s3.7,7.39,5.55,10a29.46,29.46,0,0,1,4.49,11.49c.66,4.36,1.06,10.7,3,14s7.17,6.78,9.35,10.16c2,3.06,2.14,10.43,2.27,14.66s1.85,14.51,3.7,18,4.87,9.64,5.94,14.47c1.79,8.09,7.25,10.46,7.25,18,0,9.19-.16,37.34-.16,37.34v25Z"/><g class="cls-13"><path class="cls-10" d="M886.17,21.13S888.43,37.9,885.8,50c-2.69,12.38-7.63,13.11-.75,23.75s10.67,23.09,7.5,35,7.82,21.23,13.38,28.37,5.56,20.26,3.5,32.52-6.87,17.31.75,32.6c8.12,16.31,30.42,55.65,30.42,55.65H960l5.56-84.58L946,69.29l-52.08-48.8Z"/></g><path class="cls-6" d="M673,149.67s2.67-16.35,5.07-21.09,5.12-10.19,6.07-15.64,4.5-14.81,5.33-17.3,2.21,1.78,3.89,6.75,4.64,10.54,4.41,14.1,1,5.94,2.84,9.24a31,31,0,0,1,3.67,13.74c0,3.55.36,8.18,4.27,12.44s.59,11.38.59,11.38l-21,8.65L675.6,157Z"/><path id="SVGID-4" data-name="SVGID" class="cls-7" d="M673,149.67s2.67-16.35,5.07-21.09,5.12-10.19,6.07-15.64,4.5-14.81,5.33-17.3,2.21,1.78,3.89,6.75,4.64,10.54,4.41,14.1,1,5.94,2.84,9.24a31,31,0,0,1,3.67,13.74c0,3.55.36,8.18,4.27,12.44s.59,11.38.59,11.38l-21,8.65L675.6,157Z"/><g class="cls-14"><path class="cls-9" d="M689.86,90.47s3.49,11.84,3.49,17.36-3.22,8.09-1.61,13.37,8.48,10.09,5,16.18-13.22,15.12-8.33,20.52,11.26,13,11.26,13l-13.37,8.44L666.53,151,673,118.73Z"/></g><path class="cls-15" d="M617.26,136.26s8.18-19,11.49-25,4.15-11.85,5.09-17.3,1.78-9.36,3.79-13.75,4.57-10.1,4.57-10.1c1.44-3.26,4.21,2,5.16,7.95a35.64,35.64,0,0,0,5,13.62c2.13,3.75,7.27,12.7,9.17,19.45s4.74,17.46,8.41,22,17,24.64,18.09,32.1-57.67-.07-57.67-.07l-10.54-9.28Z"/><path id="SVGID-5" data-name="SVGID" class="cls-10" d="M617.26,136.26s8.18-19,11.49-25,4.15-11.85,5.09-17.3,1.78-9.36,3.79-13.75,4.57-10.1,4.57-10.1c1.44-3.26,4.21,2,5.16,7.95a35.64,35.64,0,0,0,5,13.62c2.13,3.75,7.27,12.7,9.17,19.45s4.74,17.46,8.41,22,17,24.64,18.09,32.1-57.67-.07-57.67-.07l-10.54-9.28Z"/><g class="cls-16"><path class="cls-7" d="M652.84,88.63S645,94.32,647,102s7,12.21.5,19.06-12.88,8.13-12.21,16.69-2.71,22.15-10.37,25.25-17.56-29.57-17.56-29.57l26.76-68.39L646,56.19Z"/></g><path class="cls-5" d="M500.58,176.52s9.94-9.62,11.08-16.89,3.42-15.12,7.42-19a29.81,29.81,0,0,0,8-15.41c.86-5.28,5.28-16.12,9.7-20.83s9.56-13.69,11.84-19.69,5.56-10.88,9.13-17,6.28-10.84,7.7-17,.43-10.27,3.28-15.12,4.14-6.42,6.28-11.27,2.57-5.85,3.85-6.42,2.28-.43,3.28,4.14,4.42,11.7,4.28,15.55,0,10.75,2.61,15.31,5.8,10.65,7.23,17.64,5.44,12.66,7.13,18.26c1.59,5.25,3.71,13,6,19.54s4,12.7,7.13,18.54,7.13,11,7.42,15.69,1.14,8.84,4.71,15.41,4.57,7.85,6.13,14.26,8,25.39,9.27,33.1-96.86,31.53-96.86,31.53l-46.6,1.82V176.52Z"/><path id="SVGID-6" data-name="SVGID" class="cls-12" d="M500.58,176.52s9.94-9.62,11.08-16.89,3.42-15.12,7.42-19a29.81,29.81,0,0,0,8-15.41c.86-5.28,5.28-16.12,9.7-20.83s9.56-13.69,11.84-19.69,5.56-10.88,9.13-17,6.28-10.84,7.7-17,.43-10.27,3.28-15.12,4.14-6.42,6.28-11.27,2.57-5.85,3.85-6.42,2.28-.43,3.28,4.14,4.42,11.7,4.28,15.55,0,10.75,2.61,15.31,5.8,10.65,7.23,17.64,5.44,12.66,7.13,18.26c1.59,5.25,3.71,13,6,19.54s4,12.7,7.13,18.54,7.13,11,7.42,15.69,1.14,8.84,4.71,15.41,4.57,7.85,6.13,14.26,8,25.39,9.27,33.1-96.86,31.53-96.86,31.53l-46.6,1.82V176.52Z"/><g class="cls-17"><path class="cls-10" d="M579.74,11.56s-3-2.89-.57,5.2S576.65,37.6,575,42.4c-3.79,10.85.4,20.86,3.2,28.17S582,89.86,575.55,97s-18.53,6.54-24.13,18.31-3.19,17.48.17,27.29-3.67,16.8-12.41,24.45-11.71,16-7,28.69S525.43,235,510.74,243.7s-29.27-31-29.27-31l9.89-52.61,49-90.77Z"/></g><path class="cls-18" d="M717,175.53s-18,.82-24.7-7.83-13.61-21-31-22c-13.16-.71-24.73,6.71-30.91,19.47s-9.53,32.5-9.53,32.5l81.31,4.81Z"/><path class="cls-19" d="M489.58,217.2s14-37.89,44.79-16.85c24.6,16.82,37-28,62.13-38.35,13.21-5.45,24.46,2.68,30.21,20.57,5.5,17.12,29.33,17.15,36.58,16s9.7,20.28,9.7,20.28L643.73,293H500.58Z"/><circle class="cls-4" cx="767.74" cy="40.07" r="26.62"/><path class="cls-18" d="M500.58,293s.63-10.77.32-36.77c-.32-26.55,40.67-41.3,53.2-11.51,12.27,29.15,7.11,45.48,68.69,44.53,36.41-.56,10.48,3.74,10.48,3.74l-132.69.27Z"/><path class="cls-20" d="M735.24,168.73s7.67-4.71,11.65-20.54a22.86,22.86,0,0,1,21.61-16.58c11.23-.08,22.37,12.52,24.64,21.54s-21,36.29-21,36.29L746.65,207Z"/><path class="cls-18" d="M742.78,194.78s19.05-3.72,25.72-12.37,14.11-28.22,27-31.18c15.21-3.5,27.85,5.65,34,18.41s9.36,30,9.36,30L757.7,207Z"/><path class="cls-21" d="M811.26,202.31s19.86-51.17,60.18-42c26.92,6.13,33.69,30.28,46.16,53.57,16.64,31.05,25.17,32.16,33.06,35.16.36.14,0,43.94,0,43.94l-56,.27-42-12.53-55.47-40.63Z"/><path class="cls-5" d="M683.63,197.72H667.28c-21.25,0-53.72-.71-53.33,9.25.43,11,32.51,5,32.51,17.62,0,15.33-65.9-.09-65.9,15.64s52.88,5.85,53.46,17.69c.67,13.79-32.13,11.2-34.63,20.51C595.43,293.09,664,293,664,293l16.58-71.66Z"/><path class="cls-5" d="M680.52,198h99.8c24.09,0,62.88-.38,62.88,12.05s-38,8.7-37,19.21c.76,7.89,11.79,11.18,25.08,11.15,8,0,39.39-1.9,39.39,7.89s-13.41,10.12-11.22,20.18,29.79,24.81,45.69,24.81H815.62Z"/><path class="cls-19" d="M575.93,293.28s60.83,1.2,79.11-47.21,17.94-98.54,68.47-96.75c38.45,1.36,43.69,41.34,54.49,75,19.24,60,57.27,67,109.67,68.7H734Z"/><g class="cls-22"><path class="cls-23" d="M685.1,165.69s30.24,14,72,2.89c0,0,26.53,6.93,6,10.42-57.32,9.76-81.34-9.35-81.34-9.35C678.5,161.66,685.1,165.69,685.1,165.69Z"/></g><g class="cls-22"><path class="cls-23" d="M769.58,192.16s-41.74,29.41-97.78-3.72-9.86,16-9.86,16,70.27,29.65,109.69-4.82S769.58,192.16,769.58,192.16Z"/></g><g class="cls-22"><path class="cls-23" d="M662.07,224.49s59.61,29.8,119.09-2.12l5,28.74A378.94,378.94,0,0,0,742.78,259c-42.42,10.18-86.22-20.19-86.22-20.19Z"/></g><g class="cls-24"><g class="cls-25"><g class="cls-26"><ellipse class="cls-27" cx="718.7" cy="153.59" rx="9.57" ry="1.85" transform="translate(-1 4.75) rotate(-0.38)"/></g></g></g><path class="cls-19" d="M806,282.84s28.41,11.32,43-7.86c11.71-15.44,7.75-48.45,36.47-47.56,17.66.55,23.81,16.73,28.19,32.73,9,32.86,36.1,32.86,36.1,32.86H833.22Z"/><ellipse cx="722.18" cy="140.09" rx="0.33" ry="0.2"/><path class="cls-4" d="M840,289.39s2.51-5.49-1.22-8.53-8.66-1.77-11.91-2.2-11.77-.78-10.93-7.68c.62-5.1,6.74-7.46,12.39-4.21s10.68,3.48,11.55.52-3.87-6.8-8.32-8.07-12.86-3.5-11.72-8.71c1.25-5.75,9-3.73,12.86.5,2.62,2.84,6.46,5,8,3.67,2-1.77,1.65-4.05,1.37-8.06s.23-13.85,6-12.7c4.51.9,6.43,7.42,2.79,13.36-2.35,3.83-3.42,7.49-.88,8.92s6.43-1.68,9.81-3.74c4.21-2.57,9.28-1.77,9.53,2.82.2,3.82-4.43,8-13.72,8.63-5.2.33-7.32,4.35-5.28,6.68s6.36,1.73,10,.92,10.57.26,11.54,4.54c1.27,5.61-5.86,9.12-13.2,8C853.14,283.13,844,281.43,840,289.39Z"/><path class="cls-28" d="M845.5,258.07s.56,17.69-5.65,32.29"/><path class="cls-10" d="M714.28,149.25s-.67,4,.39,4.12a18.85,18.85,0,0,0,3.64.12c2.8-.48.33-3.14.33-3.14Z"/><path class="cls-12" d="M718.09,148.37s-1.29,5.38.23,5.54c1.32.14,5.53.18,6.26.23s1-.42-1.13-1.28-2.62-1.12-2.08-3.58S718.09,148.37,718.09,148.37Z"/><path d="M726.57,75s-.18-3.16-4.43-3.07-5.74,2.86-5.57,5.57,1,5,3.61,5.87,4.93-2.58,4.93-2.58l.76-3.68Z"/><path class="cls-9" d="M714.55,112.18l-2.11,38.24,5.76.36.1-.87,4.76.88s8.18-13.5,8.87-17.25-2-17-2.53-20.23Z"/><path class="cls-4" d="M719.54,85.74a17.39,17.39,0,0,0,.64-2.37s2.63.26,3.22-1.62.31-2.22-.28-2.46-.48-1,.24-1,.3-1.21.59-1.85,1.94-.19,2.62-1.47c0,0,.78,6.8-.28,7.07s-2.26,0-2.46.79a7,7,0,0,0,0,2.7S723.19,88.44,719.54,85.74Z"/><path class="cls-4" d="M728.38,79.66a9.64,9.64,0,0,0-1.18-1.07c-.66-.5-3.57-1.95-1.34-2.05s2.72-.58,3.4.87a10.39,10.39,0,0,1,.85,2.51l-1.27.61Z"/><path class="cls-10" d="M719.53,85.65s-2.66.3-7.13,3.41c-4.78,3.33-7.5,5.07-8,7.17-.64,2.89,4,9.16,5.64,11.77l3.8-3.06s-2.58-4.39-3.44-6.11c-.32-.63.89-1.35,3.29-3,1.12-.79.92-.58.88,2.38,0,1.81-1,15.31-1,15.31l16.73.45s-1-17.5-.68-18c0,0,6.77,1.73,8.43.9,1.07-.53,1.58-2.81-.08-7.83-1.34-4-6.74-11.33-6.74-11.33l-4.12,3s6.8,10.09,6.5,10.43-4.14-2.88-5.91-4a10,10,0,0,0-3.91-1.57S721.31,86.9,719.53,85.65Z"/><path class="cls-4" d="M712.44,108.54c.24,1.34.8,4.81,1.08,4.26s.11-2.69.4-3.57.47-.54,1,0,.08-1.22-.77-2.31c-.32-.41-.34-.45-1-1.38,0,0-1.47,1.15-1.47,1.15A3.16,3.16,0,0,1,712.44,108.54Z"/><path class="cls-20" d="M571.05,299.63s-3.88-33.17,17.64-59.91c0,0,7.26,28.51-2.19,50Z"/><g class="cls-29"><path class="cls-18" d="M588.69,239.72s-9.72,48.42-9.84,57l-8.24,4.3L567,289l4-24.36L581,244.36Z"/></g><path class="cls-20" d="M587.48,298.32s-10.76-40.77-48.41-62.26c0,0,4.64,36.86,25.67,57.78Z"/><path id="SVGID-7" data-name="SVGID" class="cls-20" d="M587.48,298.32s-10.76-40.77-48.41-62.26c0,0,4.64,36.86,25.67,57.78Z"/><g class="cls-30"><path class="cls-31" d="M539.07,236.06s33.78,52.42,37.87,62.42l11.67,1.25L587.28,284l-16-26.78-21.05-19.25Z"/></g><path id="SVGID-8" data-name="SVGID" class="cls-20" d="M575.71,292.45s6.55-21.92,27.34-32.91c0,0-3.16,19.91-14.94,30.88Z"/><g class="cls-32"><path class="cls-18" d="M603.05,259.54s-19.24,27.83-21.63,33.18l-6.35.47,1-8.52,9.12-14.24,11.75-10.07Z"/></g><path class="cls-21" d="M768.5,287.27S728.93,290.5,714.62,275c-17.59-19-20.7-46.36-52.55-50.54-32.39-4.26-48.71,18.23-60.64,42.85s-35.26,25.93-35.26,25.93h180Z"/><path class="cls-4" d="M711.31,288.89c-4.12.19-6.41-4.58-2.84-7.59s7-4.46,4.69-7.73c-1.78-2.51-5.61.19-8.67,1.31-4.27,1.57-8.49-2.8-6.79-6.88,1.37-3.31,6.09-2.12,9.77-3.07s2.51-4,.14-6.34-4.92-8.17.4-10.25,6.78,3.5,7.26,6.32,3.22,5.58,5.93,2.2,5.49-6.52,8.64-4.12-1,6.77-3.4,9.35c-3,3.23.47,8.09,3.73,5.93s7.09-3.37,9.37.24c4.27,6.75-9.67,9.09-14.71,11.12S715.45,288.7,711.31,288.89Z"/><path class="cls-33" d="M717.49,267.71a108.12,108.12,0,0,1,12.33,23.24"/><path class="cls-18" d="M856.73,292.72s-31.57,1.21-41.75-29.6c-7.07-21.41-13.54-42.31-37.89-42.66-26.3-.38-36.77,24.2-42.56,43.19-5,16.26-6.27,18.39-11.72,29.06,0,0,8.36.28,32,.28,34,0,55.73-.28,55.73-.28Z"/><circle class="cls-4" cx="649.71" cy="156.54" r="1.6"/><circle class="cls-4" cx="671.39" cy="159.73" r="1.6"/><circle class="cls-4" cx="674.59" cy="171.95" r="1.6"/><circle class="cls-4" cx="656.25" cy="170.35" r="1.6"/><circle class="cls-4" cx="640.08" cy="183.4" r="1.6"/><circle class="cls-4" cx="641.68" cy="168.05" r="1.6"/><circle class="cls-4" cx="665.09" cy="185" r="1.6"/><circle class="cls-4" cx="653.06" cy="190.69" r="1.6"/><ellipse class="cls-4" cx="762.52" cy="137.53" rx="0.36" ry="0.37"/><ellipse class="cls-4" cx="760.2" cy="145.32" rx="0.36" ry="0.37"/><ellipse class="cls-4" cx="773.03" cy="147.88" rx="0.36" ry="0.37"/><ellipse class="cls-4" cx="754.4" cy="159.99" rx="0.36" ry="0.37" transform="matrix(0.34, -0.94, 0.94, 0.34, 350.87, 817.16)"/><ellipse class="cls-4" cx="777.83" cy="140.68" rx="0.36" ry="0.37" transform="translate(384.64 826.4) rotate(-70.42)"/><ellipse class="cls-4" cx="753.66" cy="148.96" rx="0.36" ry="0.37" transform="translate(360.77 809.13) rotate(-70.42)"/><ellipse class="cls-4" cx="768.46" cy="171.55" rx="0.36" ry="0.37" transform="translate(349.26 838.06) rotate(-70.42)"/><ellipse class="cls-4" cx="767.72" cy="155.31" rx="0.36" ry="0.37" transform="translate(364.13 826.6) rotate(-70.42)"/><ellipse class="cls-4" cx="783.2" cy="148.91" rx="0.36" ry="0.37" transform="translate(380.38 836.89) rotate(-70.42)"/><ellipse class="cls-4" cx="764.24" cy="163.89" rx="0.36" ry="0.37" transform="translate(353.74 829.03) rotate(-70.42)"/><ellipse class="cls-4" cx="776.79" cy="156.57" rx="0.36" ry="0.37" transform="translate(369.04 836.03) rotate(-70.43)"/><circle class="cls-4" cx="516.86" cy="260.76" r="2.02"/><circle class="cls-4" cx="534.23" cy="273.01" r="2.02"/><circle class="cls-4" cx="518.77" cy="282.77" r="2.02"/><circle class="cls-4" cx="520.9" cy="242.65" r="2.02"/><path class="cls-18" d="M919.08,301.12s-2.86-40.34-34.49-67.3c0,0-2.21,35.56,13.88,59Z"/><g class="cls-34"><path class="cls-20" d="M884.59,233.82s22.47,55.41,24.54,65.57l10.78,3.26,1.55-15.08L911.2,259.49,894.8,237.6Z"/></g><path class="cls-35" d="M899.24,303.26s3.62-50.94,43.56-85c0,0,2.78,44.91-17.53,74.53Z"/><path id="SVGID-9" data-name="SVGID" class="cls-18" d="M899.24,303.26s3.62-50.94,43.56-85c0,0,2.78,44.91-17.53,74.53Z"/><g class="cls-36"><path class="cls-20" d="M942.8,218.27s-28.38,70-31,82.8l-13.61,4.12-2-19,12.95-35.46L929.9,223Z"/></g><path class="cls-35" d="M911.91,293.62s-12.74-24.6-39.94-33c0,0,8.25,23,24.73,33.37Z"/><path id="SVGID-10" data-name="SVGID" class="cls-18" d="M911.91,293.62s-12.74-24.6-39.94-33c0,0,8.25,23,24.73,33.37Z"/><g class="cls-37"><path class="cls-20" d="M872,260.63s29.16,28.77,33.22,34.6l7.66-.87-3.11-9.91-14.06-14.89-16.25-9.33Z"/></g><g class="cls-2"><g class="cls-38"><g class="cls-38"><rect class="cls-4" x="19.2" width="450" height="293"/></g></g></g><rect class="cls-39" x="19.58" width="449.78" height="293"/><path class="cls-4" d="M83.57,22.17s65.37-3.21,65.5,2.61-17.46,3-16,9.6c1.54,6.9,67.74-2.92,67.24,10.65s-71.12,1.1-71.37,13c-.11,5.38,11.73,3.06,12,9.69.53,14-54.18,8-54.18,8S37.37,79,37.4,63.88c0-10.16,37.56-8.49,37.69-17.52.1-7.51-20.13-6.21-20.63-14.08S76.08,22.29,83.57,22.17Z"/><path class="cls-4" d="M407.32,35s33.13-2,33.58,3.55c.31,3.84-7.76,1.75-7.76,5.59s25.3,1.46,25.3,6.68c0,4.9-23.49,1-23.49,6s10.59,2,10,7.69c-.9,8.19-47.71,2.84-47.71,2.84l-3.46-8.57s-20.29.92-20.87-4.59,16.76-1.52,18-5.93c1.39-5.13-9.93-4.51-10.19-9S397.78,35.36,407.32,35Z"/><path class="cls-4" d="M387.17,78.43s-18.78-1.37-18.86,2.87,9.64,3.22,8.15,7c-1.65,4.17-28.66,1.3-29.16,7.79s34.3,4.25,34.3,4.25Z"/><path class="cls-6" d="M244.76,154.41s5-3,6.26-7.16,3.51-14.79,5.85-17.34,5.78-7.16,6.68-9.84,2.27-6,2.82-7.64,2.41-6.26,2.62-8.46.41-5.44,1.17-5.57,5.09,10,5.44,13a21.35,21.35,0,0,0,3.72,9.5c1.79,2.2,2.27,7.16,3,9.22s4.06,6.27,4.68,7.64-12.09,42.88-12.09,42.88L245.58,163Z"/><path id="SVGID-11" data-name="SVGID" class="cls-7" d="M244.76,154.41s5-3,6.26-7.16,3.51-14.79,5.85-17.34,5.78-7.16,6.68-9.84,2.27-6,2.82-7.64,2.41-6.26,2.62-8.46.41-5.44,1.17-5.57,5.09,10,5.44,13a21.35,21.35,0,0,0,3.72,9.5c1.79,2.2,2.27,7.16,3,9.22s4.06,6.27,4.68,7.64-12.09,42.88-12.09,42.88L245.58,163Z"/><g class="cls-40"><path class="cls-9" d="M269.72,95.57s4.62,8,2.79,14.21-4.13,8.86-2.19,13.48,3.16,7.16,1.09,12-4.62,9.71,1,15.42S289,139.9,289,139.9l-2-22.59-13.9-25.62Z"/></g><path id="SVGID-12" data-name="SVGID" class="cls-10" d="M284.39,137.56s6.47-9.12,9.39-13.35,4.63-6.58,5.93-9.43,1.87-6.58,3.17-9.18S310.3,92.93,311.82,90s2.77-8.71,4.31-11.56,3.49-6.58,4.55-8.7,5.85,4,6.26,7.32A18.71,18.71,0,0,0,331,86.44c1.95,2.13,6,8.31,6.83,10.62a68.17,68.17,0,0,1,2.52,9c.73,3.33,2.08,7.38,5.9,10,2.47,1.72,2.47,4.75,3.86,6.94s1.3,4.55,4,7.07,5.2,8.62,5.93,12.19-3,15.36-3,15.36L341.5,169.65l-29-14.71-19.9-17.17Z"/><g class="cls-41"><path class="cls-7" d="M322.88,61.35s-4.66,12.32.64,21.15,7.11,11,3.17,20.13c-4.24,9.89-5.78,14.87-1.86,20.11s5,9.51-1,14.59c-7.17,6.15-5.69,23.87,1.68,33.81s47.6-34.21,47.6-34.21l3.22-23.37S338,73,339.72,73.25,322.88,61.35,322.88,61.35Z"/></g><path class="cls-12" d="M329.79,202.31s9.11-24.39,10.17-29,.3-9.81,3.31-9.81,10.11-9.42,11.61-14.28a112.67,112.67,0,0,1,7.77-17.63c2.26-3.64,5.3-11.83,6.49-15.92A139.27,139.27,0,0,1,374,102.48c1.06-2.38,8.85-22,10.3-27.6a59.72,59.72,0,0,1,8.58-17.83c3.3-4.36,5.28-11.23,6.34-15.45a125.5,125.5,0,0,1,4.62-13.73c.79-1.72,2.64-4.09,4.49,2.77s3.57,11.75,4.36,14.92.92,4.76,1.45,10.43a27.07,27.07,0,0,0,6.47,14.39c2.51,2.51,6.21,10.56,7.13,14.26s3.7,7.39,5.55,10a29.47,29.47,0,0,1,4.49,11.49c.66,4.36,1.06,10.7,3,14s7.66,7.55,8.72,11.43,2.77,9.16,2.9,13.39,1.85,14.51,3.7,18,4.87,9.64,5.94,14.47c1.79,8.09,7.25,10.46,7.25,18,0,9.19-.16,37.34-.16,37.34v25Z"/><path id="SVGID-13" data-name="SVGID" class="cls-12" d="M329.79,202.31s9.11-24.39,10.17-29,.3-9.81,3.31-9.81,10.11-9.42,11.61-14.28a112.67,112.67,0,0,1,7.77-17.63c2.26-3.64,5.3-11.83,6.49-15.92A139.27,139.27,0,0,1,374,102.48c1.06-2.38,8.85-22,10.3-27.6a59.72,59.72,0,0,1,8.58-17.83c3.3-4.36,5.28-11.23,6.34-15.45a125.5,125.5,0,0,1,4.62-13.73c.79-1.72,2.64-4.09,4.49,2.77s3.57,11.75,4.36,14.92.92,4.76,1.45,10.43a27.07,27.07,0,0,0,6.47,14.39c2.51,2.51,6.21,10.56,7.13,14.26s3.7,7.39,5.55,10a29.47,29.47,0,0,1,4.49,11.49c.66,4.36,1.06,10.7,3,14S448,127,450.2,130.34c2,3.06,2.14,10.43,2.27,14.66s1.85,14.51,3.7,18,4.87,9.64,5.94,14.47c1.79,8.09,7.25,10.46,7.25,18,0,9.19-.16,37.34-.16,37.34v25Z"/><g class="cls-42"><path class="cls-10" d="M404.7,21.13S407,37.9,404.32,50c-2.69,12.38-7.63,13.11-.75,23.75s10.67,23.09,7.5,35,7.82,21.23,13.38,28.37,5.56,20.26,3.5,32.52-6.87,17.31.75,32.6c8.12,16.31,30.42,55.65,30.42,55.65h19.37L484,173.33l-19.53-104-52.07-48.8Z"/></g><path class="cls-6" d="M191.51,149.67s2.67-16.35,5.07-21.09,5.12-10.19,6.07-15.64,4.5-14.81,5.33-17.3,2.21,1.78,3.89,6.75,4.64,10.54,4.41,14.1,1,5.94,2.84,9.24a31,31,0,0,1,3.67,13.74c0,3.55.35,8.18,4.26,12.44s.59,11.38.59,11.38l-21,8.65L194.12,157Z"/><path id="SVGID-14" data-name="SVGID" class="cls-7" d="M191.51,149.67s2.67-16.35,5.07-21.09,5.12-10.19,6.07-15.64,4.5-14.81,5.33-17.3,2.21,1.78,3.89,6.75,4.64,10.54,4.41,14.1,1,5.94,2.84,9.24a31,31,0,0,1,3.67,13.74c0,3.55.35,8.18,4.26,12.44s.59,11.38.59,11.38l-21,8.65L194.12,157Z"/><g class="cls-43"><path class="cls-9" d="M208.39,90.47s3.49,11.84,3.49,17.36-3.22,8.09-1.61,13.37,8.48,10.09,5,16.18S202.09,152.5,207,157.9s11.26,13,11.26,13l-13.37,8.44L185,151l6.46-32.25Z"/></g><path class="cls-15" d="M135.79,136.26s8.18-19,11.49-25,4.15-11.85,5.1-17.3,1.78-9.36,3.79-13.75,4.57-10.1,4.57-10.1c1.44-3.26,4.21,2,5.16,7.95a35.63,35.63,0,0,0,5,13.62c2.13,3.75,7.27,12.7,9.17,19.45s4.74,17.46,8.41,22,17,24.64,18.1,32.1-57.67-.07-57.67-.07l-10.54-9.28Z"/><path id="SVGID-15" data-name="SVGID" class="cls-10" d="M135.79,136.26s8.18-19,11.49-25,4.15-11.85,5.1-17.3,1.78-9.36,3.79-13.75,4.57-10.1,4.57-10.1c1.44-3.26,4.21,2,5.16,7.95a35.63,35.63,0,0,0,5,13.62c2.13,3.75,7.27,12.7,9.17,19.45s4.74,17.46,8.41,22,17,24.64,18.1,32.1-57.67-.07-57.67-.07l-10.54-9.28Z"/><g class="cls-44"><path class="cls-7" d="M171.37,88.63s-7.86,5.69-5.85,13.38,7,12.21.5,19.06-12.88,8.13-12.21,16.69S151.1,159.91,143.44,163s-17.56-29.57-17.56-29.57l26.76-68.39,11.87-8.86Z"/></g><path class="cls-5" d="M19.1,176.52s9.94-9.62,11.08-16.89,3.42-15.12,7.42-19a29.81,29.81,0,0,0,8-15.41c.86-5.28,5.28-16.12,9.7-20.83s9.56-13.69,11.84-19.69,5.56-10.88,9.13-17,6.28-10.84,7.7-17,.43-10.27,3.28-15.12,4.14-6.42,6.28-11.27,2.57-5.85,3.85-6.42,2.28-.43,3.28,4.14,4.42,11.7,4.28,15.55,0,10.75,2.61,15.31,5.8,10.65,7.23,17.64,5.44,12.66,7.13,18.26c1.59,5.25,3.71,13,6,19.54s4,12.7,7.13,18.54,7.13,11,7.42,15.69,1.14,8.84,4.71,15.41,4.57,7.85,6.13,14.26,8,25.39,9.27,33.1S65.7,236.95,65.7,236.95l-46.6,1.82V176.52Z"/><path id="SVGID-16" data-name="SVGID" class="cls-12" d="M19.1,176.52s9.94-9.62,11.08-16.89,3.42-15.12,7.42-19a29.81,29.81,0,0,0,8-15.41c.86-5.28,5.28-16.12,9.7-20.83s9.56-13.69,11.84-19.69,5.56-10.88,9.13-17,6.28-10.84,7.7-17,.43-10.27,3.28-15.12,4.14-6.42,6.28-11.27,2.57-5.85,3.85-6.42,2.28-.43,3.28,4.14,4.42,11.7,4.28,15.55,0,10.75,2.61,15.31,5.8,10.65,7.23,17.64,5.44,12.66,7.13,18.26c1.59,5.25,3.71,13,6,19.54s4,12.7,7.13,18.54,7.13,11,7.42,15.69,1.14,8.84,4.71,15.41,4.57,7.85,6.13,14.26,8,25.39,9.27,33.1S65.7,236.95,65.7,236.95l-46.6,1.82V176.52Z"/><g class="cls-45"><path class="cls-10" d="M98.27,11.56s-3-2.89-.57,5.2S95.17,37.6,93.49,42.4c-3.79,10.85.4,20.86,3.2,28.17S100.54,89.86,94.07,97s-18.53,6.54-24.13,18.31-3.19,17.48.17,27.29-3.67,16.8-12.41,24.45-11.72,16-7,28.69S44,235,29.27,243.7,0,212.7,0,212.7l9.89-52.61,49-90.77Z"/></g><path class="cls-46" d="M235.51,175.53s-18,.82-24.7-7.83-13.61-21-31-22c-13.16-.71-24.73,6.71-30.91,19.47s-9.54,32.5-9.54,32.5l81.31,4.81Z"/><path class="cls-47" d="M8.1,217.2s14-37.89,44.79-16.85c24.6,16.82,37-28,62.13-38.35,13.21-5.45,24.46,2.68,30.21,20.57,5.5,17.12,29.33,17.15,36.57,16s9.7,20.28,9.7,20.28L162.26,293H19.1Z"/><circle class="cls-4" cx="286.26" cy="40.07" r="26.62"/><path class="cls-48" d="M19.1,293s.63-10.77.32-36.77c-.32-26.55,40.67-41.3,53.2-11.51,12.27,29.15,7.11,45.48,68.69,44.53,36.41-.56,10.48,3.74,10.48,3.74l-132.69.27Z"/><path class="cls-48" d="M253.76,168.73s7.67-4.71,11.65-20.54A22.86,22.86,0,0,1,287,131.61c11.23-.08,22.37,12.52,24.64,21.54s-21,36.29-21,36.29L265.18,207Z"/><path class="cls-47" d="M261.3,194.78s19.06-3.72,25.72-12.37,14.11-28.22,27-31.18c15.21-3.5,27.85,5.65,34,18.41s9.36,30,9.36,30L276.22,207Z"/><path class="cls-49" d="M329.79,202.31s19.86-51.17,60.18-42c26.92,6.13,33.69,30.28,46.17,53.57,16.64,31.05,25.17,32.16,33.06,35.16.36.14,0,43.94,0,43.94l-56,.27-42-12.53-55.47-40.63Z"/><path class="cls-5" d="M202.16,197.72H185.8c-21.25,0-53.72-.71-53.33,9.25.43,11,32.51,5,32.51,17.62,0,15.33-65.9-.09-65.9,15.64s52.88,5.85,53.46,17.69c.67,13.79-32.13,11.2-34.63,20.51C114,293.09,182.48,293,182.48,293l16.58-71.66Z"/><path class="cls-5" d="M199,198h99.8c24.1,0,62.88-.38,62.88,12.05s-38,8.7-37,19.21c.76,7.89,11.79,11.18,25.08,11.15,8,0,39.39-1.9,39.39,7.89S375.78,258.4,378,268.46s29.79,24.81,45.69,24.81H334.14Z"/><path class="cls-19" d="M94.46,293.28s60.83,1.2,79.11-47.21,17.94-98.54,68.47-96.75c38.45,1.36,43.69,41.34,54.49,75,19.24,60,57.27,67,109.67,68.7H252.49Z"/><g class="cls-50"><path class="cls-23" d="M203.63,165.69s30.24,14,72,2.89c0,0,26.53,6.93,6,10.42-57.32,9.76-81.33-9.35-81.33-9.35C197,161.66,203.63,165.69,203.63,165.69Z"/></g><g class="cls-50"><path class="cls-23" d="M288.1,192.16s-41.74,29.41-97.78-3.72-9.86,16-9.86,16,70.26,29.65,109.69-4.82S288.1,192.16,288.1,192.16Z"/></g><g class="cls-50"><path class="cls-23" d="M180.59,224.49s59.61,29.8,119.08-2.12l5,28.74A378.94,378.94,0,0,0,261.3,259c-42.42,10.18-86.23-20.19-86.23-20.19Z"/></g><g class="cls-24"><g class="cls-51"><g class="cls-52"><ellipse class="cls-27" cx="237.22" cy="153.57" rx="9.57" ry="1.85" transform="translate(-1.01 1.57) rotate(-0.38)"/></g></g></g><path class="cls-46" d="M324.53,282.84s28.41,11.32,43-7.86c11.71-15.44,7.75-48.45,36.48-47.56,17.66.55,23.81,16.73,28.19,32.73,9,32.86,36.1,32.86,36.1,32.86H351.74Z"/><ellipse cx="240.7" cy="140.09" rx="0.33" ry="0.2"/><path class="cls-21" d="M358.48,289.39s2.51-5.49-1.22-8.53-8.67-1.77-11.91-2.2-11.77-.78-10.93-7.68c.62-5.1,6.74-7.46,12.39-4.21s10.68,3.48,11.55.52-3.87-6.8-8.32-8.07-12.86-3.5-11.72-8.71c1.25-5.75,9-3.73,12.86.5,2.62,2.84,6.46,5,8,3.67,2-1.77,1.65-4.05,1.37-8.06s.23-13.85,6-12.7c4.51.9,6.43,7.42,2.79,13.36-2.35,3.83-3.42,7.49-.88,8.92s6.43-1.68,9.81-3.74c4.21-2.57,9.28-1.77,9.53,2.82.2,3.82-4.43,8-13.72,8.63-5.2.33-7.32,4.35-5.28,6.68s6.36,1.73,10,.92,10.57.26,11.54,4.54c1.27,5.61-5.86,9.12-13.2,8C371.67,283.13,362.53,281.43,358.48,289.39Z"/><path class="cls-28" d="M364,258.07s.56,17.69-5.65,32.29"/><path class="cls-10" d="M232.81,149.25s-.67,4,.39,4.12a18.85,18.85,0,0,0,3.64.12c2.8-.48.33-3.14.33-3.14Z"/><path class="cls-12" d="M236.62,148.37s-1.29,5.38.23,5.54c1.32.14,5.53.18,6.26.23s1-.42-1.13-1.28-2.62-1.12-2.08-3.58S236.62,148.37,236.62,148.37Z"/><path d="M245.09,75s-.18-3.16-4.43-3.07-5.74,2.86-5.57,5.57,1,5,3.61,5.87,4.93-2.58,4.93-2.58l.76-3.68Z"/><path class="cls-9" d="M233.07,112.18,231,150.42l5.76.36.1-.87,4.76.88s8.18-13.5,8.87-17.25-2-17-2.53-20.23Z"/><path class="cls-4" d="M238.07,85.74a17.39,17.39,0,0,0,.64-2.37s2.63.26,3.22-1.62.31-2.22-.29-2.46-.48-1,.24-1,.3-1.21.59-1.85,1.94-.19,2.62-1.47c0,0,.78,6.8-.28,7.07s-2.26,0-2.46.79a7,7,0,0,0,0,2.7S241.71,88.44,238.07,85.74Z"/><path class="cls-4" d="M246.9,79.66a9.64,9.64,0,0,0-1.18-1.07c-.66-.5-3.57-1.95-1.35-2.05s2.72-.58,3.4.87a10.4,10.4,0,0,1,.85,2.51l-1.27.61Z"/><path class="cls-10" d="M238.06,85.65s-2.66.3-7.13,3.41c-4.78,3.33-7.5,5.07-8,7.17-.64,2.89,4,9.16,5.64,11.77l3.8-3.06s-2.58-4.39-3.44-6.11c-.32-.63.89-1.35,3.29-3,1.12-.79.92-.58.88,2.38,0,1.81-1,15.31-1,15.31l16.73.45s-1-17.5-.68-18c0,0,6.77,1.73,8.43.9,1.07-.53,1.58-2.81-.08-7.83-1.34-4-6.74-11.33-6.74-11.33l-4.12,3s6.8,10.09,6.5,10.43-4.14-2.88-5.91-4a10,10,0,0,0-3.9-1.57S239.83,86.9,238.06,85.65Z"/><path class="cls-4" d="M231,108.54c.24,1.34.8,4.81,1.08,4.26s.11-2.69.4-3.57.48-.54,1,0,.08-1.22-.76-2.31c-.32-.41-.35-.45-1-1.38,0,0-1.47,1.15-1.47,1.15A3.15,3.15,0,0,1,231,108.54Z"/><path class="cls-20" d="M89.58,299.63s-3.88-33.17,17.64-59.91c0,0,7.25,28.51-2.19,50Z"/><path id="SVGID-17" data-name="SVGID" class="cls-7" d="M89.58,299.63s-3.88-33.17,17.64-59.91c0,0,7.25,28.51-2.19,50Z"/><g class="cls-53"><path class="cls-10" d="M107.22,239.72s-9.72,48.42-9.83,57L89.14,301l-3.57-12,4-24.36,9.94-20.28Z"/></g><path class="cls-20" d="M106,298.32S95.24,257.54,57.6,236.06c0,0,4.64,36.86,25.67,57.78Z"/><path id="SVGID-18" data-name="SVGID" class="cls-7" d="M106,298.32S95.24,257.54,57.6,236.06c0,0,4.64,36.86,25.67,57.78Z"/><g class="cls-54"><path class="cls-10" d="M57.6,236.06s33.78,52.42,37.87,62.42l11.67,1.25L105.8,284l-16-26.78L68.8,237.95Z"/></g><path id="SVGID-19" data-name="SVGID" class="cls-7" d="M94.24,292.45s6.55-21.92,27.34-32.91c0,0-3.17,19.91-14.94,30.88Z"/><g class="cls-55"><path class="cls-10" d="M121.58,259.54s-19.24,27.83-21.63,33.18l-6.35.47,1-8.52,9.12-14.24,11.75-10.07Z"/></g><path class="cls-49" d="M287,287.27S247.45,290.5,233.14,275c-17.59-19-20.7-46.36-52.55-50.54-32.39-4.26-48.71,18.23-60.64,42.85s-35.26,25.93-35.26,25.93h180Z"/><path class="cls-21" d="M229.83,288.89c-4.12.19-6.41-4.58-2.84-7.59s7-4.46,4.69-7.73c-1.78-2.51-5.61.19-8.67,1.31-4.27,1.57-8.49-2.8-6.79-6.88,1.37-3.31,6.09-2.12,9.77-3.07s2.51-4,.14-6.34-4.92-8.17.4-10.25,6.78,3.5,7.26,6.32,3.23,5.58,5.93,2.2,5.49-6.52,8.64-4.12-1,6.77-3.4,9.35c-3,3.23.47,8.09,3.73,5.93s7.09-3.37,9.37.24c4.27,6.75-9.67,9.09-14.71,11.12S234,288.7,229.83,288.89Z"/><path class="cls-33" d="M236,267.71a108.12,108.12,0,0,1,12.33,23.24"/><path class="cls-47" d="M375.25,292.72s-31.57,1.21-41.75-29.6c-7.07-21.41-13.54-42.31-37.89-42.66-26.3-.38-36.77,24.2-42.56,43.19-5,16.26-6.27,18.39-11.72,29.06,0,0,8.37.28,32,.28,34,0,55.73-.28,55.73-.28Z"/><circle class="cls-4" cx="168.24" cy="156.54" r="1.6"/><circle class="cls-4" cx="189.92" cy="159.73" r="1.6"/><circle class="cls-4" cx="193.11" cy="171.95" r="1.6"/><circle class="cls-4" cx="174.77" cy="170.35" r="1.6"/><circle class="cls-4" cx="158.6" cy="183.4" r="1.6"/><circle class="cls-4" cx="160.2" cy="168.05" r="1.6"/><circle class="cls-4" cx="183.61" cy="185" r="1.6"/><circle class="cls-4" cx="171.58" cy="190.69" r="1.6"/><ellipse class="cls-4" cx="281.04" cy="137.53" rx="0.36" ry="0.37"/><ellipse class="cls-4" cx="278.72" cy="145.32" rx="0.36" ry="0.37"/><ellipse class="cls-4" cx="291.55" cy="147.88" rx="0.36" ry="0.37"/><ellipse class="cls-4" cx="272.94" cy="159.97" rx="0.36" ry="0.37" transform="translate(30.76 363.52) rotate(-70.42)"/><ellipse class="cls-4" cx="296.37" cy="140.66" rx="0.36" ry="0.37" transform="translate(64.53 372.76) rotate(-70.42)"/><ellipse class="cls-4" cx="272.2" cy="148.95" rx="0.36" ry="0.37" transform="matrix(0.34, -0.94, 0.94, 0.34, 40.65, 355.5)"/><ellipse class="cls-4" cx="287" cy="171.57" rx="0.36" ry="0.37" transform="translate(29.16 384.46) rotate(-70.42)"/><ellipse class="cls-4" cx="286.25" cy="155.3" rx="0.36" ry="0.37" transform="translate(44.01 372.97) rotate(-70.42)"/><ellipse class="cls-4" cx="301.74" cy="148.93" rx="0.36" ry="0.37" transform="translate(60.29 383.3) rotate(-70.42)"/><ellipse class="cls-4" cx="282.78" cy="163.88" rx="0.36" ry="0.37" transform="translate(33.62 375.39) rotate(-70.42)"/><ellipse class="cls-4" cx="295.32" cy="156.55" rx="0.36" ry="0.37" transform="translate(48.88 382.36) rotate(-70.43)"/><circle class="cls-4" cx="35.38" cy="260.76" r="2.02"/><circle class="cls-4" cx="52.76" cy="273.01" r="2.02"/><circle class="cls-4" cx="37.3" cy="282.77" r="2.02"/><circle class="cls-4" cx="39.42" cy="242.65" r="2.02"/><path class="cls-12" d="M437.6,301.12s-2.86-40.34-34.49-67.3c0,0-2.21,35.56,13.88,59Z"/><g class="cls-56"><path class="cls-7" d="M403.11,233.82s22.47,55.41,24.54,65.57l10.77,3.26L440,287.57l-10.25-28.08-16.4-21.89Z"/></g><path class="cls-47" d="M417.76,303.26s3.62-50.94,43.56-85c0,0,2.79,44.91-17.52,74.53Z"/><path id="SVGID-20" data-name="SVGID" class="cls-12" d="M417.76,303.26s3.62-50.94,43.56-85c0,0,2.79,44.91-17.52,74.53Z"/><g class="cls-57"><path class="cls-7" d="M461.32,218.27s-28.38,70-31,82.8l-13.61,4.12-2-19,12.95-35.46L448.42,223Z"/></g><path class="cls-12" d="M430.44,293.62s-12.74-24.6-39.94-33c0,0,8.25,23,24.73,33.37Z"/><path id="SVGID-21" data-name="SVGID" class="cls-12" d="M430.44,293.62s-12.74-24.6-39.94-33c0,0,8.25,23,24.73,33.37Z"/><g class="cls-58"><path class="cls-7" d="M390.49,260.63s29.16,28.77,33.22,34.6l7.66-.87-3.11-9.91L414.2,269.57l-16.25-9.33Z"/></g></g></g></svg>