<svg xmlns="http://www.w3.org/2000/svg" viewBox="0 0 750 750"><defs><style>.cls-1{fill:#eee;}.cls-2{fill:#dfc1a7;}.cls-3,.cls-7{fill:none;stroke-width:1.37px;}.cls-3{stroke:#000;}.cls-4{fill:#fff;}.cls-5{fill:#f2d2b5;}.cls-6{fill:#614033;}.cls-7{stroke:#dfc1a7;}.cls-8{fill:#ca6565;}.cls-9{fill:#300c0e;}.cls-10{fill:#ac5656;}</style></defs><title>kirstyn</title><g id="Layer_2" data-name="Layer 2"><g id="Layer_1-2" data-name="Layer 1"><circle class="cls-1" cx="375" cy="375" r="375"/><path class="cls-2" d="M225.27,430.1s15.64,113.22-1.44,160.35c0,0,100.41,49.12,166.3,10.91,0,0,28.72-134,28.72-179.6S400,401.25,400,401.25L254.07,393Z"/><path class="cls-3" d="M225.27,430.1s15.64,113.22-1.44,160.35c0,0,100.41,49.12,166.3,10.91,0,0,28.72-134,28.72-179.6S400,401.25,400,401.25L254.07,393Z"/><path class="cls-4" d="M240.67,283s13.49-10.5,24.06-9.77,24.56,11.22,24.39,14.29c-.15,2.85-12.77,6.59-24.5,6S242.32,284.46,240.67,283Z"/><path class="cls-5" d="M186.16,285.63S205,372.54,209.39,387.17c7.91,26.43,19.12,67.75,65.79,93.14,33.6,18.28,85.59,32.86,119.26-22.48,30.74-50.52,38.54-79.3,36.07-111.42S438,249.32,438,249.32l-24.12-70.9L329.21,133.2,261,136.9l-59,58.55-16.8,63.74Z"/><path class="cls-2" d="M288.27,288.47c.85-.93,18.12-13.82,15.76-20.06s-44.22-15.93-55.15-14.69-27.64,2.94-27.69,6,5.19,28.21,19,23.21S288.27,288.47,288.27,288.47Z"/><path class="cls-4" d="M240.22,282.94s13.53-10.45,24.1-9.67,24.51,11.33,24.33,14.39c-.17,2.85-12.8,6.54-24.53,5.88S241.86,284.38,240.22,282.94Z"/><path class="cls-2" d="M364.71,295c-.94-.84-11.38-15.56-9.66-22s39.6-15.1,50.6-15,27.79.15,28.15,3.19-.67,29.43-15,25.84S364.71,295,364.71,295Z"/><path class="cls-2" d="M433.83,361.64c.14-1.28-14.11,7.25-24.71,10-21.18,5.48-20.65,27.9-16,41.49,6.55,19.34,6.33,44.22-8.07,58C385,471.15,426.84,425.77,433.83,361.64Z"/><path class="cls-6" d="M264.62,293.52A10.55,10.55,0,0,1,254.07,283c0-5.83,4.84-9.71,10.66-9.71s10.44,3.88,10.44,9.71A10.55,10.55,0,0,1,264.62,293.52Z"/><ellipse cx="264.62" cy="282.97" rx="7.31" ry="7.43"/><path d="M304,268.41c-.39,1.92-6.75,4.39-14.54.45s-19-6.76-23.45-8.9a64.55,64.55,0,0,0-9.9-3.7c-1.35-.41-16.24-2-25.16,1.51s-8.73,2.61-9.78,2,15.18-6.83,23.77-7.63a67.91,67.91,0,0,1,23.59,1.78C276.87,255.83,305.61,260.5,304,268.41Z"/><path class="cls-7" d="M313.89,277.93s5.83,28.49,1.79,43.9S300.85,347,297.6,352.14c-3.53,5.53-7.47,11.86-.49,14.48,0,0,6.72-1.31,12.2,1,6,2.57,9,9,16.87,8.44s11.25-9.22,18.71-8.51c5.93.57,14.58,3.25,13.71-1.93s-5.58-11.29-9-18"/><path class="cls-8" d="M271.28,408.86s14.21,12.47,24.28,18.94,21.8,11.52,38.48,8,33-19.11,40.82-24.77Z"/><path class="cls-9" d="M151.75,281.74s.49,49.48-9.28,79.77S129.28,411.12,131.23,424s-5.37,37.16-13.23,52.8-16.12,59.66,2.44,74.32,56,36.53,91.63,41.6c33.91,4.82,26.11-22.44,28.55-59.08s-7.36-72.52-13.25-96.68-15.1-36.08-18-49.79-6.18-29.4-6.18-29.4-18.24,13-26.55-7-8.07-13.13-11.48-22.13-7-14.43-7-23.11-6-27.23-6-35Z"/><path d="M355,273c.39,1.92,6.75,4.39,14.54.45s19-6.76,23.45-8.9a64.55,64.55,0,0,1,9.9-3.7c1.35-.41,16.24-2,25.16,1.51s8.73,2.61,9.78,2-15.18-6.83-23.77-7.63a67.91,67.91,0,0,0-23.59,1.78C382.21,260.41,353.47,265.08,355,273Z"/><path class="cls-4" d="M413.34,292.84s-12.89-11.23-23.49-11.08-25.14,9.86-25.14,12.92c0,2.86,12.39,7.28,24.14,7.32S411.61,294.18,413.34,292.84Z"/><path class="cls-6" d="M388.85,302A10.55,10.55,0,0,0,400,292.08V292c.32-5.82-4.29-10-10.11-10.28s-10.64,3.3-11,9.12A10.55,10.55,0,0,0,388.8,302Z"/><ellipse cx="389.41" cy="291.45" rx="7.43" ry="7.31" transform="translate(76.94 664.21) rotate(-86.84)"/><path d="M286.35,284s-20.33-21.46-45.68-1c0,0-5.53,1.07-8.18-.49-3.4-2-1.42-1.11,3.29-2.48s2.62-2.24,3.76-4.52,2.41-2.24,6-2.28a12.67,12.67,0,0,0,7.23-2.3c1.33-.9,5.45,0,7.23,0h9C270.65,271,281.74,276.48,286.35,284Z"/><path d="M364.71,294.28s21.64-26.25,48.63-1.44a15.77,15.77,0,0,1,4-4.71c3.16-2.36,1.29-1.27-3.54-2.1s-2.85-1.94-4.23-4.08-2.64-2-6.19-1.61-5.79-1.5-7.21-2.24-5.65,1.36-7.42,1.56l-9,1C378.08,280.83,368.46,286.26,364.71,294.28Z"/><path class="cls-2" d="M288.27,288.47s-23.4,14.83-47.6-5.44c0,0-4.41,5.16,9,13.72C260,303.29,282.31,304.43,288.27,288.47Z"/><path class="cls-9" d="M288.91,147s-45.84,20-65.07,59.14S188.2,252.9,188.2,273.23s-6.17,16.91-9.95-2.3-5.49-33.26-15.09-26.23-4.12-17.15,6.52-51.1S194.35,71.51,289.12,54.36,448.58,68.52,480.7,157.05C510.59,239.45,512.33,257,535,283s47.5,53.3,29.72,110c-9.07,28.92-7.84,30,22,63.76s21.6,70.3,26.49,84,27.62,30.79,27.62,53.26-76,54.1-116.93,58.46C494,655.65,354.52,638,376,599.93s18.36-28.77,20.8-81,34.93-129.55,29.07-154.46-12.21-65.11-4.4-88.9-2.55-56.12-23.52-77.86C386.72,186.1,358.66,140,288.91,147Z"/><path class="cls-2" d="M364.71,295s23.53,17.1,48.63-2.16c0,0,3.86,6.23-10.2,13.74C392.38,312.32,369.44,311.36,364.71,295Z"/><path class="cls-10" d="M271.28,408.86s13.26,3.11,24.67,3.3,18.16,3,23.82,4.9,12.8-1.6,19.79-2.28,29.53-1.57,36-4.29c0,0-21.62-.25-28.42-4.49a22.3,22.3,0,0,0-19.55-2.33c-5.38,2-8.87,1.9-14.06-1.16S280.65,411,271.28,408.86Z"/><path class="cls-5" d="M187.32,288.14s-6.94-7.55-8.33-14.88,1-38.82-14.26-34.56-13.51,37.64-10.59,48.47,4.86,31.66,7.77,40,11.66,19,13.47,25.69,10.55,15.55,19.3,12.77,11.94-6.8,12.08-10.27S187.32,288.14,187.32,288.14Z"/><path class="cls-2" d="M295.9,366.62s13.36,6.45,19.23,5.79c1.49-.17-2.22-3.92-7.28-5.46S295.9,366.62,295.9,366.62Z"/><path class="cls-2" d="M332.56,374.12s17.7-.85,22.44-5.09c0,0-9.87-2.81-14.39-.73A26.92,26.92,0,0,0,332.56,374.12Z"/><path class="cls-2" d="M269,390.23s-16.32,10.87-7,23.94c.13.18-.89-6.38.21-12.18C263.62,395.07,269,390.23,269,390.23Z"/></g></g></svg>