<svg id="Layer_1" data-name="Layer 1" xmlns="http://www.w3.org/2000/svg" viewBox="0 0 750 750"><defs><style>.cls-1{fill:#eee;}.cls-2{fill:#d6af8e;}.cls-3,.cls-9{fill:none;stroke-width:1.37px;}.cls-3{stroke:#000;}.cls-4{fill:#462413;}.cls-5{fill:#edc29d;}.cls-6{fill:#dfc1a7;}.cls-7{fill:#fff;}.cls-8{fill:#a05028;}.cls-9{stroke:#d0a681;}.cls-10{fill:#d0a681;}.cls-11{fill:#ca6565;}.cls-12{fill:#ac5656;}</style></defs><title>sacha</title><g id="Layer_2" data-name="Layer 2"><g id="Layer_1-2" data-name="Layer 1-2"><circle class="cls-1" cx="375" cy="375" r="375"/><path class="cls-2" d="M283,452s41.5,156.4,17.3,183.7-25,19.2-32,25.4,82.8,57.6,141.8,5,57.6-142.9,57.6-142.9l-37.5-57.8Z"/><path class="cls-3" d="M410.1,666c59-52.7,57.6-142.9,57.6-142.9l-37.5-57.8-87,30.5"/><path class="cls-3" d="M300.3,635.7c-24.2,27.2-25,19.2-32,25.4"/><path class="cls-4" d="M360.91,63.11s-77.7-9.6-119.1,49.8-64.6,109.2-79,163.4c-19.1,72,19.6,78.4,14.2,129.2-4,38-52.2,59.3-47.7,106.2,3.4,35.4,33.5,35.7,43.9,80.4,10.3,44.3-13.1,83,53.6,85.5,20.6,2.5,50.3-14.9,78-43.7,39.5-41.2-25.9-206.9-44.6-243.9-48.6-39.4-.9-247.1,70-254l75.4-7.9s65.4,149.5,67.7,163.5,28.6,67.8,23.9,81.5c-39.9,33-49.6,112.4-92,130-4.9,4.6-36.1,29.2-32.3,60.5s21.1,47.6,21.4,64.9,1.8,40.3,6.7,46.4,58.2-4.5,86.6-11.1c24.9-5.8,69.7-38.4,81-97.7,9.1-48-46.3-43.5-48.3-92.1-1.5-37.6,18-69.4,24.5-98.5,3.6-16.2,19.4-48.6,6-78s-29.4-61.2-28.9-78.4c1.2-37.2-3.8-62.2-35.2-94.9S404.71,51.71,360.91,63.11Z"/><path class="cls-5" d="M240.94,336.4s3.3,42.7,17.7,73.3c18.9,40.2,22.7,42.6,37.7,56.4s36.1,32.3,56,37.5,47.8,4.9,60-3.7,44.1-49.2,51.7-66.9,12.6-27,21.5-40.1c6.9-10.3,15.4-23.1,16.7-43.4s-8.3-48.7-9.7-64.8-7.9-83.1-21.9-104.7-45.4-48.9-77.6-50.7-84.8.1-122.2,56.6S237.44,299.2,240.94,336.4Z"/><path class="cls-6" d="M346.39,294.37c1-1,21.13-15.37,18.38-22.31s-51.57-17.72-64.31-16.34-32.23,3.27-32.29,6.67,6.05,31.37,22.16,25.81S346.39,294.37,346.39,294.37Z"/><path d="M292.6,285.7s-4.1,1.8-6.7,1.1,1.7-1.3,3.6-3.8,2-3.5,3.3-4,1.8,1.6,3.5.1,1.9-2.7,3.5-3.8,3.7-.9,5.5-1.2,3.2-.6,4.3-1.9,5.4-2.4,6.9-1.7,6,2.2,7.7,1.6,5.5,2,7.5,3.5a28,28,0,0,1,6.7,6.6s-25.3-7.3-31.6-3.9S292.6,285.7,292.6,285.7Z"/><path class="cls-7" d="M291.7,286.5s15.2-14.2,30.3-11.1,19.5,12.4,23.2,15.6-1.8,4.9-8.9,5.3S308.7,301.9,291.7,286.5Z"/><ellipse class="cls-8" cx="317.68" cy="286.31" rx="11.2" ry="10.5" transform="translate(-52.91 72.87) rotate(-12.09)"/><path d="M316.85,281.6a4.85,4.85,0,0,1,5.88,3.76,5.15,5.15,0,0,1-3.92,6,4.85,4.85,0,0,1-5.88-3.76A5.15,5.15,0,0,1,316.85,281.6Z"/><path class="cls-4" d="M362.4,267.5s1.2-8.4-1-10.8-34.5-11.9-46.4-12.5-41.4,3.8-48,22c0,0,18.2-15.6,45.6-9.3C340.2,263.1,361.4,270,362.4,267.5Z"/><path class="cls-6" d="M483.93,289.75a7.2,7.2,0,0,0,3-.67c12.21-6,8-31.4,3.48-36.81-4.25-5.14-33.57,1.46-44.5,2.7s-27.64,2.94-27.69,6-2.65,39.41,11.16,34.41C441.71,290.92,476.56,289.92,483.93,289.75Z"/><path class="cls-9" d="M405.3,277.7c-2.9,1.2-15.65,39.57-3.25,58.37,10.7,31.4,19.15,35.53,8.45,43s-29.5,5-35.2,2.6-13.1.4-17.2-1.5-14.2-14-2.6-24.6"/><path d="M473.9,285.8s4.2,1.4,6.8.5-1.8-1.1-4-3.5-2.3-3.3-3.7-3.7-1.6,1.8-3.5.4-2.1-2.5-3.8-3.5-3.8-.6-5.6-.7-3.2-.3-4.5-1.5-5.7-1.9-7-1.1-5.7,2.8-7.5,2.3-5.3,2.5-7.1,4.2a31,31,0,0,0-6,7.1s24.5-9.5,31.1-6.8S473.9,285.8,473.9,285.8Z"/><path class="cls-7" d="M473.9,285.8s-18-12-32.7-7.6S427,290,423.6,293.5s2.3,4.7,9.4,4.5S458.5,302.7,473.9,285.8Z"/><path class="cls-8" d="M448,298.2c5.8.7,11.1-3.3,11.7-8.8a10.7,10.7,0,0,0-9.5-11.5,10.3,10.3,0,0,0-11.7,8.8C437.9,292.2,442.1,297.4,448,298.2Z"/><path d="M448.73,292.93a5.15,5.15,0,0,0,5.85-4.24h0a5.25,5.25,0,0,0-4.82-5.62,5.15,5.15,0,0,0-5.85,4.24h0A5.49,5.49,0,0,0,448.73,292.93Z"/><path class="cls-4" d="M416.6,266.8s-1.4-8.3.7-10.8,34.2-12.5,46-13.4,41.5,3.1,48.6,21.1c0,0-18.6-15.2-45.9-8.5S417.7,269.2,416.6,266.8Z"/><path class="cls-10" d="M467,399.1c-.1.3,0-11.2-9.5-12.4C457.5,386.7,472.6,385.6,467,399.1Z"/><path class="cls-10" d="M311.4,392.1c.3.1-11,1-11.2,10.7C300.2,402.9,297.5,387.8,311.4,392.1Z"/><path class="cls-11" d="M335.9,414.54s14.21,12.47,24.28,18.94,21.8,11.52,38.48,8,33-19.11,40.82-24.77Z"/><path class="cls-12" d="M336.24,414.52s13.26,3.11,24.67,3.3,18.16,3,23.82,4.9,12.8-1.6,19.79-2.28,29.53-1.57,36-4.29c0,0-21.62-.25-28.42-4.49a22.3,22.3,0,0,0-19.55-2.33c-5.38,2-8.87,1.9-14.06-1.16S345.61,416.66,336.24,414.52Z"/><path class="cls-6" d="M267,295.26c-1.26-.69-20.32-16.43-26.31-12s-3.76,54.4.87,66.35,25.94,33.21,29.24,32.38,14.3-16.89,4.76-31S267,295.26,267,295.26Z"/><path class="cls-6" d="M266.43,371.48c-2.1,16.91,26.53,17.08,29.85,16.32s1.12-20.22-.18-33-22-58.27-29.33-59.52-17.2,21.43-18,22.61C248.77,317.91,268.53,354.57,266.43,371.48Z"/></g></g></svg>