<?xml version="1.0" encoding="utf-8"?>
<!-- Generator: Adobe Illustrator 21.0.0, SVG Export Plug-In . SVG Version: 6.00 Build 0)  -->
<svg version="1.1" id="Layer_1" xmlns="http://www.w3.org/2000/svg" xmlns:xlink="http://www.w3.org/1999/xlink" x="0px" y="0px"
	 viewBox="0 0 750 750" style="enable-background:new 0 0 750 750;" xml:space="preserve">
<style type="text/css">
	.st0{fill:#EEEEEE;}
	.st1{fill:#D6AF8E;}
	.st2{fill:none;stroke:#000000;stroke-width:1.37;}
	.st3{fill:#462413;}
	.st4{fill:#EDC29D;}
	.st5{fill:#FFFFFF;}
	.st6{fill:#A05028;}
	.st7{fill:none;stroke:#D0A681;stroke-width:1.37;}
	.st8{fill:#CE5F4D;}
	.st9{fill:#BF634D;}
	.st10{fill:#D0A681;}
</style>
<title>sacha</title>
<g id="Layer_2">
	<g id="Layer_1-2">
		<circle class="st0" cx="375" cy="375" r="375"/>
		<path class="st1" d="M283,452c0,0,41.5,156.4,17.3,183.7s-25,19.2-32,25.4s82.8,57.6,141.8,5s57.6-142.9,57.6-142.9l-37.5-57.8
			L283,452z"/>
		<path class="st2" d="M410.1,666c59-52.7,57.6-142.9,57.6-142.9l-37.5-57.8l-87,30.5"/>
		<path class="st2" d="M300.3,635.7c-24.2,27.2-25,19.2-32,25.4"/>
		<path class="st3" d="M363.7,64.1c0,0-77.7-9.6-119.1,49.8s-64.6,109.2-79,163.4c-19.1,72,19.6,78.4,14.2,129.2
			c-4,38-52.2,59.3-47.7,106.2c3.4,35.4,33.5,35.7,43.9,80.4c10.3,44.3-13.1,83,53.6,85.5c20.6,2.5,50.3-14.9,78-43.7
			C347.1,593.7,281.7,428,263,391c-48.6-39.4-0.9-247.1,70-254l75.4-7.9c0,0,65.4,149.5,67.7,163.5s28.6,67.8,23.9,81.5
			c-39.9,33-49.6,112.4-92,130c-4.9,4.6-36.1,29.2-32.3,60.5s21.1,47.6,21.4,64.9s1.8,40.3,6.7,46.4s58.2-4.5,86.6-11.1
			c24.9-5.8,69.7-38.4,81-97.7c9.1-48-46.3-43.5-48.3-92.1c-1.5-37.6,18-69.4,24.5-98.5c3.6-16.2,19.4-48.6,6-78
			s-29.4-61.2-28.9-78.4c1.2-37.2-3.8-62.2-35.2-94.9S407.5,52.7,363.7,64.1z"/>
		<path class="st4" d="M243.4,334.6c0,0,3.3,42.7,17.7,73.3c18.9,40.2,22.7,42.6,37.7,56.4s36.1,32.3,56,37.5s47.8,4.9,60-3.7
			s44.1-49.2,51.7-66.9s12.6-27,21.5-40.1c6.9-10.3,15.4-23.1,16.7-43.4s-8.3-48.7-9.7-64.8s-7.9-83.1-21.9-104.7
			s-45.4-48.9-77.6-50.7c-32.2-1.8-84.8,0.1-122.2,56.6S239.9,297.4,243.4,334.6z"/>
		<path d="M292.6,285.7c0,0-4.1,1.8-6.7,1.1s1.7-1.3,3.6-3.8s2-3.5,3.3-4s1.8,1.6,3.5,0.1s1.9-2.7,3.5-3.8s3.7-0.9,5.5-1.2
			s3.2-0.6,4.3-1.9s5.4-2.4,6.9-1.7s6,2.2,7.7,1.6s5.5,2,7.5,3.5c2.6,1.8,4.8,4,6.7,6.6c0,0-25.3-7.3-31.6-3.9
			S292.6,285.7,292.6,285.7z"/>
		<path class="st5" d="M291.7,286.5c0,0,15.2-14.2,30.3-11.1s19.5,12.4,23.2,15.6s-1.8,4.9-8.9,5.3S308.7,301.9,291.7,286.5z"/>
		
			<ellipse transform="matrix(0.9778 -0.2094 0.2094 0.9778 -52.9193 72.888)" class="st6" cx="317.7" cy="286.3" rx="11.2" ry="10.5"/>
		<ellipse transform="matrix(0.9778 -0.2094 0.2094 0.9778 -52.9826 72.9706)" cx="318" cy="286.6" rx="4.6" ry="4.3"/>
		<path class="st3" d="M362.4,267.5c0,0,1.2-8.4-1-10.8s-34.5-11.9-46.4-12.5s-41.4,3.8-48,22c0,0,18.2-15.6,45.6-9.3
			C340.2,263.1,361.4,270,362.4,267.5z"/>
		<path class="st7" d="M405.3,277.7c-2.9,1.2-16.5,38.4-4.1,57.2c10.7,31.4,20,36.7,9.3,44.2s-29.5,5-35.2,2.6s-13.1,0.4-17.2-1.5
			s-14.2-14-2.6-24.6"/>
		<path class="st8" d="M315.3,404.5c0,0,25.7,6.5,37.2,13.9s32.1,8.2,43.9,6.7s24.3-3.4,29.9-8.5s10.5-7.5,16.4-10
			c0,0-6.4,9.7-12.5,20s-24.1,19.4-39.6,19.7c-25,0.5-33.1-3.7-46.3-14.4S329.4,417.3,315.3,404.5z"/>
		<path class="st9" d="M315.5,404.8c0,0,34.1,14.3,50.8,19.4c16.4,5,34.9,1.4,48.6-2.2c13.8-3.6,22.7-13.1,28.1-15.1
			c0,0-25.3,2.2-41.8,6.9s-14.5-1.3-29.1-2.2S322.3,403.4,315.5,404.8z"/>
		<path d="M473.9,285.8c0,0,4.2,1.4,6.8,0.5s-1.8-1.1-4-3.5s-2.3-3.3-3.7-3.7s-1.6,1.8-3.5,0.4s-2.1-2.5-3.8-3.5s-3.8-0.6-5.6-0.7
			s-3.2-0.3-4.5-1.5s-5.7-1.9-7-1.1s-5.7,2.8-7.5,2.3s-5.3,2.5-7.1,4.2c-2.4,2.1-4.4,4.5-6,7.1c0,0,24.5-9.5,31.1-6.8
			S473.9,285.8,473.9,285.8z"/>
		<path class="st5" d="M473.9,285.8c0,0-18-12-32.7-7.6S427,290,423.6,293.5s2.3,4.7,9.4,4.5S458.5,302.7,473.9,285.8z"/>
		<path class="st6" d="M448,298.2c5.8,0.7,11.1-3.3,11.7-8.8s-3.6-10.8-9.5-11.5c-5.9-0.7-11.1,3.3-11.7,8.8S442.1,297.4,448,298.2z
			"/>
		<path d="M448.8,292.3c2.4,0.4,4.7-1.3,5.1-3.7v0c0.2-2.5-1.7-4.7-4.2-4.9c-2.4-0.4-4.7,1.3-5.1,3.7v0
			C444.5,289.8,446.3,292,448.8,292.3z"/>
		<path class="st3" d="M419.6,265.8c0,0-1.4-8.3,0.7-10.8s34.2-12.5,46-13.4s41.5,3.1,48.6,21.1c0,0-18.6-15.2-45.9-8.5
			C441.8,260.9,420.7,268.2,419.6,265.8z"/>
		<path class="st10" d="M467,399.1c-0.1,0.3,0-11.2-9.5-12.4C457.5,386.7,472.6,385.6,467,399.1z"/>
		<path class="st10" d="M311.4,392.1c0.3,0.1-11,1-11.2,10.7C300.2,402.9,297.5,387.8,311.4,392.1z"/>
	</g>
</g>
</svg>
