<?xml version="1.0" encoding="utf-8"?>
<!-- Generator: Adobe Illustrator 16.0.0, SVG Export Plug-In . SVG Version: 6.00 Build 0)  -->
<!DOCTYPE svg PUBLIC "-//W3C//DTD SVG 1.1//EN" "http://www.w3.org/Graphics/SVG/1.1/DTD/svg11.dtd">
<svg version="1.1" id="Layer_1" xmlns="http://www.w3.org/2000/svg" xmlns:xlink="http://www.w3.org/1999/xlink" x="0px" y="0px"
	 width="379px" height="329px" viewBox="0 0 379 329" enable-background="new 0 0 379 329" xml:space="preserve">
<g>
	<defs>
		<rect id="SVGID_1_" x="24832" y="-15" width="421" height="367"/>
	</defs>
	<clipPath id="SVGID_2_">
		<use xlink:href="#SVGID_1_"  overflow="visible"/>
	</clipPath>
	<g clip-path="url(#SVGID_2_)">
		<image overflow="visible" width="421" height="367" xlink:href="B8E538C815535A5D.png"  transform="matrix(1 0 0 1 24832 -15)">
		</image>
	</g>
</g>
<g enable-background="new    ">
	<g>
		<defs>
			<rect id="SVGID_3_" x="32" y="43" width="301" height="247"/>
		</defs>
		<clipPath id="SVGID_4_">
			<use xlink:href="#SVGID_3_"  overflow="visible"/>
		</clipPath>
		<g clip-path="url(#SVGID_4_)">
			<defs>
				<path id="SVGID_5_" d="M36.733,200.067c-4.196,21.691,10.038,42.402,31.796,46.261l224.327,39.773
					c21.756,3.857,39.394-10.926,39.394-33.022V83.007C332.25,60.912,314.338,43,292.251,43H107.113
					c-22.09,0-43.398,17.575-47.595,39.276L36.733,200.067z"/>
			</defs>
			<clipPath id="SVGID_6_">
				<use xlink:href="#SVGID_5_"  overflow="visible"/>
			</clipPath>
			<g clip-path="url(#SVGID_6_)">
				<defs>
					<rect id="SVGID_7_" x="-60" y="-62" width="499" height="453"/>
				</defs>
				<clipPath id="SVGID_8_">
					<use xlink:href="#SVGID_7_"  overflow="visible"/>
				</clipPath>
				
					<path opacity="0.24" clip-path="url(#SVGID_8_)" fill="none" stroke="#111149" stroke-width="8" stroke-miterlimit="10" stroke-dasharray="7,7" d="
					M36.733,200.067c-4.196,21.691,10.038,42.402,31.796,46.261l224.327,39.773c21.756,3.857,39.394-10.926,39.394-33.022V83.007
					C332.25,60.912,314.338,43,292.251,43H107.113c-22.09,0-43.398,17.575-47.595,39.276L36.733,200.067z"/>
			</g>
		</g>
	</g>
</g>
</svg>
